# Blender 5.0.1
# www.blender.org
o GEO_ForestTree_A
v 3.898882 2.576203 10.792986
v 4.132949 2.576203 10.796076
v 4.130761 2.741476 10.961839
v 3.896693 2.741476 10.958748
v 3.152411 2.274312 11.713963
v 3.864570 1.627274 11.707253
v 3.870077 1.812702 11.870474
v 4.400724 0.000000 12.391556
v 4.391918 -0.000000 12.400723
v 3.608028 0.000000 12.400723
v 3.599276 0.000000 12.391909
v 3.599276 0.000000 11.607971
v 3.608028 0.000000 11.599277
v 4.391972 0.000000 11.599277
v 4.400724 -0.000000 11.608024
v 4.338301 0.573160 12.248424
v 4.329497 0.573160 12.257605
v 3.831839 0.573160 12.257605
v 3.823091 0.573160 12.248791
v 3.823091 0.573160 11.751084
v 3.831839 0.573160 11.742395
v 4.329553 0.573160 11.742395
v 4.338301 0.573160 11.751139
v 3.728521 1.988862 12.878724
v 3.736129 1.981067 12.885108
v 3.945789 1.981067 12.922011
v 3.955100 1.988685 12.918720
v 3.974894 2.167837 12.806262
v 3.967226 2.175089 12.800219
v 3.757571 2.175089 12.763316
v 3.748296 2.167834 12.766378
v 4.899955 2.057847 11.441518
v 4.891964 2.065247 11.435699
v 4.971369 2.065256 11.587125
v 4.971382 2.057847 11.577720
v 4.894022 2.205037 11.617537
v 4.902341 2.197119 11.623324
v 4.822670 2.197619 11.472039
v 4.822780 2.205037 11.481689
v 2.987363 2.091635 11.897391
v 2.990584 2.099010 11.906843
v 3.035168 2.099453 11.690022
v 3.028194 2.091635 11.697430
v 3.103364 2.267213 11.929873
v 3.109846 2.274312 11.922411
v 4.120272 1.286714 12.174367
v 4.110430 1.272768 12.174689
v 4.119237 1.272768 12.165462
v 3.764560 1.293340 12.175653
v 3.769859 1.272768 12.165872
v 3.778364 1.269920 12.175027
v 3.778240 1.264964 11.824386
v 3.769859 1.272768 11.833989
v 4.119237 1.272768 11.834050
v 4.110604 1.272118 11.825233
v 3.819685 1.575042 12.291826
v 3.811839 1.582522 12.284893
v 4.079144 1.582676 12.332556
v 4.069191 1.576617 12.338100
v 4.094570 1.804542 12.193275
v 4.102739 1.796491 12.198486
v 3.839530 1.802953 12.118578
v 3.829540 1.792497 12.124879
v 4.170375 1.598671 11.729044
v 4.182920 1.594910 11.733675
v 4.122512 1.805254 11.863030
v 4.120381 1.798893 11.851159
v 4.118436 1.812227 11.849603
v 4.109776 1.806243 11.856056
v 4.117979 1.805954 11.864128
v 4.329476 1.565349 11.964578
v 4.330446 1.572568 11.973320
v 4.220998 1.780136 12.030761
v 4.212484 1.788867 12.025089
v 3.678452 1.584389 12.073693
v 3.675160 1.577174 12.063562
v 3.726077 1.577174 11.814212
v 3.732600 1.585107 11.807912
v 3.707081 2.234093 12.213055
v 3.707081 2.783035 12.761996
v 3.158140 2.783035 12.213055
v 3.707081 2.394875 12.601215
v 3.390150 2.466103 12.529986
v 3.318921 2.783035 12.601215
v 3.318921 2.394875 12.213055
v 3.707081 3.379152 12.761996
v 3.707081 3.928093 12.213055
v 3.158140 3.379152 12.213055
v 3.707081 3.767312 12.601215
v 3.390150 3.696084 12.529986
v 3.318921 3.767312 12.213055
v 3.318921 3.379152 12.601215
v 3.707081 2.234093 11.616938
v 3.158140 2.783035 11.616938
v 3.707081 2.783035 11.067996
v 3.318921 2.394875 11.616938
v 3.390150 2.466103 11.300006
v 3.318921 2.783035 11.228777
v 3.707081 2.394875 11.228777
v 3.707081 3.928093 11.616938
v 3.707081 3.379152 11.067996
v 3.158140 3.379152 11.616938
v 3.707081 3.767312 11.228778
v 3.390150 3.696084 11.300006
v 3.318921 3.379152 11.228778
v 3.318921 3.767312 11.616938
v 4.303198 2.234093 12.213055
v 4.852139 2.783035 12.213055
v 4.303198 2.783035 12.761996
v 4.691359 2.394875 12.213055
v 4.620130 2.466103 12.529986
v 4.691359 2.783035 12.601215
v 4.303198 2.394875 12.601215
v 4.303198 3.928093 12.213055
v 4.303198 3.379152 12.761996
v 4.852139 3.379152 12.213055
v 4.303198 3.767312 12.601215
v 4.620130 3.696084 12.529986
v 4.691359 3.379152 12.601215
v 4.691359 3.767312 12.213055
v 4.303198 2.234093 11.616938
v 4.303198 2.783035 11.067996
v 4.852139 2.783035 11.616938
v 4.303198 2.394875 11.228778
v 4.620130 2.466103 11.300006
v 4.691359 2.783035 11.228778
v 4.691359 2.394875 11.616938
v 4.303198 3.928093 11.616938
v 4.852139 3.379152 11.616938
v 4.303198 3.379152 11.067996
v 4.691359 3.767312 11.616938
v 4.620130 3.696084 11.300006
v 4.691359 3.379152 11.228777
v 4.303198 3.767312 11.228777
v 3.796499 1.873184 12.898340
v 3.796499 2.184880 13.343487
v 3.412240 2.251606 12.965066
v 3.796499 1.936839 13.185468
v 3.574647 1.994600 13.145023
v 3.524787 2.204423 13.232650
v 3.524787 1.984021 12.917884
v 3.796499 2.595822 13.415948
v 3.796499 3.040969 13.104252
v 3.412240 2.662548 13.037526
v 3.796499 2.882950 13.352293
v 3.574647 2.842506 13.294532
v 3.524787 2.930132 13.084708
v 3.524787 2.615366 13.305111
v 3.796499 1.945644 12.487398
v 3.412240 2.324066 12.554124
v 3.796499 2.390792 12.175702
v 3.524787 2.056482 12.506941
v 3.574647 2.144109 12.297117
v 3.524787 2.371248 12.286539
v 3.796499 2.103664 12.239357
v 3.796499 3.113429 12.693310
v 3.796499 2.801734 12.248162
v 3.412240 2.735008 12.626584
v 3.796499 3.049775 12.406182
v 3.574647 2.992014 12.446627
v 3.524787 2.782190 12.358999
v 3.524787 3.002592 12.673766
v 4.213781 1.873184 12.898340
v 4.598040 2.251606 12.965066
v 4.213781 2.184880 13.343487
v 4.485493 1.984021 12.917884
v 4.435633 1.994600 13.145023
v 4.485493 2.204423 13.232650
v 4.213781 1.936839 13.185468
v 4.213781 3.040969 13.104252
v 4.213781 2.595822 13.415948
v 4.598040 2.662548 13.037526
v 4.213781 2.882950 13.352293
v 4.435633 2.842506 13.294532
v 4.485493 2.615366 13.305111
v 4.485493 2.930132 13.084708
v 4.213781 1.945644 12.487398
v 4.213781 2.390792 12.175702
v 4.598040 2.324066 12.554124
v 4.213781 2.103664 12.239357
v 4.435633 2.144109 12.297117
v 4.485493 2.371248 12.286539
v 4.485493 2.056482 12.506941
v 4.213781 3.113429 12.693310
v 4.598040 2.735008 12.626584
v 4.213781 2.801734 12.248162
v 4.485493 3.002592 12.673766
v 4.435633 2.992014 12.446627
v 4.485493 2.782190 12.358999
v 4.213781 3.049775 12.406181
v 4.298492 1.898679 11.683592
v 4.083208 2.311324 12.058694
v 4.047894 2.396774 11.468122
v 4.120514 2.018859 11.925539
v 3.984007 2.121214 11.734594
v 3.943315 2.371065 11.773179
v 4.095543 2.079281 11.507941
v 4.150715 2.761219 12.119753
v 4.490329 3.177155 11.857103
v 4.115402 2.846669 11.529180
v 4.275936 3.054648 12.066114
v 4.123296 3.049490 11.860579
v 4.250965 3.115070 11.648516
v 4.010822 2.820959 11.834237
v 4.599784 1.900466 11.337312
v 4.349186 2.398561 11.121841
v 4.939398 2.316402 11.074661
v 4.396835 2.081068 11.161661
v 4.605670 2.124901 11.020108
v 4.636979 2.375179 10.975940
v 4.814178 2.022973 11.128300
v 4.791621 3.178941 11.510823
v 5.006905 2.766297 11.135720
v 4.416694 2.848455 11.182899
v 4.969599 3.058762 11.268875
v 4.744959 3.053176 11.146091
v 4.704485 2.825073 11.036998
v 4.552257 3.116858 11.302236
v 4.638133 1.807673 11.978638
v 5.013060 2.138159 12.306561
v 4.422849 2.220318 12.353740
v 4.877497 1.869757 12.187224
v 4.684795 1.933438 12.343369
v 4.725268 2.161541 12.452462
v 4.460155 1.927852 12.220586
v 4.829970 3.086148 12.152149
v 4.490356 2.670212 12.414799
v 5.080567 2.588053 12.367620
v 4.615576 2.963642 12.361160
v 4.824084 2.861714 12.469353
v 4.792776 2.611435 12.513520
v 5.032919 2.905546 12.327799
v 4.939425 1.809460 11.632358
v 5.279038 2.225396 11.369707
v 5.314352 2.139946 11.960280
v 5.153819 1.931966 11.423346
v 5.306458 1.937125 11.628882
v 5.418932 2.165655 11.655223
v 5.178789 1.871544 11.840944
v 5.131262 3.087935 11.805869
v 5.381860 2.589840 12.021339
v 5.346546 2.675291 11.430766
v 5.334211 2.907334 11.981519
v 5.445746 2.865401 11.754866
v 5.486439 2.615549 11.716281
v 5.309240 2.967756 11.563921
v 3.578614 2.294950 11.211771
v 3.898034 2.666331 11.434213
v 3.365771 2.743236 11.419549
v 3.781577 2.403111 11.390321
v 3.599674 2.495231 11.497731
v 3.631075 2.720097 11.537242
v 3.405210 2.457492 11.379951
v 3.958073 3.071235 11.378476
v 3.749227 3.445578 11.053385
v 3.425810 3.148141 11.363813
v 3.919805 3.335322 11.262000
v 3.723553 3.330680 11.382730
v 3.543437 3.389702 11.251632
v 3.691114 3.125002 11.481505
v 3.291781 2.296558 10.914477
v 3.078939 2.744844 11.122255
v 3.082935 2.670901 10.589386
v 3.118378 2.459100 11.082659
v 3.007846 2.498549 10.884319
v 2.970701 2.723800 10.852784
v 3.121203 2.406814 10.705863
v 3.462395 3.447186 10.756092
v 3.142974 3.075806 10.533650
v 3.138978 3.149749 11.066520
v 3.259431 3.339025 10.577542
v 3.131725 3.333997 10.769319
v 3.030740 3.128704 10.797049
v 3.256605 3.391311 10.954338
v 3.869786 2.213044 10.930401
v 4.193203 2.510482 10.619973
v 4.189207 2.584425 11.152843
v 4.075575 2.268920 10.732155
v 4.200455 2.326233 10.917174
v 4.301440 2.531526 10.889444
v 4.072750 2.321206 11.108951
v 4.040400 3.363672 10.772015
v 4.249246 2.989330 11.097107
v 4.253242 2.915387 10.564237
v 4.210977 3.253416 10.980630
v 4.324335 3.161682 10.802174
v 4.361479 2.936430 10.833709
v 4.213803 3.201131 10.603834
v 3.582953 2.214653 10.633107
v 3.374107 2.588995 10.308016
v 3.906370 2.512090 10.322680
v 3.412376 2.324908 10.424493
v 3.608628 2.329551 10.303762
v 3.641066 2.535229 10.204987
v 3.788743 2.270528 10.434861
v 3.753567 3.365281 10.474722
v 3.966409 2.916995 10.266944
v 3.434146 2.993900 10.252280
v 3.926970 3.202739 10.306540
v 3.732507 3.164999 10.188762
v 3.701105 2.940133 10.149251
v 3.550603 3.257119 10.296172
v 3.421552 2.172240 12.098500
v 3.536555 2.751475 12.060089
v 3.112141 2.557569 12.424078
v 3.596822 2.440210 12.105446
v 3.475351 2.478858 12.324574
v 3.378035 2.712678 12.335664
v 3.296716 2.303098 12.362825
v 3.290247 3.122736 11.970672
v 2.721613 3.227260 11.844401
v 2.865833 2.928830 12.334661
v 3.029748 3.294961 11.899581
v 2.967139 3.244888 12.140078
v 2.729642 3.157849 12.156960
v 3.131727 3.083939 12.246247
v 3.050358 1.914487 12.050797
v 2.740948 2.299816 12.376373
v 2.481724 2.019011 11.924526
v 2.925522 2.045345 12.315121
v 2.709459 1.947031 12.226145
v 2.523437 2.119255 12.225835
v 2.742223 1.846785 11.995617
v 2.350419 2.969507 11.796698
v 2.235415 2.390272 11.835109
v 2.494640 2.671077 12.286957
v 2.175149 2.701537 11.789752
v 2.201247 2.713060 12.041648
v 2.277129 2.490515 12.136417
v 2.358448 2.900096 12.109256
v 3.511245 2.125056 11.655526
v 3.367024 2.423486 11.165267
v 3.626248 2.704291 11.617114
v 3.503216 2.194467 11.342967
v 3.660417 2.381503 11.410576
v 3.584535 2.604048 11.315806
v 3.686515 2.393026 11.662472
v 2.811306 3.180076 11.401427
v 3.379940 3.075552 11.527698
v 3.120716 2.794747 11.075850
v 3.119441 3.247777 11.456607
v 3.152204 3.147533 11.226079
v 3.338227 2.975308 11.226389
v 2.936142 3.049218 11.137102
v 3.140051 1.867303 11.607822
v 2.571417 1.971828 11.481552
v 2.995830 2.165733 11.117562
v 2.831916 1.799602 11.552643
v 2.894525 1.849676 11.312146
v 2.729937 2.010624 11.205976
v 3.132021 1.936714 11.295263
v 2.440112 2.922323 11.353723
v 2.749523 2.536994 11.028146
v 2.325109 2.343088 11.392135
v 2.564948 2.791465 11.089398
v 2.386313 2.615705 11.127650
v 2.483629 2.381884 11.116560
v 2.264842 2.654353 11.346777
vn -0.7101 -0.4753 -0.5195
vn 0.7415 -0.4593 -0.4890
vn 0.6716 0.5194 0.5285
vn -0.6907 0.5146 0.5080
vn 0.5102 0.6118 -0.6045
vn -0.5174 -0.2362 -0.8225
vn -0.1686 0.9727 -0.1594
vn 0.8936 0.1979 0.4030
vn 0.3788 0.2628 0.8874
vn -0.4023 0.3666 0.8389
vn -0.8352 0.4160 0.3597
vn -0.8340 0.4161 -0.3624
vn -0.3993 0.3658 -0.8406
vn 0.3701 0.2628 -0.8911
vn 0.8887 0.1998 -0.4126
vn 0.9084 0.2464 0.3378
vn 0.4019 0.2511 0.8806
vn -0.3339 0.2205 0.9164
vn -0.9026 0.2123 0.3745
vn -0.9028 0.2118 -0.3744
vn -0.3339 0.2200 -0.9166
vn 0.3913 0.2497 -0.8857
vn 0.9046 0.2472 -0.3474
vn -0.9528 -0.2949 0.0719
vn -0.4769 -0.7552 0.4498
vn 0.2913 -0.7565 0.5856
vn 0.8747 -0.2917 0.3871
vn 0.9402 0.3405 -0.0103
vn 0.4646 0.7978 -0.3842
vn -0.3302 0.7958 -0.5077
vn -0.9103 0.2950 -0.2904
vn 0.2728 -0.7701 -0.5766
vn -0.2540 -0.2381 -0.9374
vn 0.6482 -0.2925 0.7030
vn 0.6198 -0.7831 0.0503
vn -0.1627 0.8173 0.5528
vn 0.3189 0.3427 0.8837
vn -0.5940 0.4703 -0.6527
vn -0.5288 0.8452 -0.0767
vn -0.6180 -0.7418 0.2604
vn -0.4390 -0.3040 0.8455
vn -0.0018 -0.2401 -0.9707
vn -0.4507 -0.7288 -0.5155
vn -0.0711 0.2771 0.9582
vn 0.3648 0.7758 0.5148
vn 0.7408 -0.3031 0.5995
vn 0.3754 -0.1413 0.9160
vn 0.9337 -0.0869 0.3473
vn -0.8135 -0.2000 0.5461
vn -0.9339 -0.2095 0.2896
vn -0.4405 -0.1657 0.8823
vn -0.4397 -0.0399 -0.8973
vn -0.9186 -0.1346 -0.3715
vn 0.8675 -0.0787 -0.4911
vn 0.2935 -0.0679 -0.9535
vn -0.4504 -0.5211 0.7250
vn -0.9046 -0.1351 0.4043
vn 0.8113 -0.2017 0.5487
vn 0.3008 -0.5826 0.7551
vn 0.3944 0.9124 -0.1097
vn 0.8748 0.3978 0.2765
vn 0.0003 0.9997 0.0224
vn -0.7552 0.4088 0.5124
vn 0.2159 -0.3480 -0.9123
vn 0.4502 -0.6209 -0.6417
vn -0.0566 0.9982 0.0198
vn 0.4035 0.7934 -0.4558
vn 0.6718 0.5945 0.4418
vn 0.1655 0.9225 0.3488
vn 0.2491 0.9665 0.0616
vn 0.7840 -0.6186 0.0514
vn 0.7742 -0.2203 0.5934
vn 0.5682 0.4529 0.6871
vn 0.1311 0.9236 0.3604
vn -0.7389 -0.1438 0.6583
vn -0.8590 -0.4850 0.1636
vn -0.7261 -0.4542 -0.5162
vn -0.3892 -0.0786 -0.9178
vn -0.1794 -0.9673 0.1794
vn -0.1794 -0.1794 0.9673
vn -0.9673 -0.1794 0.1794
vn -0.1726 -0.6965 0.6965
vn -0.5774 -0.5774 0.5774
vn -0.6965 -0.1726 0.6965
vn -0.6965 -0.6965 0.1726
vn -0.1794 0.1794 0.9673
vn -0.1794 0.9673 0.1794
vn -0.9673 0.1794 0.1794
vn -0.1726 0.6965 0.6965
vn -0.5774 0.5774 0.5774
vn -0.6965 0.6965 0.1726
vn -0.6965 0.1726 0.6965
vn -0.1794 -0.9673 -0.1794
vn -0.9673 -0.1794 -0.1794
vn -0.1794 -0.1794 -0.9673
vn -0.6965 -0.6965 -0.1726
vn -0.5774 -0.5774 -0.5774
vn -0.6965 -0.1726 -0.6965
vn -0.1726 -0.6965 -0.6965
vn -0.1794 0.9673 -0.1794
vn -0.1794 0.1794 -0.9673
vn -0.9673 0.1794 -0.1794
vn -0.1726 0.6965 -0.6965
vn -0.5774 0.5774 -0.5774
vn -0.6965 0.1726 -0.6965
vn -0.6965 0.6965 -0.1726
vn 0.1794 -0.9673 0.1794
vn 0.9673 -0.1794 0.1794
vn 0.1794 -0.1794 0.9673
vn 0.6965 -0.6965 0.1726
vn 0.5774 -0.5774 0.5774
vn 0.6965 -0.1726 0.6965
vn 0.1726 -0.6965 0.6965
vn 0.1794 0.9673 0.1794
vn 0.1794 0.1794 0.9673
vn 0.9673 0.1794 0.1794
vn 0.1726 0.6965 0.6965
vn 0.5774 0.5774 0.5774
vn 0.6965 0.1726 0.6965
vn 0.6965 0.6965 0.1726
vn 0.1794 -0.9673 -0.1794
vn 0.1794 -0.1794 -0.9673
vn 0.9673 -0.1794 -0.1794
vn 0.1726 -0.6965 -0.6965
vn 0.5774 -0.5774 -0.5774
vn 0.6965 -0.1726 -0.6965
vn 0.6965 -0.6965 -0.1726
vn 0.1794 0.9673 -0.1794
vn 0.9673 0.1794 -0.1794
vn 0.1794 0.1794 -0.9673
vn 0.6965 0.6965 -0.1726
vn 0.5774 0.5774 -0.5774
vn 0.6965 0.1726 -0.6965
vn 0.1726 0.6965 -0.6965
vn -0.1794 -0.9837 0.0087
vn -0.1794 -0.3446 0.9215
vn -0.9673 -0.2078 0.1455
vn -0.1726 -0.8069 0.5650
vn -0.5774 -0.6688 0.4683
vn -0.6965 -0.2909 0.6560
vn -0.6965 -0.7159 0.0490
vn -0.1794 0.0087 0.9837
vn -0.1794 0.9215 0.3446
vn -0.9673 0.1455 0.2078
vn -0.1726 0.5650 0.8069
vn -0.5773 0.4683 0.6688
vn -0.6965 0.6560 0.2909
vn -0.6965 0.0490 0.7159
vn -0.1794 -0.9215 -0.3446
vn -0.9673 -0.1455 -0.2078
vn -0.1794 -0.0087 -0.9837
vn -0.6965 -0.6560 -0.2909
vn -0.5774 -0.4683 -0.6688
vn -0.6965 -0.0490 -0.7159
vn -0.1726 -0.5650 -0.8069
vn -0.1794 0.9837 -0.0087
vn -0.1794 0.3446 -0.9215
vn -0.9673 0.2078 -0.1455
vn -0.1726 0.8069 -0.5650
vn -0.5774 0.6688 -0.4683
vn -0.6965 0.2909 -0.6560
vn -0.6965 0.7159 -0.0490
vn 0.1794 -0.9837 0.0087
vn 0.9673 -0.2078 0.1455
vn 0.1794 -0.3446 0.9215
vn 0.6965 -0.7159 0.0490
vn 0.5774 -0.6688 0.4683
vn 0.6965 -0.2909 0.6560
vn 0.1726 -0.8069 0.5650
vn 0.1794 0.9215 0.3446
vn 0.1794 0.0087 0.9837
vn 0.9673 0.1455 0.2078
vn 0.1726 0.5650 0.8069
vn 0.5773 0.4683 0.6688
vn 0.6965 0.0490 0.7159
vn 0.6965 0.6560 0.2909
vn 0.1794 -0.9215 -0.3446
vn 0.1794 -0.0087 -0.9837
vn 0.9673 -0.1455 -0.2078
vn 0.1726 -0.5650 -0.8069
vn 0.5774 -0.4683 -0.6688
vn 0.6965 -0.0490 -0.7159
vn 0.6965 -0.6560 -0.2909
vn 0.1794 0.9837 -0.0087
vn 0.9673 0.2078 -0.1455
vn 0.1794 0.3446 -0.9215
vn 0.6965 0.7159 -0.0490
vn 0.5774 0.6688 -0.4683
vn 0.6965 0.2909 -0.6560
vn 0.1726 0.8069 -0.5650
vn -0.3927 -0.9132 -0.1087
vn -0.7940 -0.1440 0.5906
vn -0.8599 0.0153 -0.5103
vn -0.6873 -0.6512 0.3219
vn -0.8911 -0.4537 -0.0124
vn -0.9979 -0.0338 0.0548
vn -0.7311 -0.5452 -0.4102
vn -0.7413 0.2076 0.6383
vn -0.1082 0.9829 0.1487
vn -0.8071 0.3669 -0.4626
vn -0.4824 0.7142 0.5072
vn -0.7213 0.6781 0.1412
vn -0.5262 0.8201 -0.2249
vn -0.9472 0.3045 0.1007
vn -0.1572 -0.9118 -0.3793
vn -0.6244 0.0167 -0.7809
vn 0.4758 -0.1365 -0.8689
vn -0.5045 -0.5439 -0.6705
vn -0.1331 -0.4492 -0.8835
vn -0.0836 -0.0283 -0.9961
vn 0.2271 -0.6457 -0.7290
vn 0.1273 0.9843 -0.1219
vn 0.5286 0.2151 -0.8212
vn -0.5716 0.3683 -0.7332
vn 0.4319 0.7196 -0.5437
vn 0.0367 0.6826 -0.7299
vn -0.0328 0.3099 -0.9502
vn -0.2997 0.8214 -0.4852
vn -0.1273 -0.9843 0.1219
vn 0.5716 -0.3683 0.7332
vn -0.5286 -0.2151 0.8212
vn 0.2997 -0.8214 0.4852
vn -0.0367 -0.6826 0.7299
vn 0.0328 -0.3099 0.9502
vn -0.4319 -0.7196 0.5437
vn 0.1572 0.9118 0.3793
vn -0.4758 0.1365 0.8689
vn 0.6244 -0.0167 0.7809
vn -0.2271 0.6457 0.7290
vn 0.1331 0.4492 0.8835
vn 0.0836 0.0283 0.9961
vn 0.5045 0.5439 0.6705
vn 0.1082 -0.9829 -0.1487
vn 0.7413 -0.2076 -0.6383
vn 0.8071 -0.3669 0.4626
vn 0.4824 -0.7142 -0.5072
vn 0.7213 -0.6781 -0.1412
vn 0.9472 -0.3045 -0.1007
vn 0.5262 -0.8201 0.2249
vn 0.3927 0.9132 0.1087
vn 0.8599 -0.0153 0.5103
vn 0.7940 0.1440 -0.5906
vn 0.7311 0.5452 0.4102
vn 0.8911 0.4537 0.0124
vn 0.9979 0.0338 -0.0548
vn 0.6873 0.6512 -0.3219
vn -0.1425 -0.9132 0.3818
vn 0.5191 -0.1440 0.8425
vn -0.5833 0.0153 0.8121
vn 0.2607 -0.6512 0.7127
vn -0.0900 -0.4537 0.8866
vn -0.0324 -0.0338 0.9989
vn -0.4723 -0.5452 0.6925
vn 0.5713 0.2076 0.7941
vn 0.1387 0.9829 0.1207
vn -0.5312 0.3669 0.7637
vn 0.4632 0.7142 0.5248
vn 0.0778 0.6781 0.7308
vn -0.2699 0.8201 0.5046
vn 0.0178 0.3045 0.9523
vn -0.3915 -0.9118 0.1236
vn -0.8324 0.0167 0.5539
vn -0.8241 -0.1365 -0.5497
vn -0.7120 -0.5439 0.4442
vn -0.8917 -0.4492 0.0556
vn -0.9996 -0.0283 -0.0036
vn -0.7065 -0.6457 -0.2897
vn -0.1104 0.9843 -0.1374
vn -0.7720 0.2151 -0.5981
vn -0.7802 0.3683 0.5055
vn -0.5040 0.7196 -0.4777
vn -0.7239 0.6826 -0.1001
vn -0.9494 0.3099 -0.0501
vn -0.5095 0.8214 0.2562
vn 0.1104 -0.9843 0.1374
vn 0.7802 -0.3683 -0.5055
vn 0.7720 -0.2151 0.5981
vn 0.5095 -0.8214 -0.2562
vn 0.7239 -0.6826 0.1001
vn 0.9494 -0.3099 0.0501
vn 0.5040 -0.7196 0.4777
vn 0.3915 0.9118 -0.1236
vn 0.8241 0.1365 0.5497
vn 0.8324 -0.0167 -0.5539
vn 0.7065 0.6457 0.2897
vn 0.8917 0.4492 -0.0556
vn 0.9996 0.0283 0.0036
vn 0.7120 0.5439 -0.4442
vn -0.1387 -0.9829 -0.1207
vn -0.5713 -0.2076 -0.7941
vn 0.5312 -0.3669 -0.7637
vn -0.4632 -0.7142 -0.5248
vn -0.0778 -0.6781 -0.7308
vn -0.0178 -0.3045 -0.9523
vn 0.2699 -0.8201 -0.5046
vn 0.1425 0.9132 -0.3818
vn 0.5833 -0.0153 -0.8121
vn -0.5191 0.1440 -0.8425
vn 0.4723 0.5452 -0.6925
vn 0.0900 0.4537 -0.8866
vn 0.0324 0.0338 -0.9989
vn -0.2607 0.6512 -0.7127
vn 0.6354 -0.6699 0.3840
vn 0.8520 0.4207 0.3117
vn 0.0528 0.0556 0.9971
vn 0.9124 -0.1561 0.3784
vn 0.6706 -0.0843 0.7370
vn 0.5250 0.3264 0.7860
vn 0.3810 -0.3988 0.8341
vn 0.6575 0.7138 0.2411
vn -0.4132 0.9106 0.0033
vn -0.1416 0.3487 0.9265
vn 0.1574 0.9820 0.1043
vn 0.0447 0.8591 0.5098
vn -0.3740 0.7392 0.5600
vn 0.3379 0.6084 0.7181
vn 0.3424 -0.8734 0.3464
vn -0.2402 -0.1478 0.9594
vn -0.7283 -0.6766 0.1086
vn 0.0991 -0.5946 0.7979
vn -0.2726 -0.7392 0.6158
vn -0.6129 -0.4637 0.6398
vn -0.2255 -0.9462 0.2322
vn -0.7062 0.7072 -0.0343
vn -0.9228 -0.3835 0.0380
vn -0.4347 0.1452 0.8888
vn -0.9805 0.1919 -0.0420
vn -0.8985 0.2042 0.3886
vn -0.7999 -0.1818 0.5719
vn -0.6560 0.5435 0.5238
vn 0.7062 -0.7072 0.0343
vn 0.4347 -0.1452 -0.8888
vn 0.9228 0.3835 -0.0380
vn 0.6560 -0.5435 -0.5238
vn 0.8985 -0.2042 -0.3886
vn 0.7999 0.1818 -0.5719
vn 0.9805 -0.1919 0.0420
vn -0.3424 0.8734 -0.3464
vn 0.7283 0.6766 -0.1086
vn 0.2402 0.1478 -0.9594
vn 0.2255 0.9462 -0.2322
vn 0.2726 0.7392 -0.6158
vn 0.6129 0.4637 -0.6398
vn -0.0991 0.5946 -0.7979
vn 0.4132 -0.9106 -0.0033
vn -0.6575 -0.7138 -0.2411
vn 0.1416 -0.3487 -0.9265
vn -0.1574 -0.9820 -0.1043
vn -0.0447 -0.8591 -0.5098
vn -0.3379 -0.6084 -0.7181
vn 0.3740 -0.7392 -0.5600
vn -0.6354 0.6699 -0.3840
vn -0.0528 -0.0556 -0.9971
vn -0.8520 -0.4207 -0.3117
vn -0.3810 0.3988 -0.8341
vn -0.6706 0.0843 -0.7370
vn -0.5250 -0.3264 -0.7860
vn -0.9124 0.1561 -0.3784
vt 0.614943 0.437559
vt 0.610443 0.437599
vt 0.587900 0.437793
vt 0.591911 0.437809
vt 0.623209 0.439421
vt 0.623548 0.439349
vt 0.623548 0.439414
vt 0.623048 0.436831
vt 0.623548 0.436870
vt 0.623617 0.436931
vt 0.610623 0.439437
vt 0.610778 0.439422
vt 0.610454 0.439408
vt 0.610599 0.439345
vt 0.610606 0.439404
vt 0.616159 0.436551
vt 0.615967 0.436598
vt 0.623737 0.436931
vt 0.615729 0.439877
vt 0.623563 0.439351
vt 0.615638 0.439786
vt 0.615984 0.436204
vt 0.616159 0.436180
vt 0.610836 0.439293
vt 0.611233 0.440154
vt 0.611021 0.440092
vt 0.610641 0.439234
vt 0.616271 0.440951
vt 0.616446 0.440944
vt 0.616211 0.437232
vt 0.616030 0.437175
vt 0.616026 0.439122
vt 0.616173 0.439049
vt 0.654440 0.441463
vt 0.640528 0.441009
vt 0.640528 0.440944
vt 0.654440 0.441399
vt 0.640528 0.437257
vt 0.654440 0.435627
vt 0.654440 0.435691
vt 0.640528 0.437321
vt 0.654440 0.441399
vt 0.640528 0.440945
vt 0.606167 0.436569
vt 0.606356 0.436624
vt 0.606171 0.438218
vt 0.606356 0.438151
vt 0.601647 0.438307
vt 0.601823 0.438362
vt 0.610933 0.437304
vt 0.601823 0.436713
vt 0.601647 0.436780
vt 0.610679 0.437377
vt 0.604313 0.445040
vt 0.604493 0.445098
vt 0.604313 0.445618
vt 0.604493 0.445618
vt 0.600920 0.445055
vt 0.601112 0.445116
vt 0.601100 0.444536
vt 0.600920 0.444536
vt 0.603494 0.431195
vt 0.603673 0.431172
vt 0.603483 0.431520
vt 0.603673 0.431469
vt 0.599411 0.432016
vt 0.599239 0.432064
vt 0.599239 0.432374
vt 0.591911 0.439513
vt 0.587900 0.439497
vt 0.719226 0.597225
vt 0.719226 0.601207
vt 0.715301 0.602971
vt 0.714419 0.601207
vt 0.719226 0.610821
vt 0.714419 0.610821
vt 0.712428 0.610821
vt 0.719226 0.625585
vt 0.719226 0.635198
vt 0.715301 0.633434
vt 0.714419 0.625585
vt 0.719226 0.639180
vt 0.714419 0.635198
vt 0.712428 0.625585
vt 0.726608 0.597225
vt 0.731414 0.601207
vt 0.730532 0.602971
vt 0.726608 0.601207
vt 0.733405 0.610821
vt 0.731414 0.610821
vt 0.726608 0.610821
vt 0.726608 0.639180
vt 0.726608 0.635198
vt 0.730532 0.633434
vt 0.731414 0.635198
vt 0.726608 0.625585
vt 0.731414 0.625585
vt 0.733405 0.625585
vt 0.720333 0.602844
vt 0.720333 0.604421
vt 0.717586 0.605851
vt 0.716968 0.605589
vt 0.720333 0.610564
vt 0.716968 0.611048
vt 0.715574 0.612217
vt 0.720333 0.620742
vt 0.720333 0.627853
vt 0.717586 0.626851
vt 0.716968 0.621226
vt 0.720333 0.631767
vt 0.716968 0.629022
vt 0.715574 0.622394
vt 0.720333 0.604639
vt 0.716968 0.607384
vt 0.717586 0.609554
vt 0.720333 0.608553
vt 0.715574 0.614011
vt 0.716968 0.615180
vt 0.720333 0.615664
vt 0.720333 0.633561
vt 0.720333 0.631985
vt 0.717586 0.630554
vt 0.716968 0.630816
vt 0.720333 0.625842
vt 0.716968 0.625358
vt 0.715574 0.624189
vt 0.725500 0.602844
vt 0.728865 0.605589
vt 0.728248 0.605851
vt 0.725500 0.604421
vt 0.730259 0.612217
vt 0.728865 0.611048
vt 0.725500 0.610564
vt 0.725500 0.631767
vt 0.725500 0.627853
vt 0.728248 0.626851
vt 0.728865 0.629022
vt 0.725500 0.620742
vt 0.728865 0.621226
vt 0.730259 0.622394
vt 0.725500 0.604639
vt 0.725500 0.608553
vt 0.728248 0.609554
vt 0.728865 0.607384
vt 0.725500 0.615664
vt 0.728865 0.615180
vt 0.730259 0.614011
vt 0.725500 0.633561
vt 0.728865 0.630816
vt 0.728248 0.630554
vt 0.725500 0.631985
vt 0.730259 0.624189
vt 0.728865 0.625358
vt 0.725500 0.625842
vt 0.717760 0.603476
vt 0.715556 0.606452
vt 0.713866 0.608987
vt 0.715247 0.607949
vt 0.715094 0.613696
vt 0.713362 0.615175
vt 0.714657 0.615812
vt 0.715930 0.624838
vt 0.717481 0.632105
vt 0.715591 0.631978
vt 0.714198 0.626318
vt 0.720136 0.635140
vt 0.717172 0.633602
vt 0.715493 0.626954
vt 0.721491 0.603520
vt 0.718978 0.607993
vt 0.721564 0.609079
vt 0.724146 0.606554
vt 0.718388 0.615856
vt 0.721952 0.615277
vt 0.725697 0.613821
vt 0.723867 0.635184
vt 0.726071 0.632207
vt 0.723289 0.632069
vt 0.720903 0.633646
vt 0.726533 0.624964
vt 0.722788 0.626420
vt 0.719224 0.626999
vt 0.721966 0.601222
vt 0.724930 0.602759
vt 0.722544 0.604337
vt 0.719762 0.604198
vt 0.726609 0.609407
vt 0.723045 0.609986
vt 0.719300 0.611442
vt 0.724342 0.632886
vt 0.721687 0.629852
vt 0.724269 0.627327
vt 0.726855 0.628413
vt 0.720136 0.622584
vt 0.723881 0.621128
vt 0.727445 0.620549
vt 0.725697 0.601266
vt 0.728352 0.604300
vt 0.730242 0.604428
vt 0.728661 0.602804
vt 0.729903 0.611567
vt 0.731635 0.610088
vt 0.730340 0.609451
vt 0.728073 0.632930
vt 0.730586 0.628457
vt 0.731967 0.627418
vt 0.730277 0.629953
vt 0.731176 0.620594
vt 0.732471 0.621230
vt 0.730739 0.622710
vt 0.721833 0.604948
vt 0.724347 0.607627
vt 0.722094 0.609909
vt 0.719686 0.608974
vt 0.725789 0.614146
vt 0.722483 0.615478
vt 0.719198 0.616051
vt 0.726532 0.624175
vt 0.726058 0.630715
vt 0.723628 0.630600
vt 0.723226 0.625506
vt 0.723946 0.633446
vt 0.721398 0.632062
vt 0.719941 0.626079
vt 0.718281 0.604988
vt 0.716134 0.609014
vt 0.714765 0.609991
vt 0.716169 0.607719
vt 0.715646 0.616091
vt 0.714305 0.615570
vt 0.715695 0.614260
vt 0.720394 0.633486
vt 0.717881 0.630807
vt 0.716299 0.630682
vt 0.717846 0.632102
vt 0.716439 0.624288
vt 0.715049 0.625598
vt 0.716389 0.626119
vt 0.725439 0.602920
vt 0.727987 0.604304
vt 0.729534 0.605723
vt 0.727952 0.605599
vt 0.729444 0.610286
vt 0.730784 0.610808
vt 0.729395 0.612118
vt 0.727552 0.631417
vt 0.729664 0.628687
vt 0.731068 0.626415
vt 0.729699 0.627392
vt 0.730138 0.622146
vt 0.731528 0.620836
vt 0.730188 0.620315
vt 0.721887 0.602960
vt 0.719775 0.605690
vt 0.722205 0.605805
vt 0.724436 0.604344
vt 0.719301 0.612231
vt 0.722607 0.610899
vt 0.725892 0.610326
vt 0.724000 0.631457
vt 0.726147 0.627432
vt 0.723739 0.626497
vt 0.721487 0.628778
vt 0.726636 0.620355
vt 0.723350 0.620928
vt 0.720044 0.622259
vt 0.728993 0.608914
vt 0.731164 0.615551
vt 0.729660 0.616508
vt 0.727448 0.612155
vt 0.730418 0.623260
vt 0.728455 0.622299
vt 0.725162 0.618458
vt 0.727367 0.632455
vt 0.724142 0.636720
vt 0.723366 0.635480
vt 0.725404 0.631494
vt 0.720326 0.635044
vt 0.720425 0.633325
vt 0.722112 0.627653
vt 0.724397 0.602530
vt 0.722851 0.605771
vt 0.720175 0.603336
vt 0.720581 0.600854
vt 0.720565 0.612074
vt 0.717872 0.607602
vt 0.717355 0.605119
vt 0.715729 0.628660
vt 0.713559 0.622023
vt 0.713882 0.622309
vt 0.715828 0.626941
vt 0.714305 0.614314
vt 0.714822 0.616797
vt 0.717515 0.621269
vt 0.730104 0.607746
vt 0.730005 0.609465
vt 0.731951 0.614097
vt 0.732275 0.614382
vt 0.728318 0.615137
vt 0.731012 0.619609
vt 0.731528 0.622091
vt 0.721436 0.633875
vt 0.725252 0.635552
vt 0.725658 0.633069
vt 0.722982 0.630634
vt 0.728478 0.631286
vt 0.727962 0.628804
vt 0.725268 0.624332
vt 0.725507 0.601362
vt 0.721692 0.599685
vt 0.722467 0.600925
vt 0.725408 0.603081
vt 0.718466 0.603951
vt 0.720429 0.604911
vt 0.723722 0.608753
vt 0.716840 0.627491
vt 0.718386 0.624250
vt 0.716174 0.619897
vt 0.714669 0.620855
vt 0.720671 0.617948
vt 0.717379 0.614106
vt 0.715416 0.613146
s 1
f 6/1/6 7/2/7 4/3/4 1/4/1
f 46/5/46 47/6/47 48/7/48
f 49/8/49 50/9/50 51/10/51
f 66/11/66 67/12/67 68/13/68 69/14/69 70/15/70
f 53/9/53 77/16/77 78/17/78 52/18/52
f 65/19/65 54/7/54 55/20/55 64/21/64
f 49/8/49 75/22/75 76/23/76 50/9/50
f 61/24/61 73/25/73 74/26/74 60/27/60
f 72/28/72 46/5/46 48/7/48 71/29/71
f 51/10/51 56/30/56 57/31/57 49/8/49
f 46/5/46 58/32/58 59/33/59 47/6/47
f 8/34/8 16/35/16 17/36/17 9/37/9
f 19/38/19 11/39/11 10/40/10 18/41/18
f 21/41/21 13/40/13 12/39/12 20/38/20
f 23/35/23 15/34/15 14/42/14 22/43/22
f 16/35/16 48/7/48 47/6/47 17/36/17
f 50/9/50 19/38/19 18/41/18 51/10/51
f 52/18/52 21/41/21 20/38/20 53/9/53
f 54/7/54 23/35/23 22/43/22 55/20/55
f 24/44/24 57/31/57 56/30/56 25/45/25
f 58/32/58 27/46/27 26/47/26 59/33/59
f 60/27/60 29/48/29 28/49/28 61/24/61
f 63/50/63 31/51/31 30/52/30 62/53/62
f 64/21/64 33/54/33 32/55/32 65/19/65
f 34/56/34 72/28/72 71/29/71 35/57/35
f 36/58/36 74/26/74 73/25/73 37/59/37
f 38/60/38 67/12/67 66/11/66 39/61/39
f 75/22/75 41/62/41 40/63/40 76/23/76
f 42/64/42 78/17/78 77/16/77 43/65/43
f 44/66/44 63/50/63 62/53/62 45/67/45
f 17/36/17 18/41/18 10/40/10 9/37/9
f 23/35/23 16/35/16 8/34/8 15/34/15
f 19/38/19 20/38/20 12/39/12 11/39/11
f 21/41/21 22/43/22 14/42/14 13/40/13
f 54/7/54 48/7/48 16/35/16 23/35/23
f 47/6/47 51/10/51 18/41/18 17/36/17
f 20/38/20 19/38/19 50/9/50 53/9/53
f 52/18/52 55/20/55 22/43/22 21/41/21
f 57/31/57 24/44/24 31/51/31 63/50/63
f 59/33/59 26/47/26 25/45/25 56/30/56
f 61/24/61 28/49/28 27/46/27 58/32/58
f 62/53/62 30/52/30 29/48/29 60/27/60
f 64/21/64 67/12/67 38/60/38 33/54/33
f 71/29/71 65/19/65 32/55/32 35/57/35
f 73/25/73 72/28/72 34/56/34 37/59/37
f 66/11/66 74/26/74 36/58/36 39/61/39
f 75/22/75 63/50/63 44/66/44 41/62/41
f 77/16/77 76/23/76 40/63/40 43/65/43
f 7/2/7 78/17/78 42/64/42 5/68/5
f 62/53/62 7/2/7 5/68/5 45/67/45
f 71/29/71 48/7/48 54/7/54 65/19/65
f 58/32/58 46/5/46 72/28/72 61/24/61
f 47/6/47 59/33/59 51/10/51
f 76/23/76 77/16/77 53/9/53 50/9/50
f 57/31/57 63/50/63 75/22/75 49/8/49
f 59/33/59 56/30/56 51/10/51
f 78/17/78 7/2/7 6/1/6 52/18/52
f 55/20/55 52/18/52 6/1/6
f 64/21/64 55/20/55 6/1/6
f 62/53/62 60/27/60 7/2/7
f 60/27/60 70/15/70 69/14/69 7/2/7
f 60/27/60 74/26/74 66/11/66 70/15/70
f 72/28/72 73/25/73 61/24/61
f 64/21/64 6/1/6 1/4/1 2/69/2
f 68/13/68 67/12/67 64/21/64 2/69/2 3/70/3
f 7/2/7 69/14/69 68/13/68 3/70/3 4/3/4
f 79/71/79 82/72/82 83/73/83 85/74/85
f 80/75/80 84/76/84 83/73/83 82/72/82
f 81/77/81 85/74/85 83/73/83 84/76/84
f 86/78/86 89/79/89 90/80/90 92/81/92
f 87/82/87 91/83/91 90/80/90 89/79/89
f 88/84/88 92/81/92 90/80/90 91/83/91
f 93/71/93 96/74/96 97/73/97 99/72/99
f 94/77/94 98/76/98 97/73/97 96/74/96
f 95/75/95 99/72/99 97/73/97 98/76/98
f 100/82/100 103/79/103 104/80/104 106/83/106
f 101/78/101 105/81/105 104/80/104 103/79/103
f 102/84/102 106/83/106 104/80/104 105/81/105
f 107/85/107 110/86/110 111/87/111 113/88/113
f 108/89/108 112/90/112 111/87/111 110/86/110
f 109/91/109 113/88/113 111/87/111 112/90/112
f 114/92/114 117/93/117 118/94/118 120/95/120
f 115/96/115 119/97/119 118/94/118 117/93/117
f 116/98/116 120/95/120 118/94/118 119/97/119
f 121/85/121 124/88/124 125/87/125 127/86/127
f 122/91/122 126/90/126 125/87/125 124/88/124
f 123/89/123 127/86/127 125/87/125 126/90/126
f 128/92/128 131/95/131 132/94/132 134/93/134
f 129/98/129 133/97/133 132/94/132 131/95/131
f 130/96/130 134/93/134 132/94/132 133/97/133
f 93/71/93 79/71/79 85/74/85 96/74/96
f 96/74/96 85/74/85 81/77/81 94/77/94
f 80/75/80 86/78/86 92/81/92 84/76/84
f 84/76/84 92/81/92 88/84/88 81/77/81
f 87/82/87 100/82/100 106/83/106 91/83/91
f 91/83/91 106/83/106 102/84/102 88/84/88
f 101/78/101 95/75/95 98/76/98 105/81/105
f 105/81/105 98/76/98 94/77/94 102/84/102
f 121/85/121 93/71/93 99/72/99 124/88/124
f 124/88/124 99/72/99 95/75/95 122/91/122
f 100/82/100 128/92/128 134/93/134 103/79/103
f 103/79/103 134/93/134 130/96/130 101/78/101
f 129/98/129 123/89/123 126/90/126 133/97/133
f 133/97/133 126/90/126 122/91/122 130/96/130
f 107/85/107 121/85/121 127/86/127 110/86/110
f 110/86/110 127/86/127 123/89/123 108/89/108
f 128/92/128 114/92/114 120/95/120 131/95/131
f 131/95/131 120/95/120 116/98/116 129/98/129
f 115/96/115 109/91/109 112/90/112 119/97/119
f 119/97/119 112/90/112 108/89/108 116/98/116
f 79/71/79 107/85/107 113/88/113 82/72/82
f 82/72/82 113/88/113 109/91/109 80/75/80
f 114/92/114 87/82/87 89/79/89 117/93/117
f 117/93/117 89/79/89 86/78/86 115/96/115
f 93/71/93 121/85/121 107/85/107 79/71/79
f 81/77/81 88/84/88 102/84/102 94/77/94
f 109/91/109 115/96/115 86/78/86 80/75/80
f 128/92/128 100/82/100 87/82/87 114/92/114
f 95/75/95 101/78/101 130/96/130 122/91/122
f 123/89/123 129/98/129 116/98/116 108/89/108
f 135/99/135 138/100/138 139/101/139 141/102/141
f 136/103/136 140/104/140 139/101/139 138/100/138
f 137/105/137 141/102/141 139/101/139 140/104/140
f 142/106/142 145/107/145 146/108/146 148/109/148
f 143/110/143 147/111/147 146/108/146 145/107/145
f 144/112/144 148/109/148 146/108/146 147/111/147
f 149/113/149 152/114/152 153/115/153 155/116/155
f 150/117/150 154/118/154 153/115/153 152/114/152
f 151/119/151 155/116/155 153/115/153 154/118/154
f 156/120/156 159/121/159 160/122/160 162/123/162
f 157/124/157 161/125/161 160/122/160 159/121/159
f 158/126/158 162/123/162 160/122/160 161/125/161
f 163/127/163 166/128/166 167/129/167 169/130/169
f 164/131/164 168/132/168 167/129/167 166/128/166
f 165/133/165 169/130/169 167/129/167 168/132/168
f 170/134/170 173/135/173 174/136/174 176/137/176
f 171/138/171 175/139/175 174/136/174 173/135/173
f 172/140/172 176/137/176 174/136/174 175/139/175
f 177/141/177 180/142/180 181/143/181 183/144/183
f 178/145/178 182/146/182 181/143/181 180/142/180
f 179/147/179 183/144/183 181/143/181 182/146/182
f 184/148/184 187/149/187 188/150/188 190/151/190
f 185/152/185 189/153/189 188/150/188 187/149/187
f 186/154/186 190/151/190 188/150/188 189/153/189
f 149/113/149 135/99/135 141/102/141 152/114/152
f 152/114/152 141/102/141 137/105/137 150/117/150
f 136/103/136 142/106/142 148/109/148 140/104/140
f 140/104/140 148/109/148 144/112/144 137/105/137
f 143/110/143 156/120/156 162/123/162 147/111/147
f 147/111/147 162/123/162 158/126/158 144/112/144
f 157/124/157 151/119/151 154/118/154 161/125/161
f 161/125/161 154/118/154 150/117/150 158/126/158
f 177/141/177 149/113/149 155/116/155 180/142/180
f 180/142/180 155/116/155 151/119/151 178/145/178
f 156/120/156 184/148/184 190/151/190 159/121/159
f 159/121/159 190/151/190 186/154/186 157/124/157
f 185/152/185 179/147/179 182/146/182 189/153/189
f 189/153/189 182/146/182 178/145/178 186/154/186
f 163/127/163 177/141/177 183/144/183 166/128/166
f 166/128/166 183/144/183 179/147/179 164/131/164
f 184/148/184 170/134/170 176/137/176 187/149/187
f 187/149/187 176/137/176 172/140/172 185/152/185
f 171/138/171 165/133/165 168/132/168 175/139/175
f 175/139/175 168/132/168 164/131/164 172/140/172
f 135/99/135 163/127/163 169/130/169 138/100/138
f 138/100/138 169/130/169 165/133/165 136/103/136
f 170/134/170 143/110/143 145/107/145 173/135/173
f 173/135/173 145/107/145 142/106/142 171/138/171
f 149/113/149 177/141/177 163/127/163 135/99/135
f 137/105/137 144/112/144 158/126/158 150/117/150
f 165/133/165 171/138/171 142/106/142 136/103/136
f 184/148/184 156/120/156 143/110/143 170/134/170
f 151/119/151 157/124/157 186/154/186 178/145/178
f 179/147/179 185/152/185 172/140/172 164/131/164
f 191/155/191 194/156/194 195/157/195 197/158/197
f 192/159/192 196/160/196 195/157/195 194/156/194
f 193/161/193 197/158/197 195/157/195 196/160/196
f 198/162/198 201/163/201 202/164/202 204/165/204
f 199/166/199 203/167/203 202/164/202 201/163/201
f 200/168/200 204/165/204 202/164/202 203/167/203
f 205/169/205 208/170/208 209/171/209 211/172/211
f 206/173/206 210/174/210 209/171/209 208/170/208
f 207/175/207 211/172/211 209/171/209 210/174/210
f 212/176/212 215/177/215 216/178/216 218/179/218
f 213/180/213 217/181/217 216/178/216 215/177/215
f 214/182/214 218/179/218 216/178/216 217/181/217
f 219/183/219 222/184/222 223/185/223 225/186/225
f 220/187/220 224/188/224 223/185/223 222/184/222
f 221/189/221 225/186/225 223/185/223 224/188/224
f 226/190/226 229/191/229 230/192/230 232/193/232
f 227/194/227 231/195/231 230/192/230 229/191/229
f 228/196/228 232/193/232 230/192/230 231/195/231
f 233/197/233 236/198/236 237/199/237 239/200/239
f 234/201/234 238/202/238 237/199/237 236/198/236
f 235/203/235 239/200/239 237/199/237 238/202/238
f 240/204/240 243/205/243 244/206/244 246/207/246
f 241/208/241 245/209/245 244/206/244 243/205/243
f 242/210/242 246/207/246 244/206/244 245/209/245
f 205/169/205 191/155/191 197/158/197 208/170/208
f 208/170/208 197/158/197 193/161/193 206/173/206
f 192/159/192 198/162/198 204/165/204 196/160/196
f 196/160/196 204/165/204 200/168/200 193/161/193
f 199/166/199 212/176/212 218/179/218 203/167/203
f 203/167/203 218/179/218 214/182/214 200/168/200
f 213/180/213 207/175/207 210/174/210 217/181/217
f 217/181/217 210/174/210 206/173/206 214/182/214
f 233/197/233 205/169/205 211/172/211 236/198/236
f 236/198/236 211/172/211 207/175/207 234/201/234
f 212/176/212 240/204/240 246/207/246 215/177/215
f 215/177/215 246/207/246 242/210/242 213/180/213
f 241/208/241 235/203/235 238/202/238 245/209/245
f 245/209/245 238/202/238 234/201/234 242/210/242
f 219/183/219 233/197/233 239/200/239 222/184/222
f 222/184/222 239/200/239 235/203/235 220/187/220
f 240/204/240 226/190/226 232/193/232 243/205/243
f 243/205/243 232/193/232 228/196/228 241/208/241
f 227/194/227 221/189/221 224/188/224 231/195/231
f 231/195/231 224/188/224 220/187/220 228/196/228
f 191/155/191 219/183/219 225/186/225 194/156/194
f 194/156/194 225/186/225 221/189/221 192/159/192
f 226/190/226 199/166/199 201/163/201 229/191/229
f 229/191/229 201/163/201 198/162/198 227/194/227
f 205/169/205 233/197/233 219/183/219 191/155/191
f 193/161/193 200/168/200 214/182/214 206/173/206
f 221/189/221 227/194/227 198/162/198 192/159/192
f 240/204/240 212/176/212 199/166/199 226/190/226
f 207/175/207 213/180/213 242/210/242 234/201/234
f 235/203/235 241/208/241 228/196/228 220/187/220
f 247/211/247 250/212/250 251/213/251 253/214/253
f 248/215/248 252/216/252 251/213/251 250/212/250
f 249/217/249 253/214/253 251/213/251 252/216/252
f 254/218/254 257/219/257 258/220/258 260/221/260
f 255/222/255 259/223/259 258/220/258 257/219/257
f 256/224/256 260/221/260 258/220/258 259/223/259
f 261/225/261 264/226/264 265/227/265 267/228/267
f 262/229/262 266/230/266 265/227/265 264/226/264
f 263/231/263 267/228/267 265/227/265 266/230/266
f 268/232/268 271/233/271 272/234/272 274/235/274
f 269/236/269 273/237/273 272/234/272 271/233/271
f 270/238/270 274/235/274 272/234/272 273/237/273
f 275/239/275 278/240/278 279/241/279 281/242/281
f 276/243/276 280/244/280 279/241/279 278/240/278
f 277/245/277 281/242/281 279/241/279 280/244/280
f 282/246/282 285/247/285 286/248/286 288/249/288
f 283/250/283 287/251/287 286/248/286 285/247/285
f 284/252/284 288/249/288 286/248/286 287/251/287
f 289/253/289 292/254/292 293/255/293 295/256/295
f 290/257/290 294/258/294 293/255/293 292/254/292
f 291/259/291 295/256/295 293/255/293 294/258/294
f 296/260/296 299/261/299 300/262/300 302/263/302
f 297/264/297 301/265/301 300/262/300 299/261/299
f 298/266/298 302/263/302 300/262/300 301/265/301
f 261/225/261 247/211/247 253/214/253 264/226/264
f 264/226/264 253/214/253 249/217/249 262/229/262
f 248/215/248 254/218/254 260/221/260 252/216/252
f 252/216/252 260/221/260 256/224/256 249/217/249
f 255/222/255 268/232/268 274/235/274 259/223/259
f 259/223/259 274/235/274 270/238/270 256/224/256
f 269/236/269 263/231/263 266/230/266 273/237/273
f 273/237/273 266/230/266 262/229/262 270/238/270
f 289/253/289 261/225/261 267/228/267 292/254/292
f 292/254/292 267/228/267 263/231/263 290/257/290
f 268/232/268 296/260/296 302/263/302 271/233/271
f 271/233/271 302/263/302 298/266/298 269/236/269
f 297/264/297 291/259/291 294/258/294 301/265/301
f 301/265/301 294/258/294 290/257/290 298/266/298
f 275/239/275 289/253/289 295/256/295 278/240/278
f 278/240/278 295/256/295 291/259/291 276/243/276
f 296/260/296 282/246/282 288/249/288 299/261/299
f 299/261/299 288/249/288 284/252/284 297/264/297
f 283/250/283 277/245/277 280/244/280 287/251/287
f 287/251/287 280/244/280 276/243/276 284/252/284
f 247/211/247 275/239/275 281/242/281 250/212/250
f 250/212/250 281/242/281 277/245/277 248/215/248
f 282/246/282 255/222/255 257/219/257 285/247/285
f 285/247/285 257/219/257 254/218/254 283/250/283
f 261/225/261 289/253/289 275/239/275 247/211/247
f 249/217/249 256/224/256 270/238/270 262/229/262
f 277/245/277 283/250/283 254/218/254 248/215/248
f 296/260/296 268/232/268 255/222/255 282/246/282
f 263/231/263 269/236/269 298/266/298 290/257/290
f 291/259/291 297/264/297 284/252/284 276/243/276
f 303/267/303 306/268/306 307/269/307 309/270/309
f 304/271/304 308/272/308 307/269/307 306/268/306
f 305/273/305 309/270/309 307/269/307 308/272/308
f 310/274/310 313/275/313 314/276/314 316/277/316
f 311/278/311 315/279/315 314/276/314 313/275/313
f 312/280/312 316/277/316 314/276/314 315/279/315
f 317/281/317 320/282/320 321/283/321 323/284/323
f 318/285/318 322/286/322 321/283/321 320/282/320
f 319/287/319 323/284/323 321/283/321 322/286/322
f 324/288/324 327/289/327 328/290/328 330/291/330
f 325/292/325 329/293/329 328/290/328 327/289/327
f 326/294/326 330/291/330 328/290/328 329/293/329
f 331/295/331 334/296/334 335/297/335 337/298/337
f 332/299/332 336/300/336 335/297/335 334/296/334
f 333/301/333 337/298/337 335/297/335 336/300/336
f 338/302/338 341/303/341 342/304/342 344/305/344
f 339/306/339 343/307/343 342/304/342 341/303/341
f 340/308/340 344/305/344 342/304/342 343/307/343
f 345/309/345 348/310/348 349/311/349 351/312/351
f 346/313/346 350/314/350 349/311/349 348/310/348
f 347/315/347 351/312/351 349/311/349 350/314/350
f 352/316/352 355/317/355 356/318/356 358/319/358
f 353/320/353 357/321/357 356/318/356 355/317/355
f 354/322/354 358/319/358 356/318/356 357/321/357
f 317/281/317 303/267/303 309/270/309 320/282/320
f 320/282/320 309/270/309 305/273/305 318/285/318
f 304/271/304 310/274/310 316/277/316 308/272/308
f 308/272/308 316/277/316 312/280/312 305/273/305
f 311/278/311 324/288/324 330/291/330 315/279/315
f 315/279/315 330/291/330 326/294/326 312/280/312
f 325/292/325 319/287/319 322/286/322 329/293/329
f 329/293/329 322/286/322 318/285/318 326/294/326
f 345/309/345 317/281/317 323/284/323 348/310/348
f 348/310/348 323/284/323 319/287/319 346/313/346
f 324/288/324 352/316/352 358/319/358 327/289/327
f 327/289/327 358/319/358 354/322/354 325/292/325
f 353/320/353 347/315/347 350/314/350 357/321/357
f 357/321/357 350/314/350 346/313/346 354/322/354
f 331/295/331 345/309/345 351/312/351 334/296/334
f 334/296/334 351/312/351 347/315/347 332/299/332
f 352/316/352 338/302/338 344/305/344 355/317/355
f 355/317/355 344/305/344 340/308/340 353/320/353
f 339/306/339 333/301/333 336/300/336 343/307/343
f 343/307/343 336/300/336 332/299/332 340/308/340
f 303/267/303 331/295/331 337/298/337 306/268/306
f 306/268/306 337/298/337 333/301/333 304/271/304
f 338/302/338 311/278/311 313/275/313 341/303/341
f 341/303/341 313/275/313 310/274/310 339/306/339
f 317/281/317 345/309/345 331/295/331 303/267/303
f 305/273/305 312/280/312 326/294/326 318/285/318
f 333/301/333 339/306/339 310/274/310 304/271/304
f 352/316/352 324/288/324 311/278/311 338/302/338
f 319/287/319 325/292/325 354/322/354 346/313/346
f 347/315/347 353/320/353 340/308/340 332/299/332
