# Blender 5.0.1
# www.blender.org
o GEO_Rock_C
v 10.000000 0.000000 -1.225341
v 10.000000 0.000000 -0.011086
v 10.000000 0.410633 0.028099
v 10.000000 0.591519 -1.264527
v 10.000000 0.141124 -1.310208
v 10.000000 0.141124 0.073781
v 10.000000 0.635084 -0.128189
v 10.000000 0.643308 -0.139812
v 10.000000 0.815970 -1.108238
v 10.000000 0.824194 -1.096615
v 9.662534 0.000000 -0.096182
v 9.653096 0.000000 -0.105620
v 9.734644 0.605268 -0.177730
v 9.723525 0.597305 -0.175973
v 9.732886 0.597305 -0.166612
v 9.641895 0.410633 -0.075379
v 9.632293 0.410633 -0.084981
v 9.653096 0.000000 -1.130807
v 9.662534 0.000000 -1.140245
v 9.723525 0.778191 -1.060455
v 9.734644 0.786154 -1.058697
v 9.732886 0.778191 -1.069816
v 9.641895 0.591519 -1.161048
v 9.632293 0.591519 -1.151446
v 10.346904 0.000000 -0.105620
v 10.337466 0.000000 -0.096182
v 10.276475 0.597305 -0.175973
v 10.265356 0.605268 -0.177730
v 10.267114 0.597305 -0.166612
v 10.358105 0.410633 -0.075379
v 10.367707 0.410633 -0.084981
v 10.337466 0.000000 -1.140245
v 10.346904 0.000000 -1.130807
v 10.410664 0.141124 -0.041908
v 10.401178 0.141124 -0.032423
v 10.401178 0.141124 -1.204004
v 10.410664 0.141124 -1.194520
v 9.589336 0.141124 -1.194520
v 9.598822 0.141124 -1.204004
v 10.265356 0.786154 -1.058697
v 10.276475 0.778191 -1.060455
v 10.267114 0.778191 -1.069816
v 10.367707 0.591519 -1.151446
v 10.358105 0.591519 -1.161048
v 9.589336 0.141124 -0.041908
v 9.598822 0.141124 -0.032423
v 9.502262 0.141124 -0.865602
v 9.502262 0.141124 -0.370825
v 10.497738 0.141124 -0.370825
v 10.497738 0.141124 -0.865602
v 10.000000 0.888577 -0.864478
v 10.000000 0.777756 -0.371949
v 9.549577 0.480698 -0.371233
v 9.549577 0.591519 -0.865195
v 10.450423 0.591519 -0.865195
v 10.450423 0.480698 -0.371233
v 9.586263 0.000000 -0.370663
v 9.586263 0.000000 -0.865765
v 10.413737 0.000000 -0.865765
v 10.413737 0.000000 -0.370663
v 9.707086 0.702980 -0.370587
v 9.707086 0.813801 -0.865840
v 9.695528 0.805719 -0.865817
v 9.695528 0.694898 -0.370610
v 10.292914 0.813801 -0.865840
v 10.292914 0.702980 -0.370587
v 10.304472 0.694898 -0.370610
v 10.304472 0.805719 -0.865817
v 9.515293 0.000000 -1.260155
v 9.973312 0.000000 -1.524593
v 9.988093 0.257639 -1.533127
v 9.500512 0.257639 -1.251622
v 9.483281 0.061468 -1.241673
v 10.005324 0.061468 -1.543075
v 9.929141 0.355400 -1.499091
v 9.924757 0.358982 -1.496559
v 9.559464 0.355400 -1.285658
v 9.563848 0.358982 -1.288189
v 10.014707 0.000000 -1.378768
v 10.013202 0.000000 -1.373153
v 9.968243 0.342414 -1.388209
v 9.971327 0.338945 -1.384398
v 9.972819 0.338945 -1.389967
v 10.027048 0.257639 -1.375514
v 10.025517 0.257639 -1.369801
v 9.626499 0.000000 -1.149890
v 9.620884 0.000000 -1.151395
v 9.637698 0.338945 -1.191777
v 9.635941 0.342414 -1.196354
v 9.632129 0.338945 -1.193269
v 9.617532 0.257639 -1.139079
v 9.623245 0.257639 -1.137548
v 9.862106 0.000000 -1.634859
v 9.867722 0.000000 -1.633354
v 9.850907 0.338945 -1.592971
v 9.852665 0.342414 -1.588395
v 9.856477 0.338945 -1.591479
v 9.871074 0.257639 -1.645669
v 9.865360 0.257639 -1.647200
v 9.473899 0.000000 -1.405980
v 9.475404 0.000000 -1.411596
v 9.872253 0.061468 -1.672784
v 9.877896 0.061468 -1.671272
v 9.435973 0.061468 -1.416128
v 9.437486 0.061468 -1.421771
v 9.616352 0.061468 -1.111965
v 9.610709 0.061468 -1.113477
v 9.520363 0.342414 -1.396540
v 9.517279 0.338945 -1.400351
v 9.515786 0.338945 -1.394781
v 9.463088 0.257639 -1.414948
v 9.461557 0.257639 -1.409235
v 10.051120 0.061468 -1.362978
v 10.052632 0.061468 -1.368621
v 9.759383 0.061468 -1.150751
v 9.946014 0.061468 -1.258502
v 9.729222 0.061468 -1.633998
v 9.542591 0.061468 -1.526246
v 9.651411 0.387024 -1.338743
v 9.837194 0.387024 -1.446005
v 9.935556 0.257639 -1.276261
v 9.749233 0.257639 -1.168687
v 9.553049 0.257639 -1.508488
v 9.739372 0.257639 -1.616062
v 9.927782 0.000000 -1.290223
v 9.741029 0.000000 -1.182400
v 9.560823 0.000000 -1.494526
v 9.747577 0.000000 -1.602348
v 9.901498 0.354455 -1.335814
v 9.714687 0.354455 -1.227959
v 9.717214 0.350935 -1.223604
v 9.904007 0.350935 -1.331449
v 9.587108 0.354455 -1.448935
v 9.773918 0.354455 -1.556790
v 9.771392 0.350935 -1.561144
v 9.584599 0.350935 -1.453299
v 10.597586 0.000000 -0.186359
v 10.185760 0.000000 0.159204
v 10.167082 0.250888 0.174877
v 10.616263 0.250888 -0.202031
v 10.184948 0.087811 -0.259942
v 10.598397 0.087811 0.232788
v 10.391673 0.448000 -0.013577
v 10.638038 0.087811 -0.220302
v 10.203219 0.250888 -0.238168
v 10.145308 0.087811 0.193147
v 10.580127 0.250888 0.211013
v 10.218891 0.000000 -0.219490
v 10.564454 0.000000 0.192335
v 10.241577 0.390546 0.112368
v 10.247117 0.395663 0.107719
v 10.541769 0.390546 -0.139523
v 10.536228 0.395663 -0.134874
v 10.091350 0.000000 -0.035684
v 10.092073 0.000000 -0.043957
v 10.159060 0.371994 -0.033928
v 10.153775 0.367039 -0.038525
v 10.153057 0.367039 -0.030319
v 10.073179 0.250888 -0.037201
v 10.073915 0.250888 -0.045618
v 10.413779 0.000000 -0.313901
v 10.422052 0.000000 -0.313177
v 10.408415 0.367039 -0.252193
v 10.412024 0.371994 -0.246190
v 10.416620 0.367039 -0.251475
v 10.423714 0.250888 -0.331335
v 10.415297 0.250888 -0.332071
v 10.369567 0.000000 0.286746
v 10.361293 0.000000 0.286023
v 10.374931 0.367039 0.225038
v 10.371322 0.371994 0.219036
v 10.366725 0.367039 0.224320
v 10.359632 0.250888 0.304180
v 10.368050 0.250888 0.304917
v 10.691997 0.000000 0.008529
v 10.691273 0.000000 0.016803
v 10.364698 0.087811 0.342620
v 10.356384 0.087811 0.341892
v 10.747869 0.087811 0.013397
v 10.747142 0.087811 0.021711
v 10.418647 0.087811 -0.369774
v 10.426962 0.087811 -0.369047
v 10.624286 0.371994 0.006774
v 10.629571 0.367039 0.011370
v 10.630288 0.367039 0.003165
v 10.709431 0.250888 0.018464
v 10.710167 0.250888 0.010047
v 10.036203 0.087811 -0.048866
v 10.035476 0.087811 -0.040551
v 10.270376 0.395663 -0.158133
v 10.265728 0.390546 -0.163673
v 10.512969 0.395663 0.130978
v 10.517618 0.390546 0.136519
vn -0.4655 0.7527 0.4655
vn -0.4655 0.7527 -0.4655
vn 0.4655 0.7527 0.4655
vn 0.4655 0.7527 -0.4655
vn -0.6476 0.4014 0.6476
vn -0.6965 -0.1723 0.6965
vn 0.5959 -0.5383 -0.5959
vn 0.6905 -0.2153 -0.6905
vn -0.0000 0.8219 0.5696
vn -0.1949 0.8061 0.5587
vn -0.5819 0.5681 0.5819
vn -0.6595 0.3608 -0.6595
vn -0.5819 0.5681 -0.5819
vn 0.6476 0.4014 0.6476
vn 0.5819 0.5681 0.5819
vn -0.5959 -0.5383 -0.5959
vn -0.6905 -0.2153 -0.6905
vn 0.1949 0.8061 -0.5587
vn -0.0000 0.8219 -0.5696
vn 0.5959 -0.5383 0.5959
vn 0.6965 -0.1723 0.6965
vn 0.6595 0.3608 -0.6595
vn 0.5819 0.5681 -0.5819
vn -0.5959 -0.5383 0.5959
vn -0.1949 0.8061 -0.5587
vn 0.1949 0.8061 0.5587
vn 0.2472 0.3406 0.9071
vn 0.2173 0.5383 0.8142
vn -0.0000 0.5515 0.8342
vn -0.0000 0.3632 0.9317
vn -0.2173 0.5383 0.8142
vn -0.2472 0.3406 0.9071
vn -0.0000 0.5515 -0.8342
vn 0.2173 0.5383 -0.8142
vn 0.2503 0.3054 -0.9187
vn -0.0000 0.3279 -0.9447
vn -0.2173 0.5383 -0.8142
vn -0.2503 0.3054 -0.9187
vn -0.0000 -0.5050 0.8631
vn -0.0000 -0.1626 0.9867
vn -0.2566 -0.1469 0.9553
vn -0.2182 -0.4928 0.8423
vn -0.2182 -0.4928 -0.8423
vn -0.2553 -0.1794 -0.9501
vn -0.0000 -0.1979 -0.9802
vn -0.0000 -0.5050 -0.8631
vn 0.2182 -0.4928 0.8423
vn 0.2566 -0.1469 0.9553
vn 0.2553 -0.1794 -0.9501
vn 0.2182 -0.4928 -0.8423
vn -0.9320 0.3525 -0.0842
vn -0.9721 -0.2004 -0.1218
vn -0.9731 -0.1879 0.1335
vn -0.9168 0.3479 0.1959
vn 0.9168 0.3479 0.1959
vn 0.9731 -0.1879 0.1335
vn 0.9721 -0.2004 -0.1218
vn 0.9320 0.3525 -0.0842
vn 0.8563 -0.5038 0.1142
vn 0.8563 -0.5038 -0.1142
vn -0.8563 -0.5038 -0.1142
vn -0.8563 -0.5038 0.1142
vn -0.5700 0.8215 -0.0175
vn -0.5704 0.8214 0.0024
vn -0.5309 0.7812 0.3283
vn -0.5371 0.7865 0.3048
vn 0.5371 0.7865 0.3048
vn 0.5309 0.7812 0.3283
vn 0.5704 0.8214 0.0024
vn 0.5700 0.8215 -0.0175
vn 0.2307 0.9730 0.0067
vn -0.0000 1.0000 -0.0024
vn -0.0000 0.9366 0.3504
vn 0.2248 0.9087 0.3518
vn -0.2307 0.9730 0.0067
vn -0.2248 0.9087 0.3518
vn -0.8310 0.5534 -0.0565
vn -0.8023 0.5522 0.2266
vn 0.8310 0.5534 -0.0565
vn 0.8023 0.5522 0.2266
vn -0.9192 0.3037 -0.2506
vn -0.9504 -0.1774 -0.2554
vn -0.9515 -0.1547 0.2658
vn -0.8434 -0.4908 0.2186
vn -0.8988 0.3033 0.3164
vn -0.8434 -0.4908 -0.2186
vn 0.9192 0.3037 -0.2506
vn 0.9504 -0.1774 -0.2554
vn 0.8988 0.3033 0.3164
vn 0.9515 -0.1547 0.2658
vn 0.8434 -0.4908 -0.2186
vn 0.8434 -0.4908 0.2186
vn 0.2070 0.9533 -0.2199
vn -0.0000 0.9744 -0.2247
vn 0.2039 0.8535 0.4795
vn -0.0000 0.8719 0.4898
vn -0.2039 0.8535 0.4795
vn -0.2070 0.9533 -0.2199
vn -0.8174 0.5329 -0.2187
vn -0.7642 0.5338 0.3620
vn 0.7642 0.5338 0.3620
vn 0.8174 0.5329 -0.2187
vn -0.5566 0.8077 -0.1948
vn -0.4937 0.7461 0.4468
vn 0.4937 0.7461 0.4468
vn 0.5566 0.8077 -0.1948
vn 0.6359 0.7527 0.1704
vn -0.1704 0.7527 0.6359
vn 0.1704 0.7527 -0.6359
vn -0.6359 0.7527 -0.1704
vn 0.9009 0.3608 0.2414
vn 0.9433 -0.2153 0.2528
vn -0.8140 -0.5383 -0.2181
vn -0.9433 -0.2153 -0.2528
vn 0.4933 0.8219 -0.2848
vn 0.5813 0.8061 -0.1106
vn 0.7949 0.5681 0.2130
vn -0.2414 0.3608 0.9009
vn -0.2130 0.5681 0.7949
vn 0.2414 0.3608 -0.9009
vn 0.2130 0.5681 -0.7949
vn -0.2181 -0.5383 0.8141
vn -0.2527 -0.2153 0.9433
vn -0.5813 0.8061 0.1106
vn -0.4933 0.8219 0.2848
vn 0.2181 -0.5383 -0.8140
vn 0.2528 -0.2153 -0.9433
vn -0.9008 0.3608 -0.2414
vn -0.7949 0.5681 -0.2130
vn 0.8141 -0.5383 0.2181
vn -0.3864 0.8061 0.4481
vn 0.3864 0.8061 -0.4481
vn 0.6705 0.3054 -0.6761
vn 0.5965 0.5383 -0.5953
vn 0.7224 0.5515 -0.4171
vn 0.8181 0.3279 -0.4724
vn 0.8138 0.5383 -0.2189
vn 0.9208 0.3054 -0.2426
vn -0.7224 0.5515 0.4171
vn -0.8138 0.5383 0.2189
vn -0.9208 0.3054 0.2426
vn -0.8181 0.3279 0.4724
vn -0.5965 0.5383 0.5953
vn -0.6705 0.3054 0.6761
vn 0.7475 -0.5050 -0.4316
vn 0.8489 -0.1979 -0.4901
vn 0.9504 -0.1794 -0.2539
vn 0.8386 -0.4928 -0.2322
vn -0.6204 -0.4928 0.6101
vn -0.6951 -0.1794 0.6962
vn -0.8489 -0.1979 0.4901
vn -0.7475 -0.5050 0.4316
vn 0.6204 -0.4928 -0.6101
vn 0.6951 -0.1794 -0.6962
vn -0.9504 -0.1794 0.2539
vn -0.8386 -0.4928 0.2322
vn 0.3607 0.3329 0.8712
vn 0.3770 -0.2040 0.9035
vn 0.5939 -0.2040 0.7782
vn 0.5742 0.3329 0.7480
vn -0.3607 0.3329 -0.8712
vn -0.3770 -0.2040 -0.9035
vn -0.5939 -0.2040 -0.7782
vn -0.5742 0.3329 -0.7480
vn -0.3292 -0.5038 -0.7987
vn -0.5271 -0.5038 -0.6844
vn 0.3292 -0.5038 0.7987
vn 0.5271 -0.5038 0.6844
vn 0.1980 0.8174 0.5409
vn 0.2001 0.8176 0.5399
vn 0.3675 0.8176 0.4433
vn 0.3695 0.8174 0.4419
vn -0.1980 0.8174 -0.5409
vn -0.2001 0.8176 -0.5399
vn -0.3675 0.8176 -0.4433
vn -0.3695 0.8174 -0.4419
vn -0.2075 0.9674 -0.1449
vn -0.0960 0.9938 0.0554
vn 0.0960 0.9938 -0.0554
vn -0.0217 0.9674 -0.2522
vn 0.0217 0.9674 0.2522
vn 0.2075 0.9674 0.1449
vn 0.3192 0.5515 0.7707
vn 0.5079 0.5515 0.6617
vn -0.5079 0.5515 -0.6617
vn -0.3192 0.5515 -0.7707
vn 0.2426 0.3038 0.9213
vn 0.2540 -0.1774 0.9508
vn 0.6964 -0.1774 0.6954
vn 0.6110 -0.4908 0.6212
vn 0.6766 0.3037 0.6708
vn 0.2324 -0.4908 0.8397
vn -0.6766 0.3038 -0.6708
vn -0.6964 -0.1774 -0.6954
vn -0.2426 0.3037 -0.9213
vn -0.2540 -0.1774 -0.9508
vn -0.6110 -0.4908 -0.6212
vn -0.2324 -0.4908 -0.8397
vn -0.2939 0.9533 -0.0694
vn -0.1946 0.9744 0.1124
vn 0.0869 0.9533 -0.2892
vn 0.1946 0.9744 -0.1124
vn 0.2939 0.9533 0.0694
vn -0.0869 0.9533 0.2892
vn 0.2193 0.5329 0.8172
vn 0.5981 0.5329 0.5985
vn -0.2193 0.5329 -0.8172
vn -0.5981 0.5329 -0.5985
vn 0.1096 0.8077 0.5794
vn 0.4470 0.8077 0.3846
vn -0.1096 0.8077 -0.5794
vn -0.4470 0.8077 -0.3846
vn -0.6558 0.7527 -0.0574
vn 0.0574 0.7527 -0.6558
vn -0.0574 0.7527 0.6558
vn 0.6558 0.7527 0.0574
vn -0.9112 0.4042 -0.0797
vn -0.9818 -0.1693 -0.0859
vn 0.8396 -0.5383 0.0735
vn 0.9818 -0.1693 0.0859
vn -0.4364 0.8219 0.3662
vn -0.5533 0.8061 0.2098
vn -0.8199 0.5681 -0.0717
vn 0.0797 0.4042 -0.9112
vn 0.0717 0.5681 -0.8199
vn -0.0797 0.4042 0.9112
vn -0.0717 0.5681 0.8199
vn 0.0735 -0.5383 -0.8396
vn 0.0859 -0.1693 -0.9818
vn 0.5533 0.8061 -0.2098
vn 0.4364 0.8219 -0.3662
vn -0.0735 -0.5383 0.8396
vn -0.0859 -0.1693 0.9818
vn 0.9112 0.4042 0.0797
vn 0.8199 0.5681 0.0717
vn -0.8396 -0.5383 -0.0735
vn -0.3662 0.8219 -0.4364
vn -0.5084 0.8061 -0.3027
vn 0.3027 0.8061 -0.5084
vn 0.3662 0.8219 0.4364
vn 0.5084 0.8061 0.3027
vn -0.3027 0.8061 0.5084
vn -0.2098 0.8061 -0.5533
vn 0.2098 0.8061 0.5533
vn -0.5355 0.3431 0.7717
vn -0.4840 0.5383 0.6899
vn -0.6390 0.5515 0.5362
vn -0.7130 0.3656 0.5983
vn -0.7634 0.5383 0.3569
vn -0.8530 0.3431 0.3934
vn -0.0270 0.9509 0.3083
vn 0.1442 0.9745 0.1718
vn -0.0000 1.0000 -0.0000
vn -0.1718 0.9745 0.1442
vn -0.1442 0.9745 -0.1718
vn -0.3083 0.9509 -0.0270
vn 0.3083 0.9509 0.0270
vn 0.1718 0.9745 -0.1442
vn 0.6390 0.5515 -0.5362
vn 0.7634 0.5383 -0.3569
vn 0.8530 0.3431 -0.3934
vn 0.7130 0.3656 -0.5983
vn 0.0270 0.9509 -0.3083
vn 0.4840 0.5383 -0.6899
vn 0.5355 0.3431 -0.7717
vn -0.6612 -0.5050 0.5548
vn -0.7562 -0.1601 0.6345
vn -0.8970 -0.1446 0.4177
vn -0.7855 -0.4928 0.3743
vn -0.8109 -0.1446 -0.5671
vn -0.6345 -0.1601 -0.7562
vn -0.5548 -0.5050 -0.6612
vn -0.7086 -0.4928 -0.5050
vn -0.6899 0.5383 -0.4840
vn -0.5362 0.5515 -0.6390
vn -0.5983 0.3656 -0.7130
vn -0.7717 0.3431 -0.5355
vn 0.5050 -0.4928 -0.7086
vn 0.5671 -0.1446 -0.8109
vn 0.7562 -0.1601 -0.6345
vn 0.6612 -0.5050 -0.5548
vn -0.4177 -0.1446 -0.8970
vn -0.3743 -0.4928 -0.7855
vn -0.3569 0.5383 -0.7634
vn -0.3934 0.3431 -0.8530
vn 0.5548 -0.5050 0.6612
vn 0.6345 -0.1601 0.7562
vn 0.4177 -0.1446 0.8970
vn 0.3743 -0.4928 0.7855
vn -0.5050 -0.4928 0.7086
vn -0.5671 -0.1446 0.8109
vn 0.5362 0.5515 0.6390
vn 0.3569 0.5383 0.7634
vn 0.3934 0.3431 0.8530
vn 0.5983 0.3656 0.7130
vn 0.8109 -0.1446 0.5671
vn 0.7086 -0.4928 0.5050
vn 0.8970 -0.1446 -0.4177
vn 0.7855 -0.4928 -0.3743
vn 0.7717 0.3431 0.5355
vn 0.6899 0.5383 0.4840
vt 0.458453 0.626773
vt 0.458263 0.626319
vt 0.458423 0.626319
vt 0.458263 0.636629
vt 0.458453 0.637083
vt 0.458423 0.636629
vt 0.467718 0.626319
vt 0.467528 0.626773
vt 0.467558 0.626319
vt 0.467528 0.637083
vt 0.467718 0.636629
vt 0.467558 0.636629
vt 0.456703 0.615679
vt 0.455968 0.600318
vt 0.456130 0.600318
vt 0.456867 0.615679
vt 0.468760 0.592274
vt 0.469850 0.600318
vt 0.470012 0.600318
vt 0.468922 0.592274
vt 0.462990 0.628941
vt 0.462990 0.628472
vt 0.456703 0.625989
vt 0.456867 0.625989
vt 0.469278 0.615679
vt 0.469113 0.615679
vt 0.457058 0.592274
vt 0.457220 0.592274
vt 0.462990 0.638782
vt 0.462990 0.639251
vt 0.469113 0.625989
vt 0.469278 0.625989
vt 0.462990 0.615679
vt 0.462990 0.625989
vt 0.462990 0.592274
vt 0.462990 0.600318
vt 0.455288 0.625989
vt 0.454479 0.600318
vt 0.455288 0.619673
vt 0.470692 0.619673
vt 0.471501 0.600318
vt 0.470692 0.625989
vt 0.470065 0.592274
vt 0.455916 0.592274
vt 0.457982 0.638658
vt 0.457784 0.638198
vt 0.457784 0.631881
vt 0.457982 0.632342
vt 0.467999 0.632342
vt 0.468196 0.631881
vt 0.468196 0.638198
vt 0.467999 0.638658
vt 0.462990 0.642920
vt 0.462990 0.636604
vt 0.466819 0.626084
vt 0.466872 0.625887
vt 0.466898 0.625887
vt 0.461167 0.625887
vt 0.461137 0.626084
vt 0.461072 0.625887
vt 0.464813 0.625887
vt 0.464843 0.626084
vt 0.464908 0.625887
vt 0.459161 0.626084
vt 0.459108 0.625887
vt 0.459083 0.625887
vt 0.467799 0.621252
vt 0.468236 0.610071
vt 0.468262 0.610071
vt 0.467825 0.621252
vt 0.458367 0.606568
vt 0.457718 0.610071
vt 0.457744 0.610071
vt 0.458392 0.606568
vt 0.466076 0.627029
vt 0.466151 0.626824
vt 0.460920 0.621252
vt 0.460822 0.621252
vt 0.465060 0.621252
vt 0.465158 0.621252
vt 0.460976 0.606568
vt 0.460802 0.610071
vt 0.460706 0.610071
vt 0.460880 0.606568
vt 0.459830 0.626824
vt 0.459905 0.627029
vt 0.465005 0.606568
vt 0.465178 0.610071
vt 0.465274 0.610071
vt 0.465100 0.606568
vt 0.458155 0.621252
vt 0.458182 0.621252
vt 0.467588 0.606568
vt 0.467614 0.606568
vt 0.467159 0.621252
vt 0.458822 0.621252
vt 0.466906 0.606568
vt 0.467453 0.610071
vt 0.458527 0.610071
vt 0.459074 0.606568
vt 0.463074 0.621252
vt 0.463248 0.610071
vt 0.466439 0.610071
vt 0.466260 0.621252
vt 0.462906 0.621252
vt 0.462732 0.610071
vt 0.459541 0.610071
vt 0.459720 0.621252
vt 0.463046 0.606568
vt 0.459853 0.606568
vt 0.462934 0.606568
vt 0.466127 0.606568
vt 0.462484 0.626771
vt 0.462527 0.626570
vt 0.465721 0.626570
vt 0.465678 0.626771
vt 0.463497 0.626771
vt 0.463453 0.626570
vt 0.460259 0.626570
vt 0.460302 0.626771
vt 0.461402 0.628627
vt 0.464579 0.628627
vt 0.459013 0.626032
vt 0.458922 0.625750
vt 0.458910 0.625750
vt 0.463276 0.625750
vt 0.463338 0.626032
vt 0.463417 0.625750
vt 0.462704 0.625750
vt 0.462642 0.626032
vt 0.462564 0.625750
vt 0.466968 0.626032
vt 0.467058 0.625750
vt 0.467070 0.625750
vt 0.457557 0.619130
vt 0.456912 0.609835
vt 0.456900 0.609835
vt 0.457544 0.619130
vt 0.468125 0.604830
vt 0.469081 0.609835
vt 0.469068 0.609835
vt 0.468113 0.604830
vt 0.460518 0.627382
vt 0.460424 0.627090
vt 0.463394 0.619130
vt 0.463538 0.619130
vt 0.462586 0.619130
vt 0.462442 0.619130
vt 0.463368 0.604830
vt 0.463451 0.609835
vt 0.463594 0.609835
vt 0.463510 0.604830
vt 0.465557 0.627090
vt 0.465462 0.627382
vt 0.462612 0.604830
vt 0.462529 0.609835
vt 0.462387 0.609835
vt 0.462471 0.604830
vt 0.468436 0.619130
vt 0.468424 0.619130
vt 0.457867 0.604830
vt 0.457855 0.604830
vt 0.460837 0.627090
vt 0.460916 0.627382
vt 0.465144 0.627090
vt 0.465064 0.627382
vt 0.459150 0.619130
vt 0.462990 0.630365
vt 0.466830 0.619130
vt 0.459469 0.604830
vt 0.458778 0.609835
vt 0.459455 0.609835
vt 0.460036 0.604830
vt 0.459768 0.619130
vt 0.467203 0.609835
vt 0.466511 0.604830
vt 0.465945 0.604830
vt 0.466525 0.609835
vt 0.466213 0.619130
s 1
f 13/1/1 14/2/1 15/3/1
f 20/4/2 21/5/2 22/6/2
f 27/7/3 28/8/3 29/9/3
f 40/10/4 41/11/4 42/12/4
f 17/13/5 45/14/6 46/15/6 16/16/5
f 32/17/7 36/18/8 37/19/8 33/20/7
f 8/21/9 13/1/10 15/3/10 7/22/9
f 14/2/11 17/13/5 16/16/5 15/3/11
f 24/23/12 20/4/13 22/6/13 23/24/12
f 31/25/14 27/7/15 29/9/15 30/26/14
f 18/27/16 38/14/17 39/15/17 19/28/16
f 42/12/18 9/29/19 10/30/19 40/10/18
f 25/20/20 34/19/21 35/18/21 26/17/20
f 44/31/22 42/12/23 41/11/23 43/32/22
f 45/14/6 12/27/24 11/28/24 46/15/6
f 38/14/17 24/23/12 23/24/12 39/15/17
f 9/29/19 22/6/25 21/5/25 10/30/19
f 36/18/8 44/31/22 43/32/22 37/19/8
f 34/19/21 31/25/14 30/26/14 35/18/21
f 7/22/9 29/9/26 28/8/26 8/21/9
f 30/26/27 29/9/28 7/22/29 3/33/30
f 7/22/29 15/3/31 16/16/32 3/33/30
f 9/29/33 42/12/34 44/31/35 4/34/36
f 22/6/37 9/29/33 4/34/36 23/24/38
f 2/35/39 6/36/40 46/15/41 11/28/42
f 6/36/40 3/33/30 16/16/32 46/15/41
f 19/28/43 39/15/44 5/36/45 1/35/46
f 39/15/44 23/24/38 4/34/36 5/36/45
f 26/17/47 35/18/48 6/36/40 2/35/39
f 35/18/48 30/26/27 3/33/30 6/36/40
f 1/35/46 5/36/45 36/18/49 32/17/50
f 5/36/45 4/34/36 44/31/35 36/18/49
f 54/37/51 47/38/52 48/38/53 53/39/54
f 56/40/55 49/41/56 50/41/57 55/42/58
f 49/41/56 60/43/59 59/43/60 50/41/57
f 47/38/52 58/44/61 57/44/62 48/38/53
f 62/45/63 63/46/64 64/47/65 61/48/66
f 66/49/67 67/50/68 68/51/69 65/52/70
f 65/52/71 51/53/72 52/54/73 66/49/74
f 51/53/72 62/45/75 61/48/76 52/54/73
f 63/46/77 54/37/51 53/39/54 64/47/78
f 55/42/58 68/51/79 67/50/80 56/40/55
f 47/38/52 54/37/51 24/23/81 38/14/82
f 45/14/83 48/38/53 57/44/62 12/27/84
f 17/13/85 53/39/54 48/38/53 45/14/83
f 58/44/61 47/38/52 38/14/82 18/27/86
f 43/32/87 55/42/58 50/41/57 37/19/88
f 49/41/56 56/40/55 31/25/89 34/19/90
f 37/19/88 50/41/57 59/43/60 33/20/91
f 60/43/59 49/41/56 34/19/90 25/20/92
f 65/52/71 40/10/93 10/30/94 51/53/72
f 28/8/95 66/49/74 52/54/73 8/21/96
f 52/54/73 61/48/76 13/1/97 8/21/96
f 21/5/98 62/45/75 51/53/72 10/30/94
f 63/46/77 20/4/99 24/23/81 54/37/51
f 14/2/100 64/47/78 53/39/54 17/13/85
f 67/50/80 27/7/101 31/25/89 56/40/55
f 41/11/102 68/51/79 55/42/58 43/32/87
f 20/4/103 63/46/64 62/45/63 21/5/103
f 64/47/65 14/2/104 13/1/104 61/48/66
f 27/7/105 67/50/68 66/49/67 28/8/105
f 68/51/69 41/11/106 40/10/106 65/52/70
f 81/55/107 82/56/107 83/57/107
f 88/58/108 89/59/108 90/60/108
f 95/61/109 96/62/109 97/63/109
f 108/64/110 109/65/110 110/66/110
f 85/67/111 113/68/112 114/69/112 84/70/111
f 100/71/113 104/72/114 105/73/114 101/74/113
f 76/75/115 81/55/116 83/57/116 75/76/115
f 82/56/117 85/67/111 84/70/111 83/57/117
f 92/77/118 88/58/119 90/60/119 91/78/118
f 99/79/120 95/61/121 97/63/121 98/80/120
f 86/81/122 106/82/123 107/83/123 87/84/122
f 110/66/124 77/85/125 78/86/125 108/64/124
f 93/87/126 102/88/127 103/89/127 94/90/126
f 112/91/128 110/66/129 109/65/129 111/92/128
f 113/68/112 80/93/130 79/94/130 114/69/112
f 106/82/123 92/77/118 91/78/118 107/83/123
f 77/85/125 90/60/131 89/59/131 78/86/125
f 104/72/114 112/91/128 111/92/128 105/73/114
f 102/88/127 99/79/120 98/80/120 103/89/127
f 75/76/115 97/63/132 96/62/132 76/75/115
f 98/80/133 97/63/134 75/76/135 71/95/136
f 75/76/135 83/57/137 84/70/138 71/95/136
f 77/85/139 110/66/140 112/91/141 72/96/142
f 90/60/143 77/85/139 72/96/142 91/78/144
f 70/97/145 74/98/146 114/69/147 79/94/148
f 74/98/146 71/95/136 84/70/138 114/69/147
f 87/84/149 107/83/150 73/99/151 69/100/152
f 107/83/150 91/78/144 72/96/142 73/99/151
f 94/90/153 103/89/154 74/98/146 70/97/145
f 103/89/154 98/80/133 71/95/136 74/98/146
f 69/100/152 73/99/151 104/72/155 100/71/156
f 73/99/151 72/96/142 112/91/141 104/72/155
f 122/101/157 115/102/158 116/103/159 121/104/160
f 124/105/161 117/106/162 118/107/163 123/108/164
f 117/106/162 128/109/165 127/110/166 118/107/163
f 115/102/158 126/111/167 125/112/168 116/103/159
f 130/113/169 131/114/170 132/115/171 129/116/172
f 134/117/173 135/118/174 136/119/175 133/120/176
f 133/120/177 119/121/178 120/122/179 134/117/180
f 119/121/178 130/113/181 129/116/182 120/122/179
f 131/114/183 122/101/157 121/104/160 132/115/184
f 123/108/164 136/119/185 135/118/186 124/105/161
f 115/102/158 122/101/157 92/77/187 106/82/188
f 113/68/189 116/103/159 125/112/168 80/93/190
f 85/67/191 121/104/160 116/103/159 113/68/189
f 126/111/167 115/102/158 106/82/188 86/81/192
f 111/92/193 123/108/164 118/107/163 105/73/194
f 117/106/162 124/105/161 99/79/195 102/88/196
f 105/73/194 118/107/163 127/110/166 101/74/197
f 128/109/165 117/106/162 102/88/196 93/87/198
f 133/120/177 108/64/199 78/86/200 119/121/178
f 96/62/201 134/117/180 120/122/179 76/75/202
f 120/122/179 129/116/182 81/55/203 76/75/202
f 89/59/204 130/113/181 119/121/178 78/86/200
f 131/114/183 88/58/205 92/77/187 122/101/157
f 82/56/206 132/115/184 121/104/160 85/67/191
f 135/118/186 95/61/207 99/79/195 124/105/161
f 109/65/208 136/119/185 123/108/164 111/92/193
f 88/58/209 131/114/170 130/113/169 89/59/209
f 132/115/171 82/56/210 81/55/210 129/116/172
f 95/61/211 135/118/174 134/117/173 96/62/211
f 136/119/175 109/65/212 108/64/212 133/120/176
f 156/123/213 157/124/213 158/125/213
f 163/126/214 164/127/214 165/128/214
f 170/129/215 171/130/215 172/131/215
f 183/132/216 184/133/216 185/134/216
f 160/135/217 188/136/218 189/137/218 159/138/217
f 175/139/219 179/140/220 180/141/220 176/142/219
f 151/143/221 156/123/222 158/125/222 150/144/221
f 157/124/223 160/135/217 159/138/217 158/125/223
f 167/145/224 163/126/225 165/128/225 166/146/224
f 174/147/226 170/129/227 172/131/227 173/148/226
f 161/149/228 181/150/229 182/151/229 162/152/228
f 185/134/230 152/153/231 153/154/231 183/132/230
f 168/155/232 177/156/233 178/157/233 169/158/232
f 187/159/234 185/134/235 184/133/235 186/160/234
f 188/136/218 155/161/236 154/162/236 189/137/218
f 191/163/237 157/124/238 156/123/238 190/164/237
f 181/150/229 167/145/224 166/146/224 182/151/229
f 152/153/231 165/128/239 164/127/239 153/154/231
f 179/140/220 187/159/234 186/160/234 180/141/220
f 193/165/240 184/133/241 183/132/241 192/166/240
f 177/156/233 174/147/226 173/148/226 178/157/233
f 150/144/221 172/131/242 171/130/242 151/143/221
f 163/126/243 191/163/237 190/164/237 164/127/243
f 170/129/244 193/165/240 192/166/240 171/130/244
f 173/148/245 172/131/246 150/144/247 139/167/248
f 150/144/247 158/125/249 159/138/250 139/167/248
f 171/130/251 192/166/252 143/168/253 151/143/254
f 143/168/253 190/164/255 156/123/256 151/143/254
f 192/166/252 183/132/257 153/154/258 143/168/253
f 152/153/259 185/134/260 187/159/261 140/169/262
f 164/127/263 190/164/255 143/168/253 153/154/258
f 165/128/264 152/153/259 140/169/262 166/146/265
f 138/170/266 146/171/267 189/137/268 154/162/269
f 188/136/270 141/172/271 148/173/272 155/161/273
f 157/124/274 191/163/275 145/174/276 160/135/277
f 160/135/277 145/174/276 141/172/271 188/136/270
f 146/171/267 139/167/248 159/138/250 189/137/268
f 162/152/278 182/151/279 144/175/280 137/176/281
f 148/173/272 141/172/271 181/150/282 161/149/283
f 191/163/275 163/126/284 167/145/285 145/174/276
f 141/172/271 145/174/276 167/145/285 181/150/282
f 182/151/279 166/146/265 140/169/262 144/175/280
f 149/177/286 142/178/287 177/156/288 168/155/289
f 169/158/290 178/157/291 146/171/267 138/170/266
f 193/165/292 170/129/293 174/147/294 147/179/295
f 142/178/287 147/179/295 174/147/294 177/156/288
f 178/157/291 173/148/245 139/167/248 146/171/267
f 180/141/296 142/178/287 149/177/286 176/142/297
f 137/176/281 144/175/280 179/140/298 175/139/299
f 144/175/280 140/169/262 187/159/261 179/140/298
f 186/160/300 147/179/295 142/178/287 180/141/296
f 184/133/301 193/165/292 147/179/295 186/160/300
