# Blender 5.0.1
# www.blender.org
o GEO_ForestTree_C
v 0.532890 0.000000 12.181072
v 0.524640 0.000000 12.203805
v -0.181096 0.000000 12.532894
v -0.203790 -0.000000 12.524652
v -0.532915 0.000000 11.818840
v -0.524625 0.000000 11.796192
v 0.181110 0.000000 11.467102
v 0.203786 -0.000000 11.475307
v 0.318832 0.555782 12.143545
v 0.307723 0.555782 12.166083
v -0.143575 0.555782 12.318838
v -0.166069 0.555782 12.307743
v -0.318857 0.555782 11.856349
v -0.307711 0.555782 11.833916
v 0.143587 0.555782 11.681161
v 0.166064 0.555782 11.692209
v -1.043286 2.031969 11.872675
v -1.052948 2.017317 11.889305
v -1.058241 2.017317 12.032857
v -1.049780 2.032051 12.050143
v -0.974554 2.154032 12.052917
v -0.965043 2.168443 12.036322
v -0.959752 2.168443 11.892834
v -0.967999 2.154051 11.875451
v 0.693087 2.435685 11.772073
v 0.675618 2.444700 11.758405
v 0.715822 2.444745 11.951799
v 0.726458 2.435685 11.932303
v 0.562823 2.540947 11.966385
v 0.580287 2.531932 11.980027
v 0.540012 2.531932 11.786648
v 0.529446 2.540947 11.806129
v -0.291903 1.810637 10.739024
v -0.304574 1.823676 10.745668
v -0.055664 1.823287 10.710278
v -0.069665 1.810637 10.707556
v -0.057485 2.046565 10.793570
v -0.044791 2.033914 10.787067
v -0.293723 2.033874 10.822301
v -0.279696 2.046565 10.825034
v 0.246342 1.130442 12.200969
v 0.260444 1.124835 12.181875
v -0.201149 1.124835 12.245924
v -0.182177 1.126796 12.261669
v -0.272952 1.163709 11.788312
v -0.246219 1.121277 11.799019
v -0.260458 1.124835 11.818000
v 0.201146 1.124835 11.754020
v 0.177062 1.069857 11.734271
v -0.468188 1.560150 11.835587
v -0.457263 1.573762 11.815639
v -0.466607 1.575007 12.159566
v -0.475136 1.560150 12.143118
v -0.296943 1.849832 12.143227
v -0.307289 1.836538 12.159641
v -0.296899 1.834269 12.161648
v -0.281916 1.854341 12.159764
v -0.286728 1.853848 12.148195
v -0.252308 1.830262 11.781775
v -0.263999 1.807065 11.769891
v 0.325308 1.755767 11.746450
v 0.343445 1.749477 11.765564
v 0.408641 1.749477 12.077059
v 0.397971 1.758555 12.096682
v 0.134343 1.928096 12.151851
v 0.116880 1.937111 12.138207
v 0.103844 1.933719 12.154974
v 0.113641 1.921736 12.156250
v 0.122631 1.920515 12.156368
v 0.051986 1.937111 11.826623
v 0.062551 1.928096 11.807142
v 0.056456 1.926901 11.799275
v 0.032809 1.931471 11.808021
v 0.036862 1.934212 11.821835
v -0.277013 1.436839 11.599675
v -0.261670 1.420906 11.590024
v 0.102159 1.420906 11.524487
v 0.121261 1.436719 11.527621
v 0.121903 1.408248 11.531292
v 0.106283 1.411522 11.529331
v 0.154966 1.783020 11.658220
v 0.139490 1.799844 11.668084
v 0.147876 1.809044 11.674777
v 0.170640 1.794860 11.670858
v -0.343682 1.772590 11.367331
v -0.343682 2.380487 11.650798
v -0.817967 2.218272 11.205115
v -0.343682 2.017830 11.634964
v -0.617511 2.054612 11.556086
v -0.679052 2.332976 11.520261
v -0.679052 1.903127 11.319818
v -0.343682 2.864472 11.474642
v -0.343682 3.147939 10.866744
v -0.817967 2.702257 11.028959
v -0.343682 3.132105 11.229402
v -0.617511 3.053227 11.192619
v -0.679052 3.017401 10.914256
v -0.679052 2.816960 11.344105
v -0.343682 1.596434 10.883347
v -0.817967 2.042116 10.721131
v -0.343682 1.879901 10.275449
v -0.679052 1.726971 10.835835
v -0.617511 1.691146 10.557471
v -0.679052 1.927413 10.405986
v -0.343682 1.612268 10.520689
v -0.343682 2.971784 10.382760
v -0.343682 2.363885 10.099293
v -0.817967 2.526100 10.544975
v -0.343682 2.726542 10.115128
v -0.617511 2.689761 10.194006
v -0.679052 2.411397 10.229831
v -0.679052 2.841246 10.430272
v 0.171363 1.772590 11.367331
v 0.645649 2.218272 11.205115
v 0.171363 2.380487 11.650798
v 0.506734 1.903127 11.319818
v 0.445192 2.054612 11.556086
v 0.506734 2.332976 11.520261
v 0.171363 2.017831 11.634964
v 0.171363 3.147939 10.866744
v 0.171363 2.864472 11.474642
v 0.645649 2.702257 11.028959
v 0.171363 3.132105 11.229402
v 0.445192 3.053227 11.192619
v 0.506734 2.816960 11.344105
v 0.506734 3.017401 10.914256
v 0.171363 1.596434 10.883347
v 0.171363 1.879901 10.275449
v 0.645649 2.042116 10.721131
v 0.171363 1.612268 10.520690
v 0.445192 1.691146 10.557471
v 0.506734 1.927413 10.405986
v 0.506734 1.726971 10.835835
v 0.171363 2.971784 10.382760
v 0.645649 2.526100 10.544975
v 0.171363 2.363885 10.099293
v 0.506734 2.841246 10.430272
v 0.445192 2.689761 10.194006
v 0.506734 2.411397 10.229831
v 0.171363 2.726542 10.115128
v -1.120172 1.606398 11.687027
v -1.560701 1.938415 12.056675
v -1.515083 2.059941 11.405452
v -1.393112 1.653305 11.916050
v -1.534363 1.727924 11.680691
v -1.672356 1.974009 11.716948
v -1.360855 1.739238 11.455566
v -1.661796 2.430935 12.141503
v -1.407457 3.006005 11.928087
v -1.616178 2.552462 11.490281
v -1.625863 2.787233 12.111352
v -1.742955 2.744152 11.855721
v -1.593606 2.873165 11.650868
v -1.773451 2.466529 11.801776
v -0.742879 1.738368 11.370440
v -1.137790 2.191911 11.088866
v -0.488540 2.313438 11.157024
v -0.983562 1.871208 11.138981
v -0.755888 2.000221 11.027472
v -0.803717 2.277844 10.988072
v -0.524473 1.957140 11.187176
v -1.030164 3.137976 11.611502
v -0.589635 2.805959 11.241854
v -1.238885 2.684432 11.173695
v -0.757224 3.091068 11.382478
v -0.964480 3.016449 11.202502
v -0.904813 2.770364 11.072902
v -1.216314 3.005136 11.334282
v -0.792418 1.606398 12.077628
v -0.583696 2.059941 12.515435
v -1.232947 1.938415 12.447276
v -0.606268 1.739238 12.354848
v -0.858102 1.727924 12.486628
v -0.917770 1.974009 12.616228
v -1.065358 1.653305 12.306652
v -1.079703 3.006005 12.318689
v -1.334042 2.430935 12.532105
v -0.684792 2.552462 12.600264
v -1.298109 2.787233 12.501954
v -1.066694 2.744152 12.661657
v -1.018865 2.466529 12.701057
v -0.839019 2.873165 12.550149
v -0.415125 1.738368 11.761043
v -0.160786 2.313438 11.547626
v -0.206404 2.191911 12.198849
v -0.196719 1.957140 11.577778
v -0.079627 2.000221 11.833409
v -0.049131 2.277844 11.887354
v -0.228976 1.871208 12.038261
v -0.702410 3.137976 12.002103
v -0.307499 2.684432 12.283678
v -0.261881 2.805959 11.632455
v -0.461727 3.005136 12.233563
v -0.288219 3.016449 12.008439
v -0.150226 2.770364 11.972182
v -0.429470 3.091068 11.773079
v 0.533262 2.058150 11.869300
v 1.047156 2.420350 12.229133
v 0.348058 2.552925 12.364935
v 0.851657 2.109322 12.092242
v 0.643532 2.190724 12.307538
v 0.720698 2.459180 12.442709
v 0.357320 2.203066 12.188269
v 1.165088 2.957646 12.311709
v 0.868391 3.584995 12.103960
v 0.465990 3.090220 12.447511
v 1.123170 3.346334 12.282358
v 0.886863 3.299336 12.477920
v 0.628833 3.440078 12.378385
v 0.838630 2.996475 12.525286
v 0.093135 2.202118 11.561120
v -0.092068 2.696892 12.056755
v -0.203562 2.829467 11.353371
v -0.082806 2.347034 11.880089
v -0.264589 2.487776 11.671664
v -0.292603 2.790637 11.733189
v -0.161644 2.440778 11.382722
v 0.428264 3.728962 11.795780
v -0.085630 3.366762 11.435947
v 0.025863 3.234187 12.139331
v 0.109869 3.677790 11.572838
v -0.021259 3.596387 11.842047
v -0.174671 3.327931 11.815765
v 0.188707 3.584046 12.070205
v 0.852313 2.058150 11.413648
v 1.254714 2.552925 11.070096
v 1.366207 2.420350 11.773480
v 1.091870 2.203066 11.139223
v 1.301836 2.190724 11.367381
v 1.455248 2.459180 11.393663
v 1.170708 2.109322 11.636590
v 1.187442 3.584995 11.648308
v 1.484139 2.957646 11.856057
v 1.372645 3.090220 11.152673
v 1.442221 3.346334 11.826706
v 1.545167 3.299336 11.537764
v 1.573180 2.996475 11.476239
v 1.363383 3.440078 11.329338
v 0.412186 2.202118 11.105468
v 0.115489 2.829467 10.897718
v 0.814587 2.696892 10.761916
v 0.157407 2.440778 10.927070
v 0.393715 2.487776 10.731508
v 0.441948 2.790637 10.684142
v 0.651744 2.347034 10.831043
v 0.747316 3.728962 11.340128
v 0.932519 3.234187 10.844493
v 0.233421 3.366762 10.980295
v 0.923257 3.584046 11.021159
v 0.637046 3.596387 10.901890
v 0.559879 3.327931 10.766719
v 0.428920 3.677790 11.117186
vn 0.9416 0.3363 0.0183
vn 0.6919 0.3383 0.6378
vn -0.0184 0.3363 0.9416
vn -0.6379 0.3383 0.6918
vn -0.9415 0.3364 -0.0196
vn -0.6910 0.3380 -0.6389
vn 0.0178 0.3363 -0.9416
vn 0.6374 0.3384 -0.6923
vn 0.9775 0.2028 0.0574
vn 0.6270 0.1969 0.7537
vn -0.0656 0.2022 0.9771
vn -0.7606 0.1952 0.6192
vn -0.9773 0.2029 -0.0617
vn -0.6242 0.1956 -0.7564
vn 0.0533 0.2025 -0.9778
vn 0.7512 0.1983 -0.6295
vn -0.3246 -0.2860 -0.9016
vn -0.5934 -0.7155 -0.3686
vn -0.6179 -0.7021 0.3538
vn -0.3420 -0.2194 0.9137
vn 0.0399 0.3951 0.9178
vn 0.3518 0.8600 0.3697
vn 0.3373 0.8397 -0.4255
vn 0.0037 0.2834 -0.9590
vn 0.7780 -0.3900 -0.4926
vn 0.2213 -0.0990 -0.9702
vn 0.5591 -0.0848 0.8247
vn 0.9059 -0.3803 0.1865
vn -0.6202 0.6014 0.5037
vn -0.0476 0.3057 0.9509
vn -0.4266 0.3103 -0.8495
vn -0.7697 0.6014 -0.2142
vn -0.4386 -0.8224 -0.3624
vn -0.9472 -0.3020 -0.1081
vn 0.8740 -0.3357 -0.3514
vn 0.2970 -0.8365 -0.4604
vn 0.4387 0.8873 0.1421
vn 0.9263 0.3619 -0.1050
vn -0.9550 0.2807 0.0963
vn -0.4094 0.8844 0.2241
vn 0.5211 0.0227 0.8532
vn 0.9745 -0.0556 0.2173
vn -0.8293 -0.1669 0.5332
vn -0.2002 0.0121 0.9797
vn -0.7564 -0.3875 -0.5269
vn -0.5559 -0.2937 -0.7777
vn -0.9432 -0.2684 -0.1958
vn 0.8863 -0.1151 -0.4486
vn 0.2494 -0.1017 -0.9630
vn -0.7676 -0.5750 -0.2831
vn -0.6179 -0.2299 -0.7519
vn -0.3802 -0.1352 0.9150
vn -0.7396 -0.5373 0.4053
vn -0.0848 0.9446 0.3170
vn -0.1459 0.4180 0.8966
vn -0.2295 0.3359 0.9135
vn -0.2326 0.6911 0.6843
vn -0.3613 0.9126 0.1915
vn -0.1273 0.9672 -0.2200
vn -0.7246 0.3772 -0.5768
vn 0.5608 -0.0027 -0.8279
vn 0.8345 -0.2916 -0.4675
vn 0.9371 -0.2737 0.2166
vn 0.5596 -0.0405 0.8278
vn 0.1002 0.3452 0.9332
vn -0.3181 0.8389 0.4418
vn -0.0500 0.7466 0.6634
vn 0.1106 0.3556 0.9281
vn 0.2081 0.3416 0.9165
vn -0.4163 0.8904 -0.1840
vn -0.0641 0.7475 -0.6612
vn 0.0831 0.8317 -0.5490
vn -0.1667 0.8839 -0.4370
vn -0.1562 0.9799 -0.1240
vn -0.8748 -0.2474 -0.4167
vn -0.4574 -0.6734 -0.5808
vn 0.1619 -0.6341 -0.7561
vn 0.7734 -0.2137 -0.5968
vn 0.3815 -0.2681 -0.8846
vn -0.0367 -0.4399 -0.8973
vn 0.8027 0.3119 -0.5084
vn 0.2203 0.8671 -0.4469
vn 0.1689 0.7210 -0.6720
vn 0.5580 0.4794 -0.6773
vn -0.1794 -0.8476 0.4994
vn -0.1794 0.1623 0.9703
vn -0.9673 -0.1072 0.2299
vn -0.1726 -0.4163 0.8927
vn -0.5774 -0.3451 0.7400
vn -0.6965 0.0761 0.7135
vn -0.6965 -0.5955 0.4004
vn -0.1794 0.4994 0.8476
vn -0.1794 0.9703 -0.1623
vn -0.9673 0.2299 0.1072
vn -0.1726 0.8927 0.4163
vn -0.5774 0.7400 0.3451
vn -0.6965 0.7135 -0.0761
vn -0.6965 0.4004 0.5955
vn -0.1794 -0.9703 0.1623
vn -0.9673 -0.2299 -0.1072
vn -0.1794 -0.4994 -0.8476
vn -0.6965 -0.7135 0.0761
vn -0.5774 -0.7400 -0.3451
vn -0.6965 -0.4004 -0.5955
vn -0.1726 -0.8927 -0.4163
vn -0.1794 0.8476 -0.4994
vn -0.1794 -0.1623 -0.9703
vn -0.9673 0.1072 -0.2299
vn -0.1726 0.4163 -0.8927
vn -0.5774 0.3451 -0.7400
vn -0.6965 -0.0761 -0.7135
vn -0.6965 0.5955 -0.4004
vn 0.1794 -0.8476 0.4994
vn 0.9673 -0.1072 0.2299
vn 0.1794 0.1623 0.9703
vn 0.6965 -0.5955 0.4004
vn 0.5774 -0.3451 0.7400
vn 0.6965 0.0761 0.7135
vn 0.1726 -0.4163 0.8927
vn 0.1794 0.9703 -0.1623
vn 0.1794 0.4994 0.8476
vn 0.9673 0.2299 0.1072
vn 0.1726 0.8927 0.4163
vn 0.5774 0.7400 0.3451
vn 0.6965 0.4004 0.5955
vn 0.6965 0.7135 -0.0761
vn 0.1794 -0.9703 0.1623
vn 0.1794 -0.4994 -0.8476
vn 0.9673 -0.2299 -0.1072
vn 0.1726 -0.8927 -0.4163
vn 0.5774 -0.7400 -0.3451
vn 0.6965 -0.4004 -0.5955
vn 0.6965 -0.7135 0.0761
vn 0.1794 0.8476 -0.4994
vn 0.9673 0.1072 -0.2299
vn 0.1794 -0.1623 -0.9703
vn 0.6965 0.5955 -0.4004
vn 0.5774 0.3451 -0.7400
vn 0.6965 -0.0761 -0.7135
vn 0.1726 0.4163 -0.8927
vn -0.0562 -0.9808 -0.1870
vn -0.7955 -0.4236 0.4333
vn -0.7189 -0.2197 -0.6595
vn -0.4882 -0.8530 0.1844
vn -0.6838 -0.7071 -0.1799
vn -0.9289 -0.3469 -0.1298
vn -0.4373 -0.7174 -0.5423
vn -0.8666 -0.0771 0.4930
vn -0.4398 0.8879 0.1349
vn -0.7900 0.1268 -0.5998
vn -0.7644 0.4925 0.4161
vn -0.9128 0.4082 0.0122
vn -0.7135 0.6281 -0.3105
vn -0.9973 -0.0136 -0.0724
vn 0.2092 -0.8879 -0.4097
vn -0.4535 -0.1268 -0.8822
vn 0.6360 0.0771 -0.7678
vn -0.1819 -0.6281 -0.7566
vn 0.1706 -0.4082 -0.8968
vn 0.1019 0.0136 -0.9947
vn 0.5425 -0.4925 -0.6805
vn -0.1744 0.9808 -0.0878
vn 0.5649 0.4236 -0.7081
vn -0.5246 0.2197 -0.8225
vn 0.2664 0.8530 -0.4488
vn -0.0584 0.7071 -0.7047
vn 0.0335 0.3469 -0.9373
vn -0.4581 0.7174 -0.5248
vn 0.1744 -0.9808 0.0878
vn 0.5246 -0.2197 0.8225
vn -0.5649 -0.4236 0.7081
vn 0.4581 -0.7174 0.5248
vn 0.0584 -0.7071 0.7047
vn -0.0335 -0.3469 0.9373
vn -0.2664 -0.8530 0.4488
vn -0.2092 0.8879 0.4097
vn -0.6360 -0.0771 0.7678
vn 0.4535 0.1268 0.8822
vn -0.5425 0.4925 0.6805
vn -0.1706 0.4082 0.8968
vn -0.1019 -0.0136 0.9947
vn 0.1819 0.6281 0.7566
vn 0.4398 -0.8879 -0.1349
vn 0.8666 0.0771 -0.4930
vn 0.7900 -0.1268 0.5998
vn 0.7644 -0.4925 -0.4161
vn 0.9128 -0.4082 -0.0122
vn 0.9973 0.0136 0.0724
vn 0.7135 -0.6281 0.3105
vn 0.0562 0.9808 0.1870
vn 0.7189 0.2197 0.6595
vn 0.7955 0.4236 -0.4333
vn 0.4373 0.7174 0.5423
vn 0.6839 0.7071 0.1799
vn 0.9289 0.3469 0.1298
vn 0.4882 0.8530 -0.1844
vn -0.1660 -0.9808 0.1027
vn 0.6245 -0.4236 0.6562
vn -0.4509 -0.2197 0.8651
vn 0.3045 -0.8530 0.4238
vn 0.0033 -0.7071 0.7071
vn 0.1150 -0.3469 0.9308
vn -0.4106 -0.7174 0.5627
vn 0.7005 -0.0771 0.7095
vn 0.2441 0.8879 0.3899
vn -0.3749 0.1268 0.9184
vn 0.5998 0.4925 0.6306
vn 0.2481 0.4082 0.8785
vn -0.1153 0.6281 0.7695
vn 0.1882 -0.0136 0.9820
vn -0.4499 -0.8879 -0.0960
vn -0.7348 -0.1268 0.6664
vn -0.9063 0.0771 -0.4156
vn -0.6837 -0.6281 0.3715
vn -0.9104 -0.4082 0.0674
vn -0.9872 0.0136 0.1590
vn -0.7977 -0.4925 -0.3479
vn -0.0397 0.9808 0.1912
vn -0.8302 0.4236 -0.3624
vn -0.6587 0.2197 0.7196
vn -0.5024 0.8530 -0.1411
vn -0.6656 0.7071 0.2388
vn -0.9140 0.3469 0.2103
vn -0.3884 0.7174 0.5783
vn 0.0397 -0.9808 -0.1912
vn 0.6587 -0.2197 -0.7196
vn 0.8302 -0.4236 0.3624
vn 0.3884 -0.7174 -0.5783
vn 0.6656 -0.7071 -0.2388
vn 0.9140 -0.3469 -0.2103
vn 0.5024 -0.8530 0.1411
vn 0.4499 0.8879 0.0960
vn 0.9063 -0.0771 0.4156
vn 0.7348 0.1268 -0.6664
vn 0.7977 0.4925 0.3479
vn 0.9104 0.4082 -0.0674
vn 0.9872 -0.0136 -0.1590
vn 0.6837 0.6281 -0.3715
vn -0.2441 -0.8879 -0.3899
vn -0.7005 0.0771 -0.7095
vn 0.3749 -0.1268 -0.9184
vn -0.5998 -0.4925 -0.6306
vn -0.2481 -0.4082 -0.8785
vn -0.1882 0.0136 -0.9820
vn 0.1153 -0.6281 -0.7695
vn 0.1660 0.9808 -0.1027
vn 0.4509 0.2197 -0.8651
vn -0.6245 0.4236 -0.6562
vn 0.4106 0.7174 -0.5627
vn -0.0033 0.7071 -0.7071
vn -0.1150 0.3469 -0.9308
vn -0.3045 0.8530 -0.4238
vt 0.652006 0.443483
vt 0.638517 0.441925
vt 0.638517 0.441844
vt 0.652006 0.443423
vt 0.623761 0.437616
vt 0.624791 0.437810
vt 0.624705 0.437706
vt 0.607108 0.437441
vt 0.607431 0.437366
vt 0.607486 0.437441
vt 0.606998 0.437550
vt 0.607010 0.437515
vt 0.605208 0.440581
vt 0.604989 0.440454
vt 0.605072 0.440359
vt 0.605363 0.440430
vt 0.605392 0.440496
vt 0.604989 0.439982
vt 0.605208 0.440058
vt 0.605237 0.440014
vt 0.605126 0.439842
vt 0.605060 0.439871
vt 0.617519 0.440347
vt 0.617135 0.440486
vt 0.617826 0.440491
vt 0.617746 0.440377
vt 0.608730 0.440731
vt 0.608321 0.440619
vt 0.608098 0.440680
vt 0.608442 0.440846
vt 0.614139 0.436143
vt 0.624705 0.438138
vt 0.624657 0.438276
vt 0.613778 0.436205
vt 0.613809 0.436273
vt 0.614139 0.436194
vt 0.617519 0.437698
vt 0.617132 0.437586
vt 0.609323 0.442501
vt 0.624569 0.441397
vt 0.624705 0.441499
vt 0.609544 0.442579
vt 0.609544 0.442104
vt 0.624705 0.441068
vt 0.626039 0.440892
vt 0.609391 0.441972
vt 0.638517 0.438394
vt 0.652006 0.438119
vt 0.652006 0.438284
vt 0.638517 0.438558
vt 0.638517 0.437362
vt 0.652006 0.435783
vt 0.652006 0.435723
vt 0.638517 0.437281
vt 0.638517 0.440812
vt 0.652006 0.441087
vt 0.652006 0.440922
vt 0.638517 0.440649
vt 0.603043 0.431936
vt 0.602687 0.432006
vt 0.602685 0.431959
vt 0.603043 0.431897
vt 0.599375 0.432576
vt 0.599725 0.432507
vt 0.608146 0.437681
vt 0.599724 0.432555
vt 0.599375 0.432615
vt 0.607583 0.437766
vt 0.592670 0.444523
vt 0.592888 0.444650
vt 0.592888 0.444893
vt 0.592668 0.444815
vt 0.590552 0.443828
vt 0.590333 0.443701
vt 0.590333 0.443458
vt 0.590552 0.443535
vt 0.607743 0.437385
vt 0.608059 0.437478
vt 0.608059 0.439096
vt 0.607752 0.439198
vt 0.602640 0.439277
vt 0.602333 0.439184
vt 0.602333 0.437566
vt 0.602641 0.437464
vt 0.719728 0.603353
vt 0.719728 0.609426
vt 0.716337 0.610337
vt 0.715575 0.606586
vt 0.719728 0.618408
vt 0.715575 0.617232
vt 0.713854 0.614391
vt 0.719728 0.630395
vt 0.719728 0.637024
vt 0.716337 0.635070
vt 0.715575 0.629218
vt 0.719728 0.637416
vt 0.715575 0.634183
vt 0.713854 0.626378
vt 0.719728 0.598990
vt 0.715575 0.602223
vt 0.716337 0.601336
vt 0.719728 0.599382
vt 0.713854 0.610028
vt 0.715575 0.607187
vt 0.719728 0.606010
vt 0.719728 0.633053
vt 0.719728 0.626979
vt 0.716337 0.626068
vt 0.715575 0.629820
vt 0.719728 0.617997
vt 0.715575 0.619174
vt 0.713854 0.622015
vt 0.726106 0.603353
vt 0.730259 0.606586
vt 0.729497 0.610337
vt 0.726106 0.609426
vt 0.731979 0.614391
vt 0.730259 0.617232
vt 0.726106 0.618408
vt 0.726106 0.637416
vt 0.726106 0.637024
vt 0.729497 0.635070
vt 0.730259 0.634183
vt 0.726106 0.630395
vt 0.730259 0.629218
vt 0.731979 0.626378
vt 0.726106 0.598990
vt 0.726106 0.599382
vt 0.729497 0.601336
vt 0.730259 0.602223
vt 0.726106 0.606010
vt 0.730259 0.607187
vt 0.731979 0.610028
vt 0.726106 0.633053
vt 0.730259 0.629820
vt 0.729497 0.626068
vt 0.726106 0.626979
vt 0.731979 0.622015
vt 0.730259 0.619174
vt 0.726106 0.617997
vt 0.720330 0.599237
vt 0.716950 0.600398
vt 0.715201 0.602246
vt 0.717349 0.602527
vt 0.714875 0.607460
vt 0.713492 0.608341
vt 0.715440 0.610469
vt 0.713623 0.619658
vt 0.714068 0.628482
vt 0.712618 0.627415
vt 0.712240 0.620539
vt 0.716772 0.633901
vt 0.714467 0.630610
vt 0.714188 0.622668
vt 0.725002 0.602505
vt 0.722022 0.605795
vt 0.724841 0.608990
vt 0.727707 0.607923
vt 0.720112 0.613738
vt 0.724249 0.615866
vt 0.728152 0.616748
vt 0.721445 0.637169
vt 0.724824 0.636007
vt 0.722258 0.634159
vt 0.719139 0.633879
vt 0.726900 0.628946
vt 0.722997 0.628064
vt 0.718860 0.625936
vt 0.724389 0.599237
vt 0.726694 0.602527
vt 0.723575 0.602246
vt 0.721009 0.600398
vt 0.726973 0.610469
vt 0.722836 0.608341
vt 0.718933 0.607460
vt 0.720831 0.633901
vt 0.718126 0.628482
vt 0.720992 0.627415
vt 0.723812 0.630610
vt 0.717681 0.619658
vt 0.721584 0.620539
vt 0.725721 0.622668
vt 0.729061 0.602505
vt 0.731765 0.607923
vt 0.733216 0.608990
vt 0.731366 0.605795
vt 0.732210 0.616748
vt 0.733593 0.615866
vt 0.731646 0.613738
vt 0.725503 0.637169
vt 0.728484 0.633879
vt 0.730632 0.634159
vt 0.728883 0.636007
vt 0.730394 0.625936
vt 0.732341 0.628064
vt 0.730959 0.628946
vt 0.721591 0.597512
vt 0.725534 0.598780
vt 0.722957 0.600796
vt 0.719413 0.601102
vt 0.727955 0.606483
vt 0.723912 0.607445
vt 0.719298 0.609766
vt 0.729415 0.619790
vt 0.728896 0.629417
vt 0.725970 0.628253
vt 0.725373 0.620752
vt 0.725741 0.635328
vt 0.722775 0.631738
vt 0.720758 0.623074
vt 0.716141 0.601078
vt 0.713962 0.604667
vt 0.711711 0.608153
vt 0.712986 0.606989
vt 0.713847 0.613332
vt 0.711364 0.615654
vt 0.712467 0.616616
vt 0.720291 0.638893
vt 0.716348 0.637626
vt 0.714724 0.635610
vt 0.717324 0.635304
vt 0.713927 0.629923
vt 0.712825 0.628961
vt 0.715308 0.626639
vt 0.725542 0.597512
vt 0.728509 0.601101
vt 0.731109 0.600796
vt 0.729485 0.598780
vt 0.730525 0.609766
vt 0.733009 0.607445
vt 0.731906 0.606483
vt 0.729692 0.635328
vt 0.732847 0.629417
vt 0.734122 0.628253
vt 0.731871 0.631738
vt 0.733366 0.619790
vt 0.734469 0.620752
vt 0.731986 0.623074
vt 0.720092 0.601078
vt 0.716937 0.606989
vt 0.719863 0.608153
vt 0.723059 0.604667
vt 0.716418 0.616616
vt 0.720460 0.615654
vt 0.725075 0.613332
vt 0.724242 0.638893
vt 0.726421 0.635304
vt 0.722876 0.635610
vt 0.720299 0.637626
vt 0.726535 0.626639
vt 0.721921 0.628961
vt 0.717878 0.629923
s 1
f 1/1/1 9/2/9 10/3/10 2/4/2
f 45/5/45 46/6/46 47/7/47
f 54/8/54 55/9/55 56/10/56 57/11/57 58/12/58
f 65/13/65 66/14/66 67/15/67 68/16/68 69/17/69
f 70/18/70 71/19/71 72/20/72 73/21/73 74/22/74
f 77/23/77 78/24/78 79/25/79 80/26/80
f 81/27/81 82/28/82 83/29/83 84/30/84
f 53/31/53 43/32/43 44/33/44 52/34/52
f 51/35/51 45/5/45 47/7/47 50/36/50
f 76/37/76 46/6/46 45/5/45 75/38/75
f 64/39/64 41/40/41 42/41/42 63/42/63
f 62/43/62 48/44/48 49/45/49 61/46/61
f 12/47/12 4/48/4 3/49/3 11/50/11
f 14/51/14 6/52/6 5/53/5 13/54/13
f 16/55/16 8/56/8 7/57/7 15/58/15
f 9/2/9 42/41/42 41/40/41 10/3/10
f 43/32/43 12/47/12 11/50/11 44/33/44
f 46/6/46 14/51/14 13/54/13 47/7/47
f 48/44/48 16/55/16 15/58/15 49/45/49
f 51/35/51 50/36/50 18/59/18 17/60/17
f 52/34/52 20/61/20 19/62/19 53/31/53
f 54/8/54 22/63/22 21/64/21 55/9/55
f 60/65/60 24/66/24 23/67/23 59/68/59
f 61/46/61 26/69/26 25/70/25 62/43/62
f 64/39/64 63/42/63 28/71/28 27/72/27
f 66/14/66 65/13/65 30/73/30 29/74/29
f 71/19/71 70/18/70 32/75/32 31/76/31
f 75/38/75 34/77/34 33/78/33 76/37/76
f 78/24/78 77/23/77 36/79/36 35/80/35
f 82/28/82 81/27/81 38/81/38 37/82/37
f 60/65/60 59/68/59 40/83/40 39/84/39
f 10/3/10 11/50/11 3/49/3 2/4/2
f 16/55/16 9/2/9 1/1/1 8/56/8
f 12/47/12 13/54/13 5/53/5 4/48/4
f 14/51/14 15/58/15 7/57/7 6/52/6
f 48/44/48 42/41/42 9/2/9 16/55/16
f 41/40/41 44/33/44 11/50/11 10/3/10
f 43/32/43 47/7/47 13/54/13 12/47/12
f 46/6/46 49/45/49 15/58/15 14/51/14
f 53/31/53 19/62/19 18/59/18 50/36/50
f 62/43/62 63/42/63 42/41/42 48/44/48
f 41/40/41 69/17/69 68/16/68 44/33/44
f 64/39/64 65/13/65 69/17/69 41/40/41
f 50/36/50 47/7/47 43/32/43 53/31/53
f 56/10/56 55/9/55 52/34/52 44/33/44
f 68/16/68 67/15/67 57/11/57 56/10/56 44/33/44
f 60/65/60 75/38/75 45/5/45 51/35/51
f 76/37/76 77/23/77 80/26/80 46/6/46
f 80/26/80 79/25/79 49/45/49 46/6/46
f 61/46/61 49/45/49 79/25/79 78/24/78 81/27/81 84/30/84
f 51/35/51 17/60/17 24/66/24 60/65/60
f 55/9/55 21/64/21 20/61/20 52/34/52
f 59/68/59 23/67/23 22/63/22 54/8/54
f 67/15/67 66/14/66 70/18/70 74/22/74 58/12/58 57/11/57
f 74/22/74 73/21/73 59/68/59 54/8/54 58/12/58
f 59/68/59 82/28/82 37/82/37 40/83/40
f 83/29/83 82/28/82 59/68/59 73/21/73 72/20/72
f 75/38/75 60/65/60 39/84/39 34/77/34
f 63/42/63 62/43/62 25/70/25 28/71/28
f 61/46/61 71/19/71 31/76/31 26/69/26
f 65/13/65 64/39/64 27/72/27 30/73/30
f 61/46/61 84/30/84 83/29/83 72/20/72 71/19/71
f 70/18/70 66/14/66 29/74/29 32/75/32
f 77/23/77 76/37/76 33/78/33 36/79/36
f 81/27/81 78/24/78 35/80/35 38/81/38
f 85/85/85 88/86/88 89/87/89 91/88/91
f 86/89/86 90/90/90 89/87/89 88/86/88
f 87/91/87 91/88/91 89/87/89 90/90/90
f 92/92/92 95/93/95 96/94/96 98/95/98
f 93/96/93 97/97/97 96/94/96 95/93/95
f 94/98/94 98/95/98 96/94/96 97/97/97
f 99/99/99 102/100/102 103/101/103 105/102/105
f 100/103/100 104/104/104 103/101/103 102/100/102
f 101/105/101 105/102/105 103/101/103 104/104/104
f 106/106/106 109/107/109 110/108/110 112/109/112
f 107/110/107 111/111/111 110/108/110 109/107/109
f 108/112/108 112/109/112 110/108/110 111/111/111
f 113/113/113 116/114/116 117/115/117 119/116/119
f 114/117/114 118/118/118 117/115/117 116/114/116
f 115/119/115 119/116/119 117/115/117 118/118/118
f 120/120/120 123/121/123 124/122/124 126/123/126
f 121/124/121 125/125/125 124/122/124 123/121/123
f 122/126/122 126/123/126 124/122/124 125/125/125
f 127/127/127 130/128/130 131/129/131 133/130/133
f 128/131/128 132/132/132 131/129/131 130/128/130
f 129/133/129 133/130/133 131/129/131 132/132/132
f 134/134/134 137/135/137 138/136/138 140/137/140
f 135/138/135 139/139/139 138/136/138 137/135/137
f 136/140/136 140/137/140 138/136/138 139/139/139
f 99/99/99 85/85/85 91/88/91 102/100/102
f 102/100/102 91/88/91 87/91/87 100/103/100
f 86/89/86 92/92/92 98/95/98 90/90/90
f 90/90/90 98/95/98 94/98/94 87/91/87
f 93/96/93 106/106/106 112/109/112 97/97/97
f 97/97/97 112/109/112 108/112/108 94/98/94
f 107/110/107 101/105/101 104/104/104 111/111/111
f 111/111/111 104/104/104 100/103/100 108/112/108
f 127/127/127 99/99/99 105/102/105 130/128/130
f 130/128/130 105/102/105 101/105/101 128/131/128
f 106/106/106 134/134/134 140/137/140 109/107/109
f 109/107/109 140/137/140 136/140/136 107/110/107
f 135/138/135 129/133/129 132/132/132 139/139/139
f 139/139/139 132/132/132 128/131/128 136/140/136
f 113/113/113 127/127/127 133/130/133 116/114/116
f 116/114/116 133/130/133 129/133/129 114/117/114
f 134/134/134 120/120/120 126/123/126 137/135/137
f 137/135/137 126/123/126 122/126/122 135/138/135
f 121/124/121 115/119/115 118/118/118 125/125/125
f 125/125/125 118/118/118 114/117/114 122/126/122
f 85/85/85 113/113/113 119/116/119 88/86/88
f 88/86/88 119/116/119 115/119/115 86/89/86
f 120/120/120 93/96/93 95/93/95 123/121/123
f 123/121/123 95/93/95 92/92/92 121/124/121
f 99/99/99 127/127/127 113/113/113 85/85/85
f 87/91/87 94/98/94 108/112/108 100/103/100
f 115/119/115 121/124/121 92/92/92 86/89/86
f 134/134/134 106/106/106 93/96/93 120/120/120
f 101/105/101 107/110/107 136/140/136 128/131/128
f 129/133/129 135/138/135 122/126/122 114/117/114
f 141/141/141 144/142/144 145/143/145 147/144/147
f 142/145/142 146/146/146 145/143/145 144/142/144
f 143/147/143 147/144/147 145/143/145 146/146/146
f 148/148/148 151/149/151 152/150/152 154/151/154
f 149/152/149 153/153/153 152/150/152 151/149/151
f 150/154/150 154/151/154 152/150/152 153/153/153
f 155/155/155 158/156/158 159/157/159 161/158/161
f 156/159/156 160/160/160 159/157/159 158/156/158
f 157/161/157 161/158/161 159/157/159 160/160/160
f 162/162/162 165/163/165 166/164/166 168/165/168
f 163/166/163 167/167/167 166/164/166 165/163/165
f 164/168/164 168/165/168 166/164/166 167/167/167
f 169/169/169 172/170/172 173/171/173 175/172/175
f 170/173/170 174/174/174 173/171/173 172/170/172
f 171/175/171 175/172/175 173/171/173 174/174/174
f 176/176/176 179/177/179 180/178/180 182/179/182
f 177/180/177 181/181/181 180/178/180 179/177/179
f 178/182/178 182/179/182 180/178/180 181/181/181
f 183/183/183 186/184/186 187/185/187 189/186/189
f 184/187/184 188/188/188 187/185/187 186/184/186
f 185/189/185 189/186/189 187/185/187 188/188/188
f 190/190/190 193/191/193 194/192/194 196/193/196
f 191/194/191 195/195/195 194/192/194 193/191/193
f 192/196/192 196/193/196 194/192/194 195/195/195
f 155/155/155 141/141/141 147/144/147 158/156/158
f 158/156/158 147/144/147 143/147/143 156/159/156
f 142/145/142 148/148/148 154/151/154 146/146/146
f 146/146/146 154/151/154 150/154/150 143/147/143
f 149/152/149 162/162/162 168/165/168 153/153/153
f 153/153/153 168/165/168 164/168/164 150/154/150
f 163/166/163 157/161/157 160/160/160 167/167/167
f 167/167/167 160/160/160 156/159/156 164/168/164
f 183/183/183 155/155/155 161/158/161 186/184/186
f 186/184/186 161/158/161 157/161/157 184/187/184
f 162/162/162 190/190/190 196/193/196 165/163/165
f 165/163/165 196/193/196 192/196/192 163/166/163
f 191/194/191 185/189/185 188/188/188 195/195/195
f 195/195/195 188/188/188 184/187/184 192/196/192
f 169/169/169 183/183/183 189/186/189 172/170/172
f 172/170/172 189/186/189 185/189/185 170/173/170
f 190/190/190 176/176/176 182/179/182 193/191/193
f 193/191/193 182/179/182 178/182/178 191/194/191
f 177/180/177 171/175/171 174/174/174 181/181/181
f 181/181/181 174/174/174 170/173/170 178/182/178
f 141/141/141 169/169/169 175/172/175 144/142/144
f 144/142/144 175/172/175 171/175/171 142/145/142
f 176/176/176 149/152/149 151/149/151 179/177/179
f 179/177/179 151/149/151 148/148/148 177/180/177
f 155/155/155 183/183/183 169/169/169 141/141/141
f 143/147/143 150/154/150 164/168/164 156/159/156
f 171/175/171 177/180/177 148/148/148 142/145/142
f 190/190/190 162/162/162 149/152/149 176/176/176
f 157/161/157 163/166/163 192/196/192 184/187/184
f 185/189/185 191/194/191 178/182/178 170/173/170
f 197/197/197 200/198/200 201/199/201 203/200/203
f 198/201/198 202/202/202 201/199/201 200/198/200
f 199/203/199 203/200/203 201/199/201 202/202/202
f 204/204/204 207/205/207 208/206/208 210/207/210
f 205/208/205 209/209/209 208/206/208 207/205/207
f 206/210/206 210/207/210 208/206/208 209/209/209
f 211/211/211 214/212/214 215/213/215 217/214/217
f 212/215/212 216/216/216 215/213/215 214/212/214
f 213/217/213 217/214/217 215/213/215 216/216/216
f 218/218/218 221/219/221 222/220/222 224/221/224
f 219/222/219 223/223/223 222/220/222 221/219/221
f 220/224/220 224/221/224 222/220/222 223/223/223
f 225/225/225 228/226/228 229/227/229 231/228/231
f 226/229/226 230/230/230 229/227/229 228/226/228
f 227/231/227 231/228/231 229/227/229 230/230/230
f 232/232/232 235/233/235 236/234/236 238/235/238
f 233/236/233 237/237/237 236/234/236 235/233/235
f 234/238/234 238/235/238 236/234/236 237/237/237
f 239/239/239 242/240/242 243/241/243 245/242/245
f 240/243/240 244/244/244 243/241/243 242/240/242
f 241/245/241 245/242/245 243/241/243 244/244/244
f 246/246/246 249/247/249 250/248/250 252/249/252
f 247/250/247 251/251/251 250/248/250 249/247/249
f 248/252/248 252/249/252 250/248/250 251/251/251
f 211/211/211 197/197/197 203/200/203 214/212/214
f 214/212/214 203/200/203 199/203/199 212/215/212
f 198/201/198 204/204/204 210/207/210 202/202/202
f 202/202/202 210/207/210 206/210/206 199/203/199
f 205/208/205 218/218/218 224/221/224 209/209/209
f 209/209/209 224/221/224 220/224/220 206/210/206
f 219/222/219 213/217/213 216/216/216 223/223/223
f 223/223/223 216/216/216 212/215/212 220/224/220
f 239/239/239 211/211/211 217/214/217 242/240/242
f 242/240/242 217/214/217 213/217/213 240/243/240
f 218/218/218 246/246/246 252/249/252 221/219/221
f 221/219/221 252/249/252 248/252/248 219/222/219
f 247/250/247 241/245/241 244/244/244 251/251/251
f 251/251/251 244/244/244 240/243/240 248/252/248
f 225/225/225 239/239/239 245/242/245 228/226/228
f 228/226/228 245/242/245 241/245/241 226/229/226
f 246/246/246 232/232/232 238/235/238 249/247/249
f 249/247/249 238/235/238 234/238/234 247/250/247
f 233/236/233 227/231/227 230/230/230 237/237/237
f 237/237/237 230/230/230 226/229/226 234/238/234
f 197/197/197 225/225/225 231/228/231 200/198/200
f 200/198/200 231/228/231 227/231/227 198/201/198
f 232/232/232 205/208/205 207/205/207 235/233/235
f 235/233/235 207/205/207 204/204/204 233/236/233
f 211/211/211 239/239/239 225/225/225 197/197/197
f 199/203/199 206/210/206 220/224/220 212/215/212
f 227/231/227 233/236/233 204/204/204 198/201/198
f 246/246/246 218/218/218 205/208/205 232/232/232
f 213/217/213 219/222/219 248/252/248 240/243/240
f 241/245/241 247/250/247 234/238/234 226/229/226
