# Blender 5.0.1
# www.blender.org
o GEO_Rock_D
v 10.000000 0.000000 -3.480000
v 10.000000 0.000000 -2.520000
v 10.000000 0.448014 -2.476460
v 10.000000 0.448014 -3.523540
v 9.425703 0.156805 -3.000000
v 10.574297 0.156805 -3.000000
v 10.000000 0.800000 -3.000000
v 10.000000 0.156805 -3.574297
v 9.476460 0.448014 -3.000000
v 10.000000 0.156805 -2.425703
v 10.523540 0.448014 -3.000000
v 9.520000 0.000000 -3.000000
v 10.480000 0.000000 -3.000000
v 10.000000 0.697404 -2.650114
v 10.000000 0.706542 -2.663029
v 10.000000 0.697404 -3.349886
v 10.000000 0.706542 -3.336971
v 9.625038 0.000000 -2.614551
v 9.614551 0.000000 -2.625038
v 9.705160 0.664275 -2.705160
v 9.692806 0.655427 -2.703207
v 9.703207 0.655427 -2.692806
v 9.602106 0.448014 -2.591437
v 9.591436 0.448014 -2.602106
v 9.614551 0.000000 -3.374962
v 9.625038 0.000000 -3.385449
v 9.692806 0.655427 -3.296793
v 9.705160 0.664275 -3.294840
v 9.703207 0.655427 -3.307194
v 9.602106 0.448014 -3.408563
v 9.591436 0.448014 -3.397894
v 10.385449 0.000000 -2.625038
v 10.374962 0.000000 -2.614551
v 10.307194 0.655427 -2.703207
v 10.294840 0.664275 -2.705160
v 10.296793 0.655427 -2.692806
v 10.397894 0.448014 -2.591437
v 10.408564 0.448014 -2.602106
v 10.374962 0.000000 -3.385449
v 10.385449 0.000000 -3.374962
v 10.456293 0.156805 -2.554246
v 10.445754 0.156805 -2.543707
v 10.445754 0.156805 -3.456293
v 10.456293 0.156805 -3.445754
v 9.543707 0.156805 -3.445754
v 9.554246 0.156805 -3.456293
v 10.294840 0.664275 -3.294840
v 10.307194 0.655427 -3.296793
v 10.296793 0.655427 -3.307194
v 10.408564 0.448014 -3.397894
v 10.397894 0.448014 -3.408563
v 9.543707 0.156805 -2.554246
v 9.554246 0.156805 -2.543707
v 9.663029 0.706542 -3.000000
v 9.650114 0.697404 -3.000000
v 10.336971 0.706542 -3.000000
v 10.349886 0.697404 -3.000000
v 10.189746 0.000000 -3.889972
v 10.680494 0.000000 -3.478186
v 10.697171 0.224007 -3.464192
v 10.173070 0.224007 -3.903965
v 10.251273 0.078402 -3.463499
v 10.620424 0.078402 -3.903436
v 10.435849 0.400000 -3.683467
v 10.153628 0.078402 -3.920279
v 10.267587 0.224007 -3.482940
v 10.716612 0.078402 -3.447879
v 10.604112 0.224007 -3.883995
v 10.281580 0.000000 -3.499617
v 10.590118 0.000000 -3.867318
v 10.630657 0.348702 -3.520004
v 10.625710 0.353271 -3.524154
v 10.239583 0.348702 -3.848154
v 10.244530 0.353271 -3.844003
v 10.523768 0.000000 -3.364955
v 10.516381 0.000000 -3.364309
v 10.514814 0.332138 -3.424765
v 10.511592 0.327714 -3.419405
v 10.518918 0.327714 -3.420046
v 10.525251 0.224007 -3.348742
v 10.517736 0.224007 -3.348085
v 10.106097 0.000000 -3.708578
v 10.105451 0.000000 -3.715965
v 10.161188 0.327714 -3.713428
v 10.165907 0.332138 -3.717532
v 10.160547 0.327714 -3.720755
v 10.089228 0.224007 -3.714610
v 10.089885 0.224007 -3.707095
v 10.764143 0.000000 -3.659580
v 10.764790 0.000000 -3.652193
v 10.709052 0.327714 -3.654729
v 10.704333 0.332138 -3.650625
v 10.709693 0.327714 -3.647403
v 10.781013 0.224007 -3.653547
v 10.780355 0.224007 -3.661063
v 10.346472 0.000000 -4.003203
v 10.353859 0.000000 -4.003849
v 10.814027 0.078402 -3.663962
v 10.814676 0.078402 -3.656539
v 10.342090 0.078402 -4.053086
v 10.349513 0.078402 -4.053736
v 10.056213 0.078402 -3.704195
v 10.055564 0.078402 -3.711619
v 10.355427 0.332138 -3.943393
v 10.358649 0.327714 -3.948753
v 10.351322 0.327714 -3.948112
v 10.352505 0.224007 -4.020072
v 10.344989 0.224007 -4.019415
v 10.520727 0.078402 -3.314422
v 10.528152 0.078402 -3.315071
v 10.327549 0.353271 -3.554400
v 10.323398 0.348702 -3.549453
v 10.544149 0.353271 -3.812535
v 10.548300 0.348702 -3.817482
v 9.645258 0.000000 -2.539325
v 9.398428 0.000000 -2.245164
v 9.387233 0.179206 -2.231822
v 9.656453 0.179206 -2.552666
v 9.345868 0.062722 -2.539905
v 9.697818 0.062722 -2.244584
v 9.521843 0.320000 -2.392244
v 9.669503 0.062722 -2.568219
v 9.361421 0.179206 -2.526854
v 9.374183 0.062722 -2.216269
v 9.682264 0.179206 -2.257634
v 9.374763 0.000000 -2.515660
v 9.668923 0.000000 -2.268829
v 9.431882 0.278962 -2.285033
v 9.435203 0.282617 -2.288990
v 9.611804 0.278962 -2.499456
v 9.608483 0.282617 -2.495498
v 9.307843 0.000000 -2.370544
v 9.307325 0.000000 -2.376454
v 9.355691 0.265710 -2.377708
v 9.351403 0.262171 -2.380286
v 9.351915 0.262171 -2.374424
v 9.294873 0.179206 -2.369358
v 9.294347 0.179206 -2.375370
v 9.500143 0.000000 -2.606244
v 9.506052 0.000000 -2.606761
v 9.504023 0.262171 -2.562171
v 9.507306 0.265710 -2.558396
v 9.509884 0.262171 -2.562684
v 9.504969 0.179206 -2.619740
v 9.498957 0.179206 -2.619214
v 9.543543 0.000000 -2.178245
v 9.537633 0.000000 -2.177727
v 9.539662 0.262171 -2.222317
v 9.536379 0.265710 -2.226092
v 9.533801 0.262171 -2.221805
v 9.538717 0.179206 -2.164749
v 9.544729 0.179206 -2.165275
v 9.735843 0.000000 -2.413944
v 9.736360 0.000000 -2.408035
v 9.547049 0.062722 -2.138338
v 9.541110 0.062722 -2.137818
v 9.775749 0.062722 -2.417450
v 9.776269 0.062722 -2.411512
v 9.496636 0.062722 -2.646151
v 9.502576 0.062722 -2.646671
v 9.687995 0.265710 -2.406781
v 9.692283 0.262171 -2.404203
v 9.691770 0.262171 -2.410064
v 9.749338 0.179206 -2.409118
v 9.748813 0.179206 -2.415131
v 9.267416 0.062722 -2.372977
v 9.267936 0.062722 -2.367038
v 9.418589 0.282617 -2.478885
v 9.414632 0.278962 -2.482205
v 9.625096 0.282617 -2.305604
v 9.629054 0.278962 -2.302283
v 10.323237 0.000000 -2.467940
v 10.269893 0.000000 -2.165407
v 10.267473 0.143365 -2.151686
v 10.325657 0.143365 -2.481661
v 10.115582 0.050178 -2.348586
v 10.477549 0.050178 -2.284761
v 10.296565 0.256000 -2.316674
v 10.328477 0.050178 -2.497657
v 10.131577 0.143365 -2.345766
v 10.264653 0.050178 -2.135691
v 10.461553 0.143365 -2.287582
v 10.145299 0.000000 -2.343346
v 10.447831 0.000000 -2.290001
v 10.277122 0.223169 -2.206411
v 10.277841 0.226093 -2.210481
v 10.316008 0.223169 -2.426936
v 10.315289 0.226093 -2.422866
v 10.156981 0.000000 -2.216040
v 10.154260 0.000000 -2.219927
v 10.187266 0.212568 -2.240142
v 10.183265 0.209737 -2.240213
v 10.185965 0.209737 -2.236357
v 10.148470 0.143365 -2.210030
v 10.145701 0.143365 -2.213985
v 10.195930 0.000000 -2.456257
v 10.199819 0.000000 -2.458979
v 10.216249 0.209737 -2.427275
v 10.220033 0.212568 -2.425973
v 10.220104 0.209737 -2.429975
v 10.193876 0.143365 -2.467538
v 10.189921 0.143365 -2.464768
v 10.397200 0.000000 -2.177090
v 10.393312 0.000000 -2.174368
v 10.376882 0.209737 -2.206073
v 10.373097 0.212568 -2.207375
v 10.373026 0.209737 -2.203373
v 10.399254 0.143365 -2.165810
v 10.403209 0.143365 -2.168579
v 10.436149 0.000000 -2.417308
v 10.438870 0.000000 -2.413420
v 10.415591 0.050178 -2.150845
v 10.411684 0.050178 -2.148109
v 10.462395 0.050178 -2.435700
v 10.465130 0.050178 -2.431793
v 10.177539 0.050178 -2.482503
v 10.181446 0.050178 -2.485239
v 10.405864 0.212568 -2.393206
v 10.409865 0.209737 -2.393135
v 10.407166 0.209737 -2.396990
v 10.447429 0.143365 -2.419363
v 10.444660 0.143365 -2.423318
v 10.128000 0.050178 -2.201554
v 10.130735 0.050178 -2.197648
v 10.190372 0.226093 -2.335398
v 10.186302 0.223169 -2.336116
v 10.402758 0.226093 -2.297949
v 10.406828 0.223169 -2.297231
vn -0.4655 0.7527 0.4655
vn -0.4655 0.7527 -0.4655
vn 0.4655 0.7527 0.4655
vn 0.4655 0.7527 -0.4655
vn -0.6468 0.4042 0.6468
vn -0.6969 -0.1693 0.6969
vn 0.5959 -0.5383 -0.5959
vn 0.6969 -0.1693 -0.6969
vn -0.0000 0.8219 0.5697
vn -0.1949 0.8061 0.5587
vn -0.5819 0.5681 0.5819
vn -0.6468 0.4042 -0.6468
vn -0.5819 0.5681 -0.5819
vn 0.6468 0.4042 0.6468
vn 0.5819 0.5681 0.5819
vn -0.5959 -0.5383 -0.5959
vn -0.6969 -0.1693 -0.6969
vn 0.1949 0.8061 -0.5587
vn -0.0000 0.8219 -0.5697
vn 0.5959 -0.5383 0.5959
vn 0.6969 -0.1693 0.6969
vn 0.6468 0.4042 -0.6468
vn 0.5819 0.5681 -0.5819
vn -0.5959 -0.5383 0.5959
vn -0.5697 0.8219 -0.0000
vn -0.5587 0.8061 0.1949
vn -0.1949 0.8061 -0.5587
vn 0.5697 0.8219 -0.0000
vn 0.5587 0.8061 -0.1949
vn 0.1949 0.8061 0.5587
vn -0.5587 0.8061 -0.1949
vn 0.5587 0.8061 0.1949
vn 0.2469 0.3431 0.9063
vn 0.2173 0.5383 0.8142
vn -0.0000 0.5515 0.8342
vn -0.0000 0.3656 0.9308
vn -0.2173 0.5383 0.8142
vn -0.2469 0.3431 0.9063
vn 0.2189 0.9509 0.2189
vn 0.2243 0.9745 -0.0000
vn -0.0000 1.0000 -0.0000
vn -0.0000 0.9745 0.2243
vn -0.2243 0.9745 -0.0000
vn -0.2189 0.9509 0.2189
vn 0.2189 0.9509 -0.2189
vn -0.0000 0.9745 -0.2243
vn -0.0000 0.5515 -0.8342
vn 0.2173 0.5383 -0.8142
vn 0.2469 0.3431 -0.9063
vn -0.0000 0.3656 -0.9308
vn -0.2189 0.9509 -0.2189
vn -0.2173 0.5383 -0.8142
vn -0.2469 0.3431 -0.9063
vn -0.0000 -0.5050 0.8631
vn -0.0000 -0.1601 0.9871
vn -0.2567 -0.1446 0.9556
vn -0.2182 -0.4928 0.8423
vn -0.9556 -0.1446 0.2567
vn -0.9871 -0.1601 -0.0000
vn -0.8631 -0.5050 -0.0000
vn -0.8423 -0.4928 0.2182
vn -0.8142 0.5383 0.2173
vn -0.8342 0.5515 -0.0000
vn -0.9308 0.3656 -0.0000
vn -0.9063 0.3431 0.2469
vn -0.2182 -0.4928 -0.8423
vn -0.2567 -0.1446 -0.9556
vn -0.0000 -0.1601 -0.9871
vn -0.0000 -0.5050 -0.8631
vn -0.9556 -0.1446 -0.2567
vn -0.8423 -0.4928 -0.2182
vn -0.8142 0.5383 -0.2173
vn -0.9063 0.3431 -0.2469
vn 0.8631 -0.5050 -0.0000
vn 0.9871 -0.1601 -0.0000
vn 0.9556 -0.1446 0.2567
vn 0.8423 -0.4928 0.2182
vn 0.2182 -0.4928 0.8423
vn 0.2567 -0.1446 0.9556
vn 0.8342 0.5515 -0.0000
vn 0.8142 0.5383 0.2173
vn 0.9063 0.3431 0.2469
vn 0.9308 0.3656 -0.0000
vn 0.9556 -0.1446 -0.2567
vn 0.8423 -0.4928 -0.2182
vn 0.2567 -0.1446 -0.9556
vn 0.2182 -0.4928 -0.8423
vn 0.9063 0.3431 -0.2469
vn 0.8142 0.5383 -0.2173
vn 0.0574 0.7527 0.6558
vn -0.6558 0.7527 0.0574
vn 0.6558 0.7527 -0.0574
vn -0.0574 0.7527 -0.6558
vn 0.0797 0.4042 0.9112
vn 0.0859 -0.1693 0.9818
vn -0.0735 -0.5383 -0.8396
vn -0.0859 -0.1693 -0.9818
vn 0.4364 0.8219 0.3662
vn 0.3027 0.8061 0.5084
vn 0.0717 0.5681 0.8198
vn -0.9112 0.4042 0.0797
vn -0.8199 0.5681 0.0717
vn 0.9112 0.4042 -0.0797
vn 0.8198 0.5681 -0.0717
vn -0.8396 -0.5383 0.0735
vn -0.9818 -0.1693 0.0859
vn -0.3027 0.8061 -0.5084
vn -0.4364 0.8219 -0.3662
vn 0.8396 -0.5383 -0.0735
vn 0.9818 -0.1693 -0.0859
vn -0.0797 0.4042 -0.9112
vn -0.0717 0.5681 -0.8198
vn 0.0735 -0.5383 0.8396
vn -0.3681 0.8194 0.4395
vn -0.2671 0.8126 0.5180
vn -0.5533 0.8061 -0.2098
vn 0.3689 0.8194 -0.4388
vn 0.2680 0.8127 -0.5174
vn 0.5533 0.8061 0.2098
vn -0.4630 0.8127 0.3538
vn 0.4637 0.8126 -0.3530
vn 0.8530 0.3431 0.3934
vn 0.7634 0.5383 0.3569
vn 0.6390 0.5515 0.5362
vn 0.7130 0.3656 0.5983
vn 0.4840 0.5383 0.6899
vn 0.5355 0.3431 0.7717
vn 0.2526 0.9649 -0.0715
vn 0.1415 0.9756 -0.1678
vn 0.0004 1.0000 0.0004
vn 0.1158 0.9885 0.0972
vn -0.1407 0.9756 0.1685
vn -0.0265 0.9649 0.2612
vn 0.0274 0.9651 -0.2604
vn -0.1149 0.9887 -0.0964
vn -0.6390 0.5515 -0.5362
vn -0.4840 0.5383 -0.6899
vn -0.5355 0.3431 -0.7717
vn -0.7130 0.3656 -0.5983
vn -0.2517 0.9651 0.0722
vn -0.7634 0.5383 -0.3569
vn -0.8530 0.3431 -0.3934
vn 0.6612 -0.5050 0.5548
vn 0.7562 -0.1601 0.6345
vn 0.5671 -0.1446 0.8109
vn 0.5050 -0.4928 0.7086
vn -0.4798 -0.1408 0.8660
vn -0.6341 -0.1592 0.7566
vn -0.5584 -0.4943 0.6663
vn -0.4288 -0.4880 0.7603
vn -0.4183 0.5343 0.7346
vn -0.5404 0.5404 0.6449
vn -0.5992 0.3600 0.7151
vn -0.4573 0.3361 0.8234
vn -0.7855 -0.4928 -0.3743
vn -0.8970 -0.1446 -0.4177
vn -0.7562 -0.1601 -0.6345
vn -0.6612 -0.5050 -0.5548
vn -0.7688 -0.1407 0.6239
vn -0.6737 -0.4879 0.5551
vn -0.6501 0.5342 0.5404
vn -0.7307 0.3359 0.5943
vn 0.5592 -0.4943 -0.6656
vn 0.6350 -0.1592 -0.7559
vn 0.7695 -0.1408 -0.6229
vn 0.6743 -0.4880 -0.5543
vn 0.7855 -0.4928 0.3743
vn 0.8970 -0.1446 0.4177
vn 0.5413 0.5404 -0.6442
vn 0.6508 0.5343 -0.5395
vn 0.7315 0.3361 -0.5933
vn 0.6001 0.3600 -0.7143
vn 0.4809 -0.1407 -0.8654
vn 0.4297 -0.4879 -0.7598
vn -0.5671 -0.1446 -0.8109
vn -0.5050 -0.4928 -0.7086
vn 0.4583 0.3359 -0.8228
vn 0.4193 0.5342 -0.7340
vn -0.3662 0.8219 0.4364
vn -0.5084 0.8061 0.3027
vn -0.0717 0.5681 -0.8199
vn 0.5084 0.8061 -0.3027
vn 0.3662 0.8219 -0.4364
vn 0.8199 0.5681 -0.0717
vn -0.8396 -0.5383 0.0734
vn 0.2098 0.8061 -0.5533
vn -0.2098 0.8061 0.5533
vn -0.3934 0.3431 0.8530
vn -0.3569 0.5383 0.7634
vn -0.5362 0.5515 0.6390
vn -0.5983 0.3656 0.7130
vn -0.6899 0.5383 0.4840
vn -0.7717 0.3431 0.5355
vn 0.0270 0.9509 0.3083
vn 0.1718 0.9745 0.1442
vn -0.1442 0.9745 0.1718
vn -0.1718 0.9745 -0.1442
vn -0.3083 0.9509 0.0270
vn 0.3083 0.9509 -0.0270
vn 0.1442 0.9745 -0.1718
vn 0.5362 0.5515 -0.6390
vn 0.6899 0.5383 -0.4840
vn 0.7717 0.3431 -0.5355
vn 0.5983 0.3656 -0.7130
vn -0.0270 0.9509 -0.3083
vn 0.3569 0.5383 -0.7634
vn 0.3934 0.3431 -0.8530
vn -0.5548 -0.5050 0.6612
vn -0.6345 -0.1601 0.7562
vn -0.8109 -0.1446 0.5671
vn -0.7086 -0.4928 0.5050
vn 0.3743 -0.4928 -0.7855
vn 0.4177 -0.1446 -0.8970
vn 0.6345 -0.1601 -0.7562
vn 0.5548 -0.5050 -0.6612
vn -0.3743 -0.4928 0.7855
vn -0.4177 -0.1446 0.8970
vn 0.8109 -0.1446 -0.5671
vn 0.7086 -0.4928 -0.5050
vn -0.5393 0.7527 0.3776
vn -0.3776 0.7527 -0.5393
vn 0.3776 0.7527 0.5393
vn 0.5393 0.7527 -0.3776
vn -0.7493 0.4042 0.5246
vn -0.8073 -0.1693 0.5653
vn 0.6904 -0.5383 -0.4834
vn 0.8073 -0.1693 -0.5653
vn -0.0989 0.8219 0.5610
vn -0.2890 0.8061 0.5164
vn -0.6741 0.5681 0.4720
vn -0.5246 0.4042 -0.7493
vn -0.4720 0.5681 -0.6741
vn 0.5246 0.4042 0.7493
vn 0.4720 0.5681 0.6741
vn -0.4834 -0.5383 -0.6904
vn -0.5653 -0.1693 -0.8073
vn 0.2889 0.8061 -0.5164
vn 0.0989 0.8219 -0.5610
vn 0.4834 -0.5383 0.6904
vn 0.5653 -0.1693 0.8073
vn 0.7493 0.4042 -0.5246
vn 0.6741 0.5681 -0.4720
vn -0.6904 -0.5383 0.4834
vn -0.5610 0.8219 -0.0989
vn -0.5841 0.8061 0.0949
vn -0.0949 0.8061 -0.5841
vn 0.5610 0.8219 0.0989
vn 0.5841 0.8061 -0.0949
vn 0.0949 0.8061 0.5841
vn -0.5164 0.8061 -0.2890
vn 0.5164 0.8061 0.2890
vn 0.0858 0.3431 0.9354
vn 0.0726 0.5383 0.8396
vn -0.1449 0.5515 0.8215
vn -0.1616 0.3656 0.9166
vn -0.3554 0.5383 0.7641
vn -0.4006 0.3431 0.8496
vn 0.1775 0.9509 0.2535
vn 0.2209 0.9745 0.0389
vn -0.0389 0.9745 0.2209
vn -0.2209 0.9745 -0.0389
vn -0.2535 0.9509 0.1775
vn 0.2535 0.9509 -0.1775
vn 0.0389 0.9745 -0.2209
vn 0.1449 0.5515 -0.8215
vn 0.3554 0.5383 -0.7641
vn 0.4006 0.3431 -0.8496
vn 0.1616 0.3656 -0.9166
vn -0.1775 0.9509 -0.2535
vn -0.0726 0.5383 -0.8396
vn -0.0858 0.3431 -0.9354
vn -0.1499 -0.5050 0.8500
vn -0.1714 -0.1601 0.9721
vn -0.4187 -0.1446 0.8965
vn -0.3611 -0.4928 0.7917
vn -0.9857 -0.1446 0.0868
vn -0.9721 -0.1601 -0.1714
vn -0.8500 -0.5050 -0.1499
vn -0.8674 -0.4928 0.0686
vn -0.8396 0.5383 0.0726
vn -0.8215 0.5515 -0.1449
vn -0.9166 0.3656 -0.1616
vn -0.9354 0.3431 0.0858
vn -0.0686 -0.4928 -0.8674
vn -0.0868 -0.1446 -0.9857
vn 0.1714 -0.1601 -0.9721
vn 0.1499 -0.5050 -0.8500
vn -0.8965 -0.1446 -0.4187
vn -0.7917 -0.4928 -0.3611
vn -0.7641 0.5383 -0.3554
vn -0.8496 0.3431 -0.4006
vn 0.8500 -0.5050 0.1499
vn 0.9721 -0.1601 0.1714
vn 0.8965 -0.1446 0.4187
vn 0.7917 -0.4928 0.3611
vn 0.0686 -0.4928 0.8674
vn 0.0868 -0.1446 0.9857
vn 0.8215 0.5515 0.1449
vn 0.7641 0.5383 0.3554
vn 0.8496 0.3431 0.4006
vn 0.9166 0.3656 0.1616
vn 0.9857 -0.1446 -0.0868
vn 0.8674 -0.4928 -0.0686
vn 0.4187 -0.1446 -0.8965
vn 0.3611 -0.4928 -0.7917
vn 0.9354 0.3431 -0.0858
vn 0.8396 0.5383 -0.0726
vt 0.457949 0.632660
vt 0.457737 0.632156
vt 0.457915 0.632156
vt 0.468243 0.632156
vt 0.468032 0.632660
vt 0.468065 0.632156
vt 0.456004 0.620334
vt 0.455188 0.603736
vt 0.455368 0.603736
vt 0.456187 0.620334
vt 0.469402 0.594799
vt 0.470612 0.603736
vt 0.470792 0.603736
vt 0.469581 0.594799
vt 0.462990 0.635069
vt 0.462990 0.634549
vt 0.469976 0.620334
vt 0.469794 0.620334
vt 0.456399 0.594799
vt 0.456579 0.594799
vt 0.457007 0.634549
vt 0.457228 0.635069
vt 0.468973 0.634549
vt 0.468752 0.635069
vt 0.462990 0.620334
vt 0.462990 0.640396
vt 0.462990 0.594799
vt 0.462990 0.603736
vt 0.453170 0.603736
vt 0.454783 0.594799
vt 0.454038 0.620334
vt 0.471198 0.594799
vt 0.472810 0.603736
vt 0.471942 0.620334
vt 0.464353 0.625129
vt 0.464298 0.624877
vt 0.464423 0.624877
vt 0.458306 0.624877
vt 0.458387 0.625129
vt 0.458295 0.624877
vt 0.467674 0.624877
vt 0.467593 0.625129
vt 0.467685 0.624877
vt 0.461627 0.625129
vt 0.461683 0.624877
vt 0.461557 0.624877
vt 0.464403 0.618966
vt 0.464454 0.610667
vt 0.464581 0.610667
vt 0.464531 0.618966
vt 0.461474 0.606198
vt 0.461399 0.610667
vt 0.461526 0.610667
vt 0.461601 0.606198
vt 0.466249 0.626333
vt 0.466334 0.626073
vt 0.457087 0.618966
vt 0.457076 0.618966
vt 0.468893 0.618966
vt 0.468905 0.618966
vt 0.457364 0.606198
vt 0.456511 0.610667
vt 0.456500 0.610667
vt 0.457353 0.606198
vt 0.459647 0.626073
vt 0.459731 0.626333
vt 0.468616 0.606198
vt 0.469469 0.610667
vt 0.469480 0.610667
vt 0.468627 0.606198
vt 0.461449 0.618966
vt 0.461578 0.618966
vt 0.464380 0.606198
vt 0.464506 0.606198
vt 0.461080 0.626073
vt 0.461151 0.626333
vt 0.464925 0.626073
vt 0.464854 0.626333
vt 0.467471 0.618966
vt 0.463003 0.628997
vt 0.458509 0.618966
vt 0.467186 0.606198
vt 0.467803 0.610667
vt 0.459847 0.610667
vt 0.460365 0.606198
vt 0.460126 0.618966
vt 0.458177 0.610667
vt 0.458795 0.606198
vt 0.465640 0.606198
vt 0.466159 0.610667
vt 0.465880 0.618966
vt 0.460149 0.623623
vt 0.460076 0.623421
vt 0.460085 0.623421
vt 0.462685 0.623421
vt 0.462742 0.623623
vt 0.462786 0.623421
vt 0.463295 0.623421
vt 0.463239 0.623623
vt 0.463195 0.623421
vt 0.465831 0.623623
vt 0.465905 0.623421
vt 0.465896 0.623421
vt 0.459100 0.618692
vt 0.458640 0.612053
vt 0.458649 0.612053
vt 0.459109 0.618692
vt 0.466649 0.608478
vt 0.467332 0.612053
vt 0.467341 0.612053
vt 0.466658 0.608478
vt 0.461509 0.624586
vt 0.461452 0.624378
vt 0.462599 0.618692
vt 0.462702 0.618692
vt 0.463382 0.618692
vt 0.463279 0.618692
vt 0.462619 0.608478
vt 0.462559 0.612053
vt 0.462661 0.612053
vt 0.462720 0.608478
vt 0.464528 0.624378
vt 0.464472 0.624586
vt 0.463361 0.608478
vt 0.463421 0.612053
vt 0.463320 0.612053
vt 0.463260 0.608478
vt 0.466871 0.618692
vt 0.466880 0.618692
vt 0.459322 0.608478
vt 0.459331 0.608478
vt 0.461157 0.624378
vt 0.461225 0.624586
vt 0.464823 0.624378
vt 0.464756 0.624586
vt 0.460688 0.618692
vt 0.462990 0.626717
vt 0.465292 0.618692
vt 0.460880 0.608478
vt 0.460465 0.612053
vt 0.459981 0.612053
vt 0.460475 0.608478
vt 0.460247 0.618692
vt 0.465515 0.612053
vt 0.465100 0.608478
vt 0.465505 0.608478
vt 0.465999 0.612053
vt 0.465733 0.618692
vt 0.461121 0.622417
vt 0.461053 0.622256
vt 0.461099 0.622256
vt 0.461617 0.622256
vt 0.461682 0.622417
vt 0.461683 0.622256
vt 0.464363 0.622256
vt 0.464299 0.622417
vt 0.464298 0.622256
vt 0.464859 0.622417
vt 0.464927 0.622256
vt 0.464881 0.622256
vt 0.460411 0.618473
vt 0.460108 0.613162
vt 0.460155 0.613162
vt 0.460458 0.618473
vt 0.465377 0.610302
vt 0.465826 0.613162
vt 0.465872 0.613162
vt 0.465423 0.610302
vt 0.462670 0.623188
vt 0.462658 0.623022
vt 0.461167 0.618473
vt 0.461234 0.618473
vt 0.464814 0.618473
vt 0.464746 0.618473
vt 0.461269 0.610302
vt 0.460955 0.613162
vt 0.461022 0.613162
vt 0.461336 0.610302
vt 0.463323 0.623022
vt 0.463310 0.623188
vt 0.464711 0.610302
vt 0.465025 0.613162
vt 0.464959 0.613162
vt 0.464644 0.610302
vt 0.465522 0.618473
vt 0.465570 0.618473
vt 0.460557 0.610302
vt 0.460603 0.610302
vt 0.461105 0.623022
vt 0.461174 0.623188
vt 0.464876 0.623022
vt 0.464806 0.623188
vt 0.462493 0.618473
vt 0.462990 0.624893
vt 0.463488 0.618473
vt 0.462534 0.610302
vt 0.462444 0.613162
vt 0.459895 0.613162
vt 0.460404 0.610302
vt 0.460169 0.618473
vt 0.463536 0.613162
vt 0.463446 0.610302
vt 0.465577 0.610302
vt 0.466085 0.613162
vt 0.465811 0.618473
s 1
f 20/1/1 21/2/1 22/3/1
f 27/2/2 28/1/2 29/3/2
f 34/4/3 35/5/3 36/6/3
f 47/5/4 48/4/4 49/6/4
f 24/7/5 52/8/6 53/9/6 23/10/5
f 39/11/7 43/12/8 44/13/8 40/14/7
f 15/15/9 20/1/10 22/3/10 14/16/9
f 21/2/11 24/7/5 23/10/5 22/3/11
f 31/7/12 27/2/13 29/3/13 30/10/12
f 38/17/14 34/4/15 36/6/15 37/18/14
f 25/19/16 45/8/17 46/9/17 26/20/16
f 49/6/18 16/16/19 17/15/19 47/5/18
f 32/14/20 41/13/21 42/12/21 33/11/20
f 51/18/22 49/6/23 48/4/23 50/17/22
f 52/8/6 19/19/24 18/20/24 53/9/6
f 55/21/25 21/2/26 20/1/26 54/22/25
f 45/8/17 31/7/12 30/10/12 46/9/17
f 16/16/19 29/3/27 28/1/27 17/15/19
f 43/12/8 51/18/22 50/17/22 44/13/8
f 57/23/28 48/4/29 47/5/29 56/24/28
f 41/13/21 38/17/14 37/18/14 42/12/21
f 14/16/9 36/6/30 35/5/30 15/15/9
f 27/2/31 55/21/25 54/22/25 28/1/31
f 34/4/32 57/23/28 56/24/28 35/5/32
f 37/18/33 36/6/34 14/16/35 3/25/36
f 14/16/35 22/3/37 23/10/38 3/25/36
f 35/5/39 56/24/40 7/26/41 15/15/42
f 7/26/41 54/22/43 20/1/44 15/15/42
f 56/24/40 47/5/45 17/15/46 7/26/41
f 16/16/47 49/6/48 51/18/49 4/25/50
f 28/1/51 54/22/43 7/26/41 17/15/46
f 29/3/52 16/16/47 4/25/50 30/10/53
f 2/27/54 10/28/55 53/9/56 18/20/57
f 52/8/58 5/29/59 12/30/60 19/19/61
f 21/2/62 55/21/63 9/31/64 24/7/65
f 24/7/65 9/31/64 5/29/59 52/8/58
f 10/28/55 3/25/36 23/10/38 53/9/56
f 26/20/66 46/9/67 8/28/68 1/27/69
f 12/30/60 5/29/59 45/8/70 25/19/71
f 55/21/63 27/2/72 31/7/73 9/31/64
f 5/29/59 9/31/64 31/7/73 45/8/70
f 46/9/67 30/10/53 4/25/50 8/28/68
f 13/32/74 6/33/75 41/13/76 32/14/77
f 33/11/78 42/12/79 10/28/55 2/27/54
f 57/23/80 34/4/81 38/17/82 11/34/83
f 6/33/75 11/34/83 38/17/82 41/13/76
f 42/12/79 37/18/33 3/25/36 10/28/55
f 44/13/84 6/33/75 13/32/74 40/14/85
f 1/27/69 8/28/68 43/12/86 39/11/87
f 8/28/68 4/25/50 51/18/49 43/12/86
f 50/17/88 11/34/83 6/33/75 44/13/84
f 48/4/89 57/23/80 11/34/83 50/17/88
f 77/35/90 78/36/90 79/37/90
f 84/38/91 85/39/91 86/40/91
f 91/41/92 92/42/92 93/43/92
f 104/44/93 105/45/93 106/46/93
f 81/47/94 109/48/95 110/49/95 80/50/94
f 96/51/96 100/52/97 101/53/97 97/54/96
f 72/55/98 77/35/99 79/37/99 71/56/98
f 78/36/100 81/47/94 80/50/94 79/37/100
f 88/57/101 84/38/102 86/40/102 87/58/101
f 95/59/103 91/41/104 93/43/104 94/60/103
f 82/61/105 102/62/106 103/63/106 83/64/105
f 106/46/107 73/65/108 74/66/108 104/44/107
f 89/67/109 98/68/110 99/69/110 90/70/109
f 108/71/111 106/46/112 105/45/112 107/72/111
f 109/48/95 76/73/113 75/74/113 110/49/95
f 112/75/114 78/36/115 77/35/115 111/76/114
f 102/62/106 88/57/101 87/58/101 103/63/106
f 73/65/108 86/40/116 85/39/116 74/66/108
f 100/52/97 108/71/111 107/72/111 101/53/97
f 114/77/117 105/45/118 104/44/118 113/78/117
f 98/68/110 95/59/103 94/60/103 99/69/110
f 71/56/98 93/43/119 92/42/119 72/55/98
f 84/38/120 112/75/114 111/76/114 85/39/120
f 91/41/121 114/77/117 113/78/117 92/42/121
f 94/60/122 93/43/123 71/56/124 60/79/125
f 71/56/124 79/37/126 80/50/127 60/79/125
f 92/42/128 113/78/129 64/80/130 72/55/131
f 64/80/130 111/76/132 77/35/133 72/55/131
f 113/78/129 104/44/134 74/66/135 64/80/130
f 73/65/136 106/46/137 108/71/138 61/81/139
f 85/39/140 111/76/132 64/80/130 74/66/135
f 86/40/141 73/65/136 61/81/139 87/58/142
f 59/82/143 67/83/144 110/49/145 75/74/146
f 109/48/147 62/84/148 69/85/149 76/73/150
f 78/36/151 112/75/152 66/86/153 81/47/154
f 81/47/154 66/86/153 62/84/148 109/48/147
f 67/83/144 60/79/125 80/50/127 110/49/145
f 83/64/155 103/63/156 65/87/157 58/88/158
f 69/85/149 62/84/148 102/62/159 82/61/160
f 112/75/152 84/38/161 88/57/162 66/86/153
f 62/84/148 66/86/153 88/57/162 102/62/159
f 103/63/156 87/58/142 61/81/139 65/87/157
f 70/89/163 63/90/164 98/68/165 89/67/166
f 90/70/167 99/69/168 67/83/144 59/82/143
f 114/77/169 91/41/170 95/59/171 68/91/172
f 63/90/164 68/91/172 95/59/171 98/68/165
f 99/69/168 94/60/122 60/79/125 67/83/144
f 101/53/173 63/90/164 70/89/163 97/54/174
f 58/88/158 65/87/157 100/52/175 96/51/176
f 65/87/157 61/81/139 108/71/138 100/52/175
f 107/72/177 68/91/172 63/90/164 101/53/173
f 105/45/178 114/77/169 68/91/172 107/72/177
f 134/92/91 135/93/91 136/94/91
f 141/95/93 142/96/93 143/97/93
f 148/98/90 149/99/90 150/100/90
f 161/101/92 162/102/92 163/103/92
f 138/104/101 166/105/106 167/106/106 137/107/101
f 153/108/109 157/109/110 158/110/110 154/111/109
f 129/112/179 134/92/180 136/94/180 128/113/179
f 135/93/102 138/104/101 137/107/101 136/94/102
f 145/114/111 141/95/181 143/97/181 144/115/111
f 152/116/94 148/98/100 150/100/100 151/117/94
f 139/118/96 159/119/97 160/120/97 140/121/96
f 163/103/182 130/122/183 131/123/183 161/101/182
f 146/124/113 155/125/95 156/126/95 147/127/113
f 165/128/103 163/103/184 162/102/184 164/129/103
f 166/105/106 133/130/185 132/131/185 167/106/106
f 169/132/108 135/93/116 134/92/116 168/133/108
f 159/119/97 145/114/111 144/115/111 160/120/97
f 130/122/183 143/97/186 142/96/186 131/123/183
f 157/109/110 165/128/103 164/129/103 158/110/110
f 171/134/98 162/102/119 161/101/119 170/135/98
f 155/125/95 152/116/94 151/117/94 156/126/95
f 128/113/179 150/100/187 149/99/187 129/112/179
f 141/95/107 169/132/108 168/133/108 142/96/107
f 148/98/99 171/134/98 170/135/98 149/99/99
f 151/117/188 150/100/189 128/113/190 117/136/191
f 128/113/190 136/94/192 137/107/193 117/136/191
f 149/99/194 170/135/195 121/137/41 129/112/196
f 121/137/41 168/133/197 134/92/198 129/112/196
f 170/135/195 161/101/199 131/123/200 121/137/41
f 130/122/201 163/103/202 165/128/203 118/138/204
f 142/96/205 168/133/197 121/137/41 131/123/200
f 143/97/206 130/122/201 118/138/204 144/115/207
f 116/139/208 124/140/209 167/106/210 132/131/211
f 166/105/156 119/141/157 126/142/158 133/130/155
f 135/93/141 169/132/136 123/143/139 138/104/142
f 138/104/142 123/143/139 119/141/157 166/105/156
f 124/140/209 117/136/191 137/107/193 167/106/210
f 140/121/212 160/120/213 122/144/214 115/145/215
f 126/142/158 119/141/157 159/119/175 139/118/176
f 169/132/136 141/95/137 145/114/138 123/143/139
f 119/141/157 123/143/139 145/114/138 159/119/175
f 160/120/213 144/115/207 118/138/204 122/144/214
f 127/146/143 120/147/144 155/125/145 146/124/146
f 147/127/216 156/126/217 124/140/209 116/139/208
f 171/134/124 148/98/126 152/116/127 125/148/125
f 120/147/144 125/148/125 152/116/127 155/125/145
f 156/126/217 151/117/188 117/136/191 124/140/209
f 158/110/168 120/147/144 127/146/143 154/111/167
f 115/145/215 122/144/214 157/109/218 153/108/219
f 122/144/214 118/138/204 165/128/203 157/109/218
f 164/129/122 125/148/125 120/147/144 158/110/168
f 162/102/123 171/134/124 125/148/125 164/129/122
f 191/149/220 192/150/220 193/151/220
f 198/152/221 199/153/221 200/154/221
f 205/155/222 206/156/222 207/157/222
f 218/158/223 219/159/223 220/160/223
f 195/161/224 223/162/225 224/163/225 194/164/224
f 210/165/226 214/166/227 215/167/227 211/168/226
f 186/169/228 191/149/229 193/151/229 185/170/228
f 192/150/230 195/161/224 194/164/224 193/151/230
f 202/171/231 198/152/232 200/154/232 201/172/231
f 209/173/233 205/155/234 207/157/234 208/174/233
f 196/175/235 216/176/236 217/177/236 197/178/235
f 220/160/237 187/179/238 188/180/238 218/158/237
f 203/181/239 212/182/240 213/183/240 204/184/239
f 222/185/241 220/160/242 219/159/242 221/186/241
f 223/162/225 190/187/243 189/188/243 224/163/225
f 226/189/244 192/150/245 191/149/245 225/190/244
f 216/176/236 202/171/231 201/172/231 217/177/236
f 187/179/238 200/154/246 199/153/246 188/180/238
f 214/166/227 222/185/241 221/186/241 215/167/227
f 228/191/247 219/159/248 218/158/248 227/192/247
f 212/182/240 209/173/233 208/174/233 213/183/240
f 185/170/228 207/157/249 206/156/249 186/169/228
f 198/152/250 226/189/244 225/190/244 199/153/250
f 205/155/251 228/191/247 227/192/247 206/156/251
f 208/174/252 207/157/253 185/170/254 174/193/255
f 185/170/254 193/151/256 194/164/257 174/193/255
f 206/156/258 227/192/259 178/194/41 186/169/260
f 178/194/41 225/190/261 191/149/262 186/169/260
f 227/192/259 218/158/263 188/180/264 178/194/41
f 187/179/265 220/160/266 222/185/267 175/195/268
f 199/153/269 225/190/261 178/194/41 188/180/264
f 200/154/270 187/179/265 175/195/268 201/172/271
f 173/196/272 181/197/273 224/163/274 189/188/275
f 223/162/276 176/198/277 183/199/278 190/187/279
f 192/150/280 226/189/281 180/200/282 195/161/283
f 195/161/283 180/200/282 176/198/277 223/162/276
f 181/197/273 174/193/255 194/164/257 224/163/274
f 197/178/284 217/177/285 179/201/286 172/202/287
f 183/199/278 176/198/277 216/176/288 196/175/289
f 226/189/281 198/152/290 202/171/291 180/200/282
f 176/198/277 180/200/282 202/171/291 216/176/288
f 217/177/285 201/172/271 175/195/268 179/201/286
f 184/203/292 177/204/293 212/182/294 203/181/295
f 204/184/296 213/183/297 181/197/273 173/196/272
f 228/191/298 205/155/299 209/173/300 182/205/301
f 177/204/293 182/205/301 209/173/300 212/182/294
f 213/183/297 208/174/252 174/193/255 181/197/273
f 215/167/302 177/204/293 184/203/292 211/168/303
f 172/202/287 179/201/286 214/166/304 210/165/305
f 179/201/286 175/195/268 222/185/267 214/166/304
f 221/186/306 182/205/301 177/204/293 215/167/302
f 219/159/307 228/191/298 182/205/301 221/186/306
