# Blender 5.0.1
# www.blender.org
o GEO_RiverTileConvertFlat
v 4.079400 -0.013760 -10.169876
v 4.165948 -0.013760 -10.083513
v 4.104749 -0.013760 -10.108809
v 7.974515 -2.013760 -10.029715
v 7.912989 -2.013760 -10.004284
v 4.129083 -0.013760 -13.916487
v 4.079400 -0.013760 -13.830124
v 4.104749 -0.013760 -13.891191
v 8.000000 -2.013760 -10.091108
v 7.974515 -2.013760 -13.970285
v 8.000000 -2.013760 -13.908892
v 7.834052 -0.013760 -10.083513
v 7.920600 -0.013760 -10.169876
v 7.895251 -0.013760 -10.108809
v 7.912989 -2.013760 -13.995716
v 4.025485 -2.013760 -13.970285
v 4.087011 -2.013760 -13.995716
v 7.920600 -0.013760 -13.830124
v 7.870917 -0.013760 -13.916487
v 7.895251 -0.013760 -13.891191
v 4.087011 -0.120803 -10.004284
v 4.000000 -0.120803 -10.091108
v 4.025485 -0.120803 -10.029715
v 4.000000 -0.120803 -13.908892
v 4.092435 -0.086950 -14.004284
v 4.025485 -0.120803 -13.970285
v 7.907565 -0.086950 -14.004284
v 8.000000 -0.120803 -13.908892
v 7.974515 -0.120803 -13.970285
v 8.000000 -0.120803 -10.091108
v 7.912989 -0.120803 -10.004284
v 7.974515 -0.120803 -10.029715
v 4.030196 -0.067282 -10.120603
v 4.116569 -0.067282 -10.034415
v 4.055494 -0.067282 -10.059659
v 4.030196 -0.067282 -13.879397
v 4.116569 -0.067282 -13.965585
v 4.055494 -0.067282 -13.940341
v 7.883431 -0.067282 -13.965585
v 7.969804 -0.067282 -13.879397
v 7.944506 -0.067282 -13.940341
v 7.969804 -0.067282 -10.120603
v 7.883431 -0.067282 -10.034415
v 7.944506 -0.067282 -10.059659
v 4.147607 -0.013760 -13.830124
v 4.165947 -0.013760 -10.169876
v 7.852393 -0.013760 -13.830124
v 7.834052 -0.013760 -10.169876
v 4.000000 -2.013760 -13.908892
v 4.025485 -2.013760 -10.029715
v 4.858259 -0.086950 -10.004284
v 7.141741 -0.086950 -10.004284
v 7.268601 -0.067282 -10.034415
v 4.731399 -0.067282 -10.034415
v 4.706027 -0.013760 -10.083513
v 7.293973 -0.013760 -10.083513
v 4.000000 -2.013760 -10.091108
v 4.087011 -2.013760 -10.004284
v 7.293973 -0.013760 -10.169876
v 4.706027 -0.013760 -10.169876
v 7.141741 -0.086950 -10.098171
v 4.858259 -0.086950 -10.098171
v 4.858259 -0.086950 -10.169876
v 7.141741 -0.086950 -10.169876
v 4.087011 -2.013760 -10.091108
v 4.087011 -2.013760 -13.908892
v 7.912989 -2.013760 -13.908892
v 7.912989 -2.013760 -10.091108
v 7.866734 -0.086950 -13.799849
v 4.133266 -0.086950 -13.799849
vn -0.1475 0.6783 0.7199
vn -0.0908 0.7174 0.6907
vn -0.2445 0.7683 0.5916
vn -0.2842 0.6682 0.6876
vn -0.6866 0.6689 0.2850
vn -0.5907 0.7688 0.2452
vn -0.6898 0.7182 0.0912
vn -0.7547 0.6401 0.1441
vn 0.0014 0.0565 0.9984
vn -0.0014 0.0565 0.9984
vn -0.2071 0.3074 0.9288
vn -0.1947 -0.0000 0.9809
vn 0.1947 -0.0000 0.9809
vn 0.2071 0.3074 0.9288
vn -0.3164 0.3490 -0.8821
vn 0.3164 0.3490 -0.8821
vn 0.2153 -0.0030 -0.9766
vn -0.2153 -0.0030 -0.9766
vn -0.6727 0.3062 0.6736
vn -0.7066 -0.0000 0.7076
vn -0.4639 0.2896 -0.8372
vn -0.4195 -0.0014 -0.9077
vn 0.8852 0.2851 -0.3675
vn 0.9371 0.2836 -0.2034
vn 0.9807 -0.0000 -0.1955
vn 0.9236 -0.0000 -0.3834
vn -0.3855 0.7520 -0.5347
vn -0.3934 0.7550 -0.5245
vn -0.6866 0.6689 -0.2850
vn -0.8852 0.2851 -0.3675
vn -0.9371 0.2836 -0.2034
vn -0.7547 0.6401 -0.1441
vn 0.7547 0.6401 -0.1441
vn 0.6866 0.6689 -0.2850
vn 0.3934 0.7550 -0.5245
vn 0.4639 0.2896 -0.8372
vn 0.3855 0.7520 -0.5347
vn 0.1475 0.6783 0.7199
vn 0.6727 0.3062 0.6736
vn 0.2842 0.6682 0.6876
vn 0.6866 0.6689 0.2850
vn 0.9371 0.2836 0.2034
vn 0.7547 0.6401 0.1441
vn -0.9371 0.2836 0.2034
vn -0.3453 0.7349 -0.5836
vn -0.5907 0.7688 -0.2452
vn -0.6898 0.7182 -0.0912
vn 0.6898 0.7182 -0.0912
vn 0.5907 0.7688 -0.2452
vn 0.3453 0.7349 -0.5836
vn 0.0908 0.7174 0.6907
vn 0.2445 0.7683 0.5916
vn 0.5907 0.7688 0.2452
vn 0.6898 0.7182 0.0912
vn -0.0000 1.0000 -0.0000
vn 0.3795 0.9176 0.1184
vn 0.2875 0.9126 0.2906
vn 0.3693 0.9188 0.1391
vn 0.7066 -0.0000 0.7076
vn 0.9807 -0.0000 0.1955
vn -0.9236 -0.0000 -0.3834
vn -0.9807 -0.0000 -0.1955
vn -0.0106 0.6396 0.7686
vn 0.0106 0.6396 0.7686
vn -0.0000 0.6760 0.7369
vn -0.9807 -0.0000 0.1955
vn 0.4195 -0.0014 -0.9077
vn -0.2875 0.9126 0.2906
vn -0.3795 0.9176 0.1184
vn -0.3693 0.9188 0.1391
vn 0.6028 0.7949 -0.0688
vn 0.5872 0.8071 -0.0621
vn -0.6028 0.7949 -0.0688
vn -0.5872 0.8071 -0.0621
vn -0.0000 -1.0000 -0.0000
vn -0.9241 0.3492 -0.1555
vn -0.9740 0.1633 -0.1573
vn 0.9241 0.3492 -0.1555
vn 0.9740 0.1633 -0.1573
vn -0.9715 -0.1836 -0.1501
vn -0.8389 -0.5217 -0.1551
vn 0.8389 -0.5217 -0.1551
vn 0.9715 -0.1836 -0.1501
vn 0.7591 -0.6331 -0.1516
vn -0.7591 -0.6331 -0.1516
vt 0.133244 0.543798
vt 0.133298 0.545403
vt 0.133325 0.545403
vt 0.133272 0.543798
vt 0.133392 0.545403
vt 0.133338 0.543798
vt 0.138302 0.543059
vt 0.133211 0.542192
vt 0.117755 0.874491
vt 0.133239 0.542192
vt 0.117758 0.874491
vt 0.137557 0.542192
vt 0.137490 0.542192
vt 0.117758 0.874393
vt 0.117761 0.874393
vt 0.137524 0.543798
vt 0.137457 0.543798
vt 0.133306 0.542192
vt 0.117763 0.874296
vt 0.117765 0.874296
vt 0.137470 0.545403
vt 0.137403 0.545403
vt 0.135991 0.546753
vt 0.135987 0.546834
vt 0.135979 0.546810
vt 0.136734 0.546810
vt 0.136725 0.546834
vt 0.136721 0.546753
vt 0.133314 0.542192
vt 0.117695 0.874393
vt 0.117701 0.874393
vt 0.133392 0.542192
vt 0.117706 0.874393
vt 0.117819 0.874393
vt 0.134161 0.542155
vt 0.134161 0.542197
vt 0.134167 0.542185
vt 0.134170 0.542155
vt 0.133766 0.542155
vt 0.133766 0.542197
vt 0.133766 0.540297
vt 0.134161 0.540297
vt 0.134161 0.540255
vt 0.133766 0.540255
vt 0.134170 0.540297
vt 0.134167 0.540267
vt 0.133759 0.540267
vt 0.133757 0.540297
vt 0.133757 0.542155
vt 0.133759 0.542185
vt 0.136728 0.546724
vt 0.136583 0.543321
vt 0.136609 0.543321
vt 0.135984 0.546724
vt 0.136103 0.543321
vt 0.136129 0.543321
vt 0.117826 0.874393
vt 0.136731 0.546880
vt 0.135981 0.546880
vt 0.135976 0.546916
vt 0.136736 0.546916
s 1
f 34/1/1 2/2/2 3/3/3 35/4/4
f 35/4/5 3/3/6 1/5/7 33/6/8
f 52/7/9 51/8/10 21/8/11 58/8/12 5/8/13 31/8/14
f 25/9/15 27/9/16 15/9/17 17/9/18
f 21/8/11 23/10/19 50/10/20 58/8/12
f 26/11/21 25/9/15 17/9/18 16/11/22
f 29/12/23 28/13/24 11/13/25 10/12/26
f 37/14/27 25/9/15 26/11/21 38/15/28
f 38/16/29 26/12/30 24/13/31 36/17/32
f 40/17/33 28/13/24 29/12/23 41/16/34
f 41/15/35 29/11/36 27/9/16 39/14/37
f 43/1/38 31/8/14 32/10/39 44/4/40
f 44/4/41 32/10/39 30/18/42 42/6/43
f 21/8/11 34/1/1 35/4/4 23/10/19
f 23/10/19 35/4/5 33/6/8 22/18/44
f 6/19/45 37/14/27 38/15/28 8/20/45
f 8/21/46 38/16/29 36/17/32 7/22/47
f 18/22/48 40/17/33 41/16/34 20/21/49
f 20/20/50 41/15/35 39/14/37 19/19/50
f 12/2/51 43/1/38 44/4/40 14/3/52
f 14/3/53 44/4/41 42/6/43 13/5/54
f 45/23/55 6/24/55 8/25/55
f 2/2/55 46/5/55 1/5/55 3/3/55
f 20/26/55 19/27/55 47/28/55
f 14/3/55 13/5/55 48/5/55 12/2/55
f 55/2/56 54/1/57 51/8/57 62/29/58
f 32/10/39 31/8/14 5/8/13 4/10/59
f 28/13/24 30/18/42 9/18/60 11/13/25
f 24/13/31 26/12/30 16/12/61 49/13/62
f 51/8/10 54/1/63 34/1/1 21/8/11
f 31/8/14 43/1/38 53/1/64 52/8/9
f 43/1/38 12/2/51 56/2/65 53/1/64
f 54/1/63 55/2/65 2/2/2 34/1/1
f 55/2/55 60/5/55 46/5/55 2/2/55
f 12/2/55 48/5/55 59/5/55 56/2/55
f 23/10/19 22/18/44 57/18/66 50/10/20
f 27/9/16 29/11/36 10/11/67 15/9/17
f 51/30/55 52/30/55 61/31/55 62/31/55
f 53/1/68 56/2/69 61/29/70 52/8/68
f 60/5/71 55/2/56 62/29/58 63/32/72
f 62/31/55 61/31/55 64/33/55 63/33/55
f 56/2/69 59/5/73 64/32/74 61/29/70
f 70/34/55 63/33/55 64/33/55 69/34/55
f 48/5/55 47/22/55 59/5/55
f 13/5/55 18/22/55 47/22/55 48/5/55
f 46/5/55 45/22/55 7/22/55 1/5/55
f 40/17/33 42/6/43 30/18/42 28/13/24
f 33/6/8 36/17/32 24/13/31 22/18/44
f 30/18/42 32/10/39 4/10/59 9/18/60
f 18/22/48 13/5/54 42/6/43 40/17/33
f 65/35/75 58/36/75 50/37/75 57/38/75
f 58/36/75 65/35/75 68/39/75 5/40/75
f 67/41/75 66/42/75 17/43/75 15/44/75
f 17/43/75 66/42/75 49/45/75 16/46/75
f 1/5/7 7/22/47 36/17/32 33/6/8
f 66/42/75 67/41/75 68/39/75 65/35/75
f 66/42/75 65/35/75 57/38/75 49/45/75
f 10/47/75 11/48/75 67/41/75 15/44/75
f 9/49/75 4/50/75 5/40/75 68/39/75
f 60/5/55 45/22/55 46/5/55
f 22/18/44 24/13/31 49/13/62 57/18/66
f 7/22/55 45/22/55 8/21/55
f 18/22/55 20/21/55 47/22/55
f 11/48/75 9/49/75 68/39/75 67/41/75
f 69/51/76 64/52/74 59/53/73 47/28/77
f 70/54/78 45/23/79 60/55/71 63/56/72
f 25/57/55 70/34/55 69/34/55 27/57/55
f 69/51/76 47/28/77 19/27/80 39/58/81
f 37/59/82 6/24/83 45/23/79 70/54/78
f 25/60/84 37/59/82 70/54/78
f 27/61/85 69/51/76 39/58/81
