# Blender 5.0.1
# www.blender.org
o GEO_CliffTile_A
v -18.025486 -0.013760 7.974515
v -18.087011 -0.013760 8.000000
v -18.000000 -0.013760 7.912989
v -19.920601 1.986240 7.834052
v -19.834053 1.986240 7.920600
v -19.895250 1.986240 7.895251
v -18.025486 -0.013760 4.025485
v -18.000000 -0.013760 4.087011
v -18.087011 -0.013760 4.000000
v -19.834053 1.986240 4.079400
v -19.920601 1.986240 4.165948
v -19.895250 1.986240 4.104749
v -19.974514 -0.013760 4.025485
v -19.912989 -0.013760 4.000000
v -20.000000 -0.013760 4.087011
v -18.165947 1.986240 7.920600
v -18.079399 1.986240 7.834052
v -18.104750 1.986240 7.895251
v -19.974514 -0.013760 7.974515
v -20.000000 -0.013760 7.912989
v -19.912989 -0.013760 8.000000
v -18.079399 1.986240 4.165948
v -18.165947 1.986240 4.079400
v -18.104750 1.986240 4.104749
v -19.912989 1.879197 8.000000
v -20.000000 1.879197 7.912989
v -19.974514 1.879197 7.974515
v -20.000000 1.879197 4.087011
v -19.912989 1.879197 4.000000
v -19.974514 1.879197 4.025485
v -18.087011 1.879197 4.000000
v -18.000000 1.879197 4.087011
v -18.025486 1.879197 4.025485
v -18.000000 1.879197 7.912989
v -18.087011 1.879197 8.000000
v -18.025486 1.879197 7.974515
v -19.969803 1.932718 7.883431
v -19.883430 1.932718 7.969804
v -19.944506 1.932718 7.944506
v -19.969803 1.932718 4.116569
v -19.883430 1.932718 4.030196
v -19.944506 1.932718 4.055494
v -18.116570 1.932718 4.030196
v -18.030197 1.932718 4.116569
v -18.055494 1.932718 4.055494
v -18.030197 1.932718 7.883431
v -18.116570 1.932718 7.969804
v -18.055494 1.932718 7.944506
v -19.834053 1.986240 4.165948
v -19.834053 1.986240 7.834052
v -18.165947 1.986240 4.165948
v -18.165947 1.986240 7.834052
v -19.912989 -0.013760 4.087011
v -18.087011 -0.013760 4.087011
v -19.912989 -0.013760 7.912989
v -18.087011 -0.013760 7.912989
v -16.025486 -0.013760 7.974515
v -16.087011 -0.013760 8.000000
v -16.000000 -0.013760 7.912989
v -17.920601 0.957381 7.834052
v -17.834053 0.957381 7.920600
v -17.895250 0.957381 7.895251
v -16.025486 -0.013760 6.025485
v -16.000000 -0.013760 6.087011
v -16.087011 -0.013760 6.000000
v -17.834053 0.957381 6.079400
v -17.920601 0.957381 6.165948
v -17.895250 0.957381 6.104749
v -17.974514 -0.013760 6.025485
v -17.912989 -0.013760 6.000000
v -18.000000 -0.013760 6.087011
v -16.750120 0.957381 7.920600
v -16.663572 0.957381 7.834052
v -16.688923 0.957381 7.895251
v -17.974514 -0.013760 7.974515
v -18.000000 -0.013760 7.912989
v -17.912989 -0.013760 8.000000
v -16.663572 0.957381 6.165948
v -16.750120 0.957381 6.079400
v -16.688923 0.957381 6.104749
v -17.912989 0.850338 8.000000
v -18.000000 0.850338 7.912989
v -17.974514 0.850338 7.974515
v -18.000000 0.850338 6.087011
v -17.912989 0.850338 6.000000
v -17.974514 0.850338 6.025485
v -16.671185 0.850338 6.000000
v -16.584173 0.850338 6.087011
v -16.609657 0.850338 6.025485
v -16.584173 0.850338 7.912989
v -16.671185 0.850338 8.000000
v -16.609657 0.850338 7.974515
v -17.969803 0.903859 7.883431
v -17.883430 0.903859 7.969804
v -17.944506 0.903859 7.944506
v -17.969803 0.903859 6.116569
v -17.883430 0.903859 6.030196
v -17.944506 0.903859 6.055494
v -16.700741 0.903859 6.030196
v -16.614368 0.903859 6.116569
v -16.639668 0.903859 6.055494
v -16.614368 0.903859 7.883431
v -16.700741 0.903859 7.969804
v -16.639668 0.903859 7.944506
v -17.834053 0.957381 6.165948
v -17.834053 0.957381 7.834052
v -16.750120 0.957381 6.165948
v -16.750120 0.957381 7.834052
v -17.912989 -0.013760 6.087011
v -16.087011 -0.013760 6.087011
v -17.912989 -0.013760 7.912989
v -16.087011 -0.013760 7.912989
v -16.533649 -0.013760 5.974515
v -16.595177 -0.013760 6.000000
v -16.508165 -0.013760 5.912989
v -18.137989 1.240577 5.834052
v -18.051441 1.240577 5.920600
v -18.112640 1.240577 5.895251
v -16.533649 -0.013760 4.025485
v -16.508165 -0.013760 4.087011
v -16.595177 -0.013760 4.000000
v -18.051441 1.240577 4.079400
v -18.137989 1.240577 4.165948
v -18.112640 1.240577 4.104749
v -18.191904 -0.013760 4.025485
v -18.130379 -0.013760 4.000000
v -18.217390 -0.013760 4.087011
v -17.048546 1.240577 5.920600
v -16.961998 1.240577 5.834052
v -16.987347 1.240577 5.895251
v -18.191904 -0.013760 5.974515
v -18.217390 -0.013760 5.912989
v -18.130379 -0.013760 6.000000
v -16.961998 1.240577 4.165948
v -17.048546 1.240577 4.079400
v -16.987347 1.240577 4.104749
v -18.130379 1.133535 6.000000
v -18.217390 1.133535 5.912989
v -18.191904 1.133535 5.974515
v -18.217390 1.133535 4.087011
v -18.130379 1.133535 4.000000
v -18.191904 1.133535 4.025485
v -16.969608 1.133535 4.000000
v -16.882599 1.133535 4.087011
v -16.908083 1.133535 4.025485
v -16.882599 1.133535 5.912989
v -16.969608 1.133535 6.000000
v -16.908083 1.133535 5.974515
v -18.187193 1.187056 5.883431
v -18.100821 1.187056 5.969804
v -18.161896 1.187056 5.944506
v -18.187193 1.187056 4.116569
v -18.100821 1.187056 4.030196
v -18.161896 1.187056 4.055494
v -16.999166 1.187056 4.030196
v -16.912794 1.187056 4.116569
v -16.938093 1.187056 4.055494
v -16.912794 1.187056 5.883431
v -16.999166 1.187056 5.969804
v -16.938093 1.187056 5.944506
v -18.051441 1.240577 4.165948
v -18.051441 1.240577 5.834052
v -17.048546 1.240577 4.165948
v -17.048546 1.240577 5.834052
v -18.130379 -0.013760 4.087011
v -16.595177 -0.013760 4.087011
v -18.130379 -0.013760 5.912989
v -16.595177 -0.013760 5.912989
v -17.049036 1.223707 5.602587
v -17.085953 1.223707 5.617878
v -17.033747 1.223707 5.565671
v -18.186106 1.973053 5.518309
v -18.134178 1.973053 5.570238
v -18.170897 1.973053 5.555028
v -17.049036 1.223707 4.433169
v -17.033747 1.223707 4.470084
v -17.085953 1.223707 4.417878
v -18.134178 1.973053 4.465518
v -18.186106 1.973053 4.517447
v -18.170897 1.973053 4.480727
v -18.218454 1.223707 4.433169
v -18.181540 1.223707 4.417878
v -18.233746 1.223707 4.470084
v -17.559507 1.973053 5.570238
v -17.507580 1.973053 5.518309
v -17.522789 1.973053 5.555028
v -18.218454 1.223707 5.602587
v -18.233746 1.223707 5.565671
v -18.181540 1.223707 5.617878
v -17.507580 1.973053 4.517447
v -17.559507 1.973053 4.465518
v -17.522789 1.973053 4.480727
v -18.181540 1.940940 5.617878
v -18.233746 1.940940 5.565671
v -18.218454 1.940940 5.602587
v -18.233746 1.940940 4.470084
v -18.181540 1.940940 4.417878
v -18.218454 1.940940 4.433169
v -17.512146 1.940940 4.417878
v -17.459940 1.940940 4.470084
v -17.475231 1.940940 4.433169
v -17.459940 1.940940 5.565671
v -17.512146 1.940940 5.617878
v -17.475231 1.940940 5.602587
v -18.215628 1.956996 5.547936
v -18.163805 1.956996 5.599760
v -18.200449 1.956996 5.584581
v -18.215628 1.956996 4.487819
v -18.163805 1.956996 4.435996
v -18.200449 1.956996 4.451174
v -17.529881 1.956996 4.435996
v -17.478058 1.956996 4.487819
v -17.493237 1.956996 4.451174
v -17.478058 1.956996 5.547936
v -17.529881 1.956996 5.599760
v -17.493237 1.956996 5.584581
v -18.134178 1.973053 4.517447
v -18.134178 1.973053 5.518309
v -17.559507 1.973053 4.517447
v -17.559507 1.973053 5.518309
v -18.181540 1.223707 4.470084
v -17.085953 1.223707 4.470084
v -18.181540 1.223707 5.565671
v -17.085953 1.223707 5.565671
vn -0.1438 0.6401 0.7547
vn -0.0910 0.7182 0.6899
vn -0.2447 0.7689 0.5908
vn -0.2845 0.6689 0.6868
vn -0.6868 0.6689 0.2845
vn -0.5908 0.7689 0.2447
vn -0.6899 0.7182 0.0910
vn -0.7547 0.6401 0.1438
vn 0.3668 0.2851 0.8855
vn 0.2031 0.2837 0.9372
vn 0.1951 -0.0000 0.9808
vn 0.3827 -0.0000 0.9239
vn 0.8855 0.2851 -0.3668
vn 0.9372 0.2837 -0.2031
vn 0.9808 -0.0000 -0.1951
vn 0.9239 -0.0000 -0.3827
vn 0.9372 0.2837 0.2031
vn 0.9808 -0.0000 0.1951
vn -0.3668 0.2851 -0.8855
vn -0.2031 0.2837 -0.9372
vn -0.1951 -0.0000 -0.9808
vn -0.3827 -0.0000 -0.9239
vn -0.2031 0.2837 0.9372
vn -0.1951 -0.0000 0.9808
vn -0.3668 0.2851 0.8855
vn -0.3827 -0.0000 0.9239
vn -0.8855 0.2851 0.3668
vn -0.9372 0.2837 0.2031
vn -0.9808 -0.0000 0.1951
vn -0.9239 -0.0000 0.3827
vn 0.8855 0.2851 0.3668
vn 0.9239 -0.0000 0.3827
vn -0.1438 0.6401 -0.7547
vn -0.2845 0.6689 -0.6868
vn -0.6868 0.6689 -0.2845
vn -0.8855 0.2851 -0.3668
vn -0.9372 0.2837 -0.2031
vn -0.7547 0.6401 -0.1438
vn 0.7547 0.6401 -0.1438
vn 0.6868 0.6689 -0.2845
vn 0.2845 0.6689 -0.6868
vn 0.3668 0.2851 -0.8855
vn 0.2031 0.2837 -0.9372
vn 0.1438 0.6401 -0.7547
vn 0.1438 0.6401 0.7547
vn 0.2845 0.6689 0.6868
vn 0.6868 0.6689 0.2845
vn 0.7547 0.6401 0.1438
vn -0.0910 0.7182 -0.6899
vn -0.2447 0.7689 -0.5908
vn -0.5908 0.7689 -0.2447
vn -0.6899 0.7182 -0.0910
vn 0.6899 0.7182 -0.0910
vn 0.5908 0.7689 -0.2447
vn 0.2447 0.7689 -0.5908
vn 0.0910 0.7182 -0.6899
vn 0.0910 0.7182 0.6899
vn 0.2447 0.7689 0.5908
vn 0.5908 0.7689 0.2447
vn 0.6899 0.7182 0.0910
vn -0.9808 -0.0000 -0.1951
vn 0.3827 -0.0000 -0.9239
vn 0.1951 -0.0000 -0.9808
vn -0.0000 1.0000 -0.0000
vn -0.9239 -0.0000 -0.3827
vn -0.0000 -1.0000 -0.0000
vn 0.3526 0.3886 0.8513
vn 0.1617 0.3234 0.9324
vn 0.2595 0.1754 0.9497
vn 0.3705 0.2505 0.8944
vn 0.7651 0.5605 -0.3169
vn 0.8108 0.5558 -0.1835
vn 0.8188 0.5535 -0.1524
vn 0.7836 0.5297 -0.3246
vn 0.8108 0.5558 0.1835
vn 0.8188 0.5535 0.1524
vn 0.7651 0.5605 0.3169
vn 0.7836 0.5297 0.3246
vn 0.3526 0.3886 -0.8513
vn 0.1617 0.3234 -0.9324
vn 0.3705 0.2505 -0.8944
vn 0.2595 0.1754 -0.9497
vn 0.3614 0.3289 0.8725
vn 0.1810 0.3082 0.9339
vn 0.2315 0.0755 0.9699
vn 0.3797 0.1239 0.9168
vn 0.8298 0.4396 -0.3437
vn 0.8813 0.4303 -0.1952
vn 0.9353 0.3052 -0.1791
vn 0.8845 0.2887 -0.3664
vn 0.8813 0.4303 0.1952
vn 0.9353 0.3052 0.1791
vn 0.8298 0.4396 0.3437
vn 0.8845 0.2887 0.3664
vn 0.3614 0.3289 -0.8725
vn 0.1810 0.3082 -0.9339
vn 0.3797 0.1239 -0.9168
vn 0.2315 0.0755 -0.9699
vn -0.0902 0.8485 0.5214
vn -0.0508 0.8979 0.4373
vn -0.1469 0.9234 0.3547
vn -0.1900 0.8681 0.4586
vn -0.4586 0.8681 0.1900
vn -0.3547 0.9234 0.1469
vn -0.4373 0.8979 0.0508
vn -0.5214 0.8485 0.0902
vn 0.3358 0.4798 0.8106
vn 0.1508 0.4658 0.8719
vn 0.2542 0.1510 0.9553
vn 0.3732 0.2217 0.9009
vn 0.6916 0.6630 -0.2865
vn 0.7355 0.6564 -0.1677
vn 0.8488 0.5044 -0.1588
vn 0.8099 0.4812 -0.3355
vn 0.7355 0.6564 0.1677
vn 0.8488 0.5044 0.1588
vn -0.3488 0.4115 -0.8420
vn -0.1922 0.4312 -0.8816
vn -0.1922 0.4312 0.8816
vn -0.3488 0.4115 0.8420
vn -0.8420 0.4115 0.3488
vn -0.8816 0.4312 0.1922
vn 0.6916 0.6630 0.2865
vn 0.8099 0.4812 0.3355
vn -0.0902 0.8485 -0.5214
vn -0.1900 0.8681 -0.4586
vn -0.4586 0.8681 -0.1900
vn -0.8420 0.4115 -0.3488
vn -0.8816 0.4312 -0.1922
vn -0.5214 0.8485 -0.0902
vn 0.5214 0.8485 -0.0902
vn 0.4586 0.8681 -0.1900
vn 0.1900 0.8681 -0.4586
vn 0.3358 0.4798 -0.8106
vn 0.1508 0.4658 -0.8719
vn 0.0902 0.8485 -0.5214
vn 0.0902 0.8485 0.5214
vn 0.1900 0.8681 0.4586
vn 0.4586 0.8681 0.1900
vn 0.5214 0.8485 0.0902
vn -0.0508 0.8979 -0.4373
vn -0.1469 0.9233 -0.3547
vn -0.3547 0.9234 -0.1469
vn -0.4373 0.8979 -0.0508
vn 0.4373 0.8979 -0.0508
vn 0.3547 0.9234 -0.1469
vn 0.1469 0.9233 -0.3547
vn 0.0508 0.8979 -0.4373
vn 0.0508 0.8979 0.4373
vn 0.1469 0.9234 0.3547
vn 0.3547 0.9234 0.1469
vn 0.4373 0.8979 0.0508
vn 0.3732 0.2217 -0.9009
vn 0.2542 0.1510 -0.9553
vt 0.129500 0.542354
vt 0.129518 0.543042
vt 0.129495 0.543042
vt 0.129477 0.542354
vt 0.129486 0.543042
vt 0.129468 0.542354
vt 0.177268 0.183297
vt 0.177268 0.183099
vt 0.238729 0.183099
vt 0.238729 0.183297
vt 0.177268 0.183379
vt 0.238729 0.183379
vt 0.177268 0.177013
vt 0.177268 0.177211
vt 0.238729 0.177211
vt 0.238729 0.177013
vt 0.177268 0.176930
vt 0.238729 0.176930
vt 0.129489 0.541666
vt 0.129466 0.541666
vt 0.129457 0.541666
vt 0.130915 0.542354
vt 0.130926 0.541666
vt 0.130917 0.541666
vt 0.130906 0.542354
vt 0.130894 0.541666
vt 0.130883 0.542354
vt 0.129518 0.543042
vt 0.129495 0.543042
vt 0.129486 0.543042
vt 0.130897 0.543042
vt 0.130888 0.543042
vt 0.130865 0.543042
vt 0.130865 0.543042
vt 0.130888 0.543042
vt 0.130897 0.543042
vt 0.129518 0.543042
vt 0.210673 0.187863
vt 0.210673 0.187664
vt 0.238729 0.189548
vt 0.238729 0.189746
vt 0.210673 0.187945
vt 0.238729 0.189829
vt 0.210673 0.183462
vt 0.210673 0.183660
vt 0.238729 0.183660
vt 0.238729 0.183462
vt 0.210673 0.183379
vt 0.201478 0.186900
vt 0.201478 0.186702
vt 0.238729 0.187909
vt 0.238729 0.188108
vt 0.201478 0.186982
vt 0.238729 0.188190
vt 0.201478 0.182761
vt 0.201478 0.182959
vt 0.238729 0.182959
vt 0.238729 0.182761
vt 0.201478 0.182678
vt 0.238729 0.182678
vt 0.175263 0.185072
vt 0.175263 0.184952
vt 0.198551 0.186327
vt 0.198550 0.186446
vt 0.175263 0.185121
vt 0.198550 0.186495
vt 0.175263 0.182675
vt 0.175263 0.182794
vt 0.198550 0.182794
vt 0.198550 0.182675
vt 0.175263 0.182626
vt 0.198550 0.182626
s 1
f 38/1/1 5/2/2 6/3/3 39/4/4
f 39/4/5 6/3/6 4/5/7 37/6/8
f 36/7/9 35/8/10 2/9/11 1/10/12
f 33/7/13 32/11/14 8/12/15 7/10/16
f 32/11/14 34/11/17 3/12/18 8/12/15
f 30/13/19 29/14/20 14/15/21 13/16/22
f 35/8/10 25/14/23 21/15/24 2/9/11
f 25/14/23 27/13/25 19/16/26 21/15/24
f 27/13/27 26/17/28 20/18/29 19/16/30
f 34/11/17 36/7/31 1/10/32 3/12/18
f 41/1/33 29/19/20 30/20/19 42/4/34
f 42/4/35 30/20/36 28/21/37 40/6/38
f 44/22/39 32/23/14 33/24/13 45/25/40
f 45/25/41 33/24/42 31/26/43 43/27/44
f 47/27/45 35/26/10 36/24/9 48/25/46
f 48/25/47 36/24/31 34/23/17 46/22/48
f 25/19/23 38/1/1 39/4/4 27/20/25
f 27/20/27 39/4/5 37/6/8 26/21/28
f 10/28/49 41/1/33 42/4/34 12/29/50
f 12/29/51 42/4/35 40/6/38 11/30/52
f 22/31/53 44/22/39 45/25/40 24/32/54
f 24/32/55 45/25/41 43/27/44 23/33/56
f 16/34/57 47/27/45 48/25/46 18/35/58
f 18/35/59 48/25/47 46/22/48 17/36/60
f 26/17/28 28/17/37 15/18/61 20/18/29
f 31/8/43 33/7/42 7/10/62 9/9/63
f 47/27/45 16/34/57 5/2/2 38/1/1
f 37/6/8 4/5/7 11/30/52 40/6/38
f 49/37/64 10/28/64 12/29/64 11/30/64
f 28/17/37 30/13/36 13/16/65 15/18/61
f 41/1/33 10/28/49 23/33/56 43/27/44
f 29/14/20 31/8/43 9/9/63 14/15/21
f 44/22/39 22/31/53 17/36/60 46/22/48
f 26/21/28 37/6/8 40/6/38 28/21/37
f 35/26/10 47/27/45 38/1/1 25/19/23
f 29/19/20 41/1/33 43/27/44 31/26/43
f 32/23/14 44/22/39 46/22/48 34/23/17
f 50/2/64 49/37/64 11/30/64 4/5/64
f 5/2/64 50/2/64 4/5/64 6/3/64
f 52/34/64 51/33/64 49/37/64 50/2/64
f 51/33/64 23/33/64 10/28/64 49/37/64
f 16/34/64 52/34/64 50/2/64 5/2/64
f 17/36/64 22/31/64 51/33/64 52/34/64
f 22/31/64 24/32/64 23/33/64 51/33/64
f 18/35/64 17/36/64 52/34/64 16/34/64
f 55/15/66 21/15/66 19/16/66 20/18/66
f 56/9/66 2/9/66 21/15/66 55/15/66
f 14/15/66 53/15/66 15/18/66 13/16/66
f 9/9/66 54/9/66 53/15/66 14/15/66
f 7/10/66 8/12/66 54/9/66 9/9/66
f 3/12/66 1/10/66 2/9/66 56/9/66
f 54/9/66 56/9/66 55/15/66 53/15/66
f 53/15/66 55/15/66 20/18/66 15/18/66
f 8/12/66 3/12/66 56/9/66 54/9/66
f 94/1/1 61/2/2 62/3/3 95/4/4
f 95/4/5 62/3/6 60/5/7 93/6/8
f 92/38/67 91/39/68 58/40/69 57/41/70
f 89/38/71 88/42/72 64/43/73 63/41/74
f 88/42/72 90/42/75 59/43/76 64/43/73
f 86/44/19 85/45/20 70/46/21 69/47/22
f 91/39/68 81/45/23 77/46/24 58/40/69
f 81/45/23 83/44/25 75/47/26 77/46/24
f 83/44/27 82/48/28 76/12/29 75/47/30
f 90/42/75 92/38/77 57/41/78 59/43/76
f 97/1/33 85/19/20 86/20/19 98/4/34
f 98/4/35 86/20/36 84/21/37 96/6/38
f 100/22/39 88/23/72 89/24/71 101/25/40
f 101/25/41 89/24/79 87/26/80 99/27/44
f 103/27/45 91/26/68 92/24/67 104/25/46
f 104/25/47 92/24/77 90/23/75 102/22/48
f 81/19/23 94/1/1 95/4/4 83/20/25
f 83/20/27 95/4/5 93/6/8 82/21/28
f 66/28/49 97/1/33 98/4/34 68/29/50
f 68/29/51 98/4/35 96/6/38 67/30/52
f 78/31/53 100/22/39 101/25/40 80/32/54
f 80/32/55 101/25/41 99/27/44 79/33/56
f 72/34/57 103/27/45 104/25/46 74/35/58
f 74/35/59 104/25/47 102/22/48 73/36/60
f 82/48/28 84/48/37 71/12/61 76/12/29
f 87/39/80 89/38/79 63/41/81 65/40/82
f 103/27/45 72/34/57 61/2/2 94/1/1
f 93/6/8 60/5/7 67/30/52 96/6/38
f 105/37/64 66/28/64 68/29/64 67/30/64
f 84/48/37 86/44/36 69/47/65 71/12/61
f 97/1/33 66/28/49 79/33/56 99/27/44
f 85/45/20 87/39/80 65/40/82 70/46/21
f 100/22/39 78/31/53 73/36/60 102/22/48
f 82/21/28 93/6/8 96/6/38 84/21/37
f 91/26/68 103/27/45 94/1/1 81/19/23
f 85/19/20 97/1/33 99/27/44 87/26/80
f 88/23/72 100/22/39 102/22/48 90/23/75
f 106/2/64 105/37/64 67/30/64 60/5/64
f 61/2/64 106/2/64 60/5/64 62/3/64
f 108/34/64 107/33/64 105/37/64 106/2/64
f 107/33/64 79/33/64 66/28/64 105/37/64
f 72/34/64 108/34/64 106/2/64 61/2/64
f 73/36/64 78/31/64 107/33/64 108/34/64
f 78/31/64 80/32/64 79/33/64 107/33/64
f 74/35/64 73/36/64 108/34/64 72/34/64
f 111/46/66 77/46/66 75/47/66 76/12/66
f 112/40/66 58/40/66 77/46/66 111/46/66
f 70/46/66 109/46/66 71/12/66 69/47/66
f 65/40/66 110/40/66 109/46/66 70/46/66
f 63/41/66 64/43/66 110/40/66 65/40/66
f 59/43/66 57/41/66 58/40/66 112/40/66
f 110/40/66 112/40/66 111/46/66 109/46/66
f 109/46/66 111/46/66 76/12/66 71/12/66
f 64/43/66 59/43/66 112/40/66 110/40/66
f 150/1/1 117/2/2 118/3/3 151/4/4
f 151/4/5 118/3/6 116/5/7 149/6/8
f 148/49/83 147/50/84 114/51/85 113/52/86
f 145/49/87 144/53/88 120/54/89 119/52/90
f 144/53/88 146/53/91 115/54/92 120/54/89
f 142/55/19 141/56/20 126/57/21 125/58/22
f 147/50/84 137/56/23 133/57/24 114/51/85
f 137/56/23 139/55/25 131/58/26 133/57/24
f 139/55/27 138/59/28 132/60/29 131/58/30
f 146/53/91 148/49/93 113/52/94 115/54/92
f 153/1/33 141/19/20 142/20/19 154/4/34
f 154/4/35 142/20/36 140/21/37 152/6/38
f 156/22/39 144/23/88 145/24/87 157/25/40
f 157/25/41 145/24/95 143/26/96 155/27/44
f 159/27/45 147/26/84 148/24/83 160/25/46
f 160/25/47 148/24/93 146/23/91 158/22/48
f 137/19/23 150/1/1 151/4/4 139/20/25
f 139/20/27 151/4/5 149/6/8 138/21/28
f 122/28/49 153/1/33 154/4/34 124/29/50
f 124/29/51 154/4/35 152/6/38 123/30/52
f 134/31/53 156/22/39 157/25/40 136/32/54
f 136/32/55 157/25/41 155/27/44 135/33/56
f 128/34/57 159/27/45 160/25/46 130/35/58
f 130/35/59 160/25/47 158/22/48 129/36/60
f 138/59/28 140/59/37 127/60/61 132/60/29
f 143/50/96 145/49/95 119/52/97 121/51/98
f 159/27/45 128/34/57 117/2/2 150/1/1
f 149/6/8 116/5/7 123/30/52 152/6/38
f 161/37/64 122/28/64 124/29/64 123/30/64
f 140/59/37 142/55/36 125/58/65 127/60/61
f 153/1/33 122/28/49 135/33/56 155/27/44
f 141/56/20 143/50/96 121/51/98 126/57/21
f 156/22/39 134/31/53 129/36/60 158/22/48
f 138/21/28 149/6/8 152/6/38 140/21/37
f 147/26/84 159/27/45 150/1/1 137/19/23
f 141/19/20 153/1/33 155/27/44 143/26/96
f 144/23/88 156/22/39 158/22/48 146/23/91
f 162/2/64 161/37/64 123/30/64 116/5/64
f 117/2/64 162/2/64 116/5/64 118/3/64
f 164/34/64 163/33/64 161/37/64 162/2/64
f 163/33/64 135/33/64 122/28/64 161/37/64
f 128/34/64 164/34/64 162/2/64 117/2/64
f 129/36/64 134/31/64 163/33/64 164/34/64
f 134/31/64 136/32/64 135/33/64 163/33/64
f 130/35/64 129/36/64 164/34/64 128/34/64
f 167/57/66 133/57/66 131/58/66 132/60/66
f 168/51/66 114/51/66 133/57/66 167/57/66
f 126/57/66 165/57/66 127/60/66 125/58/66
f 121/51/66 166/51/66 165/57/66 126/57/66
f 119/52/66 120/54/66 166/51/66 121/51/66
f 115/54/66 113/52/66 114/51/66 168/51/66
f 166/51/66 168/51/66 167/57/66 165/57/66
f 165/57/66 167/57/66 132/60/66 127/60/66
f 120/54/66 115/54/66 168/51/66 166/51/66
f 206/1/99 173/2/100 174/3/101 207/4/102
f 207/4/103 174/3/104 172/5/105 205/6/106
f 204/61/107 203/62/108 170/63/109 169/64/110
f 201/61/111 200/65/112 176/66/113 175/64/114
f 200/65/112 202/65/115 171/66/116 176/66/113
f 198/67/117 197/68/118 182/69/21 181/70/22
f 203/62/108 193/68/119 189/69/24 170/63/109
f 193/68/119 195/67/120 187/70/26 189/69/24
f 195/67/121 194/71/122 188/72/29 187/70/30
f 202/65/115 204/61/123 169/64/124 171/66/116
f 209/1/125 197/19/118 198/20/117 210/4/126
f 210/4/127 198/20/128 196/21/129 208/6/130
f 212/22/131 200/23/112 201/24/111 213/25/132
f 213/25/133 201/24/134 199/26/135 211/27/136
f 215/27/137 203/26/108 204/24/107 216/25/138
f 216/25/139 204/24/123 202/23/115 214/22/140
f 193/19/119 206/1/99 207/4/102 195/20/120
f 195/20/121 207/4/103 205/6/106 194/21/122
f 178/28/141 209/1/125 210/4/126 180/29/142
f 180/29/143 210/4/127 208/6/130 179/30/144
f 190/31/145 212/22/131 213/25/132 192/32/146
f 192/32/147 213/25/133 211/27/136 191/33/148
f 184/34/149 215/27/137 216/25/138 186/35/150
f 186/35/151 216/25/139 214/22/140 185/36/152
f 194/71/122 196/71/129 183/72/61 188/72/29
f 199/62/135 201/61/134 175/64/153 177/63/154
f 215/27/137 184/34/149 173/2/100 206/1/99
f 205/6/106 172/5/105 179/30/144 208/6/130
f 217/37/64 178/28/64 180/29/64 179/30/64
f 196/71/129 198/67/128 181/70/65 183/72/61
f 209/1/125 178/28/141 191/33/148 211/27/136
f 197/68/118 199/62/135 177/63/154 182/69/21
f 212/22/131 190/31/145 185/36/152 214/22/140
f 194/21/122 205/6/106 208/6/130 196/21/129
f 203/26/108 215/27/137 206/1/99 193/19/119
f 197/19/118 209/1/125 211/27/136 199/26/135
f 200/23/112 212/22/131 214/22/140 202/23/115
f 218/2/64 217/37/64 179/30/64 172/5/64
f 173/2/64 218/2/64 172/5/64 174/3/64
f 220/34/64 219/33/64 217/37/64 218/2/64
f 219/33/64 191/33/64 178/28/64 217/37/64
f 184/34/64 220/34/64 218/2/64 173/2/64
f 185/36/64 190/31/64 219/33/64 220/34/64
f 190/31/64 192/32/64 191/33/64 219/33/64
f 186/35/64 185/36/64 220/34/64 184/34/64
f 223/69/66 189/69/66 187/70/66 188/72/66
f 224/63/66 170/63/66 189/69/66 223/69/66
f 182/69/66 221/69/66 183/72/66 181/70/66
f 177/63/66 222/63/66 221/69/66 182/69/66
f 175/64/66 176/66/66 222/63/66 177/63/66
f 171/66/66 169/64/66 170/63/66 224/63/66
f 222/63/66 224/63/66 223/69/66 221/69/66
f 221/69/66 223/69/66 188/72/66 183/72/66
f 176/66/66 171/66/66 224/63/66 222/63/66
