# Blender 5.0.1
# www.blender.org
o GEO_PalmTree_B
v -10.253407 -0.051827 -22.146305
v -10.253407 -0.051827 -21.853695
v -10.000000 -0.051827 -21.707390
v -9.746593 -0.051827 -21.853695
v -9.746593 -0.051827 -22.146305
v -10.000000 -0.051827 -22.292610
v -10.209669 0.553380 -22.263596
v -10.209158 0.622522 -22.036253
v -10.003134 0.654115 -21.922138
v -9.797622 0.616566 -22.035366
v -9.798133 0.547424 -22.262711
v -10.004157 0.515832 -22.376825
v -10.130544 1.402447 -22.534719
v -10.130156 1.455505 -22.359955
v -9.972476 1.467844 -22.268614
v -9.815186 1.427125 -22.352037
v -9.815574 1.374067 -22.526802
v -9.973253 1.361727 -22.618143
v -9.946425 2.258817 -22.720579
v -9.952848 2.265203 -22.593243
v -9.851506 2.233164 -22.522533
v -9.743739 2.194739 -22.579161
v -9.737316 2.188353 -22.706497
v -9.838659 2.220392 -22.777206
v -9.585790 2.821102 -22.560553
v -9.613430 2.788654 -22.501690
v -9.585363 2.725841 -22.478271
v -9.529656 2.695475 -22.513716
v -9.502016 2.727923 -22.572578
v -9.530082 2.790736 -22.595997
v -9.591523 2.662397 -22.501736
v -9.641712 2.762775 -22.414804
v -9.678453 2.762775 -22.551924
v -9.627012 2.691797 -22.440266
v -9.670689 2.704822 -22.480522
v -9.688480 2.762775 -22.475756
v -9.652992 2.691797 -22.537224
v -9.641712 2.871779 -22.414804
v -9.591523 2.972157 -22.501736
v -9.678453 2.871779 -22.551924
v -9.627012 2.942757 -22.440266
v -9.670689 2.929732 -22.480522
v -9.652992 2.942757 -22.537224
v -9.688480 2.871779 -22.475756
v -9.537021 2.662397 -22.596136
v -9.623951 2.762775 -22.646324
v -9.486833 2.762775 -22.683065
v -9.598490 2.691797 -22.631624
v -9.558233 2.704822 -22.675301
v -9.563001 2.762775 -22.693092
v -9.501533 2.691797 -22.657604
v -9.537021 2.972157 -22.596136
v -9.486832 2.871779 -22.683065
v -9.623951 2.871779 -22.646324
v -9.501533 2.942757 -22.657604
v -9.558233 2.929732 -22.675301
v -9.563001 2.871779 -22.693092
v -9.598490 2.942757 -22.631624
v -9.497123 2.662397 -22.447233
v -9.410192 2.762775 -22.397043
v -9.547312 2.762775 -22.360304
v -9.435655 2.691797 -22.411743
v -9.475910 2.704822 -22.368067
v -9.471143 2.762775 -22.350275
v -9.532612 2.691797 -22.385765
v -9.497123 2.972157 -22.447233
v -9.547312 2.871779 -22.360304
v -9.410192 2.871779 -22.397043
v -9.532612 2.942757 -22.385765
v -9.475910 2.929732 -22.368067
v -9.471143 2.871779 -22.350275
v -9.435654 2.942757 -22.411743
v -9.442620 2.662397 -22.541634
v -9.392431 2.762775 -22.628563
v -9.355691 2.762775 -22.491444
v -9.407132 2.691797 -22.603102
v -9.363455 2.704822 -22.562845
v -9.345663 2.762775 -22.567614
v -9.381152 2.691797 -22.506144
v -9.442620 2.972157 -22.541634
v -9.355691 2.871779 -22.491444
v -9.392431 2.871779 -22.628563
v -9.381152 2.942757 -22.506144
v -9.363455 2.929732 -22.562845
v -9.345663 2.871779 -22.567614
v -9.407131 2.942757 -22.603102
v -9.822907 3.673213 -20.783264
v -9.230874 3.673595 -20.782940
v -9.984623 2.953087 -22.394066
v -9.068848 2.952923 -22.394306
v -9.526608 3.558206 -20.457367
v -9.526606 2.754626 -22.468012
v -9.799087 3.565160 -21.620241
v -9.857782 3.221783 -22.169374
v -9.927217 3.657958 -21.240797
v -10.018035 3.529133 -21.676418
v -10.072495 3.290051 -22.070671
v -9.671785 3.636049 -20.543131
v -9.748233 2.813395 -22.491177
v -9.305149 2.813354 -22.491205
v -9.381832 3.636086 -20.542931
v -9.704208 3.686536 -21.094677
v -9.191651 3.223720 -22.167391
v -9.248269 3.564770 -21.621395
v -9.342027 3.686841 -21.095747
v -9.526609 3.642870 -21.046673
v -9.526606 3.521350 -21.603058
v -9.526606 3.157216 -22.169436
v -9.080961 3.617786 -21.426371
v -9.757630 3.645261 -21.364702
v -9.300815 3.645614 -21.362667
v -9.526606 3.604640 -21.330803
v -9.008883 3.423761 -21.880962
v -9.834771 3.419101 -21.909264
v -9.224868 3.418628 -21.909958
v -9.526606 3.366893 -21.903641
v -9.163366 3.667349 -21.157524
v -9.187873 3.674670 -21.062752
v -9.029344 3.516297 -21.698107
v -9.049458 3.551593 -21.610022
v -9.000565 3.262432 -22.098122
v -8.987890 3.323196 -22.023790
v -9.933204 3.624519 -21.381269
v -9.960158 3.603317 -21.469751
v -10.037241 3.444046 -21.837324
v -10.048102 3.395119 -21.919014
v -9.826015 3.578091 -20.787664
v -9.225903 3.578897 -20.789488
v -9.985627 2.894704 -22.322687
v -9.067377 2.894934 -22.322546
v -9.526608 3.470500 -20.478987
v -9.526606 2.704034 -22.386852
v -9.810055 3.452513 -21.574224
v -9.867199 3.133150 -22.085825
v -9.929049 3.561837 -21.226812
v -10.019393 3.440585 -21.636627
v -10.074164 3.215950 -22.010105
v -9.693572 3.545760 -20.557642
v -9.759464 2.758869 -22.415222
v -9.293618 2.758919 -22.415199
v -9.359418 3.545880 -20.557810
v -9.721430 3.565826 -21.087263
v -9.180492 3.135958 -22.084240
v -9.235405 3.453355 -21.576038
v -9.320225 3.569179 -21.087692
v -9.526608 3.520807 -21.041836
v -9.526606 3.408518 -21.556194
v -9.526606 3.069389 -22.084503
v -9.079777 3.523935 -21.400156
v -9.772749 3.528455 -21.336931
v -9.288189 3.527436 -21.334345
v -9.526606 3.485760 -21.302608
v -9.007330 3.339819 -21.829405
v -9.847038 3.317652 -21.844858
v -9.214485 3.315735 -21.844902
v -9.526606 3.264441 -21.837070
v -9.162839 3.576253 -21.143820
v -9.185222 3.586064 -21.059509
v -9.028526 3.434466 -21.658346
v -9.049132 3.469445 -21.579597
v -8.998639 3.197625 -22.041395
v -8.986951 3.249538 -21.969522
v -9.933495 3.539065 -21.362516
v -9.960974 3.515041 -21.440865
v -10.037906 3.365405 -21.794573
v -10.048726 3.321253 -21.868591
v -9.612277 3.655769 -24.133802
v -10.175697 3.612208 -24.042488
v -9.179216 3.035767 -22.739634
v -10.053040 2.970038 -22.598324
v -9.934470 3.571897 -24.382393
v -9.589405 2.845945 -22.576738
v -9.508228 3.524035 -23.407566
v -9.351900 3.243727 -22.932915
v -9.288526 3.509191 -23.389711
v -9.165719 3.314896 -23.053902
v -9.785610 3.633078 -24.320795
v -9.379737 2.906537 -22.607399
v -9.804590 2.874580 -22.538694
v -10.065288 3.612009 -24.276285
v -9.582436 3.637161 -23.819769
v -10.206600 3.566128 -23.630074
v -10.204710 3.236759 -22.885668
v -9.981739 3.196304 -22.831022
v -10.032014 3.483767 -23.320686
v -10.017612 3.611537 -23.789919
v -9.851679 3.588255 -23.861761
v -9.765718 3.465942 -23.381191
v -9.662152 3.163393 -22.878935
v -10.219939 3.404824 -23.169058
v -10.216080 3.461566 -23.303356
v -9.498298 3.639061 -23.867771
v -9.418432 3.609012 -23.691586
v -9.601044 3.580141 -24.137760
v -10.173429 3.535809 -24.045544
v -9.182787 2.983818 -22.792187
v -10.058588 2.917941 -22.650558
v -9.930980 3.500398 -24.375195
v -9.595167 2.797108 -22.635084
v -9.494367 3.435320 -23.446877
v -9.345686 3.167927 -22.994579
v -9.285591 3.438747 -23.423420
v -9.165432 3.251957 -23.097847
v -9.761295 3.560995 -24.321972
v -9.374635 2.857099 -22.664143
v -9.819957 2.823602 -22.592129
v -10.080612 3.537531 -24.269850
v -9.559229 3.550311 -23.838047
v -10.206513 3.489526 -23.647448
v -10.209932 3.173580 -22.928988
v -9.996188 3.119043 -22.889423
v -10.047482 3.395003 -23.354204
v -10.029610 3.514787 -23.801777
v -9.849217 3.491401 -23.874765
v -9.765942 3.375943 -23.419319
v -9.666138 3.086620 -22.939291
v -10.223271 3.339274 -23.203375
v -10.216479 3.395827 -23.327959
v -9.490780 3.568573 -23.878464
v -9.414119 3.536040 -23.712828
v -10.944888 2.119794 -23.667126
v -11.256653 2.240818 -23.202286
v -9.382029 2.667432 -22.961466
v -9.870197 2.856931 -22.233227
v -11.338853 1.923484 -23.527048
v -9.466895 2.705570 -22.475731
v -10.249063 2.515356 -23.292952
v -9.725647 2.656650 -23.043970
v -10.529828 2.322688 -23.568680
v -9.712120 2.584251 -23.267181
v -11.209553 2.015332 -23.632757
v -9.372998 2.727636 -22.686291
v -9.609657 2.819425 -22.333286
v -11.358274 2.073144 -23.410748
v -10.740528 2.319126 -23.448471
v -10.637048 2.678945 -22.661259
v -10.171715 2.778785 -22.551741
v -10.580382 2.618227 -22.864426
v -10.912707 2.416891 -23.127813
v -10.849339 2.282023 -23.292358
v -10.425821 2.497108 -23.064314
v -9.869758 2.667855 -22.736044
v -10.190490 2.450011 -23.463894
v -10.037265 2.499686 -23.409130
v -10.893343 2.527312 -22.883554
v -11.023457 2.428946 -23.005590
v -10.215271 2.820694 -22.370361
v -10.359401 2.787431 -22.450304
v -10.928701 2.054489 -23.641712
v -11.242758 2.176632 -23.173151
v -9.384688 2.597165 -22.945858
v -9.873963 2.787054 -22.216141
v -11.320736 1.864752 -23.500351
v -9.473123 2.633898 -22.461317
v -10.233990 2.430668 -23.278748
v -9.720263 2.567916 -23.029716
v -10.518303 2.253773 -23.544252
v -9.710279 2.512762 -23.248487
v -11.180088 1.951519 -23.626463
v -9.369309 2.655287 -22.681496
v -9.620535 2.752698 -22.306768
v -11.355170 2.019194 -23.365295
v -10.717157 2.235736 -23.431120
v -10.631607 2.608340 -22.638212
v -10.177662 2.698157 -22.518843
v -10.578928 2.536796 -22.827747
v -10.909492 2.343860 -23.082727
v -10.834488 2.200714 -23.261404
v -10.418363 2.412195 -23.037432
v -9.869864 2.580717 -22.713408
v -10.183032 2.384893 -23.442728
v -10.032442 2.431608 -23.389427
v -10.884582 2.460711 -22.859207
v -11.012202 2.366943 -22.980570
v -10.216027 2.753172 -22.352375
v -10.357271 2.719829 -22.430384
v -7.819882 3.212427 -22.556244
v -7.923518 3.237758 -23.086523
v -9.337424 2.936006 -22.128086
v -9.495016 2.977214 -22.939978
v -7.596272 3.087292 -22.878815
v -9.550482 2.823271 -22.514738
v -8.563047 3.269320 -22.442524
v -9.096101 3.108389 -22.293335
v -8.580174 3.238582 -22.230764
v -8.956642 3.127226 -22.113607
v -7.642355 3.154713 -22.728958
v -9.503773 2.859012 -22.318090
v -9.579865 2.878909 -22.710114
v -7.693097 3.167989 -22.995192
v -8.134043 3.277465 -22.518454
v -8.335863 3.303087 -23.095493
v -9.143841 3.176200 -23.076496
v -9.206268 3.137126 -22.860533
v -8.658275 3.292961 -22.915815
v -8.168206 3.294139 -22.915812
v -8.105137 3.240744 -22.772446
v -8.603403 3.239913 -22.676943
v -9.168742 3.068736 -22.576376
v -8.821171 3.267381 -23.094311
v -8.687243 3.284329 -23.092115
v -8.088995 3.255985 -22.436886
v -8.259762 3.266538 -22.358723
v -7.839082 3.118215 -22.549091
v -7.944279 3.143804 -23.091223
v -9.291307 2.856455 -22.139719
v -9.449405 2.897795 -22.954216
v -7.627781 3.003329 -22.880610
v -9.495761 2.745686 -22.529299
v -8.543520 3.143598 -22.436243
v -9.044398 2.992085 -22.296616
v -8.561781 3.141677 -22.235155
v -8.924011 3.036480 -22.121017
v -7.663836 3.064555 -22.707726
v -9.451735 2.780047 -22.320213
v -9.532300 2.801115 -22.735279
v -7.724570 3.081210 -23.018467
v -8.140209 3.161224 -22.499344
v -8.339639 3.204177 -23.103584
v -9.112181 3.085968 -23.091162
v -9.159233 3.022182 -22.888596
v -8.646326 3.172411 -22.944601
v -8.186036 3.170142 -22.939537
v -8.121559 3.114750 -22.778933
v -8.585806 3.114378 -22.687691
v -9.119165 2.952610 -22.591894
v -8.800715 3.177681 -23.106434
v -8.679201 3.197882 -23.099876
v -8.098793 3.167227 -22.434252
v -8.257286 3.170806 -22.361063
v -11.201101 2.566744 -21.729553
v -10.927891 2.723885 -21.228388
v -9.789035 2.816506 -22.770279
v -9.365489 3.059371 -21.995508
v -11.209560 2.377705 -21.315523
v -9.410484 2.819182 -22.436621
v -10.576166 2.937870 -22.159084
v -10.038089 2.943821 -22.524239
v -10.939829 2.773528 -22.060352
v -10.619012 2.881287 -22.376696
v -10.242829 2.888246 -22.648724
v -11.266756 2.447665 -21.477776
v -9.532747 2.819873 -22.631968
v -9.327901 2.937365 -22.257057
v -11.132887 2.524484 -21.232315
v -10.949718 2.776747 -21.792410
v -9.732646 3.120960 -21.959381
v -10.320578 3.084258 -21.693632
v -10.781790 2.873619 -21.486483
v -10.873117 2.763062 -21.620081
v -10.435389 2.965847 -21.922739
v -9.846486 2.980067 -22.248882
v -10.402888 3.065880 -21.445189
v -10.772524 2.875146 -21.983175
v -10.562922 2.995479 -21.595526
v -10.663784 2.885667 -21.772850
v -9.955459 3.174943 -21.638596
v -10.315843 2.967447 -22.352728
v -10.033195 3.129191 -21.837040
v -10.145974 3.004405 -22.092915
v -10.647032 2.938722 -21.369360
v -10.724945 2.886985 -21.339544
v -10.140127 3.144922 -21.552492
v -10.228296 3.120319 -21.520391
v -9.712875 3.165244 -21.758236
v -9.792039 3.177111 -21.703733
v -10.830438 2.820933 -22.142038
v -10.772165 2.844532 -22.213120
v -10.471529 2.894912 -22.484226
v -10.393753 2.896955 -22.540186
v -11.142948 2.492250 -21.741642
v -10.864847 2.653029 -21.234743
v -9.801563 2.731089 -22.737850
v -9.377358 2.974720 -21.960756
v -11.143087 2.319245 -21.333511
v -9.433615 2.734986 -22.397598
v -10.544304 2.820103 -22.152542
v -10.044463 2.825430 -22.494778
v -10.892564 2.688662 -22.061737
v -10.592984 2.788689 -22.363497
v -10.239197 2.795916 -22.623745
v -11.213480 2.377531 -21.510643
v -9.555305 2.732361 -22.605492
v -9.340026 2.855933 -22.211287
v -11.058989 2.466335 -21.227968
v -10.890596 2.671686 -21.812132
v -9.729768 3.008938 -21.912655
v -10.277999 2.974153 -21.667179
v -10.706867 2.780998 -21.472614
v -10.803536 2.662875 -21.626688
v -10.398901 2.850384 -21.906483
v -9.849896 2.864073 -22.210665
v -10.363611 2.977036 -21.437399
v -10.728122 2.762789 -21.990082
v -10.505238 2.889087 -21.578770
v -10.611434 2.775434 -21.766897
v -9.938557 3.080458 -21.616381
v -10.303328 2.848374 -22.336742
v -10.009777 3.014620 -21.801655
v -10.128613 2.886619 -22.065483
v -10.601486 2.858650 -21.368519
v -10.673034 2.815107 -21.342241
v -10.117078 3.058286 -21.536964
v -10.199155 3.038334 -21.510229
v -9.710600 3.083367 -21.731543
v -9.783329 3.089223 -21.679836
v -10.791947 2.742433 -22.138803
v -10.738890 2.758175 -22.205194
v -10.453030 2.808822 -22.468136
v -10.383117 2.810558 -22.519655
v -9.128118 2.105059 -20.992498
v -8.653534 2.090326 -21.234287
v -9.875414 2.859926 -22.181890
v -9.141741 2.837248 -22.556740
v -8.853686 1.802410 -21.023270
v -9.592583 2.792048 -22.530680
v -9.340207 2.640966 -21.487644
v -9.630847 2.844564 -21.953074
v -9.323288 2.425023 -21.187681
v -9.540869 2.666592 -21.448711
v -9.756893 2.817168 -21.773157
v -8.963701 1.909891 -20.957827
v -9.755725 2.846369 -22.414698
v -9.400716 2.835356 -22.595995
v -8.731311 1.902564 -21.076319
v -9.100961 2.331160 -21.188074
v -9.095981 2.827662 -22.223370
v -8.899252 2.627883 -21.713793
v -8.810902 2.323089 -21.336576
v -8.962221 2.268554 -21.264174
v -9.132660 2.597866 -21.618027
v -9.387284 2.800868 -22.129097
v -8.701934 2.514026 -21.651665
v -9.220513 2.502046 -21.326845
v -8.853887 2.489437 -21.512482
v -9.041219 2.449828 -21.429926
v -8.815403 2.729197 -22.029707
v -9.485320 2.767310 -21.708899
v -8.996943 2.752387 -21.959040
v -9.254703 2.726936 -21.864916
v -8.688695 2.351915 -21.452717
v -8.683812 2.289071 -21.390812
v -8.758035 2.650404 -21.872042
v -8.741751 2.607598 -21.797716
v -8.913692 2.794883 -22.242689
v -8.865741 2.775062 -22.172659
v -9.372047 2.506798 -21.276300
v -9.421384 2.558805 -21.322725
v -9.622400 2.734840 -21.574526
v -9.666615 2.766365 -21.641541
v -9.163725 2.055956 -21.053110
v -8.683025 2.042784 -21.299007
v -9.879311 2.777022 -22.182499
v -9.143434 2.754227 -22.557924
v -8.888309 1.769569 -21.089088
v -9.590771 2.706439 -22.521929
v -9.376297 2.546525 -21.530880
v -9.648860 2.736568 -21.963150
v -9.353933 2.362249 -21.240267
v -9.562576 2.589597 -21.483864
v -9.769143 2.733335 -21.788750
v -9.014998 1.871110 -21.012810
v -9.765452 2.762583 -22.406420
v -9.392161 2.751016 -22.596947
v -8.747249 1.862990 -21.149513
v -9.153763 2.259925 -21.253071
v -9.097306 2.719918 -22.241516
v -8.915985 2.533998 -21.766335
v -8.831258 2.252103 -21.415306
v -9.002279 2.197981 -21.338350
v -9.159827 2.502448 -21.665443
v -9.397159 2.692097 -22.141829
v -8.726552 2.443719 -21.697958
v -9.265576 2.418410 -21.380095
v -8.877055 2.403966 -21.577669
v -9.074770 2.364376 -21.490452
v -8.830486 2.646286 -22.057289
v -9.514395 2.665967 -21.735401
v -9.008205 2.649223 -21.995392
v -9.273783 2.623196 -21.895987
v -8.715819 2.292045 -21.503254
v -8.710830 2.237968 -21.445877
v -8.775740 2.577071 -21.903883
v -8.762129 2.540751 -21.834215
v -8.920818 2.718806 -22.255836
v -8.877215 2.695892 -22.192184
v -9.396749 2.446457 -21.320444
v -9.445102 2.489712 -21.363369
v -9.639521 2.661169 -21.602268
v -9.680307 2.689857 -21.662476
v -8.331937 2.044144 -23.800869
v -8.801230 2.057893 -24.128731
v -9.114809 2.796738 -22.365215
v -9.850023 2.818226 -22.878588
v -8.445108 1.765327 -24.151329
v -9.600434 2.769241 -22.454704
v -8.755311 2.521491 -23.189692
v -9.025887 2.731091 -22.701044
v -8.457073 2.309176 -23.430424
v -8.796827 2.685380 -22.674778
v -8.351271 1.889679 -24.041510
v -9.394728 2.829439 -22.366949
v -9.751108 2.839784 -22.615812
v -8.575411 1.896289 -24.197924
v -8.572776 2.254636 -23.636568
v -9.393570 2.545910 -23.600006
v -9.520289 2.718360 -23.161030
v -9.186341 2.517556 -23.533476
v -8.898650 2.285999 -23.823242
v -8.722563 2.182490 -23.736300
v -8.977992 2.447899 -23.359541
v -9.330935 2.684304 -22.844114
v -8.579712 2.485708 -23.120363
v -8.641719 2.557026 -22.978893
v -9.152994 2.372826 -23.824194
v -9.019591 2.264978 -23.934059
v -9.704187 2.732951 -23.211237
v -9.618920 2.681902 -23.346861
v -8.350979 1.980721 -23.772806
v -8.824048 1.994766 -24.103119
v -9.123284 2.725976 -22.354771
v -9.859990 2.747492 -22.869299
v -8.466116 1.708558 -24.122583
v -9.607521 2.696568 -22.447508
v -8.761250 2.440048 -23.159149
v -9.031309 2.643899 -22.679274
v -8.474697 2.241464 -23.406273
v -8.808329 2.613943 -22.659678
v -8.351663 1.832100 -24.000713
v -9.392347 2.758907 -22.349903
v -9.770652 2.769862 -22.614077
v -8.615302 1.839526 -24.184782
v -8.582114 2.175675 -23.598108
v -9.409549 2.475561 -23.581524
v -9.544880 2.635115 -23.151859
v -9.214735 2.434510 -23.516876
v -8.936275 2.210640 -23.806454
v -8.745499 2.102615 -23.706570
v -8.996393 2.363548 -23.336416
v -9.344765 2.596811 -22.828016
v -8.594401 2.421287 -23.100920
v -8.654613 2.489372 -22.961494
v -9.170721 2.306874 -23.803188
v -9.038488 2.203913 -23.911457
v -9.715336 2.664983 -23.199425
v -9.632033 2.614194 -23.332195
vn -0.8945 -0.0245 -0.4465
vn -0.8732 -0.0528 -0.4845
vn -0.0074 -0.2091 -0.9779
vn 0.0020 -0.1467 -0.9892
vn -0.8236 0.1976 0.5316
vn -0.8530 0.2223 0.4721
vn 0.0023 0.2948 0.9555
vn -0.0025 0.3428 0.9394
vn 0.8245 0.2060 0.5271
vn 0.8534 0.2002 0.4813
vn 0.8944 -0.0134 -0.4470
vn 0.8709 -0.0777 -0.4852
vn -0.8543 -0.0090 -0.5197
vn -0.0146 -0.2281 -0.9735
vn -0.8632 0.2782 0.4213
vn -0.0073 0.3544 0.9351
vn 0.8679 0.1324 0.4788
vn 0.8559 -0.1640 -0.4904
vn -0.7557 0.3127 -0.5754
vn 0.0242 0.0354 -0.9991
vn -0.8492 0.3794 0.3674
vn -0.0746 0.1492 0.9860
vn 0.8328 -0.1685 0.5273
vn 0.8293 -0.2147 -0.5160
vn -0.6020 0.5498 -0.5790
vn 0.0435 0.2820 -0.9584
vn -0.8239 0.4888 0.2868
vn -0.1478 -0.0141 0.9889
vn 0.7541 -0.3988 0.5217
vn 0.7968 -0.2030 -0.5692
vn -0.2450 -0.9673 0.0657
vn -0.4977 -0.6965 0.5169
vn -0.7887 -0.5773 0.2113
vn -0.6895 -0.6965 -0.1988
vn -0.6390 -0.1794 0.7480
vn -0.9514 -0.1726 0.2549
vn -0.9274 -0.1794 -0.3283
vn -0.6390 0.1794 0.7480
vn -0.4977 0.6965 0.5169
vn -0.7887 0.5773 0.2113
vn -0.9514 0.1726 0.2549
vn -0.2450 0.9673 0.0657
vn -0.6895 0.6965 -0.1988
vn -0.9274 0.1794 -0.3283
vn -0.0657 -0.9673 -0.2450
vn -0.5169 -0.6965 -0.4977
vn -0.2113 -0.5773 -0.7887
vn 0.1988 -0.6965 -0.6895
vn -0.7480 -0.1794 -0.6390
vn -0.2549 -0.1726 -0.9514
vn 0.3283 -0.1794 -0.9274
vn -0.0657 0.9673 -0.2450
vn 0.1988 0.6965 -0.6895
vn -0.2113 0.5773 -0.7887
vn -0.5169 0.6965 -0.4977
vn 0.3283 0.1794 -0.9274
vn -0.2549 0.1726 -0.9514
vn -0.7480 0.1794 -0.6390
vn 0.0657 -0.9673 0.2450
vn 0.5169 -0.6965 0.4977
vn 0.2113 -0.5773 0.7887
vn -0.1988 -0.6965 0.6895
vn 0.7480 -0.1794 0.6390
vn 0.2549 -0.1726 0.9514
vn -0.3283 -0.1794 0.9274
vn 0.0657 0.9673 0.2450
vn -0.1988 0.6965 0.6895
vn 0.2113 0.5773 0.7887
vn 0.5169 0.6965 0.4977
vn -0.3283 0.1794 0.9274
vn 0.2549 0.1726 0.9514
vn 0.7480 0.1794 0.6390
vn 0.2450 -0.9673 -0.0657
vn 0.4977 -0.6965 -0.5169
vn 0.7887 -0.5773 -0.2113
vn 0.6895 -0.6965 0.1988
vn 0.6390 -0.1794 -0.7480
vn 0.9514 -0.1726 -0.2549
vn 0.9274 -0.1794 0.3283
vn 0.2450 0.9673 -0.0657
vn 0.6895 0.6965 0.1988
vn 0.7887 0.5774 -0.2113
vn 0.4977 0.6965 -0.5169
vn 0.9274 0.1794 0.3283
vn 0.9514 0.1726 -0.2549
vn 0.6390 0.1794 -0.7480
vn -0.2611 0.9607 0.0939
vn -0.1455 0.9883 -0.0461
vn -0.2777 0.9606 -0.0070
vn -0.3085 0.9458 0.1014
vn -0.0587 0.8450 -0.5316
vn -0.0589 0.7098 -0.7019
vn -0.1599 0.6930 -0.7030
vn -0.1561 0.8283 -0.5382
vn 0.2108 0.9506 -0.2279
vn 0.1756 0.9076 -0.3813
vn 0.0595 0.9247 -0.3761
vn 0.0827 0.9689 -0.2331
vn 0.0539 0.7126 -0.6995
vn 0.1138 0.6259 -0.7715
vn -0.0303 0.6496 -0.7597
vn -0.0363 0.7626 -0.6459
vn 0.1603 0.6936 -0.7022
vn 0.1690 0.6131 -0.7717
vn -0.0722 0.9711 -0.2273
vn -0.0661 0.9235 -0.3779
vn -0.1755 0.9076 -0.3813
vn -0.2102 0.9508 -0.2275
vn -0.1145 0.6260 -0.7714
vn -0.1675 0.6139 -0.7714
vn 0.3128 0.9442 0.1030
vn 0.2806 0.9598 -0.0076
vn 0.1261 0.9912 -0.0399
vn 0.2529 0.9632 0.0913
vn 0.1554 0.8282 -0.5385
vn 0.0642 0.8438 -0.5328
vn -0.0424 0.9921 -0.1181
vn -0.0152 0.9992 0.0369
vn -0.0437 0.9974 0.0577
vn 0.0695 0.9861 -0.1511
vn 0.0598 0.9648 -0.2560
vn 0.0549 0.9506 -0.3055
vn 0.0398 0.8929 -0.4484
vn 0.0408 0.8531 -0.5201
vn 0.0251 0.6487 -0.7606
vn 0.0415 0.8065 -0.5898
vn -0.0517 0.9838 -0.1716
vn -0.0470 0.9139 -0.4032
vn -0.0594 0.9506 -0.3046
vn -0.0404 0.8908 -0.4527
vn -0.0388 0.8075 -0.5886
vn 0.2747 -0.9603 -0.0477
vn 0.2979 -0.9531 -0.0535
vn 0.2668 -0.9630 0.0395
vn 0.1985 -0.9772 0.0747
vn 0.1208 -0.8369 0.5339
vn 0.1538 -0.8288 0.5380
vn 0.1614 -0.7142 0.6810
vn 0.1207 -0.7250 0.6781
vn -0.2034 -0.9521 0.2283
vn -0.1468 -0.9606 0.2360
vn -0.1290 -0.9138 0.3852
vn -0.1724 -0.9084 0.3810
vn -0.1121 -0.7256 0.6789
vn -0.0820 -0.7586 0.6464
vn -0.0654 -0.6867 0.7240
vn -0.1431 -0.6642 0.7337
vn -0.1615 -0.7141 0.6812
vn -0.1734 -0.6541 0.7363
vn 0.1409 -0.9601 0.2414
vn 0.2042 -0.9518 0.2288
vn 0.1720 -0.9084 0.3810
vn 0.1290 -0.9157 0.3807
vn 0.1729 -0.6543 0.7362
vn 0.1492 -0.6619 0.7346
vn -0.2984 -0.9529 -0.0538
vn -0.2604 -0.9646 -0.0421
vn -0.1762 -0.9823 0.0630
vn -0.2663 -0.9631 0.0383
vn -0.1537 -0.8288 0.5381
vn -0.1243 -0.8360 0.5345
vn -0.0923 -0.9957 0.0085
vn -0.0925 -0.9876 0.1266
vn 0.1674 -0.9857 -0.0208
vn 0.0817 -0.9587 0.2724
vn 0.0763 -0.9768 0.2001
vn 0.0841 -0.9483 0.3062
vn 0.0870 -0.8437 0.5296
vn 0.0871 -0.8775 0.4716
vn 0.0872 -0.6794 0.7286
vn 0.0864 -0.8058 0.5859
vn -0.0923 -0.9817 0.1666
vn -0.0841 -0.9354 0.3434
vn -0.0902 -0.9063 0.4130
vn -0.0932 -0.8892 0.4479
vn -0.0894 -0.7887 0.6083
vn -0.9997 -0.0146 -0.0196
vn -0.9818 -0.1238 -0.1442
vn -0.9996 -0.0183 -0.0237
vn 0.9370 0.0530 0.3452
vn 0.7019 -0.0236 0.7119
vn 0.7031 -0.0230 0.7107
vn 0.9379 0.0529 0.3428
vn -0.3759 -0.7404 -0.5572
vn -0.1413 -0.8181 -0.5575
vn -0.3719 -0.7422 -0.5575
vn -0.5841 -0.6201 -0.5237
vn -0.5055 -0.1118 0.8556
vn -0.7027 -0.0256 0.7110
vn -0.7026 -0.0257 0.7112
vn 0.1414 -0.8183 -0.5572
vn 0.3755 -0.7409 -0.5569
vn 0.3724 -0.7423 -0.5571
vn 0.5057 -0.1118 0.8554
vn -0.9243 0.0494 0.3786
vn -0.9913 0.0272 0.1292
vn -0.9909 0.0275 0.1319
vn -0.9249 0.0492 0.3769
vn 0.5841 -0.6204 -0.5234
vn 0.6442 -0.4672 -0.6055
vn -0.3742 0.6091 0.6993
vn -0.0940 0.5503 0.8297
vn 0.2074 -0.0290 -0.9778
vn 0.0217 -0.3632 -0.9315
vn -0.4836 0.2678 0.8333
vn 0.9878 0.0384 0.1509
vn -0.3399 -0.4627 -0.8187
vn 0.9736 0.0639 0.2190
vn 0.9552 0.0708 0.2872
vn 0.9734 0.0640 0.2200
vn 0.9870 0.0568 0.1501
vn 0.3325 0.1329 0.9337
vn 0.9936 0.0695 0.0887
vn 0.9945 0.0609 0.0848
vn 0.9936 0.0694 0.0887
vn 0.3756 0.3957 0.8381
vn 0.9868 -0.1032 -0.1247
vn 0.9927 0.0779 0.0926
vn -0.9993 0.0178 0.0341
vn -0.9651 0.1051 0.2401
vn -0.9830 0.0808 0.1651
vn -0.9828 0.0811 0.1660
vn 0.1278 -0.2316 -0.9644
vn -0.9944 0.0562 0.0894
vn -0.9905 0.0921 0.1023
vn 0.0375 0.8192 0.5723
vn 0.0348 0.7112 0.7022
vn 0.1468 0.7104 0.6884
vn 0.0998 0.7849 0.6116
vn 0.1332 0.9909 -0.0211
vn 0.0569 0.9906 0.1247
vn 0.1784 0.9806 0.0814
vn 0.1860 0.9818 -0.0396
vn 0.0817 0.9249 0.3713
vn 0.1798 0.7837 0.5946
vn 0.1657 0.9161 0.3652
vn -0.2409 0.9590 0.1495
vn -0.1652 0.8959 0.4125
vn -0.0836 0.9140 0.3969
vn -0.1674 0.9697 0.1779
vn -0.0141 0.7773 0.6290
vn -0.0254 0.6974 0.7162
vn 0.0840 0.7149 0.6941
vn 0.0327 0.8219 0.5687
vn -0.0972 0.7625 0.6396
vn -0.0689 0.6880 0.7224
vn 0.1908 0.7075 0.6805
vn -0.2671 0.9621 0.0555
vn -0.2486 0.9669 0.0578
vn 0.0046 0.9032 0.4292
vn -0.0805 0.9953 0.0531
vn -0.0516 0.9735 0.2227
vn 0.0384 0.8623 0.5049
vn -0.0415 0.9594 0.2788
vn -0.0016 0.9582 0.2862
vn -0.1329 0.9886 0.0712
vn -0.1288 -0.8241 -0.5515
vn -0.1427 -0.7990 -0.5842
vn -0.1632 -0.7437 -0.6483
vn -0.1038 -0.7473 -0.6563
vn -0.1505 -0.9884 -0.0212
vn -0.1840 -0.9829 -0.0070
vn -0.1743 -0.9786 -0.1093
vn -0.1023 -0.9849 -0.1395
vn -0.1318 -0.9211 -0.3665
vn -0.1630 -0.9165 -0.3653
vn -0.1768 -0.7995 -0.5740
vn 0.2416 -0.9539 -0.1783
vn 0.2142 -0.9543 -0.2086
vn 0.1319 -0.9014 -0.4124
vn 0.1646 -0.8947 -0.4152
vn 0.0635 -0.7857 -0.6153
vn 0.0569 -0.8167 -0.5742
vn 0.0004 -0.7396 -0.6731
vn 0.0584 -0.7270 -0.6841
vn 0.1018 -0.7790 -0.6187
vn 0.0812 -0.7214 -0.6878
vn -0.1866 -0.7415 -0.6445
vn 0.2681 -0.9586 -0.0965
vn 0.2642 -0.9592 -0.1008
vn 0.0921 -0.8853 -0.4558
vn -0.0115 -0.9968 -0.0792
vn -0.0580 -0.9730 -0.2234
vn -0.1399 -0.8553 -0.4988
vn -0.0730 -0.9601 -0.2699
vn 0.1072 -0.9401 -0.3237
vn 0.2386 -0.9625 -0.1291
vn 0.9902 0.0670 -0.1225
vn 0.9991 -0.0404 0.0141
vn 0.9907 0.0648 -0.1197
vn -0.9686 0.0333 -0.2465
vn -0.7770 0.0208 -0.6291
vn -0.7929 0.0258 -0.6088
vn -0.9693 0.0327 -0.2438
vn 0.4924 -0.6502 0.5786
vn 0.2903 -0.7285 0.6204
vn 0.5040 -0.6444 0.5751
vn 0.6809 -0.5321 0.5032
vn 0.3307 0.0245 -0.9434
vn 0.5383 0.1123 -0.8352
vn 0.5483 0.1167 -0.8281
vn 0.0283 -0.7482 0.6628
vn -0.1859 -0.7012 0.6883
vn -0.1987 -0.6972 0.6888
vn -0.6062 -0.0251 -0.7949
vn 0.9386 0.1742 -0.2979
vn 0.9384 0.1742 -0.2984
vn 0.6306 0.2869 -0.7212
vn 0.7978 0.2409 -0.5526
vn 0.8003 0.2400 -0.5495
vn 0.8262 0.1786 -0.5343
vn 0.8285 0.1781 -0.5309
vn -0.9271 -0.1841 0.3266
vn -0.9771 -0.0786 0.1976
vn -0.9761 -0.0816 0.2014
vn -0.4036 -0.6137 0.6786
vn 0.1357 -0.3610 0.9226
vn -0.9986 0.0028 -0.0529
vn -0.9986 0.0026 -0.0535
vn 0.5064 -0.0595 0.8603
vn -0.6714 0.3652 -0.6448
vn -0.9974 0.0261 0.0667
vn -0.9996 0.0101 -0.0270
vn 0.9116 0.1552 -0.3808
vn -0.1486 0.7129 -0.6854
vn -0.1681 0.8107 -0.5609
vn -0.0899 0.7305 -0.6770
vn -0.1114 0.6815 -0.7233
vn -0.1070 0.8883 -0.4465
vn 0.0115 0.9240 -0.3823
vn 0.0970 0.8867 -0.4520
vn -0.0137 0.8377 -0.5460
vn -0.4653 0.8789 -0.1046
vn -0.2961 0.9467 -0.1266
vn -0.2331 0.9439 -0.2340
vn -0.3757 0.8857 -0.2727
vn -0.0864 0.9779 -0.1904
vn -0.0759 0.9925 -0.0953
vn 0.0313 0.9660 -0.2567
vn -0.0642 0.9524 -0.2980
vn -0.1634 0.9839 -0.0719
vn -0.1162 0.9927 -0.0325
vn 0.1045 0.9196 -0.3786
vn 0.1388 0.8940 -0.4261
vn -0.5423 0.8362 -0.0813
vn -0.5120 0.8462 -0.1477
vn -0.2534 0.8763 -0.4097
vn -0.3337 0.8308 -0.4455
vn -0.2231 0.8910 -0.3954
vn -0.1059 0.9432 -0.3150
vn -0.2392 0.9001 -0.3642
vn -0.1663 0.9280 -0.3334
vn -0.3242 0.8274 -0.4586
vn 0.0176 0.9671 -0.2539
vn -0.1273 0.9401 -0.3162
vn 0.1326 -0.7259 0.6749
vn 0.1047 -0.7030 0.7034
vn 0.0865 -0.7455 0.6609
vn 0.1460 -0.8080 0.5707
vn 0.0798 -0.8777 0.4725
vn 0.0168 -0.8395 0.5431
vn -0.0820 -0.8816 0.4648
vn -0.0186 -0.9112 0.4115
vn 0.4464 -0.8871 0.1170
vn 0.3759 -0.8930 0.2476
vn 0.2471 -0.9473 0.2041
vn 0.2938 -0.9467 0.1321
vn 0.1182 -0.9783 0.1699
vn 0.1039 -0.9651 0.2405
vn 0.0279 -0.9733 0.2279
vn 0.1125 -0.9885 0.1010
vn 0.1771 -0.9807 0.0832
vn 0.1439 -0.9882 0.0521
vn -0.1174 -0.8868 0.4470
vn -0.0912 -0.9085 0.4078
vn 0.5132 -0.8529 0.0964
vn 0.4884 -0.8601 0.1471
vn 0.3414 -0.8542 0.3922
vn 0.2821 -0.8957 0.3437
vn 0.2608 -0.9086 0.3261
vn 0.1363 -0.9598 0.2454
vn 0.1155 -0.9125 0.3924
vn 0.1786 -0.8906 0.4182
vn 0.2784 -0.8228 0.4955
vn -0.0240 -0.9524 0.3038
vn 0.0829 -0.9219 0.3784
vn 0.5763 -0.1979 -0.7929
vn 0.6933 -0.1733 -0.6995
vn 0.5687 -0.1992 -0.7980
vn -0.8135 0.1402 0.5644
vn -0.9755 -0.0235 0.2185
vn -0.9793 -0.0387 0.1989
vn -0.8324 0.1366 0.5371
vn 0.9066 0.0401 0.4202
vn 0.9990 0.0007 -0.0454
vn -0.4388 -0.3885 -0.8103
vn -0.2128 -0.3188 -0.9236
vn -0.2328 -0.3257 -0.9164
vn 0.7499 0.1007 0.6538
vn -0.9836 -0.1804 0.0075
vn 0.1910 -0.2560 -0.9476
vn 0.3576 -0.2574 -0.8977
vn 0.3551 -0.2585 -0.8984
vn 0.1603 -0.2536 -0.9539
vn 0.3672 0.2469 0.8968
vn -0.4728 -0.2492 -0.8452
vn 0.9489 0.2003 0.2439
vn 0.4585 0.2878 0.8408
vn 0.6974 0.3877 0.6028
vn -0.9748 -0.0317 -0.2207
vn 0.3700 -0.2518 -0.8943
vn 0.4373 -0.2191 -0.8722
vn -0.6698 0.1823 0.7198
vn -0.7013 0.1668 0.6931
vn -0.6737 0.1805 0.7167
vn -0.7065 0.1555 0.6904
vn -0.9935 -0.0310 0.1091
vn -0.3799 0.2405 0.8932
vn -0.6410 0.1956 0.7422
vn -0.3430 0.9340 0.1003
vn -0.5027 0.8588 0.0986
vn -0.4855 0.8433 0.2306
vn -0.3896 0.9034 0.1790
vn 0.2933 0.9302 0.2209
vn 0.1426 0.9804 0.1357
vn 0.1912 0.9426 0.2739
vn 0.3108 0.9089 0.2779
vn -0.1156 0.9802 0.1606
vn -0.3701 0.8877 0.2739
vn -0.1077 0.9588 0.2628
vn 0.1060 0.9778 -0.1808
vn -0.1700 0.9805 -0.0981
vn -0.1446 0.9895 0.0018
vn 0.0822 0.9927 -0.0884
vn -0.4097 0.9095 0.0703
vn -0.5204 0.8524 0.0509
vn -0.4866 0.8547 0.1810
vn -0.3323 0.9337 0.1332
vn -0.4293 0.9027 -0.0289
vn -0.5312 0.8473 -0.0010
vn -0.4763 0.8329 0.2819
vn 0.1977 0.9575 -0.2102
vn 0.1982 0.9621 -0.1871
vn -0.1722 0.9791 0.1080
vn 0.2091 0.9776 -0.0232
vn 0.0366 0.9993 0.0044
vn -0.2638 0.9594 0.1000
vn -0.0236 0.9996 0.0139
vn -0.0196 0.9944 0.1040
vn 0.1984 0.9795 -0.0362
vn 0.3086 -0.9211 -0.2375
vn 0.3448 -0.9066 -0.2433
vn 0.4175 -0.8713 -0.2579
vn 0.4244 -0.8820 -0.2049
vn -0.2351 -0.9393 -0.2497
vn -0.2475 -0.9274 -0.2804
vn -0.1519 -0.9505 -0.2710
vn -0.1225 -0.9712 -0.2046
vn 0.1077 -0.9657 -0.2361
vn 0.1077 -0.9597 -0.2595
vn 0.3358 -0.9021 -0.2709
vn -0.0633 -0.9810 0.1835
vn -0.0330 -0.9866 0.1600
vn 0.1719 -0.9825 0.0716
vn 0.1745 -0.9798 0.0981
vn 0.3897 -0.9210 0.0030
vn 0.3455 -0.9384 0.0015
vn 0.4533 -0.8896 -0.0557
vn 0.4670 -0.8843 -0.0030
vn 0.3946 -0.9182 0.0353
vn 0.4720 -0.8814 0.0179
vn 0.4144 -0.8664 -0.2786
vn -0.1392 -0.9670 0.2133
vn -0.1352 -0.9681 0.2112
vn 0.2178 -0.9752 0.0380
vn -0.1793 -0.9769 -0.1161
vn -0.0415 -0.9847 -0.1691
vn 0.2525 -0.9344 -0.2514
vn 0.0053 -0.9825 -0.1862
vn 0.0803 -0.9953 0.0545
vn -0.1068 -0.9748 0.1960
vn 0.1554 -0.0432 0.9869
vn 0.0090 -0.1070 0.9942
vn 0.1518 -0.0448 0.9874
vn 0.1976 0.0527 -0.9789
vn 0.5637 -0.0690 -0.8231
vn 0.5532 -0.0631 -0.8306
vn 0.1959 0.0528 -0.9792
vn -0.7059 -0.5084 0.4932
vn -0.7813 -0.5618 0.2718
vn -0.7032 -0.5065 0.4990
vn -0.5857 -0.4227 0.6916
vn 0.9132 -0.2412 0.3286
vn 0.8220 -0.1428 0.5513
vn 0.8215 -0.1424 0.5521
vn -0.8368 -0.5473 -0.0140
vn -0.8485 -0.4711 -0.2412
vn -0.8481 -0.4686 -0.2473
vn 0.7292 -0.1717 -0.6624
vn 0.3345 0.0141 0.9423
vn 0.3352 0.0140 0.9420
vn 0.7747 0.0365 0.6313
vn 0.5982 0.0234 0.8010
vn 0.5959 0.0233 0.8027
vn 0.5495 -0.0262 0.8351
vn 0.5471 -0.0260 0.8367
vn -0.3654 -0.0078 -0.9308
vn -0.2266 0.0589 -0.9722
vn -0.2311 0.0568 -0.9713
vn -0.8094 -0.3642 -0.4607
vn -0.9764 -0.1253 0.1758
vn 0.0111 0.0734 -0.9972
vn 0.0117 0.0731 -0.9973
vn -0.8495 0.1206 0.5136
vn 0.7031 0.2387 -0.6698
vn -0.0868 0.1221 -0.9887
vn -0.0133 0.0849 -0.9963
vn 0.4027 -0.0149 0.9152
vn -0.7550 0.6482 -0.0993
vn -0.6261 0.7763 -0.0732
vn -0.6964 0.6981 -0.1666
vn -0.7729 0.6196 -0.1365
vn -0.1818 0.9465 -0.2667
vn 0.0105 0.9302 -0.3669
vn -0.0255 0.8905 -0.4542
vn -0.2125 0.9108 -0.3539
vn -0.3196 0.9387 0.1294
vn -0.2095 0.9777 0.0156
vn -0.2768 0.9577 -0.0787
vn -0.3862 0.9222 0.0197
vn 0.0594 0.9610 -0.2700
vn 0.1861 0.9465 -0.2638
vn 0.0976 0.9208 -0.3777
vn -0.0473 0.9482 -0.3143
vn 0.1217 0.9756 -0.1828
vn 0.2193 0.9510 -0.2181
vn -0.4630 0.8797 -0.1082
vn -0.3329 0.9244 -0.1861
vn -0.3717 0.8846 -0.2816
vn -0.5146 0.8270 -0.2265
vn 0.0804 0.8859 -0.4569
vn 0.0631 0.8622 -0.5026
vn -0.4859 0.7823 0.3899
vn -0.4374 0.8458 0.3055
vn -0.5063 0.8474 0.1600
vn -0.5172 0.7879 0.3344
vn -0.0683 0.9936 -0.0904
vn -0.1235 0.9788 -0.1634
vn -0.5334 0.8455 -0.0238
vn -0.6269 0.7748 0.0816
vn -0.6526 0.7546 0.0684
vn -0.4565 0.8882 0.0531
vn -0.3794 0.9252 -0.0120
vn -0.3406 0.9392 -0.0434
vn -0.2195 0.9661 -0.1359
vn -0.1482 0.9732 -0.1759
vn 0.1243 0.9353 -0.3313
vn -0.0744 0.9737 -0.2155
vn -0.4977 0.8653 -0.0604
vn -0.3018 0.9355 -0.1839
vn -0.3941 0.9084 -0.1396
vn -0.2524 0.9454 -0.2061
vn -0.1128 0.9525 -0.2827
vn 0.7307 -0.6692 0.1352
vn 0.7409 -0.6541 0.1523
vn 0.6714 -0.7203 0.1743
vn 0.6252 -0.7689 0.1341
vn 0.2042 -0.9248 0.3211
vn 0.2119 -0.9118 0.3518
vn 0.0532 -0.8953 0.4423
vn 0.0428 -0.9131 0.4054
vn 0.3236 -0.9381 -0.1231
vn 0.3498 -0.9341 -0.0718
vn 0.2322 -0.9723 0.0255
vn 0.2116 -0.9773 -0.0130
vn -0.0650 -0.9758 0.2088
vn -0.0101 -0.9766 0.2147
vn -0.0962 -0.9566 0.2751
vn -0.1520 -0.9644 0.2162
vn -0.0962 -0.9809 0.1692
vn -0.1736 -0.9658 0.1926
vn 0.4789 -0.8603 0.1745
vn 0.5115 -0.8301 0.2221
vn 0.3709 -0.8860 0.2784
vn 0.3555 -0.9030 0.2413
vn -0.0134 -0.8741 0.4856
vn -0.0189 -0.8856 0.4641
vn 0.4654 -0.8119 -0.3524
vn 0.4823 -0.8174 -0.3149
vn 0.4627 -0.8660 -0.1896
vn 0.4259 -0.8612 -0.2774
vn 0.0697 -0.9933 0.0917
vn 0.0899 -0.9894 0.1141
vn 0.5452 -0.8251 -0.1483
vn 0.4628 -0.8823 -0.0856
vn 0.6786 -0.7323 0.0567
vn 0.4303 -0.8916 0.1409
vn 0.4861 -0.8685 0.0968
vn 0.4031 -0.9008 0.1615
vn 0.1954 -0.9370 0.2897
vn 0.2537 -0.9326 0.2567
vn -0.0330 -0.9127 0.4072
vn 0.1356 -0.9371 0.3218
vn 0.4331 -0.8991 -0.0639
vn 0.2932 -0.9552 0.0399
vn 0.2273 -0.9710 0.0735
vn 0.1929 -0.9770 0.0907
vn 0.0295 -0.9821 0.1861
vn -0.4405 -0.2663 -0.8574
vn -0.2853 -0.2816 -0.9161
vn -0.4355 -0.2669 -0.8597
vn 0.1748 0.1048 0.9790
vn -0.1289 -0.2165 0.9677
vn -0.1279 -0.2151 0.9682
vn 0.1770 0.1062 0.9785
vn 0.6334 -0.3913 -0.6676
vn 0.7883 -0.3910 -0.4751
vn 0.6365 -0.3915 -0.6645
vn 0.4435 -0.3683 -0.8171
vn -0.7287 -0.6846 0.0152
vn -0.7764 -0.5901 -0.2215
vn -0.7764 -0.5902 -0.2212
vn 0.9189 -0.3163 -0.2357
vn 0.9808 -0.1925 -0.0316
vn 0.9803 -0.1943 -0.0345
vn -0.2613 -0.4164 0.8708
vn -0.7052 -0.4097 -0.5787
vn -0.5592 -0.3108 -0.7686
vn -0.5610 -0.3119 -0.7668
vn -0.7043 -0.4091 -0.5801
vn 0.9834 -0.0589 0.1716
vn 0.9738 0.1238 0.1906
vn -0.9951 0.0107 0.0981
vn -0.9162 -0.0322 0.3995
vn 0.7551 0.5590 -0.3426
vn 0.8380 0.2175 -0.5004
vn -0.9303 -0.3634 0.0505
vn 0.3346 0.2113 0.9184
vn 0.6562 -0.0187 -0.7543
vn 0.2681 0.1913 0.9442
vn 0.2107 0.1551 0.9652
vn 0.2673 0.1907 0.9446
vn 0.3239 0.2262 0.9187
vn -0.5385 -0.3089 0.7839
vn 0.3596 0.2712 0.8928
vn 0.3677 0.2667 0.8909
vn 0.3597 0.2712 0.8928
vn -0.6125 -0.0358 0.7897
vn 0.5996 0.2464 0.7615
vn 0.3516 0.2756 0.8947
vn -0.4949 -0.2691 -0.8262
vn -0.6663 -0.3013 -0.6821
vn -0.6109 -0.2851 -0.7386
vn -0.6116 -0.2852 -0.7380
vn 0.8303 0.3686 -0.4180
vn -0.5518 -0.2670 -0.7901
vn -0.5799 -0.2442 -0.7773
vn 0.1520 0.5200 0.8405
vn 0.2291 0.6444 0.7296
vn 0.1111 0.6002 0.7921
vn 0.1062 0.5063 0.8558
vn 0.1271 0.9385 0.3211
vn 0.0322 0.9907 0.1325
vn -0.0643 0.9840 0.1662
vn 0.0324 0.9362 0.3501
vn 0.4851 0.7553 0.4406
vn 0.3981 0.8514 0.3416
vn 0.3024 0.8609 0.4092
vn 0.3766 0.7742 0.5087
vn 0.1343 0.9873 0.0846
vn 0.1366 0.9897 -0.0431
vn 0.0202 0.9988 0.0455
vn 0.0866 0.9779 0.1901
vn 0.2213 0.9750 0.0214
vn 0.1809 0.9805 -0.0772
vn 0.2410 0.7753 0.5839
vn 0.1896 0.8651 0.4644
vn 0.0855 0.8611 0.5011
vn 0.1106 0.7668 0.6323
vn -0.0667 0.9959 0.0609
vn -0.1184 0.9900 0.0765
vn 0.6591 0.4869 0.5732
vn 0.6077 0.5848 0.5374
vn 0.4735 0.6338 0.6116
vn 0.6098 0.5094 0.6072
vn 0.3096 0.9278 0.2083
vn 0.2358 0.9353 0.2637
vn 0.3036 0.7009 0.6455
vn 0.3706 0.5818 0.7240
vn 0.3500 0.5650 0.7472
vn 0.3925 0.7201 0.5721
vn 0.3488 0.7904 0.5035
vn 0.3263 0.8211 0.4684
vn 0.2543 0.8993 0.3559
vn 0.2217 0.9316 0.2879
vn 0.0689 0.9974 0.0192
vn 0.1869 0.9582 0.2165
vn 0.2784 0.7383 0.6143
vn 0.1966 0.8787 0.4350
vn 0.2248 0.8235 0.5209
vn 0.1810 0.9035 0.3884
vn 0.1161 0.9601 0.2543
vn -0.1278 -0.5567 -0.8208
vn -0.1060 -0.5483 -0.8295
vn -0.1133 -0.6270 -0.7707
vn -0.1703 -0.6617 -0.7301
vn -0.0682 -0.9371 -0.3424
vn -0.0347 -0.9363 -0.3495
vn 0.0520 -0.9797 -0.1938
vn 0.0109 -0.9828 -0.1844
vn -0.4790 -0.7568 -0.4448
vn -0.4298 -0.7696 -0.4722
vn -0.3578 -0.8595 -0.3649
vn -0.3955 -0.8517 -0.3437
vn -0.1964 -0.9774 -0.0786
vn -0.1904 -0.9726 -0.1333
vn -0.1285 -0.9906 -0.0477
vn -0.1867 -0.9824 0.0088
vn -0.2354 -0.9708 -0.0468
vn -0.2093 -0.9774 0.0309
vn -0.1721 -0.7816 -0.5996
vn -0.1159 -0.7683 -0.6295
vn -0.0889 -0.8613 -0.5003
vn -0.1300 -0.8642 -0.4860
vn 0.0990 -0.9870 -0.1267
vn 0.0746 -0.9897 -0.1220
vn -0.6368 -0.5315 -0.5586
vn -0.6043 -0.5489 -0.5775
vn -0.5089 -0.6452 -0.5698
vn -0.5882 -0.6114 -0.5293
vn -0.3084 -0.9279 -0.2097
vn -0.2859 -0.9303 -0.2300
vn -0.4532 -0.6126 -0.6475
vn -0.4199 -0.7011 -0.5763
vn -0.2259 -0.5904 -0.7748
vn -0.2163 -0.8036 -0.5545
vn -0.2466 -0.7573 -0.6047
vn -0.2015 -0.8240 -0.5296
vn -0.1020 -0.9370 -0.3342
vn -0.1295 -0.9117 -0.3899
vn 0.0113 -0.9939 -0.1094
vn -0.0737 -0.9582 -0.2763
vn -0.4072 -0.7291 -0.5501
vn -0.3367 -0.8410 -0.4235
vn -0.3133 -0.8780 -0.3619
vn -0.3005 -0.8951 -0.3293
vn -0.2180 -0.9607 -0.1720
vn -0.9006 0.0342 0.4333
vn -0.9578 0.0655 0.2800
vn -0.9029 0.0352 0.4284
vn 0.9434 -0.2666 -0.1975
vn 0.8000 -0.5970 0.0592
vn 0.8011 -0.5957 0.0584
vn 0.9435 -0.2648 -0.1994
vn -0.7563 -0.0013 -0.6542
vn -0.5766 -0.0550 -0.8152
vn -0.7535 -0.0023 -0.6575
vn -0.8879 0.0515 -0.4572
vn -0.2708 -0.7312 0.6261
vn -0.4514 -0.5587 0.6957
vn -0.4513 -0.5589 0.6957
vn -0.3249 -0.0631 -0.9436
vn -0.0874 -0.0225 -0.9959
vn -0.0907 -0.0231 -0.9956
vn 0.6294 -0.7590 0.1665
vn -0.7065 -0.2438 0.6644
vn -0.8389 -0.0582 0.5411
vn -0.8378 -0.0602 0.5427
vn -0.7076 -0.2426 0.6637
vn 0.1522 0.0188 -0.9882
vn 0.2419 0.1758 -0.9543
vn 0.0760 -0.1707 0.9824
vn 0.3371 -0.3175 0.8863
vn -0.0790 0.7501 -0.6565
vn -0.3577 0.5144 -0.7794
vn -0.1148 -0.4822 0.8685
vn 0.9328 -0.1232 -0.3386
vn -0.6878 0.3743 -0.6220
vn 0.9474 -0.1611 -0.2766
vn 0.9513 -0.2103 -0.2256
vn 0.9475 -0.1618 -0.2758
vn 0.9388 -0.1113 -0.3259
vn 0.5872 -0.6666 0.4591
vn 0.9336 -0.0552 -0.3540
vn 0.9302 -0.0573 -0.3625
vn 0.9336 -0.0552 -0.3541
vn 0.6994 -0.4316 0.5698
vn 0.8076 0.0084 -0.5897
vn 0.9369 -0.0531 -0.3455
vn -0.8741 0.0115 0.4855
vn -0.7577 -0.0990 0.6450
vn -0.8021 -0.0541 0.5947
vn -0.8017 -0.0546 0.5953
vn -0.2223 0.6179 -0.7542
vn -0.8412 -0.0089 0.5407
vn -0.8209 0.0027 0.5711
vn 0.6133 0.7387 -0.2796
vn 0.4800 0.8182 -0.3166
vn 0.6022 0.7659 -0.2252
vn 0.6535 0.7188 -0.2373
vn 0.3575 0.8938 -0.2707
vn 0.2880 0.9440 -0.1608
vn 0.3597 0.9304 -0.0700
vn 0.4599 0.8716 -0.1699
vn 0.0242 0.7839 -0.6204
vn 0.0366 0.8837 -0.4667
vn 0.1426 0.9034 -0.4045
vn 0.1893 0.8241 -0.5339
vn 0.0933 0.9593 -0.2665
vn -0.0029 0.9659 -0.2588
vn 0.1586 0.9761 -0.1488
vn 0.2026 0.9493 -0.2403
vn -0.0239 0.9390 -0.3431
vn -0.0647 0.9523 -0.2983
vn 0.2832 0.9566 -0.0685
vn 0.3324 0.9426 -0.0302
vn 0.0066 0.7256 -0.6881
vn 0.0711 0.7476 -0.6603
vn 0.3244 0.8513 -0.4123
vn 0.3660 0.7956 -0.4828
vn 0.3083 0.8698 -0.3852
vn 0.2212 0.9343 -0.2795
vn 0.2766 0.8726 -0.4027
vn 0.2420 0.9102 -0.3361
vn 0.3792 0.7953 -0.4729
vn 0.1559 0.9743 -0.1625
vn 0.2230 0.9275 -0.3000
vn -0.6013 -0.7534 0.2662
vn -0.6314 -0.7391 0.2347
vn -0.5846 -0.7796 0.2245
vn -0.4897 -0.8207 0.2944
vn -0.3838 -0.8911 0.2421
vn -0.4569 -0.8725 0.1732
vn -0.3732 -0.9240 0.0838
vn -0.3183 -0.9358 0.1515
vn -0.0355 -0.7967 0.6034
vn -0.1636 -0.8286 0.5354
vn -0.1128 -0.9011 0.4188
vn -0.0419 -0.8846 0.4645
vn -0.0734 -0.9518 0.2979
vn -0.1447 -0.9486 0.2815
vn -0.1301 -0.9694 0.2083
vn -0.0038 -0.9558 0.2940
vn 0.0120 -0.9344 0.3560
vn 0.0442 -0.9448 0.3247
vn -0.3543 -0.9338 0.0500
vn -0.3136 -0.9462 0.0796
vn -0.0194 -0.7488 0.6626
vn -0.0688 -0.7656 0.6397
vn -0.3107 -0.8117 0.4946
vn -0.2573 -0.8583 0.4439
vn -0.2382 -0.8731 0.4254
vn -0.1508 -0.9379 0.3123
vn -0.3013 -0.9104 0.2835
vn -0.3303 -0.8799 0.3415
vn -0.4156 -0.8030 0.4271
vn -0.2069 -0.9662 0.1536
vn -0.2859 -0.9242 0.2531
vn 0.7989 -0.0069 0.6014
vn 0.7016 0.0294 0.7120
vn 0.8043 -0.0091 0.5942
vn -0.5618 -0.0702 -0.8243
vn -0.1987 -0.2252 -0.9538
vn -0.1776 -0.2388 -0.9547
vn -0.5340 -0.0744 -0.8422
vn -0.2116 0.1821 0.9603
vn -0.4372 0.1641 0.8843
vn -0.2090 0.1822 0.9608
vn 0.0283 0.1897 0.9814
vn 0.8522 -0.3789 -0.3608
vn 0.9542 -0.2576 -0.1519
vn 0.9481 -0.2687 -0.1703
vn -0.6731 0.1708 0.7196
vn -0.8212 0.2003 0.5344
vn -0.8224 0.2005 0.5323
vn 0.0270 -0.3587 -0.9330
vn 0.9651 -0.1192 0.2332
vn 0.9128 -0.0948 0.3973
vn 0.9136 -0.0963 0.3951
vn 0.9716 -0.1219 0.2026
vn -0.9230 0.2185 0.3169
vn 0.8737 -0.2454 -0.4201
vn -0.2785 0.3464 0.8958
vn -0.8729 0.2810 0.3989
vn -0.6500 0.4468 0.6147
vn 0.2391 -0.1887 -0.9525
vn 0.9086 -0.0874 0.4084
vn 0.8823 -0.0452 0.4686
vn -0.7231 -0.0182 -0.6905
vn -0.6944 -0.0365 -0.7187
vn -0.7197 -0.0204 -0.6940
vn -0.6906 -0.0482 -0.7217
vn -0.0888 -0.2248 -0.9704
vn -0.9062 0.0747 -0.4161
vn -0.7471 -0.0022 -0.6647
vt 0.607989 0.488322
vt 0.615878 0.477410
vt 0.611849 0.475117
vt 0.603681 0.484707
vt 0.616856 0.476227
vt 0.613804 0.472752
vt 0.599374 0.481093
vt 0.609775 0.470458
vt 0.608797 0.471641
vt 0.626644 0.461848
vt 0.623390 0.460296
vt 0.627395 0.460940
vt 0.624890 0.458481
vt 0.621635 0.456930
vt 0.620885 0.457837
vt 0.635730 0.444664
vt 0.633350 0.443780
vt 0.635930 0.444647
vt 0.633751 0.443746
vt 0.631370 0.442862
vt 0.631170 0.442879
vt 0.637620 0.429961
vt 0.636240 0.429683
vt 0.637627 0.430907
vt 0.636254 0.431574
vt 0.634874 0.431296
vt 0.634867 0.430350
vt 0.625880 0.775736
vt 0.627041 0.776409
vt 0.627493 0.776880
vt 0.626983 0.776570
vt 0.630007 0.777592
vt 0.629901 0.777882
vt 0.629924 0.777820
vt 0.634612 0.779268
vt 0.637644 0.780268
vt 0.636995 0.780339
vt 0.634507 0.779558
vt 0.638967 0.780499
vt 0.637585 0.780429
vt 0.634529 0.779496
vt 0.626003 0.775398
vt 0.627106 0.776232
vt 0.627747 0.776182
vt 0.627325 0.775629
vt 0.630047 0.777481
vt 0.630185 0.777103
vt 0.630357 0.776629
vt 0.639090 0.780161
vt 0.637928 0.779488
vt 0.637249 0.779640
vt 0.637709 0.780091
vt 0.634962 0.778305
vt 0.634790 0.778779
vt 0.634652 0.779157
vt 0.626093 0.775150
vt 0.627474 0.775220
vt 0.627933 0.775670
vt 0.627255 0.775822
vt 0.630531 0.776153
vt 0.630393 0.776532
vt 0.630220 0.777005
vt 0.639180 0.779913
vt 0.637858 0.779681
vt 0.637436 0.779129
vt 0.638077 0.779079
vt 0.634826 0.778681
vt 0.634998 0.778208
vt 0.635136 0.777829
vt 0.626216 0.774811
vt 0.627539 0.775043
vt 0.628188 0.774972
vt 0.627597 0.774881
vt 0.630571 0.776043
vt 0.630676 0.775752
vt 0.630654 0.775814
vt 0.639303 0.779574
vt 0.638200 0.778740
vt 0.637690 0.778430
vt 0.638141 0.778902
vt 0.635259 0.777491
vt 0.635282 0.777428
vt 0.635176 0.777719
vt 0.640471 0.877017
vt 0.642705 0.877550
vt 0.640430 0.878021
vt 0.636853 0.876719
vt 0.631639 0.872698
vt 0.623479 0.869494
vt 0.619912 0.870553
vt 0.628771 0.873777
vt 0.638815 0.877433
vt 0.635296 0.876152
vt 0.636531 0.878519
vt 0.640009 0.879493
vt 0.621891 0.873603
vt 0.604885 0.866643
vt 0.610252 0.870259
vt 0.624290 0.875987
vt 0.602903 0.864362
vt 0.641057 0.876660
vt 0.637760 0.875090
vt 0.605885 0.863889
vt 0.641873 0.879796
vt 0.639814 0.878818
vt 0.630279 0.876494
vt 0.640162 0.880742
vt 0.641042 0.880328
vt 0.642397 0.876656
vt 0.642540 0.876405
vt 0.642286 0.876140
vt 0.640378 0.874866
vt 0.637653 0.873653
vt 0.636207 0.872985
vt 0.632344 0.871435
vt 0.625547 0.868902
vt 0.612316 0.864567
vt 0.628143 0.869758
vt 0.638735 0.880265
vt 0.634514 0.879325
vt 0.637779 0.880106
vt 0.630876 0.878136
vt 0.628784 0.877451
vt 0.636711 0.875490
vt 0.633148 0.875370
vt 0.635273 0.876144
vt 0.637784 0.875605
vt 0.627315 0.871051
vt 0.624442 0.872202
vt 0.616202 0.869202
vt 0.619797 0.868075
vt 0.633793 0.875605
vt 0.635040 0.877791
vt 0.631747 0.876855
vt 0.630529 0.874417
vt 0.618125 0.872299
vt 0.621155 0.874858
vt 0.607783 0.869368
vt 0.602556 0.865874
vt 0.600766 0.863584
vt 0.636092 0.874764
vt 0.633082 0.873297
vt 0.603611 0.862980
vt 0.635950 0.877565
vt 0.636735 0.878046
vt 0.625966 0.875010
vt 0.637016 0.878885
vt 0.636097 0.879275
vt 0.638407 0.875169
vt 0.638802 0.875026
vt 0.636416 0.873416
vt 0.638438 0.874736
vt 0.634183 0.872387
vt 0.628801 0.870134
vt 0.632752 0.871721
vt 0.609869 0.863666
vt 0.622813 0.867894
vt 0.625033 0.868620
vt 0.635124 0.878952
vt 0.634047 0.878754
vt 0.630770 0.877972
vt 0.627551 0.876931
vt 0.625662 0.876319
vt 0.620800 0.874494
vt 0.609874 0.869451
vt 0.606403 0.866439
vt 0.619595 0.872487
vt 0.636969 0.879399
vt 0.637057 0.879095
vt 0.636448 0.877706
vt 0.635570 0.877969
vt 0.631626 0.877220
vt 0.618927 0.869995
vt 0.631475 0.875291
vt 0.634512 0.874585
vt 0.639123 0.876785
vt 0.623023 0.869303
vt 0.608714 0.864291
vt 0.614627 0.865032
vt 0.626451 0.869241
vt 0.605680 0.864662
vt 0.638491 0.877985
vt 0.634381 0.872992
vt 0.636728 0.880088
vt 0.634711 0.879571
vt 0.627866 0.877173
vt 0.630272 0.878022
vt 0.638305 0.875334
vt 0.639394 0.876292
vt 0.639842 0.877257
vt 0.618119 0.873555
vt 0.616298 0.871389
vt 0.604215 0.865751
vt 0.607661 0.868684
vt 0.633788 0.878349
vt 0.632557 0.876848
vt 0.632362 0.876202
vt 0.632942 0.877682
vt 0.627841 0.875951
vt 0.627672 0.873909
vt 0.615674 0.868840
vt 0.635507 0.875306
vt 0.630795 0.873134
vt 0.619834 0.868099
vt 0.623792 0.868271
vt 0.612424 0.864256
vt 0.606637 0.863499
vt 0.603604 0.863947
vt 0.635501 0.876725
vt 0.631412 0.871890
vt 0.633505 0.878899
vt 0.631475 0.878393
vt 0.625089 0.876186
vt 0.627494 0.877014
vt 0.635232 0.874185
vt 0.636672 0.876024
vt 0.636433 0.875161
vt 0.635249 0.874811
vt 0.621516 0.867134
vt 0.625892 0.871353
vt 0.640321 0.879235
vt 0.613169 0.862999
vt 0.605903 0.860428
vt 0.608440 0.865164
vt 0.616684 0.867282
vt 0.615304 0.867650
vt 0.624151 0.870831
vt 0.608213 0.866217
vt 0.604270 0.865952
vt 0.606382 0.867646
vt 0.610649 0.868378
vt 0.605429 0.866114
vt 0.602114 0.862101
vt 0.636608 0.877235
vt 0.623133 0.871796
vt 0.631885 0.875557
vt 0.617306 0.869835
vt 0.614944 0.869175
vt 0.617630 0.864041
vt 0.611319 0.860957
vt 0.629042 0.870480
vt 0.621571 0.866225
vt 0.604644 0.858997
vt 0.601930 0.859697
vt 0.606402 0.859228
vt 0.637094 0.876386
vt 0.642266 0.881024
vt 0.628629 0.873777
vt 0.624017 0.869261
vt 0.615968 0.865359
vt 0.619577 0.869773
vt 0.611441 0.867681
vt 0.608705 0.862728
vt 0.626924 0.873360
vt 0.618157 0.870173
vt 0.611246 0.868809
vt 0.613104 0.870453
vt 0.608813 0.869663
vt 0.606746 0.868062
vt 0.607924 0.868154
vt 0.604459 0.863974
vt 0.638680 0.879229
vt 0.634065 0.877526
vt 0.625458 0.873846
vt 0.619517 0.871754
vt 0.617268 0.871167
vt 0.613728 0.863025
vt 0.619887 0.866010
vt 0.631193 0.872406
vt 0.623659 0.868073
vt 0.604352 0.861697
vt 0.606973 0.860944
vt 0.608722 0.861192
vt 0.624096 0.866788
vt 0.616567 0.861427
vt 0.613296 0.858402
vt 0.622651 0.865708
vt 0.631206 0.860340
vt 0.632446 0.866704
vt 0.631222 0.864597
vt 0.629365 0.857149
vt 0.629930 0.868746
vt 0.620864 0.863193
vt 0.628674 0.866686
vt 0.629729 0.867527
vt 0.632137 0.865984
vt 0.622378 0.864250
vt 0.613106 0.857394
vt 0.616174 0.859339
vt 0.623629 0.864306
vt 0.611837 0.856361
vt 0.631080 0.859667
vt 0.628754 0.866541
vt 0.632056 0.863722
vt 0.631855 0.867725
vt 0.628365 0.868557
vt 0.629533 0.868572
vt 0.631184 0.866142
vt 0.631744 0.865053
vt 0.631849 0.862409
vt 0.621648 0.863546
vt 0.619567 0.861549
vt 0.611288 0.855521
vt 0.614502 0.858498
vt 0.628539 0.857485
vt 0.626779 0.854391
vt 0.627498 0.860327
vt 0.628772 0.862509
vt 0.626506 0.864543
vt 0.625136 0.862287
vt 0.617759 0.858983
vt 0.628746 0.862007
vt 0.626194 0.863114
vt 0.619279 0.860025
vt 0.621172 0.861042
vt 0.614108 0.856403
vt 0.611088 0.854453
vt 0.609872 0.853457
vt 0.628366 0.856653
vt 0.626046 0.863126
vt 0.629235 0.860575
vt 0.628978 0.864334
vt 0.625877 0.865381
vt 0.627076 0.865560
vt 0.628430 0.862835
vt 0.629029 0.859246
vt 0.629130 0.862038
vt 0.632369 0.873767
vt 0.618852 0.865455
vt 0.623048 0.868187
vt 0.637750 0.877620
vt 0.606868 0.861861
vt 0.605874 0.863621
vt 0.611211 0.867116
vt 0.611645 0.864896
vt 0.617935 0.865704
vt 0.614203 0.864544
vt 0.615765 0.864640
vt 0.618760 0.865458
vt 0.613274 0.867193
vt 0.615395 0.873335
vt 0.616600 0.872134
vt 0.616058 0.867762
vt 0.614899 0.873974
vt 0.613725 0.863042
vt 0.609637 0.861704
vt 0.610477 0.870977
vt 0.622902 0.867404
vt 0.635584 0.875309
vt 0.613640 0.865103
vt 0.622971 0.867547
vt 0.631203 0.872200
vt 0.624630 0.869042
vt 0.618150 0.865357
vt 0.616037 0.864256
vt 0.610620 0.861818
vt 0.608003 0.861129
vt 0.606781 0.860864
vt 0.604962 0.860932
vt 0.604265 0.862441
vt 0.606435 0.867260
vt 0.604193 0.861697
vt 0.620873 0.866731
vt 0.617896 0.866058
vt 0.619813 0.866344
vt 0.616800 0.866411
vt 0.616399 0.866746
vt 0.634057 0.875821
vt 0.639481 0.879646
vt 0.626203 0.871435
vt 0.621724 0.868511
vt 0.610715 0.865290
vt 0.615628 0.868388
vt 0.615220 0.870451
vt 0.609720 0.866873
vt 0.621510 0.869155
vt 0.622441 0.868930
vt 0.619686 0.868204
vt 0.618025 0.868066
vt 0.617378 0.870582
vt 0.619222 0.870449
vt 0.619595 0.874539
vt 0.618505 0.875749
vt 0.617897 0.876290
vt 0.617144 0.866409
vt 0.613248 0.865101
vt 0.613334 0.873268
vt 0.637773 0.877605
vt 0.626269 0.870740
vt 0.617688 0.868608
vt 0.633522 0.874647
vt 0.625693 0.870239
vt 0.626802 0.871409
vt 0.620405 0.867697
vt 0.613513 0.864584
vt 0.618601 0.866801
vt 0.610703 0.863646
vt 0.608144 0.863748
vt 0.609667 0.863485
vt 0.609401 0.869646
vt 0.607076 0.864819
vt 0.607183 0.864281
vt 0.623414 0.869195
vt 0.622646 0.869009
vt 0.620975 0.868866
vt 0.619687 0.868993
vt 0.619330 0.869297
vt 0.633035 0.886156
vt 0.618890 0.873600
vt 0.621411 0.874410
vt 0.637005 0.888431
vt 0.604895 0.860251
vt 0.602723 0.857574
vt 0.604885 0.856873
vt 0.606867 0.859681
vt 0.615504 0.868771
vt 0.610794 0.864029
vt 0.610192 0.861733
vt 0.614467 0.866354
vt 0.604415 0.854377
vt 0.604883 0.853692
vt 0.604925 0.852694
vt 0.605894 0.854530
vt 0.606061 0.856088
vt 0.613344 0.868575
vt 0.608768 0.864344
vt 0.603754 0.855808
vt 0.619845 0.871898
vt 0.633771 0.884767
vt 0.606457 0.857346
vt 0.617557 0.868059
vt 0.627748 0.878294
vt 0.626238 0.881124
vt 0.619522 0.875227
vt 0.617378 0.873386
vt 0.611851 0.868634
vt 0.608797 0.865728
vt 0.607392 0.864409
vt 0.604922 0.861841
vt 0.603078 0.859445
vt 0.602588 0.857065
vt 0.603557 0.860260
vt 0.614948 0.865449
vt 0.610162 0.859976
vt 0.613366 0.863696
vt 0.608158 0.857590
vt 0.607260 0.856455
vt 0.634466 0.887219
vt 0.638283 0.889204
vt 0.624012 0.876246
vt 0.621421 0.875548
vt 0.608496 0.863176
vt 0.610521 0.862583
vt 0.608672 0.859966
vt 0.606440 0.860681
vt 0.618590 0.871070
vt 0.617539 0.868542
vt 0.613598 0.864279
vt 0.614196 0.866649
vt 0.608211 0.857406
vt 0.608833 0.856891
vt 0.607797 0.855070
vt 0.607810 0.856064
vt 0.609001 0.858571
vt 0.616386 0.870928
vt 0.612073 0.866973
vt 0.606622 0.858289
vt 0.635324 0.885628
vt 0.622523 0.873689
vt 0.610071 0.860128
vt 0.629590 0.879533
vt 0.619849 0.869718
vt 0.628001 0.882348
vt 0.621396 0.876567
vt 0.614377 0.870541
vt 0.619555 0.874979
vt 0.611186 0.867557
vt 0.607842 0.864161
vt 0.609993 0.866438
vt 0.605454 0.859456
vt 0.605728 0.861607
vt 0.606332 0.862490
vt 0.617131 0.867067
vt 0.615847 0.865573
vt 0.612906 0.862091
vt 0.610768 0.859633
vt 0.609953 0.858597
vt 0.631916 0.885091
vt 0.619867 0.872191
vt 0.622684 0.876075
vt 0.635872 0.889536
vt 0.613115 0.864042
vt 0.607618 0.856548
vt 0.607986 0.858491
vt 0.614628 0.867111
vt 0.611148 0.866112
vt 0.619563 0.874748
vt 0.605079 0.858684
vt 0.603259 0.853974
vt 0.603196 0.856337
vt 0.605680 0.861165
vt 0.606206 0.854671
vt 0.604417 0.851870
vt 0.631191 0.886417
vt 0.617193 0.873758
vt 0.625789 0.882051
vt 0.611634 0.868035
vt 0.609441 0.865660
vt 0.617958 0.868394
vt 0.613019 0.862173
vt 0.627310 0.879277
vt 0.621105 0.872186
vt 0.607897 0.855195
vt 0.605580 0.851992
vt 0.609293 0.857102
vt 0.634040 0.886530
vt 0.637917 0.891070
vt 0.625532 0.878267
vt 0.622623 0.874179
vt 0.616096 0.866299
vt 0.617612 0.869455
vt 0.611059 0.860950
vt 0.610590 0.858829
vt 0.622322 0.876983
vt 0.613978 0.868435
vt 0.608105 0.861176
vt 0.608189 0.863171
vt 0.605669 0.858338
vt 0.605678 0.856024
vt 0.608740 0.856736
vt 0.606908 0.853791
vt 0.633176 0.888079
vt 0.628054 0.883788
vt 0.619599 0.875626
vt 0.613915 0.869823
vt 0.611826 0.867550
vt 0.615510 0.864126
vt 0.620305 0.870210
vt 0.629581 0.880986
vt 0.623289 0.873855
vt 0.608059 0.853985
vt 0.610286 0.857103
vt 0.611681 0.858992
s 1
f 1/1/1 7/2/2 12/3/3 6/4/4
f 2/1/5 8/5/6 7/2/2 1/1/1
f 3/4/7 9/6/8 8/5/6 2/1/5
f 4/7/9 10/8/10 9/6/8 3/4/7
f 5/7/11 11/9/12 10/8/10 4/7/9
f 6/4/4 12/3/3 11/9/12 5/7/11
f 7/2/2 13/10/13 18/11/14 12/3/3
f 8/5/6 14/12/15 13/10/13 7/2/2
f 9/6/8 15/13/16 14/12/15 8/5/6
f 10/8/10 16/14/17 15/13/16 9/6/8
f 11/9/12 17/15/18 16/14/17 10/8/10
f 12/3/3 18/11/14 17/15/18 11/9/12
f 13/10/13 19/16/19 24/17/20 18/11/14
f 14/12/15 20/18/21 19/16/19 13/10/13
f 15/13/16 21/19/22 20/18/21 14/12/15
f 16/14/17 22/20/23 21/19/22 15/13/16
f 17/15/18 23/21/24 22/20/23 16/14/17
f 18/11/14 24/17/20 23/21/24 17/15/18
f 19/16/19 25/22/25 30/23/26 24/17/20
f 20/18/21 26/24/27 25/22/25 19/16/19
f 21/19/22 27/25/28 26/24/27 20/18/21
f 22/20/23 28/26/29 27/25/28 21/19/22
f 23/21/24 29/27/30 28/26/29 22/20/23
f 24/17/20 30/23/26 29/27/30 23/21/24
f 31/28/31 34/29/32 35/30/33 37/31/34
f 32/32/35 36/33/36 35/30/33 34/29/32
f 33/34/37 37/31/34 35/30/33 36/33/36
f 38/35/38 41/36/39 42/37/40 44/38/41
f 39/39/42 43/40/43 42/37/40 41/36/39
f 40/41/44 44/38/41 42/37/40 43/40/43
f 45/42/45 48/43/46 49/44/47 51/45/48
f 46/46/49 50/47/50 49/44/47 48/43/46
f 47/48/51 51/45/48 49/44/47 50/47/50
f 52/49/52 55/50/53 56/51/54 58/52/55
f 53/53/56 57/54/57 56/51/54 55/50/53
f 54/55/58 58/52/55 56/51/54 57/54/57
f 59/56/59 62/57/60 63/58/61 65/59/62
f 60/60/63 64/61/64 63/58/61 62/57/60
f 61/62/65 65/59/62 63/58/61 64/61/64
f 66/63/66 69/64/67 70/65/68 72/66/69
f 67/67/70 71/68/71 70/65/68 69/64/67
f 68/69/72 72/66/69 70/65/68 71/68/71
f 73/70/73 76/71/74 77/72/75 79/73/76
f 74/74/77 78/75/78 77/72/75 76/71/74
f 75/76/79 79/73/76 77/72/75 78/75/78
f 80/77/80 83/78/81 84/79/82 86/80/83
f 81/81/84 85/82/85 84/79/82 83/78/81
f 82/83/86 86/80/83 84/79/82 85/82/85
f 45/42/45 31/28/31 37/31/34 48/43/46
f 48/43/46 37/31/34 33/34/37 46/46/49
f 32/32/35 38/35/38 44/38/41 36/33/36
f 36/33/36 44/38/41 40/41/44 33/34/37
f 39/39/42 52/49/52 58/52/55 43/40/43
f 43/40/43 58/52/55 54/55/58 40/41/44
f 53/53/56 47/48/51 50/47/50 57/54/57
f 57/54/57 50/47/50 46/46/49 54/55/58
f 73/70/73 45/42/45 51/45/48 76/71/74
f 76/71/74 51/45/48 47/48/51 74/74/77
f 52/49/52 80/77/80 86/80/83 55/50/53
f 55/50/53 86/80/83 82/83/86 53/53/56
f 81/81/84 75/76/79 78/75/78 85/82/85
f 85/82/85 78/75/78 74/74/77 82/83/86
f 59/56/59 73/70/73 79/73/76 62/57/60
f 62/57/60 79/73/76 75/76/79 60/60/63
f 80/77/80 66/63/66 72/66/69 83/78/81
f 83/78/81 72/66/69 68/69/72 81/81/84
f 67/67/70 61/62/65 64/61/64 71/68/71
f 71/68/71 64/61/64 60/60/63 68/69/72
f 31/28/31 59/56/59 65/59/62 34/29/32
f 34/29/32 65/59/62 61/62/65 32/32/35
f 66/63/66 39/39/42 41/36/39 69/64/67
f 69/64/67 41/36/39 38/35/38 67/67/70
f 45/42/45 73/70/73 59/56/59 31/28/31
f 33/34/37 40/41/44 54/55/58 46/46/49
f 61/62/65 67/67/70 38/35/38 32/32/35
f 80/77/80 52/49/52 39/39/42 66/63/66
f 47/48/51 53/53/56 82/83/86 74/74/77
f 75/76/79 81/81/84 68/69/72 60/60/63
f 101/84/87 105/85/88 106/86/89 91/87/90
f 115/88/91 103/89/92 108/90/93 116/91/94
f 112/92/95 107/93/96 93/94/97 110/95/98
f 94/96/99 99/97/100 89/98/101 97/99/102
f 108/90/103 92/100/104 99/97/100 94/96/99
f 111/101/105 104/102/106 107/93/107 112/92/108
f 103/89/92 100/103/109 92/100/110 108/90/93
f 91/87/111 106/86/112 102/104/113 98/105/114
f 116/91/115 108/90/103 94/96/99 114/106/116
f 98/105/114 102/104/113 95/107/117 87/108/118
f 105/85/88 111/101/105 112/92/108 106/86/89
f 106/86/112 112/92/95 110/95/98 102/104/113
f 107/93/96 116/91/115 114/106/116 93/94/97
f 104/102/106 115/88/91 116/91/94 107/93/107
f 88/109/119 118/110/119 105/85/88 101/84/87
f 105/85/88 117/111/120 109/112/121 111/101/105
f 109/112/121 120/113/122 104/102/106 111/101/105
f 104/102/106 119/114/123 113/115/124 115/88/91
f 103/89/92 121/116/125 90/117/125 100/103/109
f 113/115/124 122/118/126 103/89/92 115/88/91
f 102/104/113 110/95/98 123/119/127 95/107/117
f 110/95/98 93/94/97 96/120/128 124/121/129
f 93/94/97 114/106/116 125/122/130 96/120/128
f 114/106/116 94/96/99 97/99/102 126/123/131
f 141/124/132 131/125/133 146/126/134 145/127/135
f 155/128/136 156/129/137 148/130/138 143/131/139
f 152/132/140 150/133/141 133/134/142 147/135/143
f 134/136/144 137/137/145 129/138/146 139/139/147
f 148/130/148 134/136/144 139/139/147 132/140/149
f 151/141/150 152/132/151 147/135/152 144/142/153
f 143/131/139 148/130/138 132/140/154 140/143/155
f 131/125/156 138/144/157 142/145/158 146/126/159
f 156/129/160 154/146/161 134/136/144 148/130/148
f 138/144/157 127/147/162 135/148/163 142/145/158
f 145/127/135 146/126/134 152/132/151 151/141/150
f 146/126/159 142/145/158 150/133/141 152/132/140
f 147/135/143 133/134/142 154/146/161 156/129/160
f 144/142/153 147/135/152 156/129/137 155/128/136
f 128/149/164 141/124/132 145/127/135 158/150/164
f 145/127/135 151/141/150 149/151/165 157/152/166
f 149/151/165 151/141/150 144/142/153 160/153/167
f 144/142/153 155/128/136 153/154/168 159/155/169
f 143/131/139 140/143/155 130/156/170 161/157/170
f 153/154/168 155/128/136 143/131/139 162/158/171
f 142/145/158 135/148/163 163/159/172 150/133/141
f 150/133/141 164/160/173 136/161/174 133/134/142
f 133/134/142 136/161/174 165/162/175 154/146/161
f 154/146/161 166/163/176 137/137/145 134/136/144
f 97/99/177 89/98/178 129/138/178 137/137/179
f 88/109/180 101/84/181 141/124/182 128/149/183
f 99/97/184 92/100/185 132/140/185 139/139/186
f 89/98/187 99/97/184 139/139/186 129/138/187
f 91/87/188 98/105/189 138/144/190 131/125/188
f 92/100/191 100/103/192 140/143/193 132/140/191
f 101/84/181 91/87/194 131/125/194 141/124/182
f 87/108/195 95/107/196 135/148/197 127/147/198
f 98/105/189 87/108/195 127/147/198 138/144/190
f 100/103/192 90/117/199 130/156/199 140/143/193
f 103/89/200 122/118/200 162/158/200 143/131/200
f 121/116/201 103/89/201 143/131/201 161/157/201
f 114/106/202 126/123/202 166/163/202 154/146/202
f 105/85/203 118/110/203 158/150/203 145/127/203
f 104/102/204 120/113/204 160/153/204 144/142/204
f 110/95/205 124/121/205 164/160/205 150/133/205
f 118/110/206 88/109/180 128/149/183 158/150/206
f 125/122/207 114/106/207 154/146/207 165/162/207
f 109/112/208 117/111/209 157/152/209 149/151/210
f 120/113/211 109/112/208 149/151/210 160/153/211
f 117/111/212 105/85/212 145/127/212 157/152/212
f 113/115/213 119/114/214 159/155/214 153/154/215
f 119/114/216 104/102/216 144/142/216 159/155/216
f 90/117/217 121/116/217 161/157/217 130/156/217
f 122/118/218 113/115/213 153/154/215 162/158/218
f 95/107/196 123/119/219 163/159/219 135/148/197
f 124/121/220 96/120/221 136/161/222 164/160/220
f 123/119/223 110/95/223 150/133/223 163/159/223
f 96/120/221 125/122/224 165/162/224 136/161/222
f 126/123/225 97/99/177 137/137/179 166/163/225
f 183/164/226 170/165/227 179/166/228 184/167/229
f 180/168/230 186/169/231 187/170/232 171/171/233
f 185/172/234 184/167/229 189/173/235 188/174/236
f 187/170/237 188/174/238 173/175/239 181/176/240
f 174/177/241 178/178/242 169/179/243 176/180/244
f 189/173/245 172/181/246 178/178/242 174/177/241
f 186/169/231 185/172/234 188/174/236 187/170/232
f 184/167/229 179/166/228 172/181/247 189/173/235
f 171/171/248 187/170/237 181/176/240 177/182/249
f 188/174/238 189/173/245 174/177/241 173/175/239
f 173/175/239 174/177/241 176/180/244 175/183/250
f 168/184/251 182/185/252 186/169/231 180/168/230
f 185/172/234 190/186/253 183/164/226 184/167/229
f 182/185/252 191/187/254 185/172/234 186/169/231
f 181/176/240 173/175/239 175/183/250 193/188/255
f 177/182/249 181/176/240 192/189/256 167/190/256
f 210/191/257 211/192/258 206/193/259 197/194/260
f 207/195/261 198/196/262 214/197/263 213/198/264
f 212/199/265 215/200/266 216/201/267 211/192/258
f 214/197/268 208/202/269 200/203/270 215/200/271
f 201/204/272 203/205/273 196/206/274 205/207/275
f 216/201/276 201/204/272 205/207/275 199/208/277
f 213/198/264 214/197/263 215/200/266 212/199/265
f 211/192/258 216/201/267 199/208/278 206/193/259
f 198/196/279 204/209/280 208/202/269 214/197/268
f 215/200/271 200/203/270 201/204/272 216/201/276
f 200/203/270 202/210/281 203/205/273 201/204/272
f 195/211/282 207/195/261 213/198/264 209/212/283
f 212/199/265 211/192/258 210/191/257 217/213/284
f 209/212/283 213/198/264 212/199/265 218/214/285
f 208/202/269 220/215/286 202/210/281 200/203/270
f 204/209/280 194/216/287 219/217/287 208/202/269
f 176/180/288 169/179/289 196/206/289 203/205/290
f 168/184/291 180/168/292 207/195/293 195/211/294
f 178/178/295 172/181/296 199/208/296 205/207/297
f 169/179/298 178/178/295 205/207/297 196/206/298
f 171/171/299 177/182/300 204/209/301 198/196/299
f 172/181/302 179/166/303 206/193/304 199/208/302
f 180/168/292 171/171/305 198/196/305 207/195/293
f 175/183/306 176/180/288 203/205/290 202/210/307
f 181/176/308 193/188/309 220/215/310 208/202/308
f 177/182/300 167/190/311 194/216/312 204/209/301
f 170/165/313 183/164/314 210/191/315 197/194/313
f 179/166/303 170/165/316 197/194/316 206/193/304
f 185/172/317 191/187/317 218/214/317 212/199/317
f 182/185/318 168/184/291 195/211/294 209/212/319
f 192/189/320 181/176/320 208/202/320 219/217/320
f 190/186/321 185/172/321 212/199/321 217/213/321
f 183/164/314 190/186/322 217/213/322 210/191/315
f 191/187/323 182/185/318 209/212/319 218/214/323
f 193/188/309 175/183/306 202/210/307 220/215/310
f 167/190/311 192/189/324 219/217/324 194/216/312
f 234/218/325 239/219/326 240/220/327 225/221/328
f 238/222/329 237/223/330 242/224/331 241/225/332
f 240/220/333 241/225/334 227/226/335 235/227/336
f 228/228/337 232/229/338 223/230/339 230/231/340
f 242/224/341 226/232/342 232/229/338 228/228/337
f 239/219/326 238/222/329 241/225/332 240/220/327
f 237/223/330 233/233/343 226/232/344 242/224/331
f 225/221/345 240/220/333 235/227/336 231/234/346
f 241/225/334 242/224/341 228/228/337 227/226/335
f 231/234/346 235/227/336 229/235/347 221/236/348
f 235/227/336 227/226/335 243/237/349 229/235/347
f 227/226/335 228/228/337 230/231/340 244/238/350
f 239/219/326 245/239/351 236/240/352 238/222/329
f 222/241/353 246/242/353 239/219/326 234/218/325
f 237/223/330 247/243/354 224/244/354 233/233/343
f 236/240/352 248/245/355 237/223/330 238/222/329
f 262/246/356 253/247/357 268/248/358 267/249/359
f 266/250/360 269/251/361 270/252/362 265/253/363
f 268/248/364 263/254/365 255/255/366 269/251/367
f 256/256/368 258/257/369 251/258/370 260/259/371
f 270/252/372 256/256/368 260/259/371 254/260/373
f 267/249/359 268/248/358 269/251/361 266/250/360
f 265/253/363 270/252/362 254/260/374 261/261/375
f 253/247/376 259/262/377 263/254/365 268/248/364
f 269/251/367 255/255/366 256/256/368 270/252/372
f 259/262/377 249/263/378 257/264/379 263/254/365
f 263/254/365 257/264/379 271/265/380 255/255/366
f 255/255/366 272/266/381 258/257/369 256/256/368
f 267/249/359 266/250/360 264/267/382 273/268/383
f 250/269/384 262/246/356 267/249/359 274/270/384
f 265/253/363 261/261/375 252/271/385 275/272/385
f 264/267/382 266/250/360 265/253/363 276/273/386
f 230/231/387 223/230/388 251/258/388 258/257/389
f 222/241/390 234/218/391 262/246/392 250/269/393
f 232/229/394 226/232/394 254/260/394 260/259/394
f 223/230/395 232/229/395 260/259/395 251/258/395
f 225/221/396 231/234/397 259/262/398 253/247/396
f 226/232/399 233/233/399 261/261/399 254/260/399
f 234/218/391 225/221/400 253/247/400 262/246/392
f 221/236/401 229/235/402 257/264/403 249/263/404
f 231/234/397 221/236/401 249/263/404 259/262/398
f 233/233/405 224/244/405 252/271/405 261/261/405
f 227/226/406 244/238/406 272/266/406 255/255/406
f 243/237/407 227/226/407 255/255/407 271/265/407
f 237/223/408 248/245/408 276/273/408 265/253/408
f 239/219/409 246/242/409 274/270/409 267/249/409
f 247/243/410 237/223/410 265/253/410 275/272/410
f 229/235/402 243/237/411 271/265/411 257/264/403
f 244/238/412 230/231/387 258/257/389 272/266/412
f 236/240/413 245/239/414 273/268/414 264/267/415
f 246/242/416 222/241/390 250/269/393 274/270/416
f 245/239/417 239/219/417 267/249/417 273/268/417
f 224/244/418 247/243/418 275/272/418 252/271/418
f 248/245/419 236/240/413 264/267/415 276/273/419
f 293/274/420 280/275/421 289/276/422 294/277/423
f 290/278/424 296/279/425 297/280/426 281/281/427
f 295/282/428 294/277/423 299/283/429 298/284/430
f 297/280/431 298/284/432 283/285/433 291/286/434
f 284/287/435 288/288/436 279/289/437 286/290/438
f 299/283/439 282/291/440 288/288/436 284/287/435
f 296/279/425 295/282/428 298/284/430 297/280/426
f 294/277/423 289/276/422 282/291/441 299/283/429
f 281/281/442 297/280/431 291/286/434 287/292/443
f 298/284/432 299/283/439 284/287/435 283/285/433
f 283/285/433 284/287/435 286/290/438 285/293/444
f 278/294/445 292/295/446 296/279/425 290/278/424
f 295/282/428 300/296/447 293/274/420 294/277/423
f 292/295/446 301/297/448 295/282/428 296/279/425
f 291/286/434 283/285/433 285/293/444 303/298/449
f 287/292/443 291/286/434 302/299/450 277/300/450
f 320/301/451 321/302/452 316/303/453 307/304/454
f 317/305/455 308/306/456 324/307/457 323/308/458
f 322/309/459 325/310/460 326/311/461 321/302/452
f 324/307/462 318/312/463 310/313/464 325/310/465
f 311/314/466 313/315/467 306/316/468 315/317/469
f 326/311/470 311/314/466 315/317/469 309/318/471
f 323/308/458 324/307/457 325/310/460 322/309/459
f 321/302/452 326/311/461 309/318/472 316/303/453
f 308/306/473 314/319/474 318/312/463 324/307/462
f 325/310/465 310/313/464 311/314/466 326/311/470
f 310/313/464 312/320/475 313/315/467 311/314/466
f 305/321/476 317/305/455 323/308/458 319/322/477
f 322/309/459 321/302/452 320/301/451 327/323/478
f 319/322/477 323/308/458 322/309/459 328/324/479
f 318/312/463 330/325/480 312/320/475 310/313/464
f 314/319/474 304/326/481 329/327/481 318/312/463
f 286/290/482 279/289/483 306/316/483 313/315/484
f 278/294/485 290/278/486 317/305/487 305/321/488
f 288/288/489 282/291/490 309/318/490 315/317/491
f 279/289/492 288/288/489 315/317/491 306/316/492
f 281/281/493 287/292/494 314/319/495 308/306/493
f 282/291/496 289/276/497 316/303/498 309/318/496
f 290/278/486 281/281/499 308/306/499 317/305/487
f 285/293/500 286/290/482 313/315/484 312/320/501
f 291/286/502 303/298/503 330/325/504 318/312/502
f 287/292/494 277/300/505 304/326/506 314/319/495
f 280/275/507 293/274/508 320/301/509 307/304/507
f 289/276/497 280/275/510 307/304/510 316/303/498
f 295/282/511 301/297/511 328/324/511 322/309/511
f 292/295/512 278/294/485 305/321/488 319/322/513
f 302/299/514 291/286/514 318/312/514 329/327/514
f 300/296/515 295/282/515 322/309/515 327/323/515
f 293/274/508 300/296/516 327/323/516 320/301/509
f 301/297/517 292/295/512 319/322/513 328/324/517
f 303/298/503 285/293/500 312/320/501 330/325/504
f 277/300/505 302/299/518 329/327/518 304/326/506
f 345/328/519 349/329/520 350/330/521 335/331/522
f 359/332/523 347/333/524 352/334/525 360/335/526
f 356/336/527 351/337/528 337/338/529 354/339/530
f 338/340/531 343/341/532 333/342/533 341/343/534
f 352/334/535 336/344/536 343/341/532 338/340/531
f 355/345/537 348/346/538 351/337/539 356/336/540
f 347/333/524 344/347/541 336/344/542 352/334/525
f 335/331/543 350/330/544 346/348/545 342/349/546
f 360/335/547 352/334/535 338/340/531 358/350/548
f 342/349/546 346/348/545 339/351/549 331/352/550
f 349/329/520 355/345/537 356/336/540 350/330/521
f 350/330/544 356/336/527 354/339/530 346/348/545
f 351/337/528 360/335/547 358/350/548 337/338/529
f 348/346/538 359/332/523 360/335/526 351/337/539
f 332/353/551 362/354/551 349/329/520 345/328/519
f 349/329/520 361/355/552 353/356/553 355/345/537
f 353/356/553 364/357/554 348/346/538 355/345/537
f 348/346/538 363/358/555 357/359/556 359/332/523
f 347/333/524 365/360/557 334/361/557 344/347/541
f 357/359/556 366/362/558 347/333/524 359/332/523
f 346/348/545 354/339/530 367/363/559 339/351/549
f 354/339/530 337/338/529 340/364/560 368/365/561
f 337/338/529 358/350/548 369/366/562 340/364/560
f 358/350/548 338/340/531 341/343/534 370/367/563
f 385/368/564 375/369/565 390/370/566 389/371/567
f 399/372/568 400/373/569 392/374/570 387/375/571
f 396/376/572 394/377/573 377/378/574 391/379/575
f 378/380/576 381/381/577 373/382/578 383/383/579
f 392/374/580 378/380/576 383/383/579 376/384/581
f 395/385/582 396/376/583 391/379/584 388/386/585
f 387/375/571 392/374/570 376/384/586 384/387/587
f 375/369/588 382/388/589 386/389/590 390/370/591
f 400/373/592 398/390/593 378/380/576 392/374/580
f 382/388/589 371/391/594 379/392/595 386/389/590
f 389/371/567 390/370/566 396/376/583 395/385/582
f 390/370/591 386/389/590 394/377/573 396/376/572
f 391/379/575 377/378/574 398/390/593 400/373/592
f 388/386/585 391/379/584 400/373/569 399/372/568
f 372/393/596 385/368/564 389/371/567 402/394/596
f 389/371/567 395/385/582 393/395/597 401/396/598
f 393/395/597 395/385/582 388/386/585 404/397/599
f 388/386/585 399/372/568 397/398/600 403/399/601
f 387/375/571 384/387/587 374/400/602 405/401/602
f 397/398/600 399/372/568 387/375/571 406/402/603
f 386/389/590 379/392/595 407/403/604 394/377/573
f 394/377/573 408/404/605 380/405/606 377/378/574
f 377/378/574 380/405/606 409/406/607 398/390/593
f 398/390/593 410/407/608 381/381/577 378/380/576
f 341/343/609 333/342/610 373/382/610 381/381/611
f 332/353/612 345/328/613 385/368/614 372/393/615
f 343/341/616 336/344/617 376/384/617 383/383/618
f 333/342/619 343/341/616 383/383/618 373/382/619
f 335/331/620 342/349/621 382/388/622 375/369/620
f 336/344/623 344/347/624 384/387/625 376/384/623
f 345/328/613 335/331/626 375/369/626 385/368/614
f 331/352/627 339/351/628 379/392/629 371/391/630
f 342/349/621 331/352/627 371/391/630 382/388/622
f 344/347/624 334/361/631 374/400/631 384/387/625
f 347/333/632 366/362/632 406/402/632 387/375/632
f 365/360/633 347/333/633 387/375/633 405/401/633
f 358/350/634 370/367/634 410/407/634 398/390/634
f 349/329/635 362/354/635 402/394/635 389/371/635
f 348/346/636 364/357/636 404/397/636 388/386/636
f 354/339/637 368/365/637 408/404/637 394/377/637
f 362/354/638 332/353/612 372/393/615 402/394/638
f 369/366/639 358/350/639 398/390/639 409/406/639
f 353/356/640 361/355/641 401/396/641 393/395/642
f 364/357/643 353/356/640 393/395/642 404/397/643
f 361/355/644 349/329/644 389/371/644 401/396/644
f 357/359/645 363/358/646 403/399/646 397/398/647
f 363/358/648 348/346/648 388/386/648 403/399/648
f 334/361/649 365/360/649 405/401/649 374/400/649
f 366/362/650 357/359/645 397/398/647 406/402/650
f 339/351/628 367/363/651 407/403/651 379/392/629
f 368/365/652 340/364/653 380/405/654 408/404/652
f 367/363/655 354/339/655 394/377/655 407/403/655
f 340/364/653 369/366/656 409/406/656 380/405/654
f 370/367/657 341/343/609 381/381/611 410/407/657
f 425/408/658 429/409/659 430/410/660 415/411/661
f 439/412/662 427/413/663 432/414/664 440/415/665
f 436/416/666 431/417/667 417/418/668 434/419/669
f 418/420/670 423/421/671 413/422/672 421/423/673
f 432/414/674 416/424/675 423/421/671 418/420/670
f 435/425/676 428/426/677 431/417/678 436/416/679
f 427/413/663 424/427/680 416/424/681 432/414/664
f 415/411/682 430/410/683 426/428/684 422/429/685
f 440/415/686 432/414/674 418/420/670 438/430/687
f 422/429/685 426/428/684 419/431/688 411/432/689
f 429/409/659 435/425/676 436/416/679 430/410/660
f 430/410/683 436/416/666 434/419/669 426/428/684
f 431/417/667 440/415/686 438/430/687 417/418/668
f 428/426/677 439/412/662 440/415/665 431/417/678
f 412/433/690 442/434/690 429/409/659 425/408/658
f 429/409/659 441/435/691 433/436/692 435/425/676
f 433/436/692 444/437/693 428/426/677 435/425/676
f 428/426/677 443/438/694 437/439/695 439/412/662
f 427/413/663 445/440/696 414/441/696 424/427/680
f 437/439/695 446/442/697 427/413/663 439/412/662
f 426/428/684 434/419/669 447/443/698 419/431/688
f 434/419/669 417/418/668 420/444/699 448/445/700
f 417/418/668 438/430/687 449/446/701 420/444/699
f 438/430/687 418/420/670 421/423/673 450/447/702
f 465/448/703 455/449/704 470/450/705 469/451/706
f 479/452/707 480/453/708 472/454/709 467/455/710
f 476/456/711 474/457/712 457/458/713 471/459/714
f 458/460/715 461/461/716 453/462/717 463/463/718
f 472/454/719 458/460/715 463/463/718 456/464/720
f 475/465/721 476/456/722 471/459/723 468/466/724
f 467/455/710 472/454/709 456/464/725 464/467/726
f 455/449/727 462/468/728 466/469/729 470/450/730
f 480/453/731 478/470/732 458/460/715 472/454/719
f 462/468/728 451/471/733 459/472/734 466/469/729
f 469/451/706 470/450/705 476/456/722 475/465/721
f 470/450/730 466/469/729 474/457/712 476/456/711
f 471/459/714 457/458/713 478/470/732 480/453/731
f 468/466/724 471/459/723 480/453/708 479/452/707
f 452/473/735 465/448/703 469/451/706 482/474/735
f 469/451/706 475/465/721 473/475/736 481/476/737
f 473/475/736 475/465/721 468/466/724 484/477/738
f 468/466/724 479/452/707 477/478/739 483/479/740
f 467/455/710 464/467/726 454/480/741 485/481/741
f 477/478/739 479/452/707 467/455/710 486/482/742
f 466/469/729 459/472/734 487/483/743 474/457/712
f 474/457/712 488/484/744 460/485/745 457/458/713
f 457/458/713 460/485/745 489/486/746 478/470/732
f 478/470/732 490/487/747 461/461/716 458/460/715
f 421/423/748 413/422/749 453/462/749 461/461/750
f 412/433/751 425/408/752 465/448/753 452/473/754
f 423/421/755 416/424/756 456/464/756 463/463/757
f 413/422/758 423/421/755 463/463/757 453/462/758
f 415/411/759 422/429/760 462/468/761 455/449/759
f 416/424/762 424/427/763 464/467/764 456/464/762
f 425/408/752 415/411/765 455/449/765 465/448/753
f 411/432/766 419/431/767 459/472/768 451/471/769
f 422/429/760 411/432/766 451/471/769 462/468/761
f 424/427/763 414/441/770 454/480/770 464/467/764
f 427/413/771 446/442/771 486/482/771 467/455/771
f 445/440/772 427/413/772 467/455/772 485/481/772
f 438/430/773 450/447/773 490/487/773 478/470/773
f 429/409/774 442/434/774 482/474/774 469/451/774
f 428/426/775 444/437/775 484/477/775 468/466/775
f 434/419/776 448/445/776 488/484/776 474/457/776
f 442/434/777 412/433/751 452/473/754 482/474/777
f 449/446/778 438/430/778 478/470/778 489/486/778
f 433/436/779 441/435/780 481/476/780 473/475/781
f 444/437/782 433/436/779 473/475/781 484/477/782
f 441/435/783 429/409/783 469/451/783 481/476/783
f 437/439/784 443/438/785 483/479/785 477/478/786
f 443/438/787 428/426/787 468/466/787 483/479/787
f 414/441/788 445/440/788 485/481/788 454/480/788
f 446/442/789 437/439/784 477/478/786 486/482/789
f 419/431/767 447/443/790 487/483/790 459/472/768
f 448/445/791 420/444/792 460/485/793 488/484/791
f 447/443/794 434/419/794 474/457/794 487/483/794
f 420/444/792 449/446/795 489/486/795 460/485/793
f 450/447/796 421/423/748 461/461/750 490/487/796
f 504/488/797 509/489/798 510/490/799 495/491/800
f 508/492/801 507/493/802 512/494/803 511/495/804
f 510/490/805 511/495/806 497/496/807 505/497/808
f 498/498/809 502/499/810 493/500/811 500/501/812
f 512/494/813 496/502/814 502/499/810 498/498/809
f 509/489/798 508/492/801 511/495/804 510/490/799
f 507/493/802 503/503/815 496/502/816 512/494/803
f 495/491/817 510/490/805 505/497/808 501/504/818
f 511/495/806 512/494/813 498/498/809 497/496/807
f 501/504/818 505/497/808 499/505/819 491/506/820
f 505/497/808 497/496/807 513/507/821 499/505/819
f 497/496/807 498/498/809 500/501/812 514/508/822
f 509/489/798 515/509/823 506/510/824 508/492/801
f 492/511/825 516/512/825 509/489/798 504/488/797
f 507/493/802 517/513/826 494/514/826 503/503/815
f 506/510/824 518/515/827 507/493/802 508/492/801
f 532/516/828 523/517/829 538/518/830 537/519/831
f 536/520/832 539/521/833 540/522/834 535/523/835
f 538/518/836 533/524/837 525/525/838 539/521/839
f 526/526/840 528/527/841 521/528/842 530/529/843
f 540/522/844 526/526/840 530/529/843 524/530/845
f 537/519/831 538/518/830 539/521/833 536/520/832
f 535/523/835 540/522/834 524/530/846 531/531/847
f 523/517/848 529/532/849 533/524/837 538/518/836
f 539/521/839 525/525/838 526/526/840 540/522/844
f 529/532/849 519/533/850 527/534/851 533/524/837
f 533/524/837 527/534/851 541/535/852 525/525/838
f 525/525/838 542/536/853 528/527/841 526/526/840
f 537/519/831 536/520/832 534/537/854 543/538/855
f 520/539/856 532/516/828 537/519/831 544/540/856
f 535/523/835 531/531/847 522/541/857 545/542/857
f 534/537/854 536/520/832 535/523/835 546/543/858
f 500/501/859 493/500/860 521/528/860 528/527/861
f 492/511/862 504/488/863 532/516/864 520/539/865
f 502/499/866 496/502/867 524/530/867 530/529/868
f 493/500/869 502/499/866 530/529/868 521/528/869
f 495/491/870 501/504/871 529/532/872 523/517/870
f 496/502/873 503/503/874 531/531/875 524/530/873
f 504/488/863 495/491/876 523/517/876 532/516/864
f 491/506/877 499/505/878 527/534/879 519/533/880
f 501/504/871 491/506/877 519/533/880 529/532/872
f 503/503/874 494/514/881 522/541/881 531/531/875
f 497/496/882 514/508/882 542/536/882 525/525/882
f 513/507/883 497/496/883 525/525/883 541/535/883
f 507/493/884 518/515/884 546/543/884 535/523/884
f 509/489/885 516/512/885 544/540/885 537/519/885
f 517/513/886 507/493/886 535/523/886 545/542/886
f 499/505/878 513/507/887 541/535/887 527/534/879
f 514/508/888 500/501/859 528/527/861 542/536/888
f 506/510/889 515/509/890 543/538/890 534/537/891
f 516/512/892 492/511/862 520/539/865 544/540/892
f 515/509/893 509/489/893 537/519/893 543/538/893
f 494/514/894 517/513/894 545/542/894 522/541/894
f 518/515/895 506/510/889 534/537/891 546/543/895
