# Blender 5.0.1
# www.blender.org
o GEO_CliffTile_C
v -18.025486 -0.013760 -10.025485
v -18.087011 -0.013760 -10.000000
v -18.000000 -0.013760 -10.087011
v -19.920601 1.986240 -10.165948
v -19.834053 1.986240 -10.079400
v -19.895250 1.986240 -10.104749
v -18.025486 -0.013760 -13.974515
v -18.000000 -0.013760 -13.912989
v -18.087011 -0.013760 -14.000000
v -19.834053 1.986240 -13.920601
v -19.920601 1.986240 -13.834052
v -19.895250 1.986240 -13.895251
v -19.974514 -0.013760 -13.974515
v -19.912989 -0.013760 -14.000000
v -20.000000 -0.013760 -13.912989
v -18.165947 1.986240 -10.079399
v -18.079399 1.986240 -10.165948
v -18.104750 1.986240 -10.104749
v -19.974514 -0.013760 -10.025485
v -20.000000 -0.013760 -10.087011
v -19.912989 -0.013760 -10.000000
v -18.079399 1.986240 -13.834052
v -18.165947 1.986240 -13.920600
v -18.104750 1.986240 -13.895251
v -19.912989 1.879197 -10.000000
v -20.000000 1.879197 -10.087011
v -19.974514 1.879197 -10.025485
v -20.000000 1.879197 -13.912989
v -19.912989 1.879197 -14.000000
v -19.974514 1.879197 -13.974515
v -18.087011 1.879197 -14.000000
v -18.000000 1.879197 -13.912989
v -18.025486 1.879197 -13.974515
v -18.000000 1.879197 -10.087011
v -18.087011 1.879197 -10.000000
v -18.025486 1.879197 -10.025485
v -19.969803 1.932718 -10.116569
v -19.883430 1.932718 -10.030196
v -19.944506 1.932718 -10.055494
v -19.969803 1.932718 -13.883431
v -19.883430 1.932718 -13.969804
v -19.944506 1.932718 -13.944506
v -18.116570 1.932718 -13.969804
v -18.030197 1.932718 -13.883431
v -18.055494 1.932718 -13.944506
v -18.030197 1.932718 -10.116569
v -18.116570 1.932718 -10.030196
v -18.055494 1.932718 -10.055494
v -19.834053 1.986240 -13.834052
v -19.834053 1.986240 -10.165948
v -18.165947 1.986240 -13.834052
v -18.165947 1.986240 -10.165948
v -19.912989 -0.013760 -13.912989
v -18.087011 -0.013760 -13.912989
v -19.912989 -0.013760 -10.087011
v -18.087011 -0.013760 -10.087011
v -16.025486 -0.013760 -10.025485
v -16.087011 -0.013760 -10.000000
v -16.000000 -0.013760 -10.087011
v -17.920601 1.420309 -10.165948
v -17.834053 1.420309 -10.079400
v -17.895250 1.420309 -10.104749
v -16.025486 -0.013760 -11.974515
v -16.000000 -0.013760 -11.912989
v -16.087011 -0.013760 -12.000000
v -17.834053 1.420309 -11.920601
v -17.920601 1.420309 -11.834052
v -17.895250 1.420309 -11.895251
v -17.974514 -0.013760 -11.974515
v -17.912989 -0.013760 -12.000000
v -18.000000 -0.013760 -11.912989
v -16.629255 1.420309 -10.079399
v -16.542707 1.420309 -10.165948
v -16.568056 1.420309 -10.104749
v -17.974514 -0.013760 -10.025485
v -18.000000 -0.013760 -10.087011
v -17.912989 -0.013760 -10.000000
v -16.542707 1.420309 -11.834052
v -16.629255 1.420309 -11.920600
v -16.568056 1.420309 -11.895251
v -17.912989 1.313266 -10.000000
v -18.000000 1.313266 -10.087011
v -17.974514 1.313266 -10.025485
v -18.000000 1.313266 -11.912989
v -17.912989 1.313266 -12.000000
v -17.974514 1.313266 -11.974515
v -16.550318 1.313266 -12.000000
v -16.463306 1.313266 -11.912989
v -16.488792 1.313266 -11.974515
v -16.463306 1.313266 -10.087011
v -16.550318 1.313266 -10.000000
v -16.488792 1.313266 -10.025485
v -17.969803 1.366788 -10.116569
v -17.883430 1.366788 -10.030196
v -17.944506 1.366788 -10.055494
v -17.969803 1.366788 -11.883431
v -17.883430 1.366788 -11.969804
v -17.944506 1.366788 -11.944506
v -16.579876 1.366788 -11.969804
v -16.493504 1.366788 -11.883431
v -16.518803 1.366788 -11.944506
v -16.493504 1.366788 -10.116569
v -16.579876 1.366788 -10.030196
v -16.518803 1.366788 -10.055494
v -17.834053 1.420309 -11.834052
v -17.834053 1.420309 -10.165948
v -16.629255 1.420309 -11.834052
v -16.629255 1.420309 -10.165948
v -17.912989 -0.013760 -11.912989
v -16.087011 -0.013760 -11.912989
v -17.912989 -0.013760 -10.087011
v -16.087011 -0.013760 -10.087011
v -16.025486 -0.013760 -12.025485
v -16.087011 -0.013760 -12.000000
v -16.000000 -0.013760 -12.087011
v -17.920601 0.473831 -12.165948
v -17.834053 0.473831 -12.079400
v -17.895250 0.473831 -12.104749
v -16.025486 -0.013760 -13.974515
v -16.000000 -0.013760 -13.912989
v -16.087011 -0.013760 -14.000000
v -17.834053 0.473831 -13.920601
v -17.920601 0.473831 -13.834052
v -17.895250 0.473831 -13.895251
v -17.974514 -0.013760 -13.974515
v -17.912989 -0.013760 -14.000000
v -18.000000 -0.013760 -13.912989
v -16.683750 0.473831 -12.079399
v -16.597202 0.473831 -12.165948
v -16.622553 0.473831 -12.104749
v -17.974514 -0.013760 -12.025485
v -18.000000 -0.013760 -12.087011
v -17.912989 -0.013760 -12.000000
v -16.597202 0.473831 -13.834052
v -16.683750 0.473831 -13.920600
v -16.622553 0.473831 -13.895251
v -17.912989 0.366788 -12.000000
v -18.000000 0.366788 -12.087011
v -17.974514 0.366788 -12.025485
v -18.000000 0.366788 -13.912989
v -17.912989 0.366788 -14.000000
v -17.974514 0.366788 -13.974515
v -16.576334 0.366788 -14.000000
v -16.489323 0.366788 -13.912989
v -16.514809 0.366788 -13.974515
v -16.489323 0.366788 -12.087011
v -16.576334 0.366788 -12.000000
v -16.514809 0.366788 -12.025485
v -17.969803 0.420309 -12.116569
v -17.883430 0.420309 -12.030196
v -17.944506 0.420309 -12.055494
v -17.969803 0.420309 -13.883431
v -17.883430 0.420309 -13.969804
v -17.944506 0.420309 -13.944506
v -16.634373 0.420309 -13.969804
v -16.548000 0.420309 -13.883431
v -16.573298 0.420309 -13.944506
v -16.548000 0.420309 -12.116569
v -16.634373 0.420309 -12.030196
v -16.573298 0.420309 -12.055494
v -17.834053 0.473831 -13.834052
v -17.834053 0.473831 -12.165948
v -16.683750 0.473831 -13.834052
v -16.683750 0.473831 -12.165948
v -17.912989 -0.013760 -13.912989
v -16.087011 -0.013760 -13.912989
v -17.912989 -0.013760 -12.087011
v -16.087011 -0.013760 -12.087011
v -16.908768 0.453125 -11.920259
v -16.945684 0.453125 -11.904968
v -16.893476 0.453125 -11.957174
v -18.045837 0.745680 -12.004537
v -17.993908 0.745680 -11.952608
v -18.030628 0.745680 -11.967817
v -16.908768 0.453125 -13.089677
v -16.893476 0.453125 -13.052761
v -16.945684 0.453125 -13.104968
v -17.993908 0.745680 -13.057328
v -18.045837 0.745680 -13.005400
v -18.030628 0.745680 -13.042118
v -18.078186 0.453125 -13.089677
v -18.041271 0.453125 -13.104968
v -18.093477 0.453125 -13.052761
v -16.993046 0.745680 -11.952607
v -16.941116 0.745680 -12.004537
v -16.956326 0.745680 -11.967817
v -18.078186 0.453125 -11.920259
v -18.093477 0.453125 -11.957174
v -18.041271 0.453125 -11.904968
v -16.941116 0.745680 -13.005400
v -16.993046 0.745680 -13.057328
v -16.956326 0.745680 -13.042118
v -18.041271 0.681454 -11.904968
v -18.093477 0.681454 -11.957174
v -18.078186 0.681454 -11.920259
v -18.093477 0.681454 -13.052761
v -18.041271 0.681454 -13.104968
v -18.078186 0.681454 -13.089677
v -16.945684 0.681454 -13.104968
v -16.893476 0.681454 -13.052761
v -16.908768 0.681454 -13.089677
v -16.893476 0.681454 -11.957174
v -16.945684 0.681454 -11.904968
v -16.908768 0.681454 -11.920259
v -18.075359 0.713567 -11.974909
v -18.023537 0.713567 -11.923085
v -18.060181 0.713567 -11.938265
v -18.075359 0.713567 -13.035027
v -18.023537 0.713567 -13.086850
v -18.060181 0.713567 -13.071671
v -16.963419 0.713567 -13.086850
v -16.911594 0.713567 -13.035027
v -16.926773 0.713567 -13.071671
v -16.911594 0.713567 -11.974909
v -16.963419 0.713567 -11.923085
v -16.926773 0.713567 -11.938265
v -17.993908 0.745680 -13.005400
v -17.993908 0.745680 -12.004537
v -16.993046 0.745680 -13.005400
v -16.993046 0.745680 -12.004537
v -18.041271 0.453125 -13.052761
v -16.945684 0.453125 -13.052761
v -18.041271 0.453125 -11.957174
v -16.945684 0.453125 -11.957174
v -16.908768 1.390064 -10.520665
v -16.945684 1.390064 -10.505375
v -16.893476 1.390064 -10.557581
v -18.045837 1.682618 -10.604943
v -17.993908 1.682618 -10.553015
v -18.030628 1.682618 -10.568224
v -16.908768 1.390064 -11.690084
v -16.893476 1.390064 -11.653168
v -16.945684 1.390064 -11.705375
v -17.993908 1.682618 -11.657735
v -18.045837 1.682618 -11.605805
v -18.030628 1.682618 -11.642525
v -18.078186 1.390064 -11.690084
v -18.041271 1.390064 -11.705375
v -18.093477 1.390064 -11.653168
v -16.993046 1.682618 -10.553014
v -16.941116 1.682618 -10.604943
v -16.956326 1.682618 -10.568224
v -18.078186 1.390064 -10.520665
v -18.093477 1.390064 -10.557581
v -18.041271 1.390064 -10.505375
v -16.941116 1.682618 -11.605805
v -16.993046 1.682618 -11.657735
v -16.956326 1.682618 -11.642525
v -18.041271 1.618392 -10.505375
v -18.093477 1.618392 -10.557581
v -18.078186 1.618392 -10.520665
v -18.093477 1.618392 -11.653168
v -18.041271 1.618392 -11.705375
v -18.078186 1.618392 -11.690084
v -16.945684 1.618392 -11.705375
v -16.893476 1.618392 -11.653168
v -16.908768 1.618392 -11.690084
v -16.893476 1.618392 -10.557581
v -16.945684 1.618392 -10.505375
v -16.908768 1.618392 -10.520665
v -18.075359 1.650505 -10.575315
v -18.023537 1.650505 -10.523492
v -18.060181 1.650505 -10.538671
v -18.075359 1.650505 -11.635433
v -18.023537 1.650505 -11.687257
v -18.060181 1.650505 -11.672078
v -16.963419 1.650505 -11.687257
v -16.911594 1.650505 -11.635433
v -16.926773 1.650505 -11.672078
v -16.911594 1.650505 -10.575315
v -16.963419 1.650505 -10.523492
v -16.926773 1.650505 -10.538671
v -17.993908 1.682618 -11.605805
v -17.993908 1.682618 -10.604943
v -16.993046 1.682618 -11.605805
v -16.993046 1.682618 -10.604943
v -18.041271 1.390064 -11.653168
v -16.945684 1.390064 -11.653168
v -18.041271 1.390064 -10.557581
v -16.945684 1.390064 -10.557581
vn -0.1438 0.6401 0.7547
vn -0.0910 0.7182 0.6899
vn -0.2447 0.7689 0.5908
vn -0.2845 0.6689 0.6868
vn -0.6868 0.6689 0.2845
vn -0.5908 0.7689 0.2447
vn -0.6899 0.7182 0.0910
vn -0.7547 0.6401 0.1438
vn 0.3668 0.2851 0.8855
vn 0.2031 0.2837 0.9372
vn 0.1951 -0.0000 0.9808
vn 0.3827 -0.0000 0.9239
vn 0.8855 0.2851 -0.3668
vn 0.9372 0.2837 -0.2031
vn 0.9808 -0.0000 -0.1951
vn 0.9239 -0.0000 -0.3827
vn 0.9372 0.2837 0.2031
vn 0.9808 -0.0000 0.1951
vn -0.3668 0.2851 -0.8855
vn -0.2031 0.2837 -0.9372
vn -0.1951 -0.0000 -0.9808
vn -0.3827 -0.0000 -0.9239
vn -0.2031 0.2837 0.9372
vn -0.1951 -0.0000 0.9808
vn -0.3668 0.2851 0.8855
vn -0.3827 -0.0000 0.9239
vn -0.8855 0.2851 0.3668
vn -0.9372 0.2837 0.2031
vn -0.9808 -0.0000 0.1951
vn -0.9239 -0.0000 0.3827
vn 0.8855 0.2851 0.3668
vn 0.9239 -0.0000 0.3827
vn -0.1438 0.6401 -0.7547
vn -0.2845 0.6689 -0.6868
vn -0.6868 0.6689 -0.2845
vn -0.8855 0.2851 -0.3668
vn -0.9372 0.2837 -0.2031
vn -0.7547 0.6401 -0.1438
vn 0.7547 0.6401 -0.1438
vn 0.6868 0.6689 -0.2845
vn 0.2845 0.6689 -0.6868
vn 0.3668 0.2851 -0.8855
vn 0.2031 0.2837 -0.9372
vn 0.1438 0.6401 -0.7547
vn 0.1438 0.6401 0.7547
vn 0.2845 0.6689 0.6868
vn 0.6868 0.6689 0.2845
vn 0.7547 0.6401 0.1438
vn -0.0910 0.7182 -0.6899
vn -0.2447 0.7689 -0.5908
vn -0.5908 0.7689 -0.2447
vn -0.6899 0.7182 -0.0910
vn 0.6899 0.7182 -0.0910
vn 0.5908 0.7689 -0.2447
vn 0.2447 0.7689 -0.5908
vn 0.0910 0.7182 -0.6899
vn 0.0910 0.7182 0.6899
vn 0.2447 0.7689 0.5908
vn 0.5908 0.7689 0.2447
vn 0.6899 0.7182 0.0910
vn -0.9808 -0.0000 -0.1951
vn 0.3827 -0.0000 -0.9239
vn 0.1951 -0.0000 -0.9808
vn -0.0000 1.0000 -0.0000
vn -0.9239 -0.0000 -0.3827
vn -0.0000 -1.0000 -0.0000
vn 0.3609 0.3325 0.8713
vn 0.1796 0.3095 0.9338
vn 0.2337 0.0816 0.9689
vn 0.3793 0.1324 0.9157
vn 0.8256 0.4489 -0.3420
vn 0.8768 0.4397 -0.1945
vn 0.9291 0.3244 -0.1775
vn 0.8793 0.3070 -0.3642
vn 0.8768 0.4397 0.1945
vn 0.9291 0.3244 0.1775
vn 0.8256 0.4489 0.3420
vn 0.8793 0.3070 0.3642
vn 0.3609 0.3325 -0.8713
vn 0.1796 0.3095 -0.9338
vn 0.3793 0.1324 -0.9157
vn 0.2337 0.0816 -0.9689
vn 0.3269 0.5199 0.7892
vn 0.1475 0.3782 0.9139
vn 0.2771 0.3563 0.8923
vn 0.3434 0.4415 0.8290
vn 0.5893 0.7702 -0.2441
vn 0.6172 0.7747 -0.1373
vn 0.6101 0.7845 -0.1107
vn 0.5950 0.7650 -0.2464
vn 0.6172 0.7747 0.1373
vn 0.6101 0.7845 0.1107
vn 0.5893 0.7702 0.2441
vn 0.5950 0.7650 0.2464
vn 0.6434 0.7540 -0.1326
vn 0.5872 0.7720 -0.2432
vn 0.2668 0.7168 -0.6442
vn 0.3269 0.5199 -0.7892
vn 0.1475 0.3782 -0.9139
vn 0.1237 0.6510 -0.7490
vn 0.1237 0.6510 0.7490
vn 0.2668 0.7168 0.6442
vn 0.5872 0.7720 0.2432
vn 0.6434 0.7540 0.1326
vn 0.3434 0.4415 -0.8290
vn 0.2771 0.3563 -0.8923
vn 0.2447 0.7688 -0.5908
vn 0.2447 0.7688 0.5908
vn 0.5908 0.7688 0.2447
vt 0.129500 0.542354
vt 0.129518 0.543042
vt 0.129495 0.543042
vt 0.129477 0.542354
vt 0.129486 0.543042
vt 0.129468 0.542354
vt 0.177268 0.183297
vt 0.177268 0.183099
vt 0.238729 0.183099
vt 0.238729 0.183297
vt 0.177268 0.183379
vt 0.238729 0.183379
vt 0.177268 0.177013
vt 0.177268 0.177211
vt 0.238729 0.177211
vt 0.238729 0.177013
vt 0.177268 0.176930
vt 0.238729 0.176930
vt 0.129489 0.541666
vt 0.129466 0.541666
vt 0.129457 0.541666
vt 0.130915 0.542354
vt 0.130926 0.541666
vt 0.130917 0.541666
vt 0.130906 0.542354
vt 0.130894 0.541666
vt 0.130883 0.542354
vt 0.129518 0.543042
vt 0.129495 0.543042
vt 0.129486 0.543042
vt 0.130897 0.543042
vt 0.130888 0.543042
vt 0.130865 0.543042
vt 0.130865 0.543042
vt 0.130888 0.543042
vt 0.130897 0.543042
vt 0.129518 0.543042
vt 0.195643 0.188252
vt 0.195643 0.188054
vt 0.238729 0.189548
vt 0.238729 0.189746
vt 0.195643 0.188252
vt 0.195643 0.188335
vt 0.238729 0.189829
vt 0.195643 0.188335
vt 0.195643 0.183462
vt 0.195643 0.183660
vt 0.238729 0.183660
vt 0.238729 0.183462
vt 0.195643 0.183660
vt 0.195643 0.183462
vt 0.195643 0.183379
vt 0.195643 0.183379
vt 0.195643 0.188054
vt 0.226373 0.188168
vt 0.226373 0.187970
vt 0.226373 0.188251
vt 0.226373 0.183462
vt 0.226373 0.183660
vt 0.226373 0.183379
vt 0.216157 0.186898
vt 0.216157 0.186779
vt 0.223570 0.186779
vt 0.223570 0.186898
vt 0.216157 0.186947
vt 0.223570 0.186947
vt 0.216157 0.183127
vt 0.216157 0.183246
vt 0.223570 0.183246
vt 0.223570 0.183127
vt 0.216157 0.183078
vt 0.223570 0.183078
vt 0.185736 0.186898
vt 0.185736 0.186779
vt 0.193149 0.186779
vt 0.193150 0.186898
vt 0.185736 0.186947
vt 0.193150 0.186947
vt 0.185736 0.183127
vt 0.185736 0.183246
vt 0.193150 0.183246
vt 0.193149 0.183127
vt 0.185736 0.183078
vt 0.193149 0.183078
s 1
f 38/1/1 5/2/2 6/3/3 39/4/4
f 39/4/5 6/3/6 4/5/7 37/6/8
f 36/7/9 35/8/10 2/9/11 1/10/12
f 33/7/13 32/11/14 8/12/15 7/10/16
f 32/11/14 34/11/17 3/12/18 8/12/15
f 30/13/19 29/14/20 14/15/21 13/16/22
f 35/8/10 25/14/23 21/15/24 2/9/11
f 25/14/23 27/13/25 19/16/26 21/15/24
f 27/13/27 26/17/28 20/18/29 19/16/30
f 34/11/17 36/7/31 1/10/32 3/12/18
f 41/1/33 29/19/20 30/20/19 42/4/34
f 42/4/35 30/20/36 28/21/37 40/6/38
f 44/22/39 32/23/14 33/24/13 45/25/40
f 45/25/41 33/24/42 31/26/43 43/27/44
f 47/27/45 35/26/10 36/24/9 48/25/46
f 48/25/47 36/24/31 34/23/17 46/22/48
f 25/19/23 38/1/1 39/4/4 27/20/25
f 27/20/27 39/4/5 37/6/8 26/21/28
f 10/28/49 41/1/33 42/4/34 12/29/50
f 12/29/51 42/4/35 40/6/38 11/30/52
f 22/31/53 44/22/39 45/25/40 24/32/54
f 24/32/55 45/25/41 43/27/44 23/33/56
f 16/34/57 47/27/45 48/25/46 18/35/58
f 18/35/59 48/25/47 46/22/48 17/36/60
f 26/17/28 28/17/37 15/18/61 20/18/29
f 31/8/43 33/7/42 7/10/62 9/9/63
f 47/27/45 16/34/57 5/2/2 38/1/1
f 37/6/8 4/5/7 11/30/52 40/6/38
f 49/37/64 10/28/64 12/29/64 11/30/64
f 28/17/37 30/13/36 13/16/65 15/18/61
f 41/1/33 10/28/49 23/33/56 43/27/44
f 29/14/20 31/8/43 9/9/63 14/15/21
f 44/22/39 22/31/53 17/36/60 46/22/48
f 26/21/28 37/6/8 40/6/38 28/21/37
f 35/26/10 47/27/45 38/1/1 25/19/23
f 29/19/20 41/1/33 43/27/44 31/26/43
f 32/23/14 44/22/39 46/22/48 34/23/17
f 50/2/64 49/37/64 11/30/64 4/5/64
f 5/2/64 50/2/64 4/5/64 6/3/64
f 52/34/64 51/33/64 49/37/64 50/2/64
f 51/33/64 23/33/64 10/28/64 49/37/64
f 16/34/64 52/34/64 50/2/64 5/2/64
f 17/36/64 22/31/64 51/33/64 52/34/64
f 22/31/64 24/32/64 23/33/64 51/33/64
f 18/35/64 17/36/64 52/34/64 16/34/64
f 55/15/66 21/15/66 19/16/66 20/18/66
f 56/9/66 2/9/66 21/15/66 55/15/66
f 14/15/66 53/15/66 15/18/66 13/16/66
f 9/9/66 54/9/66 53/15/66 14/15/66
f 7/10/66 8/12/66 54/9/66 9/9/66
f 3/12/66 1/10/66 2/9/66 56/9/66
f 54/9/66 56/9/66 55/15/66 53/15/66
f 53/15/66 55/15/66 20/18/66 15/18/66
f 8/12/66 3/12/66 56/9/66 54/9/66
f 94/1/1 61/2/2 62/3/3 95/4/4
f 95/4/5 62/3/6 60/5/7 93/6/8
f 92/38/67 91/39/68 58/40/69 57/41/70
f 89/42/71 88/43/72 64/44/73 63/41/74
f 88/43/72 90/45/75 59/44/76 64/44/73
f 86/46/19 85/47/20 70/48/21 69/49/22
f 91/39/68 81/50/23 77/48/24 58/40/69
f 81/50/23 83/51/25 75/49/26 77/48/24
f 83/51/27 82/52/28 76/12/29 75/49/30
f 90/45/75 92/38/77 57/41/78 59/44/76
f 97/1/33 85/19/20 86/20/19 98/4/34
f 98/4/35 86/20/36 84/21/37 96/6/38
f 100/22/39 88/23/72 89/24/71 101/25/40
f 101/25/41 89/24/79 87/26/80 99/27/44
f 103/27/45 91/26/68 92/24/67 104/25/46
f 104/25/47 92/24/77 90/23/75 102/22/48
f 81/19/23 94/1/1 95/4/4 83/20/25
f 83/20/27 95/4/5 93/6/8 82/21/28
f 66/28/49 97/1/33 98/4/34 68/29/50
f 68/29/51 98/4/35 96/6/38 67/30/52
f 78/31/53 100/22/39 101/25/40 80/32/54
f 80/32/55 101/25/41 99/27/44 79/33/56
f 72/34/57 103/27/45 104/25/46 74/35/58
f 74/35/59 104/25/47 102/22/48 73/36/60
f 82/52/28 84/53/37 71/12/61 76/12/29
f 87/54/80 89/42/79 63/41/81 65/40/82
f 103/27/45 72/34/57 61/2/2 94/1/1
f 93/6/8 60/5/7 67/30/52 96/6/38
f 105/37/64 66/28/64 68/29/64 67/30/64
f 84/53/37 86/46/36 69/49/65 71/12/61
f 97/1/33 66/28/49 79/33/56 99/27/44
f 85/47/20 87/54/80 65/40/82 70/48/21
f 100/22/39 78/31/53 73/36/60 102/22/48
f 82/21/28 93/6/8 96/6/38 84/21/37
f 91/26/68 103/27/45 94/1/1 81/19/23
f 85/19/20 97/1/33 99/27/44 87/26/80
f 88/23/72 100/22/39 102/22/48 90/23/75
f 106/2/64 105/37/64 67/30/64 60/5/64
f 61/2/64 106/2/64 60/5/64 62/3/64
f 108/34/64 107/33/64 105/37/64 106/2/64
f 107/33/64 79/33/64 66/28/64 105/37/64
f 72/34/64 108/34/64 106/2/64 61/2/64
f 73/36/64 78/31/64 107/33/64 108/34/64
f 78/31/64 80/32/64 79/33/64 107/33/64
f 74/35/64 73/36/64 108/34/64 72/34/64
f 111/48/66 77/48/66 75/49/66 76/12/66
f 112/40/66 58/40/66 77/48/66 111/48/66
f 70/48/66 109/48/66 71/12/66 69/49/66
f 65/40/66 110/40/66 109/48/66 70/48/66
f 63/41/66 64/44/66 110/40/66 65/40/66
f 59/44/66 57/41/66 58/40/66 112/40/66
f 110/40/66 112/40/66 111/48/66 109/48/66
f 109/48/66 111/48/66 76/12/66 71/12/66
f 64/44/66 59/44/66 112/40/66 110/40/66
f 150/1/1 117/2/2 118/3/3 151/4/4
f 151/4/5 118/3/6 116/5/7 149/6/8
f 148/55/83 147/56/84 114/40/85 113/41/86
f 145/55/87 144/57/88 120/44/89 119/41/90
f 144/57/88 146/57/91 115/44/92 120/44/89
f 142/58/19 141/59/20 126/48/21 125/49/22
f 147/56/84 137/59/23 133/48/24 114/40/85
f 137/59/23 139/58/25 131/49/26 133/48/24
f 139/58/27 138/60/28 132/12/29 131/49/30
f 146/57/91 148/55/93 113/41/94 115/44/92
f 153/1/33 141/19/20 142/20/19 154/4/34
f 154/4/35 142/20/36 140/21/37 152/6/38
f 156/22/95 144/23/88 145/24/87 157/25/96
f 157/25/97 145/24/98 143/26/99 155/27/100
f 159/27/101 147/26/84 148/24/83 160/25/102
f 160/25/103 148/24/93 146/23/91 158/22/104
f 137/19/23 150/1/1 151/4/4 139/20/25
f 139/20/27 151/4/5 149/6/8 138/21/28
f 122/28/49 153/1/33 154/4/34 124/29/50
f 124/29/51 154/4/35 152/6/38 123/30/52
f 134/31/53 156/22/95 157/25/96 136/32/54
f 136/32/55 157/25/97 155/27/100 135/33/56
f 128/34/57 159/27/101 160/25/102 130/35/58
f 130/35/59 160/25/103 158/22/104 129/36/60
f 138/60/28 140/60/37 127/12/61 132/12/29
f 143/56/99 145/55/98 119/41/105 121/40/106
f 159/27/101 128/34/57 117/2/2 150/1/1
f 149/6/8 116/5/7 123/30/52 152/6/38
f 161/37/64 122/28/64 124/29/64 123/30/64
f 140/60/37 142/58/36 125/49/65 127/12/61
f 153/1/33 122/28/49 135/33/56 155/27/100
f 141/59/20 143/56/99 121/40/106 126/48/21
f 156/22/95 134/31/53 129/36/60 158/22/104
f 138/21/28 149/6/8 152/6/38 140/21/37
f 147/26/84 159/27/101 150/1/1 137/19/23
f 141/19/20 153/1/33 155/27/100 143/26/99
f 144/23/88 156/22/95 158/22/104 146/23/91
f 162/2/64 161/37/64 123/30/64 116/5/64
f 117/2/64 162/2/64 116/5/64 118/3/64
f 164/34/64 163/33/64 161/37/64 162/2/64
f 163/33/64 135/33/64 122/28/64 161/37/64
f 128/34/64 164/34/64 162/2/64 117/2/64
f 129/36/64 134/31/64 163/33/64 164/34/64
f 134/31/64 136/32/64 135/33/64 163/33/64
f 130/35/64 129/36/64 164/34/64 128/34/64
f 167/48/66 133/48/66 131/49/66 132/12/66
f 168/40/66 114/40/66 133/48/66 167/48/66
f 126/48/66 165/48/66 127/12/66 125/49/66
f 121/40/66 166/40/66 165/48/66 126/48/66
f 119/41/66 120/44/66 166/40/66 121/40/66
f 115/44/66 113/41/66 114/40/66 168/40/66
f 166/40/66 168/40/66 167/48/66 165/48/66
f 165/48/66 167/48/66 132/12/66 127/12/66
f 120/44/66 115/44/66 168/40/66 166/40/66
f 206/1/1 173/2/2 174/3/3 207/4/4
f 207/4/5 174/3/6 172/5/7 205/6/8
f 204/61/9 203/62/10 170/63/11 169/64/12
f 201/61/13 200/65/14 176/66/15 175/64/16
f 200/65/14 202/65/17 171/66/18 176/66/15
f 198/67/19 197/68/20 182/69/21 181/70/22
f 203/62/10 193/68/23 189/69/24 170/63/11
f 193/68/23 195/67/25 187/70/26 189/69/24
f 195/67/27 194/71/28 188/72/29 187/70/30
f 202/65/17 204/61/31 169/64/32 171/66/18
f 209/1/33 197/19/20 198/20/19 210/4/34
f 210/4/35 198/20/36 196/21/37 208/6/38
f 212/22/39 200/23/14 201/24/13 213/25/40
f 213/25/41 201/24/42 199/26/43 211/27/44
f 215/27/45 203/26/10 204/24/9 216/25/46
f 216/25/47 204/24/31 202/23/17 214/22/48
f 193/19/23 206/1/1 207/4/4 195/20/25
f 195/20/27 207/4/5 205/6/8 194/21/28
f 178/28/49 209/1/33 210/4/34 180/29/50
f 180/29/51 210/4/35 208/6/38 179/30/52
f 190/31/53 212/22/39 213/25/40 192/32/54
f 192/32/107 213/25/41 211/27/44 191/33/56
f 184/34/57 215/27/45 216/25/46 186/35/58
f 186/35/59 216/25/47 214/22/48 185/36/60
f 194/71/28 196/71/37 183/72/61 188/72/29
f 199/62/43 201/61/42 175/64/62 177/63/63
f 215/27/45 184/34/57 173/2/2 206/1/1
f 205/6/8 172/5/7 179/30/52 208/6/38
f 217/37/64 178/28/64 180/29/64 179/30/64
f 196/71/37 198/67/36 181/70/65 183/72/61
f 209/1/33 178/28/49 191/33/56 211/27/44
f 197/68/20 199/62/43 177/63/63 182/69/21
f 212/22/39 190/31/53 185/36/60 214/22/48
f 194/21/28 205/6/8 208/6/38 196/21/37
f 203/26/10 215/27/45 206/1/1 193/19/23
f 197/19/20 209/1/33 211/27/44 199/26/43
f 200/23/14 212/22/39 214/22/48 202/23/17
f 218/2/64 217/37/64 179/30/64 172/5/64
f 173/2/64 218/2/64 172/5/64 174/3/64
f 220/34/64 219/33/64 217/37/64 218/2/64
f 219/33/64 191/33/64 178/28/64 217/37/64
f 184/34/64 220/34/64 218/2/64 173/2/64
f 185/36/64 190/31/64 219/33/64 220/34/64
f 190/31/64 192/32/64 191/33/64 219/33/64
f 186/35/64 185/36/64 220/34/64 184/34/64
f 223/69/66 189/69/66 187/70/66 188/72/66
f 224/63/66 170/63/66 189/69/66 223/69/66
f 182/69/66 221/69/66 183/72/66 181/70/66
f 177/63/66 222/63/66 221/69/66 182/69/66
f 175/64/66 176/66/66 222/63/66 177/63/66
f 171/66/66 169/64/66 170/63/66 224/63/66
f 222/63/66 224/63/66 223/69/66 221/69/66
f 221/69/66 223/69/66 188/72/66 183/72/66
f 176/66/66 171/66/66 224/63/66 222/63/66
f 262/1/1 229/2/2 230/3/3 263/4/4
f 263/4/5 230/3/6 228/5/7 261/6/8
f 260/73/9 259/74/10 226/75/11 225/76/12
f 257/73/13 256/77/14 232/78/15 231/76/16
f 256/77/14 258/77/17 227/78/18 232/78/15
f 254/79/19 253/80/20 238/81/21 237/82/22
f 259/74/10 249/80/23 245/81/24 226/75/11
f 249/80/23 251/79/25 243/82/26 245/81/24
f 251/79/27 250/83/28 244/84/29 243/82/30
f 258/77/17 260/73/31 225/76/32 227/78/18
f 265/1/33 253/19/20 254/20/19 266/4/34
f 266/4/35 254/20/36 252/21/37 264/6/38
f 268/22/39 256/23/14 257/24/13 269/25/40
f 269/25/41 257/24/42 255/26/43 267/27/44
f 271/27/45 259/26/10 260/24/9 272/25/46
f 272/25/47 260/24/31 258/23/17 270/22/48
f 249/19/23 262/1/1 263/4/4 251/20/25
f 251/20/27 263/4/5 261/6/8 250/21/28
f 234/28/49 265/1/33 266/4/34 236/29/50
f 236/29/51 266/4/35 264/6/38 235/30/52
f 246/31/53 268/22/39 269/25/40 248/32/54
f 248/32/55 269/25/41 267/27/44 247/33/56
f 240/34/57 271/27/45 272/25/46 242/35/108
f 242/35/109 272/25/47 270/22/48 241/36/60
f 250/83/28 252/83/37 239/84/61 244/84/29
f 255/74/43 257/73/42 231/76/62 233/75/63
f 271/27/45 240/34/57 229/2/2 262/1/1
f 261/6/8 228/5/7 235/30/52 264/6/38
f 273/37/64 234/28/64 236/29/64 235/30/64
f 252/83/37 254/79/36 237/82/65 239/84/61
f 265/1/33 234/28/49 247/33/56 267/27/44
f 253/80/20 255/74/43 233/75/63 238/81/21
f 268/22/39 246/31/53 241/36/60 270/22/48
f 250/21/28 261/6/8 264/6/38 252/21/37
f 259/26/10 271/27/45 262/1/1 249/19/23
f 253/19/20 265/1/33 267/27/44 255/26/43
f 256/23/14 268/22/39 270/22/48 258/23/17
f 274/2/64 273/37/64 235/30/64 228/5/64
f 229/2/64 274/2/64 228/5/64 230/3/64
f 276/34/64 275/33/64 273/37/64 274/2/64
f 275/33/64 247/33/64 234/28/64 273/37/64
f 240/34/64 276/34/64 274/2/64 229/2/64
f 241/36/64 246/31/64 275/33/64 276/34/64
f 246/31/64 248/32/64 247/33/64 275/33/64
f 242/35/64 241/36/64 276/34/64 240/34/64
f 279/81/66 245/81/66 243/82/66 244/84/66
f 280/75/66 226/75/66 245/81/66 279/81/66
f 238/81/66 277/81/66 239/84/66 237/82/66
f 233/75/66 278/75/66 277/81/66 238/81/66
f 231/76/66 232/78/66 278/75/66 233/75/66
f 227/78/66 225/76/66 226/75/66 280/75/66
f 278/75/66 280/75/66 279/81/66 277/81/66
f 277/81/66 279/81/66 244/84/66 239/84/66
f 232/78/66 227/78/66 280/75/66 278/75/66
