# Blender 5.0.1
# www.blender.org
o GEO_GroundTile
v -10.025485 -2.013760 -10.025485
v -10.087011 -2.013760 -10.000000
v -10.000000 -2.013760 -10.087011
v -13.920601 -0.013760 -10.165948
v -13.834052 -0.013760 -10.079400
v -13.895251 -0.013760 -10.104749
v -10.025485 -2.013760 -13.974515
v -10.000000 -2.013760 -13.912989
v -10.087011 -2.013760 -14.000000
v -13.834052 -0.013760 -13.920601
v -13.920600 -0.013760 -13.834052
v -13.895251 -0.013760 -13.895251
v -13.974515 -2.013760 -13.974515
v -13.912989 -2.013760 -14.000000
v -14.000000 -2.013760 -13.912989
v -10.165948 -0.013760 -10.079399
v -10.079400 -0.013760 -10.165948
v -10.104749 -0.013760 -10.104749
v -13.974515 -2.013760 -10.025485
v -14.000000 -2.013760 -10.087011
v -13.912989 -2.013760 -10.000000
v -10.079399 -0.013760 -13.834052
v -10.165948 -0.013760 -13.920600
v -10.104749 -0.013760 -13.895251
v -13.912989 -0.120803 -10.000000
v -14.000000 -0.120803 -10.087011
v -13.974515 -0.120803 -10.025485
v -14.000000 -0.120803 -13.912989
v -13.912989 -0.120803 -14.000000
v -13.974515 -0.120803 -13.974515
v -10.087011 -0.120803 -14.000000
v -10.000000 -0.120803 -13.912989
v -10.025485 -0.120803 -13.974515
v -10.000000 -0.120803 -10.087011
v -10.087011 -0.120803 -10.000000
v -10.025485 -0.120803 -10.025485
v -13.969804 -0.067282 -10.116569
v -13.883431 -0.067282 -10.030196
v -13.944506 -0.067282 -10.055494
v -13.969804 -0.067282 -13.883431
v -13.883431 -0.067282 -13.969804
v -13.944506 -0.067282 -13.944506
v -10.116569 -0.067282 -13.969804
v -10.030196 -0.067282 -13.883431
v -10.055494 -0.067282 -13.944506
v -10.030196 -0.067282 -10.116569
v -10.116569 -0.067282 -10.030196
v -10.055494 -0.067282 -10.055494
v -13.834053 -0.013760 -13.834052
v -13.834052 -0.013760 -10.165948
v -10.165948 -0.013760 -13.834052
v -10.165948 -0.013760 -10.165948
v -13.912989 -2.013760 -13.912989
v -10.087011 -2.013760 -13.912989
v -13.912989 -2.013760 -10.087011
v -10.087011 -2.013760 -10.087011
vn -0.1438 0.6401 0.7547
vn -0.0910 0.7182 0.6899
vn -0.2447 0.7689 0.5908
vn -0.2845 0.6689 0.6868
vn -0.6868 0.6689 0.2845
vn -0.5908 0.7689 0.2447
vn -0.6899 0.7182 0.0910
vn -0.7547 0.6401 0.1438
vn 0.3668 0.2851 0.8855
vn 0.2031 0.2837 0.9372
vn 0.1951 -0.0000 0.9808
vn 0.3827 -0.0000 0.9239
vn 0.8855 0.2851 -0.3668
vn 0.9372 0.2837 -0.2031
vn 0.9808 -0.0000 -0.1951
vn 0.9239 -0.0000 -0.3827
vn 0.9372 0.2837 0.2031
vn 0.9808 -0.0000 0.1951
vn -0.3668 0.2851 -0.8855
vn -0.2031 0.2837 -0.9372
vn -0.1951 -0.0000 -0.9808
vn -0.3827 -0.0000 -0.9239
vn -0.2031 0.2837 0.9372
vn -0.1951 -0.0000 0.9808
vn -0.3668 0.2851 0.8855
vn -0.3827 -0.0000 0.9239
vn -0.8855 0.2851 0.3668
vn -0.9372 0.2837 0.2031
vn -0.9808 -0.0000 0.1951
vn -0.9239 -0.0000 0.3827
vn 0.8855 0.2851 0.3668
vn 0.9239 -0.0000 0.3827
vn -0.1438 0.6401 -0.7547
vn -0.2845 0.6689 -0.6868
vn -0.6868 0.6689 -0.2845
vn -0.8855 0.2851 -0.3668
vn -0.9372 0.2837 -0.2031
vn -0.7547 0.6401 -0.1438
vn 0.7547 0.6401 -0.1438
vn 0.6868 0.6689 -0.2845
vn 0.2845 0.6689 -0.6868
vn 0.3668 0.2851 -0.8855
vn 0.2031 0.2837 -0.9372
vn 0.1438 0.6401 -0.7547
vn 0.1438 0.6401 0.7547
vn 0.2845 0.6689 0.6868
vn 0.6868 0.6689 0.2845
vn 0.7547 0.6401 0.1438
vn -0.0910 0.7182 -0.6899
vn -0.2447 0.7689 -0.5908
vn -0.5908 0.7689 -0.2447
vn -0.6899 0.7182 -0.0910
vn 0.6899 0.7182 -0.0910
vn 0.5908 0.7689 -0.2447
vn 0.2447 0.7689 -0.5908
vn 0.0910 0.7182 -0.6899
vn 0.0910 0.7182 0.6899
vn 0.2447 0.7689 0.5908
vn 0.5908 0.7689 0.2447
vn 0.6899 0.7182 0.0910
vn -0.9808 -0.0000 -0.1951
vn 0.3827 -0.0000 -0.9239
vn 0.1951 -0.0000 -0.9808
vn -0.0000 1.0000 -0.0000
vn -0.9239 -0.0000 -0.3827
vn -0.0000 -1.0000 -0.0000
vt 0.129500 0.542354
vt 0.129518 0.543042
vt 0.129495 0.543042
vt 0.129477 0.542354
vt 0.129486 0.543042
vt 0.129468 0.542354
vt 0.130917 0.541666
vt 0.130894 0.541666
vt 0.130926 0.541666
vt 0.129466 0.541666
vt 0.129489 0.541666
vt 0.129457 0.541666
vt 0.130915 0.542354
vt 0.130906 0.542354
vt 0.130883 0.542354
vt 0.129518 0.543042
vt 0.129495 0.543042
vt 0.129486 0.543042
vt 0.130897 0.543042
vt 0.130888 0.543042
vt 0.130865 0.543042
vt 0.130865 0.543042
vt 0.130888 0.543042
vt 0.130897 0.543042
vt 0.129518 0.543042
s 1
f 38/1/1 5/2/2 6/3/3 39/4/4
f 39/4/5 6/3/6 4/5/7 37/6/8
f 36/7/9 35/8/10 2/8/11 1/7/12
f 33/7/13 32/9/14 8/9/15 7/7/16
f 32/9/14 34/9/17 3/9/18 8/9/15
f 30/10/19 29/11/20 14/11/21 13/10/22
f 35/8/10 25/11/23 21/11/24 2/8/11
f 25/11/23 27/10/25 19/10/26 21/11/24
f 27/10/27 26/12/28 20/12/29 19/10/30
f 34/9/17 36/7/31 1/7/32 3/9/18
f 41/1/33 29/11/20 30/10/19 42/4/34
f 42/4/35 30/10/36 28/12/37 40/6/38
f 44/13/39 32/9/14 33/7/13 45/14/40
f 45/14/41 33/7/42 31/8/43 43/15/44
f 47/15/45 35/8/10 36/7/9 48/14/46
f 48/14/47 36/7/31 34/9/17 46/13/48
f 25/11/23 38/1/1 39/4/4 27/10/25
f 27/10/27 39/4/5 37/6/8 26/12/28
f 10/16/49 41/1/33 42/4/34 12/17/50
f 12/17/51 42/4/35 40/6/38 11/18/52
f 22/19/53 44/13/39 45/14/40 24/20/54
f 24/20/55 45/14/41 43/15/44 23/21/56
f 16/22/57 47/15/45 48/14/46 18/23/58
f 18/23/59 48/14/47 46/13/48 17/24/60
f 26/12/28 28/12/37 15/12/61 20/12/29
f 31/8/43 33/7/42 7/7/62 9/8/63
f 47/15/45 16/22/57 5/2/2 38/1/1
f 37/6/8 4/5/7 11/18/52 40/6/38
f 49/25/64 10/16/64 12/17/64 11/18/64
f 28/12/37 30/10/36 13/10/65 15/12/61
f 41/1/33 10/16/49 23/21/56 43/15/44
f 29/11/20 31/8/43 9/8/63 14/11/21
f 44/13/39 22/19/53 17/24/60 46/13/48
f 26/12/28 37/6/8 40/6/38 28/12/37
f 35/8/10 47/15/45 38/1/1 25/11/23
f 29/11/20 41/1/33 43/15/44 31/8/43
f 32/9/14 44/13/39 46/13/48 34/9/17
f 50/2/64 49/25/64 11/18/64 4/5/64
f 5/2/64 50/2/64 4/5/64 6/3/64
f 52/22/64 51/21/64 49/25/64 50/2/64
f 51/21/64 23/21/64 10/16/64 49/25/64
f 16/22/64 52/22/64 50/2/64 5/2/64
f 17/24/64 22/19/64 51/21/64 52/22/64
f 22/19/64 24/20/64 23/21/64 51/21/64
f 18/23/64 17/24/64 52/22/64 16/22/64
f 55/11/66 21/11/66 19/10/66 20/12/66
f 56/8/66 2/8/66 21/11/66 55/11/66
f 14/11/66 53/11/66 15/12/66 13/10/66
f 9/8/66 54/8/66 53/11/66 14/11/66
f 7/7/66 8/9/66 54/8/66 9/8/66
f 3/9/66 1/7/66 2/8/66 56/8/66
f 54/8/66 56/8/66 55/11/66 53/11/66
f 53/11/66 55/11/66 20/12/66 15/12/66
f 8/9/66 3/9/66 56/8/66 54/8/66
