# Blender 5.0.1
# www.blender.org
o GEO_DeadTree_C
v 1.409763 -0.003321 -22.409777
v 1.409763 -0.003321 -21.590223
v 0.590237 0.003321 -21.590223
v 0.590237 0.003321 -22.409777
v 0.968991 2.290367 -20.391153
v 0.826073 2.290367 -20.271008
v 0.771531 2.456727 -20.335890
v 0.914448 2.456727 -20.456034
v -0.328974 2.833586 -20.593204
v -0.427794 2.833586 -20.775999
v -0.277827 2.952396 -20.857073
v -0.179007 2.952396 -20.674278
v 0.905205 2.084650 -23.197802
v 1.094780 2.084650 -23.141907
v 1.062202 2.245248 -23.031410
v 0.872627 2.245248 -23.087303
v 2.988935 1.633561 -22.048962
v 3.002396 1.633561 -21.898769
v 3.015725 1.783760 -21.899965
v 3.002263 1.783760 -22.050156
v 1.941275 2.877125 -21.993855
v 1.983234 2.877125 -21.852966
v 1.843517 2.896046 -21.811356
v 1.801558 2.896046 -21.952244
v 0.914359 3.993355 -21.960484
v 0.834467 3.993355 -21.754787
v 0.630252 4.019781 -21.834105
v 0.710144 4.019781 -22.039801
v -0.377592 2.951009 -21.908213
v -0.367761 2.951009 -22.126179
v -0.221234 3.112538 -22.119568
v -0.231066 3.112538 -21.901604
v 1.320815 0.742273 -22.324581
v 1.320815 0.742273 -21.675419
v 0.689976 0.589129 -21.675419
v 0.689976 0.589129 -22.324581
v 0.640648 1.945781 -20.857805
v 0.422788 1.945781 -20.674658
v 0.325858 2.233869 -20.830324
v 0.557504 2.199377 -20.956707
v 2.005477 1.678407 -22.003605
v 2.026548 1.678407 -21.768515
v 2.047410 1.913507 -21.770386
v 2.026340 1.913507 -22.005474
v 0.095222 2.096565 -20.769855
v -0.047670 2.096565 -21.034172
v 0.169179 2.268361 -21.151403
v 1.089953 1.326550 -22.119371
v 1.035123 1.245696 -21.765202
v 0.842267 1.663931 -21.825716
v 0.917531 1.676000 -22.163601
v 1.597328 1.584248 -22.027163
v 1.562184 1.584248 -21.743618
v 1.448251 1.845883 -21.757740
v 1.483395 1.845883 -22.041285
v 0.802253 2.558116 -22.044655
v 0.694936 2.558116 -21.768353
v 0.430787 2.571072 -21.855196
v 0.490973 2.571072 -22.138052
v 0.696932 1.331049 -21.589088
v 0.351446 1.331049 -21.719988
v 0.462677 1.649589 -21.829760
v 0.511057 1.629032 -21.131323
v 0.187315 1.629032 -21.253984
v 0.248549 1.929009 -21.415598
v 0.572291 1.929009 -21.292936
v 0.246399 2.334057 -21.844273
v 0.259454 2.334057 -22.133680
v 0.621817 1.444117 -22.466845
v 0.936291 1.444117 -22.374126
v 0.567775 1.710524 -22.283548
v 1.022596 1.164843 -22.247667
v 0.584252 0.934171 -21.752333
v 0.584252 0.934171 -22.247667
v 1.869354 2.066990 -22.016640
v 1.935497 2.066990 -21.794544
v 1.715250 2.096817 -21.728952
v 1.649108 2.096817 -21.951046
v 0.402036 1.648005 -22.108147
v 0.757381 1.681537 -22.092995
v 0.489341 1.942514 -21.772598
v 0.389382 1.942514 -22.092657
v 0.708028 1.973979 -22.192175
v 0.807987 1.973979 -21.872116
vn -0.3348 -0.7903 0.5132
vn -0.6225 -0.6279 0.4671
vn -0.7395 -0.5415 0.3998
vn 0.0203 0.9883 -0.1510
vn 0.1102 0.9192 -0.3779
vn 0.3147 0.8235 -0.4721
vn -0.0439 0.4635 0.8850
vn 0.4124 -0.7676 0.4906
vn 0.3883 -0.7974 0.4619
vn 0.4726 -0.6787 0.5621
vn 0.9345 -0.0042 -0.3559
vn 0.9155 0.0029 -0.4024
vn 0.8056 0.0334 -0.5915
vn -0.1371 0.9309 -0.3386
vn -0.7471 0.0717 0.6609
vn 0.3336 -0.8552 0.3968
vn -0.7396 0.6722 -0.0334
vn 0.1116 0.9928 0.0434
vn 0.1234 0.9917 -0.0367
vn -0.0056 0.0264 -0.9996
vn -0.0815 -0.0749 -0.9939
vn -0.1963 -0.1723 -0.9653
vn 0.9921 -0.0887 -0.0889
vn 0.2298 0.5829 -0.7794
vn -0.5030 0.8204 0.2719
vn -0.9059 0.0995 -0.4117
vn -0.7461 0.2680 -0.6095
vn -0.8515 0.1689 -0.4965
vn -0.2294 0.1336 0.9641
vn -0.0442 0.0503 0.9978
vn -0.1915 0.0478 0.9803
vn 0.9831 -0.0375 0.1791
vn 0.9783 -0.0446 0.2022
vn 0.9883 0.0378 -0.1477
vn 0.9895 0.0366 -0.1399
vn 0.5734 0.4540 0.6820
vn 0.1612 0.0321 0.9864
vn -0.0451 0.0120 0.9989
vn -0.0478 0.0141 0.9988
vn 0.1023 0.0112 0.9947
vn 0.9071 -0.3788 -0.1837
vn 0.8747 0.2680 -0.4039
vn 0.8590 0.3805 -0.3425
vn 0.9597 0.2036 -0.1936
vn 0.0915 -0.1132 -0.9894
vn -0.4757 -0.3461 -0.8086
vn 0.2672 -0.3278 -0.9062
vn -0.3370 -0.1060 -0.9355
vn -0.1084 -0.1515 -0.9825
vn -0.0725 0.9366 0.3427
vn -0.0337 0.9825 0.1830
vn 0.0008 0.9913 0.1313
vn -0.1303 0.9728 0.1915
vn 0.2193 0.7922 -0.5696
vn 0.2157 0.7946 -0.5675
vn 0.1363 0.0674 -0.9884
vn 0.2235 0.0725 -0.9720
vn 0.6702 -0.0653 0.7393
vn 0.1293 0.0638 0.9895
vn 0.4774 0.1187 0.8706
vn 0.0834 -0.0178 0.9964
vn 0.0887 -0.0176 0.9959
vn 0.9781 -0.2035 -0.0439
vn -0.3595 -0.7495 0.5559
vn -0.2761 -0.8057 0.5240
vn -0.9192 -0.1647 -0.3577
vn -0.1952 0.9807 -0.0106
vn 0.0573 -0.0125 0.9983
vn -0.8345 0.0729 -0.5462
vn -0.8539 0.0704 -0.5156
vn -0.6494 0.0632 -0.7578
vn -0.6451 0.0626 -0.7615
vn -0.8234 -0.5650 0.0538
vn -0.8165 -0.5754 0.0483
vn -0.9547 -0.2243 0.1955
vn -0.9574 -0.2075 0.2010
vn -0.0064 0.0372 -0.9993
vn 0.0156 -0.0127 -0.9998
vn 0.1288 -0.0111 -0.9916
vn 0.0983 0.0369 -0.9945
vn 0.0909 -0.9958 0.0050
vn 0.0838 -0.9965 0.0049
vn 0.3729 -0.9277 -0.0185
vn 0.3605 -0.9326 -0.0166
vn 0.9875 -0.0333 -0.1539
vn -0.8851 -0.4056 0.2281
vn -0.4652 -0.7395 0.4866
vn -0.5037 -0.7161 0.4832
vn -0.9257 -0.3571 0.1246
vn -0.7620 0.6459 0.0467
vn -0.1379 0.1396 -0.9806
vn -0.1519 0.1311 -0.9797
vn 0.1627 0.0648 0.9845
vn 0.2263 0.0854 0.9703
vn 0.7525 0.6427 -0.1436
vn -0.0454 -0.9990 0.0041
vn 0.1321 -0.0038 0.9912
vn 0.1313 0.9913 -0.0118
vn -0.0462 -0.0038 -0.9989
vn -0.5018 0.0438 -0.8639
vn 0.7291 0.6003 -0.3286
vn 0.3451 0.0058 0.9385
vn -0.7475 -0.5271 0.4041
vn -0.2827 0.9587 -0.0316
vn 0.1966 -0.0015 -0.9805
vn 0.9281 -0.0936 0.3605
vn -0.3322 0.0277 0.9428
vn -0.9506 0.1486 -0.2726
vn 0.3192 0.0233 -0.9474
vn -0.9012 0.0632 -0.4287
vn 0.0670 0.8794 -0.4714
vn 0.9028 -0.0245 0.4294
vn -0.7011 -0.7124 -0.0316
vn -0.0080 0.0132 -0.9999
vn 0.6156 0.7833 0.0861
vn -0.0434 0.0469 0.9980
vn 0.1793 -0.7733 -0.6081
vn 0.9848 -0.0128 0.1731
vn -0.1173 0.8429 0.5251
vn -0.9424 0.0376 -0.3324
vn 0.9486 0.3158 -0.0223
vn 0.9487 0.3153 -0.0222
vn 0.9930 0.1185 -0.0000
vn -0.0349 0.1454 0.9888
vn -0.0340 0.1447 0.9889
vn -0.0128 0.1270 0.9918
vn -0.9993 -0.0371 -0.0000
vn -0.9858 0.1678 -0.0000
vn -0.0340 0.1447 -0.9889
vn -0.0128 0.1270 -0.9918
vn 0.9556 -0.0768 -0.2846
vn 0.2915 0.0517 0.9552
vn -0.9427 0.1802 0.2807
vn -0.2786 0.0517 -0.9590
vn -0.9624 0.1230 0.2421
vn -0.9538 0.1917 0.2314
vn -0.9033 0.3825 0.1946
vn 0.9527 0.0602 -0.2980
vn 0.1365 -0.0160 0.9905
vt 0.103549 0.368349
vt 0.103860 0.376512
vt 0.103238 0.376566
vt 0.105071 0.378811
vt 0.106025 0.378124
vt 0.104442 0.379471
vt 0.105054 0.373766
vt 0.106001 0.373683
vt 0.104956 0.368226
vt 0.107968 0.382462
vt 0.107952 0.379549
vt 0.107347 0.382517
vt 0.107331 0.379604
vt 0.103987 0.394299
vt 0.104029 0.394296
vt 0.103147 0.391543
vt 0.103104 0.391547
vt 0.109458 0.409714
vt 0.109110 0.409745
vt 0.109958 0.409208
vt 0.110305 0.409177
vt 0.112492 0.389763
vt 0.112674 0.389747
vt 0.113253 0.389365
vt 0.113070 0.389381
vt 0.104935 0.380579
vt 0.106337 0.374148
vt 0.104904 0.373722
vt 0.116019 0.369968
vt 0.116077 0.369963
vt 0.115791 0.367357
vt 0.115732 0.367362
vt 0.107464 0.378801
vt 0.108289 0.378729
vt 0.108186 0.375925
vt 0.107362 0.375997
vt 0.103969 0.391495
vt 0.103540 0.391533
vt 0.102707 0.389524
vt 0.103137 0.389487
vt 0.105156 0.364969
vt 0.104511 0.368597
vt 0.105326 0.369621
vt 0.106040 0.384634
vt 0.104878 0.380584
vt 0.107168 0.384308
vt 0.107635 0.384267
vt 0.106771 0.374110
vt 0.110901 0.375900
vt 0.109359 0.371639
vt 0.109456 0.367047
vt 0.111618 0.368508
vt 0.107012 0.362747
vt 0.106523 0.364849
vt 0.106794 0.368888
vt 0.106473 0.359961
vt 0.104217 0.356117
vt 0.106106 0.369045
vt 0.105678 0.373418
vt 0.104271 0.373541
vt 0.106301 0.384611
vt 0.105310 0.362974
vt 0.106651 0.361362
vt 0.106448 0.368706
vt 0.105338 0.373684
vt 0.103809 0.363106
vt 0.111975 0.372595
vt 0.111526 0.368516
vt 0.109609 0.367034
vt 0.109512 0.371626
vt 0.110614 0.375926
vt 0.111526 0.375323
vt 0.112066 0.372587
vt 0.111813 0.375298
vt 0.104777 0.368601
vt 0.107126 0.352501
vt 0.106379 0.339504
vt 0.104152 0.350078
vt 0.102827 0.339931
s 1
f 64/1/1 45/2/2 46/3/3
f 39/4/4 40/5/5 47/6/6
f 38/7/7 39/4/7 45/2/7
f 37/8/8 38/7/9 63/9/10
f 37/8/11 40/5/12 8/10/13 5/11/13
f 40/5/5 39/4/4 7/12/14 8/10/14
f 39/4/15 38/7/15 6/13/15 7/12/15
f 38/7/9 37/8/8 5/11/16 6/13/16
f 32/14/17 31/15/17 30/16/17 29/17/17
f 28/18/18 27/19/18 26/20/18 25/21/18
f 24/22/19 23/23/19 22/24/19 21/25/19
f 68/26/20 83/27/21 82/28/22
f 20/29/23 19/30/23 18/31/23 17/32/23
f 16/33/24 15/34/24 14/35/24 13/36/24
f 12/37/25 11/38/25 10/39/25 9/40/25
f 69/41/26 79/42/27 71/43/28
f 58/44/29 67/45/30 57/46/31
f 56/47/32 57/46/33 84/48/34 83/27/35
f 8/10/36 7/12/36 6/13/36 5/11/36
f 77/49/37 54/50/38 53/51/39 42/52/40
f 48/53/41 70/54/42 51/55/43
f 48/53/41 72/56/44 70/54/42
f 72/56/45 69/41/46 70/54/47
f 72/56/45 74/57/48 69/41/46
f 80/58/49 79/42/49 82/28/22 83/27/21
f 71/43/50 79/42/51 80/58/52 51/55/53
f 40/5/5 66/59/54 65/60/55 47/6/6
f 59/61/56 56/47/57 83/27/21 68/26/20
f 60/62/58 49/63/59 50/64/60
f 57/46/31 67/45/30 81/65/61 84/48/62
f 49/63/63 72/56/44 48/53/41
f 38/7/64 45/2/2 64/1/1 63/9/65
f 74/57/48 61/66/66 79/42/66 69/41/46
f 51/55/53 80/58/52 50/64/67
f 73/57/68 49/63/59 60/62/58
f 65/60/69 64/1/70 46/3/71 47/6/72
f 67/45/73 68/26/74 82/28/75 81/65/76
f 44/67/77 41/68/78 52/69/79 55/70/80
f 41/68/81 42/52/82 53/51/83 52/69/84
f 37/8/11 63/9/85 66/59/85 40/5/12
f 73/57/86 60/62/87 61/66/88 74/57/89
f 78/71/90 55/70/90 54/50/90 77/49/90
f 75/72/91 44/67/77 55/70/80 78/71/92
f 43/73/93 76/74/94 77/49/37 42/52/40
f 44/67/95 75/72/95 76/74/95 43/73/95
f 42/52/82 41/68/81 17/32/96 18/31/96
f 43/73/93 42/52/40 18/31/97 19/30/97
f 44/67/98 43/73/98 19/30/98 20/29/98
f 41/68/78 44/67/77 20/29/99 17/32/99
f 46/3/71 10/39/100 11/38/100 47/6/72
f 47/6/101 11/38/101 12/37/101 39/4/101
f 39/4/102 12/37/102 9/40/102 45/2/102
f 52/69/84 53/51/83 49/63/63 48/53/41
f 45/2/2 9/40/103 10/39/103 46/3/3
f 53/51/39 54/50/38 50/64/60 49/63/59
f 54/50/104 55/70/104 51/55/53 50/64/67
f 55/70/80 52/69/79 48/53/105 51/55/105
f 57/46/33 56/47/32 25/21/106 26/20/106
f 58/44/29 57/46/31 26/20/107 27/19/107
f 59/61/108 58/44/108 27/19/108 28/18/108
f 56/47/57 59/61/56 28/18/109 25/21/109
f 64/1/70 65/60/69 62/75/110 61/66/110
f 65/60/55 66/59/54 50/64/111 62/75/111
f 66/59/112 63/9/112 60/62/58 50/64/60
f 68/26/74 67/45/73 29/17/113 30/16/113
f 59/61/56 68/26/20 30/16/114 31/15/114
f 58/44/115 59/61/115 31/15/115 32/14/115
f 67/45/30 58/44/29 32/14/116 29/17/116
f 63/9/65 64/1/1 61/66/88 60/62/87
f 70/54/117 69/41/117 13/36/117 14/35/117
f 51/55/118 70/54/118 14/35/118 15/34/118
f 71/43/50 51/55/53 15/34/119 16/33/119
f 69/41/26 71/43/28 16/33/120 13/36/120
f 33/76/121 34/76/122 2/77/123 1/77/123
f 34/76/124 35/78/125 3/79/126 2/77/126
f 35/78/127 36/78/127 4/79/128 3/79/128
f 36/78/129 33/76/129 1/77/130 4/79/130
f 72/56/44 49/63/63 34/76/122 33/76/121
f 49/63/59 73/57/68 35/78/125 34/76/124
f 73/57/86 74/57/89 36/78/127 35/78/127
f 74/57/48 72/56/45 33/76/129 36/78/129
f 76/74/131 75/72/131 21/25/131 22/24/131
f 77/49/37 76/74/94 22/24/132 23/23/132
f 78/71/133 77/49/133 23/23/133 24/22/133
f 75/72/91 78/71/92 24/22/134 21/25/134
f 81/65/76 82/28/75 79/42/135 62/75/136
f 62/75/136 79/42/135 61/66/137
f 83/27/35 84/48/34 50/64/138 80/58/138
f 84/48/62 81/65/61 62/75/139 50/64/139
