# Blender 5.0.1
# www.blender.org
o GEO_DeadTree_B
v 7.644701 0.519742 -20.793375
v 7.638037 0.452772 -21.214159
v 8.054748 0.363977 -21.206625
v 8.061411 0.430947 -20.785841
v 6.686268 2.701483 -20.912394
v 6.687358 2.701483 -21.096266
v 6.790683 2.853579 -21.095652
v 6.789593 2.853579 -20.911781
v 7.670742 3.375962 -21.443897
v 7.791999 3.375962 -21.347639
v 7.702572 3.433247 -21.234989
v 7.581315 3.433247 -21.331247
v 7.579013 -0.100092 -20.722271
v 7.579013 -0.100092 -21.277729
v 8.134424 -0.092876 -21.277729
v 8.134424 -0.092876 -20.722271
v 8.344348 2.903907 -19.540089
v 8.170869 2.903907 -19.473045
v 8.118450 3.019859 -19.608681
v 8.291929 3.019859 -19.675724
v 9.390535 3.067967 -21.382257
v 9.464717 3.067967 -21.284752
v 9.382171 3.133179 -21.221951
v 9.307989 3.133179 -21.319458
v 8.357782 2.174053 -22.147871
v 8.637548 2.261457 -22.161407
v 8.596524 2.429477 -21.924389
v 8.316758 2.342073 -21.910851
v 7.782409 2.855702 -22.565624
v 7.931580 2.964492 -22.613211
v 7.912001 3.062391 -22.450777
v 7.762830 2.953600 -22.403191
v 9.804729 2.182834 -21.124157
v 9.804729 2.182834 -20.875841
v 9.804729 2.431150 -20.875841
v 9.804729 2.431150 -21.124157
v 9.073189 2.363945 -20.280617
v 9.078507 2.363945 -20.162895
v 9.050099 2.478305 -20.161612
v 9.044781 2.478305 -20.279333
v 9.326254 1.710390 -21.974474
v 9.421382 1.710390 -21.785738
v 9.366636 1.912657 -21.758144
v 9.271509 1.912657 -21.946880
v 8.082430 1.366435 -21.121572
v 8.058892 1.257476 -21.463455
v 8.385304 1.108673 -21.438503
v 8.408842 1.217632 -21.096621
v 8.092010 1.526082 -21.057217
v 7.978286 1.538337 -21.394854
v 8.187031 1.796720 -21.463408
v 8.375088 1.795270 -21.127180
v 7.794764 1.713647 -21.317556
v 7.985671 1.955987 -21.392002
v 8.114854 1.871170 -21.133018
v 7.554843 2.045949 -20.894224
v 7.446896 2.045949 -21.171038
v 7.625627 2.272832 -21.240736
v 7.733574 2.272832 -20.963923
v 8.681490 1.659255 -21.340496
v 8.558640 1.608187 -21.059938
v 8.513521 1.812076 -21.424288
v 9.006387 2.023417 -21.153725
v 8.866437 2.023417 -20.905981
v 8.680774 2.211812 -21.010860
v 8.820724 2.211812 -21.258606
v 8.385419 1.513827 -20.937962
v 8.161656 1.931375 -20.283499
v 7.923096 1.931375 -20.353134
v 7.956767 2.148910 -20.468483
v 8.195327 2.148910 -20.398846
v 7.127259 2.359282 -20.874651
v 7.128766 2.359282 -21.128777
v 7.291930 2.603526 -21.100000
v 7.270063 2.569492 -20.873804
v 7.458974 2.543597 -21.256847
v 7.657865 2.543597 -21.098959
v 7.511182 2.637559 -20.914185
v 8.187259 2.276094 -19.993086
v 7.982496 2.276094 -19.913952
v 7.920625 2.412956 -20.074047
v 8.125388 2.412956 -20.153181
v 9.119847 2.493363 -21.239536
v 9.229434 2.465933 -21.096731
v 9.104612 2.612131 -20.947575
v 8.969508 2.612131 -21.125160
v 8.246203 1.596114 -21.702570
v 8.538732 1.653219 -21.628075
v 9.203916 2.175482 -21.131510
v 9.203916 2.175482 -20.868488
v 9.203916 2.438503 -20.868488
v 8.263583 2.118492 -20.287182
v 8.272794 2.118492 -20.083344
v 8.223604 2.316509 -20.081120
v 8.214395 2.316509 -20.284960
v 8.589042 1.418354 -21.655382
v 8.726357 1.418354 -21.382944
v 7.978286 1.538337 -21.394854
v 8.187031 1.796720 -21.463408
v 7.912102 1.705236 -21.046717
vn -0.8916 0.2283 -0.3910
vn -0.8902 0.1361 -0.4348
vn -0.7596 0.1400 -0.6351
vn -0.7482 -0.0532 -0.6614
vn -0.9371 -0.3087 0.1629
vn -0.9517 -0.1637 0.2597
vn -0.8391 -0.4950 0.2256
vn -0.8488 -0.4443 0.2865
vn 0.2301 0.9290 -0.2898
vn -0.4485 0.2130 -0.8680
vn -0.5203 0.0451 -0.8528
vn -0.1959 0.0553 -0.9791
vn 0.3403 0.0620 0.9383
vn 0.4865 0.1286 0.8642
vn 0.3531 0.0506 0.9342
vn 0.3274 0.0808 0.9414
vn 0.3562 0.9284 -0.1061
vn 0.0788 0.6074 -0.7905
vn 0.7761 0.4839 -0.4043
vn 0.7542 0.5550 -0.3509
vn -0.3641 0.0128 -0.9313
vn -0.3146 -0.0705 -0.9466
vn -0.3059 -0.0817 -0.9486
vn -0.1084 0.0908 -0.9900
vn -0.1748 0.0754 -0.9817
vn 0.2146 0.1580 -0.9638
vn 0.8246 0.5433 0.1575
vn 0.1083 0.8376 -0.5354
vn -0.2519 0.7154 -0.6517
vn -0.2080 0.7399 -0.6398
vn 0.7194 0.5881 -0.3695
vn 0.4147 -0.1913 -0.8896
vn 0.6269 -0.2815 -0.7265
vn 0.7620 -0.2206 -0.6089
vn -0.1380 0.2714 -0.9525
vn -0.3508 0.0126 -0.9364
vn 0.7214 -0.6856 0.0973
vn 0.8423 -0.5290 0.1031
vn 0.4869 -0.8383 -0.2454
vn -0.9623 0.2701 -0.0324
vn -0.9621 0.2709 -0.0326
vn -0.9944 0.1057 -0.0005
vn 0.0328 0.2224 0.9744
vn 0.0330 0.2231 0.9742
vn 0.0663 0.3357 0.9396
vn 0.9942 -0.1063 0.0166
vn 0.9940 -0.1079 0.0168
vn 0.8309 -0.4947 0.2546
vn -0.0124 -0.0631 -0.9979
vn -0.0121 -0.0615 -0.9980
vn -0.1002 -0.3915 -0.9147
vn -0.1025 -0.3962 -0.9124
vn -0.8946 0.4419 -0.0665
vn 0.8306 -0.3496 0.4334
vn 0.9053 0.0957 0.4138
vn 0.0200 0.7241 -0.6894
vn -0.2510 0.9605 0.1203
vn 0.2021 0.9726 0.1150
vn 0.1512 0.9816 0.1168
vn -0.3458 0.0899 0.9340
vn -0.0567 -0.0000 0.9984
vn -0.1710 0.0938 0.9808
vn 0.8546 0.2901 -0.4307
vn 0.9695 0.2413 -0.0438
vn 1.0000 -0.0000 -0.0000
vn -0.6143 0.6409 -0.4603
vn 0.4236 0.8466 -0.3223
vn 0.2247 0.7819 0.5815
vn -0.6382 0.5974 0.4855
vn -0.4180 0.1665 0.8931
vn -0.5598 0.4808 0.6749
vn -0.6236 -0.7585 0.1891
vn -0.6239 -0.7790 0.0621
vn -0.6243 -0.7785 0.0650
vn -0.6247 -0.7594 0.1817
vn -0.0000 1.0000 -0.0000
vn 0.1776 -0.6280 0.7576
vn 0.0770 -0.6607 0.7467
vn 0.3227 -0.4457 0.8350
vn 0.8659 0.2100 0.4539
vn 0.7449 0.6081 0.2746
vn 0.8268 0.4204 0.3738
vn 0.9030 -0.2612 -0.3410
vn 0.9914 -0.0155 -0.1299
vn 0.8580 0.2183 -0.4650
vn 0.2280 0.7351 -0.6384
vn 0.5187 0.0935 0.8498
vn 0.0357 0.0211 0.9991
vn 0.0203 0.0235 0.9995
vn -0.1545 -0.5043 -0.8496
vn -0.1851 -0.8224 0.5380
vn -0.1497 -0.8056 0.5732
vn -0.0654 0.9860 -0.1531
vn -0.3125 0.9127 -0.2631
vn -0.8272 0.5619 -0.0049
vn -0.9946 -0.0088 -0.1035
vn -0.9737 -0.0084 0.2277
vn -0.9789 -0.0124 0.2042
vn -0.9954 -0.0103 -0.0948
vn 0.3798 -0.1245 -0.9167
vn 0.3876 -0.1145 -0.9147
vn 0.0808 0.4911 -0.8674
vn -0.6110 0.2712 -0.7437
vn -0.6096 0.2599 -0.7489
vn -0.6657 0.5414 -0.5136
vn -0.6769 0.5714 -0.4641
vn -0.2569 -0.6827 0.6840
vn -0.2644 -0.6553 0.7076
vn -0.3085 -0.4256 0.8507
vn 0.5795 -0.7903 0.1991
vn 0.2612 -0.9627 0.0699
vn 0.2466 -0.9669 0.0658
vn 0.6035 -0.7676 0.2160
vn 0.6725 0.1443 0.7259
vn 0.7427 -0.0203 -0.6693
vn 0.7094 -0.1021 -0.6974
vn 0.5461 0.0760 0.8343
vn 0.8798 0.0944 0.4659
vn 0.7842 0.0905 0.6138
vn 0.9861 -0.1653 0.0175
vn 0.8475 -0.4666 -0.2531
vn 0.6274 0.7613 0.1637
vn -0.4143 0.0098 0.9101
vn 0.4780 0.0097 -0.8783
vn -0.9707 0.0160 -0.2399
vn -0.6129 -0.7902 -0.0036
vn 0.0052 0.0704 -0.9975
vn 0.4729 0.8755 0.0991
vn -0.0580 0.0354 0.9977
vn 0.5897 -0.3170 -0.7428
vn 0.7950 0.0525 0.6044
vn -0.6057 0.4106 0.6816
vn -0.7151 0.0400 -0.6979
vn 0.0188 0.1326 -0.9910
vn 0.9879 0.1540 -0.0173
vn 0.0021 0.1170 0.9931
vn -0.6334 -0.7381 0.2324
vn -0.6353 -0.7367 0.2315
vn 0.2866 -0.6067 0.7415
vn -0.9278 0.0166 0.3727
vn -0.2770 0.6399 -0.7168
vn 0.9373 0.0166 -0.3481
vn 0.6819 -0.4543 -0.5733
vn 0.7011 -0.0268 0.7126
vn -0.6389 0.5963 0.4861
vn -0.5708 0.0656 -0.8184
vn 0.2398 -0.6428 -0.7275
vn 0.1677 -0.5631 -0.8092
vn 0.1674 -0.5627 -0.8095
vn 0.9873 -0.0132 0.1581
vn -0.1405 0.6408 0.7548
vn -0.1365 0.5956 0.7916
vn -0.1365 0.5957 0.7915
vn -0.9630 -0.2696 0.0003
vn -0.9635 -0.2677 -0.0013
vn 0.0893 -0.4691 -0.8786
vn 0.7598 0.5884 -0.2764
vn -0.1319 0.5460 0.8273
vn -0.8082 -0.5394 0.2364
vn 0.6841 -0.6756 0.2750
vn 0.0122 -0.9999 -0.0000
vn 0.0122 -0.0000 0.9999
vn 0.0375 0.9975 0.0594
vn -0.0155 0.0651 -0.9978
vn 0.2902 -0.9569 -0.0131
vn 0.0945 0.0123 0.9954
vn -0.1913 0.9815 0.0086
vn 0.0044 0.0123 -0.9999
vn 0.3056 -0.9396 -0.1540
vn 0.5165 -0.0192 0.8561
vn -0.2784 0.9520 0.1270
vn -0.4037 0.0179 -0.9147
vn 0.2469 0.1923 0.9498
vn -0.6524 -0.7242 0.2232
vt 0.108879 0.376805
vt 0.108831 0.373295
vt 0.107579 0.372393
vt 0.107502 0.367479
vt 0.107770 0.369364
vt 0.108055 0.372136
vt 0.108736 0.405488
vt 0.109263 0.405441
vt 0.109564 0.404412
vt 0.109037 0.404458
vt 0.106216 0.391172
vt 0.106851 0.390067
vt 0.105135 0.386988
vt 0.108679 0.378127
vt 0.107632 0.385255
vt 0.106511 0.381379
vt 0.107545 0.375319
vt 0.108246 0.379651
vt 0.107163 0.385296
vt 0.107048 0.375510
vt 0.106041 0.381420
vt 0.110190 0.374177
vt 0.110051 0.370074
vt 0.114108 0.390633
vt 0.114275 0.387576
vt 0.114428 0.388044
vt 0.108414 0.383016
vt 0.108659 0.387620
vt 0.109549 0.387542
vt 0.110322 0.376948
vt 0.110819 0.374227
vt 0.113875 0.383004
vt 0.113993 0.388562
vt 0.110648 0.370022
vt 0.108694 0.364768
vt 0.104580 0.354810
vt 0.104449 0.353649
vt 0.103351 0.344059
vt 0.106256 0.353108
vt 0.108962 0.366653
vt 0.106125 0.351947
vt 0.110208 0.373386
vt 0.109789 0.385832
vt 0.107221 0.391681
vt 0.106069 0.390589
vt 0.112177 0.380488
vt 0.113769 0.378408
vt 0.114183 0.378372
vt 0.114113 0.374835
vt 0.113699 0.374871
vt 0.113644 0.388329
vt 0.113667 0.388327
vt 0.113617 0.386328
vt 0.113593 0.386330
vt 0.116875 0.387220
vt 0.116498 0.382903
vt 0.108795 0.397080
vt 0.109609 0.398914
vt 0.109545 0.397205
vt 0.108731 0.395370
vt 0.115784 0.399614
vt 0.116107 0.399586
vt 0.116366 0.398421
vt 0.116044 0.398449
vt 0.111195 0.398030
vt 0.110441 0.398096
vt 0.110493 0.396061
vt 0.111247 0.395995
vt 0.113520 0.390684
vt 0.111657 0.383834
vt 0.105129 0.386989
vt 0.108719 0.385217
vt 0.109741 0.382367
vt 0.109609 0.385139
vt 0.109829 0.385828
vt 0.109701 0.382370
vt 0.109451 0.382925
vt 0.107937 0.379247
vt 0.108974 0.379156
vt 0.109694 0.376709
vt 0.104413 0.395711
vt 0.104418 0.395710
vt 0.103737 0.393105
vt 0.103732 0.393106
vt 0.112785 0.380435
vt 0.112265 0.383781
vt 0.109311 0.371812
vt 0.107715 0.389991
vt 0.105776 0.343974
vt 0.110195 0.383301
vt 0.111544 0.384714
vt 0.111621 0.387650
vt 0.110272 0.386237
s 1
f 51/1/1 87/2/2 50/3/3
f 87/2/2 46/4/4 50/3/3
f 46/4/5 45/5/6 50/3/7
f 45/5/6 49/6/8 50/3/7
f 12/7/9 11/8/9 10/9/9 9/10/9
f 74/11/10 76/12/11 73/13/12
f 55/14/13 59/15/14 56/16/15 100/17/16
f 55/14/17 54/18/18 58/19/19 59/15/20
f 54/18/18 53/20/21 57/21/22 58/19/23
f 88/22/24 96/23/25 87/2/26
f 85/24/27 91/25/27 84/26/27
f 70/27/28 81/28/29 82/29/30
f 62/30/31 60/31/31 88/22/31
f 89/32/32 83/33/33 84/26/34
f 99/1/35 98/3/36 53/20/21 54/18/18
f 97/34/37 47/35/38 96/23/39
f 1/36/40 2/37/41 14/38/42 13/38/42
f 1/36/43 4/39/44 48/40/45 45/5/45
f 4/39/46 3/41/47 47/35/38 48/40/48
f 3/41/49 2/37/50 46/4/51 47/35/52
f 2/37/41 1/36/40 45/5/53 46/4/53
f 61/42/54 97/34/37 60/31/55
f 95/43/56 70/27/28 82/29/30
f 78/44/57 74/11/58 75/45/59
f 64/46/60 90/32/61 91/25/62
f 44/47/63 43/48/63 42/49/63 41/50/63
f 40/51/64 39/52/64 38/53/64 37/54/64
f 36/55/65 35/55/65 34/56/65 33/56/65
f 32/57/66 31/58/66 30/59/66 29/60/66
f 24/61/67 23/62/67 22/63/67 21/64/67
f 20/65/68 19/66/68 18/67/68 17/68/68
f 86/69/69 65/70/70 85/24/71
f 56/16/72 72/71/73 73/13/74 57/21/75
f 76/12/11 58/19/23 57/21/22 73/13/12
f 50/3/76 98/3/76 99/1/76 51/1/76
f 80/72/77 93/73/78 79/74/79
f 93/73/80 94/75/81 79/74/82
f 97/34/37 61/42/54 48/40/48 47/35/38
f 65/70/70 64/46/60 91/25/62 85/24/71
f 92/76/83 71/77/84 95/43/85
f 71/77/86 70/27/28 95/43/56
f 78/44/87 75/45/88 72/71/89 56/16/15
f 47/35/52 46/4/51 87/2/90 96/23/90
f 69/78/91 68/79/92 80/72/77
f 68/79/92 93/73/78 80/72/77
f 52/80/93 62/30/94 54/18/18 55/14/17
f 8/81/95 7/82/95 6/83/95 5/84/95
f 69/78/96 80/72/97 81/28/98 70/27/99
f 63/85/100 66/86/101 83/33/33 89/32/32
f 51/1/102 99/1/35 54/18/18 62/30/94
f 86/69/103 83/33/104 66/86/105 65/70/106
f 67/87/107 49/6/108 45/5/109 48/40/109
f 63/85/110 89/32/111 90/32/112 64/46/113
f 59/15/14 77/88/114 78/44/87 56/16/15
f 77/88/115 59/15/20 58/19/19 76/12/116
f 61/42/117 52/80/118 67/87/119 48/40/117
f 68/79/120 71/77/84 92/76/83 93/73/121
f 94/75/81 95/43/122 82/29/122 79/74/82
f 68/79/92 69/78/91 49/6/108 67/87/107
f 64/46/60 65/70/70 52/80/123 61/42/123
f 65/70/106 66/86/105 62/30/94 52/80/93
f 66/86/101 63/85/100 60/31/124 62/30/124
f 55/14/125 49/6/125 69/78/96 70/27/99
f 71/77/84 68/79/120 67/87/119 52/80/118
f 70/27/28 71/77/86 52/80/93 55/14/17
f 73/13/74 72/71/73 5/84/126 6/83/126
f 74/11/10 73/13/12 6/83/127 7/82/127
f 75/45/59 74/11/58 7/82/128 8/81/128
f 72/71/89 75/45/88 8/81/129 5/84/129
f 77/88/115 76/12/116 9/10/130 10/9/130
f 78/44/87 77/88/114 10/9/131 11/8/131
f 74/11/132 78/44/132 11/8/132 12/7/132
f 76/12/11 74/11/10 12/7/133 9/10/133
f 2/37/50 3/41/49 15/89/134 14/38/134
f 3/41/47 4/39/46 16/89/135 15/89/135
f 4/39/44 1/36/43 13/38/136 16/89/136
f 53/20/137 100/17/138 56/16/72 57/21/75
f 80/72/77 79/74/79 17/68/139 18/67/139
f 81/28/98 80/72/97 18/67/140 19/66/140
f 82/29/30 81/28/29 19/66/141 20/65/141
f 79/74/142 82/29/142 20/65/142 17/68/142
f 84/26/34 83/33/33 21/64/143 22/63/143
f 85/24/144 84/26/144 22/63/144 23/62/144
f 86/69/69 85/24/71 23/62/145 24/61/145
f 83/33/104 86/69/103 24/61/146 21/64/146
f 88/22/147 87/2/147 25/90/148 26/91/149
f 62/30/150 88/22/150 26/91/150 27/92/150
f 51/1/151 62/30/151 27/92/152 28/93/153
f 87/2/2 51/1/1 28/93/154 25/90/155
f 26/91/149 25/90/148 29/60/156 30/59/156
f 27/92/157 26/91/157 30/59/157 31/58/157
f 28/93/153 27/92/152 31/58/158 32/57/158
f 25/90/155 28/93/154 32/57/159 29/60/159
f 63/85/110 64/46/113 61/42/160 60/31/160
f 90/32/112 89/32/111 33/56/161 34/56/161
f 91/25/62 90/32/61 34/56/162 35/55/162
f 84/26/163 91/25/163 35/55/163 36/55/163
f 89/32/164 84/26/164 36/55/164 33/56/164
f 93/73/165 92/76/165 37/54/165 38/53/165
f 94/75/166 93/73/166 38/53/166 39/52/166
f 95/43/167 94/75/167 39/52/167 40/51/167
f 92/76/168 95/43/168 40/51/168 37/54/168
f 97/34/37 96/23/39 41/50/169 42/49/169
f 60/31/170 97/34/170 42/49/170 43/48/170
f 88/22/171 60/31/171 43/48/171 44/47/171
f 96/23/25 88/22/24 44/47/172 41/50/172
f 49/6/173 55/14/13 100/17/16
f 49/6/8 100/17/138 53/20/137 98/3/174 50/3/7
