# Blender 5.0.1
# www.blender.org
o GEO_RampTile
v -4.034636 -0.120803 7.974515
v -4.095877 -0.120803 8.000000
v -4.009269 -0.120803 7.912989
v -7.950237 1.879197 7.834052
v -7.825552 1.879197 7.920600
v -7.886468 1.879197 7.895251
v -4.034636 -0.120803 4.025485
v -4.009269 -0.120803 4.087011
v -4.095877 -0.120803 4.000000
v -7.825552 1.879197 4.079400
v -7.950237 1.879197 4.165948
v -7.886468 1.879197 4.104749
v -7.965364 -0.120803 4.025485
v -7.904123 -0.120803 4.000000
v -7.990731 -0.120803 4.087011
v -4.164426 0.085838 7.920600
v -4.078445 0.045715 7.834052
v -4.103677 0.045715 7.895251
v -7.965364 -0.120803 7.974515
v -7.990731 -0.120803 7.912989
v -7.904123 -0.120803 8.000000
v -4.078445 0.045715 4.165948
v -4.164426 0.085838 4.079400
v -4.103677 0.045715 4.104749
v -7.904123 1.772154 8.000000
v -8.029268 1.772154 7.912989
v -7.965364 1.772154 7.974515
v -8.029268 1.772154 4.087011
v -7.904123 1.772154 4.000000
v -7.965364 1.772154 4.025485
v -4.095877 -0.030778 4.000000
v -4.009269 -0.030778 4.087011
v -4.034636 -0.030778 4.025485
v -4.009269 -0.030778 7.912989
v -4.095877 -0.030778 8.000000
v -4.034636 -0.030778 7.974515
v -7.999212 1.825676 7.883431
v -7.874703 1.825676 7.969804
v -7.935494 1.825676 7.944506
v -7.999212 1.825676 4.116569
v -7.874703 1.825676 4.030196
v -7.935494 1.825676 4.055494
v -4.125297 0.022744 4.030196
v -4.039325 0.022744 4.116569
v -4.064506 0.022744 4.055494
v -4.039325 0.022744 7.883431
v -4.125297 0.022744 7.969804
v -4.064506 0.022744 7.944506
v -7.870635 1.879197 4.165948
v -7.870635 1.879197 7.834052
v -4.164426 0.085838 4.165948
v -4.164426 0.085838 7.834052
v -4.095877 -0.120803 4.087011
v -4.095877 -0.120803 7.912989
v -7.904123 -0.120803 7.912989
v -7.904123 -0.120803 4.087011
vn -0.0203 0.6487 0.7608
vn 0.0739 0.7001 0.7103
vn -0.2458 0.7686 0.5906
vn -0.2856 0.6688 0.6864
vn -0.4862 0.7120 0.5065
vn -0.4223 0.7923 0.4403
vn -0.6286 0.7533 0.1932
vn -0.6917 0.6681 0.2741
vn 0.3682 0.2852 0.8849
vn 0.2307 0.2465 0.9413
vn 0.1959 -0.0000 0.9806
vn 0.3842 -0.0000 0.9232
vn 0.8864 0.2840 -0.3655
vn 0.9376 0.2828 -0.2024
vn 0.9809 -0.0000 -0.1943
vn 0.9245 -0.0000 -0.3812
vn 0.9376 0.2828 0.2024
vn 0.9809 -0.0000 0.1943
vn -0.3682 0.2852 -0.8849
vn -0.1466 0.3215 -0.9355
vn -0.1959 -0.0000 -0.9806
vn -0.3842 -0.0000 -0.9232
vn -0.1466 0.3215 0.9355
vn -0.1959 -0.0000 0.9806
vn -0.3682 0.2852 0.8849
vn -0.3842 -0.0000 0.9232
vn -0.7193 0.3262 0.6134
vn -0.8952 0.2822 0.3450
vn -0.9508 -0.0150 0.3094
vn -0.8094 -0.0082 0.5872
vn 0.8864 0.2840 0.3655
vn 0.9245 -0.0000 0.3812
vn -0.0203 0.6487 -0.7608
vn -0.2856 0.6688 -0.6864
vn -0.4862 0.7120 -0.5065
vn -0.7193 0.3262 -0.6134
vn -0.8952 0.2822 -0.3450
vn -0.6917 0.6681 -0.2741
vn 0.6629 0.7387 -0.1222
vn 0.6212 0.7407 -0.2561
vn 0.3689 0.7051 -0.6055
vn 0.3682 0.2852 -0.8849
vn 0.2307 0.2465 -0.9413
vn 0.3203 0.6347 -0.7033
vn 0.3203 0.6347 0.7033
vn 0.3689 0.7051 0.6055
vn 0.6212 0.7407 0.2561
vn 0.6629 0.7387 0.1222
vn 0.0739 0.7001 -0.7103
vn -0.2458 0.7686 -0.5906
vn -0.4223 0.7923 -0.4403
vn -0.6286 0.7533 -0.1932
vn 0.4617 0.8858 -0.0463
vn 0.3564 0.9227 -0.1469
vn 0.4283 0.8212 -0.3772
vn 0.3402 0.6822 -0.6472
vn 0.3402 0.6822 0.6472
vn 0.4283 0.8212 0.3772
vn 0.3564 0.9227 0.1469
vn 0.4617 0.8858 0.0463
vn -0.9508 -0.0150 -0.3094
vn 0.3842 -0.0000 -0.9232
vn 0.1959 -0.0000 -0.9806
vn 0.1913 0.9813 0.0210
vn 0.3293 0.9403 0.0858
vn -0.0000 1.0000 -0.0000
vn -0.8094 -0.0082 -0.5872
vn 0.1913 0.9813 -0.0210
vn 0.3293 0.9403 -0.0858
vn 0.4469 0.8945 -0.0075
vn 0.4469 0.8945 0.0075
vn 0.4612 0.8869 0.0268
vn 0.4612 0.8869 -0.0268
vn 0.4526 0.8910 0.0365
vn 0.4526 0.8910 -0.0365
vn 0.4892 0.8681 -0.0835
vn 0.4892 0.8681 0.0835
vn -0.0000 -1.0000 -0.0000
vt 0.129500 0.542354
vt 0.129518 0.543042
vt 0.129495 0.543042
vt 0.129477 0.542354
vt 0.129486 0.543042
vt 0.129468 0.542354
vt 0.130917 0.541666
vt 0.130894 0.541666
vt 0.130926 0.541666
vt 0.129466 0.541666
vt 0.129489 0.541666
vt 0.129457 0.541666
vt 0.130915 0.542354
vt 0.130906 0.542354
vt 0.130883 0.542354
vt 0.129518 0.543042
vt 0.129495 0.543042
vt 0.129486 0.543042
vt 0.130897 0.543042
vt 0.130888 0.543042
vt 0.130865 0.543042
vt 0.130865 0.543042
vt 0.130888 0.543042
vt 0.130897 0.543042
vt 0.129518 0.543042
s 1
f 38/1/1 5/2/2 6/3/3 39/4/4
f 39/4/5 6/3/6 4/5/7 37/6/8
f 36/7/9 35/8/10 2/8/11 1/7/12
f 33/7/13 32/9/14 8/9/15 7/7/16
f 32/9/14 34/9/17 3/9/18 8/9/15
f 30/10/19 29/11/20 14/11/21 13/10/22
f 35/8/10 25/11/23 21/11/24 2/8/11
f 25/11/23 27/10/25 19/10/26 21/11/24
f 27/10/27 26/12/28 20/12/29 19/10/30
f 34/9/17 36/7/31 1/7/32 3/9/18
f 41/1/33 29/11/20 30/10/19 42/4/34
f 42/4/35 30/10/36 28/12/37 40/6/38
f 44/13/39 32/9/14 33/7/13 45/14/40
f 45/14/41 33/7/42 31/8/43 43/15/44
f 47/15/45 35/8/10 36/7/9 48/14/46
f 48/14/47 36/7/31 34/9/17 46/13/48
f 25/11/23 38/1/1 39/4/4 27/10/25
f 27/10/27 39/4/5 37/6/8 26/12/28
f 10/16/49 41/1/33 42/4/34 12/17/50
f 12/17/51 42/4/35 40/6/38 11/18/52
f 22/19/53 44/13/39 45/14/40 24/20/54
f 24/20/55 45/14/41 43/15/44 23/21/56
f 16/22/57 47/15/45 48/14/46 18/23/58
f 18/23/59 48/14/47 46/13/48 17/24/60
f 26/12/28 28/12/37 15/12/61 20/12/29
f 31/8/43 33/7/42 7/7/62 9/8/63
f 47/15/45 16/22/57 5/2/2 38/1/1
f 37/6/8 4/5/7 11/18/52 40/6/38
f 49/25/64 10/16/65 12/17/66 11/18/66
f 28/12/37 30/10/36 13/10/67 15/12/61
f 41/1/33 10/16/49 23/21/56 43/15/44
f 29/11/20 31/8/43 9/8/63 14/11/21
f 44/13/39 22/19/53 17/24/60 46/13/48
f 26/12/28 37/6/8 40/6/38 28/12/37
f 35/8/10 47/15/45 38/1/1 25/11/23
f 29/11/20 41/1/33 43/15/44 31/8/43
f 32/9/14 44/13/39 46/13/48 34/9/17
f 50/2/68 49/25/64 11/18/66 4/5/66
f 5/2/69 50/2/68 4/5/66 6/3/66
f 52/22/70 51/21/71 49/25/64 50/2/68
f 51/21/71 23/21/72 10/16/65 49/25/64
f 16/22/73 52/22/70 50/2/68 5/2/69
f 17/24/74 22/19/75 51/21/71 52/22/70
f 22/19/75 24/20/76 23/21/72 51/21/71
f 18/23/77 17/24/74 52/22/70 16/22/73
f 55/11/78 21/11/78 19/10/78 20/12/78
f 14/11/78 56/11/78 15/12/78 13/10/78
f 56/11/78 55/11/78 20/12/78 15/12/78
f 8/9/78 3/9/78 54/8/78 53/8/78
f 7/7/78 8/9/78 53/8/78 9/8/78
f 3/9/78 1/7/78 2/8/78 54/8/78
f 53/8/78 54/8/78 55/11/78 56/11/78
f 54/8/78 2/8/78 21/11/78 55/11/78
f 9/8/78 53/8/78 56/11/78 14/11/78
