# Blender 5.0.1
# www.blender.org
o GEO_RiverQuadTile
v 1.999998 -2.011927 -4.857929
v 1.999999 -2.011824 -7.141782
v -1.999980 -2.012569 -7.143682
v -1.920601 -0.013746 -4.165948
v -1.834052 -0.013746 -4.079400
v -1.895251 -0.013746 -4.104750
v -1.999983 -2.012591 -4.856253
v -1.149090 -2.013746 -7.999863
v 1.149090 -2.013746 -7.999863
v -1.834052 -0.013746 -7.920600
v -1.920600 -0.013746 -7.834052
v -1.895250 -0.013746 -7.895251
v 1.141741 -2.011684 -4.000000
v -1.143436 -2.012136 -4.000007
v 1.974514 -2.011684 -4.025485
v 1.834052 -0.013746 -4.079400
v 1.920600 -0.013746 -4.165948
v 1.895250 -0.013746 -4.104749
v 1.912988 -2.011684 -4.000000
v 1.999999 -2.011684 -4.087011
v 1.974515 -2.011684 -7.974514
v 1.920601 -0.013746 -7.834052
v 1.834052 -0.013746 -7.920600
v 1.895251 -0.013746 -7.895250
v -1.912989 -0.120679 -4.000000
v -2.000000 -0.120679 -4.087012
v -1.974515 -0.120679 -4.025486
v -1.999999 -0.120679 -7.912989
v -1.912988 -0.120679 -8.000000
v -1.974514 -0.120679 -7.974515
v 1.912989 -0.120679 -8.000000
v 2.000000 -0.120679 -7.912988
v 1.974515 -0.120679 -7.974514
v 1.999999 -0.120679 -4.087011
v 1.912988 -0.120679 -4.000000
v 1.974514 -0.120679 -4.025485
v -1.969804 -0.067212 -4.116570
v -1.883431 -0.067212 -4.030197
v -1.944506 -0.067212 -4.055495
v -1.969803 -0.067212 -7.883431
v -1.883431 -0.067212 -7.969804
v -1.944505 -0.067212 -7.944506
v 1.883431 -0.067212 -7.969803
v 1.969804 -0.067212 -7.883430
v 1.944506 -0.067212 -7.944505
v 1.969803 -0.067212 -4.116569
v 1.883431 -0.067212 -4.030196
v 1.944505 -0.067212 -4.055494
v -1.834052 -0.013746 -7.834052
v -1.834053 -0.013746 -4.165948
v 1.834052 -0.013746 -7.834052
v 1.834052 -0.013746 -4.165948
v 2.000000 -2.011684 -7.912988
v 1.912989 -2.011684 -8.000000
v -1.143436 -0.086857 -4.000007
v 1.141741 -0.086404 -4.000000
v 1.214892 -0.067212 -4.030196
v -1.210208 -0.065148 -4.030169
v -1.270752 -0.014320 -4.079408
v 1.268601 -0.013746 -4.079400
v 1.280332 -0.017038 -7.920381
v -1.280332 -0.017038 -7.920382
v -1.974514 -2.011684 -7.974515
v -1.912988 -2.011684 -8.000000
v 1.149090 -0.088467 -7.999863
v -1.149090 -0.088467 -7.999863
v -1.231381 -0.056767 -7.970498
v 1.231381 -0.056767 -7.970497
v -1.279139 -0.016703 -7.833856
v 1.279139 -0.016703 -7.833855
v 1.268601 -0.013746 -4.165948
v -1.270512 -0.014256 -4.165956
v 1.147780 -0.088099 -7.904822
v -1.147779 -0.088099 -7.904822
v 1.141741 -0.086404 -4.094089
v -1.143175 -0.086787 -4.094095
v -1.142976 -0.086734 -4.165953
v 1.141741 -0.086404 -4.165948
v 1.146803 -0.087825 -7.833957
v -1.146802 -0.087825 -7.833958
v -1.999999 -2.011684 -7.912989
v -1.974515 -2.011684 -4.025486
v -1.999983 -0.087311 -4.856253
v -1.999980 -0.087289 -7.143682
v -1.969893 -0.063023 -7.244699
v -1.969882 -0.062988 -4.755429
v -1.920578 -0.014929 -4.672914
v -1.920572 -0.015023 -7.327322
v 1.920597 -0.014117 -7.313633
v 1.920598 -0.014023 -4.686625
v -2.000000 -2.011684 -4.087012
v -1.912989 -2.011684 -4.000000
v 1.999999 -0.086545 -7.141782
v 1.999998 -0.086647 -4.857929
v 1.969808 -0.066177 -4.770183
v 1.969812 -0.066174 -7.229823
v -1.834033 -0.014785 -4.673287
v -1.834028 -0.014857 -7.326891
v 1.834050 -0.014060 -7.313476
v 1.834051 -0.013988 -4.686722
v -1.269592 -0.013941 -7.323781
v -1.268591 -0.013844 -4.675725
v 1.269592 -0.013869 -7.312153
v 1.268601 -0.013758 -4.687364
v -1.918190 -0.087146 -4.856555
v -1.918122 -0.087131 -7.143275
v -1.834094 -0.086970 -7.142856
v -1.834094 -0.087000 -4.856907
v 1.137254 -0.085161 -7.141521
v -1.137260 -0.084853 -7.140722
v -1.141066 -0.085773 -4.859768
v 1.141741 -0.086298 -4.858902
v 1.896911 -0.086605 -4.858046
v 1.897371 -0.086262 -7.141941
v 1.816312 -0.086572 -4.858137
v 1.816311 -0.086159 -7.141873
v -1.147879 -2.013401 -7.143277
v 1.147514 -2.013304 -7.142186
v -1.144647 -2.012481 -4.856611
v 1.143317 -2.012126 -4.857570
vn -0.1478 0.6797 0.7184
vn -0.0914 0.7240 0.6837
vn -0.2445 0.7692 0.5904
vn -0.2844 0.6692 0.6865
vn -0.6865 0.6692 0.2844
vn -0.5904 0.7692 0.2445
vn -0.6774 0.7298 0.0920
vn -0.7221 0.6757 0.1483
vn 0.6730 0.3066 -0.6730
vn 0.9284 0.3082 -0.2075
vn 0.9808 -0.0000 -0.1951
vn 0.7071 -0.0000 -0.7071
vn 0.6730 0.3066 0.6730
vn 0.2076 0.3100 0.9278
vn 0.1951 -0.0000 0.9808
vn 0.7071 -0.0000 0.7071
vn 0.9971 0.0765 0.0019
vn 0.9284 0.3082 0.2075
vn 0.9808 -0.0000 0.1951
vn 1.0000 -0.0000 -0.0000
vn -0.0025 0.0824 -0.9966
vn 0.0025 0.0824 -0.9966
vn -0.0001 -0.0000 -1.0000
vn 0.0001 -0.0000 -1.0000
vn -0.9976 0.0695 -0.0018
vn -0.9300 0.3035 -0.2073
vn -0.9808 -0.0000 -0.1950
vn -1.0000 -0.0000 -0.0000
vn -0.6730 0.3066 -0.6730
vn -0.7071 -0.0000 -0.7071
vn -0.6730 0.3066 0.6730
vn -0.9300 0.3035 0.2073
vn -0.9808 -0.0000 0.1950
vn -0.7071 -0.0000 0.7071
vn 0.9971 0.0762 -0.0019
vn -0.1494 0.6698 -0.7274
vn -0.2069 0.2956 -0.9326
vn -0.2844 0.6692 -0.6865
vn -0.6865 0.6692 -0.2844
vn -0.7220 0.6758 -0.1483
vn 0.7178 0.6804 -0.1477
vn 0.6865 0.6692 -0.2844
vn 0.2844 0.6692 -0.6865
vn 0.2069 0.2956 -0.9326
vn 0.1494 0.6698 -0.7274
vn 0.1475 0.6822 0.7162
vn 0.2844 0.6692 0.6865
vn 0.6865 0.6692 0.2844
vn 0.7180 0.6802 0.1477
vn -0.2074 0.3073 0.9287
vn -0.0937 0.7499 -0.6549
vn -0.2446 0.7692 -0.5904
vn -0.5904 0.7692 -0.2446
vn -0.6772 0.7300 -0.0920
vn 0.6865 0.7214 -0.0911
vn 0.5904 0.7692 -0.2445
vn 0.2445 0.7692 -0.5904
vn 0.0937 0.7499 -0.6549
vn 0.0909 0.7185 0.6896
vn 0.2446 0.7692 0.5904
vn 0.5904 0.7692 0.2446
vn 0.6867 0.7212 0.0912
vn 0.0016 1.0000 -0.0003
vn 0.0032 1.0000 -0.0011
vn -0.0000 1.0000 -0.0000
vn -0.0006 1.0000 0.0013
vn 0.0005 1.0000 0.0002
vn -0.0001 1.0000 -0.0006
vn -0.0005 1.0000 -0.0013
vn 0.0002 1.0000 0.0004
vn -0.0032 1.0000 -0.0011
vn -0.0019 1.0000 -0.0009
vn 0.0001 1.0000 -0.0003
vn 0.0001 1.0000 -0.0002
vn 0.4728 0.8800 0.0458
vn 0.4227 0.8954 0.1402
vn 0.4621 0.8843 0.0668
vn 0.4410 0.8868 -0.1384
vn 0.4782 0.8746 -0.0794
vn 0.4426 0.8957 -0.0436
vn -0.0000 1.0000 -0.0039
vn -0.0000 1.0000 -0.0040
vn 0.1948 -0.0000 -0.9808
vn -0.4764 0.8791 -0.0107
vn -0.4782 0.8746 -0.0794
vn -0.4426 0.8957 -0.0436
vn -0.4765 0.8791 -0.0107
vn -0.9976 0.0697 0.0019
vn -0.0023 0.0940 0.9956
vn -0.0119 0.6379 0.7700
vn 0.0112 0.6452 0.7639
vn 0.0021 0.0874 0.9962
vn -0.0000 0.6772 0.7358
vn -0.0008 0.6864 0.7273
vn 0.0010 1.0000 0.0004
vn 0.0003 1.0000 -0.0001
vn 0.0001 1.0000 -0.0001
vn -0.0046 0.7292 -0.6842
vn -0.0141 0.6109 -0.7916
vn 0.0037 1.0000 -0.0018
vn 0.0056 1.0000 -0.0020
vn 0.0141 0.6109 -0.7916
vn 0.0046 0.7292 -0.6842
vn -0.0056 1.0000 -0.0020
vn -0.0040 1.0000 -0.0022
vn -0.0002 1.0000 0.0004
vn -0.3981 0.8983 0.1860
vn -0.4668 0.8822 0.0615
vn -0.4533 0.8871 0.0876
vn 0.4941 0.8694 0.0023
vn -0.0001 1.0000 0.0006
vn -0.4969 0.8678 -0.0000
vn -0.4410 0.8868 -0.1384
vn -0.3568 0.9341 -0.0085
vn 0.4762 0.8793 -0.0109
vn 0.4763 0.8792 -0.0109
vn -0.1951 -0.0000 0.9808
vn -0.0000 -0.0000 1.0000
vn -0.1948 -0.0000 -0.9808
vn -0.7823 0.6227 0.0133
vn -0.7822 0.6229 -0.0133
vn -0.7180 0.6960 0.0019
vn -0.7177 0.6963 -0.0018
vn -0.0006 1.0000 -0.0014
vn -0.0008 1.0000 -0.0022
vn 0.0004 1.0000 0.0004
vn -0.0010 1.0000 0.0024
vn 0.7314 0.6820 -0.0004
vn 0.7704 0.6375 -0.0124
vn 0.0002 1.0000 -0.0005
vn 0.0002 1.0000 -0.0004
vn 0.0003 1.0000 0.0007
vn -0.0011 1.0000 -0.0009
vn 0.7317 0.6816 0.0004
vn 0.7707 0.6371 0.0123
vn -0.0004 1.0000 -0.0006
vn 0.0018 1.0000 -0.0016
vn 0.0002 1.0000 -0.0002
vn -0.0025 1.0000 -0.0024
vn 0.4941 0.8694 0.0026
vn 0.4791 0.8777 -0.0118
vn -0.4967 0.8679 0.0001
vn -0.4795 0.8774 -0.0115
vn -0.0007 1.0000 -0.0011
vn 0.0004 1.0000 -0.0011
vn 0.0004 1.0000 0.0005
vn -0.0007 1.0000 0.0005
vn -0.0412 0.9357 0.3504
vn -0.1554 0.9403 0.3028
vn -0.0790 0.9388 0.3353
vn 0.0009 1.0000 0.0003
vn 0.0417 0.9267 -0.3735
vn 0.1382 0.9332 -0.3316
vn 0.0641 0.9291 -0.3642
vn 0.0014 0.9220 0.3873
vn 0.0014 0.9221 0.3870
vn 0.0014 0.9220 0.3872
vn -0.0031 0.9306 -0.3660
vn -0.0031 0.9306 -0.3659
vn -0.0020 1.0000 -0.0000
vn -0.0019 1.0000 -0.0000
vn -0.0021 1.0000 0.0001
vn -0.1552 0.9400 -0.3039
vn -0.0408 0.9353 -0.3515
vn -0.0787 0.9384 -0.3364
vn -0.0037 0.9312 0.3645
vn -0.0038 0.9313 0.3642
vn 0.3568 0.9341 -0.0085
vn 0.0016 1.0000 0.0001
vn 0.0012 1.0000 0.0001
vn 0.0008 0.9208 -0.3900
vn 0.1400 0.9339 0.3289
vn 0.0425 0.9276 0.3711
vn 0.0655 0.9301 0.3615
vn -0.0001 -1.0000 0.0005
vn -0.0002 -1.0000 0.0004
vn -0.0006 -1.0000 0.0004
vn -0.0003 -1.0000 0.0008
vn 0.0003 -1.0000 0.0004
vn 0.0001 -1.0000 0.0005
vn 0.0008 -1.0000 0.0003
vn 0.0013 -1.0000 0.0004
vn 0.0025 -1.0000 0.0003
vn 0.0021 -1.0000 0.0001
vn -0.0005 -1.0000 0.0002
vn -0.0012 -1.0000 0.0003
vn -0.0007 -1.0000 -0.0005
vn -0.0010 -1.0000 -0.0011
vn -0.0018 -1.0000 -0.0004
vn 0.0001 -1.0000 0.0004
vn -0.0000 -1.0000 0.0005
vn -0.0002 -1.0000 0.0006
vn 0.0013 -1.0000 -0.0000
vn 0.0006 -1.0000 0.0003
vn -0.0025 -1.0000 0.0002
vn 0.0017 -1.0000 -0.0002
vn -0.0000 -1.0000 0.0011
vn 0.0002 -1.0000 0.0003
vt 0.133727 0.541053
vt 0.133763 0.542110
vt 0.133718 0.542110
vt 0.133683 0.541053
vt 0.133700 0.542110
vt 0.133664 0.541053
vt 0.136530 0.539996
vt 0.136548 0.539996
vt 0.136485 0.539996
vt 0.136548 0.539991
vt 0.117684 0.874377
vt 0.117837 0.874377
vt 0.133642 0.539979
vt 0.133642 0.539996
vt 0.133661 0.539996
vt 0.136548 0.539993
vt 0.133727 0.541053
vt 0.133705 0.539996
vt 0.133683 0.541053
vt 0.133664 0.541053
vt 0.136526 0.541053
vt 0.136508 0.541053
vt 0.136463 0.541053
vt 0.136463 0.541053
vt 0.136508 0.541053
vt 0.136526 0.541053
vt 0.136490 0.542110
vt 0.136472 0.542110
vt 0.136428 0.542110
vt 0.134172 0.542099
vt 0.134216 0.541094
vt 0.134264 0.539987
vt 0.134265 0.539989
vt 0.134201 0.541260
vt 0.134165 0.542045
vt 0.134261 0.539963
vt 0.117837 0.874381
vt 0.117684 0.874381
vt 0.117684 0.874383
vt 0.117837 0.874383
vt 0.136024 0.542051
vt 0.136025 0.542045
vt 0.135929 0.539963
vt 0.135928 0.539968
vt 0.117627 0.874388
vt 0.117627 0.874388
vt 0.135930 0.539955
vt 0.135978 0.541053
vt 0.135925 0.539996
vt 0.136017 0.542110
vt 0.134172 0.542100
vt 0.134166 0.542051
vt 0.135990 0.541260
vt 0.117893 0.874394
vt 0.117893 0.874393
vt 0.133642 0.539978
vt 0.134260 0.539955
vt 0.117684 0.874392
vt 0.117836 0.874396
vt 0.117684 0.874392
vt 0.134265 0.539990
vt 0.117684 0.874393
vt 0.134262 0.539968
vt 0.133664 0.541137
vt 0.133664 0.541136
vt 0.133700 0.542087
vt 0.133700 0.542085
vt 0.133763 0.542089
vt 0.133763 0.542088
vt 0.136490 0.542103
vt 0.136526 0.541074
vt 0.136490 0.542104
vt 0.136428 0.542105
vt 0.136428 0.542104
vt 0.136526 0.541074
vt 0.134174 0.542108
vt 0.134173 0.542106
vt 0.136017 0.542110
vt 0.136017 0.542107
vt 0.134266 0.540009
vt 0.134269 0.540027
vt 0.135925 0.539998
vt 0.135921 0.540021
vt 0.117685 0.874409
vt 0.117836 0.874407
vt 0.117836 0.874397
vt 0.117684 0.874401
vt 0.133702 0.539982
vt 0.117881 0.874394
vt 0.117881 0.874398
vt 0.136473 0.539992
vt 0.136415 0.540001
vt 0.133763 0.539984
vt 0.117633 0.874389
vt 0.117633 0.874389
vt 0.117638 0.874390
vt 0.117638 0.874391
vt 0.133702 0.539981
vt 0.133763 0.539985
vt 0.117887 0.874397
vt 0.117886 0.874394
vt 0.136415 0.539993
vt 0.136474 0.539999
vt 0.137661 0.538355
vt 0.137661 0.537678
vt 0.137532 0.537678
vt 0.137521 0.537698
vt 0.138046 0.538356
vt 0.138046 0.537678
vt 0.138047 0.540162
vt 0.138047 0.540841
vt 0.138176 0.540841
vt 0.138186 0.540821
vt 0.137660 0.540163
vt 0.137660 0.540841
vt 0.137517 0.540164
vt 0.137517 0.540772
vt 0.137521 0.540821
vt 0.138186 0.537698
vt 0.138176 0.537678
vt 0.137517 0.538355
vt 0.138190 0.540162
vt 0.138190 0.538356
vt 0.137532 0.540841
vt 0.138190 0.540772
vt 0.137517 0.537746
vt 0.138190 0.537746
s 1
f 38/1/1 5/2/2 6/3/3 39/4/4
f 39/4/5 6/3/6 4/5/7 37/6/8
f 33/7/9 32/8/10 53/8/11 21/7/12
f 36/7/13 35/9/14 19/9/15 15/7/16
f 94/10/17 34/8/18 20/8/19 1/10/20
f 66/11/21 65/12/22 9/12/23 8/11/24
f 84/13/25 28/14/26 81/14/27 3/13/28
f 28/14/26 30/15/29 63/15/30 81/14/27
f 27/15/31 26/14/32 91/14/33 82/15/34
f 32/8/10 93/16/35 2/16/20 53/8/11
f 41/17/36 29/18/37 30/15/29 42/19/38
f 42/19/39 30/15/29 28/14/26 40/20/40
f 44/21/41 32/8/10 33/7/9 45/22/42
f 45/22/43 33/7/9 31/9/44 43/23/45
f 47/24/46 35/9/14 36/7/13 48/25/47
f 48/25/48 36/7/13 34/8/18 46/26/49
f 25/18/50 38/1/1 39/4/4 27/15/31
f 27/15/31 39/4/5 37/6/8 26/14/32
f 10/2/51 41/17/36 42/19/38 12/3/52
f 12/3/53 42/19/39 40/20/40 11/5/54
f 22/27/55 44/21/41 45/22/42 24/28/56
f 24/28/57 45/22/43 43/23/45 23/29/58
f 16/29/59 47/24/46 48/25/47 18/28/60
f 18/28/61 48/25/48 46/26/49 17/27/62
f 49/2/63 10/2/64 12/3/65 11/5/66
f 5/2/67 50/2/68 4/5/69 6/3/65
f 22/27/70 24/28/65 23/29/71 51/29/72
f 18/28/65 17/27/73 52/29/74 16/29/65
f 59/30/75 58/31/76 55/32/76 76/33/77
f 67/34/78 62/35/79 74/36/80
f 73/37/81 74/38/81 80/39/82 79/40/82
f 31/9/44 33/7/9 21/7/12 54/9/83
f 70/41/84 61/42/85 73/43/86 79/44/87
f 34/8/18 36/7/13 15/7/16 20/8/19
f 83/45/88 84/46/25 3/46/28 7/45/28
f 65/47/22 31/9/44 54/9/83 9/47/23
f 55/32/89 58/31/90 38/1/1 25/18/50
f 35/9/14 47/24/46 57/48/91 56/49/92
f 47/24/46 16/29/59 60/50/93 57/48/91
f 58/31/90 59/30/94 5/2/2 38/1/1
f 59/30/95 72/51/96 50/2/68 5/2/67
f 16/29/65 52/29/74 71/50/97 60/50/65
f 41/17/36 10/2/51 62/35/98 67/34/99
f 69/52/100 62/35/101 10/2/64 49/2/63
f 68/53/102 61/42/103 23/29/58 43/23/45
f 51/29/72 23/29/71 61/42/104 70/41/105
f 93/54/35 94/55/17 1/55/20 2/54/20
f 26/14/32 83/56/88 7/56/28 91/14/33
f 65/47/22 68/53/102 43/23/45 31/9/44
f 29/18/37 41/17/36 67/34/99 66/57/21
f 55/58/106 56/59/106 75/59/106 76/60/106
f 57/48/107 60/50/108 75/49/109 56/49/107
f 72/51/110 59/30/75 76/33/77 77/61/110
f 76/60/106 75/59/106 78/59/111 77/62/111
f 65/12/81 66/11/81 74/38/81 73/37/81
f 60/50/108 71/50/112 78/49/112 75/49/109
f 68/53/113 65/47/114 73/43/86
f 74/36/80 62/35/79 69/52/115 80/63/116
f 55/32/89 25/18/50 92/18/117 14/32/118
f 56/59/92 55/58/89 14/58/118 13/59/118
f 29/18/37 66/57/21 8/57/24 64/18/119
f 25/18/50 27/15/31 82/15/34 92/18/117
f 37/6/8 86/64/120 83/56/88 26/14/32
f 85/65/121 40/20/40 28/14/26 84/13/25
f 4/5/7 87/66/122 86/64/120 37/6/8
f 88/67/123 11/5/54 40/20/40 85/65/121
f 50/2/68 97/68/124 87/66/125 4/5/69
f 98/69/126 49/2/63 11/5/66 88/67/127
f 22/27/55 89/70/128 96/71/129 44/21/41
f 17/27/73 90/72/130 100/73/131 52/29/74
f 89/70/132 22/27/70 51/29/72 99/74/133
f 90/72/134 17/27/62 46/26/49 95/75/135
f 30/15/29 29/18/37 64/18/119 63/15/30
f 35/9/14 56/49/92 13/49/118 19/9/15
f 44/21/41 96/71/129 93/16/35 32/8/10
f 95/75/135 46/26/49 34/8/18 94/10/17
f 72/51/96 102/76/136 97/68/124 50/2/68
f 101/77/137 69/52/100 49/2/63 98/69/126
f 52/29/74 100/73/131 104/78/138 71/50/97
f 99/74/133 51/29/72 70/41/105 103/79/139
f 102/76/140 72/51/110 77/61/110 111/80/140
f 69/52/115 101/77/141 110/81/141 80/63/116
f 71/50/112 104/78/142 112/82/142 78/49/112
f 103/79/143 70/41/84 79/44/87 109/83/143
f 80/39/82 110/84/144 109/85/145 79/40/82
f 78/59/111 112/86/146 111/87/147 77/62/111
f 88/67/148 85/65/149 84/13/149 106/88/150
f 115/89/151 116/90/151 109/85/145 112/86/146
f 90/72/152 95/75/153 94/10/153 113/91/154
f 99/74/155 103/79/156 109/83/156 116/92/157
f 97/68/158 102/76/159 111/80/159 108/93/158
f 84/46/160 83/45/160 105/94/161 106/95/161
f 61/42/85 68/53/113 73/43/86
f 106/95/161 105/94/161 108/96/162 107/97/162
f 86/64/163 87/66/164 105/98/165 83/56/163
f 98/69/166 88/67/148 106/88/150 107/99/166
f 107/97/162 108/96/162 111/87/147 110/84/144
f 101/77/167 98/69/166 107/99/166 110/81/167
f 87/66/164 97/68/158 108/93/158 105/98/165
f 66/57/168 67/34/78 74/36/80
f 111/87/147 112/86/146 109/85/145 110/84/144
f 94/55/169 93/54/169 114/100/170 113/101/170
f 100/73/171 90/72/152 113/91/154 115/102/171
f 96/71/172 89/70/173 114/103/174 93/16/172
f 113/101/170 114/100/170 116/90/151 115/89/151
f 104/78/171 100/73/171 115/102/171 112/82/171
f 89/70/173 99/74/155 116/92/157 114/103/174
f 119/104/175 14/105/176 92/106/177 82/107/178
f 120/108/179 13/109/180 14/105/176 119/104/175
f 118/110/181 9/111/182 54/112/183 21/113/184
f 9/111/182 118/110/181 117/114/185 8/115/186
f 117/114/185 3/116/187 81/117/188 63/118/189
f 120/108/179 15/119/190 19/120/191 13/109/180
f 118/110/181 120/108/179 119/104/175 117/114/185
f 117/114/185 119/104/175 7/121/192 3/116/187
f 2/122/193 1/123/194 120/108/179 118/110/181
f 8/115/186 117/114/185 63/118/189 64/124/195
f 2/122/193 118/110/181 21/113/184 53/125/196
f 7/121/192 119/104/175 82/107/178 91/126/197
f 1/123/194 20/127/198 15/119/190 120/108/179
