# Blender 5.0.1
# www.blender.org
o GEO_Rock_A
v 10.000000 0.000000 -5.480000
v 10.000000 0.000000 -4.520000
v 10.000000 0.448014 -4.476460
v 10.000000 0.448014 -5.523540
v 9.425703 0.156805 -5.000000
v 10.574297 0.156805 -5.000000
v 10.000000 0.800000 -5.000000
v 10.000000 0.156805 -5.574297
v 9.476460 0.448014 -5.000000
v 10.000000 0.156805 -4.425703
v 10.523540 0.448014 -5.000000
v 9.520000 0.000000 -5.000000
v 10.480000 0.000000 -5.000000
v 10.000000 0.697404 -4.650114
v 10.000000 0.706542 -4.663029
v 10.000000 0.697404 -5.349886
v 10.000000 0.706542 -5.336971
v 9.625038 0.000000 -4.614551
v 9.614551 0.000000 -4.625038
v 9.705160 0.664275 -4.705160
v 9.692806 0.655427 -4.703207
v 9.703207 0.655427 -4.692806
v 9.602106 0.448014 -4.591436
v 9.591436 0.448014 -4.602106
v 9.614551 0.000000 -5.374962
v 9.625038 0.000000 -5.385449
v 9.692806 0.655427 -5.296793
v 9.705160 0.664275 -5.294840
v 9.703207 0.655427 -5.307194
v 9.602106 0.448014 -5.408563
v 9.591436 0.448014 -5.397894
v 10.385449 0.000000 -4.625038
v 10.374962 0.000000 -4.614551
v 10.307194 0.655427 -4.703207
v 10.294840 0.664275 -4.705160
v 10.296793 0.655427 -4.692806
v 10.397894 0.448014 -4.591437
v 10.408564 0.448014 -4.602106
v 10.374962 0.000000 -5.385449
v 10.385449 0.000000 -5.374962
v 10.456293 0.156805 -4.554246
v 10.445754 0.156805 -4.543707
v 10.445754 0.156805 -5.456293
v 10.456293 0.156805 -5.445754
v 9.543707 0.156805 -5.445754
v 9.554246 0.156805 -5.456293
v 10.294840 0.664275 -5.294840
v 10.307194 0.655427 -5.296793
v 10.296793 0.655427 -5.307194
v 10.408564 0.448014 -5.397894
v 10.397894 0.448014 -5.408563
v 9.543707 0.156805 -4.554246
v 9.554246 0.156805 -4.543707
v 9.663029 0.706542 -5.000000
v 9.650114 0.697404 -5.000000
v 10.336971 0.706542 -5.000000
v 10.349886 0.697404 -5.000000
vn -0.4655 0.7527 0.4655
vn -0.4655 0.7527 -0.4655
vn 0.4655 0.7527 0.4655
vn 0.4655 0.7527 -0.4655
vn -0.6468 0.4042 0.6468
vn -0.6969 -0.1693 0.6969
vn 0.5959 -0.5383 -0.5959
vn 0.6969 -0.1693 -0.6969
vn -0.0000 0.8219 0.5697
vn -0.1949 0.8061 0.5587
vn -0.5819 0.5681 0.5819
vn -0.6468 0.4042 -0.6468
vn -0.5819 0.5681 -0.5819
vn 0.6468 0.4042 0.6468
vn 0.5819 0.5681 0.5819
vn -0.5959 -0.5383 -0.5959
vn -0.6969 -0.1693 -0.6969
vn 0.1949 0.8061 -0.5587
vn -0.0000 0.8219 -0.5697
vn 0.5959 -0.5383 0.5959
vn 0.6969 -0.1693 0.6969
vn 0.6468 0.4042 -0.6468
vn 0.5819 0.5681 -0.5819
vn -0.5959 -0.5383 0.5959
vn -0.5697 0.8219 -0.0000
vn -0.5587 0.8061 0.1949
vn -0.1949 0.8061 -0.5587
vn 0.5697 0.8219 -0.0000
vn 0.5587 0.8061 -0.1949
vn 0.1949 0.8061 0.5587
vn -0.5587 0.8061 -0.1949
vn 0.5587 0.8061 0.1949
vn 0.2469 0.3431 0.9063
vn 0.2173 0.5383 0.8142
vn -0.0000 0.5515 0.8342
vn -0.0000 0.3656 0.9308
vn -0.2173 0.5383 0.8142
vn -0.2469 0.3431 0.9063
vn 0.2189 0.9509 0.2189
vn 0.2243 0.9745 -0.0000
vn -0.0000 1.0000 -0.0000
vn -0.0000 0.9745 0.2243
vn -0.2243 0.9745 -0.0000
vn -0.2189 0.9509 0.2189
vn 0.2189 0.9509 -0.2189
vn -0.0000 0.9745 -0.2243
vn -0.0000 0.5515 -0.8342
vn 0.2173 0.5383 -0.8142
vn 0.2469 0.3431 -0.9063
vn -0.0000 0.3656 -0.9308
vn -0.2189 0.9509 -0.2189
vn -0.2173 0.5383 -0.8142
vn -0.2469 0.3431 -0.9063
vn -0.0000 -0.5050 0.8631
vn -0.0000 -0.1601 0.9871
vn -0.2567 -0.1446 0.9556
vn -0.2182 -0.4928 0.8423
vn -0.9556 -0.1446 0.2567
vn -0.9871 -0.1601 -0.0000
vn -0.8631 -0.5050 -0.0000
vn -0.8423 -0.4928 0.2182
vn -0.8142 0.5383 0.2173
vn -0.8342 0.5515 -0.0000
vn -0.9308 0.3656 -0.0000
vn -0.9063 0.3431 0.2469
vn -0.2182 -0.4928 -0.8423
vn -0.2567 -0.1446 -0.9556
vn -0.0000 -0.1601 -0.9871
vn -0.0000 -0.5050 -0.8631
vn -0.9556 -0.1446 -0.2567
vn -0.8423 -0.4928 -0.2182
vn -0.8142 0.5383 -0.2173
vn -0.9063 0.3431 -0.2469
vn 0.8631 -0.5050 -0.0000
vn 0.9871 -0.1601 -0.0000
vn 0.9556 -0.1446 0.2567
vn 0.8423 -0.4928 0.2182
vn 0.2182 -0.4928 0.8423
vn 0.2567 -0.1446 0.9556
vn 0.8342 0.5515 -0.0000
vn 0.8142 0.5383 0.2173
vn 0.9063 0.3431 0.2469
vn 0.9308 0.3656 -0.0000
vn 0.9556 -0.1446 -0.2567
vn 0.8423 -0.4928 -0.2182
vn 0.2567 -0.1446 -0.9556
vn 0.2182 -0.4928 -0.8423
vn 0.9063 0.3431 -0.2469
vn 0.8142 0.5383 -0.2173
vt 0.457949 0.632660
vt 0.457737 0.632156
vt 0.457915 0.632156
vt 0.468243 0.632156
vt 0.468032 0.632660
vt 0.468065 0.632156
vt 0.456004 0.620334
vt 0.455188 0.603736
vt 0.455368 0.603736
vt 0.456187 0.620334
vt 0.469402 0.594799
vt 0.470612 0.603736
vt 0.470792 0.603736
vt 0.469581 0.594799
vt 0.462990 0.635069
vt 0.462990 0.634549
vt 0.469976 0.620334
vt 0.469794 0.620334
vt 0.456399 0.594799
vt 0.456579 0.594799
vt 0.457007 0.634549
vt 0.457228 0.635069
vt 0.468973 0.634549
vt 0.468752 0.635069
vt 0.462990 0.620334
vt 0.462990 0.640396
vt 0.462990 0.594799
vt 0.462990 0.603736
vt 0.453170 0.603736
vt 0.454783 0.594799
vt 0.454038 0.620334
vt 0.471198 0.594799
vt 0.472810 0.603736
vt 0.471942 0.620334
s 1
f 20/1/1 21/2/1 22/3/1
f 27/2/2 28/1/2 29/3/2
f 34/4/3 35/5/3 36/6/3
f 47/5/4 48/4/4 49/6/4
f 24/7/5 52/8/6 53/9/6 23/10/5
f 39/11/7 43/12/8 44/13/8 40/14/7
f 15/15/9 20/1/10 22/3/10 14/16/9
f 21/2/11 24/7/5 23/10/5 22/3/11
f 31/7/12 27/2/13 29/3/13 30/10/12
f 38/17/14 34/4/15 36/6/15 37/18/14
f 25/19/16 45/8/17 46/9/17 26/20/16
f 49/6/18 16/16/19 17/15/19 47/5/18
f 32/14/20 41/13/21 42/12/21 33/11/20
f 51/18/22 49/6/23 48/4/23 50/17/22
f 52/8/6 19/19/24 18/20/24 53/9/6
f 55/21/25 21/2/26 20/1/26 54/22/25
f 45/8/17 31/7/12 30/10/12 46/9/17
f 16/16/19 29/3/27 28/1/27 17/15/19
f 43/12/8 51/18/22 50/17/22 44/13/8
f 57/23/28 48/4/29 47/5/29 56/24/28
f 41/13/21 38/17/14 37/18/14 42/12/21
f 14/16/9 36/6/30 35/5/30 15/15/9
f 27/2/31 55/21/25 54/22/25 28/1/31
f 34/4/32 57/23/28 56/24/28 35/5/32
f 37/18/33 36/6/34 14/16/35 3/25/36
f 14/16/35 22/3/37 23/10/38 3/25/36
f 35/5/39 56/24/40 7/26/41 15/15/42
f 7/26/41 54/22/43 20/1/44 15/15/42
f 56/24/40 47/5/45 17/15/46 7/26/41
f 16/16/47 49/6/48 51/18/49 4/25/50
f 28/1/51 54/22/43 7/26/41 17/15/46
f 29/3/52 16/16/47 4/25/50 30/10/53
f 2/27/54 10/28/55 53/9/56 18/20/57
f 52/8/58 5/29/59 12/30/60 19/19/61
f 21/2/62 55/21/63 9/31/64 24/7/65
f 24/7/65 9/31/64 5/29/59 52/8/58
f 10/28/55 3/25/36 23/10/38 53/9/56
f 26/20/66 46/9/67 8/28/68 1/27/69
f 12/30/60 5/29/59 45/8/70 25/19/71
f 55/21/63 27/2/72 31/7/73 9/31/64
f 5/29/59 9/31/64 31/7/73 45/8/70
f 46/9/67 30/10/53 4/25/50 8/28/68
f 13/32/74 6/33/75 41/13/76 32/14/77
f 33/11/78 42/12/79 10/28/55 2/27/54
f 57/23/80 34/4/81 38/17/82 11/34/83
f 6/33/75 11/34/83 38/17/82 41/13/76
f 42/12/79 37/18/33 3/25/36 10/28/55
f 44/13/84 6/33/75 13/32/74 40/14/85
f 1/27/69 8/28/68 43/12/86 39/11/87
f 8/28/68 4/25/50 51/18/49 43/12/86
f 50/17/88 11/34/83 6/33/75 44/13/84
f 48/4/89 57/23/80 11/34/83 50/17/88
