# Blender 5.0.1
# www.blender.org
o GEO_CliffTile_B
v -18.026337 -0.013760 1.961499
v -18.089918 -0.013760 1.986816
v -18.000000 -0.013760 1.900378
v -19.984781 1.986240 1.821962
v -19.895340 1.986240 1.907939
v -19.958584 1.986240 1.882757
v -18.026337 -0.013760 -1.961499
v -18.000000 -0.013760 -1.900378
v -18.089918 -0.013760 -1.986816
v -19.895340 1.986240 -1.907940
v -19.984779 1.986240 -1.821962
v -19.958584 1.986240 -1.882757
v -20.040497 -0.013760 -1.961499
v -19.976915 -0.013760 -1.986816
v -20.066833 -0.013760 -1.900378
v -18.171494 1.986240 1.907940
v -18.082052 1.986240 1.821962
v -18.108250 1.986240 1.882757
v -20.040497 -0.013760 1.961499
v -20.066833 -0.013760 1.900378
v -19.976915 -0.013760 1.986816
v -18.082052 1.986240 -1.821962
v -18.171494 1.986240 -1.907939
v -18.108250 1.986240 -1.882757
v -19.976915 1.879197 1.986816
v -20.066833 1.879197 1.900378
v -20.040497 1.879197 1.961499
v -20.066833 1.879197 -1.900378
v -19.976915 1.879197 -1.986816
v -20.040497 1.879197 -1.961499
v -18.089918 1.879197 -1.986816
v -18.000000 1.879197 -1.900378
v -18.026337 1.879197 -1.961499
v -18.000000 1.879197 1.900378
v -18.089918 1.879197 1.986816
v -18.026337 1.879197 1.961499
v -20.035627 1.932718 1.871015
v -19.946369 1.932718 1.956818
v -20.009485 1.932718 1.931687
v -20.035627 1.932718 -1.871015
v -19.946369 1.932718 -1.956818
v -20.009485 1.932718 -1.931687
v -18.120464 1.932718 -1.956818
v -18.031206 1.932718 -1.871015
v -18.057348 1.932718 -1.931687
v -18.031206 1.932718 1.871015
v -18.120464 1.932718 1.956818
v -18.057348 1.932718 1.931687
v -19.895340 1.986240 -1.821962
v -19.895340 1.986240 1.821962
v -18.171494 1.986240 -1.821962
v -18.171494 1.986240 1.821962
v -19.976915 -0.013760 -1.900378
v -18.089918 -0.013760 -1.900378
v -19.976915 -0.013760 1.900378
v -18.089918 -0.013760 1.900378
v -16.503090 -0.013760 1.961499
v -16.566671 -0.013760 1.986816
v -16.476753 -0.013760 1.900378
v -18.162868 1.975362 1.821962
v -18.073427 1.975362 1.907939
v -18.136671 1.975362 1.882757
v -16.503090 -0.013760 0.025317
v -16.476753 -0.013760 0.086438
v -16.566671 -0.013760 0.000000
v -18.073427 1.975362 0.078876
v -18.162868 1.975362 0.164854
v -18.136671 1.975362 0.104059
v -18.218584 -0.013760 0.025317
v -18.155003 -0.013760 0.000000
v -18.244921 -0.013760 0.086438
v -17.041267 1.975362 1.907940
v -16.951826 1.975362 1.821962
v -16.978024 1.975362 1.882757
v -18.218584 -0.013760 1.961499
v -18.244921 -0.013760 1.900378
v -18.155003 -0.013760 1.986816
v -16.951826 1.975362 0.164854
v -17.041267 1.975362 0.078876
v -16.978024 1.975362 0.104058
v -18.155003 1.868319 1.986816
v -18.244921 1.868319 1.900378
v -18.218584 1.868319 1.961499
v -18.244921 1.868319 0.086438
v -18.155003 1.868319 0.000000
v -18.218584 1.868319 0.025317
v -16.959692 1.868319 0.000000
v -16.869774 1.868319 0.086438
v -16.896111 1.868319 0.025317
v -16.869774 1.868319 1.900378
v -16.959692 1.868319 1.986816
v -16.896111 1.868319 1.961499
v -18.213715 1.921841 1.871015
v -18.124456 1.921841 1.956818
v -18.187572 1.921841 1.931687
v -18.213715 1.921841 0.115800
v -18.124456 1.921841 0.029997
v -18.187572 1.921841 0.055128
v -16.990238 1.921841 0.029997
v -16.900978 1.921841 0.115800
v -16.927122 1.921841 0.055128
v -16.900978 1.921841 1.871015
v -16.990238 1.921841 1.956818
v -16.927122 1.921841 1.931687
v -18.073427 1.975362 0.164854
v -18.073427 1.975362 1.821962
v -17.041267 1.975362 0.164854
v -17.041267 1.975362 1.821962
v -18.155003 -0.013760 0.086438
v -16.566671 -0.013760 0.086438
v -18.155003 -0.013760 1.900378
v -16.566671 -0.013760 1.900378
v -16.093170 -0.013760 0.144464
v -16.156752 -0.013760 0.172313
v -16.066833 -0.013760 0.077232
v -18.051615 1.004933 -0.009026
v -17.962173 1.004933 0.085549
v -18.025417 1.004933 0.057849
v -16.093170 -0.013760 -1.985336
v -16.066833 -0.013760 -1.918103
v -16.156752 -0.013760 -2.013184
v -17.962173 1.004933 -1.926420
v -18.051615 1.004933 -1.831845
v -18.025417 1.004933 -1.898720
v -18.107330 -0.013760 -1.985336
v -18.043749 -0.013760 -2.013184
v -18.133667 -0.013760 -1.918103
v -16.576559 1.004933 0.085549
v -16.487120 1.004933 -0.009026
v -16.513315 1.004933 0.057849
v -18.107330 -0.013760 0.144464
v -18.133667 -0.013760 0.077232
v -18.043749 -0.013760 0.172313
v -16.487120 1.004933 -1.831845
v -16.576559 1.004933 -1.926420
v -16.513315 1.004933 -1.898720
v -18.043749 0.897890 0.172313
v -18.133667 0.897890 0.077232
v -18.107330 0.897890 0.144464
v -18.133667 0.897890 -1.918103
v -18.043749 0.897890 -2.013184
v -18.107330 0.897890 -1.985336
v -16.494986 0.897890 -2.013184
v -16.405066 0.897890 -1.918103
v -16.431402 0.897890 -1.985336
v -16.405066 0.897890 0.077232
v -16.494986 0.897890 0.172313
v -16.431402 0.897890 0.144464
v -18.102461 0.951411 0.044933
v -18.013203 0.951411 0.139316
v -18.076319 0.951411 0.111672
v -18.102461 0.951411 -1.885804
v -18.013203 0.951411 -1.980187
v -18.076319 0.951411 -1.952543
v -16.525530 0.951411 -1.980187
v -16.436272 0.951411 -1.885804
v -16.462416 0.951411 -1.952543
v -16.436272 0.951411 0.044933
v -16.525530 0.951411 0.139316
v -16.462416 0.951411 0.111672
v -17.962173 1.004933 -1.831845
v -17.962173 1.004933 -0.009026
v -16.576559 1.004933 -1.831845
v -16.576559 1.004933 -0.009026
v -18.043749 -0.013760 -1.918103
v -16.156752 -0.013760 -1.918103
v -18.043749 -0.013760 0.077232
v -16.156752 -0.013760 0.077232
v -16.872303 0.907709 0.079215
v -16.910452 0.907709 0.094406
v -16.856501 0.907709 0.042543
v -18.047369 1.683287 -0.004507
v -17.993706 1.683287 0.047080
v -18.031651 1.683287 0.031971
v -16.872303 0.907709 -1.082494
v -16.856501 0.907709 -1.045821
v -16.910452 0.907709 -1.097684
v -17.993706 1.683287 -1.050358
v -18.047369 1.683287 -0.998771
v -18.031651 1.683287 -1.035249
v -18.080799 0.907709 -1.082494
v -18.042650 0.907709 -1.097684
v -18.096601 0.907709 -1.045821
v -17.352417 1.683287 0.047080
v -17.298752 1.683287 -0.004507
v -17.314470 1.683287 0.031971
v -18.080799 0.907709 0.079215
v -18.096601 0.907709 0.042543
v -18.042650 0.907709 0.094406
v -17.298752 1.683287 -0.998771
v -17.352417 1.683287 -1.050358
v -17.314470 1.683287 -1.035249
v -18.042650 1.638329 0.094406
v -18.096601 1.638329 0.042543
v -18.080799 1.638329 0.079215
v -18.096601 1.638329 -1.045821
v -18.042650 1.638329 -1.097684
v -18.080799 1.638329 -1.082494
v -17.303473 1.638329 -1.097684
v -17.249521 1.638329 -1.045821
v -17.265324 1.638329 -1.082494
v -17.249521 1.638329 0.042543
v -17.303473 1.638329 0.094406
v -17.265324 1.638329 0.079215
v -18.077877 1.660808 0.024926
v -18.024323 1.660808 0.076407
v -18.062191 1.660808 0.061329
v -18.077877 1.660808 -1.028204
v -18.024323 1.660808 -1.079685
v -18.062191 1.660808 -1.064607
v -17.321798 1.660808 -1.079685
v -17.268244 1.660808 -1.028204
v -17.283930 1.660808 -1.064607
v -17.268244 1.660808 0.024926
v -17.321798 1.660808 0.076407
v -17.283930 1.660808 0.061329
v -17.993706 1.683287 -0.998771
v -17.993706 1.683287 -0.004507
v -17.352417 1.683287 -0.998771
v -17.352417 1.683287 -0.004507
v -18.042650 0.907709 -1.045821
v -16.910452 0.907709 -1.045821
v -18.042650 0.907709 0.042543
v -16.910452 0.907709 0.042543
v -16.073349 -0.009835 1.542063
v -16.087845 -0.009835 1.557253
v -16.067345 -0.009835 1.505391
v -16.768509 1.098133 1.458341
v -16.748116 1.098133 1.509928
v -16.762535 1.098133 1.494818
v -16.073349 -0.009835 0.380354
v -16.067345 -0.009835 0.417026
v -16.087845 -0.009835 0.365164
v -16.748116 1.098133 0.412490
v -16.768509 1.098133 0.464076
v -16.762535 1.098133 0.427599
v -16.781212 -0.009835 0.380354
v -16.766716 -0.009835 0.365164
v -16.787216 -0.009835 0.417026
v -16.106445 1.098133 1.509928
v -16.086052 1.098133 1.458341
v -16.092026 1.098133 1.494818
v -16.781212 -0.009835 1.542063
v -16.787216 -0.009835 1.505391
v -16.766716 -0.009835 1.557253
v -16.086052 1.098133 0.464076
v -16.106445 1.098133 0.412490
v -16.092026 1.098133 0.427599
v -16.766716 1.033907 1.557253
v -16.787216 1.033907 1.505391
v -16.781212 1.033907 1.542063
v -16.787216 1.033907 0.417026
v -16.766716 1.033907 0.365164
v -16.781212 1.033907 0.380354
v -16.087845 1.033907 0.365164
v -16.067345 1.033907 0.417026
v -16.073349 1.033907 0.380354
v -16.067345 1.033907 1.505391
v -16.087845 1.033907 1.557253
v -16.073349 1.033907 1.542063
v -16.780102 1.066020 1.487773
v -16.759750 1.066020 1.539255
v -16.774141 1.066020 1.524176
v -16.780102 1.066020 0.434644
v -16.759750 1.066020 0.383162
v -16.774141 1.066020 0.398241
v -16.094810 1.066020 0.383162
v -16.074459 1.066020 0.434644
v -16.080420 1.066020 0.398241
v -16.074459 1.066020 1.487773
v -16.094810 1.066020 1.539255
v -16.080420 1.066020 1.524176
v -16.748116 1.098133 0.464076
v -16.748116 1.098133 1.458341
v -16.106445 1.098133 0.464076
v -16.106445 1.098133 1.458341
v -16.766716 -0.009835 0.417026
v -16.087845 -0.009835 0.417026
v -16.766716 -0.009835 1.505391
v -16.087845 -0.009835 1.505391
vn -0.1389 0.6387 0.7568
vn -0.0863 0.7154 0.6933
vn -0.2367 0.7685 0.5944
vn -0.2756 0.6670 0.6922
vn -0.6735 0.6798 0.2902
vn -0.5779 0.7772 0.2490
vn -0.6773 0.7296 0.0940
vn -0.7449 0.6509 0.1468
vn 0.3549 0.2823 0.8913
vn 0.1970 0.2834 0.9386
vn 0.1883 -0.0000 0.9821
vn 0.3699 -0.0000 0.9291
vn 0.8781 0.2928 -0.3784
vn 0.9341 0.2895 -0.2091
vn 0.9794 -0.0000 -0.2020
vn 0.9184 -0.0000 -0.3957
vn 0.9341 0.2895 0.2091
vn 0.9794 -0.0000 0.2020
vn -0.3549 0.2823 -0.8913
vn -0.1970 0.2834 -0.9386
vn -0.1883 -0.0000 -0.9821
vn -0.3699 -0.0000 -0.9291
vn -0.1970 0.2834 0.9386
vn -0.1883 -0.0000 0.9821
vn -0.3549 0.2823 0.8913
vn -0.3699 -0.0000 0.9291
vn -0.8781 0.2928 0.3784
vn -0.9341 0.2895 0.2091
vn -0.9794 -0.0000 0.2020
vn -0.9184 -0.0000 0.3957
vn 0.8781 0.2928 0.3784
vn 0.9184 -0.0000 0.3957
vn -0.1389 0.6387 -0.7568
vn -0.2756 0.6670 -0.6922
vn -0.6735 0.6798 -0.2902
vn -0.8781 0.2928 -0.3784
vn -0.9341 0.2895 -0.2091
vn -0.7449 0.6509 -0.1468
vn 0.7449 0.6509 -0.1468
vn 0.6735 0.6798 -0.2902
vn 0.2756 0.6670 -0.6922
vn 0.3549 0.2823 -0.8913
vn 0.1970 0.2834 -0.9386
vn 0.1389 0.6387 -0.7568
vn 0.1389 0.6387 0.7568
vn 0.2756 0.6670 0.6922
vn 0.6735 0.6798 0.2902
vn 0.7449 0.6509 0.1468
vn -0.0863 0.7154 -0.6933
vn -0.2367 0.7685 -0.5944
vn -0.5779 0.7772 -0.2490
vn -0.6773 0.7296 -0.0940
vn 0.6773 0.7296 -0.0940
vn 0.5779 0.7772 -0.2490
vn 0.2367 0.7685 -0.5944
vn 0.0863 0.7154 -0.6933
vn 0.0863 0.7154 0.6933
vn 0.2367 0.7685 0.5944
vn 0.5779 0.7772 0.2490
vn 0.6773 0.7296 0.0940
vn -0.9794 -0.0000 -0.2020
vn 0.3699 -0.0000 -0.9291
vn 0.1883 -0.0000 -0.9821
vn -0.0000 1.0000 -0.0000
vn -0.9184 -0.0000 -0.3957
vn -0.0000 -1.0000 -0.0000
vn 0.3520 0.3074 0.8841
vn 0.1830 0.2999 0.9363
vn 0.2117 0.0442 0.9763
vn 0.3688 0.0770 0.9263
vn 0.8438 0.3948 -0.3636
vn 0.8999 0.3852 -0.2044
vn 0.9605 0.2006 -0.1930
vn 0.9019 0.1883 -0.3886
vn 0.8999 0.3852 0.2044
vn 0.9605 0.2006 0.1930
vn 0.8438 0.3948 0.3636
vn 0.9019 0.1883 0.3886
vn 0.3520 0.3074 -0.8841
vn 0.1830 0.2999 -0.9363
vn 0.3688 0.0770 -0.9263
vn 0.2117 0.0442 -0.9763
vn -0.1448 0.6701 0.7280
vn -0.0923 0.7481 0.6571
vn -0.2443 0.7932 0.5578
vn -0.2870 0.6987 0.6553
vn -0.6819 0.6809 0.2671
vn -0.5810 0.7814 0.2276
vn -0.6801 0.7286 0.0818
vn -0.7453 0.6531 0.1340
vn 0.3748 0.3565 0.8558
vn 0.1848 0.3291 0.9260
vn 0.2474 0.0918 0.9646
vn 0.3968 0.1472 0.9060
vn 0.8245 0.4647 -0.3230
vn 0.8702 0.4567 -0.1848
vn 0.9243 0.3429 -0.1677
vn 0.8801 0.3265 -0.3447
vn 0.8702 0.4567 0.1848
vn 0.9243 0.3429 0.1677
vn -0.3822 0.3043 -0.8725
vn -0.2113 0.3009 -0.9300
vn -0.2049 -0.0000 -0.9788
vn -0.4012 -0.0000 -0.9160
vn -0.2113 0.3009 0.9300
vn -0.2050 -0.0000 0.9788
vn -0.3822 0.3043 0.8725
vn -0.4012 -0.0000 0.9160
vn -0.8914 0.2889 0.3492
vn -0.9364 0.2923 0.1942
vn -0.9826 -0.0000 0.1856
vn -0.9311 -0.0000 0.3647
vn 0.8245 0.4647 0.3230
vn 0.8801 0.3265 0.3447
vn -0.1448 0.6701 -0.7280
vn -0.2870 0.6987 -0.6553
vn -0.6819 0.6809 -0.2671
vn -0.8914 0.2889 -0.3492
vn -0.9364 0.2923 -0.1942
vn -0.7453 0.6531 -0.1340
vn 0.7453 0.6531 -0.1340
vn 0.6819 0.6809 -0.2671
vn 0.2870 0.6987 -0.6553
vn 0.3748 0.3565 -0.8558
vn 0.1848 0.3291 -0.9260
vn 0.1448 0.6701 -0.7280
vn 0.1448 0.6701 0.7280
vn 0.2870 0.6987 0.6553
vn 0.6819 0.6809 0.2671
vn 0.7453 0.6531 0.1340
vn -0.0923 0.7481 -0.6571
vn -0.2443 0.7932 -0.5578
vn -0.5810 0.7814 -0.2276
vn -0.6801 0.7286 -0.0818
vn 0.6801 0.7286 -0.0818
vn 0.5810 0.7814 -0.2276
vn 0.2443 0.7932 -0.5578
vn 0.0923 0.7481 -0.6571
vn 0.0923 0.7481 0.6571
vn 0.2443 0.7932 0.5578
vn 0.5810 0.7814 0.2276
vn 0.6801 0.7286 0.0818
vn -0.9826 -0.0000 -0.1856
vn 0.3968 0.1472 -0.9060
vn 0.2474 0.0918 -0.9646
vn -0.9311 -0.0000 -0.3647
vn -0.1122 0.7578 0.6427
vn -0.0648 0.8235 0.5636
vn -0.1863 0.8640 0.4678
vn -0.2303 0.7826 0.5783
vn -0.5591 0.7933 0.2409
vn -0.4528 0.8700 0.1951
vn -0.5466 0.8344 0.0707
vn -0.6291 0.7683 0.1183
vn 0.3366 0.4149 0.8453
vn 0.1581 0.3935 0.9056
vn 0.2418 0.1301 0.9616
vn 0.3628 0.1952 0.9112
vn 0.7395 0.5930 -0.3186
vn 0.7904 0.5839 -0.1853
vn 0.8680 0.4669 -0.1688
vn 0.8234 0.4429 -0.3548
vn 0.7904 0.5839 0.1853
vn 0.8680 0.4669 0.1688
vn -0.3468 0.3484 -0.8708
vn -0.1929 0.3609 -0.9124
vn -0.1929 0.3609 0.9124
vn -0.3468 0.3484 0.8708
vn -0.8562 0.3618 0.3689
vn -0.9076 0.3666 0.2045
vn 0.7395 0.5930 0.3186
vn 0.8234 0.4429 0.3548
vn -0.1122 0.7578 -0.6427
vn -0.2303 0.7826 -0.5783
vn -0.5591 0.7933 -0.2409
vn -0.8562 0.3618 -0.3689
vn -0.9076 0.3666 -0.2045
vn -0.6291 0.7683 -0.1183
vn 0.6291 0.7683 -0.1183
vn 0.5591 0.7933 -0.2409
vn 0.2303 0.7826 -0.5783
vn 0.3366 0.4149 -0.8453
vn 0.1581 0.3935 -0.9056
vn 0.1122 0.7578 -0.6427
vn 0.1122 0.7578 0.6427
vn 0.2303 0.7826 0.5783
vn 0.5591 0.7933 0.2409
vn 0.6291 0.7683 0.1183
vn -0.0648 0.8235 -0.5636
vn -0.1863 0.8640 -0.4678
vn -0.4528 0.8700 -0.1951
vn -0.5466 0.8344 -0.0707
vn 0.5466 0.8344 -0.0707
vn 0.4528 0.8700 -0.1951
vn 0.1863 0.8640 -0.4678
vn 0.0648 0.8235 -0.5636
vn 0.0648 0.8235 0.5636
vn 0.1863 0.8640 0.4678
vn 0.4528 0.8700 0.1951
vn 0.5466 0.8344 0.0707
vn 0.3628 0.1952 -0.9112
vn 0.2418 0.1301 -0.9616
vn -0.3168 0.5980 0.7362
vn -0.2849 0.7006 0.6542
vn -0.5397 0.6659 0.5151
vn -0.5837 0.5907 0.5571
vn -0.9267 0.3439 0.1517
vn -0.8811 0.4503 0.1443
vn -0.9269 0.3729 0.0417
vn -0.9397 0.3328 0.0794
vn 0.6981 0.2624 0.6662
vn 0.3793 0.2514 0.8905
vn 0.3934 -0.0000 0.9193
vn 0.7234 -0.0000 0.6904
vn 0.9793 0.1232 -0.1604
vn 0.9867 0.1342 -0.0918
vn 0.9967 -0.0000 -0.0811
vn 0.9869 -0.0000 -0.1616
vn 0.9867 0.1342 0.0918
vn 0.9967 -0.0000 0.0811
vn -0.6981 0.2624 -0.6662
vn -0.3793 0.2514 -0.8905
vn -0.3934 -0.0000 -0.9193
vn -0.7234 -0.0000 -0.6904
vn -0.3793 0.2514 0.8905
vn -0.3934 -0.0000 0.9193
vn -0.6981 0.2624 0.6662
vn -0.7234 -0.0000 0.6904
vn -0.9793 0.1232 0.1604
vn -0.9867 0.1342 0.0918
vn -0.9967 -0.0000 0.0811
vn -0.9869 -0.0000 0.1616
vn 0.9793 0.1232 0.1604
vn 0.9869 -0.0000 0.1616
vn -0.3169 0.5980 -0.7362
vn -0.5837 0.5907 -0.5571
vn -0.9267 0.3439 -0.1517
vn -0.9793 0.1232 -0.1604
vn -0.9867 0.1342 -0.0918
vn -0.9397 0.3328 -0.0794
vn 0.9397 0.3328 -0.0794
vn 0.9267 0.3439 -0.1517
vn 0.5837 0.5907 -0.5571
vn 0.6981 0.2624 -0.6662
vn 0.3793 0.2514 -0.8905
vn 0.3168 0.5980 -0.7362
vn 0.3168 0.5980 0.7362
vn 0.5837 0.5907 0.5571
vn 0.9267 0.3439 0.1517
vn 0.9397 0.3328 0.0794
vn -0.2849 0.7006 -0.6542
vn -0.5397 0.6659 -0.5151
vn -0.8811 0.4503 -0.1443
vn -0.9269 0.3729 -0.0417
vn 0.9269 0.3729 -0.0417
vn 0.8811 0.4503 -0.1443
vn 0.5397 0.6659 -0.5151
vn 0.2849 0.7006 -0.6542
vn 0.2849 0.7006 0.6542
vn 0.5397 0.6659 0.5151
vn 0.8811 0.4503 0.1443
vn 0.9269 0.3729 0.0417
vn -0.9967 -0.0000 -0.0811
vn 0.7234 -0.0000 -0.6904
vn 0.3934 -0.0000 -0.9193
vn -0.9869 -0.0000 -0.1616
vt 0.129500 0.542354
vt 0.129518 0.543042
vt 0.129495 0.543042
vt 0.129477 0.542354
vt 0.129486 0.543042
vt 0.129468 0.542354
vt 0.177268 0.183295
vt 0.177268 0.183089
vt 0.238729 0.183089
vt 0.238729 0.183295
vt 0.177268 0.183379
vt 0.238729 0.183379
vt 0.177268 0.176800
vt 0.177268 0.177005
vt 0.238729 0.177005
vt 0.238729 0.176800
vt 0.177268 0.176715
vt 0.238729 0.176715
vt 0.129489 0.541666
vt 0.129466 0.541666
vt 0.129457 0.541666
vt 0.130915 0.542354
vt 0.130926 0.541666
vt 0.130917 0.541666
vt 0.130906 0.542354
vt 0.130894 0.541666
vt 0.130883 0.542354
vt 0.129518 0.543042
vt 0.129495 0.543042
vt 0.129486 0.543042
vt 0.130897 0.543042
vt 0.130888 0.543042
vt 0.130865 0.543042
vt 0.130865 0.543042
vt 0.130888 0.543042
vt 0.130897 0.543042
vt 0.129518 0.543042
vt 0.177621 0.186939
vt 0.177621 0.186734
vt 0.238729 0.188001
vt 0.238729 0.188206
vt 0.177621 0.187024
vt 0.238729 0.188291
vt 0.177621 0.182675
vt 0.177621 0.182880
vt 0.238729 0.182880
vt 0.238729 0.182675
vt 0.177621 0.182590
vt 0.238729 0.182590
vt 0.209129 0.188437
vt 0.209129 0.188232
vt 0.238729 0.189323
vt 0.238729 0.189528
vt 0.209129 0.188522
vt 0.238729 0.189613
vt 0.209129 0.183033
vt 0.209129 0.183238
vt 0.238729 0.183238
vt 0.238729 0.183033
vt 0.209129 0.182948
vt 0.238729 0.182948
vt 0.185088 0.185748
vt 0.185088 0.185625
vt 0.208811 0.186893
vt 0.208811 0.187016
vt 0.185088 0.185799
vt 0.208811 0.187067
vt 0.185088 0.183119
vt 0.185088 0.183242
vt 0.208811 0.183242
vt 0.208811 0.183119
vt 0.185088 0.183068
vt 0.208811 0.183068
vt 0.204713 0.189592
vt 0.204713 0.189545
vt 0.238601 0.189545
vt 0.238601 0.189592
vt 0.204713 0.189611
vt 0.238601 0.189611
vt 0.204713 0.187309
vt 0.204713 0.187356
vt 0.238601 0.187356
vt 0.238601 0.187309
vt 0.204713 0.187290
vt 0.238601 0.187290
s 1
f 38/1/1 5/2/2 6/3/3 39/4/4
f 39/4/5 6/3/6 4/5/7 37/6/8
f 36/7/9 35/8/10 2/9/11 1/10/12
f 33/7/13 32/11/14 8/12/15 7/10/16
f 32/11/14 34/11/17 3/12/18 8/12/15
f 30/13/19 29/14/20 14/15/21 13/16/22
f 35/8/10 25/14/23 21/15/24 2/9/11
f 25/14/23 27/13/25 19/16/26 21/15/24
f 27/13/27 26/17/28 20/18/29 19/16/30
f 34/11/17 36/7/31 1/10/32 3/12/18
f 41/1/33 29/19/20 30/20/19 42/4/34
f 42/4/35 30/20/36 28/21/37 40/6/38
f 44/22/39 32/23/14 33/24/13 45/25/40
f 45/25/41 33/24/42 31/26/43 43/27/44
f 47/27/45 35/26/10 36/24/9 48/25/46
f 48/25/47 36/24/31 34/23/17 46/22/48
f 25/19/23 38/1/1 39/4/4 27/20/25
f 27/20/27 39/4/5 37/6/8 26/21/28
f 10/28/49 41/1/33 42/4/34 12/29/50
f 12/29/51 42/4/35 40/6/38 11/30/52
f 22/31/53 44/22/39 45/25/40 24/32/54
f 24/32/55 45/25/41 43/27/44 23/33/56
f 16/34/57 47/27/45 48/25/46 18/35/58
f 18/35/59 48/25/47 46/22/48 17/36/60
f 26/17/28 28/17/37 15/18/61 20/18/29
f 31/8/43 33/7/42 7/10/62 9/9/63
f 47/27/45 16/34/57 5/2/2 38/1/1
f 37/6/8 4/5/7 11/30/52 40/6/38
f 49/37/64 10/28/64 12/29/64 11/30/64
f 28/17/37 30/13/36 13/16/65 15/18/61
f 41/1/33 10/28/49 23/33/56 43/27/44
f 29/14/20 31/8/43 9/9/63 14/15/21
f 44/22/39 22/31/53 17/36/60 46/22/48
f 26/21/28 37/6/8 40/6/38 28/21/37
f 35/26/10 47/27/45 38/1/1 25/19/23
f 29/19/20 41/1/33 43/27/44 31/26/43
f 32/23/14 44/22/39 46/22/48 34/23/17
f 50/2/64 49/37/64 11/30/64 4/5/64
f 5/2/64 50/2/64 4/5/64 6/3/64
f 52/34/64 51/33/64 49/37/64 50/2/64
f 51/33/64 23/33/64 10/28/64 49/37/64
f 16/34/64 52/34/64 50/2/64 5/2/64
f 17/36/64 22/31/64 51/33/64 52/34/64
f 22/31/64 24/32/64 23/33/64 51/33/64
f 18/35/64 17/36/64 52/34/64 16/34/64
f 55/15/66 21/15/66 19/16/66 20/18/66
f 56/9/66 2/9/66 21/15/66 55/15/66
f 14/15/66 53/15/66 15/18/66 13/16/66
f 9/9/66 54/9/66 53/15/66 14/15/66
f 7/10/66 8/12/66 54/9/66 9/9/66
f 3/12/66 1/10/66 2/9/66 56/9/66
f 54/9/66 56/9/66 55/15/66 53/15/66
f 53/15/66 55/15/66 20/18/66 15/18/66
f 8/12/66 3/12/66 56/9/66 54/9/66
f 94/1/1 61/2/2 62/3/3 95/4/4
f 95/4/5 62/3/6 60/5/7 93/6/8
f 92/38/67 91/39/68 58/40/69 57/41/70
f 89/38/71 88/42/72 64/43/73 63/41/74
f 88/42/72 90/42/75 59/43/76 64/43/73
f 86/44/19 85/45/20 70/46/21 69/47/22
f 91/39/68 81/45/23 77/46/24 58/40/69
f 81/45/23 83/44/25 75/47/26 77/46/24
f 83/44/27 82/48/28 76/49/29 75/47/30
f 90/42/75 92/38/77 57/41/78 59/43/76
f 97/1/33 85/19/20 86/20/19 98/4/34
f 98/4/35 86/20/36 84/21/37 96/6/38
f 100/22/39 88/23/72 89/24/71 101/25/40
f 101/25/41 89/24/79 87/26/80 99/27/44
f 103/27/45 91/26/68 92/24/67 104/25/46
f 104/25/47 92/24/77 90/23/75 102/22/48
f 81/19/23 94/1/1 95/4/4 83/20/25
f 83/20/27 95/4/5 93/6/8 82/21/28
f 66/28/49 97/1/33 98/4/34 68/29/50
f 68/29/51 98/4/35 96/6/38 67/30/52
f 78/31/53 100/22/39 101/25/40 80/32/54
f 80/32/55 101/25/41 99/27/44 79/33/56
f 72/34/57 103/27/45 104/25/46 74/35/58
f 74/35/59 104/25/47 102/22/48 73/36/60
f 82/48/28 84/48/37 71/49/61 76/49/29
f 87/39/80 89/38/79 63/41/81 65/40/82
f 103/27/45 72/34/57 61/2/2 94/1/1
f 93/6/8 60/5/7 67/30/52 96/6/38
f 105/37/64 66/28/64 68/29/64 67/30/64
f 84/48/37 86/44/36 69/47/65 71/49/61
f 97/1/33 66/28/49 79/33/56 99/27/44
f 85/45/20 87/39/80 65/40/82 70/46/21
f 100/22/39 78/31/53 73/36/60 102/22/48
f 82/21/28 93/6/8 96/6/38 84/21/37
f 91/26/68 103/27/45 94/1/1 81/19/23
f 85/19/20 97/1/33 99/27/44 87/26/80
f 88/23/72 100/22/39 102/22/48 90/23/75
f 106/2/64 105/37/64 67/30/64 60/5/64
f 61/2/64 106/2/64 60/5/64 62/3/64
f 108/34/64 107/33/64 105/37/64 106/2/64
f 107/33/64 79/33/64 66/28/64 105/37/64
f 72/34/64 108/34/64 106/2/64 61/2/64
f 73/36/64 78/31/64 107/33/64 108/34/64
f 78/31/64 80/32/64 79/33/64 107/33/64
f 74/35/64 73/36/64 108/34/64 72/34/64
f 111/46/66 77/46/66 75/47/66 76/49/66
f 112/40/66 58/40/66 77/46/66 111/46/66
f 70/46/66 109/46/66 71/49/66 69/47/66
f 65/40/66 110/40/66 109/46/66 70/46/66
f 63/41/66 64/43/66 110/40/66 65/40/66
f 59/43/66 57/41/66 58/40/66 112/40/66
f 110/40/66 112/40/66 111/46/66 109/46/66
f 109/46/66 111/46/66 76/49/66 71/49/66
f 64/43/66 59/43/66 112/40/66 110/40/66
f 150/1/83 117/2/84 118/3/85 151/4/86
f 151/4/87 118/3/88 116/5/89 149/6/90
f 148/50/91 147/51/92 114/52/93 113/53/94
f 145/50/95 144/54/96 120/55/97 119/53/98
f 144/54/96 146/54/99 115/55/100 120/55/97
f 142/56/101 141/57/102 126/58/103 125/59/104
f 147/51/92 137/57/105 133/58/106 114/52/93
f 137/57/105 139/56/107 131/59/108 133/58/106
f 139/56/109 138/60/110 132/61/111 131/59/112
f 146/54/99 148/50/113 113/53/114 115/55/100
f 153/1/115 141/19/102 142/20/101 154/4/116
f 154/4/117 142/20/118 140/21/119 152/6/120
f 156/22/121 144/23/96 145/24/95 157/25/122
f 157/25/123 145/24/124 143/26/125 155/27/126
f 159/27/127 147/26/92 148/24/91 160/25/128
f 160/25/129 148/24/113 146/23/99 158/22/130
f 137/19/105 150/1/83 151/4/86 139/20/107
f 139/20/109 151/4/87 149/6/90 138/21/110
f 122/28/131 153/1/115 154/4/116 124/29/132
f 124/29/133 154/4/117 152/6/120 123/30/134
f 134/31/135 156/22/121 157/25/122 136/32/136
f 136/32/137 157/25/123 155/27/126 135/33/138
f 128/34/139 159/27/127 160/25/128 130/35/140
f 130/35/141 160/25/129 158/22/130 129/36/142
f 138/60/110 140/60/119 127/61/143 132/61/111
f 143/51/125 145/50/124 119/53/144 121/52/145
f 159/27/127 128/34/139 117/2/84 150/1/83
f 149/6/90 116/5/89 123/30/134 152/6/120
f 161/37/64 122/28/64 124/29/64 123/30/64
f 140/60/119 142/56/118 125/59/146 127/61/143
f 153/1/115 122/28/131 135/33/138 155/27/126
f 141/57/102 143/51/125 121/52/145 126/58/103
f 156/22/121 134/31/135 129/36/142 158/22/130
f 138/21/110 149/6/90 152/6/120 140/21/119
f 147/26/92 159/27/127 150/1/83 137/19/105
f 141/19/102 153/1/115 155/27/126 143/26/125
f 144/23/96 156/22/121 158/22/130 146/23/99
f 162/2/64 161/37/64 123/30/64 116/5/64
f 117/2/64 162/2/64 116/5/64 118/3/64
f 164/34/64 163/33/64 161/37/64 162/2/64
f 163/33/64 135/33/64 122/28/64 161/37/64
f 128/34/64 164/34/64 162/2/64 117/2/64
f 129/36/64 134/31/64 163/33/64 164/34/64
f 134/31/64 136/32/64 135/33/64 163/33/64
f 130/35/64 129/36/64 164/34/64 128/34/64
f 167/58/66 133/58/66 131/59/66 132/61/66
f 168/52/66 114/52/66 133/58/66 167/58/66
f 126/58/66 165/58/66 127/61/66 125/59/66
f 121/52/66 166/52/66 165/58/66 126/58/66
f 119/53/66 120/55/66 166/52/66 121/52/66
f 115/55/66 113/53/66 114/52/66 168/52/66
f 166/52/66 168/52/66 167/58/66 165/58/66
f 165/58/66 167/58/66 132/61/66 127/61/66
f 120/55/66 115/55/66 168/52/66 166/52/66
f 206/1/147 173/2/148 174/3/149 207/4/150
f 207/4/151 174/3/152 172/5/153 205/6/154
f 204/62/155 203/63/156 170/64/157 169/65/158
f 201/62/159 200/66/160 176/67/161 175/65/162
f 200/66/160 202/66/163 171/67/164 176/67/161
f 198/68/165 197/69/166 182/70/21 181/71/22
f 203/63/156 193/69/167 189/70/24 170/64/157
f 193/69/167 195/68/168 187/71/26 189/70/24
f 195/68/169 194/72/170 188/73/29 187/71/30
f 202/66/163 204/62/171 169/65/172 171/67/164
f 209/1/173 197/19/166 198/20/165 210/4/174
f 210/4/175 198/20/176 196/21/177 208/6/178
f 212/22/179 200/23/160 201/24/159 213/25/180
f 213/25/181 201/24/182 199/26/183 211/27/184
f 215/27/185 203/26/156 204/24/155 216/25/186
f 216/25/187 204/24/171 202/23/163 214/22/188
f 193/19/167 206/1/147 207/4/150 195/20/168
f 195/20/169 207/4/151 205/6/154 194/21/170
f 178/28/189 209/1/173 210/4/174 180/29/190
f 180/29/191 210/4/175 208/6/178 179/30/192
f 190/31/193 212/22/179 213/25/180 192/32/194
f 192/32/195 213/25/181 211/27/184 191/33/196
f 184/34/197 215/27/185 216/25/186 186/35/198
f 186/35/199 216/25/187 214/22/188 185/36/200
f 194/72/170 196/72/177 183/73/61 188/73/29
f 199/63/183 201/62/182 175/65/201 177/64/202
f 215/27/185 184/34/197 173/2/148 206/1/147
f 205/6/154 172/5/153 179/30/192 208/6/178
f 217/37/64 178/28/64 180/29/64 179/30/64
f 196/72/177 198/68/176 181/71/65 183/73/61
f 209/1/173 178/28/189 191/33/196 211/27/184
f 197/69/166 199/63/183 177/64/202 182/70/21
f 212/22/179 190/31/193 185/36/200 214/22/188
f 194/21/170 205/6/154 208/6/178 196/21/177
f 203/26/156 215/27/185 206/1/147 193/19/167
f 197/19/166 209/1/173 211/27/184 199/26/183
f 200/23/160 212/22/179 214/22/188 202/23/163
f 218/2/64 217/37/64 179/30/64 172/5/64
f 173/2/64 218/2/64 172/5/64 174/3/64
f 220/34/64 219/33/64 217/37/64 218/2/64
f 219/33/64 191/33/64 178/28/64 217/37/64
f 184/34/64 220/34/64 218/2/64 173/2/64
f 185/36/64 190/31/64 219/33/64 220/34/64
f 190/31/64 192/32/64 191/33/64 219/33/64
f 186/35/64 185/36/64 220/34/64 184/34/64
f 223/70/66 189/70/66 187/71/66 188/73/66
f 224/64/66 170/64/66 189/70/66 223/70/66
f 182/70/66 221/70/66 183/73/66 181/71/66
f 177/64/66 222/64/66 221/70/66 182/70/66
f 175/65/66 176/67/66 222/64/66 177/64/66
f 171/67/66 169/65/66 170/64/66 224/64/66
f 222/64/66 224/64/66 223/70/66 221/70/66
f 221/70/66 223/70/66 188/73/66 183/73/66
f 176/67/66 171/67/66 224/64/66 222/64/66
f 262/1/203 229/2/204 230/3/205 263/4/206
f 263/4/207 230/3/208 228/5/209 261/6/210
f 260/74/211 259/75/212 226/76/213 225/77/214
f 257/74/215 256/78/216 232/79/217 231/77/218
f 256/78/216 258/78/219 227/79/220 232/79/217
f 254/80/221 253/81/222 238/82/223 237/83/224
f 259/75/212 249/81/225 245/82/226 226/76/213
f 249/81/225 251/80/227 243/83/228 245/82/226
f 251/80/229 250/84/230 244/85/231 243/83/232
f 258/78/219 260/74/233 225/77/234 227/79/220
f 265/1/235 253/19/222 254/20/221 266/4/236
f 266/4/237 254/20/238 252/21/239 264/6/240
f 268/22/241 256/23/216 257/24/215 269/25/242
f 269/25/243 257/24/244 255/26/245 267/27/246
f 271/27/247 259/26/212 260/24/211 272/25/248
f 272/25/249 260/24/233 258/23/219 270/22/250
f 249/19/225 262/1/203 263/4/206 251/20/227
f 251/20/229 263/4/207 261/6/210 250/21/230
f 234/28/251 265/1/235 266/4/236 236/29/252
f 236/29/253 266/4/237 264/6/240 235/30/254
f 246/31/255 268/22/241 269/25/242 248/32/256
f 248/32/257 269/25/243 267/27/246 247/33/258
f 240/34/259 271/27/247 272/25/248 242/35/260
f 242/35/261 272/25/249 270/22/250 241/36/262
f 250/84/230 252/84/239 239/85/263 244/85/231
f 255/75/245 257/74/244 231/77/264 233/76/265
f 271/27/247 240/34/259 229/2/204 262/1/203
f 261/6/210 228/5/209 235/30/254 264/6/240
f 273/37/64 234/28/64 236/29/64 235/30/64
f 252/84/239 254/80/238 237/83/266 239/85/263
f 265/1/235 234/28/251 247/33/258 267/27/246
f 253/81/222 255/75/245 233/76/265 238/82/223
f 268/22/241 246/31/255 241/36/262 270/22/250
f 250/21/230 261/6/210 264/6/240 252/21/239
f 259/26/212 271/27/247 262/1/203 249/19/225
f 253/19/222 265/1/235 267/27/246 255/26/245
f 256/23/216 268/22/241 270/22/250 258/23/219
f 274/2/64 273/37/64 235/30/64 228/5/64
f 229/2/64 274/2/64 228/5/64 230/3/64
f 276/34/64 275/33/64 273/37/64 274/2/64
f 275/33/64 247/33/64 234/28/64 273/37/64
f 240/34/64 276/34/64 274/2/64 229/2/64
f 241/36/64 246/31/64 275/33/64 276/34/64
f 246/31/64 248/32/64 247/33/64 275/33/64
f 242/35/64 241/36/64 276/34/64 240/34/64
f 279/82/66 245/82/66 243/83/66 244/85/66
f 280/76/66 226/76/66 245/82/66 279/82/66
f 238/82/66 277/82/66 239/85/66 237/83/66
f 233/76/66 278/76/66 277/82/66 238/82/66
f 231/77/66 232/79/66 278/76/66 233/76/66
f 227/79/66 225/77/66 226/76/66 280/76/66
f 278/76/66 280/76/66 279/82/66 277/82/66
f 277/82/66 279/82/66 244/85/66 239/85/66
f 232/79/66 227/79/66 280/76/66 278/76/66
