# Blender 5.0.1
# www.blender.org
o GEO_RoadTileConvertFlat
v -7.920600 -0.013760 1.830124
v -7.834052 -0.013760 1.916487
v -7.895251 -0.013760 1.891192
v -4.025485 -2.013760 1.970286
v -4.087011 -2.013760 1.995716
v -7.870917 -0.013760 -1.916487
v -7.920600 -0.013760 -1.830124
v -7.895251 -0.013760 -1.891191
v -4.000000 -2.013760 1.908891
v -4.025485 -2.013760 -1.970286
v -4.000000 -2.013760 -1.908891
v -4.165948 -0.013760 1.916487
v -4.079400 -0.013760 1.830124
v -4.104749 -0.013760 1.891191
v -4.087011 -2.013760 -1.995716
v -7.974515 -2.013760 -1.970286
v -7.912989 -2.013760 -1.995716
v -4.079400 -0.013760 -1.830124
v -4.129083 -0.013760 -1.916487
v -4.104749 -0.013760 -1.891192
v -7.912989 -0.120803 1.995716
v -8.000000 -0.120803 1.908891
v -7.974515 -0.120803 1.970286
v -8.000000 -0.120803 -1.908891
v -7.907565 -0.120803 -2.004284
v -7.974515 -0.120803 -1.970286
v -4.092435 -0.120803 -2.004284
v -4.000000 -0.120803 -1.908891
v -4.025485 -0.120803 -1.970286
v -4.000000 -0.120803 1.908891
v -4.087011 -0.120803 1.995716
v -4.025485 -0.120803 1.970286
v -7.969804 -0.067282 1.879397
v -7.883431 -0.067282 1.965585
v -7.944506 -0.067282 1.940341
v -7.969804 -0.067282 -1.879397
v -7.883431 -0.067282 -1.965585
v -7.944506 -0.067282 -1.940341
v -4.116569 -0.067282 -1.965585
v -4.030196 -0.067282 -1.879397
v -4.055494 -0.067282 -1.940341
v -4.030196 -0.067282 1.879397
v -4.116569 -0.067282 1.965585
v -4.055494 -0.067282 1.940341
v -7.852393 -0.013760 -1.830124
v -7.834053 -0.013760 1.830124
v -4.147607 -0.013760 -1.830124
v -4.165948 -0.013760 1.830124
v -8.000000 -2.013760 -1.908891
v -7.974515 -2.013760 1.970286
v -7.141741 -0.120803 1.995716
v -4.858259 -0.120803 1.995716
v -4.731399 -0.067282 1.965585
v -7.268601 -0.067282 1.965585
v -7.293973 -0.013760 1.916487
v -4.706027 -0.013760 1.916487
v -8.000000 -2.013760 1.908891
v -7.912989 -2.013760 1.995716
v -4.706027 -0.013760 1.830124
v -7.293973 -0.013760 1.830124
v -4.858259 -0.120803 1.901829
v -7.141741 -0.120803 1.901829
v -7.141741 -0.120803 1.830124
v -4.858259 -0.120803 1.830124
v -7.912989 -2.013760 1.908891
v -7.912989 -2.013760 -1.908891
v -4.087011 -2.013760 -1.908891
v -4.087011 -2.013760 1.908891
v -4.133266 -0.120803 -1.799848
v -7.866734 -0.120803 -1.799848
vn -0.1436 0.6394 0.7553
vn -0.0908 0.7174 0.6907
vn -0.2445 0.7683 0.5916
vn -0.2842 0.6682 0.6876
vn -0.6866 0.6689 0.2850
vn -0.5907 0.7688 0.2452
vn -0.6898 0.7182 0.0912
vn -0.7547 0.6401 0.1441
vn -0.0000 0.0625 0.9980
vn -0.2028 0.2833 0.9374
vn -0.1947 -0.0000 0.9809
vn -0.0750 0.1679 -0.9829
vn 0.0750 0.1679 -0.9829
vn 0.2154 -0.0031 -0.9765
vn -0.2154 -0.0031 -0.9765
vn -0.6727 0.3062 0.6736
vn -0.7066 -0.0000 0.7076
vn -0.3996 0.3068 -0.8638
vn -0.4198 -0.0015 -0.9076
vn 0.8852 0.2851 -0.3675
vn 0.9371 0.2836 -0.2034
vn 0.9807 -0.0000 -0.1955
vn 0.9236 -0.0000 -0.3834
vn 0.5661 0.3834 -0.7298
vn -0.3368 0.6707 -0.6608
vn -0.6866 0.6689 -0.2850
vn -0.8852 0.2851 -0.3675
vn -0.9371 0.2836 -0.2034
vn -0.7547 0.6401 -0.1441
vn 0.7547 0.6401 -0.1441
vn 0.6866 0.6689 -0.2850
vn 0.3368 0.6707 -0.6608
vn 0.3996 0.3068 -0.8638
vn -0.5661 0.3834 -0.7298
vn 0.1436 0.6394 0.7553
vn 0.2028 0.2833 0.9374
vn 0.6727 0.3062 0.6736
vn 0.2842 0.6682 0.6876
vn 0.6866 0.6689 0.2850
vn 0.9371 0.2836 0.2034
vn 0.7547 0.6401 0.1441
vn -0.9371 0.2836 0.2034
vn 0.6496 0.4435 -0.6175
vn -0.3453 0.7349 -0.5836
vn -0.5907 0.7688 -0.2452
vn -0.6898 0.7182 -0.0912
vn 0.6898 0.7182 -0.0912
vn 0.5907 0.7688 -0.2452
vn 0.3453 0.7349 -0.5836
vn -0.6496 0.4435 -0.6175
vn 0.0908 0.7174 0.6907
vn 0.2445 0.7683 0.5916
vn 0.5907 0.7688 0.2452
vn 0.6898 0.7182 0.0912
vn -0.0000 1.0000 -0.0000
vn 0.5416 0.8359 0.0887
vn 0.4752 0.8484 0.2333
vn 0.5320 0.8393 0.1117
vn 0.1947 -0.0000 0.9809
vn 0.7066 -0.0000 0.7076
vn 0.9807 -0.0000 0.1955
vn -0.9236 -0.0000 -0.3834
vn -0.9807 -0.0000 -0.1955
vn -0.0000 0.5520 0.8338
vn -0.0000 0.6760 0.7369
vn -0.9807 -0.0000 0.1955
vn 0.4198 -0.0015 -0.9076
vn -0.4752 0.8484 0.2333
vn -0.5416 0.8359 0.0887
vn -0.5320 0.8393 0.1117
vn 0.7297 0.6792 -0.0786
vn 0.7172 0.6932 -0.0717
vn -0.7297 0.6792 -0.0786
vn -0.7172 0.6932 -0.0717
vn -0.0000 -1.0000 -0.0000
vn -0.9559 0.2401 -0.1691
vn -0.9750 0.1450 -0.1686
vn 0.9559 0.2401 -0.1691
vn 0.9750 0.1450 -0.1686
vt 0.129396 0.542217
vt 0.129422 0.542907
vt 0.129435 0.542907
vt 0.129409 0.542217
vt 0.129468 0.542907
vt 0.129441 0.542217
vt 0.129379 0.541526
vt 0.292084 0.638354
vt 0.129393 0.541526
vt 0.131584 0.541597
vt 0.131584 0.541597
vt 0.131491 0.541526
vt 0.131458 0.541526
vt 0.131585 0.541552
vt 0.131585 0.541552
vt 0.131475 0.542217
vt 0.131443 0.542217
vt 0.129426 0.541526
vt 0.131586 0.541506
vt 0.131587 0.541506
vt 0.131449 0.542907
vt 0.131416 0.542907
vt 0.130730 0.543487
vt 0.130728 0.543522
vt 0.130724 0.543512
vt 0.131091 0.543512
vt 0.131087 0.543522
vt 0.131085 0.543487
vt 0.129429 0.541526
vt 0.292022 0.638354
vt 0.292028 0.638354
vt 0.129468 0.541526
vt 0.292033 0.638354
vt 0.292140 0.638354
vt 0.129841 0.541510
vt 0.129841 0.541529
vt 0.129844 0.541523
vt 0.129845 0.541510
vt 0.292324 0.639398
vt 0.292324 0.639353
vt 0.291844 0.639353
vt 0.291844 0.639398
vt 0.291844 0.637356
vt 0.292324 0.637356
vt 0.292324 0.637311
vt 0.291844 0.637311
vt 0.129841 0.540694
vt 0.129841 0.540712
vt 0.129845 0.540712
vt 0.129844 0.540699
vt 0.129646 0.540699
vt 0.129645 0.540712
vt 0.129649 0.540712
vt 0.129649 0.540694
vt 0.129645 0.541510
vt 0.129646 0.541523
vt 0.129649 0.541529
vt 0.129649 0.541510
vt 0.131088 0.543475
vt 0.131018 0.542011
vt 0.131030 0.542011
vt 0.130727 0.543475
vt 0.130785 0.542011
vt 0.130797 0.542011
vt 0.292146 0.638354
vt 0.131090 0.543541
vt 0.130725 0.543541
vt 0.130723 0.543557
vt 0.131092 0.543557
vt 0.295246 0.638145
vt 0.288923 0.638564
vt 0.131909 0.541358
s 1
f 34/1/1 2/2/2 3/3/3 35/4/4
f 35/4/5 3/3/6 1/5/7 33/6/8
f 51/7/9 21/7/10 58/7/11
f 25/8/12 27/8/13 15/8/14 17/8/15
f 21/7/10 23/9/16 50/9/17 58/7/11
f 26/10/18 25/11/12 17/11/15 16/10/19
f 29/12/20 28/13/21 11/13/22 10/12/23
f 37/14/24 25/11/12 26/10/18 38/15/25
f 38/16/26 26/12/27 24/13/28 36/17/29
f 40/17/30 28/13/21 29/12/20 41/16/31
f 41/15/32 29/10/33 27/11/13 39/14/34
f 43/1/35 31/7/36 32/9/37 44/4/38
f 44/4/39 32/9/37 30/18/40 42/6/41
f 21/7/10 34/1/1 35/4/4 23/9/16
f 23/9/16 35/4/5 33/6/8 22/18/42
f 6/19/43 37/14/24 38/15/25 8/20/44
f 8/21/45 38/16/26 36/17/29 7/22/46
f 18/22/47 40/17/30 41/16/31 20/21/48
f 20/20/49 41/15/32 39/14/34 19/19/50
f 12/2/51 43/1/35 44/4/38 14/3/52
f 14/3/53 44/4/39 42/6/41 13/5/54
f 45/23/55 6/24/55 8/25/55
f 2/2/55 46/5/55 1/5/55 3/3/55
f 20/26/55 19/27/55 47/28/55
f 14/3/55 13/5/55 48/5/55 12/2/55
f 55/2/56 54/1/57 51/7/57 62/29/58
f 32/9/37 31/7/36 5/7/59 4/9/60
f 28/13/21 30/18/40 9/18/61 11/13/22
f 24/13/28 26/12/27 16/12/62 49/13/63
f 51/7/9 54/1/64 34/1/1 21/7/10
f 31/7/36 43/1/35 53/1/64 52/7/9
f 43/1/35 12/2/51 56/2/65 53/1/64
f 54/1/64 55/2/65 2/2/2 34/1/1
f 55/2/55 60/5/55 46/5/55 2/2/55
f 12/2/55 48/5/55 59/5/55 56/2/55
f 23/9/16 22/18/42 57/18/66 50/9/17
f 27/11/13 29/10/33 10/10/67 15/11/14
f 51/30/55 52/30/55 61/31/55 62/31/55
f 53/1/68 56/2/69 61/29/70 52/7/68
f 60/5/71 55/2/56 62/29/58 63/32/72
f 62/31/55 61/31/55 64/33/55 63/33/55
f 56/2/69 59/5/73 64/32/74 61/29/70
f 70/34/55 63/33/55 64/33/55 69/34/55
f 48/5/55 47/22/55 59/5/55
f 13/5/55 18/22/55 47/22/55 48/5/55
f 46/5/55 45/22/55 7/22/55 1/5/55
f 40/17/30 42/6/41 30/18/40 28/13/21
f 33/6/8 36/17/29 24/13/28 22/18/42
f 30/18/40 32/9/37 4/9/60 9/18/61
f 18/22/47 13/5/54 42/6/41 40/17/30
f 65/35/75 58/36/75 50/37/75 57/38/75
f 58/39/75 65/40/75 68/41/75 5/42/75
f 67/43/75 66/44/75 17/45/75 15/46/75
f 17/47/75 66/48/75 49/49/75 16/50/75
f 1/5/7 7/22/46 36/17/29 33/6/8
f 66/44/75 67/43/75 68/41/75 65/40/75
f 66/48/75 65/35/75 57/38/75 49/49/75
f 10/51/75 11/52/75 67/53/75 15/54/75
f 9/55/75 4/56/75 5/57/75 68/58/75
f 60/5/55 45/22/55 46/5/55
f 22/18/42 24/13/28 49/13/63 57/18/66
f 7/22/55 45/22/55 8/21/55
f 18/22/55 20/21/55 47/22/55
f 11/52/75 9/55/75 68/58/75 67/53/75
f 69/59/76 64/60/74 59/61/73 47/28/77
f 70/62/78 45/23/79 60/63/71 63/64/72
f 25/65/55 70/34/55 69/34/55 27/65/55
f 69/59/76 47/28/77 19/27/50 39/66/34
f 37/67/24 6/24/43 45/23/79 70/62/78
f 25/68/12 37/67/24 70/62/78
f 27/69/13 69/59/76 39/66/34
f 52/70/9 51/71/9 58/71/11 5/71/59
f 31/7/36 52/72/9 5/7/59
