# Blender 5.0.1
# www.blender.org
o GEO_PineTree_A
v -4.000000 3.735017 12.000000
v -4.111595 3.608967 11.948069
v -4.125725 3.604148 12.010706
v -4.102255 3.606042 12.071327
v -4.053920 3.602268 12.115175
v -3.988852 3.602877 12.125938
v -3.926918 3.603082 12.103525
v -3.888408 3.608967 12.051947
v -3.874272 3.604148 11.989340
v -3.897758 3.606046 11.928682
v -3.946121 3.602266 11.884809
v -4.011166 3.602869 11.874055
v -4.073085 3.603078 11.896473
v -4.118967 2.554777 11.939286
v -4.073407 2.524697 11.890667
v -4.010680 2.554797 11.874567
v -3.956104 2.520836 11.872028
v -3.894853 2.534338 11.926683
v -3.861607 2.520927 12.005087
v -3.873064 2.555168 12.058582
v -3.917742 2.524701 12.102916
v -3.984642 2.554428 12.118259
v -4.046556 2.522887 12.117490
v -4.098453 2.547419 12.068440
v -4.129760 2.522909 12.000834
v -4.559345 2.511655 11.739755
v -4.632710 2.672192 11.705949
v -4.454551 2.517520 11.361060
v -4.396725 2.376734 11.449405
v -4.062451 2.650247 11.335699
v -4.053576 2.504861 11.431030
v -3.666871 2.498008 11.277666
v -3.710490 2.355471 11.373708
v -3.386938 2.581822 11.571060
v -3.461645 2.423465 11.624846
v -3.198863 2.506280 11.936002
v -3.299273 2.358301 11.948878
v -3.368438 2.673135 12.298030
v -3.438745 2.513001 12.263266
v -3.548134 2.516919 12.640777
v -3.603040 2.376380 12.549957
v -3.941930 2.648098 12.663924
v -3.948654 2.502498 12.564727
v -4.333219 2.506529 12.710903
v -4.287251 2.367027 12.610994
v -4.574825 2.634128 12.401855
v -4.499109 2.478485 12.346958
v -4.790649 2.516582 12.067049
v -4.687236 2.370729 12.053252
v -4.236281 2.876737 12.516002
v -4.136416 3.284367 12.299240
v -4.429060 2.944816 12.301177
v -4.253237 3.314408 12.178012
v -3.954081 2.910970 12.532670
v -3.972100 3.288715 12.322844
v -3.683290 2.886406 12.466296
v -3.817933 3.290680 12.269979
v -3.543226 2.985893 12.214970
v -3.732633 3.338444 12.125269
v -3.437783 2.895093 11.950239
v -3.679381 3.298778 11.969872
v -3.564004 2.937295 11.693863
v -3.747000 3.315206 11.822145
v -3.766109 2.876740 11.481261
v -3.864343 3.284766 11.700521
v -4.048114 2.911710 11.467701
v -4.028295 3.288763 11.677190
v -4.317903 2.886803 11.534713
v -4.182218 3.290728 11.730152
v -4.457423 2.985746 11.786823
v -4.267442 3.338451 11.875043
v -4.320676 3.298381 12.030885
v -4.560528 2.895544 12.052602
v -4.662027 2.601760 11.692701
v -3.654872 2.418406 11.251848
v -3.361400 2.502659 11.554064
v -3.166903 2.424567 11.936444
v -3.338423 2.603030 12.311854
v -3.529339 2.440506 12.661193
v -3.939711 2.583306 12.682237
v -4.344798 2.429549 12.733989
v -4.596471 2.562225 12.415927
v -4.820663 2.437183 12.067103
v -4.064833 2.585809 11.315870
v -4.472895 2.441036 11.340144
v -4.000000 3.122316 12.000000
v -4.150006 2.952880 11.930194
v -4.169001 2.946401 12.014391
v -4.137452 2.948947 12.095879
v -4.072479 2.943874 12.154819
v -3.985015 2.944693 12.169288
v -3.901762 2.944969 12.139160
v -3.849997 2.952880 12.069827
v -3.830996 2.946401 11.985670
v -3.862565 2.948953 11.904135
v -3.927576 2.943871 11.845159
v -4.015009 2.944683 11.830704
v -4.098242 2.944963 11.860839
v -4.159916 1.535829 11.918388
v -4.098674 1.495395 11.853033
v -4.014356 1.535855 11.831392
v -3.940995 1.490204 11.827980
v -3.858660 1.508354 11.901447
v -3.813971 1.490327 12.006838
v -3.829372 1.536354 12.078746
v -3.889428 1.495400 12.138340
v -3.979355 1.535359 12.158965
v -4.062582 1.492962 12.157931
v -4.132341 1.525938 12.091998
v -4.174424 1.492991 12.001122
v -4.751875 1.477864 11.650177
v -4.850494 1.693659 11.604733
v -4.611011 1.485748 11.141132
v -4.533280 1.296503 11.259886
v -4.083947 1.664160 11.107041
v -4.072018 1.468731 11.235187
v -3.552205 1.459520 11.029034
v -3.610838 1.267920 11.158133
v -3.229548 1.708621 11.423415
v -3.329969 1.495756 11.495716
v -2.923106 1.470639 11.913973
v -3.058077 1.271724 11.931282
v -3.151049 1.694926 12.400614
v -3.245557 1.479673 12.353883
v -3.392599 1.484940 12.861337
v -3.466403 1.296026 12.739257
v -3.921942 1.661272 12.892452
v -3.930980 1.465555 12.759109
v -4.447915 1.470974 12.955602
v -4.386125 1.283454 12.821304
v -4.772685 1.642493 12.540175
v -4.670906 1.433276 12.466384
v -5.062797 1.484487 12.090128
v -4.923788 1.288431 12.071583
v -4.317610 1.968609 12.693613
v -4.183372 2.516550 12.402241
v -4.576745 2.060122 12.404844
v -4.340403 2.556930 12.239285
v -3.938276 2.014627 12.716019
v -3.962497 2.522393 12.433969
v -3.574276 1.981607 12.626800
v -3.755263 2.525035 12.362908
v -3.386000 2.115338 12.288964
v -3.640604 2.589240 12.168387
v -3.244263 1.993284 11.933111
v -3.569022 2.535921 11.959503
v -3.413931 2.050012 11.588488
v -3.659915 2.558004 11.760926
v -3.685602 1.968614 11.302707
v -3.817649 2.517086 11.597439
v -4.064676 2.015621 11.284479
v -4.038034 2.522459 11.566076
v -4.427327 1.982140 11.374557
v -4.244938 2.525099 11.637269
v -4.614872 2.115140 11.713447
v -4.359498 2.589249 11.832032
v -4.431056 2.535387 12.041516
v -4.753467 1.993890 12.070708
v -4.889903 1.598984 11.586926
v -3.536076 1.352517 10.994328
v -3.195220 1.602209 11.400569
v -2.880144 1.360800 11.914568
v -3.110703 1.600691 12.419197
v -3.367333 1.382224 12.888781
v -3.918959 1.574177 12.917068
v -4.463480 1.367496 12.986634
v -4.801781 1.545840 12.559093
v -5.103142 1.377758 12.090200
v -4.087148 1.577543 11.080388
v -4.635669 1.382937 11.113016
v -4.000000 2.466536 12.000000
v -4.050416 2.267632 11.812429
v -4.140466 2.260027 11.858881
v -4.189939 2.263016 11.948742
v -4.193915 2.257061 12.051645
v -4.140928 2.258022 12.141216
v -4.051014 2.258346 12.193349
v -3.949605 2.267632 12.187584
v -3.859587 2.260027 12.141167
v -3.810086 2.263023 12.051253
v -3.806107 2.257057 11.948289
v -3.859082 2.258009 11.858755
v -3.948987 2.258338 11.806646
v -4.047278 0.604138 11.794610
v -3.942295 0.556672 11.800368
v -3.859209 0.604169 11.859862
v -3.800784 0.550579 11.923259
v -3.804723 0.571885 12.052736
v -3.865776 0.550723 12.172449
v -3.942062 0.604755 12.212861
v -4.040970 0.556678 12.203822
v -4.127375 0.603586 12.138516
v -4.189246 0.553816 12.062893
v -4.182592 0.592527 11.950410
v -4.132625 0.553850 11.843992
v -4.252762 0.536093 11.059893
v -4.286313 0.789416 10.936918
v -3.688701 0.545347 10.802456
v -3.736839 0.323190 10.961965
v -3.260334 0.754787 11.250703
v -3.366570 0.525371 11.358126
v -2.788944 0.514557 11.670019
v -2.949282 0.289637 11.714708
v -2.900130 0.806981 12.257767
v -3.040923 0.557095 12.222017
v -3.110039 0.527611 12.903504
v -3.227451 0.294101 12.795189
v -3.719661 0.790905 13.065730
v -3.748951 0.538215 12.945479
v -4.316243 0.544398 13.196162
v -4.262152 0.322630 13.037673
v -4.743654 0.751397 12.743619
v -4.630563 0.521642 12.634874
v -5.197330 0.528004 12.318278
v -5.029934 0.307872 12.272507
v -5.068814 0.729352 11.712752
v -4.925655 0.483750 11.748597
v -4.883011 0.543867 11.112267
v -4.761441 0.313714 11.223280
v -4.863407 1.112184 12.237767
v -4.500091 1.755419 12.138620
v -4.799263 1.219613 11.786837
v -4.472042 1.802822 11.874445
v -4.597318 1.166205 12.595798
v -4.361955 1.762279 12.361188
v -4.242421 1.127442 12.855808
v -4.141680 1.765380 12.493926
v -3.796547 1.284431 12.770197
v -3.880234 1.840750 12.450255
v -3.369587 1.141150 12.629138
v -3.638376 1.778159 12.357007
v -3.187706 1.207744 12.216516
v -3.528388 1.804082 12.125428
v -3.135708 1.112190 11.756568
v -3.500391 1.756049 11.860220
v -3.405357 1.167372 11.401923
v -3.638485 1.762356 11.638369
v -3.760010 1.128069 11.143773
v -3.858632 1.765455 11.506025
v -4.206279 1.284199 11.230839
v -4.120221 1.840762 11.549970
v -4.362598 1.777532 11.643692
v -4.632133 1.141862 11.375785
v -4.300035 0.678276 10.888042
v -2.745564 0.388946 11.658336
v -2.853682 0.682063 12.271398
v -3.078156 0.398669 12.942587
v -3.705929 0.680280 13.116034
v -4.321858 0.423819 13.239592
v -4.763539 0.649155 12.764876
v -5.236980 0.406529 12.327698
v -5.107780 0.615890 11.700861
v -4.913520 0.418576 11.076041
v -3.238781 0.653106 11.227713
v -3.682024 0.424656 10.759066
v -4.326357 0.000000 12.358400
v -4.358400 0.000000 12.326353
v -4.230400 0.574437 12.197962
v -4.198358 0.574437 12.230008
v -4.358400 0.000000 11.673638
v -4.326357 0.000000 11.641600
v -4.198357 0.574437 11.769209
v -4.230400 0.574437 11.801247
v -3.641600 0.000000 12.326353
v -3.673642 0.000000 12.358400
v -3.801642 0.574437 12.230008
v -3.769600 0.574437 12.197962
v -3.673643 0.000000 11.641600
v -3.641600 0.000000 11.673638
v -3.769600 0.574437 11.801247
v -3.801643 0.574437 11.769209
vn -0.0000 1.0000 -0.0000
vn -0.7115 0.6177 -0.3350
vn -0.7901 0.6086 0.0732
vn -0.6442 0.6132 0.4571
vn -0.3312 0.6068 0.7226
vn 0.0672 0.6081 0.7910
vn 0.4479 0.6072 0.6563
vn 0.7112 0.6178 0.3355
vn 0.7901 0.6087 -0.0727
vn 0.6441 0.6134 -0.4570
vn 0.3306 0.6069 -0.7227
vn -0.0678 0.6081 -0.7909
vn -0.4483 0.6072 -0.6560
vn 0.0685 -0.9970 0.0362
vn 0.1524 -0.9628 0.2233
vn -0.0042 -0.9955 0.0949
vn -0.2374 -0.9492 0.2067
vn -0.1637 -0.9784 0.1265
vn -0.2658 -0.9499 0.1646
vn -0.0648 -0.9974 -0.0301
vn -0.1414 -0.9624 -0.2319
vn 0.0003 -0.9947 -0.1024
vn 0.1579 -0.9591 -0.2348
vn 0.1030 -0.9908 -0.0882
vn 0.2628 -0.9615 -0.0799
vn -0.2988 -0.9427 -0.1487
vn -0.7982 0.4668 -0.3807
vn -0.4746 0.4068 -0.7805
vn -0.0958 -0.9859 -0.1369
vn -0.0853 0.4071 -0.9094
vn -0.0571 -0.9586 -0.2789
vn 0.3220 0.4014 -0.8575
vn -0.0582 -0.9798 -0.1914
vn 0.7281 0.4411 -0.5248
vn 0.1844 -0.9751 -0.1236
vn 0.8969 0.4360 -0.0745
vn 0.1769 -0.9769 0.1201
vn 0.7922 0.4716 0.3873
vn 0.2977 -0.9397 0.1682
vn 0.4646 0.4039 0.7881
vn 0.1024 -0.9861 0.1309
vn 0.0761 0.3972 0.9146
vn 0.0391 -0.9620 0.2701
vn -0.3524 0.3833 0.8538
vn -0.0257 -0.9872 0.1577
vn -0.7325 0.4293 0.5283
vn -0.2232 -0.9635 0.1478
vn -0.9001 0.4231 0.1041
vn -0.1766 -0.9838 -0.0320
vn -0.3442 0.4984 0.7957
vn -0.3526 0.5164 0.7804
vn -0.7009 0.5026 0.5060
vn -0.6941 0.5202 0.4976
vn 0.0715 0.4823 0.8731
vn 0.0709 0.5122 0.8560
vn 0.4588 0.5050 0.7311
vn 0.4755 0.5184 0.7108
vn 0.7711 0.5162 0.3728
vn 0.7683 0.5249 0.3663
vn 0.8500 0.5209 -0.0786
vn 0.8482 0.5240 -0.0773
vn 0.6963 0.5128 -0.5022
vn 0.6930 0.5227 -0.4965
vn 0.3305 0.5047 -0.7975
vn 0.3481 0.5180 -0.7813
vn -0.0773 0.4846 -0.8713
vn -0.0735 0.5126 -0.8555
vn -0.4630 0.5055 -0.7281
vn -0.4769 0.5184 -0.7098
vn -0.7738 0.5151 -0.3686
vn -0.7694 0.5245 -0.3646
vn -0.8486 0.5227 0.0815
vn -0.8518 0.5157 0.0918
vn -0.8969 -0.1081 -0.4288
vn 0.2758 -0.4097 -0.8695
vn 0.7918 -0.2376 -0.5627
vn 0.9238 -0.3827 0.0055
vn 0.8914 -0.0937 0.4435
vn 0.4927 -0.4201 0.7621
vn 0.0901 -0.2040 0.9748
vn -0.3402 -0.4349 0.8337
vn -0.8001 -0.1931 0.5679
vn -0.9132 -0.4021 0.0664
vn -0.1068 -0.1825 -0.9774
vn -0.5002 -0.4179 -0.7584
vn -0.1248 -0.9609 0.2473
vn -0.0369 -0.9981 0.0492
vn -0.2650 -0.9623 0.0610
vn 0.3078 0.3980 -0.8642
vn 0.0484 -0.9909 -0.1256
vn 0.7033 0.4757 -0.5283
vn 0.2779 -0.9477 -0.1572
vn 0.8985 0.4333 -0.0698
vn 0.1571 -0.9875 0.0153
vn 0.8477 0.5263 -0.0663
vn 0.6888 0.5292 -0.4955
vn 0.3097 0.5131 -0.8005
vn 0.3334 -0.4632 -0.8211
vn 0.8052 -0.1361 -0.5772
vn 0.9032 -0.4253 -0.0580
vn -0.2007 0.6177 -0.7604
vn -0.5640 0.6086 -0.5582
vn -0.7643 0.6132 -0.1997
vn -0.7664 0.6068 0.2108
vn -0.5627 0.6081 0.5600
vn -0.2148 0.6072 0.7650
vn 0.2002 0.6178 0.7605
vn 0.5635 0.6087 0.5585
vn 0.7641 0.6134 0.1997
vn 0.7661 0.6069 -0.2113
vn 0.5623 0.6081 -0.5604
vn 0.2144 0.6072 -0.7651
vn 0.0163 -0.9970 0.0758
vn -0.0731 -0.9628 0.2603
vn -0.0754 -0.9955 0.0577
vn -0.2696 -0.9609 0.0634
vn -0.0614 -0.9981 0.0034
vn -0.2171 -0.9623 -0.1638
vn -0.0186 -0.9974 -0.0690
vn 0.0868 -0.9624 -0.2574
vn 0.0786 -0.9947 -0.0656
vn 0.2814 -0.9591 -0.0300
vn 0.1338 -0.9908 0.0223
vn 0.2301 -0.9615 0.1500
vn -0.0782 -0.9427 -0.3245
vn -0.2215 0.4668 -0.8562
vn 0.2928 0.4068 -0.8653
vn 0.0433 -0.9859 -0.1614
vn 0.6418 0.4071 -0.6499
vn 0.1770 -0.9586 -0.2231
vn 0.8599 0.3980 -0.3197
vn 0.1273 -0.9909 -0.0437
vn 0.8568 0.4757 0.1992
vn 0.2990 -0.9477 0.1118
vn 0.6310 0.4333 0.6434
vn 0.0892 -0.9875 0.1302
vn 0.2125 0.4716 0.8558
vn 0.0625 -0.9397 0.3362
vn -0.3051 0.4039 0.8624
vn -0.0344 -0.9861 0.1626
vn -0.6517 0.3972 0.6462
vn -0.1818 -0.9620 0.2036
vn -0.8805 0.3833 0.2789
vn -0.1373 -0.9872 0.0817
vn -0.8755 0.4293 -0.2216
vn -0.2567 -0.9635 -0.0759
vn -0.6583 0.4231 -0.6226
vn -0.0890 -0.9838 -0.1559
vn -0.8308 0.4984 0.2478
vn -0.8245 0.5164 0.2315
vn -0.8382 0.5026 -0.2117
vn -0.8273 0.5202 -0.2119
vn -0.6229 0.4823 0.6160
vn -0.6101 0.5122 0.6045
vn -0.2651 0.5050 0.8214
vn -0.2389 0.5184 0.8211
vn 0.2101 0.5162 0.8303
vn 0.2133 0.5249 0.8240
vn 0.5957 0.5263 0.6068
vn 0.6044 0.5240 0.6001
vn 0.8223 0.5292 0.2091
vn 0.8258 0.5227 0.2117
vn 0.8123 0.5131 -0.2773
vn 0.8223 0.5180 -0.2356
vn 0.6178 0.4846 -0.6193
vn 0.6081 0.5126 -0.6062
vn 0.2602 0.5055 -0.8227
vn 0.2372 0.5184 -0.8216
vn -0.2150 0.5151 -0.8297
vn -0.2153 0.5245 -0.8237
vn -0.6079 0.5227 -0.5977
vn -0.6179 0.5157 -0.5935
vn -0.2480 -0.1082 -0.9627
vn 0.8433 -0.4632 -0.2724
vn 0.9597 -0.1361 0.2458
vn 0.6250 -0.4253 0.6547
vn 0.2332 -0.0937 0.9679
vn -0.2671 -0.4201 0.8673
vn -0.6888 -0.2040 0.6956
vn -0.8574 -0.4349 0.2753
vn -0.9493 -0.1931 -0.2479
vn -0.6379 -0.4021 -0.6568
vn 0.6801 -0.1825 -0.7101
vn 0.2594 -0.4179 -0.8707
vn -0.3896 0.2827 0.8765
vn -0.8766 0.2824 0.3897
vn -0.8990 0.2763 0.3397
vn -0.3400 0.2766 0.8988
vn -0.8768 0.2819 -0.3896
vn -0.3897 0.2816 -0.8768
vn -0.3399 0.2755 -0.8992
vn -0.8990 0.2759 -0.3401
vn 0.8766 0.2824 0.3897
vn 0.3896 0.2827 0.8765
vn 0.3400 0.2766 0.8988
vn 0.8990 0.2763 0.3397
vn 0.3897 0.2816 -0.8768
vn 0.8768 0.2819 -0.3896
vn 0.8990 0.2759 -0.3401
vn 0.3399 0.2755 -0.8992
vt 0.543882 0.890413
vt 0.542949 0.894126
vt 0.545503 0.897591
vt 0.546863 0.895936
vt 0.551734 0.907180
vt 0.553564 0.908490
vt 0.551575 0.907253
vt 0.547520 0.903948
vt 0.548076 0.903881
vt 0.548492 0.902986
vt 0.551988 0.906926
vt 0.553043 0.906322
vt 0.552757 0.906404
vt 0.552959 0.906322
vt 0.553082 0.906198
vt 0.549518 0.902355
vt 0.552383 0.906661
vt 0.552634 0.906474
vt 0.550460 0.901735
vt 0.552250 0.906755
vt 0.551422 0.902021
vt 0.545756 0.889194
vt 0.543202 0.889290
vt 0.546351 0.890369
vt 0.551881 0.907017
vt 0.551367 0.901263
vt 0.541343 0.892691
vt 0.541762 0.892890
vt 0.538711 0.893642
vt 0.536566 0.892979
vt 0.551117 0.901768
vt 0.541842 0.892342
vt 0.542510 0.892507
vt 0.542236 0.891656
vt 0.538928 0.891250
vt 0.550126 0.901850
vt 0.542631 0.891826
vt 0.543186 0.892049
vt 0.545390 0.889658
vt 0.543116 0.888506
vt 0.549182 0.902592
vt 0.542931 0.891539
vt 0.542859 0.891860
vt 0.544408 0.888547
vt 0.544766 0.886987
vt 0.548278 0.903264
vt 0.542358 0.892622
vt 0.541698 0.892479
vt 0.538363 0.891841
vt 0.541629 0.892128
vt 0.546185 0.887325
vt 0.546765 0.888561
vt 0.551705 0.907258
vt 0.536394 0.894434
vt 0.538898 0.895988
vt 0.538663 0.894342
vt 0.546842 0.890451
vt 0.547324 0.891522
vt 0.538514 0.893027
vt 0.539739 0.896814
vt 0.539346 0.893981
vt 0.548646 0.895905
vt 0.542326 0.893267
vt 0.544163 0.889061
vt 0.544772 0.890170
vt 0.549004 0.894806
vt 0.543052 0.892708
vt 0.543651 0.893591
vt 0.549229 0.896473
vt 0.539173 0.892335
vt 0.539969 0.893324
vt 0.547450 0.895719
vt 0.538918 0.895180
vt 0.539726 0.896058
vt 0.546060 0.897186
vt 0.537323 0.895379
vt 0.542280 0.899523
vt 0.548218 0.904265
vt 0.543749 0.900307
vt 0.544045 0.897909
vt 0.543533 0.899636
vt 0.543651 0.898387
vt 0.541709 0.893076
vt 0.542364 0.891935
vt 0.542275 0.888674
vt 0.560453 0.874374
vt 0.558975 0.878464
vt 0.561546 0.881910
vt 0.563293 0.879985
vt 0.567693 0.891537
vt 0.569661 0.892746
vt 0.567502 0.891633
vt 0.563184 0.888521
vt 0.563831 0.888389
vt 0.564409 0.887383
vt 0.568013 0.891237
vt 0.569295 0.890474
vt 0.568956 0.890593
vt 0.569199 0.890483
vt 0.569354 0.890336
vt 0.565660 0.886594
vt 0.568498 0.890910
vt 0.568807 0.890681
vt 0.566814 0.885825
vt 0.568334 0.891025
vt 0.567892 0.886028
vt 0.563410 0.874434
vt 0.559791 0.873240
vt 0.563968 0.875631
vt 0.567879 0.891347
vt 0.567910 0.885220
vt 0.557279 0.877096
vt 0.557741 0.877265
vt 0.554140 0.878403
vt 0.551739 0.877922
vt 0.567567 0.885790
vt 0.557892 0.876667
vt 0.558645 0.876772
vt 0.558420 0.875888
vt 0.554650 0.875810
vt 0.566416 0.885985
vt 0.558857 0.876027
vt 0.559474 0.876207
vt 0.562275 0.873399
vt 0.559777 0.872407
vt 0.565246 0.886884
vt 0.559235 0.875687
vt 0.559117 0.876039
vt 0.561925 0.873884
vt 0.561844 0.870597
vt 0.564131 0.887704
vt 0.558457 0.876911
vt 0.557711 0.876830
vt 0.553935 0.876505
vt 0.557670 0.876460
vt 0.563443 0.870807
vt 0.563978 0.872072
vt 0.567651 0.891625
vt 0.551383 0.879505
vt 0.554102 0.880903
vt 0.554009 0.879160
vt 0.563862 0.874094
vt 0.564302 0.875193
vt 0.553980 0.877763
vt 0.554982 0.881700
vt 0.554836 0.878699
vt 0.565352 0.879758
vt 0.558350 0.877608
vt 0.560924 0.872891
vt 0.561506 0.874016
vt 0.565884 0.878539
vt 0.559248 0.876929
vt 0.559843 0.877813
vt 0.565963 0.880305
vt 0.554815 0.876948
vt 0.555626 0.877925
vt 0.563994 0.879688
vt 0.554213 0.880032
vt 0.555050 0.880889
vt 0.562231 0.881415
vt 0.552352 0.880419
vt 0.557620 0.884335
vt 0.563953 0.888786
vt 0.559229 0.885017
vt 0.559830 0.882409
vt 0.559052 0.884320
vt 0.559324 0.882966
vt 0.557659 0.877470
vt 0.558538 0.876173
vt 0.558788 0.872680
vt 0.543562 0.856320
vt 0.543165 0.860046
vt 0.545326 0.864454
vt 0.546108 0.863115
vt 0.549356 0.877358
vt 0.551542 0.878748
vt 0.549548 0.877181
vt 0.545344 0.873200
vt 0.545046 0.873771
vt 0.544606 0.873399
vt 0.549299 0.877312
vt 0.550416 0.876682
vt 0.549920 0.876896
vt 0.550982 0.876219
vt 0.550750 0.876339
vt 0.545243 0.873051
vt 0.549533 0.877163
vt 0.550959 0.876150
vt 0.546207 0.872420
vt 0.550739 0.876318
vt 0.547835 0.872363
vt 0.544415 0.858127
vt 0.542901 0.854980
vt 0.545058 0.859469
vt 0.550356 0.876590
vt 0.548448 0.871035
vt 0.538076 0.860725
vt 0.538123 0.861248
vt 0.534209 0.862427
vt 0.533765 0.860297
vt 0.549093 0.870955
vt 0.537833 0.860895
vt 0.538434 0.861189
vt 0.535728 0.861908
vt 0.532577 0.861046
vt 0.548889 0.870409
vt 0.538487 0.860478
vt 0.539235 0.860644
vt 0.539613 0.859425
vt 0.535962 0.858887
vt 0.548341 0.870883
vt 0.539197 0.859895
vt 0.539601 0.859916
vt 0.542771 0.857485
vt 0.540199 0.855511
vt 0.547419 0.871573
vt 0.539586 0.860391
vt 0.538910 0.860182
vt 0.538215 0.857318
vt 0.541163 0.858155
vt 0.541543 0.856070
vt 0.542276 0.857408
vt 0.549985 0.876984
vt 0.533821 0.861763
vt 0.538199 0.862425
vt 0.537442 0.860914
vt 0.540755 0.860664
vt 0.541442 0.861771
vt 0.539133 0.858131
vt 0.539007 0.863455
vt 0.539919 0.859313
vt 0.546530 0.864191
vt 0.542571 0.859002
vt 0.536389 0.860040
vt 0.537226 0.861185
vt 0.545303 0.864095
vt 0.536018 0.863534
vt 0.536793 0.864459
vt 0.544441 0.866754
vt 0.532356 0.862616
vt 0.533345 0.863667
vt 0.541474 0.866579
vt 0.534320 0.864246
vt 0.535252 0.865221
vt 0.540216 0.868016
vt 0.534797 0.862878
vt 0.539903 0.867885
vt 0.546807 0.873082
vt 0.542686 0.867980
vt 0.538713 0.868293
vt 0.539712 0.869135
vt 0.543543 0.865139
vt 0.538781 0.860954
vt 0.539474 0.859699
vt 0.541359 0.854634
vt 0.432424 0.522146
vt 0.435768 0.559666
vt 0.434931 0.559666
vt 0.431587 0.522146
vt 0.435768 0.559666
vt 0.446970 0.559666
vt 0.450314 0.522146
vt 0.449477 0.522146
vt 0.446133 0.559666
vt 0.446133 0.559666
s 1
f 32/1/32 30/2/30 66/3/66 64/4/64
f 4/5/4 1/6/1 3/7/3
f 72/8/72 53/9/53 4/5/4 3/7/3
f 53/9/53 51/10/51 5/11/5 4/5/4
f 8/12/8 1/6/1 7/13/7
f 10/14/10 1/6/1 9/15/9
f 51/10/51 55/16/55 6/17/6 5/11/5
f 11/18/11 1/6/1 10/14/10
f 55/16/55 57/19/57 7/13/7 6/17/6
f 12/20/12 1/6/1 11/18/11
f 57/19/57 59/21/59 8/12/8 7/13/7
f 76/22/76 75/23/75 32/1/32 34/24/34
f 13/25/13 1/6/1 12/20/12
f 59/21/59 61/26/61 9/15/9 8/12/8
f 25/27/25 24/28/24 47/29/47 49/30/49
f 61/26/61 63/31/63 10/14/10 9/15/9
f 23/32/23 22/33/22 43/34/43 45/35/45
f 63/31/63 65/36/65 11/18/11 10/14/10
f 21/37/21 20/38/20 39/39/39 41/40/41
f 65/36/65 67/41/67 12/20/12 11/18/11
f 19/42/19 18/43/18 35/44/35 37/45/37
f 67/41/67 69/46/69 13/25/13 12/20/12
f 16/47/16 15/48/15 29/49/29 31/50/31
f 77/51/77 76/22/76 34/24/34 36/52/36
f 1/6/1 13/25/13 2/53/2
f 83/54/83 74/55/74 26/56/26 49/30/49
f 5/11/5 1/6/1 4/5/4
f 9/15/9 1/6/1 8/12/8
f 78/57/78 77/51/77 36/52/36 38/58/38
f 85/59/85 74/55/74 27/60/27 28/61/28
f 34/24/34 32/1/32 64/4/64 62/62/62
f 75/23/75 84/63/84 30/2/30 32/1/32
f 79/64/79 78/57/78 38/58/38 40/65/40
f 36/52/36 34/24/34 62/62/62 60/66/60
f 80/67/80 79/64/79 40/65/40 42/68/42
f 38/58/38 36/52/36 60/66/60 58/69/58
f 81/70/81 80/67/80 42/68/42 44/71/44
f 40/65/40 38/58/38 58/69/58 56/72/56
f 82/73/82 81/70/81 44/71/44 46/74/46
f 42/68/42 40/65/40 56/72/56 54/75/54
f 83/54/83 82/73/82 46/74/46 48/76/48
f 73/77/73 72/8/72 71/78/71 70/79/70
f 44/71/44 42/68/42 54/75/54 50/80/50
f 51/10/51 53/9/53 52/81/52 50/80/50
f 46/74/46 44/71/44 50/80/50 52/81/52
f 48/76/48 46/74/46 52/81/52 73/77/73
f 27/60/27 48/76/48 73/77/73 70/79/70
f 84/63/84 85/59/85 28/61/28 30/2/30
f 55/16/55 51/10/51 50/80/50 54/75/54
f 59/21/59 57/19/57 56/72/56 58/69/58
f 72/8/72 3/7/3 2/53/2 71/78/71
f 71/78/71 69/46/69 68/82/68 70/79/70
f 69/46/69 67/41/67 66/3/66 68/82/68
f 67/41/67 65/36/65 64/4/64 66/3/66
f 65/36/65 63/31/63 62/62/62 64/4/64
f 63/31/63 61/26/61 60/66/60 62/62/62
f 61/26/61 59/21/59 58/69/58 60/66/60
f 73/77/73 52/81/52 53/9/53 72/8/72
f 28/61/28 27/60/27 70/79/70 68/82/68
f 3/7/3 1/6/1 2/53/2
f 71/78/71 2/53/2 13/25/13 69/46/69
f 7/13/7 1/6/1 6/17/6
f 6/17/6 1/6/1 5/11/5
f 14/83/14 25/27/25 49/30/49 26/56/26
f 24/28/24 23/32/23 45/35/45 47/29/47
f 22/33/22 21/37/21 41/40/41 43/34/43
f 20/38/20 19/42/19 37/45/37 39/39/39
f 18/43/18 17/84/17 33/85/33 35/44/35
f 15/48/15 14/83/14 26/56/26 29/49/29
f 17/84/17 16/47/16 31/50/31 33/85/33
f 57/19/57 55/16/55 54/75/54 56/72/56
f 30/2/30 28/61/28 68/82/68 66/3/66
f 31/50/31 29/49/29 85/59/85 84/63/84
f 49/30/49 47/29/47 82/73/82 83/54/83
f 47/29/47 45/35/45 81/70/81 82/73/82
f 45/35/45 43/34/43 80/67/80 81/70/81
f 43/34/43 41/40/41 79/64/79 80/67/80
f 41/40/41 39/39/39 78/57/78 79/64/79
f 33/85/33 31/50/31 84/63/84 75/23/75
f 29/49/29 26/56/26 74/55/74 85/59/85
f 39/39/39 37/45/37 77/51/77 78/57/78
f 48/76/48 27/60/27 74/55/74 83/54/83
f 37/45/37 35/44/35 76/22/76 77/51/77
f 35/44/35 33/85/33 75/23/75 76/22/76
f 117/86/89 115/87/30 151/88/66 149/89/97
f 89/90/4 86/91/1 88/92/3
f 157/93/72 138/94/53 89/90/4 88/92/3
f 138/94/53 136/95/51 90/96/5 89/90/4
f 93/97/8 86/91/1 92/98/7
f 95/99/10 86/91/1 94/100/9
f 136/95/51 140/101/55 91/102/6 90/96/5
f 96/103/11 86/91/1 95/99/10
f 140/101/55 142/104/57 92/98/7 91/102/6
f 97/105/12 86/91/1 96/103/11
f 142/104/57 144/106/59 93/97/8 92/98/7
f 161/107/99 160/108/98 117/86/89 119/109/91
f 98/110/13 86/91/1 97/105/12
f 144/106/59 146/111/61 94/100/9 93/97/8
f 110/112/25 109/113/24 132/114/47 134/115/49
f 146/111/61 148/116/63 95/99/10 94/100/9
f 108/117/23 107/118/22 128/119/43 130/120/45
f 148/116/63 150/121/65 96/103/11 95/99/10
f 106/122/21 105/123/20 124/124/39 126/125/41
f 150/121/65 152/126/67 97/105/12 96/103/11
f 104/127/88 103/128/87 120/129/92 122/130/94
f 152/126/67 154/131/69 98/110/13 97/105/12
f 101/132/16 100/133/15 114/134/29 116/135/31
f 162/136/100 161/107/99 119/109/91 121/137/93
f 86/91/1 98/110/13 87/138/2
f 168/139/83 159/140/74 111/141/26 134/115/49
f 90/96/5 86/91/1 89/90/4
f 94/100/9 86/91/1 93/97/8
f 163/142/78 162/136/100 121/137/93 123/143/38
f 170/144/85 159/140/74 112/145/27 113/146/28
f 119/109/91 117/86/89 149/89/97 147/147/96
f 160/108/98 169/148/84 115/87/30 117/86/89
f 164/149/79 163/142/78 123/143/38 125/150/40
f 121/137/93 119/109/91 147/147/96 145/151/95
f 165/152/80 164/149/79 125/150/40 127/153/42
f 123/143/38 121/137/93 145/151/95 143/154/58
f 166/155/81 165/152/80 127/153/42 129/156/44
f 125/150/40 123/143/38 143/154/58 141/157/56
f 167/158/82 166/155/81 129/156/44 131/159/46
f 127/153/42 125/150/40 141/157/56 139/160/54
f 168/139/83 167/158/82 131/159/46 133/161/48
f 158/162/73 157/93/72 156/163/71 155/164/70
f 129/156/44 127/153/42 139/160/54 135/165/50
f 136/95/51 138/94/53 137/166/52 135/165/50
f 131/159/46 129/156/44 135/165/50 137/166/52
f 133/161/48 131/159/46 137/166/52 158/162/73
f 112/145/27 133/161/48 158/162/73 155/164/70
f 169/148/84 170/144/85 113/146/28 115/87/30
f 140/101/55 136/95/51 135/165/50 139/160/54
f 144/106/59 142/104/57 141/157/56 143/154/58
f 157/93/72 88/92/3 87/138/2 156/163/71
f 156/163/71 154/131/69 153/167/68 155/164/70
f 154/131/69 152/126/67 151/88/66 153/167/68
f 152/126/67 150/121/65 149/89/97 151/88/66
f 150/121/65 148/116/63 147/147/96 149/89/97
f 148/116/63 146/111/61 145/151/95 147/147/96
f 146/111/61 144/106/59 143/154/58 145/151/95
f 158/162/73 137/166/52 138/94/53 157/93/72
f 113/146/28 112/145/27 155/164/70 153/167/68
f 88/92/3 86/91/1 87/138/2
f 156/163/71 87/138/2 98/110/13 154/131/69
f 92/98/7 86/91/1 91/102/6
f 91/102/6 86/91/1 90/96/5
f 99/168/14 110/112/25 134/115/49 111/141/26
f 109/113/24 108/117/23 130/120/45 132/114/47
f 107/118/22 106/122/21 126/125/41 128/119/43
f 105/123/20 104/127/88 122/130/94 124/124/39
f 103/128/87 102/169/86 118/170/90 120/129/92
f 100/133/15 99/168/14 111/141/26 114/134/29
f 102/169/86 101/132/16 116/135/31 118/170/90
f 142/104/57 140/101/55 139/160/54 141/157/56
f 115/87/30 113/146/28 153/167/68 151/88/66
f 116/135/31 114/134/29 170/144/85 169/148/84
f 134/115/49 132/114/47 167/158/82 168/139/83
f 132/114/47 130/120/45 166/155/81 167/158/82
f 130/120/45 128/119/43 165/152/80 166/155/81
f 128/119/43 126/125/41 164/149/79 165/152/80
f 126/125/41 124/124/39 163/142/78 164/149/79
f 118/170/90 116/135/31 169/148/84 160/108/98
f 114/134/29 111/141/26 159/140/74 170/144/85
f 124/124/39 122/130/94 162/136/100 163/142/78
f 133/161/48 112/145/27 159/140/74 168/139/83
f 122/130/94 120/129/92 161/107/99 162/136/100
f 120/129/92 118/170/90 160/108/98 161/107/99
f 202/171/131 200/172/129 236/173/165 234/174/163
f 174/175/103 171/176/1 173/177/102
f 242/178/171 223/179/152 174/175/103 173/177/102
f 223/179/152 221/180/150 175/181/104 174/175/103
f 178/182/107 171/176/1 177/183/106
f 180/184/109 171/176/1 179/185/108
f 221/180/150 225/186/154 176/187/105 175/181/104
f 181/188/110 171/176/1 180/184/109
f 225/186/154 227/189/156 177/183/106 176/187/105
f 182/190/111 171/176/1 181/188/110
f 227/189/156 229/191/158 178/182/107 177/183/106
f 246/192/175 245/193/174 202/171/131 204/194/133
f 183/195/112 171/176/1 182/190/111
f 229/191/158 231/196/160 179/185/108 178/182/107
f 195/197/124 194/198/123 217/199/146 219/200/148
f 231/196/160 233/201/162 180/184/109 179/185/108
f 193/202/122 192/203/121 213/204/142 215/205/144
f 233/201/162 235/206/164 181/188/110 180/184/109
f 191/207/120 190/208/119 209/209/138 211/210/140
f 235/206/164 237/211/166 182/190/111 181/188/110
f 189/212/118 188/213/117 205/214/134 207/215/136
f 237/211/166 239/216/168 183/195/112 182/190/111
f 186/217/115 185/218/114 199/219/128 201/220/130
f 247/221/176 246/192/175 204/194/133 206/222/135
f 171/176/1 183/195/112 172/223/101
f 253/224/182 244/225/173 196/226/125 219/200/148
f 175/181/104 171/176/1 174/175/103
f 179/185/108 171/176/1 178/182/107
f 248/227/177 247/221/176 206/222/135 208/228/137
f 255/229/184 244/225/173 197/230/126 198/231/127
f 204/194/133 202/171/131 234/174/163 232/232/161
f 245/193/174 254/233/183 200/172/129 202/171/131
f 249/234/178 248/227/177 208/228/137 210/235/139
f 206/222/135 204/194/133 232/232/161 230/236/159
f 250/237/179 249/234/178 210/235/139 212/238/141
f 208/228/137 206/222/135 230/236/159 228/239/157
f 251/240/180 250/237/179 212/238/141 214/241/143
f 210/235/139 208/228/137 228/239/157 226/242/155
f 252/243/181 251/240/180 214/241/143 216/244/145
f 212/238/141 210/235/139 226/242/155 224/245/153
f 253/224/182 252/243/181 216/244/145 218/246/147
f 243/247/172 242/178/171 241/248/170 240/249/169
f 214/241/143 212/238/141 224/245/153 220/250/149
f 221/180/150 223/179/152 222/251/151 220/250/149
f 216/244/145 214/241/143 220/250/149 222/251/151
f 218/246/147 216/244/145 222/251/151 243/247/172
f 197/230/126 218/246/147 243/247/172 240/249/169
f 254/233/183 255/229/184 198/231/127 200/172/129
f 225/186/154 221/180/150 220/250/149 224/245/153
f 229/191/158 227/189/156 226/242/155 228/239/157
f 242/178/171 173/177/102 172/223/101 241/248/170
f 241/248/170 239/216/168 238/252/167 240/249/169
f 239/216/168 237/211/166 236/173/165 238/252/167
f 237/211/166 235/206/164 234/174/163 236/173/165
f 235/206/164 233/201/162 232/232/161 234/174/163
f 233/201/162 231/196/160 230/236/159 232/232/161
f 231/196/160 229/191/158 228/239/157 230/236/159
f 243/247/172 222/251/151 223/179/152 242/178/171
f 198/231/127 197/230/126 240/249/169 238/252/167
f 173/177/102 171/176/1 172/223/101
f 241/248/170 172/223/101 183/195/112 239/216/168
f 177/183/106 171/176/1 176/187/105
f 176/187/105 171/176/1 175/181/104
f 184/253/113 195/197/124 219/200/148 196/226/125
f 194/198/123 193/202/122 215/205/144 217/199/146
f 192/203/121 191/207/120 211/210/140 213/204/142
f 190/208/119 189/212/118 207/215/136 209/209/138
f 188/213/117 187/254/116 203/255/132 205/214/134
f 185/218/114 184/253/113 196/226/125 199/219/128
f 187/254/116 186/217/115 201/220/130 203/255/132
f 227/189/156 225/186/154 224/245/153 226/242/155
f 200/172/129 198/231/127 238/252/167 236/173/165
f 201/220/130 199/219/128 255/229/184 254/233/183
f 219/200/148 217/199/146 252/243/181 253/224/182
f 217/199/146 215/205/144 251/240/180 252/243/181
f 215/205/144 213/204/142 250/237/179 251/240/180
f 213/204/142 211/210/140 249/234/178 250/237/179
f 211/210/140 209/209/138 248/227/177 249/234/178
f 203/255/132 201/220/130 254/233/183 245/193/174
f 199/219/128 196/226/125 244/225/173 255/229/184
f 209/209/138 207/215/136 247/221/176 248/227/177
f 218/246/147 197/230/126 244/225/173 253/224/182
f 207/215/136 205/214/134 246/192/175 247/221/176
f 205/214/134 203/255/132 245/193/174 246/192/175
f 256/256/185 259/257/188 258/258/187 257/259/186
f 262/260/191 261/256/190 260/259/189 263/258/192
f 270/261/199 269/262/198 268/263/197 271/264/200
f 266/265/195 265/263/194 264/262/193 267/261/196
f 257/259/186 258/258/187 263/258/192 260/259/189
f 265/263/194 266/265/195 259/257/188 256/256/185
f 261/256/190 262/260/191 271/264/200 268/263/197
f 269/262/198 270/261/199 267/261/196 264/262/193
