# Blender 5.0.1
# www.blender.org
o GEO_RiverEndTile
v -1.141741 -2.013760 -14.000000
v 1.141741 -2.013760 -14.000000
v 1.141741 -2.013760 -10.000000
v -1.920600 -0.013760 -10.165948
v -1.834052 -0.013760 -10.079400
v -1.895251 -0.013760 -10.104749
v -1.141741 -2.013760 -10.000000
v 1.974515 -2.013760 -10.025485
v 1.912989 -2.013760 -10.000000
v -1.834052 -0.013760 -13.920601
v -1.920600 -0.013760 -13.834052
v -1.895251 -0.013760 -13.895251
v 2.000000 -2.013760 -10.087011
v 1.974515 -2.013760 -13.974515
v 2.000000 -2.013760 -13.912989
v 1.834052 -0.013760 -10.079399
v 1.920600 -0.013760 -10.165948
v 1.895251 -0.013760 -10.104749
v 1.912989 -2.013760 -14.000000
v -1.974515 -2.013760 -13.974515
v -1.912989 -2.013760 -14.000000
v 1.920600 -0.013760 -13.834052
v 1.834052 -0.013760 -13.920600
v 1.895251 -0.013760 -13.895251
v -1.912989 -0.120803 -10.000000
v -2.000000 -0.120803 -10.087011
v -1.974515 -0.120803 -10.025485
v -2.000000 -0.120803 -13.912989
v -1.912989 -0.120803 -14.000000
v -1.974515 -0.120803 -13.974515
v 1.912989 -0.120803 -14.000000
v 2.000000 -0.120803 -13.912989
v 1.974515 -0.120803 -13.974515
v 2.000000 -0.120803 -10.087011
v 1.912989 -0.120803 -10.000000
v 1.974515 -0.120803 -10.025485
v -1.969804 -0.067282 -10.116569
v -1.883431 -0.067282 -10.030196
v -1.944506 -0.067282 -10.055494
v -1.969804 -0.067282 -13.883431
v -1.883431 -0.067282 -13.969804
v -1.944506 -0.067282 -13.944506
v 1.883431 -0.067282 -13.969804
v 1.969804 -0.067282 -13.883431
v 1.944506 -0.067282 -13.944506
v 1.969804 -0.067282 -10.116569
v 1.883431 -0.067282 -10.030196
v 1.944506 -0.067282 -10.055494
v -1.834053 -0.013760 -13.834052
v -1.834052 -0.013760 -10.165948
v 1.834052 -0.013760 -13.834052
v 1.834052 -0.013760 -10.165948
v -2.000000 -2.013760 -13.912989
v -1.974515 -2.013760 -10.025485
v -1.141741 -0.086950 -10.000000
v 1.141741 -0.086950 -10.000000
v 1.268601 -0.067282 -10.030196
v -1.268601 -0.067282 -10.030196
v -1.268601 -0.013760 -10.079400
v 1.268601 -0.013760 -10.079399
v 1.268601 -0.013760 -13.920600
v -1.268601 -0.013760 -13.920601
v -2.000000 -2.013760 -10.087011
v -1.912989 -2.013760 -10.000000
v 1.141741 -0.120803 -14.000000
v -1.141741 -0.120803 -14.000000
v -1.268601 -0.067282 -13.969804
v 1.268601 -0.067282 -13.969804
v 1.268601 -0.013760 -10.165948
v -1.268601 -0.013760 -10.165948
v 1.141741 -0.086950 -10.094089
v -1.141741 -0.086950 -10.094089
v -1.141741 -0.086950 -10.165948
v 1.141741 -0.086950 -10.165948
v -1.141741 -2.013760 -13.912989
v 1.141741 -2.013760 -13.912989
v -1.141741 -2.013760 -10.087011
v 1.141741 -2.013760 -10.087011
v -1.912989 -2.013760 -10.087011
v -1.912989 -2.013760 -13.912989
v 1.912989 -2.013760 -13.912989
v 1.912989 -2.013760 -10.087011
v -1.268601 -0.013760 -12.885818
v -0.526302 -0.013760 -13.563507
v -1.268601 -0.013760 -13.823643
v -1.626293 -0.013760 -13.657938
v -1.196573 -0.013760 -13.120275
v -0.999788 -0.013760 -13.375801
v 0.526302 -0.013760 -13.563507
v 1.268601 -0.013760 -12.885818
v 1.626292 -0.013760 -13.657938
v 1.268601 -0.013760 -13.823643
v 0.999788 -0.013760 -13.375801
v 1.196573 -0.013760 -13.120275
v 1.141741 -0.086950 -12.885818
v 0.434963 -0.086950 -13.563507
v 1.069713 -0.086950 -13.120275
v 0.872928 -0.086950 -13.375801
v -0.434962 -0.086950 -13.563507
v -1.141741 -0.086950 -12.885818
v -0.872928 -0.086950 -13.375801
v -1.069713 -0.086950 -13.120275
vn -0.1477 0.6790 0.7192
vn -0.0910 0.7182 0.6899
vn -0.2447 0.7689 0.5908
vn -0.2845 0.6689 0.6868
vn -0.6868 0.6689 0.2845
vn -0.5908 0.7689 0.2447
vn -0.6899 0.7182 0.0910
vn -0.7547 0.6401 0.1438
vn -0.0014 0.0566 0.9984
vn -0.2074 0.3078 0.9285
vn -0.1951 -0.0000 0.9808
vn -0.0000 -0.0000 1.0000
vn 0.9372 0.2837 -0.2031
vn 0.9372 0.2837 0.2031
vn 0.9808 -0.0000 0.1951
vn 0.9808 -0.0000 -0.1951
vn 0.0014 0.0566 0.9984
vn -0.2031 0.2837 -0.9372
vn -0.0000 0.2540 -0.9672
vn -0.0000 -0.0000 -1.0000
vn -0.1951 -0.0000 -0.9808
vn -0.6731 0.3064 0.6731
vn -0.7071 -0.0000 0.7071
vn -0.6731 0.3064 -0.6731
vn -0.7071 -0.0000 -0.7071
vn 0.2074 0.3078 0.9285
vn 0.1951 -0.0000 0.9808
vn 0.6731 0.3064 -0.6731
vn 0.7071 -0.0000 -0.7071
vn -0.1438 0.6401 -0.7547
vn -0.2845 0.6689 -0.6868
vn -0.6868 0.6689 -0.2845
vn -0.9372 0.2837 -0.2031
vn -0.7547 0.6401 -0.1438
vn 0.7547 0.6401 -0.1438
vn 0.6868 0.6689 -0.2845
vn 0.2845 0.6689 -0.6868
vn 0.2031 0.2837 -0.9372
vn 0.1438 0.6401 -0.7547
vn 0.1477 0.6790 0.7192
vn 0.6731 0.3064 0.6731
vn 0.2845 0.6689 0.6868
vn 0.6868 0.6689 0.2845
vn 0.7547 0.6401 0.1438
vn -0.9372 0.2837 0.2031
vn -0.0910 0.7182 -0.6899
vn -0.2447 0.7689 -0.5908
vn -0.5908 0.7689 -0.2447
vn -0.6899 0.7182 -0.0910
vn 0.6899 0.7182 -0.0910
vn 0.5908 0.7689 -0.2447
vn 0.2447 0.7689 -0.5908
vn 0.0910 0.7182 -0.6899
vn 0.0910 0.7182 0.6899
vn 0.2447 0.7689 0.5908
vn 0.5908 0.7689 0.2447
vn 0.6899 0.7182 0.0910
vn -0.0000 1.0000 -0.0000
vn 0.4179 0.8948 0.1571
vn 0.3060 0.8918 0.3331
vn 0.4169 0.8950 0.1589
vn 0.7071 -0.0000 0.7071
vn -0.9808 -0.0000 -0.1951
vn -0.9808 -0.0000 0.1951
vn -0.0099 0.6432 0.7656
vn 0.0099 0.6432 0.7656
vn -0.0000 0.6768 0.7362
vn -0.0000 0.6768 -0.7362
vn -0.0000 0.5880 -0.8089
vn 0.1951 -0.0000 -0.9808
vn -0.3060 0.8918 0.3331
vn -0.4179 0.8948 0.1571
vn -0.4169 0.8950 0.1589
vn 0.4997 0.8662 -0.0000
vn -0.4997 0.8662 -0.0000
vn -0.0000 -1.0000 -0.0000
vn -0.2672 0.3983 0.8775
vn -0.0818 0.1220 0.9891
vn -0.3829 0.6046 0.6984
vn -0.4480 0.7575 0.4748
vn -0.4795 0.8311 0.2815
vn -0.4867 0.8436 0.2270
vn -0.4981 0.8633 0.0819
vn -0.4985 0.8641 0.0693
vn 0.4985 0.8641 0.0693
vn 0.4981 0.8633 0.0819
vn 0.4795 0.8311 0.2815
vn 0.4867 0.8436 0.2270
vn 0.3829 0.6046 0.6984
vn 0.4480 0.7575 0.4748
vn 0.0818 0.1220 0.9891
vn 0.2672 0.3983 0.8775
vt 0.133244 0.543798
vt 0.133298 0.545403
vt 0.133325 0.545403
vt 0.133272 0.543798
vt 0.133392 0.545403
vt 0.133338 0.543798
vt 0.133211 0.542192
vt 0.137490 0.542192
vt 0.133306 0.542192
vt 0.117760 0.874393
vt 0.134068 0.542681
vt 0.134463 0.542681
vt 0.134463 0.541516
vt 0.134068 0.541516
vt 0.133239 0.542192
vt 0.134037 0.542681
vt 0.134037 0.541516
vt 0.137557 0.542192
vt 0.134083 0.542714
vt 0.134052 0.542714
vt 0.137524 0.543798
vt 0.137457 0.543798
vt 0.137585 0.542192
vt 0.137552 0.543798
vt 0.134108 0.542746
vt 0.134077 0.542746
vt 0.137470 0.545403
vt 0.137403 0.545403
vt 0.136018 0.542746
vt 0.136043 0.542714
vt 0.136011 0.542714
vt 0.135986 0.542746
vt 0.134856 0.539294
vt 0.134856 0.539232
vt 0.134865 0.539250
vt 0.134869 0.539294
vt 0.134856 0.541946
vt 0.134856 0.541885
vt 0.134869 0.541885
vt 0.134865 0.541928
vt 0.134291 0.539294
vt 0.134295 0.539250
vt 0.134304 0.539232
vt 0.134304 0.539294
vt 0.134295 0.541928
vt 0.134291 0.541885
vt 0.134304 0.541885
vt 0.134304 0.541946
vt 0.134771 0.541946
vt 0.134771 0.541981
vt 0.134752 0.542002
vt 0.134752 0.541936
vt 0.135632 0.542681
vt 0.135632 0.541516
vt 0.134771 0.541885
vt 0.134389 0.541885
vt 0.134389 0.541946
vt 0.134398 0.542746
vt 0.134398 0.542714
vt 0.135697 0.542714
vt 0.135697 0.542746
vt 0.136027 0.542681
vt 0.136058 0.542681
vt 0.136058 0.541516
vt 0.136027 0.541516
vt 0.118039 0.874215
vt 0.118045 0.874215
vt 0.134389 0.541981
vt 0.134409 0.541936
vt 0.134409 0.542002
vt 0.134752 0.541885
vt 0.118050 0.874215
vt 0.134409 0.541885
vt 0.134161 0.542155
vt 0.134161 0.542197
vt 0.134167 0.542185
vt 0.134170 0.542155
vt 0.133845 0.542155
vt 0.133845 0.542197
vt 0.134081 0.542197
vt 0.134081 0.542155
vt 0.133766 0.542155
vt 0.133766 0.542197
vt 0.133845 0.540255
vt 0.133845 0.540297
vt 0.134081 0.540297
vt 0.134081 0.540255
vt 0.134161 0.540255
vt 0.134161 0.540297
vt 0.134170 0.540297
vt 0.134167 0.540267
vt 0.133766 0.540255
vt 0.133766 0.540297
vt 0.133757 0.540297
vt 0.133757 0.542155
vt 0.133759 0.540267
vt 0.133759 0.542185
vt 0.134771 0.539301
vt 0.134731 0.539617
vt 0.134659 0.539485
vt 0.134336 0.539418
vt 0.134400 0.539798
vt 0.134389 0.539963
vt 0.134501 0.539485
vt 0.134515 0.539485
vt 0.134449 0.539617
vt 0.134430 0.539617
vt 0.134419 0.539798
vt 0.134409 0.539963
vt 0.134771 0.539963
vt 0.134752 0.539963
vt 0.134741 0.539798
vt 0.134760 0.539798
vt 0.134711 0.539617
vt 0.134646 0.539485
vt 0.134771 0.539232
vt 0.134389 0.539301
vt 0.134389 0.539232
vt 0.134825 0.539418
vt 0.118255 0.874215
vt 0.118255 0.874215
vt 0.118273 0.874215
vt 0.118273 0.874215
vt 0.118286 0.874215
vt 0.118286 0.874215
vt 0.117230 0.874571
vt 0.118290 0.874215
s 1
f 38/1/1 5/2/2 6/3/3 39/4/4
f 39/4/5 6/3/6 4/5/7 37/6/8
f 55/7/9 25/7/10 64/7/11 7/7/12
f 32/8/13 34/9/14 13/9/15 15/8/16
f 56/10/17 55/10/9 7/10/12 3/10/12
f 29/11/18 66/12/19 1/13/20 21/14/21
f 25/7/10 27/15/22 54/15/23 64/7/11
f 30/16/24 29/11/18 21/14/21 20/17/25
f 35/7/26 56/7/17 3/7/12 9/7/27
f 33/18/28 32/8/13 15/8/16 14/18/29
f 41/19/30 29/11/18 30/16/24 42/20/31
f 42/21/32 30/18/24 28/8/33 40/22/34
f 44/22/35 32/8/13 33/18/28 45/21/36
f 45/21/37 33/18/28 31/23/38 43/24/39
f 47/1/40 35/7/26 36/15/41 48/4/42
f 48/4/43 36/15/41 34/9/14 46/6/44
f 25/7/10 38/1/1 39/4/4 27/15/22
f 27/15/22 39/4/5 37/6/8 26/9/45
f 10/25/46 41/19/30 42/20/31 12/26/47
f 12/27/48 42/21/32 40/22/34 11/28/49
f 22/28/50 44/22/35 45/21/36 24/27/51
f 24/29/52 45/30/37 43/31/39 23/32/53
f 16/2/54 47/1/40 48/4/42 18/3/55
f 18/3/56 48/4/43 46/6/44 17/5/57
f 49/33/58 10/34/58 12/35/58 11/36/58
f 5/37/58 50/38/58 4/39/58 6/40/58
f 22/41/58 24/42/58 23/43/58 51/44/58
f 18/45/58 17/46/58 52/47/58 16/48/58
f 59/49/59 58/50/60 55/51/60 72/52/61
f 36/15/41 35/7/26 9/7/27 8/15/62
f 66/12/19 65/53/19 2/54/20 1/13/20
f 26/9/45 28/8/33 53/8/63 63/9/64
f 28/8/33 30/18/24 20/18/25 53/8/63
f 55/7/9 58/1/65 38/1/1 25/7/10
f 35/7/26 47/1/40 57/1/66 56/7/17
f 47/1/40 16/2/54 60/2/67 57/1/66
f 58/1/65 59/2/67 5/2/2 38/1/1
f 59/49/58 70/55/58 50/38/58 5/37/58
f 16/48/58 52/47/58 69/56/58 60/57/58
f 41/19/30 10/25/46 62/58/68 67/59/69
f 68/60/69 61/61/68 23/32/53 43/31/39
f 27/15/22 26/9/45 63/9/64 54/15/23
f 31/62/38 33/63/28 14/64/29 19/65/70
f 65/53/19 68/60/69 43/31/39 31/62/38
f 29/11/18 41/19/30 67/59/69 66/12/19
f 55/66/58 56/66/58 71/67/58 72/67/58
f 57/68/71 60/57/72 71/69/73 56/70/71
f 70/55/74 59/49/59 72/52/61 73/71/74
f 72/67/58 71/67/58 74/72/58 73/72/58
f 60/57/72 69/56/75 74/73/75 71/69/73
f 68/60/69 65/53/19 66/12/19 67/59/69
f 61/61/68 68/60/69 67/59/69 62/58/68
f 17/46/58 22/41/58 51/44/58 52/47/58
f 50/38/58 49/33/58 11/36/58 4/39/58
f 44/22/35 46/6/44 34/9/14 32/8/13
f 37/6/8 40/22/34 28/8/33 26/9/45
f 22/28/50 17/5/57 46/6/44 44/22/35
f 34/9/14 36/15/41 8/15/62 13/9/15
f 4/5/7 11/28/49 40/22/34 37/6/8
f 65/53/19 31/62/38 19/65/70 2/54/20
f 79/74/76 64/75/76 54/76/76 63/77/76
f 78/78/76 3/79/76 7/80/76 77/81/76
f 82/82/76 9/83/76 3/79/76 78/78/76
f 2/84/76 76/85/76 75/86/76 1/87/76
f 21/88/76 80/89/76 53/90/76 20/91/76
f 19/92/76 81/93/76 76/85/76 2/84/76
f 76/85/76 78/78/76 77/81/76 75/86/76
f 80/89/76 79/74/76 63/77/76 53/90/76
f 81/93/76 82/82/76 78/78/76 76/85/76
f 75/86/76 77/81/76 79/74/76 80/89/76
f 77/81/76 7/80/76 64/75/76 79/74/76
f 1/87/76 75/86/76 80/89/76 21/88/76
f 15/94/76 13/95/76 82/82/76 81/93/76
f 14/96/76 15/94/76 81/93/76 19/92/76
f 13/95/76 8/97/76 9/83/76 82/82/76
f 85/98/58 88/99/58 84/100/58
f 91/101/58 94/102/58 90/103/58
f 89/104/77 96/105/78 98/106/79 93/107/80
f 93/107/80 98/106/79 97/108/81 94/102/82
f 94/102/82 97/108/81 95/109/83 90/103/84
f 83/110/85 100/111/86 102/112/87 87/113/88
f 87/113/88 102/112/87 101/114/89 88/99/90
f 88/99/90 101/114/89 99/115/91 84/100/92
f 62/116/58 85/98/58 84/100/58 89/104/58 92/117/58 61/118/58
f 89/104/77 84/100/92 99/115/91 96/105/78
f 83/110/85 70/55/74 73/71/74 100/111/86
f 86/119/58 85/98/58 62/116/58 10/34/58 49/33/58
f 70/55/58 83/110/58 86/119/58 49/33/58 50/38/58
f 51/44/58 23/43/58 61/118/58 92/117/58 91/101/58
f 69/56/75 90/103/84 95/109/83 74/73/75
f 52/47/58 51/44/58 91/101/58 90/103/58 69/56/58
f 95/120/58 100/121/58 73/72/58 74/72/58
f 93/107/58 94/102/58 91/101/58 92/117/58
f 89/104/58 93/107/58 92/117/58
f 87/113/58 88/99/58 85/98/58 86/119/58
f 83/110/58 87/113/58 86/119/58
f 97/122/58 102/123/58 100/121/58 95/120/58
f 101/124/58 102/123/58 97/122/58 98/125/58
f 99/126/58 101/124/58 98/125/58 96/127/58
