# Blender 5.0.1
# www.blender.org
o GEO_WaterTile
v 8.000000 -2.087413 -16.000000
v 7.952130 -2.087413 -16.000000
v 8.000000 -2.087413 -16.047871
v 4.000000 -0.087413 -16.128422
v 4.128421 -0.087413 -16.000000
v 4.000000 -0.087413 -16.000000
v 8.000000 -2.087413 -20.000000
v 8.000000 -2.087413 -19.952129
v 7.952130 -2.087413 -20.000000
v 4.128421 -0.087413 -20.000000
v 4.000000 -0.087413 -19.871578
v 4.000000 -0.087413 -20.000000
v 4.000000 -2.087413 -20.000000
v 4.047870 -2.087413 -20.000000
v 4.000000 -2.087413 -19.952129
v 7.871579 -0.087413 -16.000000
v 8.000000 -0.087413 -16.128422
v 8.000000 -0.087413 -16.000000
v 4.000000 -2.087413 -16.000000
v 4.000000 -2.087413 -16.047871
v 4.047870 -2.087413 -16.000000
v 8.000000 -0.087413 -19.871578
v 7.871579 -0.087413 -20.000000
v 8.000000 -0.087413 -20.000000
v 4.047870 -0.219678 -16.000000
v 4.000000 -0.219678 -16.047871
v 4.000000 -0.219678 -16.000000
v 4.000000 -0.219678 -19.952129
v 4.047870 -0.219678 -20.000000
v 4.000000 -0.219678 -20.000000
v 7.952130 -0.219678 -20.000000
v 8.000000 -0.219678 -19.952129
v 8.000000 -0.219678 -20.000000
v 8.000000 -0.219678 -16.047871
v 7.952130 -0.219678 -16.000000
v 8.000000 -0.219678 -16.000000
v 4.000000 -0.164199 -16.078033
v 4.078032 -0.164199 -16.000000
v 4.000000 -0.164199 -16.000000
v 4.000000 -0.164199 -19.921967
v 4.078032 -0.164199 -20.000000
v 4.000000 -0.164199 -20.000000
v 7.921968 -0.164199 -20.000000
v 8.000000 -0.164199 -19.921967
v 8.000000 -0.164199 -20.000000
v 8.000000 -0.164199 -16.078033
v 7.921968 -0.164199 -16.000000
v 8.000000 -0.164199 -16.000000
v 4.128421 -0.087413 -19.871578
v 4.128421 -0.087413 -16.128422
v 7.871579 -0.087413 -19.871578
v 7.871579 -0.087413 -16.128422
v 7.952130 -2.087413 -16.047871
v 4.047870 -2.087413 -16.047871
v 4.047870 -2.087413 -19.952129
v 7.952130 -2.087413 -19.952129
vn -0.0000 -0.0000 1.0000
vn -1.0000 -0.0000 -0.0000
vn 1.0000 -0.0000 -0.0000
vn -0.0000 -0.0000 -1.0000
vn -0.0000 1.0000 -0.0000
vn -0.0000 -1.0000 -0.0000
vt 0.115925 0.874393
vt 0.115973 0.875286
vt 0.115914 0.875286
vt 0.115866 0.874393
vt 0.115889 0.875286
vt 0.115841 0.874393
vt 0.119684 0.873500
vt 0.119624 0.873500
vt 0.119709 0.873500
vt 0.115837 0.873500
vt 0.115897 0.873500
vt 0.115812 0.873500
vt 0.119679 0.874393
vt 0.119655 0.874393
vt 0.119595 0.874393
vt 0.115973 0.875286
vt 0.115914 0.875286
vt 0.115889 0.875286
vt 0.119632 0.875286
vt 0.119607 0.875286
vt 0.119547 0.875286
vt 0.119547 0.875286
vt 0.119607 0.875286
vt 0.119632 0.875286
vt 0.115858 0.873500
vt 0.115896 0.873500
s 1
f 38/1/1 5/2/1 6/3/1 39/4/1
f 39/4/2 6/3/2 4/5/2 37/6/2
f 36/7/1 35/8/1 2/8/1 1/7/1
f 33/7/3 32/9/3 8/9/3 7/7/3
f 32/9/3 34/9/3 3/9/3 8/9/3
f 30/10/4 29/11/4 14/11/4 13/10/4
f 35/8/1 25/11/1 21/11/1 2/8/1
f 25/11/1 27/10/1 19/10/1 21/11/1
f 27/10/2 26/12/2 20/12/2 19/10/2
f 34/9/3 36/7/3 1/7/3 3/9/3
f 41/1/4 29/11/4 30/10/4 42/4/4
f 42/4/2 30/10/2 28/12/2 40/6/2
f 44/13/3 32/9/3 33/7/3 45/14/3
f 45/14/4 33/7/4 31/8/4 43/15/4
f 47/15/1 35/8/1 36/7/1 48/14/1
f 48/14/3 36/7/3 34/9/3 46/13/3
f 25/11/1 38/1/1 39/4/1 27/10/1
f 27/10/2 39/4/2 37/6/2 26/12/2
f 10/16/4 41/1/4 42/4/4 12/17/4
f 12/17/2 42/4/2 40/6/2 11/18/2
f 22/19/3 44/13/3 45/14/3 24/20/3
f 24/20/4 45/14/4 43/15/4 23/21/4
f 16/22/1 47/15/1 48/14/1 18/23/1
f 18/23/3 48/14/3 46/13/3 17/24/3
f 26/12/2 28/12/2 15/12/2 20/12/2
f 31/8/4 33/7/4 7/7/4 9/8/4
f 47/15/1 16/22/1 5/2/1 38/1/1
f 37/6/2 4/5/2 11/18/2 40/6/2
f 49/16/5 10/16/5 12/17/5 11/18/5
f 28/12/2 30/10/2 13/10/2 15/12/2
f 41/1/4 10/16/4 23/21/4 43/15/4
f 29/11/4 31/8/4 9/8/4 14/11/4
f 44/13/3 22/19/3 17/24/3 46/13/3
f 26/12/2 37/6/2 40/6/2 28/12/2
f 35/8/1 47/15/1 38/1/1 25/11/1
f 29/11/4 41/1/4 43/15/4 31/8/4
f 32/9/3 44/13/3 46/13/3 34/9/3
f 50/2/5 49/16/5 11/18/5 4/5/5
f 5/2/5 50/2/5 4/5/5 6/3/5
f 52/22/5 51/21/5 49/16/5 50/2/5
f 51/21/5 23/21/5 10/16/5 49/16/5
f 16/22/5 52/22/5 50/2/5 5/2/5
f 17/24/5 22/19/5 51/21/5 52/22/5
f 22/19/5 24/20/5 23/21/5 51/21/5
f 18/23/5 17/24/5 52/22/5 16/22/5
f 54/25/6 21/11/6 19/10/6 20/12/6
f 3/9/6 1/7/6 2/8/6 53/8/6
f 55/26/6 54/25/6 20/12/6 15/12/6
f 8/9/6 3/9/6 53/8/6 56/8/6
f 53/8/6 2/8/6 21/11/6 54/25/6
f 56/8/6 53/8/6 54/25/6 55/26/6
f 9/8/6 56/8/6 55/26/6 14/11/6
f 14/11/6 55/26/6 15/12/6 13/10/6
f 7/7/6 8/9/6 56/8/6 9/8/6
