# Blender 5.0.1
# www.blender.org
o GEO_BerryBush_A
v 9.866088 -0.012822 -15.458450
v 9.619460 -0.012822 -15.705079
v 9.691695 -0.012822 -15.530686
v 9.836330 0.344276 -15.373886
v 9.851210 0.673114 -15.690200
v 9.534895 0.344276 -15.675321
v 9.851210 0.576799 -15.496430
v 9.692997 0.534130 -15.531988
v 9.657439 0.576799 -15.690200
v 9.623183 0.344275 -15.462174
v 9.619460 -0.012822 -16.294920
v 9.866088 -0.012822 -16.541550
v 9.691695 -0.012822 -16.469313
v 9.851210 0.673114 -16.309799
v 9.836330 0.344276 -16.626114
v 9.534895 0.344276 -16.324678
v 9.851210 0.576799 -16.503571
v 9.692997 0.534130 -16.468012
v 9.623183 0.344275 -16.537827
v 9.657439 0.576799 -16.309799
v 10.380540 -0.012822 -15.705079
v 10.133912 -0.012822 -15.458450
v 10.308305 -0.012822 -15.530686
v 10.148790 0.673114 -15.690200
v 10.163670 0.344276 -15.373886
v 10.465105 0.344276 -15.675321
v 10.148790 0.576799 -15.496430
v 10.307003 0.534130 -15.531988
v 10.376817 0.344275 -15.462174
v 10.342561 0.576799 -15.690200
v 10.133912 -0.012822 -16.541550
v 10.380540 -0.012822 -16.294920
v 10.308305 -0.012822 -16.469313
v 10.148790 0.673114 -16.309799
v 10.465105 0.344276 -16.324678
v 10.163670 0.344276 -16.626114
v 10.342561 0.576799 -16.309799
v 10.307003 0.534130 -16.468012
v 10.376817 0.344275 -16.537827
v 10.148790 0.576799 -16.503571
v 9.836330 0.109825 -15.373886
v 9.623183 0.109825 -15.462174
v 9.534895 0.109825 -15.675321
v 9.836330 0.109825 -16.626114
v 9.623183 0.109825 -16.537827
v 9.534895 0.109825 -16.324678
v 10.465105 0.109825 -16.324678
v 10.376817 0.109825 -16.537827
v 10.163670 0.109825 -16.626114
v 10.163670 0.109825 -15.373886
v 10.376817 0.109825 -15.462174
v 10.465105 0.109825 -15.675321
v 9.581406 -0.012869 -16.000000
v 9.836330 0.724057 -16.000000
v 9.623183 0.618111 -16.000000
v 9.488385 0.379939 -16.000000
v 10.418594 -0.012869 -16.000000
v 10.163670 0.724057 -16.000000
v 10.376817 0.618111 -16.000000
v 10.511615 0.379939 -16.000000
v 10.511615 0.122043 -16.000000
v 9.488385 0.122043 -16.000000
v 9.774639 0.513786 -15.440250
v 9.762571 0.479257 -15.411116
v 9.815660 0.532656 -15.428092
v 9.810411 0.496958 -15.381313
v 9.774639 0.437153 -15.394735
v 9.775244 0.405219 -15.428889
v 9.815660 0.438801 -15.372349
v 9.828333 0.392252 -15.406449
v 9.795333 0.392883 -15.469275
v 9.787916 0.425037 -15.502407
v 9.841005 0.384580 -15.463639
v 9.846254 0.420278 -15.510418
v 9.795333 0.469515 -15.514789
v 9.775244 0.499075 -15.484633
v 9.841005 0.478436 -15.519383
v 9.828333 0.524984 -15.485283
v 9.753254 0.449466 -15.461274
v 9.861334 0.524354 -15.422458
v 9.868750 0.492200 -15.389325
v 9.861334 0.447721 -15.376944
v 9.881422 0.512017 -15.462842
v 9.903413 0.467770 -15.430457
v 9.881422 0.418162 -15.407099
v 9.882028 0.480083 -15.496996
v 9.894094 0.437979 -15.480616
v 9.882028 0.403450 -15.451482
v 9.568224 0.428063 -16.426958
v 9.553648 0.457927 -16.392044
v 9.591105 0.451993 -16.461987
v 9.573717 0.500935 -16.430199
v 9.568224 0.489032 -16.358232
v 9.595625 0.467243 -16.325102
v 9.591105 0.526664 -16.377817
v 9.633081 0.514109 -16.335527
v 9.636772 0.443276 -16.317640
v 9.637602 0.401888 -16.342329
v 9.675058 0.470624 -16.328102
v 9.692446 0.421682 -16.359890
v 9.636772 0.382307 -16.386364
v 9.595625 0.392572 -16.409271
v 9.675058 0.395953 -16.412271
v 9.633081 0.408508 -16.454561
v 9.580110 0.416901 -16.355648
v 9.629391 0.479341 -16.472448
v 9.628562 0.520729 -16.447760
v 9.629391 0.540310 -16.403725
v 9.670539 0.455374 -16.464987
v 9.686053 0.505716 -16.434441
v 9.670539 0.530045 -16.380817
v 9.697939 0.433585 -16.431856
v 9.712515 0.464690 -16.398045
v 9.697939 0.494554 -16.363131
v 10.332007 0.506405 -16.504128
v 10.331048 0.543868 -16.482845
v 10.369136 0.485578 -16.497414
v 10.382746 0.531338 -16.471237
v 10.332007 0.562232 -16.443869
v 10.298189 0.550116 -16.420061
v 10.369136 0.553952 -16.423615
v 10.336277 0.540173 -16.382444
v 10.278350 0.516607 -16.401598
v 10.265331 0.487989 -16.431074
v 10.303418 0.498073 -16.371843
v 10.289808 0.452313 -16.398022
v 10.278350 0.460780 -16.461855
v 10.298189 0.481742 -16.493860
v 10.303418 0.429699 -16.445642
v 10.336277 0.443477 -16.486813
v 10.282413 0.525913 -16.466211
v 10.394204 0.467044 -16.467659
v 10.407224 0.495661 -16.438183
v 10.394205 0.522871 -16.407402
v 10.374365 0.433535 -16.449198
v 10.390141 0.457738 -16.403048
v 10.374365 0.501909 -16.375397
v 10.340547 0.421419 -16.425388
v 10.341506 0.439782 -16.386412
v 10.340547 0.477246 -16.365131
v 9.577470 0.587862 -16.106941
v 9.566629 0.590888 -16.072969
v 9.596000 0.616686 -16.117256
v 9.583697 0.632582 -16.076759
v 9.577470 0.594035 -16.039011
v 9.596331 0.565419 -16.028713
v 9.596000 0.624247 -16.034060
v 9.625700 0.596564 -16.014172
v 9.625971 0.546271 -16.034670
v 9.626031 0.532389 -16.067654
v 9.655401 0.565749 -16.028744
v 9.667704 0.549853 -16.069241
v 9.625971 0.540098 -16.102600
v 9.596331 0.557858 -16.111910
v 9.655401 0.558188 -16.111940
v 9.625700 0.585871 -16.131828
v 9.584166 0.549387 -16.069199
v 9.625430 0.636164 -16.111330
v 9.625370 0.650046 -16.078346
v 9.625430 0.642337 -16.043400
v 9.655070 0.617016 -16.117287
v 9.667235 0.633048 -16.076801
v 9.655070 0.624577 -16.034090
v 9.673931 0.588400 -16.106989
v 9.684771 0.591547 -16.073030
v 9.673931 0.594573 -16.039059
v 10.071347 0.573486 -16.570246
v 10.062700 0.612919 -16.545979
v 10.117184 0.569312 -16.580259
v 10.120231 0.623823 -16.556583
v 10.071347 0.636083 -16.505888
v 10.055343 0.612195 -16.468580
v 10.117184 0.645977 -16.501438
v 10.109826 0.622799 -16.447126
v 10.059333 0.572304 -16.443855
v 10.047985 0.534806 -16.470003
v 10.102468 0.567865 -16.425463
v 10.099422 0.513355 -16.449139
v 10.059333 0.509707 -16.508211
v 10.055343 0.535530 -16.547401
v 10.102468 0.491200 -16.504284
v 10.109826 0.514378 -16.558598
v 10.032775 0.576047 -16.510117
v 10.160319 0.564873 -16.561869
v 10.171667 0.602371 -16.535719
v 10.160319 0.627470 -16.497511
v 10.164310 0.524982 -16.537142
v 10.186877 0.561130 -16.495607
v 10.164310 0.601647 -16.458321
v 10.148305 0.501094 -16.499834
v 10.156952 0.524258 -16.459743
v 10.148305 0.563691 -16.435478
v 9.939390 0.663779 -15.586711
v 9.930503 0.649683 -15.549924
v 9.977622 0.676651 -15.588608
v 9.977077 0.667097 -15.538491
v 9.939390 0.621534 -15.522364
v 9.931817 0.584424 -15.536379
v 9.977622 0.624912 -15.509798
v 9.978936 0.574807 -15.519336
v 9.941537 0.557211 -15.564591
v 9.933131 0.570904 -15.601644
v 9.980250 0.546133 -15.561517
v 9.980795 0.555687 -15.611633
v 9.941537 0.599456 -15.628940
v 9.931817 0.636163 -15.615189
v 9.980250 0.597872 -15.640326
v 9.978936 0.647977 -15.630789
v 9.912299 0.609838 -15.576082
v 10.016336 0.665573 -15.585533
v 10.024741 0.651880 -15.548482
v 10.016336 0.623328 -15.521186
v 10.026055 0.638360 -15.613746
v 10.045573 0.612946 -15.574042
v 10.026055 0.586622 -15.534936
v 10.018482 0.601250 -15.627762
v 10.027370 0.573102 -15.600201
v 10.018482 0.559006 -15.563414
v 9.955007 0.745003 -15.975317
v 9.947611 0.750389 -15.942638
v 9.987214 0.753218 -15.982152
v 9.986926 0.767464 -15.941717
v 9.955007 0.741518 -15.910730
v 9.948307 0.708710 -15.905221
v 9.987214 0.748950 -15.903049
v 9.987910 0.708521 -15.888801
v 9.956142 0.676941 -15.914214
v 9.949003 0.671299 -15.946906
v 9.988605 0.669860 -15.907317
v 9.988894 0.655614 -15.947753
v 9.956142 0.680426 -15.978801
v 9.948307 0.712978 -15.984324
v 9.988605 0.674128 -15.986420
v 9.987910 0.714557 -16.000669
v 9.931904 0.710556 -15.944788
v 10.019677 0.746138 -15.975255
v 10.026816 0.751779 -15.942564
v 10.019677 0.742653 -15.910668
v 10.027513 0.714368 -15.984248
v 10.043917 0.712522 -15.944682
v 10.027513 0.710100 -15.905147
v 10.020814 0.681561 -15.978740
v 10.028209 0.672689 -15.946831
v 10.020814 0.678076 -15.914153
v 10.331986 0.265232 -16.604839
v 10.330801 0.301792 -16.610386
v 10.364394 0.254926 -16.590269
v 10.375633 0.299743 -16.597324
v 10.331986 0.334898 -16.593914
v 10.303666 0.339248 -16.570509
v 10.364394 0.340249 -16.576887
v 10.337258 0.352715 -16.540930
v 10.287674 0.326398 -16.539721
v 10.276530 0.291382 -16.544012
v 10.310123 0.329839 -16.510513
v 10.298883 0.285021 -16.503458
v 10.287674 0.256732 -16.550646
v 10.303666 0.253925 -16.583891
v 10.310123 0.244515 -16.523895
v 10.337258 0.232049 -16.559855
v 10.289751 0.298328 -16.588303
v 10.386843 0.258366 -16.561064
v 10.397986 0.293383 -16.556770
v 10.386843 0.328032 -16.550137
v 10.370851 0.245516 -16.530275
v 10.384766 0.286436 -16.512480
v 10.370851 0.330839 -16.516893
v 10.342530 0.249866 -16.506870
v 10.343716 0.282972 -16.490396
v 10.342530 0.319532 -16.495943
v 9.834646 0.698348 -16.320330
v 9.823498 0.717362 -16.280737
v 9.875692 0.711803 -16.334028
v 9.872147 0.746493 -16.288624
v 9.834646 0.720918 -16.236959
v 9.832058 0.680802 -16.216043
v 9.875692 0.739446 -16.231920
v 9.884253 0.694790 -16.197134
v 9.848625 0.638646 -16.214687
v 9.840618 0.616600 -16.253458
v 9.892813 0.638684 -16.204641
v 9.896358 0.603994 -16.250046
v 9.848625 0.616076 -16.298058
v 9.832058 0.653160 -16.318151
v 9.892813 0.611041 -16.306749
v 9.884253 0.655697 -16.341536
v 9.810438 0.663558 -16.266171
v 9.919880 0.711841 -16.323982
v 9.927887 0.733887 -16.285212
v 9.919880 0.734411 -16.240612
v 9.936447 0.669685 -16.322626
v 9.958067 0.686928 -16.272497
v 9.936447 0.697327 -16.220518
v 9.933859 0.629569 -16.301710
v 9.945007 0.633125 -16.257933
v 9.933859 0.652139 -16.218340
v 10.359306 0.672895 -16.058697
v 10.358690 0.686356 -16.019220
v 10.394754 0.652621 -16.067202
v 10.408302 0.668589 -16.018843
v 10.359306 0.674583 -15.979208
v 10.325981 0.651334 -15.969778
v 10.394754 0.654688 -15.969850
v 10.362045 0.619061 -15.948921
v 10.305893 0.615704 -15.977958
v 10.293273 0.614245 -16.017689
v 10.329336 0.582577 -15.968318
v 10.315787 0.566609 -16.016678
v 10.305893 0.614016 -16.057446
v 10.325981 0.649267 -16.067131
v 10.329336 0.580510 -16.065672
v 10.362045 0.616137 -16.086599
v 10.311044 0.663846 -16.018742
v 10.418198 0.619493 -16.057562
v 10.430818 0.620953 -16.017832
v 10.418198 0.621181 -15.978074
v 10.398108 0.583864 -16.065742
v 10.413047 0.571352 -16.016779
v 10.398108 0.585931 -15.968390
v 10.364784 0.560615 -16.056313
v 10.365400 0.548842 -16.016300
v 10.364784 0.562303 -15.976824
v 10.358484 0.568328 -15.630627
v 10.357684 0.585827 -15.579308
v 10.404567 0.541972 -15.641685
v 10.422180 0.562730 -15.578817
v 10.358484 0.570522 -15.527292
v 10.315163 0.540299 -15.515034
v 10.404567 0.544659 -15.515126
v 10.362045 0.498343 -15.487920
v 10.289046 0.493980 -15.525667
v 10.272641 0.492083 -15.577317
v 10.319524 0.450915 -15.513135
v 10.301910 0.430156 -15.576002
v 10.289046 0.491786 -15.629002
v 10.315163 0.537611 -15.641592
v 10.319524 0.448227 -15.639694
v 10.362045 0.494543 -15.666901
v 10.295743 0.556564 -15.578687
v 10.435043 0.498906 -15.629153
v 10.451449 0.500803 -15.577502
v 10.435043 0.501100 -15.525818
v 10.408928 0.452587 -15.639787
v 10.428348 0.436322 -15.576134
v 10.408928 0.455275 -15.513227
v 10.365606 0.422364 -15.627527
v 10.366406 0.407059 -15.575512
v 10.365606 0.424558 -15.524193
v 9.588714 0.603356 -15.783390
v 9.576142 0.612513 -15.727838
v 9.643467 0.617323 -15.795011
v 9.642977 0.641541 -15.726272
v 9.588714 0.597431 -15.673593
v 9.577326 0.541658 -15.664228
v 9.643467 0.610067 -15.660537
v 9.644650 0.541337 -15.636313
v 9.590646 0.487651 -15.679517
v 9.578508 0.478060 -15.735092
v 9.645833 0.475613 -15.667791
v 9.646323 0.451395 -15.736531
v 9.590646 0.493575 -15.789314
v 9.577326 0.548914 -15.798702
v 9.645833 0.482869 -15.802266
v 9.644650 0.551599 -15.826488
v 9.549438 0.544797 -15.731491
v 9.698654 0.605285 -15.783286
v 9.710791 0.614876 -15.727710
v 9.698654 0.599361 -15.673489
v 9.711974 0.551277 -15.798574
v 9.739861 0.548139 -15.731311
v 9.711974 0.544021 -15.664101
v 9.700586 0.495504 -15.789210
v 9.713158 0.480423 -15.734965
v 9.700586 0.489580 -15.679412
vn -0.1489 -0.5855 0.7968
vn -0.7857 -0.5844 0.2028
vn -0.5549 -0.6199 0.5549
vn -0.1847 0.2316 0.9551
vn -0.2033 0.9348 0.2913
vn -0.9381 0.2265 0.2620
vn -0.1785 0.7131 0.6780
vn -0.5554 0.6189 0.5554
vn -0.6612 0.7012 0.2668
vn -0.6877 0.2324 0.6877
vn -0.7857 -0.5844 -0.2028
vn -0.1489 -0.5855 -0.7968
vn -0.5549 -0.6199 -0.5549
vn -0.2033 0.9348 -0.2913
vn -0.1847 0.2316 -0.9551
vn -0.9381 0.2265 -0.2620
vn -0.1785 0.7131 -0.6780
vn -0.5554 0.6189 -0.5554
vn -0.6877 0.2324 -0.6877
vn -0.6612 0.7012 -0.2668
vn 0.7857 -0.5844 0.2028
vn 0.1489 -0.5855 0.7968
vn 0.5549 -0.6199 0.5549
vn 0.2033 0.9348 0.2913
vn 0.1847 0.2316 0.9551
vn 0.9381 0.2265 0.2620
vn 0.1785 0.7131 0.6780
vn 0.5554 0.6189 0.5554
vn 0.6877 0.2324 0.6877
vn 0.6612 0.7012 0.2668
vn 0.1489 -0.5855 -0.7968
vn 0.7857 -0.5844 -0.2028
vn 0.5549 -0.6199 -0.5549
vn 0.2033 0.9348 -0.2913
vn 0.9381 0.2265 -0.2620
vn 0.1847 0.2316 -0.9551
vn 0.6612 0.7012 -0.2668
vn 0.5554 0.6189 -0.5554
vn 0.6877 0.2324 -0.6877
vn 0.1785 0.7131 -0.6780
vn -0.1900 -0.2977 0.9356
vn -0.6733 -0.3057 0.6733
vn -0.9197 -0.3035 0.2491
vn -0.1900 -0.2977 -0.9356
vn -0.6733 -0.3057 -0.6733
vn -0.9197 -0.3035 -0.2491
vn 0.9197 -0.3035 -0.2491
vn 0.6733 -0.3057 -0.6733
vn 0.1900 -0.2977 -0.9356
vn 0.1900 -0.2977 0.9356
vn 0.6733 -0.3057 0.6733
vn 0.9197 -0.3035 0.2491
vn -0.8178 -0.5755 -0.0000
vn -0.2298 0.9732 -0.0000
vn -0.6898 0.7240 -0.0000
vn -0.9656 0.2602 -0.0000
vn 0.8178 -0.5755 -0.0000
vn 0.2298 0.9732 -0.0000
vn 0.6898 0.7240 -0.0000
vn 0.9656 0.2602 -0.0000
vn 0.9576 -0.2879 -0.0000
vn -0.9576 -0.2879 -0.0000
vn -0.6956 0.7147 0.0728
vn -0.8520 0.2674 0.4502
vn -0.1642 0.9592 0.2303
vn -0.2322 0.4967 0.8363
vn -0.6956 -0.2781 0.6624
vn -0.6878 -0.6918 0.2199
vn -0.1642 -0.2567 0.9524
vn -0.0000 -0.8598 0.5107
vn -0.4275 -0.8516 -0.3033
vn -0.5236 -0.4351 -0.7325
vn 0.1642 -0.9592 -0.2303
vn 0.2322 -0.4967 -0.8363
vn -0.4275 0.1412 -0.8929
vn -0.6878 0.5241 -0.5022
vn 0.1642 0.2567 -0.9524
vn -0.0000 0.8598 -0.5107
vn -0.9727 -0.1186 -0.1996
vn 0.4275 0.8516 0.3033
vn 0.5236 0.4351 0.7325
vn 0.4275 -0.1412 0.8929
vn 0.6878 0.6918 -0.2199
vn 0.9727 0.1186 0.1996
vn 0.6878 -0.5241 0.5022
vn 0.6956 0.2781 -0.6624
vn 0.8520 -0.2674 -0.4502
vn 0.6956 -0.7147 -0.0728
vn -0.8152 -0.4178 -0.4011
vn -0.9984 -0.0425 0.0377
vn -0.5276 -0.1171 -0.8414
vn -0.7461 0.4981 -0.4418
vn -0.8152 0.3485 0.4627
vn -0.4708 0.0746 0.8791
vn -0.5276 0.8214 0.2165
vn -0.0000 0.6636 0.7481
vn 0.0464 -0.2266 0.9729
vn 0.0568 -0.7468 0.6626
vn 0.5276 0.1171 0.8414
vn 0.7461 -0.4981 0.4418
vn 0.0464 -0.9929 0.1091
vn -0.4708 -0.8639 -0.1788
vn 0.5276 -0.8214 -0.2165
vn -0.0000 -0.6636 -0.7481
vn -0.6658 -0.5582 0.4952
vn -0.0464 0.2266 -0.9729
vn -0.0568 0.7468 -0.6626
vn -0.0464 0.9929 -0.1091
vn 0.4708 -0.0746 -0.8791
vn 0.6658 0.5582 -0.4952
vn 0.4708 0.8639 0.1788
vn 0.8152 -0.3485 -0.4627
vn 0.9984 0.0425 -0.0377
vn 0.8152 0.4178 0.4011
vn -0.0600 0.2049 -0.9769
vn -0.0735 0.7316 -0.6778
vn 0.4619 -0.0878 -0.8826
vn 0.6532 0.5554 -0.5146
vn -0.0600 0.9897 -0.1299
vn -0.5354 0.8194 0.2048
vn 0.4619 0.8733 0.1548
vn -0.0000 0.6796 0.7336
vn -0.8143 0.3484 0.4643
vn -0.9973 -0.0539 0.0500
vn -0.4619 0.0878 0.8826
vn -0.6532 -0.5554 0.5146
vn -0.8143 -0.4364 -0.3827
vn -0.5354 -0.1417 -0.8326
vn -0.4619 -0.8733 -0.1548
vn -0.0000 -0.6796 -0.7336
vn -0.7572 0.4792 -0.4439
vn 0.8143 -0.3484 -0.4643
vn 0.9973 0.0539 -0.0500
vn 0.8143 0.4364 0.3827
vn 0.5354 -0.8194 -0.2048
vn 0.7572 -0.4792 0.4439
vn 0.5354 0.1417 0.8326
vn 0.0600 -0.9897 0.1299
vn 0.0735 -0.7316 0.6778
vn 0.0600 -0.2049 0.9769
vn -0.8165 -0.0568 -0.5746
vn -1.0000 -0.0056 0.0005
vn -0.5028 0.4312 -0.7492
vn -0.7111 0.7002 -0.0636
vn -0.8165 0.0477 0.5754
vn -0.4972 -0.4367 0.7497
vn -0.5028 0.5592 0.6592
vn -0.0000 0.0905 0.9959
vn 0.0046 -0.7609 0.6489
vn 0.0056 -0.9959 0.0905
vn 0.5028 -0.4312 0.7492
vn 0.7111 -0.7002 0.0636
vn 0.0046 -0.8654 -0.5011
vn -0.4972 -0.5647 -0.6587
vn 0.5028 -0.5592 -0.6592
vn -0.0000 -0.0905 -0.9959
vn -0.7031 -0.7081 0.0644
vn -0.0046 0.7609 -0.6489
vn -0.0056 0.9959 -0.0905
vn -0.0046 0.8654 0.5011
vn 0.4972 0.4367 -0.7497
vn 0.7031 0.7081 -0.0644
vn 0.4972 0.5647 0.6587
vn 0.8165 -0.0477 -0.5754
vn 1.0000 0.0056 -0.0005
vn 0.8165 0.0568 0.5746
vn -0.4949 0.0630 -0.8667
vn -0.6061 0.5702 -0.5546
vn 0.0946 0.0093 -0.9955
vn 0.1338 0.7104 -0.6910
vn -0.4949 0.8681 -0.0389
vn -0.7007 0.5609 0.4409
vn 0.0946 0.9953 0.0183
vn -0.0000 0.6972 0.7168
vn -0.6494 0.0478 0.7589
vn -0.7954 -0.4345 0.4226
vn -0.0946 -0.0093 0.9955
vn -0.1338 -0.7104 0.6910
vn -0.6494 -0.7573 -0.0688
vn -0.7007 -0.4252 -0.5729
vn -0.0946 -0.9953 -0.0183
vn -0.0000 -0.6972 -0.7168
vn -0.9910 0.0959 -0.0933
vn 0.6494 -0.0478 -0.7589
vn 0.7954 0.4345 -0.4226
vn 0.6494 0.7573 0.0688
vn 0.7007 -0.5609 -0.4409
vn 0.9910 -0.0959 0.0933
vn 0.7007 0.4252 0.5729
vn 0.4949 -0.8681 0.0389
vn 0.6061 -0.5702 0.5546
vn 0.4949 -0.0630 0.8667
vn -0.5932 0.7858 -0.1747
vn -0.7265 0.5744 0.3771
vn -0.0197 0.9789 -0.2032
vn -0.0279 0.8356 0.5486
vn -0.5932 0.1521 0.7905
vn -0.7068 -0.4045 0.5803
vn -0.0197 0.2028 0.9790
vn -0.0000 -0.5488 0.8359
vn -0.5610 -0.8128 0.1571
vn -0.6871 -0.6074 -0.3987
vn 0.0197 -0.9789 0.2032
vn 0.0279 -0.8356 -0.5486
vn -0.5610 -0.1791 -0.8082
vn -0.7068 0.3716 -0.6019
vn 0.0197 -0.2028 -0.9790
vn -0.0000 0.5488 -0.8360
vn -0.9996 -0.0233 -0.0153
vn 0.5610 0.8128 -0.1571
vn 0.6871 0.6074 0.3987
vn 0.5610 0.1791 0.8082
vn 0.7068 0.4045 -0.5803
vn 0.9996 0.0233 0.0153
vn 0.7068 -0.3716 0.6019
vn 0.5932 -0.1521 -0.7905
vn 0.7265 -0.5744 -0.3771
vn 0.5932 -0.7858 0.1747
vn -0.5874 0.5974 -0.5460
vn -0.7194 0.6936 0.0374
vn -0.0124 0.7441 -0.6680
vn -0.0176 0.9984 0.0539
vn -0.5874 0.5352 0.6071
vn -0.7070 -0.0505 0.7054
vn -0.0124 0.6679 0.7442
vn -0.0000 -0.0539 0.9985
vn -0.5671 -0.6177 0.5449
vn -0.6946 -0.7184 -0.0388
vn 0.0124 -0.7441 0.6680
vn 0.0176 -0.9984 -0.0539
vn -0.5671 -0.5554 -0.6082
vn -0.7070 0.0257 -0.7067
vn 0.0124 -0.6679 -0.7442
vn -0.0000 0.0539 -0.9985
vn -0.9998 -0.0175 -0.0009
vn 0.5671 0.6177 -0.5449
vn 0.6946 0.7184 0.0388
vn 0.5671 0.5554 0.6082
vn 0.7070 0.0505 -0.7054
vn 0.9998 0.0175 0.0009
vn 0.7070 -0.0257 0.7067
vn 0.5874 -0.5352 -0.6071
vn 0.7194 -0.6936 -0.0374
vn 0.5874 -0.5974 0.5460
vn -0.0863 -0.4446 -0.8916
vn -0.1057 0.1541 -0.9824
vn 0.4443 -0.6133 -0.6530
vn 0.6284 0.1205 -0.7685
vn -0.0863 0.6962 -0.7127
vn -0.5501 0.7674 -0.3294
vn 0.4443 0.7838 -0.4339
vn -0.0000 0.9879 0.1549
vn -0.8119 0.5570 0.1747
vn -0.9944 -0.0164 0.1045
vn -0.4443 0.6133 0.6530
vn -0.6284 -0.1205 0.7685
vn -0.8119 -0.5838 -0.0042
vn -0.5501 -0.6297 -0.5485
vn -0.4443 -0.7838 0.4339
vn -0.0000 -0.9879 -0.1549
vn -0.7779 0.0974 -0.6208
vn 0.8119 -0.5570 -0.1747
vn 0.9944 0.0164 -0.1045
vn 0.8119 0.5838 0.0042
vn 0.5501 -0.7674 0.3294
vn 0.7779 -0.0974 0.6208
vn 0.5501 0.6297 0.5485
vn 0.0863 -0.6962 0.7127
vn 0.1057 -0.1541 0.9824
vn 0.0863 0.4446 0.8916
vn -0.6632 0.3089 -0.6818
vn -0.8122 0.5631 -0.1524
vn -0.1144 0.4888 -0.8649
vn -0.1618 0.9525 -0.2579
vn -0.6632 0.6106 0.4328
vn -0.6978 0.0743 0.7124
vn -0.1144 0.8583 0.5002
vn -0.0000 0.2613 0.9653
vn -0.4763 -0.4893 0.7306
vn -0.5833 -0.7840 0.2122
vn 0.1144 -0.4888 0.8649
vn 0.1618 -0.9525 0.2579
vn -0.4763 -0.7910 -0.3840
vn -0.6978 -0.2952 -0.6526
vn 0.1144 -0.8583 -0.5002
vn -0.0000 -0.2613 -0.9653
vn -0.9868 -0.1562 0.0423
vn 0.4763 0.4893 -0.7306
vn 0.5833 0.7840 -0.2122
vn 0.4763 0.7910 0.3840
vn 0.6978 -0.0743 -0.7124
vn 0.9868 0.1562 -0.0423
vn 0.6978 0.2952 0.6526
vn 0.6632 -0.6106 -0.4328
vn 0.8122 -0.5631 0.1524
vn 0.6632 -0.3089 0.6818
vn -0.0398 0.8031 -0.5945
vn -0.0487 0.9986 -0.0212
vn 0.4750 0.5086 -0.7181
vn 0.6718 0.7406 -0.0157
vn -0.0398 0.8276 0.5599
vn -0.5238 0.4899 0.6969
vn 0.4750 0.5387 0.6958
vn -0.0000 0.0212 0.9998
vn -0.8155 -0.0275 0.5781
vn -0.9988 -0.0487 0.0010
vn -0.4750 -0.5086 0.7181
vn -0.6718 -0.7406 0.0157
vn -0.8155 -0.0520 -0.5764
vn -0.5238 0.4599 -0.7170
vn -0.4750 -0.5387 -0.6958
vn -0.0000 -0.0212 -0.9998
vn -0.7407 0.6717 -0.0143
vn 0.8155 0.0275 -0.5781
vn 0.9988 0.0487 -0.0010
vn 0.8155 0.0520 0.5764
vn 0.5238 -0.4899 -0.6969
vn 0.7407 -0.6717 0.0143
vn 0.5238 -0.4599 0.7170
vn 0.0398 -0.8276 -0.5599
vn 0.0487 -0.9986 0.0212
vn 0.0398 -0.8031 0.5945
vn -0.5238 0.4900 0.6969
vt 0.695970 0.853148
vt 0.698989 0.860854
vt 0.697655 0.860039
vt 0.695014 0.853881
vt 0.700240 0.864047
vt 0.698033 0.861588
vt 0.694618 0.854185
vt 0.701708 0.862921
vt 0.700458 0.859728
vt 0.700684 0.857716
vt 0.701414 0.858995
vt 0.697439 0.852022
vt 0.698395 0.851288
vt 0.698791 0.850985
vt 0.693652 0.847230
vt 0.692696 0.847963
vt 0.692300 0.848267
vt 0.691334 0.841312
vt 0.690378 0.842045
vt 0.689982 0.842349
vt 0.696473 0.845067
vt 0.694154 0.839149
vt 0.693758 0.839453
vt 0.696077 0.845371
vt 0.692802 0.840186
vt 0.695121 0.846104
vt 0.805558 0.530244
vt 0.794346 0.527724
vt 0.794346 0.541456
vt 0.808078 0.541456
vt 0.783134 0.530244
vt 0.780614 0.541456
vt 0.794346 0.555188
vt 0.805558 0.552668
vt 0.783134 0.552668
vt 0.780614 0.527724
vt 0.774927 0.541456
vt 0.780614 0.555188
vt 0.808078 0.527724
vt 0.813766 0.541456
vt 0.808078 0.555188
vt 0.794346 0.522036
vt 0.794346 0.560876
vt 0.721848 0.519393
vt 0.710636 0.516873
vt 0.710636 0.530605
vt 0.724367 0.530605
vt 0.699424 0.519393
vt 0.696904 0.530605
vt 0.710636 0.544337
vt 0.721848 0.541817
vt 0.699424 0.541817
vt 0.696904 0.516873
vt 0.691216 0.530605
vt 0.696904 0.544337
vt 0.724367 0.516873
vt 0.730055 0.530605
vt 0.724367 0.544337
vt 0.710636 0.511185
vt 0.710636 0.550024
s 1
f 4/1/4 7/2/7 8/3/8 10/4/10
f 5/5/5 9/6/9 8/3/8 7/2/7
f 6/7/6 10/4/10 8/3/8 9/6/9
f 14/5/14 17/2/17 18/3/18 20/6/20
f 15/1/15 19/4/19 18/3/18 17/2/17
f 16/7/16 20/6/20 18/3/18 19/4/19
f 24/8/24 27/9/27 28/10/28 30/11/30
f 25/12/25 29/13/29 28/10/28 27/9/27
f 26/14/26 30/11/30 28/10/28 29/13/29
f 34/8/34 37/11/37 38/10/38 40/9/40
f 35/14/35 39/13/39 38/10/38 37/11/37
f 36/12/36 40/9/40 38/10/38 39/13/39
f 41/15/41 4/1/4 10/4/10 42/16/42
f 42/16/42 10/4/10 6/7/6 43/17/43
f 54/5/54 14/5/14 20/6/20 55/6/55
f 55/6/55 20/6/20 16/7/16 56/7/56
f 44/15/44 12/18/12 13/19/13 45/16/45
f 45/16/45 13/19/13 11/20/11 46/17/46
f 14/5/14 34/8/34 40/9/40 17/2/17
f 17/2/17 40/9/40 36/12/36 15/1/15
f 47/21/47 32/22/32 33/23/33 48/24/48
f 48/24/48 33/23/33 31/25/31 49/26/49
f 58/8/58 24/8/24 30/11/30 59/11/59
f 59/11/59 30/11/30 26/14/26 60/14/60
f 50/26/50 22/25/22 23/23/23 51/24/51
f 51/24/51 23/23/23 21/22/21 52/21/52
f 24/8/24 5/5/5 7/2/7 27/9/27
f 27/9/27 7/2/7 4/1/4 25/12/25
f 62/17/62 56/7/56 16/7/16 46/17/46
f 50/26/50 25/12/25 4/1/4 41/15/41
f 58/8/58 54/5/54 5/5/5 24/8/24
f 44/15/44 15/1/15 36/12/36 49/26/49
f 61/21/61 60/14/60 26/14/26 52/21/52
f 57/22/57 61/21/61 52/21/52 21/22/21
f 12/18/12 44/15/44 49/26/49 31/25/31
f 22/25/22 50/26/50 41/15/41 1/18/1
f 53/20/53 62/17/62 46/17/46 11/20/11
f 29/13/29 51/24/51 52/21/52 26/14/26
f 25/12/25 50/26/50 51/24/51 29/13/29
f 39/13/39 48/24/48 49/26/49 36/12/36
f 35/14/35 47/21/47 48/24/48 39/13/39
f 19/4/19 45/16/45 46/17/46 16/7/16
f 15/1/15 44/15/44 45/16/45 19/4/19
f 3/19/3 42/16/42 43/17/43 2/20/2
f 1/18/1 41/15/41 42/16/42 3/19/3
f 2/20/2 43/17/43 62/17/62 53/20/53
f 32/22/32 47/21/47 61/21/61 57/22/57
f 47/21/47 35/14/35 60/14/60 61/21/61
f 34/8/34 14/5/14 54/5/54 58/8/58
f 43/17/43 6/7/6 56/7/56 62/17/62
f 37/11/37 59/11/59 60/14/60 35/14/35
f 34/8/34 58/8/58 59/11/59 37/11/37
f 9/6/9 55/6/55 56/7/56 6/7/6
f 5/5/5 54/5/54 55/6/55 9/6/9
f 63/27/63 64/28/64 66/29/66 65/30/65
f 64/28/64 67/31/67 69/32/69 66/29/66
f 65/30/65 66/29/66 81/33/81 80/34/80
f 66/29/66 69/32/69 82/35/82 81/33/81
f 67/31/67 68/36/68 70/37/70 69/32/69
f 68/36/68 71/31/71 73/32/73 70/37/70
f 69/32/69 70/37/70 85/38/85 82/35/82
f 70/37/70 73/32/73 88/35/88 85/38/85
f 71/31/71 72/28/72 74/29/74 73/32/73
f 72/28/72 75/27/75 77/30/77 74/29/74
f 73/32/73 74/29/74 87/33/87 88/35/88
f 74/29/74 77/30/77 86/34/86 87/33/87
f 75/27/75 76/39/76 78/40/78 77/30/77
f 76/39/76 63/27/63 65/30/65 78/40/78
f 77/30/77 78/40/78 83/41/83 86/34/86
f 78/40/78 65/30/65 80/34/80 83/41/83
f 75/27/75 72/28/72 79/42/79 76/39/76
f 72/28/72 71/31/71 68/36/68 79/42/79
f 76/39/76 79/42/79 64/28/64 63/27/63
f 79/42/79 68/36/68 67/31/67 64/28/64
f 80/34/80 81/33/81 84/43/84 83/41/83
f 81/33/81 82/35/82 85/38/85 84/43/84
f 83/41/83 84/43/84 87/33/87 86/34/86
f 84/43/84 85/38/85 88/35/88 87/33/87
f 89/44/89 90/45/90 92/46/92 91/47/91
f 90/45/90 93/48/93 95/49/95 92/46/92
f 91/47/91 92/46/92 107/50/107 106/51/106
f 92/46/92 95/49/95 108/52/108 107/50/107
f 93/48/93 94/53/94 96/54/96 95/49/95
f 94/53/94 97/48/97 99/49/99 96/54/96
f 95/49/95 96/54/96 111/55/111 108/52/108
f 96/54/96 99/49/99 114/52/114 111/55/111
f 97/48/97 98/45/98 100/46/100 99/49/99
f 98/45/98 101/44/101 103/47/103 100/46/100
f 99/49/99 100/46/100 113/50/113 114/52/114
f 100/46/100 103/47/103 112/51/112 113/50/113
f 101/44/101 102/56/102 104/57/104 103/47/103
f 102/56/102 89/44/89 91/47/91 104/57/104
f 103/47/103 104/57/104 109/58/109 112/51/112
f 104/57/104 91/47/91 106/51/106 109/58/109
f 101/44/101 98/45/98 105/59/105 102/56/102
f 98/45/98 97/48/97 94/53/94 105/59/105
f 102/56/102 105/59/105 90/45/90 89/44/89
f 105/59/105 94/53/94 93/48/93 90/45/90
f 106/51/106 107/50/107 110/60/110 109/58/109
f 107/50/107 108/52/108 111/55/111 110/60/110
f 109/58/109 110/60/110 113/50/113 112/51/112
f 110/60/110 111/55/111 114/52/114 113/50/113
f 115/27/115 116/28/116 118/29/118 117/30/117
f 116/28/116 119/31/119 121/32/121 118/29/118
f 117/30/117 118/29/118 133/33/133 132/34/132
f 118/29/118 121/32/121 134/35/134 133/33/133
f 119/31/119 120/36/120 122/37/122 121/32/121
f 120/36/120 123/31/123 125/32/125 122/37/122
f 121/32/121 122/37/122 137/38/137 134/35/134
f 122/37/122 125/32/125 140/35/140 137/38/137
f 123/31/123 124/28/124 126/29/126 125/32/125
f 124/28/124 127/27/127 129/30/129 126/29/126
f 125/32/125 126/29/126 139/33/139 140/35/140
f 126/29/126 129/30/129 138/34/138 139/33/139
f 127/27/127 128/39/128 130/40/130 129/30/129
f 128/39/128 115/27/115 117/30/117 130/40/130
f 129/30/129 130/40/130 135/41/135 138/34/138
f 130/40/130 117/30/117 132/34/132 135/41/135
f 127/27/127 124/28/124 131/42/131 128/39/128
f 124/28/124 123/31/123 120/36/120 131/42/131
f 128/39/128 131/42/131 116/28/116 115/27/115
f 131/42/131 120/36/120 119/31/119 116/28/116
f 132/34/132 133/33/133 136/43/136 135/41/135
f 133/33/133 134/35/134 137/38/137 136/43/136
f 135/41/135 136/43/136 139/33/139 138/34/138
f 136/43/136 137/38/137 140/35/140 139/33/139
f 141/44/141 142/45/142 144/46/144 143/47/143
f 142/45/142 145/48/145 147/49/147 144/46/144
f 143/47/143 144/46/144 159/50/159 158/51/158
f 144/46/144 147/49/147 160/52/160 159/50/159
f 145/48/145 146/53/146 148/54/148 147/49/147
f 146/53/146 149/48/149 151/49/151 148/54/148
f 147/49/147 148/54/148 163/55/163 160/52/160
f 148/54/148 151/49/151 166/52/166 163/55/163
f 149/48/149 150/45/150 152/46/152 151/49/151
f 150/45/150 153/44/153 155/47/155 152/46/152
f 151/49/151 152/46/152 165/50/165 166/52/166
f 152/46/152 155/47/155 164/51/164 165/50/165
f 153/44/153 154/56/154 156/57/156 155/47/155
f 154/56/154 141/44/141 143/47/143 156/57/156
f 155/47/155 156/57/156 161/58/161 164/51/164
f 156/57/156 143/47/143 158/51/158 161/58/161
f 153/44/153 150/45/150 157/59/157 154/56/154
f 150/45/150 149/48/149 146/53/146 157/59/157
f 154/56/154 157/59/157 142/45/142 141/44/141
f 157/59/157 146/53/146 145/48/145 142/45/142
f 158/51/158 159/50/159 162/60/162 161/58/161
f 159/50/159 160/52/160 163/55/163 162/60/162
f 161/58/161 162/60/162 165/50/165 164/51/164
f 162/60/162 163/55/163 166/52/166 165/50/165
f 167/27/167 168/28/168 170/29/170 169/30/169
f 168/28/168 171/31/171 173/32/173 170/29/170
f 169/30/169 170/29/170 185/33/185 184/34/184
f 170/29/170 173/32/173 186/35/186 185/33/185
f 171/31/171 172/36/172 174/37/174 173/32/173
f 172/36/172 175/31/175 177/32/177 174/37/174
f 173/32/173 174/37/174 189/38/189 186/35/186
f 174/37/174 177/32/177 192/35/192 189/38/189
f 175/31/175 176/28/176 178/29/178 177/32/177
f 176/28/176 179/27/179 181/30/181 178/29/178
f 177/32/177 178/29/178 191/33/191 192/35/192
f 178/29/178 181/30/181 190/34/190 191/33/191
f 179/27/179 180/39/180 182/40/182 181/30/181
f 180/39/180 167/27/167 169/30/169 182/40/182
f 181/30/181 182/40/182 187/41/187 190/34/190
f 182/40/182 169/30/169 184/34/184 187/41/187
f 179/27/179 176/28/176 183/42/183 180/39/180
f 176/28/176 175/31/175 172/36/172 183/42/183
f 180/39/180 183/42/183 168/28/168 167/27/167
f 183/42/183 172/36/172 171/31/171 168/28/168
f 184/34/184 185/33/185 188/43/188 187/41/187
f 185/33/185 186/35/186 189/38/189 188/43/188
f 187/41/187 188/43/188 191/33/191 190/34/190
f 188/43/188 189/38/189 192/35/192 191/33/191
f 193/44/193 194/45/194 196/46/196 195/47/195
f 194/45/194 197/48/197 199/49/199 196/46/196
f 195/47/195 196/46/196 211/50/211 210/51/210
f 196/46/196 199/49/199 212/52/212 211/50/211
f 197/48/197 198/53/198 200/54/200 199/49/199
f 198/53/198 201/48/201 203/49/203 200/54/200
f 199/49/199 200/54/200 215/55/215 212/52/212
f 200/54/200 203/49/203 218/52/218 215/55/215
f 201/48/201 202/45/202 204/46/204 203/49/203
f 202/45/202 205/44/205 207/47/207 204/46/204
f 203/49/203 204/46/204 217/50/217 218/52/218
f 204/46/204 207/47/207 216/51/216 217/50/217
f 205/44/205 206/56/206 208/57/208 207/47/207
f 206/56/206 193/44/193 195/47/195 208/57/208
f 207/47/207 208/57/208 213/58/213 216/51/216
f 208/57/208 195/47/195 210/51/210 213/58/213
f 205/44/205 202/45/202 209/59/209 206/56/206
f 202/45/202 201/48/201 198/53/198 209/59/209
f 206/56/206 209/59/209 194/45/194 193/44/193
f 209/59/209 198/53/198 197/48/197 194/45/194
f 210/51/210 211/50/211 214/60/214 213/58/213
f 211/50/211 212/52/212 215/55/215 214/60/214
f 213/58/213 214/60/214 217/50/217 216/51/216
f 214/60/214 215/55/215 218/52/218 217/50/217
f 219/27/219 220/28/220 222/29/222 221/30/221
f 220/28/220 223/31/223 225/32/225 222/29/222
f 221/30/221 222/29/222 237/33/237 236/34/236
f 222/29/222 225/32/225 238/35/238 237/33/237
f 223/31/223 224/36/224 226/37/226 225/32/225
f 224/36/224 227/31/227 229/32/229 226/37/226
f 225/32/225 226/37/226 241/38/241 238/35/238
f 226/37/226 229/32/229 244/35/244 241/38/241
f 227/31/227 228/28/228 230/29/230 229/32/229
f 228/28/228 231/27/231 233/30/233 230/29/230
f 229/32/229 230/29/230 243/33/243 244/35/244
f 230/29/230 233/30/233 242/34/242 243/33/243
f 231/27/231 232/39/232 234/40/234 233/30/233
f 232/39/232 219/27/219 221/30/221 234/40/234
f 233/30/233 234/40/234 239/41/239 242/34/242
f 234/40/234 221/30/221 236/34/236 239/41/239
f 231/27/231 228/28/228 235/42/235 232/39/232
f 228/28/228 227/31/227 224/36/224 235/42/235
f 232/39/232 235/42/235 220/28/220 219/27/219
f 235/42/235 224/36/224 223/31/223 220/28/220
f 236/34/236 237/33/237 240/43/240 239/41/239
f 237/33/237 238/35/238 241/38/241 240/43/240
f 239/41/239 240/43/240 243/33/243 242/34/242
f 240/43/240 241/38/241 244/35/244 243/33/243
f 245/44/245 246/45/246 248/46/248 247/47/247
f 246/45/246 249/48/249 251/49/251 248/46/248
f 247/47/247 248/46/248 263/50/263 262/51/262
f 248/46/248 251/49/251 264/52/264 263/50/263
f 249/48/249 250/53/250 252/54/252 251/49/251
f 250/53/250 253/48/253 255/49/255 252/54/252
f 251/49/251 252/54/252 267/55/267 264/52/264
f 252/54/252 255/49/255 270/52/270 267/55/267
f 253/48/253 254/45/254 256/46/256 255/49/255
f 254/45/254 257/44/257 259/47/259 256/46/256
f 255/49/255 256/46/256 269/50/269 270/52/270
f 256/46/256 259/47/259 268/51/268 269/50/269
f 257/44/257 258/56/258 260/57/260 259/47/259
f 258/56/258 245/44/245 247/47/247 260/57/260
f 259/47/259 260/57/260 265/58/265 268/51/268
f 260/57/260 247/47/247 262/51/262 265/58/265
f 257/44/257 254/45/254 261/59/261 258/56/258
f 254/45/254 253/48/253 250/53/250 261/59/261
f 258/56/258 261/59/261 246/45/246 245/44/245
f 261/59/261 250/53/250 249/48/249 246/45/246
f 262/51/262 263/50/263 266/60/266 265/58/265
f 263/50/263 264/52/264 267/55/267 266/60/266
f 265/58/265 266/60/266 269/50/269 268/51/268
f 266/60/266 267/55/267 270/52/270 269/50/269
f 271/27/271 272/28/272 274/29/274 273/30/273
f 272/28/272 275/31/275 277/32/277 274/29/274
f 273/30/273 274/29/274 289/33/289 288/34/288
f 274/29/274 277/32/277 290/35/290 289/33/289
f 275/31/275 276/36/276 278/37/278 277/32/277
f 276/36/276 279/31/279 281/32/281 278/37/278
f 277/32/277 278/37/278 293/38/293 290/35/290
f 278/37/278 281/32/281 296/35/296 293/38/293
f 279/31/279 280/28/280 282/29/282 281/32/281
f 280/28/280 283/27/283 285/30/285 282/29/282
f 281/32/281 282/29/282 295/33/295 296/35/296
f 282/29/282 285/30/285 294/34/294 295/33/295
f 283/27/283 284/39/284 286/40/286 285/30/285
f 284/39/284 271/27/271 273/30/273 286/40/286
f 285/30/285 286/40/286 291/41/291 294/34/294
f 286/40/286 273/30/273 288/34/288 291/41/291
f 283/27/283 280/28/280 287/42/287 284/39/284
f 280/28/280 279/31/279 276/36/276 287/42/287
f 284/39/284 287/42/287 272/28/272 271/27/271
f 287/42/287 276/36/276 275/31/275 272/28/272
f 288/34/288 289/33/289 292/43/292 291/41/291
f 289/33/289 290/35/290 293/38/293 292/43/292
f 291/41/291 292/43/292 295/33/295 294/34/294
f 292/43/292 293/38/293 296/35/296 295/33/295
f 297/44/297 298/45/298 300/46/300 299/47/299
f 298/45/298 301/48/301 303/49/303 300/46/300
f 299/47/299 300/46/300 315/50/315 314/51/314
f 300/46/300 303/49/303 316/52/316 315/50/315
f 301/48/301 302/53/302 304/54/304 303/49/303
f 302/53/302 305/48/305 307/49/307 304/54/304
f 303/49/303 304/54/304 319/55/319 316/52/316
f 304/54/304 307/49/307 322/52/322 319/55/319
f 305/48/305 306/45/306 308/46/308 307/49/307
f 306/45/306 309/44/309 311/47/311 308/46/308
f 307/49/307 308/46/308 321/50/321 322/52/322
f 308/46/308 311/47/311 320/51/320 321/50/321
f 309/44/309 310/56/310 312/57/312 311/47/311
f 310/56/310 297/44/297 299/47/299 312/57/312
f 311/47/311 312/57/312 317/58/317 320/51/320
f 312/57/312 299/47/299 314/51/314 317/58/317
f 309/44/309 306/45/306 313/59/313 310/56/310
f 306/45/306 305/48/305 302/53/302 313/59/313
f 310/56/310 313/59/313 298/45/298 297/44/297
f 313/59/313 302/53/302 301/48/301 298/45/298
f 314/51/314 315/50/315 318/60/318 317/58/317
f 315/50/315 316/52/316 319/55/319 318/60/318
f 317/58/317 318/60/318 321/50/321 320/51/320
f 318/60/318 319/55/319 322/52/322 321/50/321
f 323/44/297 324/45/298 326/46/300 325/47/299
f 324/45/298 327/48/301 329/49/303 326/46/300
f 325/47/299 326/46/300 341/50/315 340/51/314
f 326/46/300 329/49/303 342/52/316 341/50/315
f 327/48/301 328/53/323 330/54/304 329/49/303
f 328/53/323 331/48/305 333/49/307 330/54/304
f 329/49/303 330/54/304 345/55/319 342/52/316
f 330/54/304 333/49/307 348/52/322 345/55/319
f 331/48/305 332/45/306 334/46/308 333/49/307
f 332/45/306 335/44/309 337/47/311 334/46/308
f 333/49/307 334/46/308 347/50/321 348/52/322
f 334/46/308 337/47/311 346/51/320 347/50/321
f 335/44/309 336/56/310 338/57/312 337/47/311
f 336/56/310 323/44/297 325/47/299 338/57/312
f 337/47/311 338/57/312 343/58/317 346/51/320
f 338/57/312 325/47/299 340/51/314 343/58/317
f 335/44/309 332/45/306 339/59/313 336/56/310
f 332/45/306 331/48/305 328/53/323 339/59/313
f 336/56/310 339/59/313 324/45/298 323/44/297
f 339/59/313 328/53/323 327/48/301 324/45/298
f 340/51/314 341/50/315 344/60/318 343/58/317
f 341/50/315 342/52/316 345/55/319 344/60/318
f 343/58/317 344/60/318 347/50/321 346/51/320
f 344/60/318 345/55/319 348/52/322 347/50/321
f 349/27/219 350/28/220 352/29/222 351/30/221
f 350/28/220 353/31/223 355/32/225 352/29/222
f 351/30/221 352/29/222 367/33/237 366/34/236
f 352/29/222 355/32/225 368/35/238 367/33/237
f 353/31/223 354/36/224 356/37/226 355/32/225
f 354/36/224 357/31/227 359/32/229 356/37/226
f 355/32/225 356/37/226 371/38/241 368/35/238
f 356/37/226 359/32/229 374/35/244 371/38/241
f 357/31/227 358/28/228 360/29/230 359/32/229
f 358/28/228 361/27/231 363/30/233 360/29/230
f 359/32/229 360/29/230 373/33/243 374/35/244
f 360/29/230 363/30/233 372/34/242 373/33/243
f 361/27/231 362/39/232 364/40/234 363/30/233
f 362/39/232 349/27/219 351/30/221 364/40/234
f 363/30/233 364/40/234 369/41/239 372/34/242
f 364/40/234 351/30/221 366/34/236 369/41/239
f 361/27/231 358/28/228 365/42/235 362/39/232
f 358/28/228 357/31/227 354/36/224 365/42/235
f 362/39/232 365/42/235 350/28/220 349/27/219
f 365/42/235 354/36/224 353/31/223 350/28/220
f 366/34/236 367/33/237 370/43/240 369/41/239
f 367/33/237 368/35/238 371/38/241 370/43/240
f 369/41/239 370/43/240 373/33/243 372/34/242
f 370/43/240 371/38/241 374/35/244 373/33/243
