# Blender 5.0.1
# www.blender.org
o GEO_RoadStraightTile
v -7.141741 -2.013760 -8.000000
v -4.858259 -2.013760 -8.000000
v -4.858259 -2.013760 -4.000000
v -7.920600 -0.013760 -4.165948
v -7.834052 -0.013760 -4.079400
v -7.895251 -0.013760 -4.104749
v -7.141741 -2.013760 -4.000000
v -4.025485 -2.013760 -4.025485
v -4.087011 -2.013760 -4.000000
v -7.834052 -0.013760 -7.920600
v -7.920600 -0.013760 -7.834052
v -7.895251 -0.013760 -7.895251
v -4.000000 -2.013760 -4.087011
v -4.025485 -2.013760 -7.974515
v -4.000000 -2.013760 -7.912989
v -4.165948 -0.013760 -4.079400
v -4.079400 -0.013760 -4.165948
v -4.104749 -0.013760 -4.104749
v -4.087011 -2.013760 -8.000000
v -7.974515 -2.013760 -7.974515
v -7.912989 -2.013760 -8.000000
v -4.079400 -0.013760 -7.834052
v -4.165948 -0.013760 -7.920600
v -4.104749 -0.013760 -7.895251
v -7.912989 -0.120803 -4.000000
v -8.000000 -0.120803 -4.087011
v -7.974515 -0.120803 -4.025485
v -8.000000 -0.120803 -7.912989
v -7.912989 -0.120803 -8.000000
v -7.974515 -0.120803 -7.974515
v -4.087011 -0.120803 -8.000000
v -4.000000 -0.120803 -7.912989
v -4.025485 -0.120803 -7.974515
v -4.000000 -0.120803 -4.087011
v -4.087011 -0.120803 -4.000000
v -4.025485 -0.120803 -4.025485
v -7.969804 -0.067282 -4.116569
v -7.883431 -0.067282 -4.030196
v -7.944506 -0.067282 -4.055494
v -7.969804 -0.067282 -7.883431
v -7.883431 -0.067282 -7.969804
v -7.944506 -0.067282 -7.944506
v -4.116569 -0.067282 -7.969804
v -4.030196 -0.067282 -7.883431
v -4.055494 -0.067282 -7.944506
v -4.030196 -0.067282 -4.116569
v -4.116569 -0.067282 -4.030196
v -4.055494 -0.067282 -4.055494
v -7.834053 -0.013760 -7.834052
v -7.834053 -0.013760 -4.165948
v -4.165948 -0.013760 -7.834052
v -4.165948 -0.013760 -4.165948
v -8.000000 -2.013760 -7.912989
v -7.974515 -2.013760 -4.025485
v -7.141741 -0.120803 -4.000000
v -4.858259 -0.120803 -4.000000
v -4.731399 -0.067282 -4.030196
v -7.268601 -0.067282 -4.030196
v -7.268601 -0.013760 -4.079400
v -4.731399 -0.013760 -4.079400
v -4.731399 -0.013760 -7.920600
v -7.268601 -0.013760 -7.920600
v -8.000000 -2.013760 -4.087011
v -7.912989 -2.013760 -4.000000
v -4.858259 -0.120803 -8.000000
v -7.141741 -0.120803 -8.000000
v -7.268601 -0.067282 -7.969804
v -4.731399 -0.067282 -7.969804
v -7.268601 -0.013760 -7.834052
v -4.731399 -0.013760 -7.834052
v -4.731399 -0.013760 -4.165948
v -7.268601 -0.013760 -4.165948
v -4.858259 -0.120803 -7.904935
v -7.141741 -0.120803 -7.904935
v -4.858259 -0.120803 -4.094089
v -7.141741 -0.120803 -4.094089
v -7.141741 -0.120803 -4.165948
v -4.858259 -0.120803 -4.165948
v -4.858259 -0.120803 -7.834052
v -7.141741 -0.120803 -7.834052
v -7.141741 -2.013760 -7.912989
v -4.858259 -2.013760 -7.912989
v -7.141741 -2.013760 -4.087011
v -4.858259 -2.013760 -4.087011
v -7.912989 -2.013760 -4.087011
v -7.912989 -2.013760 -7.912989
v -4.087011 -2.013760 -7.912989
v -4.087011 -2.013760 -4.087011
vn -0.1438 0.6401 0.7547
vn -0.0910 0.7182 0.6899
vn -0.2447 0.7689 0.5908
vn -0.2845 0.6689 0.6868
vn -0.6868 0.6689 0.2845
vn -0.5908 0.7689 0.2447
vn -0.6899 0.7182 0.0910
vn -0.7547 0.6401 0.1438
vn -0.0000 0.0626 0.9980
vn -0.2031 0.2837 0.9372
vn -0.1951 -0.0000 0.9808
vn -0.0000 -0.0000 1.0000
vn 0.9372 0.2837 -0.2031
vn 0.9372 0.2837 0.2031
vn 0.9808 -0.0000 0.1951
vn 0.9808 -0.0000 -0.1951
vn -0.2031 0.2837 -0.9372
vn -0.0000 0.0626 -0.9980
vn -0.0000 -0.0000 -1.0000
vn -0.1951 -0.0000 -0.9808
vn -0.6731 0.3064 0.6731
vn -0.7071 -0.0000 0.7071
vn -0.6731 0.3064 -0.6731
vn -0.7071 -0.0000 -0.7071
vn 0.2031 0.2837 0.9372
vn 0.1951 -0.0000 0.9808
vn 0.6731 0.3064 -0.6731
vn 0.7071 -0.0000 -0.7071
vn -0.1438 0.6401 -0.7547
vn -0.2845 0.6689 -0.6868
vn -0.6868 0.6689 -0.2845
vn -0.9372 0.2837 -0.2031
vn -0.7547 0.6401 -0.1438
vn 0.7547 0.6401 -0.1438
vn 0.6868 0.6689 -0.2845
vn 0.2845 0.6689 -0.6868
vn 0.2031 0.2837 -0.9372
vn 0.1438 0.6401 -0.7547
vn 0.1438 0.6401 0.7547
vn 0.6731 0.3064 0.6731
vn 0.2845 0.6689 0.6868
vn 0.6868 0.6689 0.2845
vn 0.7547 0.6401 0.1438
vn -0.9372 0.2837 0.2031
vn -0.0910 0.7182 -0.6899
vn -0.2447 0.7689 -0.5908
vn -0.5908 0.7689 -0.2447
vn -0.6899 0.7182 -0.0910
vn 0.6899 0.7182 -0.0910
vn 0.5908 0.7689 -0.2447
vn 0.2447 0.7689 -0.5908
vn 0.0910 0.7182 -0.6899
vn 0.0910 0.7182 0.6899
vn 0.2447 0.7689 0.5908
vn 0.5908 0.7689 0.2447
vn 0.6899 0.7182 0.0910
vn -0.0000 1.0000 -0.0000
vn 0.5886 0.7972 0.1343
vn 0.4962 0.8134 0.3038
vn 0.5832 0.7992 0.1455
vn 0.4974 0.8133 -0.3017
vn 0.5888 0.7971 -0.1340
vn 0.5840 0.7989 -0.1439
vn 0.7071 -0.0000 0.7071
vn -0.6449 0.7643 -0.0000
vn -0.5888 0.7971 -0.1340
vn -0.5840 0.7989 -0.1439
vn -0.9808 -0.0000 -0.1951
vn -0.9808 -0.0000 0.1951
vn -0.0000 0.5632 0.8263
vn -0.0000 0.6768 0.7362
vn -0.0000 0.6768 -0.7362
vn -0.0000 0.5632 -0.8263
vn 0.1951 -0.0000 -0.9808
vn -0.4962 0.8134 0.3038
vn -0.5886 0.7972 0.1343
vn -0.5832 0.7992 0.1455
vn 0.6449 0.7643 -0.0000
vn -0.4974 0.8133 -0.3017
vn -0.0000 -1.0000 -0.0000
vt 0.129396 0.542217
vt 0.129422 0.542907
vt 0.129435 0.542907
vt 0.129409 0.542217
vt 0.129468 0.542907
vt 0.129441 0.542217
vt 0.129379 0.541526
vt 0.131458 0.541526
vt 0.129426 0.541526
vt 0.292084 0.638354
vt 0.131504 0.541526
vt 0.129393 0.541526
vt 0.131491 0.541526
vt 0.131488 0.542217
vt 0.131475 0.542217
vt 0.131443 0.542217
vt 0.131462 0.542907
vt 0.131449 0.542907
vt 0.131416 0.542907
vt 0.129429 0.541526
vt 0.131454 0.541526
vt 0.292172 0.638354
vt 0.292169 0.638354
vt 0.131416 0.541526
vt 0.292177 0.638354
vt 0.291992 0.638354
vt 0.291996 0.638354
vt 0.129468 0.541526
vt 0.291999 0.638354
vt 0.129841 0.541510
vt 0.129841 0.541529
vt 0.129844 0.541523
vt 0.129845 0.541510
vt 0.291977 0.639103
vt 0.291977 0.639138
vt 0.292192 0.639138
vt 0.292192 0.639103
vt 0.129649 0.541510
vt 0.129649 0.541529
vt 0.129688 0.541529
vt 0.129688 0.541510
vt 0.291977 0.637571
vt 0.291977 0.637605
vt 0.292192 0.637605
vt 0.292192 0.637571
vt 0.129841 0.540694
vt 0.129841 0.540712
vt 0.129845 0.540712
vt 0.129844 0.540699
vt 0.129649 0.540694
vt 0.129649 0.540712
vt 0.129688 0.540712
vt 0.129688 0.540694
vt 0.129802 0.540712
vt 0.129802 0.541510
vt 0.129802 0.541529
vt 0.129802 0.540694
vt 0.129645 0.540712
vt 0.129645 0.541510
vt 0.129646 0.540699
vt 0.129646 0.541523
s 1
f 38/1/1 5/2/2 6/3/3 39/4/4
f 39/4/5 6/3/6 4/5/7 37/6/8
f 55/7/9 25/7/10 64/7/11 7/7/12
f 32/8/13 34/9/14 13/9/15 15/8/16
f 56/10/9 55/10/9 7/10/12 3/10/12
f 29/11/17 66/11/18 1/11/19 21/11/20
f 25/7/10 27/12/21 54/12/22 64/7/11
f 30/13/23 29/11/17 21/11/20 20/13/24
f 35/7/25 56/7/9 3/7/12 9/7/26
f 33/13/27 32/8/13 15/8/16 14/13/28
f 41/14/29 29/11/17 30/13/23 42/15/30
f 42/15/31 30/13/23 28/8/32 40/16/33
f 44/16/34 32/8/13 33/13/27 45/15/35
f 45/15/36 33/13/27 31/11/37 43/14/38
f 47/1/39 35/7/25 36/12/40 48/4/41
f 48/4/42 36/12/40 34/9/14 46/6/43
f 25/7/10 38/1/1 39/4/4 27/12/21
f 27/12/21 39/4/5 37/6/8 26/9/44
f 10/17/45 41/14/29 42/15/30 12/18/46
f 12/18/47 42/15/31 40/16/33 11/19/48
f 22/19/49 44/16/34 45/15/35 24/18/50
f 24/18/51 45/15/36 43/14/38 23/17/52
f 16/2/53 47/1/39 48/4/41 18/3/54
f 18/3/55 48/4/42 46/6/43 17/5/56
f 49/19/57 10/17/57 12/18/57 11/19/57
f 5/2/57 50/5/57 4/5/57 6/3/57
f 22/19/57 24/18/57 23/17/57 51/19/57
f 18/3/57 17/5/57 52/5/57 16/2/57
f 59/2/58 58/1/59 55/7/59 76/20/60
f 66/11/61 67/14/61 62/17/62 74/21/63
f 73/22/57 74/22/57 80/23/57 79/23/57
f 36/12/40 35/7/25 9/7/26 8/12/64
f 70/19/65 61/17/66 73/21/67 79/24/65
f 66/25/18 65/25/18 2/25/19 1/25/19
f 26/9/44 28/8/32 53/8/68 63/9/69
f 28/8/32 30/13/23 20/13/24 53/8/68
f 55/7/9 58/1/70 38/1/1 25/7/10
f 35/7/25 47/1/39 57/1/70 56/7/9
f 47/1/39 16/2/53 60/2/71 57/1/70
f 58/1/70 59/2/71 5/2/2 38/1/1
f 59/2/57 72/5/57 50/5/57 5/2/57
f 16/2/57 52/5/57 71/5/57 60/2/57
f 41/14/29 10/17/45 62/17/72 67/14/73
f 69/19/57 62/17/57 10/17/57 49/19/57
f 68/14/73 61/17/72 23/17/52 43/14/38
f 51/19/57 23/17/57 61/17/57 70/19/57
f 27/12/21 26/9/44 63/9/69 54/12/22
f 31/11/37 33/13/27 14/13/28 19/11/74
f 65/11/18 68/14/73 43/14/38 31/11/37
f 29/11/17 41/14/29 67/14/73 66/11/18
f 55/26/57 56/26/57 75/27/57 76/27/57
f 57/1/75 60/2/76 75/20/77 56/7/75
f 72/5/78 59/2/58 76/20/60 77/28/78
f 76/27/57 75/27/57 78/29/57 77/29/57
f 65/25/57 66/25/57 74/22/57 73/22/57
f 60/2/76 71/5/65 78/28/65 75/20/77
f 61/17/66 68/14/79 65/11/79 73/21/67
f 74/21/63 62/17/62 69/19/78 80/24/78
f 71/5/65 70/19/65 79/24/65 78/28/65
f 72/5/57 69/19/57 49/19/57 50/5/57
f 52/5/57 51/19/57 70/19/57 71/5/57
f 69/19/78 72/5/78 77/28/78 80/24/78
f 80/23/57 77/29/57 78/29/57 79/23/57
f 17/5/57 22/19/57 51/19/57 52/5/57
f 50/5/57 49/19/57 11/19/57 4/5/57
f 44/16/34 46/6/43 34/9/14 32/8/13
f 37/6/8 40/16/33 28/8/32 26/9/44
f 22/19/49 17/5/56 46/6/43 44/16/34
f 34/9/14 36/12/40 8/12/64 13/9/15
f 4/5/7 11/19/48 40/16/33 37/6/8
f 65/11/18 31/11/37 19/11/74 2/11/19
f 85/30/80 64/31/80 54/32/80 63/33/80
f 84/34/80 3/35/80 7/36/80 83/37/80
f 88/38/80 9/39/80 3/40/80 84/41/80
f 2/42/80 82/43/80 81/44/80 1/45/80
f 21/46/80 86/47/80 53/48/80 20/49/80
f 19/50/80 87/51/80 82/52/80 2/53/80
f 82/43/80 84/34/80 83/37/80 81/44/80
f 86/47/80 85/30/80 63/33/80 53/48/80
f 87/51/80 88/38/80 84/41/80 82/52/80
f 81/54/80 83/55/80 85/30/80 86/47/80
f 83/55/80 7/56/80 64/31/80 85/30/80
f 1/57/80 81/54/80 86/47/80 21/46/80
f 15/58/80 13/59/80 88/38/80 87/51/80
f 14/60/80 15/58/80 87/51/80 19/50/80
f 13/59/80 8/61/80 9/39/80 88/38/80
