# Blender 5.0.1
# www.blender.org
o GEO_RiverTriadTile
v -18.000000 -2.013760 -16.000000
v -16.000000 -2.013760 -19.151173
v -16.000000 -2.013760 -16.848827
v -19.920601 -0.013760 -16.165947
v -19.834053 -0.013760 -16.079399
v -19.895250 -0.013760 -16.104750
v -20.000000 -2.013760 -16.848827
v -20.000000 -2.013760 -19.151173
v -19.151173 -2.013760 -20.000000
v -19.834053 -0.013760 -19.920601
v -19.920601 -0.013760 -19.834053
v -19.895250 -0.013760 -19.895250
v -16.848827 -2.013760 -20.000000
v -16.025486 -2.013760 -16.025486
v -16.087011 -2.013760 -16.000000
v -16.165947 -0.013760 -16.079399
v -16.079399 -0.013760 -16.165947
v -16.104750 -0.013760 -16.104750
v -16.000000 -2.013760 -16.087011
v -16.025486 -2.013760 -19.974514
v -16.000000 -2.013760 -19.912989
v -16.079399 -0.013760 -19.834053
v -16.165947 -0.013760 -19.920601
v -16.104750 -0.013760 -19.895250
v -19.912989 -0.120803 -16.000000
v -20.000000 -0.120803 -16.087011
v -19.974514 -0.120803 -16.025486
v -20.000000 -0.120803 -19.912989
v -19.912989 -0.120803 -20.000000
v -19.974514 -0.120803 -19.974514
v -16.087011 -0.120803 -20.000000
v -16.000000 -0.120803 -19.912989
v -16.025486 -0.120803 -19.974514
v -16.000000 -0.120803 -16.087011
v -16.087011 -0.120803 -16.000000
v -16.025486 -0.120803 -16.025486
v -19.969803 -0.067282 -16.116570
v -19.883430 -0.067282 -16.030197
v -19.944506 -0.067282 -16.055494
v -19.969803 -0.067282 -19.883430
v -19.883430 -0.067282 -19.969803
v -19.944506 -0.067282 -19.944506
v -16.116570 -0.067282 -19.969803
v -16.030197 -0.067282 -19.883430
v -16.055494 -0.067282 -19.944506
v -16.030197 -0.067282 -16.116570
v -16.116570 -0.067282 -16.030197
v -16.055494 -0.067282 -16.055494
v -19.834053 -0.013760 -19.834053
v -19.834053 -0.013760 -16.165947
v -16.165947 -0.013760 -19.834053
v -16.165947 -0.013760 -16.165947
v -16.848827 -0.086950 -19.151173
v -19.151173 -0.086950 -19.151173
v -16.081444 -0.086950 -16.848827
v -16.081444 -0.086950 -19.151173
v -19.904577 -0.086950 -19.151173
v -16.848827 -0.086950 -19.834053
v -19.151173 -0.086950 -19.834053
v -16.734921 -0.013760 -19.920601
v -19.271309 -0.013760 -19.920601
v -16.087011 -2.013760 -20.000000
v -19.974514 -2.013760 -19.974514
v -16.848827 -0.086950 -20.000000
v -19.151173 -0.086950 -20.000000
v -19.218775 -0.067282 -19.969803
v -16.783083 -0.067282 -19.969803
v -19.271311 -0.013760 -19.834053
v -16.734921 -0.013760 -19.834053
v -19.912989 -2.013760 -20.000000
v -20.000000 -2.013760 -19.912989
v -20.000000 -0.086950 -19.151173
v -20.000000 -0.086950 -16.848827
v -19.969803 -0.067282 -16.778484
v -19.969803 -0.067282 -19.221392
v -19.920601 -0.013760 -19.250946
v -19.920601 -0.013760 -16.717396
v -16.079399 -0.013760 -16.717396
v -16.079399 -0.013760 -19.250946
v -19.974514 -2.013760 -16.025486
v -20.000000 -2.013760 -16.087011
v -16.000000 -0.086950 -16.848827
v -16.000000 -0.086950 -19.151173
v -16.030197 -0.067282 -19.221392
v -16.030197 -0.067282 -16.778484
v -19.834053 -0.013760 -19.250946
v -19.834053 -0.013760 -16.717396
v -16.165947 -0.013760 -16.717396
v -16.165947 -0.013760 -19.250946
v -19.271309 -0.013760 -19.250946
v -16.734921 -0.013760 -19.250946
v -16.165947 -0.086950 -19.151173
v -16.165947 -0.086950 -16.848827
v -19.904577 -0.086950 -16.848827
v -19.834053 -0.086950 -16.848827
v -19.834053 -0.086950 -19.151173
v -19.912989 -2.013760 -16.000000
v -18.000000 -0.120803 -16.000000
v -18.000000 -0.067282 -16.030197
v -18.000000 -0.013760 -16.079399
v -18.000000 -0.013760 -16.165947
v -18.000000 -0.013760 -16.717396
v -18.000000 -0.086950 -16.848827
v -18.000000 -2.013760 -16.848827
v -18.000000 -2.013760 -19.151173
v -16.087011 -2.013760 -16.848827
v -16.087011 -2.013760 -19.151173
v -16.087011 -2.013760 -19.912989
v -18.000000 -2.013760 -16.087011
v -19.126133 -2.013760 -19.912989
v -16.873867 -2.013760 -19.912989
v -16.087011 -2.013760 -16.087011
v -19.912989 -2.013760 -16.087011
v -19.912989 -2.013760 -16.848827
v -19.912989 -2.013760 -19.151173
v -19.912989 -2.013760 -19.912989
vn -0.1438 0.6401 0.7547
vn -0.0910 0.7182 0.6899
vn -0.2447 0.7689 0.5908
vn -0.2845 0.6689 0.6868
vn -0.6868 0.6689 0.2845
vn -0.5908 0.7689 0.2447
vn -0.6899 0.7182 0.0910
vn -0.7171 0.6812 0.1476
vn -0.2031 0.2837 0.9372
vn -0.6731 0.3064 0.6731
vn -0.7071 -0.0000 0.7071
vn -0.1951 -0.0000 0.9808
vn -0.9959 0.0902 -0.0021
vn -0.9280 0.3093 -0.2075
vn -0.9808 -0.0000 -0.1951
vn -1.0000 -0.0000 -0.0000
vn 0.9959 0.0902 -0.0021
vn 0.9959 0.0901 0.0021
vn 1.0000 -0.0000 -0.0000
vn -0.2075 0.3094 -0.9280
vn -0.0022 0.0927 -0.9957
vn -0.0000 -0.0000 -1.0000
vn -0.1951 -0.0000 -0.9808
vn -0.6731 0.3064 -0.6731
vn -0.7071 -0.0000 -0.7071
vn 0.9280 0.3093 0.2075
vn 0.9808 -0.0000 0.1951
vn 0.6731 0.3064 -0.6731
vn 0.9280 0.3093 -0.2075
vn 0.9808 -0.0000 -0.1951
vn 0.7071 -0.0000 -0.7071
vn 0.6731 0.3064 0.6731
vn 0.2031 0.2837 0.9372
vn 0.1951 -0.0000 0.9808
vn 0.7071 -0.0000 0.7071
vn -0.1475 0.6813 -0.7170
vn -0.2845 0.6689 -0.6868
vn -0.6868 0.6689 -0.2845
vn -0.7171 0.6812 -0.1476
vn 0.7171 0.6812 -0.1476
vn 0.6868 0.6689 -0.2845
vn 0.2845 0.6689 -0.6868
vn 0.2075 0.3095 -0.9280
vn 0.1475 0.6813 -0.7169
vn 0.1438 0.6401 0.7547
vn 0.2845 0.6689 0.6868
vn 0.6868 0.6689 0.2845
vn 0.7171 0.6812 0.1476
vn -0.9280 0.3093 0.2075
vn -0.0910 0.7182 -0.6899
vn -0.2447 0.7689 -0.5908
vn -0.5908 0.7689 -0.2447
vn -0.6899 0.7182 -0.0910
vn 0.6899 0.7182 -0.0910
vn 0.5908 0.7689 -0.2447
vn 0.2447 0.7689 -0.5908
vn 0.0910 0.7182 -0.6899
vn 0.0910 0.7182 0.6899
vn 0.2447 0.7689 0.5908
vn 0.5908 0.7689 0.2447
vn 0.6899 0.7182 0.0910
vn -0.0000 0.2540 0.9672
vn -0.0000 -0.0000 1.0000
vn -0.0000 1.0000 -0.0000
vn 0.5203 0.8540 -0.0000
vn 0.5047 0.8626 -0.0358
vn 0.5460 0.8363 -0.0506
vn -0.0000 0.5880 0.8089
vn -0.0000 0.6768 0.7362
vn 0.0997 0.8606 0.4995
vn -0.0000 0.9629 0.2697
vn 0.2958 0.8417 0.4517
vn -0.9959 0.0901 0.0021
vn -0.9808 -0.0000 0.1951
vn 0.0022 0.0946 -0.9955
vn -0.0000 0.6768 -0.7362
vn -0.0111 0.6438 -0.7651
vn 0.0109 0.6444 -0.7646
vn 0.1951 -0.0000 -0.9808
vn -0.7636 0.6456 -0.0104
vn -0.7660 0.6428 0.0113
vn -0.7362 0.6768 -0.0000
vn 0.7362 0.6768 -0.0000
vn 0.7636 0.6456 -0.0104
vn 0.7660 0.6428 0.0113
vn -0.5255 0.8500 -0.0374
vn -0.5406 0.8413 -0.0000
vn -0.5677 0.8216 -0.0524
vn 0.2794 0.9602 -0.0000
vn 0.4268 0.9030 -0.0499
vn 0.5697 0.8156 -0.1011
vn -0.5926 0.7986 -0.1046
vn -0.4398 0.8967 -0.0507
vn -0.2866 0.9580 -0.0000
vn -0.0000 0.8737 -0.4865
vn -0.0594 0.8981 -0.4357
vn -0.0908 0.8653 -0.4929
vn -0.0000 0.8063 0.5915
vn 0.1589 0.7945 0.5861
vn 0.0652 0.9039 -0.4227
vn 0.0895 0.8696 -0.4856
vn 0.2143 0.8890 -0.4047
vn -0.0900 0.8493 0.5201
vn -0.1627 0.7829 0.6005
vn -0.2512 0.8460 0.4703
vn -0.0000 0.9631 -0.2693
vn -0.1778 0.8925 -0.4145
vn -0.0000 -1.0000 -0.0000
vt 0.133545 0.541385
vt 0.133591 0.542907
vt 0.133534 0.542907
vt 0.133488 0.541385
vt 0.133510 0.542907
vt 0.133464 0.541385
vt 0.133517 0.539863
vt 0.133460 0.539863
vt 0.133436 0.539863
vt 0.117844 0.874393
vt 0.134229 0.539863
vt 0.137172 0.539863
vt 0.137149 0.539863
vt 0.137091 0.539863
vt 0.137144 0.541385
vt 0.137121 0.541385
vt 0.137063 0.541385
vt 0.137098 0.542907
vt 0.137075 0.542907
vt 0.137017 0.542907
vt 0.135304 0.539863
vt 0.134117 0.542907
vt 0.117840 0.874393
vt 0.135304 0.541385
vt 0.135304 0.542907
vt 0.137096 0.539863
vt 0.117712 0.874393
vt 0.117808 0.874393
vt 0.134166 0.541385
vt 0.136441 0.541385
vt 0.136486 0.542907
vt 0.136379 0.539863
vt 0.117677 0.874393
vt 0.133591 0.539863
vt 0.133525 0.539863
vt 0.137017 0.539863
vt 0.117837 0.874393
vt 0.117681 0.874393
vt 0.117684 0.874393
vt 0.117760 0.874393
vt 0.135901 0.540649
vt 0.135890 0.540649
vt 0.135893 0.540685
vt 0.135901 0.540700
vt 0.135901 0.538824
vt 0.136143 0.538824
vt 0.136143 0.538370
vt 0.135901 0.538370
vt 0.136386 0.538824
vt 0.136143 0.540195
vt 0.136386 0.540195
vt 0.136397 0.538824
vt 0.136397 0.538370
vt 0.136386 0.538370
vt 0.136286 0.540649
vt 0.136000 0.540649
vt 0.135997 0.540700
vt 0.136289 0.540700
vt 0.136397 0.540649
vt 0.136386 0.540649
vt 0.136386 0.540700
vt 0.136393 0.540685
vt 0.136397 0.540195
vt 0.135901 0.540195
vt 0.135901 0.538318
vt 0.135893 0.538334
vt 0.135890 0.538370
vt 0.136386 0.538318
vt 0.136143 0.538318
vt 0.135890 0.538824
vt 0.135890 0.540195
vt 0.136393 0.538334
s 1
f 38/1/1 5/2/2 6/3/3 39/4/4
f 39/4/5 6/3/6 4/5/7 37/6/8
f 25/7/9 27/8/10 80/8/11 97/7/12
f 72/9/13 28/9/14 71/9/15 8/9/16
f 83/10/17 82/10/18 3/10/19 2/10/19
f 29/7/20 65/11/21 9/11/22 70/7/23
f 30/8/24 29/7/20 70/7/23 63/8/25
f 82/12/18 34/12/26 19/12/27 3/12/19
f 33/13/28 32/12/29 21/12/30 20/13/31
f 36/13/32 35/14/33 15/14/34 14/13/35
f 41/1/36 29/7/20 30/8/24 42/4/37
f 42/4/38 30/8/24 28/9/14 40/6/39
f 44/15/40 32/12/29 33/13/28 45/16/41
f 45/16/42 33/13/28 31/14/43 43/17/44
f 47/17/45 35/14/33 36/13/32 48/16/46
f 48/16/47 36/13/32 34/12/26 46/15/48
f 25/7/9 38/1/1 39/4/4 27/8/10
f 27/8/10 39/4/5 37/6/8 26/9/49
f 10/2/50 41/1/36 42/4/37 12/3/51
f 12/3/52 42/4/38 40/6/39 11/5/53
f 22/18/54 44/15/40 45/16/41 24/19/55
f 24/19/56 45/16/42 43/17/44 23/20/57
f 16/20/58 47/17/45 48/16/46 18/19/59
f 18/19/60 48/16/47 46/15/48 17/18/61
f 98/21/62 25/7/9 97/7/12 1/21/63
f 49/2/64 10/2/64 12/3/64 11/5/64
f 90/22/65 54/11/65 59/11/66 68/22/67
f 56/23/64 55/23/64 82/10/64 83/10/64
f 99/24/68 100/25/69 5/2/2 38/1/1
f 5/2/64 50/2/64 4/5/64 6/3/64
f 98/21/62 99/24/68 38/1/1 25/7/9
f 22/18/64 24/19/64 23/20/64 51/20/64
f 18/19/64 17/18/64 52/20/64 16/20/64
f 56/26/70 83/12/71 84/15/72
f 100/25/64 101/25/64 50/2/64 5/2/64
f 26/9/49 73/9/73 7/9/16 81/9/74
f 65/27/21 64/28/75 13/28/22 9/27/22
f 32/12/29 83/12/17 2/12/19 21/12/30
f 41/1/36 10/2/50 61/22/76 66/29/77
f 68/22/64 61/22/64 10/2/64 49/2/64
f 67/30/78 60/31/76 23/20/57 43/17/44
f 51/20/64 23/20/64 60/31/64 69/31/64
f 28/9/14 30/8/24 63/8/25 71/9/15
f 27/8/10 26/9/49 81/9/74 80/8/11
f 64/32/75 67/30/78 43/17/44 31/14/43
f 29/7/20 41/1/36 66/29/77 65/11/21
f 89/20/64 51/20/64 69/31/64 91/31/64
f 90/22/64 68/22/64 49/2/64 86/2/64
f 31/14/43 33/13/28 20/13/31 62/14/79
f 73/33/73 72/33/13 8/33/16 7/33/16
f 72/9/13 75/6/80 40/6/39 28/9/14
f 26/9/49 37/6/8 74/6/81 73/9/73
f 37/6/8 4/5/7 77/5/82 74/6/81
f 75/6/80 76/5/82 11/5/53 40/6/39
f 86/2/64 49/2/64 11/5/64 76/5/64
f 50/2/64 87/2/64 77/5/64 4/5/64
f 44/15/40 22/18/54 79/18/83 84/15/84
f 79/18/64 22/18/64 51/20/64 89/20/64
f 85/15/85 78/18/83 17/18/61 46/15/48
f 17/18/64 78/18/64 88/20/64 52/20/64
f 34/12/26 36/13/32 14/13/35 19/12/27
f 64/32/75 31/14/43 62/14/79 13/32/22
f 82/12/18 85/15/85 46/15/48 34/12/26
f 32/12/29 44/15/40 84/15/84 83/12/17
f 102/25/64 87/2/64 50/2/64 101/25/64
f 58/32/86 53/32/87 91/31/87 69/31/88
f 58/28/64 64/28/64 65/27/64 59/27/64
f 59/27/64 54/27/64 53/28/64 58/28/64
f 59/11/66 65/11/89 66/29/90
f 68/22/67 59/11/66 66/29/90 61/22/91
f 58/32/86 69/31/88 60/31/92 67/30/93
f 64/32/94 58/32/86 67/30/93
f 95/34/95 94/35/96 77/5/97 87/2/95
f 92/36/98 56/26/70 79/18/99 89/20/98
f 55/26/100 78/18/101 85/15/102
f 92/37/64 93/37/64 55/23/64 56/23/64
f 57/35/103 76/5/104 75/6/105
f 53/32/98 92/36/98 89/20/98 91/31/98
f 55/26/100 93/36/95 88/20/95 78/18/101
f 94/38/64 57/38/64 72/33/64 73/33/64
f 54/27/64 96/39/64 95/39/64 103/40/64
f 95/39/64 96/39/64 57/38/64 94/38/64
f 96/34/98 86/2/98 76/5/104 57/35/103
f 94/35/96 73/9/106 74/6/107
f 103/21/95 95/34/95 87/2/95 102/25/95
f 54/11/98 90/22/98 86/2/98 96/34/98
f 77/5/97 94/35/96 74/6/107
f 72/9/71 57/35/103 75/6/105
f 79/18/99 56/26/70 84/15/72
f 82/12/106 55/26/100 85/15/102
f 93/36/95 103/21/95 102/25/95 88/20/95
f 88/20/64 102/25/64 101/25/64 52/20/64
f 16/20/64 52/20/64 101/25/64 100/25/64
f 35/14/33 47/17/45 99/24/68 98/21/62
f 47/17/45 16/20/58 100/25/69 99/24/68
f 35/14/33 98/21/62 1/21/63 15/14/34
f 92/37/64 53/28/64 103/40/64 93/37/64
f 53/28/64 54/27/64 103/40/64
f 116/41/108 71/42/108 63/43/108 70/44/108
f 114/45/108 104/46/108 109/47/108 113/48/108
f 106/49/108 104/46/108 105/50/108 107/51/108
f 106/49/108 3/52/108 19/53/108 112/54/108
f 111/55/108 110/56/108 9/57/108 13/58/108
f 21/59/108 108/60/108 62/61/108 20/62/108
f 3/52/108 106/49/108 107/51/108 2/63/108
f 108/60/108 111/55/108 13/58/108 62/61/108
f 115/64/108 116/41/108 110/56/108 105/50/108
f 97/65/108 80/66/108 81/67/108 113/48/108
f 105/50/108 111/55/108 108/60/108 107/51/108
f 15/68/108 1/69/108 109/47/108 112/54/108
f 107/51/108 108/60/108 21/59/108 2/63/108
f 105/50/108 110/56/108 111/55/108
f 114/45/108 7/70/108 8/71/108 115/64/108
f 104/46/108 106/49/108 112/54/108 109/47/108
f 14/72/108 15/68/108 112/54/108 19/53/108
f 8/71/108 71/42/108 116/41/108 115/64/108
f 104/46/108 114/45/108 115/64/108 105/50/108
f 7/70/108 114/45/108 113/48/108 81/67/108
f 1/69/108 97/65/108 113/48/108 109/47/108
f 110/56/108 116/41/108 70/44/108 9/57/108
