# Blender 5.0.1
# www.blender.org
o GEO_PineTree_C
v -12.302533 0.000000 12.332237
v -12.332237 0.000000 12.302529
v -12.213581 0.531338 12.185245
v -12.183878 0.531118 12.214952
v -12.332237 0.000000 11.697463
v -12.302533 0.000000 11.667763
v -12.183877 0.533894 11.787798
v -12.213581 0.533728 11.817497
v -11.667763 0.000000 12.302529
v -11.697467 0.000000 12.332237
v -11.816122 0.531118 12.214952
v -11.786419 0.531338 12.185245
v -11.697467 0.000000 11.667763
v -11.667763 0.000000 11.697463
v -11.786419 0.533728 11.817497
v -11.816123 0.533894 11.787798
v -11.956947 1.854576 11.568794
v -11.703018 1.980443 11.711274
v -11.469025 1.822849 11.850759
v -11.448256 1.890128 12.137507
v -11.458895 1.723557 12.421789
v -11.687027 1.757050 12.617285
v -11.968596 1.697714 12.700969
v -12.221715 1.851866 12.595510
v -12.496422 1.859001 12.150680
v -12.452877 1.744897 12.422893
v -12.234033 1.894904 11.675481
v -12.460813 1.799182 11.852494
v -11.994514 2.939460 12.335095
v -11.994288 2.881635 12.268841
v -12.020818 2.881489 12.277027
v -12.041179 2.875839 12.295157
v -12.046931 2.872971 12.322228
v -12.040925 2.865411 12.348172
v -12.020264 2.865064 12.366556
v -11.994280 2.859211 12.374639
v -11.967617 2.861886 12.367146
v -11.947186 2.864072 12.348171
v -11.941136 2.871867 12.321983
v -11.947468 2.876000 12.295243
v -11.968243 2.883353 12.278293
v -12.178976 2.469178 12.135128
v -12.348579 2.149608 11.982143
v -12.186891 2.212082 11.861714
v -12.095599 2.499141 12.070701
v -12.193032 2.476769 12.245703
v -12.371656 2.178375 12.195399
v -12.177423 2.438016 12.345409
v -12.346142 2.098660 12.385920
v -12.089672 2.460875 12.411935
v -12.174057 2.160451 12.509622
v -11.991754 2.413886 12.451334
v -11.989265 2.060359 12.589015
v -11.890664 2.430601 12.418833
v -11.798197 2.098024 12.524467
v -11.806786 2.426149 12.346853
v -11.637521 2.080373 12.389167
v -11.789878 2.466843 12.244153
v -11.608477 2.160969 12.192911
v -11.808518 2.471223 12.137999
v -11.640121 2.156713 11.989612
v -11.897206 2.518361 12.083353
v -11.811842 2.257095 11.890025
v -11.995267 2.490652 12.032103
v -11.997414 2.187212 11.784861
v -11.963048 1.911595 11.997483
v -12.041928 1.877702 12.053622
v -12.052962 1.899527 12.156163
v -12.037315 1.857848 12.252545
v -11.963156 1.898741 12.305213
v -11.876921 1.844165 12.337063
v -11.786966 1.865198 12.306082
v -11.710775 1.852946 12.240180
v -11.699459 1.893974 12.152070
v -11.715803 1.887288 12.056314
v -11.789671 1.940243 12.007352
v -11.861368 1.897465 11.958795
v -12.261988 1.983867 11.675310
v -12.176489 1.867625 11.740118
v -12.376352 1.785670 11.887054
v -12.499008 1.885561 11.850367
v -12.529778 1.948157 12.161093
v -12.403773 1.839612 12.147066
v -12.369949 1.738360 12.381979
v -12.493267 1.826094 12.438284
v -12.162774 1.833563 12.526476
v -12.242984 1.936730 12.614885
v -11.944001 1.697991 12.619826
v -11.980025 1.771760 12.732824
v -11.710466 1.747355 12.539622
v -11.698968 1.830336 12.637818
v -11.518569 1.715530 12.375121
v -11.464559 1.792850 12.442005
v -11.520587 1.861547 12.134509
v -11.459668 1.961645 12.149526
v -11.525668 1.798860 11.896788
v -11.471169 1.898195 11.858590
v -11.725221 1.933363 11.779556
v -11.720726 2.062168 11.720832
v -11.986393 1.937216 11.562629
v -11.940193 1.828514 11.648883
v -11.359789 1.000779 12.490534
v -11.681296 1.156862 12.683298
v -12.025778 0.978763 12.797837
v -12.334162 1.124649 12.627153
v -12.649983 0.987426 12.376009
v -12.681442 1.099885 12.000157
v -12.568156 1.067163 11.628456
v -12.245952 1.271775 11.470149
v -11.571043 1.191883 11.499424
v -11.907008 1.103227 11.324852
v -11.260101 1.099525 12.127758
v -11.291388 1.040608 11.739465
v -11.942636 2.553122 12.226416
v -11.829981 2.321977 12.266169
v -11.807995 2.337161 12.200607
v -11.817670 2.344380 12.130691
v -11.865816 2.359942 12.080968
v -11.930811 2.359228 12.053648
v -11.998753 2.365232 12.071618
v -12.055719 2.348125 12.110284
v -12.078262 2.339530 12.176973
v -12.068424 2.323134 12.245686
v -12.020456 2.319794 12.298288
v -11.954789 2.311729 12.323585
v -11.886670 2.323893 12.308443
v -11.656036 1.931169 11.991795
v -11.458945 1.506425 11.846264
v -11.442531 1.531205 12.118961
v -11.643601 1.935199 12.153033
v -11.774256 1.986048 11.890389
v -11.661352 1.606813 11.678357
v -11.914433 1.965546 11.816769
v -11.893916 1.555727 11.549282
v -12.063170 2.009799 11.877753
v -12.142026 1.654035 11.660865
v -12.203001 1.940289 11.947287
v -12.379897 1.523877 11.773149
v -12.246428 1.934696 12.099907
v -12.448307 1.530780 12.030928
v -12.232698 1.886388 12.255582
v -12.428692 1.448854 12.292064
v -12.116115 1.901649 12.371008
v -12.230691 1.488850 12.482634
v -11.972927 1.871331 12.434040
v -11.993908 1.430609 12.592295
v -11.822701 1.931599 12.387328
v -11.744448 1.545415 12.507202
v -11.684412 1.891782 12.300791
v -11.507022 1.456302 12.367600
v -11.799473 1.169703 12.186788
v -11.804835 1.148817 12.055348
v -11.901547 1.203016 11.974807
v -12.020985 1.172321 11.912877
v -12.125770 1.231073 11.962947
v -12.231714 1.160351 12.019217
v -12.263034 1.170494 12.141515
v -12.252144 1.130808 12.266932
v -12.161641 1.159065 12.351255
v -12.049449 1.128893 12.401290
v -11.934909 1.189655 12.369838
v -11.836555 1.132551 12.319326
v -11.226060 1.211363 12.117505
v -11.375132 1.075266 12.136435
v -11.392732 1.023909 11.801370
v -11.248432 1.153566 11.718616
v -11.543931 1.314861 11.477024
v -11.639120 1.157060 11.596026
v -11.926577 1.077379 11.440966
v -11.881517 1.220690 11.288835
v -12.219843 1.223028 11.577823
v -12.237599 1.394179 11.454333
v -12.500828 1.045149 11.713078
v -12.582698 1.176951 11.609662
v -12.583412 1.069799 12.029086
v -12.683528 1.202825 11.989096
v -12.557333 0.971632 12.344769
v -12.657307 1.080733 12.369892
v -12.281248 1.096445 12.546453
v -12.327621 1.215949 12.622396
v -12.035491 0.965796 12.699681
v -12.021687 1.069936 12.805346
v -11.743737 1.119495 12.600426
v -11.665755 1.257545 12.676022
v -11.319540 1.100653 12.480709
v -11.460496 0.985407 12.445153
v -11.331941 0.206238 11.273863
v -11.138023 0.430827 11.719141
v -11.008513 0.186622 12.171063
v -11.280415 0.343728 12.555660
v -11.624452 0.127077 12.930323
v -12.125413 0.224591 12.930633
v -12.588547 0.153489 12.739879
v -12.780089 0.400940 12.311589
v -12.656202 0.340012 11.438395
v -12.909428 0.194710 11.849862
v -11.799730 0.303173 11.105967
v -12.297738 0.178603 11.099223
v -12.003716 2.153253 12.158689
v -11.888519 1.888659 11.981299
v -11.973002 1.898590 11.946247
v -12.064924 1.891945 11.949957
v -12.137221 1.893276 12.007180
v -12.179318 1.875396 12.086614
v -12.165363 1.874259 12.177207
v -12.118760 1.850119 12.253039
v -12.034309 1.848403 12.289965
v -11.941935 1.843284 12.284456
v -11.868625 1.858373 12.229813
v -11.827154 1.865122 12.147891
v -11.841385 1.889765 12.060300
v -12.142623 1.358592 11.666539
v -12.237997 0.800732 11.352881
v -11.888940 0.874539 11.367116
v -11.935209 1.393564 11.672097
v -12.296049 1.396538 11.812094
v -12.491902 0.890574 11.601657
v -12.402588 1.339621 11.980678
v -12.676703 0.787618 11.882398
v -12.349371 1.384674 12.185301
v -12.576123 0.901386 12.224094
v -12.263324 1.290284 12.366434
v -12.438984 0.733660 12.535254
v -12.071527 1.302287 12.441534
v -12.116075 0.769424 12.655538
v -11.861621 1.269835 12.438638
v -11.765835 0.705178 12.656205
v -11.703206 1.325051 12.305309
v -11.504158 0.801203 12.426744
v -11.600674 1.316724 12.125587
v -11.327652 0.763432 12.129841
v -11.654558 1.407188 11.933241
v -11.426105 0.926005 11.806543
v -11.742512 1.357619 11.738844
v -11.565304 0.805699 11.475065
v -11.793006 0.378141 11.813846
v -11.960593 0.334866 11.804414
v -12.081928 0.390735 11.922405
v -12.171610 0.337835 12.068344
v -12.126084 0.412305 12.212384
v -12.056924 0.323545 12.353032
v -11.903996 0.348522 12.408352
v -11.736294 0.313192 12.407377
v -11.620712 0.364252 12.301387
v -11.539856 0.337187 12.160810
v -11.574829 0.419386 12.011658
v -11.621854 0.343178 11.875828
v -11.822460 0.456575 11.065722
v -11.798806 0.266161 11.254951
v -12.227531 0.159287 11.237129
v -12.332420 0.329129 11.045045
v -12.697101 0.497766 11.406280
v -12.535231 0.302209 11.536458
v -12.758952 0.172777 11.887922
v -12.966436 0.338983 11.816652
v -12.632317 0.354115 12.288395
v -12.815283 0.548963 12.304954
v -12.469317 0.137556 12.661950
v -12.626873 0.282283 12.759898
v -12.073586 0.195413 12.806180
v -12.152083 0.347464 12.935832
v -11.652585 0.107560 12.806370
v -11.643564 0.241577 12.941905
v -11.375095 0.300343 12.476509
v -11.297196 0.461446 12.551034
v -11.134840 0.157421 12.171816
v -11.008747 0.310360 12.169994
v -11.247351 0.365565 11.788305
v -11.158564 0.568622 11.703844
v -11.351400 0.345632 11.224413
v -11.400239 0.175890 11.398464
vn -0.3897 0.2807 0.8771
vn -0.8768 0.2816 0.3899
vn -0.8992 0.2755 0.3398
vn -0.3401 0.2746 0.8994
vn -0.8766 0.2827 -0.3895
vn -0.3895 0.2836 -0.8763
vn -0.3399 0.2776 -0.8986
vn -0.8988 0.2766 -0.3400
vn 0.8768 0.2816 0.3899
vn 0.3897 0.2807 0.8771
vn 0.3401 0.2746 0.8994
vn 0.8992 0.2755 0.3398
vn 0.3895 0.2836 -0.8763
vn 0.8766 0.2827 -0.3895
vn 0.8988 0.2766 -0.3400
vn 0.3399 0.2776 -0.8986
vn 0.1322 -0.5705 -0.8106
vn 0.4948 -0.2484 -0.8328
vn 0.6497 -0.5641 -0.5096
vn 0.9304 -0.3603 -0.0675
vn 0.7192 -0.6603 0.2161
vn 0.4136 -0.6587 0.6285
vn -0.1392 -0.8132 0.5651
vn -0.4088 -0.6686 0.6212
vn -0.7102 -0.7012 -0.0629
vn -0.5001 -0.8151 0.2924
vn -0.3372 -0.5771 -0.7438
vn -0.5506 -0.7462 -0.3743
vn -0.0008 0.9806 0.1962
vn 0.0017 0.6264 -0.7795
vn -0.4404 0.6147 -0.6543
vn -0.7671 0.5417 -0.3436
vn -0.8772 0.4712 0.0923
vn -0.7645 0.3713 0.5270
vn -0.4340 0.3305 0.8381
vn -0.0029 0.2888 0.9574
vn 0.4397 0.3239 0.8377
vn 0.7641 0.3756 0.5244
vn 0.8771 0.4706 0.0964
vn 0.7659 0.5429 -0.3445
vn 0.4382 0.6223 -0.6486
vn -0.7732 0.5148 -0.3703
vn -0.7319 0.5851 -0.3492
vn -0.4292 0.6309 -0.6463
vn -0.4530 0.5514 -0.7005
vn -0.9081 0.4134 0.0673
vn -0.8489 0.5234 0.0738
vn -0.7758 0.3681 0.5125
vn -0.7372 0.4727 0.4828
vn -0.4546 0.2667 0.8498
vn -0.4164 0.4234 0.8046
vn 0.0098 0.2897 0.9571
vn 0.0332 0.4195 0.9071
vn 0.4565 0.2833 0.8434
vn 0.4245 0.4275 0.7982
vn 0.7759 0.3614 0.5170
vn 0.7214 0.4818 0.4974
vn 0.9065 0.4156 0.0745
vn 0.8390 0.5364 0.0919
vn 0.7782 0.5154 -0.3588
vn 0.7345 0.6074 -0.3028
vn 0.4544 0.5443 -0.7052
vn 0.4183 0.6493 -0.6352
vn -0.0071 0.5913 -0.8064
vn -0.0292 0.6585 -0.7520
vn 0.1043 -0.9909 0.0846
vn 0.2434 -0.9686 0.0515
vn 0.1691 -0.9797 -0.1078
vn 0.2918 -0.9456 -0.1440
vn -0.0036 -0.9629 -0.2699
vn -0.1227 -0.8666 -0.4836
vn -0.2157 -0.8991 -0.3809
vn -0.3127 -0.8588 -0.4059
vn -0.2369 -0.9592 -0.1541
vn -0.3655 -0.9295 0.0495
vn -0.1540 -0.9877 -0.0280
vn 0.2103 -0.9631 0.1679
vn -0.4896 0.3030 -0.8176
vn 0.0089 -0.9862 -0.1651
vn 0.0402 -0.9965 -0.0737
vn -0.8845 0.0684 -0.4614
vn -0.9840 0.1756 0.0295
vn -0.0447 -0.9943 -0.0965
vn 0.0776 -0.9956 -0.0533
vn -0.8666 -0.0566 0.4958
vn -0.0746 -0.9964 -0.0405
vn -0.4677 0.1772 0.8660
vn -0.1107 -0.9711 -0.2114
vn -0.0921 -0.0308 0.9953
vn -0.0239 -0.9922 -0.1221
vn 0.4730 0.1659 0.8653
vn 0.0131 -0.9615 -0.2746
vn 0.8418 0.1867 0.5065
vn 0.1160 -0.9823 -0.1472
vn 0.9140 0.4022 0.0533
vn -0.0303 -0.9929 -0.1151
vn 0.8351 0.3262 -0.4429
vn 0.1020 -0.9508 -0.2927
vn 0.4630 0.5057 -0.7279
vn -0.0318 0.2636 -0.9641
vn 0.1862 -0.9740 -0.1290
vn 0.5184 -0.7192 0.4627
vn 0.3611 -0.4551 0.8140
vn -0.0256 -0.6950 0.7186
vn -0.5153 -0.4437 0.7332
vn -0.6632 -0.6583 0.3559
vn -0.8248 -0.5529 -0.1186
vn -0.4689 -0.6763 -0.5681
vn -0.3534 -0.4846 -0.8002
vn 0.3866 -0.6398 -0.6642
vn -0.0426 -0.7031 -0.7098
vn 0.7274 -0.6849 0.0435
vn 0.5372 -0.7607 -0.3645
vn -0.0001 0.9851 0.1719
vn 0.7316 0.3598 0.5790
vn 0.8882 0.4351 0.1475
vn 0.8102 0.5016 -0.3033
vn 0.5116 0.5650 -0.6473
vn 0.0770 0.5821 -0.8094
vn -0.3768 0.5802 -0.7221
vn -0.7317 0.5231 -0.4370
vn -0.8879 0.4600 -0.0037
vn -0.8100 0.3833 0.4439
vn -0.5128 0.3317 0.7919
vn -0.0762 0.3004 0.9508
vn 0.3759 0.3204 0.8695
vn 0.8219 0.4682 -0.3244
vn 0.7841 0.5421 -0.3022
vn 0.8629 0.4898 0.1247
vn 0.9084 0.3968 0.1320
vn 0.5250 0.5055 -0.6847
vn 0.5039 0.5663 -0.6522
vn 0.0800 0.5373 -0.8396
vn 0.0928 0.5992 -0.7952
vn -0.3878 0.5140 -0.7652
vn -0.3685 0.5820 -0.7249
vn -0.7444 0.4864 -0.4574
vn -0.7163 0.5681 -0.4053
vn -0.9080 0.4185 -0.0212
vn -0.8579 0.5136 -0.0143
vn -0.8215 0.3683 0.4352
vn -0.7681 0.4891 0.4132
vn -0.5254 0.3073 0.7934
vn -0.4965 0.4384 0.7492
vn -0.0812 0.3022 0.9498
vn -0.0993 0.4542 0.8853
vn 0.3858 0.2874 0.8767
vn 0.3620 0.4249 0.8297
vn 0.7420 0.3519 0.5706
vn 0.7082 0.4777 0.5198
vn -0.2300 -0.9658 -0.1195
vn -0.2864 -0.9581 0.0096
vn -0.1161 -0.9924 0.0400
vn -0.1648 -0.9722 0.1666
vn 0.1130 -0.9935 -0.0155
vn 0.3729 -0.9275 0.0247
vn 0.3321 -0.9366 -0.1118
vn 0.4089 -0.8952 -0.1771
vn 0.1545 -0.9520 -0.2640
vn 0.0628 -0.8814 -0.4682
vn 0.0012 -0.9625 -0.2712
vn -0.3475 -0.9338 -0.0855
vn 0.9783 0.1774 0.1067
vn 0.0216 -0.9981 -0.0575
vn -0.0725 -0.9933 -0.0898
vn 0.8900 0.0465 -0.4536
vn 0.5624 0.2557 -0.7863
vn -0.0015 -0.9895 -0.1445
vn -0.1195 -0.9903 -0.0711
vn 0.0872 0.1073 -0.9904
vn -0.0424 -0.9758 -0.2145
vn -0.4118 0.3829 -0.8270
vn 0.1278 -0.9822 -0.1376
vn -0.7586 0.1671 -0.6297
vn -0.0029 -0.9936 -0.1133
vn -0.9549 0.2908 -0.0608
vn 0.1058 -0.9944 -0.0020
vn -0.8719 0.2159 0.4396
vn -0.0485 -0.9988 0.0078
vn -0.5177 0.3368 0.7864
vn -0.0008 -0.9919 -0.1273
vn -0.0819 0.1801 0.9802
vn 0.0686 -0.9951 0.0713
vn 0.3810 0.3214 0.8669
vn 0.8309 0.0797 0.5506
vn -0.1024 -0.9932 0.0555
vn 0.5688 -0.6552 -0.4971
vn 0.8868 -0.3511 -0.3005
vn 0.7745 -0.6291 0.0660
vn 0.7209 -0.3968 0.5682
vn 0.3559 -0.6472 0.6741
vn -0.1400 -0.5995 0.7880
vn -0.5382 -0.7426 0.3986
vn -0.7687 -0.5843 0.2602
vn -0.5717 -0.6797 -0.4596
vn -0.6434 -0.7643 -0.0433
vn 0.1687 -0.6412 -0.7486
vn -0.2497 -0.7673 -0.5906
vn -0.0000 0.9896 0.1438
vn 0.5743 0.5316 -0.6225
vn 0.1534 0.5632 -0.8119
vn -0.3050 0.5511 -0.7767
vn -0.6794 0.5256 -0.5119
vn -0.8806 0.4638 -0.0972
vn -0.8358 0.4139 0.3607
vn -0.5766 0.3579 0.7345
vn -0.1534 0.3380 0.9286
vn 0.3060 0.3399 0.8893
vn 0.6817 0.3779 0.6265
vn 0.8804 0.4258 0.2086
vn 0.8346 0.4938 -0.2440
vn -0.3081 0.4975 -0.8109
vn -0.2882 0.5495 -0.7842
vn 0.1457 0.5468 -0.8245
vn 0.1565 0.4952 -0.8546
vn -0.6957 0.4646 -0.5478
vn -0.6621 0.5275 -0.5323
vn -0.8913 0.4375 -0.1193
vn -0.8396 0.5263 -0.1341
vn -0.8587 0.3723 0.3521
vn -0.8104 0.4836 0.3309
vn -0.5794 0.3600 0.7312
vn -0.5187 0.4938 0.6979
vn -0.1550 0.3270 0.9322
vn -0.1431 0.4661 0.8731
vn 0.3099 0.3454 0.8858
vn 0.2875 0.4910 0.8223
vn 0.6963 0.3546 0.6241
vn 0.6492 0.4838 0.5869
vn 0.8911 0.4085 0.1976
vn 0.8219 0.5311 0.2058
vn 0.8582 0.4353 -0.2722
vn 0.8077 0.5288 -0.2608
vn 0.5804 0.4848 -0.6543
vn 0.5274 0.5596 -0.6393
vn -0.0565 -0.9784 0.1986
vn 0.0708 -0.9617 0.2647
vn 0.1124 -0.9891 0.0951
vn 0.2323 -0.9620 0.1436
vn 0.0811 -0.9871 -0.1380
vn 0.1330 -0.9142 -0.3828
vn -0.0014 -0.9340 -0.3574
vn -0.0563 -0.8966 -0.4393
vn -0.1637 -0.9661 -0.1997
vn -0.3836 -0.9136 -0.1351
vn -0.1809 -0.9820 -0.0534
vn -0.0293 -0.9453 0.3249
vn 0.1728 0.2296 -0.9578
vn 0.0317 -0.9980 -0.0553
vn -0.0078 -0.9992 0.0388
vn -0.3777 0.0427 -0.9250
vn -0.7560 0.2083 -0.6206
vn -0.0626 -0.9975 -0.0336
vn 0.0049 -0.9969 0.0784
vn -0.9846 0.0221 -0.1731
vn -0.1225 -0.9925 -0.0043
vn -0.8925 0.2836 0.3506
vn -0.0391 -0.9859 -0.1628
vn -0.7060 0.0805 0.7036
vn -0.0264 -0.9990 -0.0369
vn -0.1724 0.2475 0.9534
vn 0.0972 -0.9868 -0.1298
vn 0.3375 0.2248 0.9141
vn 0.0913 -0.9955 0.0267
vn 0.7005 0.3853 0.6007
vn -0.0343 -0.9985 -0.0434
vn 0.9492 0.2600 0.1775
vn 0.1825 -0.9789 -0.0917
vn 0.8631 0.4144 -0.2886
vn 0.6133 0.1621 -0.7730
vn 0.1408 -0.9864 0.0843
vt 0.432424 0.522146
vt 0.435768 0.559666
vt 0.434931 0.559666
vt 0.431587 0.522146
vt 0.435768 0.559666
vt 0.446970 0.559666
vt 0.450314 0.522146
vt 0.449477 0.522146
vt 0.446133 0.559666
vt 0.446133 0.559666
vt 0.533291 0.900158
vt 0.533291 0.900430
vt 0.533291 0.900273
vt 0.538046 0.899716
vt 0.538385 0.899111
vt 0.537528 0.899056
vt 0.533291 0.900115
vt 0.533291 0.900308
vt 0.533291 0.900273
vt 0.533291 0.900702
vt 0.533291 0.900587
vt 0.538269 0.899126
vt 0.534145 0.900009
vt 0.533291 0.900744
vt 0.533291 0.900500
vt 0.537622 0.899770
vt 0.533291 0.900570
vt 0.538350 0.900446
vt 0.533291 0.900587
vt 0.538142 0.901156
vt 0.538469 0.901767
vt 0.543562 0.901799
vt 0.544019 0.900461
vt 0.544857 0.900458
vt 0.544092 0.901873
vt 0.537819 0.901876
vt 0.538339 0.901749
vt 0.537665 0.901096
vt 0.542699 0.902646
vt 0.541536 0.902805
vt 0.533291 0.900552
vt 0.542026 0.899244
vt 0.542625 0.898229
vt 0.533291 0.900360
vt 0.542139 0.901630
vt 0.542525 0.900409
vt 0.538328 0.900418
vt 0.542530 0.900456
vt 0.541304 0.899334
vt 0.544934 0.897678
vt 0.543154 0.899069
vt 0.543636 0.898994
vt 0.545879 0.897453
vt 0.542453 0.898250
vt 0.542492 0.899194
vt 0.542907 0.899134
vt 0.541184 0.898142
vt 0.544906 0.903183
vt 0.542955 0.903160
vt 0.543537 0.903305
vt 0.545865 0.903408
vt 0.542449 0.897826
vt 0.543013 0.897685
vt 0.544884 0.900421
vt 0.542096 0.901657
vt 0.542430 0.901714
vt 0.545854 0.900425
vt 0.542515 0.902624
vt 0.541365 0.901533
vt 0.543887 0.897949
vt 0.544741 0.897755
vt 0.544252 0.902969
vt 0.545063 0.903157
vt 0.544118 0.898919
vt 0.546825 0.897228
vt 0.543577 0.897544
vt 0.545596 0.897561
vt 0.543324 0.899075
vt 0.545695 0.900454
vt 0.544622 0.901948
vt 0.545874 0.903345
vt 0.544118 0.903451
vt 0.546825 0.903632
vt 0.542765 0.901771
vt 0.546825 0.900430
vt 0.542629 0.899105
vt 0.544389 0.901974
vt 0.557651 0.861094
vt 0.557651 0.861366
vt 0.557651 0.861209
vt 0.560820 0.860652
vt 0.561047 0.860047
vt 0.560475 0.859993
vt 0.557651 0.861052
vt 0.557651 0.861244
vt 0.557651 0.861209
vt 0.557651 0.861638
vt 0.557651 0.861523
vt 0.560969 0.860062
vt 0.558220 0.860945
vt 0.557651 0.861680
vt 0.557651 0.861436
vt 0.560538 0.860706
vt 0.557651 0.861507
vt 0.561023 0.861382
vt 0.557651 0.861523
vt 0.560884 0.862092
vt 0.561102 0.862703
vt 0.564498 0.862735
vt 0.564803 0.861397
vt 0.565361 0.861394
vt 0.564851 0.862809
vt 0.560669 0.862812
vt 0.561016 0.862686
vt 0.560567 0.862032
vt 0.563922 0.863582
vt 0.563147 0.863742
vt 0.557651 0.861488
vt 0.563474 0.860180
vt 0.563873 0.859166
vt 0.557651 0.861296
vt 0.563549 0.862566
vt 0.563807 0.861346
vt 0.561009 0.861354
vt 0.563810 0.861392
vt 0.562992 0.860270
vt 0.565412 0.858615
vt 0.564226 0.860005
vt 0.564547 0.859930
vt 0.566043 0.858389
vt 0.563759 0.859186
vt 0.563784 0.860130
vt 0.564061 0.860071
vt 0.562912 0.859079
vt 0.565394 0.864119
vt 0.564093 0.864096
vt 0.564481 0.864242
vt 0.566033 0.864344
vt 0.563756 0.858762
vt 0.564132 0.858621
vt 0.565379 0.861357
vt 0.563520 0.862594
vt 0.563743 0.862651
vt 0.566026 0.861362
vt 0.563800 0.863560
vt 0.563033 0.862469
vt 0.564714 0.858886
vt 0.565284 0.858691
vt 0.564958 0.863905
vt 0.565498 0.864093
vt 0.564869 0.859856
vt 0.566673 0.858164
vt 0.564508 0.858480
vt 0.565853 0.858497
vt 0.564339 0.860011
vt 0.565920 0.861391
vt 0.565205 0.862884
vt 0.566039 0.864282
vt 0.564869 0.864387
vt 0.566673 0.864568
vt 0.563966 0.862707
vt 0.566673 0.861366
vt 0.563876 0.860042
vt 0.565049 0.862911
vt 0.557477 0.847183
vt 0.557501 0.846912
vt 0.557487 0.847069
vt 0.549544 0.846933
vt 0.548928 0.847487
vt 0.550347 0.847665
vt 0.557473 0.847225
vt 0.557501 0.846912
vt 0.557490 0.847034
vt 0.557487 0.847069
vt 0.557525 0.846641
vt 0.557515 0.846756
vt 0.549122 0.847488
vt 0.556047 0.847208
vt 0.557528 0.846599
vt 0.557507 0.846842
vt 0.550254 0.846941
vt 0.557513 0.846772
vt 0.549104 0.846162
vt 0.557515 0.846756
vt 0.549511 0.845485
vt 0.549021 0.844829
vt 0.540567 0.844057
vt 0.539692 0.845323
vt 0.538300 0.845204
vt 0.539694 0.843906
vt 0.550109 0.844814
vt 0.549235 0.844865
vt 0.550297 0.845613
vt 0.542075 0.843338
vt 0.544020 0.843348
vt 0.557512 0.846791
vt 0.542896 0.846825
vt 0.541813 0.847749
vt 0.557495 0.846982
vt 0.542915 0.844432
vt 0.542168 0.845591
vt 0.549137 0.846192
vt 0.542164 0.845544
vt 0.544102 0.846840
vt 0.537931 0.847962
vt 0.541007 0.846835
vt 0.540200 0.846840
vt 0.536341 0.848049
vt 0.542099 0.847753
vt 0.542118 0.846807
vt 0.541422 0.846806
vt 0.544198 0.848045
vt 0.538457 0.842482
vt 0.541694 0.842789
vt 0.540741 0.842559
vt 0.536883 0.842119
vt 0.542069 0.848176
vt 0.541121 0.848234
vt 0.538253 0.845238
vt 0.542989 0.844411
vt 0.542439 0.844305
vt 0.536642 0.845092
vt 0.542378 0.843387
vt 0.544192 0.844641
vt 0.539693 0.847844
vt 0.538257 0.847914
vt 0.539524 0.842791
vt 0.538194 0.842486
vt 0.539393 0.846844
vt 0.534752 0.848136
vt 0.540172 0.848293
vt 0.536822 0.847983
vt 0.540726 0.846805
vt 0.536908 0.845086
vt 0.538820 0.843754
vt 0.536864 0.842180
vt 0.539788 0.842330
vt 0.535310 0.841756
vt 0.541889 0.844200
vt 0.535031 0.844946
vt 0.541881 0.846875
vt 0.539210 0.843762
s 1
f 1/1/1 4/2/4 3/3/3 2/4/2
f 7/5/7 6/1/6 5/4/5 8/3/8
f 15/6/15 14/7/14 13/8/13 16/9/16
f 11/10/11 10/8/10 9/7/9 12/6/12
f 2/4/2 3/3/3 8/3/8 5/4/5
f 10/8/10 11/10/11 4/2/4 1/1/1
f 6/1/6 7/5/7 16/9/16 13/8/13
f 14/7/14 15/6/15 12/6/12 9/7/9
f 32/11/32 29/12/29 31/13/31
f 45/14/45 42/15/42 32/11/32 31/13/31
f 42/15/42 46/16/46 33/17/33 32/11/32
f 36/12/36 29/18/29 35/19/35
f 38/20/38 29/12/29 37/21/37
f 46/16/46 48/22/48 34/23/34 33/17/33
f 39/24/39 29/25/29 38/20/38
f 48/22/48 50/26/50 35/19/35 34/23/34
f 40/20/40 29/27/29 39/24/39
f 50/26/50 52/28/52 36/12/36 35/19/35
f 41/29/41 29/27/29 40/20/40
f 52/28/52 54/30/54 37/21/37 36/12/36
f 54/30/54 56/31/56 38/20/38 37/21/37
f 91/32/91 89/33/89 23/34/23 22/35/22
f 56/31/56 58/36/58 39/24/39 38/20/38
f 31/13/31 29/25/29 30/12/30
f 58/36/58 60/37/60 40/20/40 39/24/39
f 60/37/60 62/38/62 41/29/41 40/20/40
f 57/39/57 59/40/59 58/36/58 56/31/56
f 29/41/29 41/29/41 30/12/30
f 42/15/42 45/14/45 44/42/44 43/43/43
f 33/17/33 29/44/29 32/11/32
f 37/21/37 29/44/29 36/12/36
f 55/45/55 57/39/57 56/31/56 54/30/54
f 65/46/65 44/42/44 45/14/45 64/47/64
f 53/48/53 55/45/55 54/30/54 52/28/52
f 51/49/51 53/48/53 52/28/52 50/26/50
f 81/50/81 78/51/78 27/52/27 28/53/28
f 49/54/49 51/49/51 50/26/50 48/22/48
f 89/33/89 87/55/87 24/56/24 23/34/23
f 47/57/47 49/54/49 48/22/48 46/16/46
f 97/58/97 95/59/95 20/60/20 19/61/19
f 43/43/43 47/57/47 46/16/46 42/15/42
f 82/62/82 81/50/81 28/53/28 25/63/25
f 100/64/100 99/65/99 18/66/18 17/67/17
f 61/68/61 63/69/63 62/38/62 60/37/60
f 63/69/63 65/46/65 64/47/64 62/38/62
f 85/70/85 82/62/82 25/63/25 26/71/26
f 87/55/87 85/70/85 26/71/26 24/56/24
f 93/72/93 91/32/91 22/35/22 21/73/21
f 95/59/95 93/72/93 21/73/21 20/60/20
f 99/65/99 97/58/97 19/61/19 18/66/18
f 64/47/64 45/14/45 31/13/31 30/12/30
f 78/51/78 100/64/100 17/67/17 27/52/27
f 34/23/34 29/18/29 33/17/33
f 35/19/35 29/18/29 34/23/34
f 62/38/62 64/47/64 30/12/30 41/29/41
f 59/40/59 61/68/61 60/37/60 58/36/58
f 28/53/28 27/52/27 79/74/79 80/75/80
f 26/71/26 25/63/25 83/76/83 84/77/84
f 24/56/24 26/71/26 84/77/84 86/78/86
f 23/34/23 24/56/24 86/78/86 88/79/88
f 22/35/22 23/34/23 88/79/88 90/80/90
f 21/73/21 22/35/22 90/80/90 92/81/92
f 20/60/20 21/73/21 92/81/92 94/82/94
f 19/61/19 20/60/20 94/82/94 96/83/96
f 18/66/18 19/61/19 96/83/96 98/84/98
f 25/63/25 28/53/28 80/75/80 83/76/83
f 27/52/27 17/67/17 101/85/101 79/74/79
f 17/67/17 18/66/18 98/84/98 101/85/101
f 66/74/66 79/74/79 101/85/101 77/85/77
f 67/75/67 80/75/80 79/74/79 66/74/66
f 78/51/78 81/50/81 43/43/43 44/42/44
f 100/64/100 78/51/78 44/42/44 65/46/65
f 81/50/81 82/62/82 47/57/47 43/43/43
f 68/76/68 83/76/83 80/75/80 67/75/67
f 82/62/82 85/70/85 49/54/49 47/57/47
f 69/75/69 84/77/84 83/76/83 68/76/68
f 85/70/85 87/55/87 51/49/51 49/54/49
f 70/86/70 86/78/86 84/77/84 69/75/69
f 87/55/87 89/33/89 53/48/53 51/49/51
f 71/85/71 88/79/88 86/78/86 70/86/70
f 89/33/89 91/32/91 55/45/55 53/48/53
f 72/87/72 90/80/90 88/79/88 71/85/71
f 91/32/91 93/72/93 57/39/57 55/45/55
f 73/83/73 92/81/92 90/80/90 72/87/72
f 93/72/93 95/59/95 59/40/59 57/39/57
f 74/82/74 94/82/94 92/81/92 73/83/73
f 95/59/95 97/58/97 61/68/61 59/40/59
f 75/83/75 96/83/96 94/82/94 74/82/74
f 97/58/97 99/65/99 63/69/63 61/68/61
f 76/84/76 98/84/98 96/83/96 75/83/75
f 99/65/99 100/64/100 65/46/65 63/69/63
f 77/85/77 101/85/101 98/84/98 76/84/76
f 117/88/117 114/89/114 116/90/116
f 130/91/130 127/92/127 117/88/117 116/90/116
f 127/92/127 131/93/131 118/94/118 117/88/117
f 121/89/121 114/95/114 120/96/120
f 123/97/123 114/89/114 122/98/122
f 131/93/131 133/99/133 119/100/119 118/94/118
f 124/101/124 114/102/114 123/97/123
f 133/99/133 135/103/135 120/96/120 119/100/119
f 125/97/125 114/104/114 124/101/124
f 135/103/135 137/105/137 121/89/121 120/96/120
f 126/106/126 114/104/114 125/97/125
f 137/105/137 139/107/139 122/98/122 121/89/121
f 139/107/139 141/108/141 123/97/123 122/98/122
f 176/109/176 174/110/174 108/111/108 107/112/107
f 141/108/141 143/113/143 124/101/124 123/97/123
f 116/90/116 114/102/114 115/89/115
f 143/113/143 145/114/145 125/97/125 124/101/124
f 145/114/145 147/115/147 126/106/126 125/97/125
f 142/116/142 144/117/144 143/113/143 141/108/141
f 114/118/114 126/106/126 115/89/115
f 127/92/127 130/91/130 129/119/129 128/120/128
f 118/94/118 114/121/114 117/88/117
f 122/98/122 114/121/114 121/89/121
f 140/122/140 142/116/142 141/108/141 139/107/139
f 150/123/150 129/119/129 130/91/130 149/124/149
f 138/125/138 140/122/140 139/107/139 137/105/137
f 136/126/136 138/125/138 137/105/137 135/103/135
f 166/127/166 163/128/163 112/129/112 113/130/113
f 134/131/134 136/126/136 135/103/135 133/99/133
f 174/110/174 172/132/172 109/133/109 108/111/108
f 132/134/132 134/131/134 133/99/133 131/93/131
f 182/135/182 180/136/180 105/137/105 104/138/104
f 128/120/128 132/134/132 131/93/131 127/92/127
f 167/139/167 166/127/166 113/130/113 110/140/110
f 185/141/185 184/142/184 103/143/103 102/144/102
f 146/145/146 148/146/148 147/115/147 145/114/145
f 148/146/148 150/123/150 149/124/149 147/115/147
f 170/147/170 167/139/167 110/140/110 111/148/111
f 172/132/172 170/147/170 111/148/111 109/133/109
f 178/149/178 176/109/176 107/112/107 106/150/106
f 180/136/180 178/149/178 106/150/106 105/137/105
f 184/142/184 182/135/182 104/138/104 103/143/103
f 149/124/149 130/91/130 116/90/116 115/89/115
f 163/128/163 185/141/185 102/144/102 112/129/112
f 119/100/119 114/95/114 118/94/118
f 120/96/120 114/95/114 119/100/119
f 147/115/147 149/124/149 115/89/115 126/106/126
f 144/117/144 146/145/146 145/114/145 143/113/143
f 113/130/113 112/129/112 164/151/164 165/152/165
f 111/148/111 110/140/110 168/153/168 169/154/169
f 109/133/109 111/148/111 169/154/169 171/155/171
f 108/111/108 109/133/109 171/155/171 173/156/173
f 107/112/107 108/111/108 173/156/173 175/157/175
f 106/150/106 107/112/107 175/157/175 177/158/177
f 105/137/105 106/150/106 177/158/177 179/159/179
f 104/138/104 105/137/105 179/159/179 181/160/181
f 103/143/103 104/138/104 181/160/181 183/161/183
f 110/140/110 113/130/113 165/152/165 168/153/168
f 112/129/112 102/144/102 186/162/186 164/151/164
f 102/144/102 103/143/103 183/161/183 186/162/186
f 151/151/151 164/151/164 186/162/186 162/162/162
f 152/152/152 165/152/165 164/151/164 151/151/151
f 163/128/163 166/127/166 128/120/128 129/119/129
f 185/141/185 163/128/163 129/119/129 150/123/150
f 166/127/166 167/139/167 132/134/132 128/120/128
f 153/153/153 168/153/168 165/152/165 152/152/152
f 167/139/167 170/147/170 134/131/134 132/134/132
f 154/152/154 169/154/169 168/153/168 153/153/153
f 170/147/170 172/132/172 136/126/136 134/131/134
f 155/163/155 171/155/171 169/154/169 154/152/154
f 172/132/172 174/110/174 138/125/138 136/126/136
f 156/162/156 173/156/173 171/155/171 155/163/155
f 174/110/174 176/109/176 140/122/140 138/125/138
f 157/164/157 175/157/175 173/156/173 156/162/156
f 176/109/176 178/149/178 142/116/142 140/122/140
f 158/160/158 177/158/177 175/157/175 157/164/157
f 178/149/178 180/136/180 144/117/144 142/116/142
f 159/159/159 179/159/179 177/158/177 158/160/158
f 180/136/180 182/135/182 146/145/146 144/117/144
f 160/160/160 181/160/181 179/159/179 159/159/159
f 182/135/182 184/142/184 148/146/148 146/145/146
f 161/161/161 183/161/183 181/160/181 160/160/160
f 184/142/184 185/141/185 150/123/150 148/146/148
f 162/162/162 186/162/186 183/161/183 161/161/161
f 202/165/202 199/166/199 201/167/201
f 215/168/215 212/169/212 202/165/202 201/167/201
f 212/169/212 216/170/216 203/171/203 202/165/202
f 206/172/206 199/173/199 205/174/205
f 208/175/208 199/166/199 207/176/207
f 216/170/216 218/177/218 204/178/204 203/171/203
f 209/179/209 199/180/199 208/175/208
f 218/177/218 220/181/220 205/174/205 204/178/204
f 210/175/210 199/182/199 209/179/209
f 220/181/220 222/183/222 206/172/206 205/174/205
f 211/184/211 199/182/199 210/175/210
f 222/183/222 224/185/224 207/176/207 206/172/206
f 224/185/224 226/186/226 208/175/208 207/176/207
f 261/187/261 259/188/259 193/189/193 192/190/192
f 226/186/226 228/191/228 209/179/209 208/175/208
f 201/167/201 199/180/199 200/166/200
f 228/191/228 230/192/230 210/175/210 209/179/209
f 230/192/230 232/193/232 211/184/211 210/175/210
f 227/194/227 229/195/229 228/191/228 226/186/226
f 199/196/199 211/184/211 200/166/200
f 212/169/212 215/168/215 214/197/214 213/198/213
f 203/171/203 199/199/199 202/165/202
f 207/176/207 199/199/199 206/172/206
f 225/200/225 227/194/227 226/186/226 224/185/224
f 235/201/235 214/197/214 215/168/215 234/202/234
f 223/203/223 225/200/225 224/185/224 222/183/222
f 221/204/221 223/203/223 222/183/222 220/181/220
f 251/205/251 248/206/248 197/207/197 198/208/198
f 219/209/219 221/204/221 220/181/220 218/177/218
f 259/188/259 257/210/257 194/211/194 193/189/193
f 217/212/217 219/209/219 218/177/218 216/170/216
f 267/213/267 265/214/265 190/215/190 189/216/189
f 213/198/213 217/212/217 216/170/216 212/169/212
f 252/217/252 251/205/251 198/208/198 195/218/195
f 270/219/270 269/220/269 188/221/188 187/222/187
f 231/223/231 233/224/233 232/193/232 230/192/230
f 233/224/233 235/201/235 234/202/234 232/193/232
f 255/225/255 252/217/252 195/218/195 196/226/196
f 257/210/257 255/225/255 196/226/196 194/211/194
f 263/227/263 261/187/261 192/190/192 191/228/191
f 265/214/265 263/227/263 191/228/191 190/215/190
f 269/220/269 267/213/267 189/216/189 188/221/188
f 234/202/234 215/168/215 201/167/201 200/166/200
f 248/206/248 270/219/270 187/222/187 197/207/197
f 204/178/204 199/173/199 203/171/203
f 205/174/205 199/173/199 204/178/204
f 232/193/232 234/202/234 200/166/200 211/184/211
f 229/195/229 231/223/231 230/192/230 228/191/228
f 198/208/198 197/207/197 249/229/249 250/230/250
f 196/226/196 195/218/195 253/231/253 254/232/254
f 194/211/194 196/226/196 254/232/254 256/233/256
f 193/189/193 194/211/194 256/233/256 258/234/258
f 192/190/192 193/189/193 258/234/258 260/235/260
f 191/228/191 192/190/192 260/235/260 262/236/262
f 190/215/190 191/228/191 262/236/262 264/237/264
f 189/216/189 190/215/190 264/237/264 266/238/266
f 188/221/188 189/216/189 266/238/266 268/239/268
f 195/218/195 198/208/198 250/230/250 253/231/253
f 197/207/197 187/222/187 271/240/271 249/229/249
f 187/222/187 188/221/188 268/239/268 271/240/271
f 236/229/236 249/229/249 271/240/271 247/240/247
f 237/230/237 250/230/250 249/229/249 236/229/236
f 248/206/248 251/205/251 213/198/213 214/197/214
f 270/219/270 248/206/248 214/197/214 235/201/235
f 251/205/251 252/217/252 217/212/217 213/198/213
f 238/231/238 253/231/253 250/230/250 237/230/237
f 252/217/252 255/225/255 219/209/219 217/212/217
f 239/230/239 254/232/254 253/231/253 238/231/238
f 255/225/255 257/210/257 221/204/221 219/209/219
f 240/241/240 256/233/256 254/232/254 239/230/239
f 257/210/257 259/188/259 223/203/223 221/204/221
f 241/240/241 258/234/258 256/233/256 240/241/240
f 259/188/259 261/187/261 225/200/225 223/203/223
f 242/242/242 260/235/260 258/234/258 241/240/241
f 261/187/261 263/227/263 227/194/227 225/200/225
f 243/238/243 262/236/262 260/235/260 242/242/242
f 263/227/263 265/214/265 229/195/229 227/194/227
f 244/237/244 264/237/264 262/236/262 243/238/243
f 265/214/265 267/213/267 231/223/231 229/195/229
f 245/238/245 266/238/266 264/237/264 244/237/244
f 267/213/267 269/220/269 233/224/233 231/223/231
f 246/239/246 268/239/268 266/238/266 245/238/245
f 269/220/269 270/219/270 235/201/235 233/224/233
f 247/240/247 271/240/271 268/239/268 246/239/246
