# Blender 5.0.1
# www.blender.org
o GEO_RoadTurnTile
v -8.000000 -2.013760 -10.741909
v -8.000000 -2.013760 -13.173265
v -4.858794 -2.013760 -10.000000
v -7.920600 -0.013760 -10.165948
v -7.834052 -0.013760 -10.079400
v -7.895251 -0.013760 -10.104749
v -7.141206 -2.013760 -10.000000
v -4.025485 -2.013760 -10.025485
v -4.087011 -2.013760 -10.000000
v -7.834052 -0.013760 -13.920601
v -7.920600 -0.013760 -13.834052
v -7.895251 -0.013760 -13.895251
v -4.000000 -2.013760 -10.087011
v -4.025485 -2.013760 -13.974515
v -4.000000 -2.013760 -13.912989
v -4.165948 -0.013760 -10.079399
v -4.079400 -0.013760 -10.165948
v -4.104749 -0.013760 -10.104749
v -4.087011 -2.013760 -14.000000
v -7.974515 -2.013760 -13.974515
v -7.912989 -2.013760 -14.000000
v -4.079400 -0.013760 -13.834052
v -4.165948 -0.013760 -13.920600
v -4.104749 -0.013760 -13.895251
v -7.912989 -0.120803 -10.000000
v -8.000000 -0.120803 -10.087011
v -7.974515 -0.120803 -10.025485
v -8.000000 -0.120803 -13.912989
v -7.912989 -0.120803 -14.000000
v -7.974515 -0.120803 -13.974515
v -4.087011 -0.120803 -14.000000
v -4.000000 -0.120803 -13.912989
v -4.025485 -0.120803 -13.974515
v -4.000000 -0.120803 -10.087011
v -4.087011 -0.120803 -10.000000
v -4.025485 -0.120803 -10.025485
v -7.969804 -0.067282 -10.116569
v -7.883431 -0.067282 -10.030196
v -7.944506 -0.067282 -10.055494
v -7.969804 -0.067282 -13.883431
v -7.883431 -0.067282 -13.969804
v -7.944506 -0.067282 -13.944506
v -4.116569 -0.067282 -13.969804
v -4.030196 -0.067282 -13.883431
v -4.055494 -0.067282 -13.944506
v -4.030196 -0.067282 -10.116569
v -4.116569 -0.067282 -10.030196
v -4.055494 -0.067282 -10.055494
v -7.834053 -0.013760 -13.834052
v -7.834053 -0.013760 -10.165948
v -4.165948 -0.013760 -13.834052
v -4.165948 -0.013760 -10.165948
v -8.000000 -2.013760 -13.912989
v -7.974515 -2.013760 -10.025485
v -7.141206 -0.120803 -10.000000
v -4.858794 -0.120803 -10.000000
v -4.731994 -0.067282 -10.030196
v -7.268006 -0.067282 -10.030196
v -7.268006 -0.013760 -10.079400
v -4.731994 -0.013760 -10.079399
v -4.731994 -0.013760 -10.165948
v -7.268006 -0.013760 -10.165948
v -8.000000 -2.013760 -10.087011
v -7.912989 -2.013760 -10.000000
v -8.000000 -0.120803 -13.173265
v -8.000000 -0.120803 -10.741909
v -7.969804 -0.067282 -10.731994
v -7.969804 -0.067282 -13.213856
v -7.920600 -0.013760 -13.268006
v -7.920600 -0.013760 -10.731994
v -7.834053 -0.013760 -13.268006
v -7.834053 -0.013760 -10.731994
v -7.268006 -0.013760 -10.341399
v -7.658601 -0.013760 -10.731994
v -7.375326 -0.013760 -10.624674
v -5.916131 -0.013760 -13.281156
v -4.744347 -0.013760 -12.109371
v -5.066306 -0.013760 -12.959197
v -7.141206 -0.120803 -10.079400
v -4.858795 -0.120803 -10.079399
v -4.858794 -0.120803 -10.165948
v -7.141206 -0.120803 -10.165948
v -7.920600 -0.120803 -13.152602
v -7.920600 -0.120803 -10.858794
v -7.834052 -0.120803 -13.141206
v -7.834053 -0.120803 -10.858794
v -7.141206 -0.120803 -10.341399
v -7.658601 -0.120803 -10.858794
v -7.305071 -0.120803 -10.702250
v -5.916131 -0.120803 -13.141206
v -4.858794 -0.120803 -12.109371
v -5.174907 -0.120803 -12.849202
v -7.912989 -2.013760 -10.087011
v -4.087011 -2.013760 -10.087011
v -7.912989 -2.013760 -13.912989
v -4.087011 -2.013760 -13.912989
v -4.891786 -2.013760 -10.087011
v -7.912989 -2.013760 -13.139869
v -7.128312 -2.013760 -10.087011
v -7.912989 -1.993419 -10.806543
v -5.290530 -2.013760 -12.363626
v -7.042779 -2.013760 -11.000078
vn -0.1438 0.6401 0.7547
vn -0.0910 0.7182 0.6899
vn -0.4308 0.7930 0.4308
vn -0.5066 0.6977 0.5066
vn -0.6899 0.7182 0.0910
vn -0.7547 0.6401 0.1438
vn 0.2031 0.2837 0.9372
vn -0.0000 0.0626 0.9980
vn -0.0000 -0.0000 1.0000
vn 0.1951 -0.0000 0.9808
vn -0.6731 0.3064 0.6731
vn -0.9372 0.2837 0.2031
vn -0.9808 -0.0000 0.1951
vn -0.7071 -0.0000 0.7071
vn 0.2031 0.2837 -0.9372
vn 0.6731 0.3064 -0.6731
vn 0.7071 -0.0000 -0.7071
vn 0.1951 -0.0000 -0.9808
vn -0.9877 0.1567 -0.0000
vn -0.9927 0.1203 -0.0000
vn -1.0000 -0.0000 -0.0000
vn 0.9372 0.2837 0.2031
vn 0.6731 0.3064 0.6731
vn 0.7071 -0.0000 0.7071
vn 0.9808 -0.0000 0.1951
vn -0.9372 0.2837 -0.2031
vn -0.9808 -0.0000 -0.1951
vn 0.9372 0.2837 -0.2031
vn 0.9808 -0.0000 -0.1951
vn -0.1438 0.6401 -0.7547
vn -0.2031 0.2837 -0.9372
vn -0.6731 0.3064 -0.6731
vn -0.5066 0.6977 -0.5066
vn -0.7547 0.6401 -0.1438
vn 0.7547 0.6401 -0.1438
vn 0.5066 0.6977 -0.5066
vn 0.1438 0.6401 -0.7547
vn 0.1438 0.6401 0.7547
vn 0.5066 0.6977 0.5066
vn 0.7547 0.6401 0.1438
vn -0.2031 0.2837 0.9372
vn -0.0910 0.7182 -0.6899
vn -0.4308 0.7930 -0.4308
vn -0.6899 0.7182 -0.0910
vn 0.6899 0.7182 -0.0910
vn 0.4308 0.7930 -0.4308
vn 0.0910 0.7182 -0.6899
vn 0.0910 0.7182 0.6899
vn 0.4308 0.7930 0.4308
vn 0.6899 0.7182 0.0910
vn -0.0000 1.0000 -0.0000
vn -0.1951 -0.0000 0.9808
vn -0.1951 -0.0000 -0.9808
vn -0.7071 -0.0000 -0.7071
vn -0.0000 0.5632 0.8263
vn -0.0000 0.6768 0.7362
vn -0.8349 0.5504 -0.0000
vn -0.8122 0.5834 -0.0000
vn -0.7362 0.6768 -0.0000
vn -0.0450 0.7442 0.6664
vn -0.0852 0.7232 0.6853
vn -0.0200 0.7651 0.6435
vn -0.0207 0.7647 0.6441
vn -0.1206 0.7885 0.6031
vn -0.0998 0.7879 0.6077
vn -0.4280 0.7979 0.4246
vn -0.4278 0.7979 0.4247
vn -0.6376 0.7586 0.1340
vn -0.6427 0.7578 0.1125
vn -0.6545 0.7561 0.0011
vn -0.6544 0.7561 0.0011
vn -0.5487 0.8309 0.0926
vn -0.6201 0.7345 0.2757
vn -0.4942 0.7106 0.5007
vn 0.6572 0.7386 -0.1505
vn 0.6561 0.7445 -0.1234
vn 0.4756 0.7336 -0.4855
vn 0.4837 0.7334 -0.4776
vn 0.6451 0.7641 -0.0000
vn 0.6201 0.7345 0.2757
vn 0.5487 0.8309 0.0926
vn 0.4942 0.7106 0.5007
vn 0.1210 0.7470 -0.6537
vn 0.1470 0.7418 -0.6543
vn -0.0000 0.7641 -0.6451
vn -0.2617 0.7310 -0.6302
vn -0.2757 0.7345 -0.6201
vn -0.6754 0.5480 -0.4934
vn -0.7184 0.4957 -0.4880
vn -0.0953 0.7104 0.6973
vn -0.1895 0.6589 0.7279
vn 0.3889 0.9213 -0.0000
vn -0.3889 0.9213 -0.0000
vn -0.0000 -1.0000 -0.0000
vn 0.0634 -0.9980 -0.0084
vn 0.0241 -0.9997 -0.0071
vn -0.0009 -1.0000 0.0004
vn 0.0449 -0.9990 0.0016
vn 0.0348 -0.9994 0.0018
vn -0.0055 -1.0000 -0.0016
vn 0.1125 -0.9936 -0.0090
vn 0.0478 -0.9988 -0.0082
vt 0.129325 0.541088
vt 0.129350 0.541742
vt 0.129362 0.541742
vt 0.129338 0.541088
vt 0.129392 0.541742
vt 0.129368 0.541088
vt 0.129311 0.540433
vt 0.129323 0.540433
vt 0.129353 0.540433
vt 0.131276 0.540433
vt 0.131263 0.540433
vt 0.292061 0.638354
vt 0.292128 0.638354
vt 0.130870 0.540433
vt 0.131233 0.540433
vt 0.129675 0.540433
vt 0.131261 0.541088
vt 0.131248 0.541088
vt 0.131218 0.541088
vt 0.131237 0.541742
vt 0.131224 0.541742
vt 0.131194 0.541742
vt 0.292040 0.638354
vt 0.130889 0.541088
vt 0.129670 0.541088
vt 0.129670 0.541742
vt 0.130916 0.541742
vt 0.129478 0.541742
vt 0.129617 0.541742
vt 0.130923 0.541742
vt 0.292045 0.638354
vt 0.292043 0.638354
vt 0.292127 0.638354
vt 0.292127 0.638354
vt 0.292064 0.638354
vt 0.292060 0.638354
vt 0.292119 0.638354
vt 0.292050 0.638354
vt 0.292099 0.638354
vt 0.130859 0.540433
vt 0.130854 0.540433
vt 0.130710 0.540433
vt 0.130764 0.541742
vt 0.130347 0.540433
vt 0.130347 0.541742
vt 0.129392 0.540433
vt 0.129350 0.540433
vt 0.129478 0.540433
vt 0.129656 0.540433
vt 0.129732 0.540433
vt 0.129316 0.541780
vt 0.129316 0.541791
vt 0.129318 0.541788
vt 0.129319 0.541780
vt 0.129192 0.541273
vt 0.129194 0.541273
vt 0.129194 0.541261
vt 0.129192 0.541264
vt 0.129194 0.541780
vt 0.129194 0.541791
vt 0.129292 0.541261
vt 0.129291 0.541273
vt 0.129316 0.541273
vt 0.129316 0.541261
vt 0.129192 0.541780
vt 0.129192 0.541788
vt 0.129319 0.541273
vt 0.129318 0.541264
vt 0.129278 0.541574
vt 0.129192 0.541682
vt 0.129194 0.541677
vt 0.292048 0.638209
vt 0.292152 0.638548
vt 0.292176 0.637982
vt 0.292042 0.637982
vt 0.292042 0.637960
vt 0.292178 0.637960
vt 0.291990 0.638144
vt 0.291990 0.638749
vt 0.291995 0.638741
vt 0.291995 0.638161
vt 0.129194 0.541368
vt 0.129222 0.541394
vt 0.129219 0.541273
vt 0.129219 0.541261
vt 0.129192 0.541359
s 1
f 38/1/1 5/2/2 6/3/3 39/4/4
f 39/4/4 6/3/3 4/5/5 37/6/6
f 35/7/7 56/7/8 3/7/9 9/7/10
f 27/8/11 26/9/12 63/9/13 54/8/14
f 31/10/15 33/11/16 14/11/17 19/10/18
f 66/12/19 65/13/20 2/13/21 1/12/21
f 34/9/22 36/8/23 8/8/24 13/9/25
f 65/14/20 28/15/26 53/15/27 2/14/21
f 32/15/28 34/9/22 13/9/25 15/15/29
f 26/9/12 66/16/19 1/16/21 63/9/13
f 41/17/30 29/10/31 30/11/32 42/18/33
f 42/18/33 30/11/32 28/15/26 40/19/34
f 44/19/35 32/15/28 33/11/16 45/18/36
f 45/18/36 33/11/16 31/10/15 43/17/37
f 47/1/38 35/7/7 36/8/23 48/4/39
f 48/4/39 36/8/23 34/9/22 46/6/40
f 25/7/41 38/1/1 39/4/4 27/8/11
f 27/8/11 39/4/4 37/6/6 26/9/12
f 10/20/42 41/17/30 42/18/33 12/21/43
f 12/21/43 42/18/33 40/19/34 11/22/44
f 22/22/45 44/19/35 45/18/36 24/21/46
f 24/21/46 45/18/36 43/17/37 23/20/47
f 16/2/48 47/1/38 48/4/39 18/3/49
f 18/3/49 48/4/39 46/6/40 17/5/50
f 49/22/51 10/20/51 12/21/51 11/22/51
f 25/7/41 27/8/11 54/8/14 64/7/52
f 56/23/8 55/23/8 7/23/9 3/23/9
f 41/17/30 10/20/42 23/20/47 43/17/37
f 44/19/35 22/22/45 17/5/50 46/6/40
f 5/2/51 50/5/51 4/5/51 6/3/51
f 29/10/31 41/17/30 43/17/37 31/10/15
f 32/15/28 44/19/35 46/6/40 34/9/22
f 22/22/51 24/21/51 23/20/51 51/22/51
f 18/3/51 17/5/51 52/5/51 16/2/51
f 17/5/51 22/22/51 51/22/51 52/5/51
f 51/22/51 23/20/51 10/20/51 49/22/51
f 30/11/32 29/10/31 21/10/53 20/11/54
f 33/11/16 32/15/28 15/15/29 14/11/17
f 36/8/23 35/7/7 9/7/10 8/8/24
f 55/7/8 25/7/41 64/7/52 7/7/9
f 55/7/8 58/1/55 38/1/1 25/7/41
f 35/7/7 47/1/38 57/1/55 56/7/8
f 47/1/38 16/2/48 60/2/56 57/1/55
f 58/1/55 59/2/56 5/2/2 38/1/1
f 59/2/51 62/5/51 50/5/51 5/2/51
f 16/2/51 52/5/51 61/5/51 60/2/51
f 29/10/31 31/10/15 19/10/18 21/10/53
f 28/15/26 30/11/32 20/11/54 53/15/27
f 65/14/20 68/24/57 40/19/34 28/15/26
f 26/9/12 37/6/6 67/25/58 66/16/19
f 37/6/6 4/5/5 70/26/59 67/25/58
f 68/24/57 69/27/59 11/22/44 40/19/34
f 71/27/51 49/22/51 11/22/51 69/27/51
f 50/5/51 72/26/51 70/26/51 4/5/51
f 62/5/51 73/28/51 75/29/51 74/26/51 72/26/51 50/5/51
f 51/22/51 49/22/51 71/27/51 76/30/51
f 82/31/51 79/32/51 80/32/51 81/31/51
f 85/33/51 83/34/51 84/35/51 86/35/51
f 90/33/51 88/35/51 89/36/51 92/37/51
f 92/37/51 89/36/51 87/38/51 91/39/51
f 90/33/51 85/33/51 86/35/51 88/35/51
f 81/31/51 91/39/51 87/38/51 82/31/51
f 56/23/51 80/32/51 79/32/51 55/23/51
f 66/12/51 84/35/51 83/34/51 65/13/51
f 69/27/60 83/40/61 85/41/62 71/27/63
f 71/27/63 85/41/62 90/41/64 76/30/65
f 76/30/65 90/41/64 92/42/66 78/43/67
f 78/43/67 92/42/66 91/44/68 77/45/69
f 77/45/69 91/44/68 81/46/70 61/5/71
f 61/5/71 81/46/70 80/47/72 60/2/73
f 57/1/74 60/2/73 80/47/72
f 51/22/51 78/43/51 77/45/51
f 52/5/51 51/22/51 77/45/51 61/5/51
f 78/43/51 51/22/51 76/30/51
f 73/28/75 87/48/76 89/49/77 75/29/78
f 62/5/79 82/46/79 87/48/76 73/28/75
f 59/2/80 79/47/81 82/46/79 62/5/79
f 79/47/81 59/2/80 58/1/82
f 75/29/78 89/49/77 88/50/83 74/26/84
f 74/26/84 88/50/83 86/50/85 72/26/85
f 72/26/85 86/50/85 84/50/86 70/26/87
f 67/25/88 70/26/87 84/50/86
f 66/16/89 67/25/88 84/50/86
f 83/40/61 69/27/60 68/24/90
f 65/14/91 83/40/61 68/24/90
f 55/7/92 79/47/81 58/1/82
f 56/7/93 57/1/74 80/47/72
f 96/51/94 19/52/94 14/53/94 15/54/94
f 63/55/95 93/56/96 64/57/94 54/58/94
f 95/59/94 21/60/94 19/52/94 96/51/94
f 3/61/94 97/62/94 94/63/94 9/64/94
f 53/65/94 20/66/94 21/60/94 95/59/94
f 9/64/94 94/63/94 13/67/94 8/68/94
f 101/69/97 96/51/94 94/63/94 97/62/94
f 2/70/98 53/65/94 95/59/94 98/71/99
f 94/63/94 96/51/94 15/54/94 13/67/94
f 102/72/100 101/73/97 97/74/94 99/75/94
f 7/76/94 99/75/94 97/74/94 3/77/94
f 1/78/101 2/79/98 98/80/99 100/81/102
f 93/56/96 100/82/102 102/83/100
f 64/57/94 93/56/96 99/84/94 7/85/94
f 63/55/95 1/86/101 100/82/102 93/56/96
f 100/81/102 98/80/99 101/73/97 102/72/100
f 98/71/99 95/59/94 96/51/94 101/69/97
f 99/84/94 93/56/96 102/83/100
