# Blender 5.0.1
# www.blender.org
o GEO_RiverStraightTile
v -7.141741 -2.013760 -20.000000
v -4.858259 -2.013760 -20.000000
v -4.858259 -2.013760 -16.000000
v -7.920600 -0.013760 -16.165947
v -7.834052 -0.013760 -16.079399
v -7.895251 -0.013760 -16.104750
v -7.141741 -2.013760 -16.000000
v -4.025485 -2.013760 -16.025486
v -4.087011 -2.013760 -16.000000
v -7.834052 -0.013760 -19.920601
v -7.920600 -0.013760 -19.834053
v -7.895251 -0.013760 -19.895250
v -4.000000 -2.013760 -16.087011
v -4.025485 -2.013760 -19.974514
v -4.000000 -2.013760 -19.912989
v -4.165948 -0.013760 -16.079399
v -4.079400 -0.013760 -16.165947
v -4.104749 -0.013760 -16.104750
v -4.087011 -2.013760 -20.000000
v -7.974515 -2.013760 -19.974514
v -7.912989 -2.013760 -20.000000
v -4.079400 -0.013760 -19.834053
v -4.165948 -0.013760 -19.920601
v -4.104749 -0.013760 -19.895250
v -7.912989 -0.120803 -16.000000
v -8.000000 -0.120803 -16.087011
v -7.974515 -0.120803 -16.025486
v -8.000000 -0.120803 -19.912989
v -7.912989 -0.120803 -20.000000
v -7.974515 -0.120803 -19.974514
v -4.087011 -0.120803 -20.000000
v -4.000000 -0.120803 -19.912989
v -4.025485 -0.120803 -19.974514
v -4.000000 -0.120803 -16.087011
v -4.087011 -0.120803 -16.000000
v -4.025485 -0.120803 -16.025486
v -7.969804 -0.067282 -16.116570
v -7.883431 -0.067282 -16.030197
v -7.944506 -0.067282 -16.055494
v -7.969804 -0.067282 -19.883430
v -7.883431 -0.067282 -19.969803
v -7.944506 -0.067282 -19.944506
v -4.116569 -0.067282 -19.969803
v -4.030196 -0.067282 -19.883430
v -4.055494 -0.067282 -19.944506
v -4.030196 -0.067282 -16.116570
v -4.116569 -0.067282 -16.030197
v -4.055494 -0.067282 -16.055494
v -7.834053 -0.013760 -19.834053
v -7.834053 -0.013760 -16.165947
v -4.165948 -0.013760 -19.834053
v -4.165948 -0.013760 -16.165947
v -8.000000 -2.013760 -19.912989
v -7.974515 -2.013760 -16.025486
v -7.141741 -0.086950 -16.000000
v -4.858259 -0.086950 -16.000000
v -4.731399 -0.067282 -16.030197
v -7.268601 -0.067282 -16.030197
v -7.268601 -0.013760 -16.079399
v -4.731399 -0.013760 -16.079399
v -4.731399 -0.013760 -19.920601
v -7.268601 -0.013760 -19.920601
v -8.000000 -2.013760 -16.087011
v -7.912989 -2.013760 -16.000000
v -4.858259 -0.086950 -20.000000
v -7.141741 -0.086950 -20.000000
v -7.268601 -0.067282 -19.969803
v -4.731399 -0.067282 -19.969803
v -7.268601 -0.013760 -19.834053
v -4.731399 -0.013760 -19.834053
v -4.731399 -0.013760 -16.165947
v -7.268601 -0.013760 -16.165947
v -4.858259 -0.086950 -19.904936
v -7.141741 -0.086950 -19.904936
v -4.858259 -0.086950 -16.094090
v -7.141741 -0.086950 -16.094090
v -7.141741 -0.086950 -16.165947
v -4.858259 -0.086950 -16.165947
v -4.858259 -0.086950 -19.834053
v -7.141741 -0.086950 -19.834053
v -7.141741 -2.013760 -19.912989
v -4.858259 -2.013760 -19.912989
v -7.141741 -2.013760 -16.087011
v -4.858259 -2.013760 -16.087011
v -7.912989 -2.013760 -16.087011
v -7.912989 -2.013760 -19.912989
v -4.087011 -2.013760 -19.912989
v -4.087011 -2.013760 -16.087011
vn -0.1477 0.6790 0.7192
vn -0.0910 0.7182 0.6899
vn -0.2447 0.7689 0.5908
vn -0.2845 0.6689 0.6868
vn -0.6868 0.6689 0.2845
vn -0.5908 0.7689 0.2447
vn -0.6899 0.7182 0.0910
vn -0.7547 0.6401 0.1438
vn -0.0014 0.0566 0.9984
vn -0.2074 0.3078 0.9285
vn -0.1951 -0.0000 0.9808
vn -0.0000 -0.0000 1.0000
vn 0.9372 0.2837 -0.2031
vn 0.9372 0.2837 0.2031
vn 0.9808 -0.0000 0.1951
vn 0.9808 -0.0000 -0.1951
vn 0.0014 0.0566 0.9984
vn -0.2074 0.3078 -0.9285
vn -0.0014 0.0566 -0.9984
vn -0.0000 -0.0000 -1.0000
vn -0.1951 -0.0000 -0.9808
vn -0.6731 0.3064 0.6731
vn -0.7071 -0.0000 0.7071
vn -0.6731 0.3064 -0.6731
vn -0.7071 -0.0000 -0.7071
vn 0.2074 0.3078 0.9285
vn 0.1951 -0.0000 0.9808
vn 0.6731 0.3064 -0.6731
vn 0.7071 -0.0000 -0.7071
vn -0.1477 0.6790 -0.7192
vn -0.2845 0.6689 -0.6868
vn -0.6868 0.6689 -0.2845
vn -0.9372 0.2837 -0.2031
vn -0.7547 0.6401 -0.1438
vn 0.7547 0.6401 -0.1438
vn 0.6868 0.6689 -0.2845
vn 0.2845 0.6689 -0.6868
vn 0.2074 0.3078 -0.9285
vn 0.1477 0.6790 -0.7192
vn 0.1477 0.6790 0.7192
vn 0.6731 0.3064 0.6731
vn 0.2845 0.6689 0.6868
vn 0.6868 0.6689 0.2845
vn 0.7547 0.6401 0.1438
vn -0.9372 0.2837 0.2031
vn -0.0910 0.7182 -0.6899
vn -0.2447 0.7689 -0.5908
vn -0.5908 0.7689 -0.2447
vn -0.6899 0.7182 -0.0910
vn 0.6899 0.7182 -0.0910
vn 0.5908 0.7689 -0.2447
vn 0.2447 0.7689 -0.5908
vn 0.0910 0.7182 -0.6899
vn 0.0910 0.7182 0.6899
vn 0.2447 0.7689 0.5908
vn 0.5908 0.7689 0.2447
vn 0.6899 0.7182 0.0910
vn -0.0000 1.0000 -0.0000
vn 0.4179 0.8948 0.1571
vn 0.3060 0.8918 0.3331
vn 0.4169 0.8950 0.1589
vn 0.3075 0.8921 -0.3310
vn 0.4181 0.8948 -0.1568
vn 0.4179 0.8948 -0.1572
vn 0.7071 -0.0000 0.7071
vn -0.4997 0.8662 -0.0000
vn -0.4181 0.8948 -0.1568
vn -0.4179 0.8948 -0.1572
vn 0.0014 0.0566 -0.9984
vn -0.9808 -0.0000 -0.1951
vn -0.9808 -0.0000 0.1951
vn -0.0099 0.6432 0.7656
vn 0.0099 0.6432 0.7656
vn -0.0000 0.6768 0.7362
vn -0.0000 0.6768 -0.7362
vn -0.0099 0.6432 -0.7656
vn 0.0099 0.6432 -0.7656
vn 0.1951 -0.0000 -0.9808
vn -0.3060 0.8918 0.3331
vn -0.4179 0.8948 0.1571
vn -0.4169 0.8950 0.1589
vn 0.4997 0.8662 -0.0000
vn -0.3075 0.8921 -0.3310
vn -0.0000 -1.0000 -0.0000
vt 0.133244 0.543798
vt 0.133298 0.545403
vt 0.133325 0.545403
vt 0.133272 0.543798
vt 0.133392 0.545403
vt 0.133338 0.543798
vt 0.133211 0.542192
vt 0.137490 0.542192
vt 0.133306 0.542192
vt 0.117760 0.874393
vt 0.137585 0.542192
vt 0.133239 0.542192
vt 0.137557 0.542192
vt 0.137552 0.543798
vt 0.137524 0.543798
vt 0.137457 0.543798
vt 0.137498 0.545403
vt 0.137470 0.545403
vt 0.137403 0.545403
vt 0.133314 0.542192
vt 0.137481 0.542192
vt 0.117885 0.874393
vt 0.117880 0.874393
vt 0.137403 0.542192
vt 0.117891 0.874393
vt 0.117629 0.874393
vt 0.117635 0.874393
vt 0.133392 0.542192
vt 0.117640 0.874393
vt 0.135194 0.545403
vt 0.135602 0.545403
vt 0.135602 0.542192
vt 0.135194 0.542192
vt 0.134161 0.542155
vt 0.134161 0.542197
vt 0.134167 0.542185
vt 0.134170 0.542155
vt 0.133845 0.542155
vt 0.133845 0.542197
vt 0.134081 0.542197
vt 0.134081 0.542155
vt 0.133766 0.542155
vt 0.133766 0.542197
vt 0.133845 0.540255
vt 0.133845 0.540297
vt 0.134081 0.540297
vt 0.134081 0.540255
vt 0.134161 0.540255
vt 0.134161 0.540297
vt 0.134170 0.540297
vt 0.134167 0.540267
vt 0.133766 0.540255
vt 0.133766 0.540297
vt 0.133757 0.540297
vt 0.133757 0.542155
vt 0.133759 0.540267
vt 0.133759 0.542185
s 1
f 38/1/1 5/2/2 6/3/3 39/4/4
f 39/4/5 6/3/6 4/5/7 37/6/8
f 55/7/9 25/7/10 64/7/11 7/7/12
f 32/8/13 34/9/14 13/9/15 15/8/16
f 56/10/17 55/10/9 7/10/12 3/10/12
f 29/11/18 66/11/19 1/11/20 21/11/21
f 25/7/10 27/12/22 54/12/23 64/7/11
f 30/13/24 29/11/18 21/11/21 20/13/25
f 35/7/26 56/7/17 3/7/12 9/7/27
f 33/13/28 32/8/13 15/8/16 14/13/29
f 41/14/30 29/11/18 30/13/24 42/15/31
f 42/15/32 30/13/24 28/8/33 40/16/34
f 44/16/35 32/8/13 33/13/28 45/15/36
f 45/15/37 33/13/28 31/11/38 43/14/39
f 47/1/40 35/7/26 36/12/41 48/4/42
f 48/4/43 36/12/41 34/9/14 46/6/44
f 25/7/10 38/1/1 39/4/4 27/12/22
f 27/12/22 39/4/5 37/6/8 26/9/45
f 10/17/46 41/14/30 42/15/31 12/18/47
f 12/18/48 42/15/32 40/16/34 11/19/49
f 22/19/50 44/16/35 45/15/36 24/18/51
f 24/18/52 45/15/37 43/14/39 23/17/53
f 16/2/54 47/1/40 48/4/42 18/3/55
f 18/3/56 48/4/43 46/6/44 17/5/57
f 49/19/58 10/17/58 12/18/58 11/19/58
f 5/2/58 50/5/58 4/5/58 6/3/58
f 22/19/58 24/18/58 23/17/58 51/19/58
f 18/3/58 17/5/58 52/5/58 16/2/58
f 59/2/59 58/1/60 55/7/60 76/20/61
f 66/11/62 67/14/62 62/17/63 74/21/64
f 73/22/58 74/22/58 80/23/58 79/23/58
f 36/12/41 35/7/26 9/7/27 8/12/65
f 70/19/66 61/17/67 73/21/68 79/24/66
f 66/25/19 65/25/69 2/25/20 1/25/20
f 26/9/45 28/8/33 53/8/70 63/9/71
f 28/8/33 30/13/24 20/13/25 53/8/70
f 55/7/9 58/1/72 38/1/1 25/7/10
f 35/7/26 47/1/40 57/1/73 56/7/17
f 47/1/40 16/2/54 60/2/74 57/1/73
f 58/1/72 59/2/74 5/2/2 38/1/1
f 59/2/58 72/5/58 50/5/58 5/2/58
f 16/2/58 52/5/58 71/5/58 60/2/58
f 41/14/30 10/17/46 62/17/75 67/14/76
f 69/19/58 62/17/58 10/17/58 49/19/58
f 68/14/77 61/17/75 23/17/53 43/14/39
f 51/19/58 23/17/58 61/17/58 70/19/58
f 27/12/22 26/9/45 63/9/71 54/12/23
f 31/11/38 33/13/28 14/13/29 19/11/78
f 65/11/69 68/14/77 43/14/39 31/11/38
f 29/11/18 41/14/30 67/14/76 66/11/19
f 55/26/58 56/26/58 75/27/58 76/27/58
f 57/1/79 60/2/80 75/20/81 56/7/79
f 72/5/82 59/2/59 76/20/61 77/28/82
f 76/27/58 75/27/58 78/29/58 77/29/58
f 65/25/58 66/25/58 74/22/58 73/22/58
f 60/2/80 71/5/66 78/28/66 75/20/81
f 61/17/67 68/14/83 65/11/83 73/21/68
f 74/21/64 62/17/63 69/19/82 80/24/82
f 71/30/66 70/31/66 79/32/66 78/33/66
f 72/5/58 69/19/58 49/19/58 50/5/58
f 52/5/58 51/19/58 70/19/58 71/5/58
f 69/19/82 72/5/82 77/28/82 80/24/82
f 80/23/58 77/29/58 78/29/58 79/23/58
f 17/5/58 22/19/58 51/19/58 52/5/58
f 50/5/58 49/19/58 11/19/58 4/5/58
f 44/16/35 46/6/44 34/9/14 32/8/13
f 37/6/8 40/16/34 28/8/33 26/9/45
f 22/19/50 17/5/57 46/6/44 44/16/35
f 34/9/14 36/12/41 8/12/65 13/9/15
f 4/5/7 11/19/49 40/16/34 37/6/8
f 65/11/69 31/11/38 19/11/78 2/11/20
f 85/34/84 64/35/84 54/36/84 63/37/84
f 84/38/84 3/39/84 7/40/84 83/41/84
f 88/42/84 9/43/84 3/39/84 84/38/84
f 2/44/84 82/45/84 81/46/84 1/47/84
f 21/48/84 86/49/84 53/50/84 20/51/84
f 19/52/84 87/53/84 82/45/84 2/44/84
f 82/45/84 84/38/84 83/41/84 81/46/84
f 86/49/84 85/34/84 63/37/84 53/50/84
f 87/53/84 88/42/84 84/38/84 82/45/84
f 81/46/84 83/41/84 85/34/84 86/49/84
f 83/41/84 7/40/84 64/35/84 85/34/84
f 1/47/84 81/46/84 86/49/84 21/48/84
f 15/54/84 13/55/84 88/42/84 87/53/84
f 14/56/84 15/54/84 87/53/84 19/52/84
f 13/55/84 8/57/84 9/43/84 88/42/84
