# Blender 5.0.1
# www.blender.org
o GEO_RiverTurnTile
v -14.000000 -2.013760 -16.741909
v -14.000000 -2.013760 -19.173265
v -10.858794 -2.013760 -16.000000
v -13.920601 -0.013760 -16.165947
v -13.834052 -0.013760 -16.079399
v -13.895251 -0.013760 -16.104750
v -13.141206 -2.013760 -16.000000
v -10.025485 -2.013760 -16.025486
v -10.087011 -2.013760 -16.000000
v -13.834052 -0.013760 -19.920601
v -13.920600 -0.013760 -19.834053
v -13.895251 -0.013760 -19.895250
v -10.000000 -2.013760 -16.087011
v -10.025485 -2.013760 -19.974514
v -10.000000 -2.013760 -19.912989
v -10.165948 -0.013760 -16.079399
v -10.079400 -0.013760 -16.165947
v -10.104749 -0.013760 -16.104750
v -10.087011 -2.013760 -20.000000
v -13.974515 -2.013760 -19.974514
v -13.912989 -2.013760 -20.000000
v -10.079399 -0.013760 -19.834053
v -10.165948 -0.013760 -19.920601
v -10.104749 -0.013760 -19.895250
v -13.912989 -0.120803 -16.000000
v -14.000000 -0.120803 -16.087011
v -13.974515 -0.120803 -16.025486
v -14.000000 -0.120803 -19.912989
v -13.912989 -0.120803 -20.000000
v -13.974515 -0.120803 -19.974514
v -10.087011 -0.120803 -20.000000
v -10.000000 -0.120803 -19.912989
v -10.025485 -0.120803 -19.974514
v -10.000000 -0.120803 -16.087011
v -10.087011 -0.120803 -16.000000
v -10.025485 -0.120803 -16.025486
v -13.969804 -0.067282 -16.116570
v -13.883431 -0.067282 -16.030197
v -13.944506 -0.067282 -16.055494
v -13.969804 -0.067282 -19.883430
v -13.883431 -0.067282 -19.969803
v -13.944506 -0.067282 -19.944506
v -10.116569 -0.067282 -19.969803
v -10.030196 -0.067282 -19.883430
v -10.055494 -0.067282 -19.944506
v -10.030196 -0.067282 -16.116570
v -10.116569 -0.067282 -16.030197
v -10.055494 -0.067282 -16.055494
v -13.834053 -0.013760 -19.834053
v -13.834052 -0.013760 -16.165947
v -10.165948 -0.013760 -19.834053
v -10.165948 -0.013760 -16.165947
v -14.000000 -2.013760 -19.912989
v -13.974515 -2.013760 -16.025486
v -13.141206 -0.086950 -16.000000
v -10.858794 -0.086950 -16.000000
v -10.731994 -0.067282 -16.030197
v -13.268006 -0.067282 -16.030197
v -13.268006 -0.013760 -16.079399
v -10.731994 -0.013760 -16.079399
v -10.731994 -0.013760 -16.165947
v -13.268006 -0.013760 -16.165947
v -14.000000 -2.013760 -16.087011
v -13.912989 -2.013760 -16.000000
v -14.000000 -0.086950 -19.173265
v -14.000000 -0.086950 -16.741909
v -13.969804 -0.067282 -16.731995
v -13.969804 -0.067282 -19.213856
v -13.920600 -0.013760 -19.268005
v -13.920601 -0.013760 -16.731995
v -13.834053 -0.013760 -19.268005
v -13.834052 -0.013760 -16.731995
v -13.268006 -0.013760 -16.341398
v -13.658601 -0.013760 -16.731995
v -13.375326 -0.013760 -16.624674
v -11.916131 -0.013760 -19.281155
v -10.744347 -0.013760 -18.109371
v -11.066305 -0.013760 -18.959196
v -13.141206 -0.086950 -16.079399
v -10.858794 -0.086950 -16.079399
v -10.858794 -0.086950 -16.165947
v -13.141206 -0.086950 -16.165947
v -13.920600 -0.086950 -19.152601
v -13.920601 -0.086950 -16.858795
v -13.834052 -0.086950 -19.141205
v -13.834052 -0.086950 -16.858795
v -13.141206 -0.086950 -16.341398
v -13.658601 -0.086950 -16.858795
v -13.305071 -0.086950 -16.702251
v -11.916131 -0.086950 -19.141205
v -10.858794 -0.086950 -18.109371
v -11.174907 -0.086950 -18.849201
v -13.912989 -2.013760 -16.087011
v -10.087011 -2.013760 -16.087011
v -13.912989 -2.013760 -19.912989
v -10.087011 -2.013760 -19.912989
v -10.891786 -2.013760 -16.087011
v -13.912989 -2.013760 -19.139870
v -13.128312 -2.013760 -16.087011
v -13.912989 -1.993419 -16.806543
v -11.290530 -2.013760 -18.363626
v -13.042780 -2.013760 -17.000078
vn -0.1477 0.6790 0.7192
vn -0.0910 0.7182 0.6899
vn -0.4308 0.7930 0.4308
vn -0.5066 0.6977 0.5066
vn -0.6899 0.7182 0.0910
vn -0.7148 0.6835 0.1482
vn 0.2074 0.3079 0.9285
vn 0.0014 0.0566 0.9984
vn -0.0000 -0.0000 1.0000
vn 0.1951 -0.0000 0.9808
vn -0.6731 0.3064 0.6731
vn -0.9276 0.3102 0.2080
vn -0.9808 -0.0000 0.1951
vn -0.7071 -0.0000 0.7071
vn 0.2031 0.2837 -0.9372
vn 0.6731 0.3064 -0.6731
vn 0.7071 -0.0000 -0.7071
vn 0.1951 -0.0000 -0.9808
vn -0.9793 0.2025 0.0054
vn -0.9917 0.1288 -0.0031
vn -1.0000 -0.0000 -0.0000
vn 0.9372 0.2837 0.2031
vn 0.6731 0.3064 0.6731
vn 0.7071 -0.0000 0.7071
vn 0.9808 -0.0000 0.1951
vn -0.9278 0.3100 -0.2076
vn -0.9808 -0.0000 -0.1951
vn 0.9372 0.2837 -0.2031
vn 0.9808 -0.0000 -0.1951
vn -0.1438 0.6401 -0.7547
vn -0.2031 0.2837 -0.9372
vn -0.6731 0.3064 -0.6731
vn -0.5066 0.6977 -0.5066
vn -0.7160 0.6823 -0.1476
vn 0.7547 0.6401 -0.1438
vn 0.5066 0.6977 -0.5066
vn 0.1438 0.6401 -0.7547
vn 0.1477 0.6790 0.7192
vn 0.5066 0.6977 0.5066
vn 0.7547 0.6401 0.1438
vn -0.2074 0.3079 0.9285
vn -0.0910 0.7182 -0.6899
vn -0.4308 0.7930 -0.4308
vn -0.6899 0.7182 -0.0910
vn 0.6899 0.7182 -0.0910
vn 0.4308 0.7930 -0.4308
vn 0.0910 0.7182 -0.6899
vn 0.0910 0.7182 0.6899
vn 0.4308 0.7930 0.4308
vn 0.6899 0.7182 0.0910
vn -0.0000 1.0000 -0.0000
vn -0.1951 -0.0000 0.9808
vn -0.0014 0.0566 0.9984
vn -0.1951 -0.0000 -0.9808
vn -0.7071 -0.0000 -0.7071
vn -0.0098 0.6432 0.7656
vn 0.0098 0.6432 0.7656
vn -0.0000 0.6768 0.7362
vn -0.7625 0.6468 -0.0110
vn -0.7541 0.6567 0.0092
vn -0.7362 0.6768 -0.0000
vn -0.1127 0.8474 0.5189
vn -0.1124 0.8657 0.4877
vn -0.0155 0.8667 0.4985
vn -0.0162 0.8664 0.4992
vn -0.0930 0.8823 0.4613
vn -0.0751 0.8819 0.4654
vn -0.3270 0.8884 0.3223
vn -0.3268 0.8884 0.3225
vn -0.4953 0.8624 0.1051
vn -0.5001 0.8617 0.0857
vn -0.5094 0.8606 0.0008
vn -0.5093 0.8606 0.0008
vn -0.3709 0.9217 0.1131
vn -0.4739 0.8211 0.3181
vn -0.3243 0.7902 0.5200
vn 0.5164 0.8477 -0.1211
vn 0.5137 0.8526 -0.0964
vn 0.3739 0.8448 -0.3828
vn 0.3816 0.8447 -0.3754
vn 0.4999 0.8661 -0.0000
vn 0.4739 0.8211 0.3181
vn 0.3709 0.9217 0.1131
vn 0.3243 0.7902 0.5200
vn 0.0942 0.8543 -0.5111
vn 0.1179 0.8501 -0.5132
vn -0.0000 0.8661 -0.4999
vn -0.2117 0.8557 -0.4722
vn -0.3181 0.8211 -0.4739
vn -0.5700 0.7492 -0.3374
vn -0.4478 0.8408 -0.3042
vn -0.2278 0.8589 0.4587
vn -0.0974 0.9221 0.3744
vn 0.1533 0.9882 -0.0000
vn -0.1533 0.9882 -0.0000
vn -0.0000 -1.0000 -0.0000
vn 0.0634 -0.9980 -0.0084
vn 0.0241 -0.9997 -0.0071
vn -0.0009 -1.0000 0.0004
vn 0.0449 -0.9990 0.0016
vn 0.0348 -0.9994 0.0018
vn -0.0055 -1.0000 -0.0016
vn 0.1125 -0.9936 -0.0090
vn 0.0478 -0.9988 -0.0082
vt 0.133099 0.541172
vt 0.133149 0.542694
vt 0.133175 0.542694
vt 0.133125 0.541172
vt 0.133237 0.542694
vt 0.133187 0.541172
vt 0.133069 0.539650
vt 0.133095 0.539650
vt 0.133157 0.539650
vt 0.137114 0.539650
vt 0.137088 0.539650
vt 0.117727 0.874393
vt 0.117822 0.874393
vt 0.136278 0.539650
vt 0.137026 0.539650
vt 0.133819 0.539650
vt 0.137083 0.541172
vt 0.137058 0.541172
vt 0.136996 0.541172
vt 0.137034 0.542694
vt 0.137008 0.542694
vt 0.136946 0.542694
vt 0.117698 0.874393
vt 0.136319 0.541172
vt 0.133809 0.541172
vt 0.133809 0.542694
vt 0.136374 0.542694
vt 0.133414 0.542694
vt 0.133701 0.542694
vt 0.136387 0.542694
vt 0.117705 0.874393
vt 0.117702 0.874393
vt 0.117821 0.874393
vt 0.117821 0.874393
vt 0.117732 0.874393
vt 0.117726 0.874393
vt 0.117810 0.874393
vt 0.117712 0.874393
vt 0.117781 0.874393
vt 0.136257 0.539650
vt 0.136246 0.539650
vt 0.135950 0.539650
vt 0.136061 0.542694
vt 0.135202 0.539650
vt 0.135202 0.542694
vt 0.133237 0.539650
vt 0.133149 0.539650
vt 0.133414 0.539650
vt 0.133779 0.539650
vt 0.133937 0.539650
vt 0.133081 0.542781
vt 0.133081 0.542808
vt 0.133085 0.542800
vt 0.133087 0.542781
vt 0.132824 0.541602
vt 0.132830 0.541602
vt 0.132830 0.541575
vt 0.132826 0.541583
vt 0.132830 0.542781
vt 0.132830 0.542808
vt 0.133030 0.541575
vt 0.133028 0.541602
vt 0.133081 0.541602
vt 0.133081 0.541575
vt 0.132824 0.542781
vt 0.132826 0.542800
vt 0.133087 0.541602
vt 0.133085 0.541583
vt 0.133002 0.542304
vt 0.132824 0.542553
vt 0.132830 0.542543
vt 0.132887 0.541883
vt 0.132881 0.541602
vt 0.132880 0.541575
vt 0.132824 0.541804
vt 0.132830 0.541824
s 1
f 38/1/1 5/2/2 6/3/3 39/4/4
f 39/4/4 6/3/3 4/5/5 37/6/6
f 35/7/7 56/7/8 3/7/9 9/7/10
f 27/8/11 26/9/12 63/9/13 54/8/14
f 31/10/15 33/11/16 14/11/17 19/10/18
f 66/12/19 65/13/20 2/13/21 1/12/21
f 34/9/22 36/8/23 8/8/24 13/9/25
f 65/14/20 28/15/26 53/15/27 2/14/21
f 32/15/28 34/9/22 13/9/25 15/15/29
f 26/9/12 66/16/19 1/16/21 63/9/13
f 41/17/30 29/10/31 30/11/32 42/18/33
f 42/18/33 30/11/32 28/15/26 40/19/34
f 44/19/35 32/15/28 33/11/16 45/18/36
f 45/18/36 33/11/16 31/10/15 43/17/37
f 47/1/38 35/7/7 36/8/23 48/4/39
f 48/4/39 36/8/23 34/9/22 46/6/40
f 25/7/41 38/1/1 39/4/4 27/8/11
f 27/8/11 39/4/4 37/6/6 26/9/12
f 10/20/42 41/17/30 42/18/33 12/21/43
f 12/21/43 42/18/33 40/19/34 11/22/44
f 22/22/45 44/19/35 45/18/36 24/21/46
f 24/21/46 45/18/36 43/17/37 23/20/47
f 16/2/48 47/1/38 48/4/39 18/3/49
f 18/3/49 48/4/39 46/6/40 17/5/50
f 49/22/51 10/20/51 12/21/51 11/22/51
f 25/7/41 27/8/11 54/8/14 64/7/52
f 56/23/8 55/23/53 7/23/9 3/23/9
f 41/17/30 10/20/42 23/20/47 43/17/37
f 44/19/35 22/22/45 17/5/50 46/6/40
f 5/2/51 50/5/51 4/5/51 6/3/51
f 29/10/31 41/17/30 43/17/37 31/10/15
f 32/15/28 44/19/35 46/6/40 34/9/22
f 22/22/51 24/21/51 23/20/51 51/22/51
f 18/3/51 17/5/51 52/5/51 16/2/51
f 17/5/51 22/22/51 51/22/51 52/5/51
f 51/22/51 23/20/51 10/20/51 49/22/51
f 30/11/32 29/10/31 21/10/54 20/11/55
f 33/11/16 32/15/28 15/15/29 14/11/17
f 36/8/23 35/7/7 9/7/10 8/8/24
f 55/7/53 25/7/41 64/7/52 7/7/9
f 55/7/53 58/1/56 38/1/1 25/7/41
f 35/7/7 47/1/38 57/1/57 56/7/8
f 47/1/38 16/2/48 60/2/58 57/1/57
f 58/1/56 59/2/58 5/2/2 38/1/1
f 59/2/51 62/5/51 50/5/51 5/2/51
f 16/2/51 52/5/51 61/5/51 60/2/51
f 29/10/31 31/10/15 19/10/18 21/10/54
f 28/15/26 30/11/32 20/11/55 53/15/27
f 65/14/20 68/24/59 40/19/34 28/15/26
f 26/9/12 37/6/6 67/25/60 66/16/19
f 37/6/6 4/5/5 70/26/61 67/25/60
f 68/24/59 69/27/61 11/22/44 40/19/34
f 71/27/51 49/22/51 11/22/51 69/27/51
f 50/5/51 72/26/51 70/26/51 4/5/51
f 62/5/51 73/28/51 75/29/51 74/26/51 72/26/51 50/5/51
f 51/22/51 49/22/51 71/27/51 76/30/51
f 82/31/51 79/32/51 80/32/51 81/31/51
f 85/33/51 83/34/51 84/35/51 86/35/51
f 90/33/51 88/35/51 89/36/51 92/37/51
f 92/37/51 89/36/51 87/38/51 91/39/51
f 90/33/51 85/33/51 86/35/51 88/35/51
f 81/31/51 91/39/51 87/38/51 82/31/51
f 56/23/51 80/32/51 79/32/51 55/23/51
f 66/12/51 84/35/51 83/34/51 65/13/51
f 69/27/62 83/40/63 85/41/64 71/27/65
f 71/27/65 85/41/64 90/41/66 76/30/67
f 76/30/67 90/41/66 92/42/68 78/43/69
f 78/43/69 92/42/68 91/44/70 77/45/71
f 77/45/71 91/44/70 81/46/72 61/5/73
f 61/5/73 81/46/72 80/47/74 60/2/75
f 57/1/76 60/2/75 80/47/74
f 51/22/51 78/43/51 77/45/51
f 52/5/51 51/22/51 77/45/51 61/5/51
f 78/43/51 51/22/51 76/30/51
f 73/28/77 87/48/78 89/49/79 75/29/80
f 62/5/81 82/46/81 87/48/78 73/28/77
f 59/2/82 79/47/83 82/46/81 62/5/81
f 79/47/83 59/2/82 58/1/84
f 75/29/80 89/49/79 88/50/85 74/26/86
f 74/26/86 88/50/85 86/50/87 72/26/87
f 72/26/87 86/50/87 84/50/88 70/26/89
f 67/25/90 70/26/89 84/50/88
f 66/16/91 67/25/90 84/50/88
f 83/40/63 69/27/62 68/24/92
f 65/14/93 83/40/63 68/24/92
f 55/7/94 79/47/83 58/1/84
f 56/7/95 57/1/76 80/47/74
f 96/51/96 19/52/96 14/53/96 15/54/96
f 63/55/97 93/56/98 64/57/96 54/58/96
f 95/59/96 21/60/96 19/52/96 96/51/96
f 3/61/96 97/62/96 94/63/96 9/64/96
f 53/65/96 20/66/96 21/60/96 95/59/96
f 9/64/96 94/63/96 13/67/96 8/68/96
f 101/69/99 96/51/96 94/63/96 97/62/96
f 2/70/100 53/65/96 95/59/96 98/71/101
f 94/63/96 96/51/96 15/54/96 13/67/96
f 102/72/102 101/69/99 97/62/96 99/73/96
f 7/74/96 99/73/96 97/62/96 3/61/96
f 1/75/103 2/70/100 98/71/101 100/76/104
f 93/56/98 100/76/104 102/72/102
f 64/57/96 93/56/98 99/73/96 7/74/96
f 63/55/97 1/75/103 100/76/104 93/56/98
f 100/76/104 98/71/101 101/69/99 102/72/102
f 98/71/101 95/59/96 96/51/96 101/69/99
f 99/73/96 93/56/98 102/72/102
