# Blender 5.0.1
# www.blender.org
o GEO_RoadTileConvert
v -13.920601 -0.013760 -4.165948
v -13.834052 -0.013760 -4.079400
v -13.895251 -0.013760 -4.104749
v -10.025485 -2.013760 -4.025485
v -10.087011 -2.013760 -4.000000
v -13.834052 -0.013760 -7.920600
v -13.920600 -0.013760 -7.834052
v -13.895251 -0.013760 -7.895251
v -10.000000 -2.013760 -4.087011
v -10.025485 -2.013760 -7.974515
v -10.000000 -2.013760 -7.912989
v -10.165948 -0.013760 -4.079400
v -10.079400 -0.013760 -4.165948
v -10.104749 -0.013760 -4.104749
v -10.087011 -2.013760 -8.000000
v -13.974515 -2.013760 -7.974515
v -13.912989 -2.013760 -8.000000
v -10.079399 -0.013760 -7.834052
v -10.165948 -0.013760 -7.920600
v -10.104749 -0.013760 -7.895251
v -13.912989 -0.120803 -4.000000
v -14.000000 -0.120803 -4.087011
v -13.974515 -0.120803 -4.025485
v -14.000000 -0.120803 -7.912989
v -13.912989 -0.120803 -8.000000
v -13.974515 -0.120803 -7.974515
v -10.087011 -0.120803 -8.000000
v -10.000000 -0.120803 -7.912989
v -10.025485 -0.120803 -7.974515
v -10.000000 -0.120803 -4.087011
v -10.087011 -0.120803 -4.000000
v -10.025485 -0.120803 -4.025485
v -13.969804 -0.067282 -4.116569
v -13.883431 -0.067282 -4.030196
v -13.944506 -0.067282 -4.055494
v -13.969804 -0.067282 -7.883431
v -13.883431 -0.067282 -7.969804
v -13.944506 -0.067282 -7.944506
v -10.116569 -0.067282 -7.969804
v -10.030196 -0.067282 -7.883431
v -10.055494 -0.067282 -7.944506
v -10.030196 -0.067282 -4.116569
v -10.116569 -0.067282 -4.030196
v -10.055494 -0.067282 -4.055494
v -13.834053 -0.013760 -7.834052
v -13.834052 -0.013760 -4.165948
v -10.165948 -0.013760 -7.834052
v -10.165948 -0.013760 -4.165948
v -14.000000 -2.013760 -7.912989
v -13.974515 -2.013760 -4.025485
v -13.141741 -0.120803 -4.000000
v -10.858259 -0.120803 -4.000000
v -10.731399 -0.067282 -4.030196
v -13.268601 -0.067282 -4.030196
v -13.268601 -0.013760 -4.079400
v -10.731399 -0.013760 -4.079400
v -14.000000 -2.013760 -4.087011
v -13.912989 -2.013760 -4.000000
v -10.731399 -0.013760 -4.165948
v -13.268601 -0.013760 -4.165948
v -10.858259 -0.120803 -4.094089
v -13.141741 -0.120803 -4.094089
v -13.141741 -0.120803 -4.165948
v -10.858259 -0.120803 -4.165948
v -13.912989 -2.013760 -4.087011
v -13.912989 -2.013760 -7.912989
v -10.087011 -2.013760 -7.912989
v -10.087011 -2.013760 -4.087011
v -10.000000 -2.013760 -6.573467
v -14.000000 -2.013760 -6.573467
v -14.000000 -0.120803 -6.573467
v -13.969804 -0.067282 -6.573467
v -13.920601 -0.013760 -6.573467
v -10.079399 -0.013760 -6.573467
v -10.000000 -0.120803 -6.573467
v -10.030196 -0.067282 -6.573467
v -13.834053 -0.013760 -6.573467
v -10.165948 -0.013760 -6.573467
v -13.268601 -0.013760 -6.573467
v -10.731399 -0.013760 -6.573467
v -13.141741 -0.120803 -5.679753
v -10.858259 -0.120803 -5.679753
v -13.912989 -2.013760 -6.573467
v -10.087011 -2.013760 -6.573467
vn -0.1438 0.6401 0.7547
vn -0.0910 0.7182 0.6899
vn -0.2447 0.7689 0.5908
vn -0.2845 0.6689 0.6868
vn -0.6868 0.6689 0.2845
vn -0.5908 0.7689 0.2447
vn -0.6899 0.7182 0.0910
vn -0.7547 0.6401 0.1438
vn -0.0000 0.0626 0.9980
vn -0.2031 0.2837 0.9372
vn -0.1951 -0.0000 0.9808
vn 0.9672 0.2540 -0.0000
vn 0.9372 0.2837 0.2031
vn 0.9808 -0.0000 0.1951
vn 1.0000 -0.0000 -0.0000
vn -0.2031 0.2837 -0.9372
vn 0.2031 0.2837 -0.9372
vn 0.1951 -0.0000 -0.9808
vn -0.1951 -0.0000 -0.9808
vn -0.6731 0.3064 0.6731
vn -0.7071 -0.0000 0.7071
vn -0.3668 0.2851 -0.8855
vn -0.3827 -0.0000 -0.9239
vn 0.8855 0.2851 -0.3668
vn 0.9372 0.2837 -0.2031
vn 0.9808 -0.0000 -0.1951
vn 0.9239 -0.0000 -0.3827
vn -0.1438 0.6401 -0.7547
vn -0.2845 0.6689 -0.6868
vn -0.6868 0.6689 -0.2845
vn -0.8855 0.2851 -0.3668
vn -0.9372 0.2837 -0.2031
vn -0.7547 0.6401 -0.1438
vn 0.7547 0.6401 -0.1438
vn 0.6868 0.6689 -0.2845
vn 0.2845 0.6689 -0.6868
vn 0.3668 0.2851 -0.8855
vn 0.1438 0.6401 -0.7547
vn 0.1438 0.6401 0.7547
vn 0.2031 0.2837 0.9372
vn 0.6731 0.3064 0.6731
vn 0.2845 0.6689 0.6868
vn 0.6868 0.6689 0.2845
vn 0.7547 0.6401 0.1438
vn -0.9372 0.2837 0.2031
vn -0.0910 0.7182 -0.6899
vn -0.2447 0.7689 -0.5908
vn -0.5908 0.7689 -0.2447
vn -0.6899 0.7182 -0.0910
vn 0.6899 0.7182 -0.0910
vn 0.5908 0.7689 -0.2447
vn 0.2447 0.7689 -0.5908
vn 0.0910 0.7182 -0.6899
vn 0.0910 0.7182 0.6899
vn 0.2447 0.7689 0.5908
vn 0.5908 0.7689 0.2447
vn 0.6899 0.7182 0.0910
vn -0.0000 1.0000 -0.0000
vn 0.5886 0.7972 0.1343
vn 0.4962 0.8134 0.3038
vn 0.5832 0.7992 0.1455
vn 0.1951 -0.0000 0.9808
vn 0.7071 -0.0000 0.7071
vn -0.9672 0.2540 -0.0000
vn -0.9808 -0.0000 -0.1951
vn -1.0000 -0.0000 -0.0000
vn -0.9239 -0.0000 -0.3827
vn -0.0000 0.5632 0.8263
vn -0.0000 0.6768 0.7362
vn -0.9808 -0.0000 0.1951
vn 0.3827 -0.0000 -0.9239
vn -0.4962 0.8134 0.3038
vn -0.5886 0.7972 0.1343
vn -0.5832 0.7992 0.1455
vn 0.6449 0.7643 -0.0000
vn -0.6449 0.7643 -0.0000
vn 0.8089 0.5880 -0.0000
vn -0.8089 0.5880 -0.0000
vn 0.7362 0.6768 -0.0000
vn -0.7362 0.6768 -0.0000
vn -0.0000 -1.0000 -0.0000
vn -0.0000 0.9929 0.1189
vt 0.129396 0.542217
vt 0.129422 0.542907
vt 0.129435 0.542907
vt 0.129409 0.542217
vt 0.129468 0.542907
vt 0.129441 0.542217
vt 0.129379 0.541526
vt 0.130442 0.541526
vt 0.129426 0.541526
vt 0.290304 0.638798
vt 0.129393 0.541526
vt 0.131584 0.541597
vt 0.131584 0.541597
vt 0.131491 0.541526
vt 0.131458 0.541526
vt 0.131585 0.541552
vt 0.131585 0.541552
vt 0.131475 0.542217
vt 0.131443 0.542217
vt 0.131586 0.541506
vt 0.131587 0.541506
vt 0.131449 0.542907
vt 0.131416 0.542907
vt 0.131589 0.541506
vt 0.129429 0.541526
vt 0.290310 0.638707
vt 0.290307 0.638707
vt 0.290305 0.638753
vt 0.292022 0.638354
vt 0.292028 0.638354
vt 0.129468 0.541526
vt 0.292033 0.638354
vt 0.130442 0.542907
vt 0.292146 0.638354
vt 0.130442 0.542217
vt 0.129841 0.541510
vt 0.129841 0.541529
vt 0.129844 0.541523
vt 0.129845 0.541510
vt 0.292324 0.639398
vt 0.292324 0.639353
vt 0.291844 0.639353
vt 0.291844 0.639398
vt 0.290373 0.638707
vt 0.291844 0.637356
vt 0.292324 0.637356
vt 0.292324 0.637311
vt 0.291844 0.637311
vt 0.129841 0.540694
vt 0.129841 0.540712
vt 0.129845 0.540712
vt 0.129844 0.540699
vt 0.292324 0.638354
vt 0.291844 0.638354
vt 0.129841 0.541111
vt 0.129845 0.541111
vt 0.129645 0.541111
vt 0.129645 0.541510
vt 0.129649 0.541510
vt 0.129649 0.541111
vt 0.129646 0.540699
vt 0.129645 0.540712
vt 0.129649 0.540712
vt 0.129649 0.540694
vt 0.129646 0.541523
vt 0.129649 0.541529
vt 0.291841 0.638305
vt 0.292328 0.638178
vt 0.291841 0.638531
vt 0.295246 0.638144
vt 0.288923 0.638564
vt 0.131909 0.541358
s 1
f 34/1/1 2/2/2 3/3/3 35/4/4
f 35/4/5 3/3/6 1/5/7 33/6/8
f 51/7/9 21/7/10 58/7/11
f 75/8/12 30/9/13 9/9/14 69/8/15
f 25/10/16 27/10/17 15/10/18 17/10/19
f 21/7/10 23/11/20 50/11/21 58/7/11
f 26/12/22 25/13/16 17/13/19 16/12/23
f 29/14/24 28/15/25 11/15/26 10/14/27
f 37/16/28 25/13/16 26/12/22 38/17/29
f 38/18/30 26/14/31 24/15/32 36/19/33
f 40/19/34 28/15/25 29/14/24 41/18/35
f 41/17/36 29/12/37 27/13/17 39/16/38
f 43/1/39 31/7/40 32/11/41 44/4/42
f 44/4/43 32/11/41 30/9/13 42/6/44
f 21/7/10 34/1/1 35/4/4 23/11/20
f 23/11/20 35/4/5 33/6/8 22/9/45
f 6/20/46 37/16/28 38/17/29 8/21/47
f 8/22/48 38/18/30 36/19/33 7/23/49
f 18/23/50 40/19/34 41/18/35 20/22/51
f 20/21/52 41/17/36 39/16/38 19/20/53
f 12/2/54 43/1/39 44/4/42 14/3/55
f 14/3/56 44/4/43 42/6/44 13/5/57
f 45/24/58 6/20/58 8/21/58
f 2/2/58 46/5/58 1/5/58 3/3/58
f 20/21/58 19/20/58 47/24/58
f 14/3/58 13/5/58 48/5/58 12/2/58
f 55/2/59 54/1/60 51/7/60 62/25/61
f 32/11/41 31/7/40 5/7/62 4/11/63
f 71/8/64 24/15/32 49/15/65 70/8/66
f 24/15/32 26/14/31 16/14/67 49/15/65
f 51/7/9 54/1/68 34/1/1 21/7/10
f 31/7/40 43/1/39 53/1/68 52/7/9
f 43/1/39 12/2/54 56/2/69 53/1/68
f 54/1/68 55/2/69 2/2/2 34/1/1
f 55/2/58 60/5/58 46/5/58 2/2/58
f 12/2/58 48/5/58 59/5/58 56/2/58
f 45/26/58 47/26/58 19/27/58 6/27/58
f 39/28/38 37/28/28 6/27/46 19/27/53
f 23/11/20 22/9/45 57/9/70 50/11/21
f 27/13/17 29/12/37 10/12/71 15/13/18
f 25/10/16 37/28/28 39/28/38 27/10/17
f 51/29/58 52/29/58 61/30/58 62/30/58
f 53/1/72 56/2/73 61/25/74 52/7/72
f 60/5/75 55/2/59 62/25/61 63/31/75
f 62/30/58 61/30/58 64/32/58 63/32/58
f 56/2/73 59/5/76 64/31/76 61/25/74
f 79/33/75 60/5/75 63/31/75 81/8/75
f 81/34/58 63/32/58 64/32/58 82/34/58
f 74/33/58 18/23/58 47/23/58 78/33/58
f 77/33/58 45/23/58 7/23/58 73/33/58
f 76/35/77 42/6/44 30/9/13 75/8/12
f 72/35/78 36/19/33 24/15/32 71/8/64
f 74/33/79 13/5/57 42/6/44 76/35/77
f 30/9/13 32/11/41 4/11/63 9/9/14
f 73/33/80 7/23/49 36/19/33 72/35/78
f 65/36/81 58/37/81 50/38/81 57/39/81
f 58/40/81 65/41/81 68/42/81 5/43/81
f 47/26/58 45/26/58 79/44/58 80/44/58
f 67/45/81 66/46/81 17/47/81 15/48/81
f 17/49/81 66/50/81 49/51/81 16/52/81
f 68/42/81 65/41/81 83/53/81 84/54/81
f 83/55/81 65/36/81 57/39/81 70/56/81
f 69/57/81 9/58/81 68/59/81 84/60/81
f 10/61/81 11/62/81 67/63/81 15/64/81
f 9/58/81 4/65/81 5/66/81 68/59/81
f 11/62/81 69/57/81 84/60/81 67/63/81
f 84/54/81 83/53/81 66/46/81 67/45/81
f 66/50/81 83/55/81 70/56/81 49/51/81
f 1/5/7 73/33/80 72/35/78 33/6/8
f 18/23/50 74/33/79 76/35/77 40/19/34
f 33/6/8 72/35/78 71/8/64 22/9/45
f 40/19/34 76/35/77 75/8/12 28/15/25
f 46/5/58 77/33/58 73/33/58 1/5/58
f 13/5/58 74/33/58 78/33/58 48/5/58
f 48/5/58 78/33/58 80/33/58 59/5/58
f 60/5/58 79/33/58 77/33/58 46/5/58
f 59/5/76 80/33/76 82/8/76 64/31/76
f 22/9/45 71/8/64 70/8/66 57/9/70
f 28/15/25 75/8/12 69/8/15 11/15/26
f 80/67/82 79/67/82 81/68/82 82/69/82
f 77/33/58 79/33/58 45/23/58
f 78/33/58 47/23/58 80/33/58
f 7/23/58 45/23/58 8/22/58
f 18/23/58 20/22/58 47/23/58
f 52/70/9 51/71/9 58/71/11 5/71/62
f 31/7/40 52/72/9 5/7/62
