# Blender 5.0.1
# www.blender.org
o GEO_BerryBush_C
v 9.860509 -0.016028 -19.603603
v 9.603604 -0.016028 -19.860508
v 9.678849 -0.016028 -19.678850
v 9.829511 0.430345 -19.515516
v 9.845010 0.841392 -19.845009
v 9.515516 0.430345 -19.829510
v 9.845010 0.720999 -19.643166
v 9.680205 0.667663 -19.680204
v 9.643167 0.720999 -19.845009
v 9.607483 0.430344 -19.607483
v 9.603604 -0.016028 -20.139492
v 9.860509 -0.016028 -20.396397
v 9.678849 -0.016028 -20.321150
v 9.845010 0.841392 -20.154991
v 9.829511 0.430345 -20.484484
v 9.515516 0.430345 -20.170490
v 9.845010 0.720999 -20.356834
v 9.680205 0.667663 -20.319796
v 9.607483 0.430344 -20.392517
v 9.643167 0.720999 -20.154991
v 10.396396 -0.016028 -19.860508
v 10.139491 -0.016028 -19.603603
v 10.321151 -0.016028 -19.678850
v 10.154990 0.841392 -19.845009
v 10.170489 0.430345 -19.515516
v 10.484484 0.430345 -19.829510
v 10.154990 0.720999 -19.643166
v 10.319795 0.667663 -19.680204
v 10.392517 0.430344 -19.607483
v 10.356833 0.720999 -19.845009
v 10.139491 -0.016028 -20.396397
v 10.396396 -0.016028 -20.139492
v 10.321151 -0.016028 -20.321150
v 10.154990 0.841392 -20.154991
v 10.484484 0.430345 -20.170490
v 10.170489 0.430345 -20.484484
v 10.356833 0.720999 -20.154991
v 10.319795 0.667663 -20.319796
v 10.392517 0.430344 -20.392517
v 10.154990 0.720999 -20.356834
v 9.829511 0.137281 -19.515516
v 9.607483 0.137281 -19.607483
v 9.515516 0.137281 -19.829510
v 9.829511 0.137281 -20.484484
v 9.607483 0.137281 -20.392517
v 9.515516 0.137281 -20.170490
v 10.484484 0.137281 -20.170490
v 10.392517 0.137281 -20.392517
v 10.170489 0.137281 -20.484484
v 10.170489 0.137281 -19.515516
v 10.392517 0.137281 -19.607483
v 10.484484 0.137281 -19.829510
v 9.671259 -0.011754 -19.125763
v 9.465735 -0.011754 -19.331287
v 9.525932 -0.011754 -19.185959
v 9.646461 0.315586 -19.055292
v 9.658860 0.617021 -19.318888
v 9.395265 0.315586 -19.306488
v 9.658860 0.528732 -19.157413
v 9.527017 0.489619 -19.187044
v 9.497385 0.528732 -19.318888
v 9.468839 0.315586 -19.128866
v 9.465735 -0.011754 -19.554474
v 9.671259 -0.011754 -19.759996
v 9.525932 -0.011754 -19.699800
v 9.658860 0.617021 -19.566872
v 9.646461 0.315586 -19.830467
v 9.395265 0.315586 -19.579271
v 9.658860 0.528732 -19.728348
v 9.527017 0.489619 -19.698715
v 9.468839 0.315586 -19.756893
v 9.497385 0.528732 -19.566872
v 10.099969 -0.011754 -19.331287
v 9.894445 -0.011754 -19.125763
v 10.039772 -0.011754 -19.185959
v 9.906844 0.617021 -19.318888
v 9.919244 0.315586 -19.055292
v 10.170440 0.315586 -19.306488
v 9.906844 0.528732 -19.157413
v 10.038688 0.489619 -19.187044
v 10.096866 0.315586 -19.128866
v 10.068319 0.528732 -19.318888
v 9.894445 -0.011754 -19.759996
v 10.099969 -0.011754 -19.554474
v 10.039772 -0.011754 -19.699800
v 9.906844 0.617021 -19.566872
v 10.170440 0.315586 -19.579271
v 9.919244 0.315586 -19.830467
v 10.068319 0.528732 -19.566872
v 10.038688 0.489619 -19.698715
v 10.096866 0.315586 -19.756893
v 9.906844 0.528732 -19.728348
v 9.646461 0.100673 -19.055292
v 9.468839 0.100673 -19.128866
v 9.395265 0.100673 -19.306488
v 9.646461 0.100673 -19.830467
v 9.468839 0.100673 -19.756893
v 9.395265 0.100673 -19.579271
v 10.170440 0.100673 -19.579271
v 10.096866 0.100673 -19.756893
v 9.919244 0.100673 -19.830467
v 9.919244 0.100673 -19.055292
v 10.096866 0.100673 -19.128866
v 10.170440 0.100673 -19.306488
v 10.131866 -0.009403 -20.269428
v 9.967447 -0.009403 -20.433846
v 10.015604 -0.009403 -20.317585
v 10.112027 0.252469 -20.213051
v 10.121946 0.493617 -20.423927
v 9.911071 0.252469 -20.414007
v 10.121946 0.422986 -20.294746
v 10.016472 0.391696 -20.318453
v 9.992767 0.422986 -20.423927
v 9.969930 0.252469 -20.271910
v 9.967447 -0.009403 -20.612396
v 10.131866 -0.009403 -20.776814
v 10.015604 -0.009403 -20.728657
v 10.121946 0.493617 -20.622314
v 10.112027 0.252469 -20.833191
v 9.911071 0.252469 -20.632235
v 10.121946 0.422986 -20.751495
v 10.016472 0.391696 -20.727789
v 9.969930 0.252469 -20.774332
v 9.992767 0.422986 -20.622314
v 10.474834 -0.009403 -20.433846
v 10.310415 -0.009403 -20.269428
v 10.426677 -0.009403 -20.317585
v 10.320334 0.493617 -20.423927
v 10.330254 0.252469 -20.213051
v 10.531210 0.252469 -20.414007
v 10.320334 0.422986 -20.294746
v 10.425809 0.391696 -20.318453
v 10.472352 0.252469 -20.271910
v 10.449514 0.422986 -20.423927
v 10.310415 -0.009403 -20.776814
v 10.474834 -0.009403 -20.612396
v 10.426677 -0.009403 -20.728657
v 10.320334 0.493617 -20.622314
v 10.531210 0.252469 -20.632235
v 10.330254 0.252469 -20.833191
v 10.449514 0.422986 -20.622314
v 10.425809 0.391696 -20.727789
v 10.472352 0.252469 -20.774332
v 10.320334 0.422986 -20.751495
v 10.112027 0.080538 -20.213051
v 9.969930 0.080538 -20.271910
v 9.911071 0.080538 -20.414007
v 10.112027 0.080538 -20.833191
v 9.969930 0.080538 -20.774332
v 9.911071 0.080538 -20.632235
v 10.531210 0.080538 -20.632235
v 10.472352 0.080538 -20.774332
v 10.330254 0.080538 -20.833191
v 10.330254 0.080538 -20.213051
v 10.472352 0.080538 -20.271910
v 10.531210 0.080538 -20.414007
v 10.351928 0.769024 -19.861097
v 10.350163 0.763601 -19.822819
v 10.386550 0.758891 -19.875118
v 10.397639 0.753042 -19.827856
v 10.351928 0.737259 -19.794519
v 10.323392 0.711310 -19.797714
v 10.386550 0.719987 -19.793575
v 10.359778 0.679090 -19.792355
v 10.308210 0.683631 -19.820105
v 10.296620 0.697922 -19.854155
v 10.333007 0.654307 -19.824911
v 10.321918 0.660156 -19.872171
v 10.308210 0.715396 -19.886684
v 10.323392 0.750213 -19.879257
v 10.333007 0.693211 -19.906452
v 10.359778 0.734108 -19.907673
v 10.308320 0.740770 -19.833712
v 10.411346 0.729566 -19.879923
v 10.422935 0.715276 -19.845875
v 10.411346 0.697802 -19.813345
v 10.396164 0.701888 -19.902313
v 10.411236 0.672428 -19.866318
v 10.396164 0.662984 -19.820770
v 10.367628 0.675939 -19.905508
v 10.369392 0.649596 -19.877211
v 10.367628 0.644174 -19.838930
v 10.131549 0.768912 -19.640324
v 10.125759 0.750452 -19.611355
v 10.165572 0.774783 -19.644962
v 10.168993 0.756024 -19.605297
v 10.131549 0.720046 -19.595369
v 10.117498 0.693573 -19.613127
v 10.165572 0.714935 -19.589907
v 10.157311 0.675586 -19.607803
v 10.118059 0.676030 -19.643217
v 10.109238 0.696543 -19.669954
v 10.149051 0.661026 -19.648506
v 10.145629 0.679785 -19.688171
v 10.118059 0.724896 -19.688171
v 10.117498 0.753421 -19.668182
v 10.149051 0.720874 -19.703562
v 10.157311 0.760223 -19.685665
v 10.101007 0.725814 -19.638136
v 10.196563 0.759779 -19.650251
v 10.205384 0.739266 -19.623514
v 10.196563 0.710913 -19.605297
v 10.197124 0.742236 -19.680342
v 10.213614 0.709995 -19.655333
v 10.197124 0.682388 -19.625286
v 10.183073 0.715763 -19.698099
v 10.188863 0.685357 -19.682114
v 10.183073 0.666897 -19.653145
v 10.256194 0.774096 -20.267525
v 10.253376 0.802756 -20.236347
v 10.295235 0.757593 -20.269764
v 10.306210 0.794479 -20.232424
v 10.256194 0.808746 -20.194422
v 10.226878 0.786150 -20.173651
v 10.295234 0.800030 -20.180231
v 10.268737 0.770994 -20.143761
v 10.212924 0.746978 -20.165146
v 10.200380 0.727106 -20.200489
v 10.242239 0.724381 -20.144375
v 10.231263 0.687495 -20.181715
v 10.212924 0.712329 -20.238249
v 10.226878 0.743713 -20.263184
v 10.242239 0.681944 -20.233908
v 10.268737 0.710980 -20.270378
v 10.209539 0.774849 -20.223120
v 10.324549 0.734996 -20.248993
v 10.337092 0.754868 -20.213648
v 10.324549 0.769645 -20.175890
v 10.310596 0.695824 -20.240486
v 10.327933 0.707125 -20.191019
v 10.310596 0.738261 -20.150953
v 10.281279 0.673228 -20.219715
v 10.284098 0.679218 -20.177792
v 10.281279 0.707878 -20.146612
v 9.627933 0.250426 -19.574144
v 9.618880 0.221750 -19.577631
v 9.647534 0.253033 -19.551224
v 9.638970 0.216190 -19.545565
v 9.627933 0.193574 -19.584002
v 9.639555 0.191830 -19.611900
v 9.647534 0.183403 -19.563295
v 9.668210 0.173877 -19.594028
v 9.661695 0.201567 -19.630106
v 9.660231 0.231540 -19.634096
v 9.688885 0.193193 -19.619762
v 9.697449 0.230036 -19.625420
v 9.661695 0.258420 -19.620249
v 9.639555 0.261460 -19.599827
v 9.688885 0.262823 -19.607689
v 9.668210 0.272349 -19.576956
v 9.627687 0.228108 -19.614302
v 9.674725 0.244658 -19.540878
v 9.676188 0.214686 -19.536888
v 9.674725 0.187806 -19.550735
v 9.696864 0.254396 -19.559086
v 9.708733 0.218118 -19.556683
v 9.696864 0.184766 -19.571157
v 9.708487 0.252652 -19.586983
v 9.717539 0.224476 -19.593355
v 9.708487 0.195800 -19.596840
v 9.792452 0.770623 -19.648256
v 9.780353 0.742012 -19.611607
v 9.835350 0.790999 -19.641006
v 9.830820 0.764576 -19.586554
v 9.792452 0.702580 -19.586975
v 9.791289 0.663539 -19.614948
v 9.835350 0.707663 -19.565954
v 9.846288 0.653598 -19.591278
v 9.810311 0.642476 -19.653711
v 9.802226 0.668400 -19.693342
v 9.857224 0.634052 -19.647690
v 9.861754 0.660474 -19.702143
v 9.810311 0.710519 -19.714993
v 9.791289 0.746874 -19.690001
v 9.857224 0.717387 -19.722742
v 9.846288 0.771452 -19.697418
v 9.768508 0.702174 -19.655842
v 9.882263 0.782575 -19.634985
v 9.890348 0.756650 -19.595354
v 9.882263 0.714532 -19.573704
v 9.901285 0.761512 -19.673748
v 9.924067 0.722876 -19.632854
v 9.901285 0.678177 -19.598694
v 9.900123 0.722471 -19.701721
v 9.912223 0.683039 -19.677088
v 9.900123 0.654428 -19.640440
v 9.919842 0.874204 -20.111048
v 9.909236 0.888260 -20.067442
v 9.964046 0.885598 -20.122349
v 9.962811 0.913810 -20.070074
v 9.919842 0.883394 -20.021883
v 9.912219 0.839366 -20.007219
v 9.964046 0.896854 -20.013145
v 9.967030 0.844664 -19.984907
v 9.924711 0.794361 -20.012707
v 9.915201 0.779216 -20.056202
v 9.970012 0.787811 -20.001905
v 9.971247 0.759599 -20.054180
v 9.924711 0.785170 -20.101871
v 9.912219 0.828110 -20.116425
v 9.970012 0.776555 -20.111111
v 9.967030 0.828745 -20.139347
v 9.889515 0.832509 -20.061695
v 10.009347 0.879048 -20.111547
v 10.018857 0.894193 -20.068052
v 10.009347 0.888239 -20.022383
v 10.021840 0.834043 -20.117035
v 10.044543 0.840900 -20.062559
v 10.021840 0.845299 -20.007832
v 10.014217 0.790015 -20.102371
v 10.024822 0.785150 -20.056814
v 10.014217 0.799205 -20.013206
v 9.494482 0.302602 -20.213390
v 9.483416 0.339177 -20.200830
v 9.499677 0.301838 -20.253271
v 9.481433 0.349194 -20.250612
v 9.494482 0.377764 -20.198267
v 9.527460 0.381997 -20.175629
v 9.499677 0.393892 -20.234747
v 9.543720 0.409750 -20.214972
v 9.566405 0.372526 -20.172235
v 9.571504 0.332762 -20.168949
v 9.587764 0.387477 -20.202866
v 9.606008 0.340122 -20.205524
v 9.566405 0.297364 -20.187359
v 9.527460 0.289943 -20.194151
v 9.587764 0.295423 -20.221388
v 9.543720 0.279566 -20.241165
v 9.520724 0.332371 -20.167006
v 9.521035 0.316790 -20.283901
v 9.515937 0.356553 -20.287188
v 9.521035 0.391952 -20.268778
v 9.559980 0.307319 -20.280508
v 9.566716 0.356945 -20.289131
v 9.559980 0.399373 -20.261986
v 9.592958 0.311552 -20.257870
v 9.604025 0.350138 -20.255306
v 9.592958 0.386714 -20.242746
v 9.411022 0.359904 -19.145494
v 9.397100 0.318316 -19.131706
v 9.435938 0.380762 -19.112974
v 9.420600 0.334650 -19.081165
v 9.411022 0.276524 -19.118547
v 9.434129 0.255313 -19.152159
v 9.435938 0.278644 -19.079969
v 9.472965 0.245551 -19.110090
v 9.471489 0.257021 -19.178894
v 9.471157 0.294429 -19.205616
v 9.509994 0.254757 -19.153879
v 9.525331 0.300869 -19.185688
v 9.471489 0.340400 -19.205841
v 9.434129 0.357432 -19.185162
v 9.509994 0.356876 -19.186884
v 9.472965 0.389969 -19.156763
v 9.418042 0.301656 -19.183254
v 9.474442 0.378499 -19.087959
v 9.474774 0.341090 -19.061237
v 9.474442 0.295119 -19.061012
v 9.511803 0.380206 -19.114695
v 9.527889 0.333863 -19.083599
v 9.511803 0.278087 -19.081692
v 9.534909 0.358995 -19.148306
v 9.548830 0.317203 -19.135147
v 9.534909 0.275616 -19.121359
v 9.420785 0.409256 -19.643616
v 9.408680 0.428966 -19.610628
v 9.437438 0.434382 -19.670347
v 9.422027 0.470082 -19.637501
v 9.420785 0.451271 -19.579336
v 9.445888 0.430621 -19.555531
v 9.437438 0.485839 -19.591621
v 9.474646 0.472423 -19.559582
v 9.481544 0.411960 -19.553642
v 9.483094 0.380821 -19.579159
v 9.511853 0.437694 -19.560152
v 9.527265 0.401994 -19.592999
v 9.481544 0.369946 -19.617922
v 9.445888 0.379165 -19.634256
v 9.511853 0.386237 -19.638880
v 9.474646 0.399653 -19.670919
v 9.433975 0.391993 -19.586462
v 9.467747 0.460116 -19.676859
v 9.466197 0.491255 -19.651340
v 9.467747 0.502130 -19.612577
v 9.503404 0.441455 -19.674971
v 9.515316 0.480084 -19.644039
v 9.503404 0.492911 -19.596243
v 9.528506 0.420806 -19.651165
v 9.540611 0.443110 -19.619873
v 9.528506 0.462820 -19.586884
v 10.096205 0.433998 -19.163855
v 10.097064 0.405891 -19.130919
v 10.130391 0.428694 -19.189907
v 10.146133 0.393092 -19.151459
v 10.096205 0.363939 -19.120201
v 10.059057 0.345364 -19.132473
v 10.130390 0.342890 -19.136444
v 10.092384 0.307495 -19.153656
v 10.034140 0.335159 -19.166391
v 10.021050 0.370642 -19.187490
v 10.054378 0.307641 -19.193014
v 10.038634 0.343243 -19.231462
v 10.034140 0.405218 -19.210045
v 10.059057 0.431169 -19.185936
v 10.054378 0.393446 -19.246479
v 10.092384 0.428841 -19.229265
v 10.045252 0.396592 -19.145844
v 10.150628 0.401177 -19.216532
v 10.163717 0.365693 -19.195433
v 10.150628 0.331117 -19.172878
v 10.125711 0.390971 -19.250450
v 10.139516 0.339743 -19.237080
v 10.125711 0.305166 -19.196987
v 10.088563 0.372396 -19.262722
v 10.087705 0.330444 -19.252005
v 10.088563 0.302337 -19.219069
v 9.595350 0.361755 -19.038088
v 9.584400 0.322920 -19.021923
v 9.634157 0.374594 -19.023310
v 9.630053 0.329572 -18.992136
v 9.595350 0.280898 -19.020031
v 9.594312 0.262561 -19.059427
v 9.634157 0.275566 -19.001194
v 9.644068 0.244211 -19.045174
v 9.611534 0.263189 -19.099331
v 9.604222 0.301230 -19.119045
v 9.653979 0.253876 -19.098314
v 9.658084 0.298899 -19.129486
v 9.611534 0.344045 -19.117388
v 9.594312 0.361590 -19.081541
v 9.653979 0.352905 -19.120430
v 9.644068 0.384259 -19.076450
v 9.573702 0.311180 -19.074492
v 9.676602 0.365282 -19.022293
v 9.683914 0.327240 -19.002579
v 9.676602 0.284425 -19.004236
v 9.693825 0.365910 -19.062197
v 9.714435 0.317290 -19.047132
v 9.693825 0.266881 -19.040081
v 9.692786 0.347573 -19.101593
v 9.703735 0.305551 -19.099699
v 9.692786 0.266716 -19.083534
v 9.574497 0.601652 -19.498644
v 9.566091 0.606585 -19.470303
v 9.598332 0.618287 -19.505955
v 9.592710 0.633475 -19.471729
v 9.574497 0.604676 -19.441599
v 9.579662 0.576240 -19.433664
v 9.598332 0.621989 -19.436089
v 9.611904 0.590559 -19.419912
v 9.596660 0.552098 -19.438812
v 9.593234 0.542191 -19.466890
v 9.625476 0.557595 -19.432676
v 9.631098 0.542408 -19.466902
v 9.596660 0.549075 -19.495859
v 9.579662 0.572537 -19.503531
v 9.625476 0.553893 -19.502542
v 9.611904 0.585323 -19.518719
v 9.566307 0.568775 -19.468300
v 9.627149 0.623784 -19.499817
v 9.630574 0.633691 -19.471741
v 9.627149 0.626807 -19.442772
v 9.644146 0.599643 -19.504967
v 9.657501 0.607108 -19.470331
v 9.644146 0.603345 -19.435101
v 9.649311 0.571207 -19.497032
v 9.657719 0.569297 -19.468327
v 9.649311 0.574230 -19.439985
v 10.161819 0.411734 -19.548100
v 10.166844 0.431704 -19.512209
v 10.184438 0.377105 -19.549284
v 10.203068 0.394959 -19.503820
v 10.161819 0.429287 -19.471209
v 10.121866 0.425302 -19.461208
v 10.184438 0.398604 -19.455114
v 10.139460 0.385905 -19.431694
v 10.088370 0.401279 -19.464815
v 10.076888 0.397401 -19.504377
v 10.094481 0.364300 -19.447283
v 10.075850 0.346447 -19.492746
v 10.088370 0.383725 -19.541704
v 10.121866 0.403803 -19.555378
v 10.094481 0.342802 -19.541452
v 10.139460 0.355501 -19.564871
v 10.114579 0.432716 -19.512440
v 10.190548 0.340127 -19.531752
v 10.202030 0.344005 -19.492188
v 10.190548 0.357681 -19.454863
v 10.157052 0.316104 -19.535357
v 10.164339 0.308690 -19.484125
v 10.157052 0.337602 -19.441187
v 10.117100 0.312118 -19.525356
v 10.112074 0.309701 -19.484356
v 10.117100 0.329672 -19.448467
v 9.768812 0.609899 -19.200743
v 9.760280 0.590505 -19.174067
v 9.799341 0.624335 -19.196247
v 9.796260 0.606867 -19.157034
v 9.768812 0.563071 -19.155760
v 9.767719 0.534768 -19.174690
v 9.799341 0.566982 -19.141155
v 9.806781 0.528044 -19.157915
v 9.780961 0.518882 -19.201761
v 9.775158 0.536385 -19.230408
v 9.814219 0.512862 -19.197496
v 9.817301 0.530330 -19.236712
v 9.780961 0.565711 -19.246744
v 9.767719 0.592122 -19.229784
v 9.814219 0.570215 -19.252588
v 9.806781 0.609153 -19.235828
v 9.751539 0.561310 -19.204460
v 9.832600 0.618315 -19.191982
v 9.838403 0.600812 -19.163336
v 9.832600 0.571487 -19.146999
v 9.845842 0.602429 -19.219053
v 9.862021 0.575887 -19.189285
v 9.845842 0.545076 -19.163961
v 9.844748 0.574127 -19.237984
v 9.853281 0.546692 -19.219677
v 9.844748 0.527298 -19.193001
v 9.800768 0.272167 -19.017181
v 9.792487 0.232233 -19.006592
v 9.841514 0.281317 -19.011568
v 9.843129 0.232592 -18.990189
v 9.800768 0.191873 -19.015423
v 9.788587 0.181989 -19.054531
v 9.841514 0.182977 -19.009415
v 9.837614 0.161537 -19.057983
v 9.794399 0.190120 -19.095465
v 9.784687 0.230086 -19.104622
v 9.833714 0.180831 -19.107445
v 9.832098 0.229556 -19.128824
v 9.794399 0.270415 -19.097223
v 9.788587 0.280330 -19.056684
v 9.833714 0.279171 -19.109598
v 9.837614 0.300611 -19.061029
v 9.768279 0.231195 -19.053993
v 9.880829 0.272028 -19.023548
v 9.890541 0.232062 -19.014391
v 9.880829 0.191733 -19.021791
v 9.886641 0.280159 -19.064482
v 9.906949 0.230953 -19.065022
v 9.886641 0.181819 -19.062330
v 9.874460 0.270275 -19.103590
v 9.882741 0.229916 -19.112421
v 9.874460 0.189981 -19.101831
v 9.809060 0.647729 -19.409594
v 9.803392 0.651485 -19.380898
v 9.837647 0.651943 -19.415480
v 9.839042 0.662242 -19.379702
v 9.809060 0.641519 -19.353727
v 9.800026 0.613636 -19.350471
v 9.837647 0.644337 -19.347059
v 9.834282 0.608716 -19.336674
v 9.803564 0.585922 -19.359909
v 9.796660 0.583393 -19.388466
v 9.830916 0.576245 -19.354628
v 9.829522 0.565945 -19.390406
v 9.803564 0.592131 -19.415773
v 9.800026 0.621242 -19.418892
v 9.830916 0.583850 -19.423048
v 9.834282 0.619471 -19.433435
v 9.785837 0.618825 -19.384529
v 9.865000 0.642266 -19.410200
v 9.871903 0.644795 -19.381641
v 9.865000 0.636056 -19.354336
v 9.868538 0.614551 -19.419636
v 9.882727 0.609363 -19.385580
v 9.868538 0.606946 -19.351215
v 9.859504 0.586669 -19.416380
v 9.865172 0.576702 -19.389210
v 9.859504 0.580459 -19.360516
v 10.297981 0.423155 -20.795401
v 10.292654 0.450281 -20.780012
v 10.328876 0.418850 -20.800692
v 10.331857 0.455742 -20.785595
v 10.297981 0.466266 -20.753233
v 10.285460 0.451353 -20.728294
v 10.328876 0.471650 -20.749046
v 10.321682 0.457258 -20.712456
v 10.286233 0.424905 -20.710947
v 10.278266 0.399625 -20.728224
v 10.314488 0.420994 -20.697258
v 10.311508 0.384103 -20.712355
v 10.286233 0.381794 -20.753117
v 10.285460 0.398553 -20.779942
v 10.314488 0.368194 -20.748903
v 10.321682 0.382587 -20.785494
v 10.270456 0.427037 -20.756248
v 10.357131 0.414940 -20.787003
v 10.365098 0.440220 -20.769726
v 10.357131 0.458051 -20.744833
v 10.357904 0.388492 -20.769655
v 10.372908 0.412808 -20.741701
v 10.357904 0.441292 -20.718010
v 10.345384 0.373579 -20.744717
v 10.350710 0.389563 -20.717937
v 10.345384 0.416690 -20.702549
v 10.480114 0.428262 -20.537308
v 10.482293 0.437828 -20.496496
v 10.510485 0.401451 -20.548288
v 10.527081 0.409513 -20.498573
v 10.480114 0.422410 -20.457518
v 10.442225 0.406129 -20.449697
v 10.510485 0.394284 -20.450567
v 10.470416 0.364684 -20.432390
v 10.414683 0.376497 -20.460886
v 10.402157 0.381596 -20.500622
v 10.430348 0.338052 -20.454691
v 10.413752 0.329990 -20.504406
v 10.414683 0.382349 -20.540674
v 10.442225 0.413296 -20.547421
v 10.430348 0.345219 -20.552412
v 10.470417 0.374819 -20.570589
v 10.430548 0.426265 -20.497345
v 10.526150 0.363006 -20.542093
v 10.538676 0.357907 -20.502357
v 10.526150 0.357154 -20.462305
v 10.498608 0.333374 -20.553282
v 10.510285 0.313238 -20.505634
v 10.498608 0.326207 -20.455559
v 10.460719 0.317093 -20.545460
v 10.458540 0.301675 -20.506483
v 10.460719 0.311241 -20.465672
vn -0.1586 -0.5158 0.8419
vn -0.8419 -0.5158 0.1586
vn -0.5906 -0.5499 0.5906
vn -0.1861 0.1988 0.9622
vn -0.2400 0.9406 0.2400
vn -0.9622 0.1988 0.1861
vn -0.1955 0.6631 0.7225
vn -0.5883 0.5549 0.5883
vn -0.7225 0.6631 0.1955
vn -0.6928 0.2005 0.6928
vn -0.8419 -0.5158 -0.1586
vn -0.1586 -0.5158 -0.8419
vn -0.5906 -0.5499 -0.5906
vn -0.2400 0.9406 -0.2400
vn -0.1861 0.1988 -0.9622
vn -0.9622 0.1988 -0.1861
vn -0.1955 0.6631 -0.7225
vn -0.5883 0.5549 -0.5883
vn -0.6928 0.2005 -0.6928
vn -0.7225 0.6631 -0.1955
vn 0.8419 -0.5158 0.1586
vn 0.1586 -0.5158 0.8419
vn 0.5906 -0.5499 0.5906
vn 0.2400 0.9406 0.2400
vn 0.1861 0.1988 0.9622
vn 0.9622 0.1988 0.1861
vn 0.1955 0.6631 0.7225
vn 0.5883 0.5549 0.5883
vn 0.6928 0.2005 0.6928
vn 0.7225 0.6631 0.1955
vn 0.1586 -0.5158 -0.8419
vn 0.8419 -0.5158 -0.1586
vn 0.5906 -0.5499 -0.5906
vn 0.2400 0.9406 -0.2400
vn 0.9622 0.1988 -0.1861
vn 0.1861 0.1988 -0.9622
vn 0.7225 0.6631 -0.1955
vn 0.5883 0.5549 -0.5883
vn 0.6928 0.2005 -0.6928
vn 0.1955 0.6631 -0.7225
vn -0.1919 -0.2600 0.9463
vn -0.6810 -0.2694 0.6810
vn -0.9463 -0.2600 0.1919
vn -0.1919 -0.2600 -0.9463
vn -0.6810 -0.2694 -0.6810
vn -0.9463 -0.2600 -0.1919
vn 0.9463 -0.2600 -0.1919
vn 0.6810 -0.2694 -0.6810
vn 0.1919 -0.2600 -0.9463
vn 0.1919 -0.2600 0.9463
vn 0.6810 -0.2694 0.6810
vn 0.9463 -0.2600 0.1919
vn -0.1542 -0.5489 0.8215
vn -0.8215 -0.5489 0.1542
vn -0.5743 -0.5833 0.5743
vn -0.1855 0.2140 0.9591
vn -0.2247 0.9482 0.2247
vn -0.9591 0.2140 0.1855
vn -0.1873 0.6873 0.7018
vn -0.5732 0.5856 0.5732
vn -0.7018 0.6873 0.1873
vn -0.6905 0.2154 0.6905
vn -0.8215 -0.5489 -0.1542
vn -0.1542 -0.5489 -0.8215
vn -0.5743 -0.5833 -0.5743
vn -0.2247 0.9482 -0.2247
vn -0.1855 0.2140 -0.9591
vn -0.9591 0.2140 -0.1855
vn -0.1873 0.6873 -0.7018
vn -0.5732 0.5856 -0.5732
vn -0.6905 0.2154 -0.6905
vn -0.7018 0.6873 -0.1873
vn 0.8215 -0.5489 0.1542
vn 0.1542 -0.5489 0.8215
vn 0.5743 -0.5833 0.5743
vn 0.2247 0.9482 0.2247
vn 0.1855 0.2140 0.9591
vn 0.9591 0.2140 0.1855
vn 0.1873 0.6873 0.7018
vn 0.5732 0.5856 0.5732
vn 0.6905 0.2154 0.6905
vn 0.7018 0.6873 0.1873
vn 0.1542 -0.5489 -0.8215
vn 0.8215 -0.5489 -0.1542
vn 0.5743 -0.5833 -0.5743
vn 0.2247 0.9482 -0.2247
vn 0.9591 0.2140 -0.1855
vn 0.1855 0.2140 -0.9591
vn 0.7018 0.6873 -0.1873
vn 0.5732 0.5856 -0.5732
vn 0.6905 0.2154 -0.6905
vn 0.1873 0.6873 -0.7018
vn -0.1911 -0.2778 0.9415
vn -0.6774 -0.2866 0.6774
vn -0.9415 -0.2778 0.1911
vn -0.1911 -0.2778 -0.9415
vn -0.6774 -0.2866 -0.6774
vn -0.9415 -0.2778 -0.1911
vn 0.9415 -0.2778 -0.1911
vn 0.6774 -0.2866 -0.6774
vn 0.1911 -0.2778 -0.9415
vn 0.1911 -0.2778 0.9415
vn 0.6774 -0.2866 0.6774
vn 0.9415 -0.2778 0.1911
vn -0.1229 0.9771 -0.1735
vn -0.1505 0.8923 0.4257
vn 0.4191 0.8185 -0.3929
vn 0.5926 0.7270 0.3468
vn -0.1229 0.4799 0.8687
vn -0.5696 0.0737 0.8186
vn 0.4191 0.2096 0.8834
vn -0.0000 -0.4306 0.9025
vn -0.8072 -0.3595 0.4682
vn -0.9886 -0.1358 -0.0648
vn -0.4191 -0.8185 0.3929
vn -0.5926 -0.7270 -0.3468
vn -0.8072 0.1377 -0.5740
vn -0.5696 0.6827 -0.4577
vn -0.4191 -0.2096 -0.8834
vn -0.0000 0.4306 -0.9025
vn -0.8055 0.5349 0.2552
vn 0.8072 0.3595 -0.4682
vn 0.9886 0.1358 0.0648
vn 0.8072 -0.1377 0.5740
vn 0.5696 -0.0737 -0.8186
vn 0.8055 -0.5349 -0.2552
vn 0.5696 -0.6827 0.4577
vn 0.1229 -0.4799 -0.8687
vn 0.1505 -0.8923 -0.4257
vn 0.1229 -0.9771 0.1735
vn -0.4480 0.8870 0.1115
vn -0.5487 0.5660 0.6153
vn 0.1437 0.9891 0.0308
vn 0.2032 0.6629 0.7206
vn -0.4480 0.0372 0.8933
vn -0.6924 -0.4231 0.5845
vn 0.1437 -0.0516 0.9883
vn -0.0000 -0.7360 0.6770
vn -0.6826 -0.7282 0.0612
vn -0.8360 -0.3715 -0.4038
vn -0.1437 -0.9891 -0.0308
vn -0.2032 -0.6629 -0.7206
vn -0.6826 0.1216 -0.7206
vn -0.6924 0.6177 -0.3730
vn -0.1437 0.0516 -0.9883
vn -0.0000 0.7360 -0.6770
vn -0.9791 0.1375 0.1495
vn 0.6826 0.7282 -0.0612
vn 0.8360 0.3715 0.4038
vn 0.6826 -0.1216 0.7206
vn 0.6924 0.4231 -0.5845
vn 0.9791 -0.1375 -0.1495
vn 0.6924 -0.6177 0.3730
vn 0.4480 -0.0372 -0.8933
vn 0.5487 -0.5660 -0.6153
vn 0.4480 -0.8870 -0.1115
vn -0.1790 0.4726 -0.8629
vn -0.2193 0.8816 -0.4179
vn 0.3782 0.2370 -0.8949
vn 0.5349 0.7635 -0.3619
vn -0.1790 0.9671 0.1805
vn -0.5975 0.6446 0.4770
vn 0.3782 0.8427 0.3831
vn -0.0000 0.4283 0.9036
vn -0.7966 0.0855 0.5984
vn -0.9757 -0.1981 0.0939
vn -0.3782 -0.2370 0.8949
vn -0.5349 -0.7635 0.3619
vn -0.7966 -0.4091 -0.4450
vn -0.5975 0.0389 -0.8010
vn -0.3782 -0.8427 -0.3831
vn -0.0000 -0.4283 -0.9036
vn -0.8449 0.4833 -0.2291
vn 0.7966 -0.0855 -0.5984
vn 0.9757 0.1981 -0.0939
vn 0.7966 0.4091 0.4450
vn 0.5975 -0.6446 -0.4770
vn 0.8449 -0.4833 0.2291
vn 0.5975 -0.0389 0.8010
vn 0.1790 -0.9671 -0.1805
vn 0.2193 -0.8816 0.4179
vn 0.1790 -0.4726 0.8629
vn -0.8060 0.5466 0.2271
vn -0.9872 -0.0273 0.1573
vn -0.4137 0.5987 0.6858
vn -0.5851 -0.1385 0.7990
vn -0.8060 -0.5911 0.0298
vn -0.5734 -0.6260 -0.5285
vn -0.4137 -0.7947 0.4442
vn -0.0000 -0.9853 -0.1708
vn -0.1304 -0.4312 -0.8928
vn -0.1597 0.1686 -0.9727
vn 0.4137 -0.5987 -0.6858
vn 0.5851 0.1385 -0.7990
vn -0.1304 0.7066 -0.6955
vn -0.5734 0.7674 -0.2869
vn 0.4137 0.7947 -0.4442
vn -0.0000 0.9853 0.1708
vn -0.8109 0.1000 -0.5765
vn 0.1304 0.4312 0.8928
vn 0.1597 -0.1686 0.9727
vn 0.1304 -0.7066 0.6955
vn 0.5734 0.6260 0.5285
vn 0.8109 -0.1000 0.5765
vn 0.5734 -0.7674 0.2869
vn 0.8060 0.5911 -0.0298
vn 0.9872 0.0273 -0.1573
vn 0.8060 -0.5466 -0.2271
vn -0.6789 0.7326 -0.0493
vn -0.8314 0.3718 0.4129
vn -0.1379 0.9895 0.0421
vn -0.1950 0.6564 0.7288
vn -0.6789 -0.1254 0.7235
vn -0.6935 -0.6177 0.3707
vn -0.1379 -0.0613 0.9885
vn -0.0000 -0.7431 0.6692
vn -0.4537 -0.8833 -0.1181
vn -0.5556 -0.5564 -0.6178
vn 0.1379 -0.9895 -0.0421
vn 0.1950 -0.6564 -0.7288
vn -0.4537 -0.0253 -0.8908
vn -0.6935 0.4331 -0.5757
vn 0.1379 0.0613 -0.9885
vn -0.0000 0.7431 -0.6692
vn -0.9808 -0.1305 -0.1449
vn 0.4537 0.8833 0.1181
vn 0.5556 0.5564 0.6178
vn 0.4537 0.0253 0.8908
vn 0.6935 0.6177 -0.3707
vn 0.9808 0.1305 0.1449
vn 0.6935 -0.4331 0.5757
vn 0.6789 0.1254 -0.7235
vn 0.8314 -0.3718 -0.4129
vn 0.6789 -0.7326 0.0493
vn -0.6079 0.4831 -0.6302
vn -0.7445 0.6641 -0.0685
vn -0.0384 0.6298 -0.7758
vn -0.0543 0.9933 -0.1024
vn -0.6079 0.6015 0.5184
vn -0.7061 0.0343 0.7073
vn -0.0384 0.7748 0.6310
vn -0.0000 0.1025 0.9947
vn -0.5451 -0.5455 0.6366
vn -0.6676 -0.7406 0.0763
vn 0.0384 -0.6298 0.7758
vn 0.0543 -0.9933 0.1024
vn -0.5451 -0.6639 -0.5120
vn -0.7061 -0.1107 -0.6994
vn 0.0384 -0.7748 -0.6310
vn -0.0000 -0.1025 -0.9947
vn -0.9985 -0.0540 0.0056
vn 0.5451 0.5455 -0.6366
vn 0.6676 0.7406 -0.0763
vn 0.5451 0.6639 0.5120
vn 0.7061 -0.0343 -0.7073
vn 0.9985 0.0540 -0.0056
vn 0.7061 0.1107 0.6994
vn 0.6079 -0.6015 -0.5184
vn 0.7445 -0.6641 0.0685
vn 0.6079 -0.4831 0.6302
vn -0.7416 -0.6334 0.2211
vn -0.9082 -0.0825 0.4102
vn -0.6633 -0.6449 -0.3796
vn -0.9381 0.0683 -0.3395
vn -0.7416 0.4986 0.4488
vn -0.2449 0.5624 0.7898
vn -0.6633 0.7415 -0.1006
vn -0.0000 0.9804 0.1973
vn 0.3417 0.4197 0.8409
vn 0.4184 -0.1792 0.8904
vn 0.6633 0.6449 0.3796
vn 0.9381 -0.0683 0.3395
vn 0.3417 -0.7123 0.6131
vn -0.2449 -0.8241 0.5108
vn 0.6633 -0.7415 0.1006
vn -0.0000 -0.9804 -0.1973
vn -0.3463 -0.1851 0.9197
vn -0.3417 -0.4197 -0.8409
vn -0.4184 0.1792 -0.8904
vn -0.3417 0.7123 -0.6131
vn 0.2449 -0.5624 -0.7898
vn 0.3463 0.1851 -0.9197
vn 0.2449 0.8241 -0.5108
vn 0.7416 -0.4986 -0.4488
vn 0.9082 0.0825 -0.4102
vn 0.7416 0.6334 -0.2211
vn -0.8163 0.5554 -0.1590
vn -0.9997 0.0073 0.0227
vn -0.4879 0.8302 0.2695
vn -0.6901 0.2226 0.6887
vn -0.8163 -0.5434 0.1961
vn -0.5118 -0.8229 -0.2468
vn -0.4879 -0.5155 0.7044
vn -0.0000 -0.9515 0.3075
vn -0.0195 -0.8004 -0.5992
vn -0.0238 -0.3074 -0.9513
vn 0.4879 -0.8302 -0.2695
vn 0.6901 -0.2226 -0.6887
vn -0.0195 0.2984 -0.9543
vn -0.5118 0.5228 -0.6817
vn 0.4879 0.5155 -0.7044
vn -0.0000 0.9515 -0.3075
vn -0.7238 -0.2122 -0.6566
vn 0.0195 0.8004 0.5992
vn 0.0238 0.3074 0.9513
vn 0.0195 -0.2983 0.9543
vn 0.5118 0.8229 0.2468
vn 0.7238 0.2122 0.6566
vn 0.5118 -0.5228 0.6817
vn 0.8163 0.5434 -0.1961
vn 0.9997 -0.0073 -0.0227
vn 0.8163 -0.5554 0.1590
vn -0.8099 -0.4027 -0.4265
vn -0.9919 -0.1063 0.0695
vn -0.5595 -0.0249 -0.8285
vn -0.7912 0.5119 -0.3346
vn -0.8099 0.2290 0.5400
vn -0.4324 -0.0814 0.8980
vn -0.5595 0.7488 0.3553
vn -0.0000 0.5471 0.8371
vn 0.1037 -0.3620 0.9264
vn 0.1270 -0.8303 0.5427
vn 0.5595 0.0249 0.8285
vn 0.7912 -0.5119 0.3346
vn 0.1037 -0.9938 -0.0402
vn -0.4324 -0.8552 -0.2858
vn 0.5595 -0.7488 -0.3553
vn -0.0000 -0.5471 -0.8371
vn -0.6115 -0.6623 0.4329
vn -0.1037 0.3620 -0.9264
vn -0.1270 0.8303 -0.5427
vn -0.1037 0.9938 0.0402
vn 0.4324 0.0814 -0.8980
vn 0.6115 0.6623 -0.4329
vn 0.4324 0.8552 0.2858
vn 0.8099 -0.2290 -0.5400
vn 0.9919 0.1063 -0.0695
vn 0.8099 0.4027 0.4265
vn 0.0534 0.9209 0.3862
vn 0.0655 0.5277 0.8469
vn 0.5317 0.8467 0.0217
vn 0.7519 0.3487 0.5596
vn 0.0534 -0.0592 0.9968
vn -0.4662 -0.3190 0.8252
vn 0.5317 -0.3536 0.7696
vn -0.0000 -0.8487 0.5288
vn -0.8147 -0.4617 0.3507
vn -0.9979 0.0346 0.0556
vn -0.5317 -0.8467 -0.0217
vn -0.7519 -0.3487 -0.5596
vn -0.8147 0.5183 -0.2600
vn -0.4662 0.8813 0.0773
vn -0.5317 0.3536 -0.7696
vn -0.0000 0.8487 -0.5288
vn -0.6593 0.3976 0.6381
vn 0.8147 0.4617 -0.3507
vn 0.9979 -0.0346 -0.0556
vn 0.8147 -0.5183 0.2600
vn 0.4662 0.3190 -0.8252
vn 0.6593 -0.3976 -0.6381
vn 0.4662 -0.8813 -0.0773
vn -0.0534 0.0591 -0.9968
vn -0.0655 -0.5277 -0.8469
vn -0.0534 -0.9209 -0.3862
vn -0.6790 0.6623 0.3167
vn -0.8316 0.1210 0.5420
vn -0.1381 0.8413 0.5227
vn -0.1953 0.2138 0.9572
vn -0.6790 -0.4646 0.5684
vn -0.6935 -0.7202 0.0193
vn -0.1381 -0.5390 0.8309
vn -0.0000 -0.9760 0.2180
vn -0.4534 -0.7115 -0.5369
vn -0.5554 -0.1813 -0.8116
vn 0.1381 -0.8413 -0.5227
vn 0.1953 -0.2138 -0.9572
vn -0.4534 0.4155 -0.7885
vn -0.6935 0.6600 -0.2889
vn 0.1381 0.5390 -0.8309
vn -0.0000 0.9760 -0.2180
vn -0.9807 -0.0426 -0.1907
vn 0.4534 0.7115 0.5369
vn 0.5554 0.1813 0.8116
vn 0.4534 -0.4155 0.7885
vn 0.6935 0.7202 -0.0193
vn 0.9807 0.0426 0.1907
vn 0.6935 -0.6600 0.2889
vn 0.6790 0.4646 -0.5684
vn 0.8316 -0.1210 -0.5420
vn 0.6790 -0.6623 -0.3167
vn -0.7561 0.2772 -0.5928
vn -0.9261 0.3769 -0.0200
vn -0.2743 0.6134 -0.7406
vn -0.3880 0.9204 -0.0488
vn -0.7561 0.3383 0.5602
vn -0.6517 -0.2365 0.7206
vn -0.2743 0.6882 0.6716
vn -0.0000 0.0529 0.9986
vn -0.3081 -0.7245 0.6166
vn -0.3774 -0.9248 0.0490
vn 0.2743 -0.6134 0.7406
vn 0.3880 -0.9204 0.0488
vn -0.3081 -0.7856 -0.5365
vn -0.6517 -0.3114 -0.6916
vn 0.2743 -0.6882 -0.6716
vn -0.0000 -0.0529 -0.9986
vn -0.9217 -0.3874 0.0205
vn 0.3081 0.7245 -0.6166
vn 0.3774 0.9248 -0.0490
vn 0.3081 0.7856 0.5365
vn 0.6517 0.2365 -0.7206
vn 0.9217 0.3874 -0.0205
vn 0.6517 0.3114 0.6916
vn 0.7561 -0.3383 -0.5602
vn 0.9261 -0.3769 0.0200
vn 0.7561 -0.2772 0.5928
vn 0.3274 0.6007 -0.7293
vn 0.4009 0.8931 -0.2039
vn 0.6585 0.0937 -0.7467
vn 0.9313 0.3551 -0.0811
vn 0.3274 0.8577 0.3964
vn -0.2576 0.7994 0.5428
vn 0.6585 0.4085 0.6320
vn -0.0000 0.2226 0.9749
vn -0.7480 0.4477 0.4900
vn -0.9161 0.3909 -0.0892
vn -0.6585 -0.0937 0.7467
vn -0.9313 -0.3551 0.0811
vn -0.7480 0.1907 -0.6357
vn -0.2576 0.4846 -0.8359
vn -0.6585 -0.4085 -0.6320
vn -0.0000 -0.2226 -0.9749
vn -0.3643 0.9079 -0.2073
vn 0.7480 -0.4477 -0.4900
vn 0.9161 -0.3909 0.0892
vn 0.7480 -0.1907 0.6357
vn 0.2576 -0.7994 -0.5428
vn 0.3643 -0.9079 0.2073
vn 0.2576 -0.4846 0.8359
vn -0.3274 -0.8577 -0.3964
vn -0.4009 -0.8931 0.2039
vn -0.3274 -0.6007 0.7293
vn -0.6752 0.7344 -0.0688
vn -0.8269 0.3896 0.4055
vn -0.1323 0.9911 0.0111
vn -0.1871 0.6805 0.7084
vn -0.6752 -0.0983 0.7311
vn -0.6946 -0.6016 0.3944
vn -0.1323 -0.0287 0.9908
vn -0.0000 -0.7212 0.6928
vn -0.4591 -0.8841 -0.0870
vn -0.5623 -0.5728 -0.5964
vn 0.1323 -0.9911 -0.0111
vn 0.1871 -0.6805 -0.7084
vn -0.4591 -0.0514 -0.8869
vn -0.6946 0.4183 -0.5853
vn 0.1323 0.0287 -0.9908
vn -0.0000 0.7212 -0.6928
vn -0.9823 -0.1296 -0.1349
vn 0.4591 0.8841 0.0870
vn 0.5623 0.5728 0.5964
vn 0.4591 0.0514 0.8869
vn 0.6946 0.6016 -0.3944
vn 0.9823 0.1296 0.1349
vn 0.6946 -0.4183 0.5853
vn 0.6752 0.0983 -0.7311
vn 0.8269 -0.3896 -0.4055
vn 0.6752 -0.7344 0.0688
vn -0.5297 0.5908 0.6085
vn -0.6488 0.0167 0.7608
vn 0.0561 0.7224 0.6892
vn 0.0793 0.0218 0.9966
vn -0.5297 -0.5636 0.6338
vn -0.7049 -0.7057 0.0715
vn 0.0561 -0.6915 0.7202
vn -0.0000 -0.9998 0.0219
vn -0.6213 -0.5888 -0.5170
vn -0.7610 -0.0142 -0.6487
vn -0.0561 -0.7224 -0.6892
vn -0.0793 -0.0218 -0.9966
vn -0.6213 0.5656 -0.5423
vn -0.7049 0.7082 0.0406
vn -0.0561 0.6915 -0.7202
vn -0.0000 0.9998 -0.0219
vn -0.9969 0.0017 0.0793
vn 0.6213 0.5888 0.5170
vn 0.7610 0.0142 0.6487
vn 0.6213 -0.5656 0.5423
vn 0.7049 0.7057 -0.0715
vn 0.9969 -0.0017 -0.0793
vn 0.7049 -0.7082 -0.0406
vn 0.5297 0.5636 -0.6338
vn 0.6488 -0.0167 -0.7608
vn 0.5297 -0.5908 -0.6085
vn -0.5181 0.6910 -0.5041
vn -0.6346 0.7681 0.0854
vn 0.0691 0.7775 -0.6250
vn 0.0978 0.9891 0.1099
vn -0.5181 0.5634 0.6435
vn -0.7037 -0.0094 0.7104
vn 0.0691 0.6213 0.7805
vn -0.0000 -0.1105 0.9939
vn -0.6310 -0.5787 0.5166
vn -0.7729 -0.6307 -0.0701
vn -0.0691 -0.7775 0.6250
vn -0.0978 -0.9891 -0.1099
vn -0.6310 -0.4512 -0.6311
vn -0.7037 0.1468 -0.6951
vn -0.0691 -0.6213 -0.7805
vn -0.0000 0.1105 -0.9939
vn -0.9952 0.0972 0.0108
vn 0.6310 0.5787 -0.5166
vn 0.7729 0.6307 0.0701
vn 0.6310 0.4512 0.6311
vn 0.7037 0.0094 -0.7104
vn 0.9952 -0.0972 -0.0108
vn 0.7037 -0.1468 0.6951
vn 0.5181 -0.5634 -0.6435
vn 0.6346 -0.7681 -0.0854
vn 0.5181 -0.6910 0.5041
vn -0.4538 0.0619 -0.8889
vn -0.5558 0.5813 -0.5943
vn 0.1378 -0.0205 -0.9903
vn 0.1948 0.6859 -0.7012
vn -0.4538 0.8874 -0.0815
vn -0.6936 0.6018 0.3960
vn 0.1378 0.9905 -0.0014
vn -0.0000 0.7149 0.6993
vn -0.6788 0.0954 0.7281
vn -0.8313 -0.3886 0.3973
vn -0.1378 0.0205 0.9903
vn -0.1948 -0.6859 0.7012
vn -0.6788 -0.7301 -0.0793
vn -0.6936 -0.4092 -0.5929
vn -0.1378 -0.9905 0.0014
vn -0.0000 -0.7149 -0.6993
vn -0.9808 0.1362 -0.1393
vn 0.6788 -0.0954 -0.7281
vn 0.8313 0.3886 -0.3973
vn 0.6788 0.7301 0.0793
vn 0.6936 -0.6018 -0.3960
vn 0.9808 -0.1362 0.1393
vn 0.6936 0.4092 0.5929
vn 0.4538 -0.8874 0.0815
vn 0.5558 -0.5813 0.5943
vn 0.4538 -0.0619 0.8889
vn 0.1400 0.8445 -0.5170
vn 0.1714 0.9826 0.0721
vn 0.5783 0.4575 -0.6755
vn 0.8179 0.5739 0.0421
vn 0.1400 0.7600 0.6346
vn -0.4069 0.5250 0.7475
vn 0.5783 0.3541 0.7350
vn -0.0000 -0.0731 0.9973
vn -0.8044 0.0974 0.5860
vn -0.9852 0.1710 0.0125
vn -0.5783 -0.4575 0.6755
vn -0.8179 -0.5739 -0.0421
vn -0.8044 0.1818 -0.5656
vn -0.4069 0.6285 -0.6629
vn -0.5783 -0.3541 -0.7350
vn -0.0000 0.0731 -0.9973
vn -0.5754 0.8157 0.0598
vn 0.8044 -0.0974 -0.5860
vn 0.9852 -0.1710 -0.0125
vn 0.8044 -0.1818 0.5656
vn 0.4069 -0.5250 -0.7475
vn 0.5754 -0.8157 -0.0598
vn 0.4069 -0.6285 0.6629
vn -0.1400 -0.7600 -0.6346
vn -0.1714 -0.9826 -0.0721
vn -0.1400 -0.8445 0.5170
vt 0.695970 0.853148
vt 0.698989 0.860854
vt 0.697655 0.860039
vt 0.695014 0.853881
vt 0.700240 0.864047
vt 0.698033 0.861588
vt 0.694618 0.854185
vt 0.701708 0.862921
vt 0.700458 0.859728
vt 0.700684 0.857716
vt 0.701414 0.858995
vt 0.697439 0.852022
vt 0.698395 0.851288
vt 0.698791 0.850985
vt 0.693652 0.847230
vt 0.692696 0.847963
vt 0.692300 0.848267
vt 0.691334 0.841312
vt 0.690378 0.842045
vt 0.689982 0.842349
vt 0.696473 0.845067
vt 0.694154 0.839149
vt 0.693758 0.839453
vt 0.696077 0.845371
vt 0.692802 0.840186
vt 0.695121 0.846104
vt 0.805558 0.530244
vt 0.794346 0.527724
vt 0.794346 0.541456
vt 0.808078 0.541456
vt 0.783134 0.530244
vt 0.780614 0.541456
vt 0.794346 0.555188
vt 0.805558 0.552668
vt 0.783134 0.552668
vt 0.780614 0.527724
vt 0.774927 0.541456
vt 0.780614 0.555188
vt 0.808078 0.527724
vt 0.813766 0.541456
vt 0.808078 0.555188
vt 0.794346 0.522036
vt 0.794346 0.560876
vt 0.721848 0.519393
vt 0.710636 0.516873
vt 0.710636 0.530605
vt 0.724367 0.530605
vt 0.699424 0.519393
vt 0.696904 0.530605
vt 0.710636 0.544337
vt 0.721848 0.541817
vt 0.699424 0.541817
vt 0.696904 0.516873
vt 0.691216 0.530605
vt 0.696904 0.544337
vt 0.724367 0.516873
vt 0.730055 0.530605
vt 0.724367 0.544337
vt 0.710636 0.511185
vt 0.710636 0.550024
s 1
f 4/1/4 7/2/7 8/3/8 10/4/10
f 5/5/5 9/6/9 8/3/8 7/2/7
f 6/7/6 10/4/10 8/3/8 9/6/9
f 14/5/14 17/2/17 18/3/18 20/6/20
f 15/1/15 19/4/19 18/3/18 17/2/17
f 16/7/16 20/6/20 18/3/18 19/4/19
f 24/8/24 27/9/27 28/10/28 30/11/30
f 25/12/25 29/13/29 28/10/28 27/9/27
f 26/14/26 30/11/30 28/10/28 29/13/29
f 34/8/34 37/11/37 38/10/38 40/9/40
f 35/14/35 39/13/39 38/10/38 37/11/37
f 36/12/36 40/9/40 38/10/38 39/13/39
f 41/15/41 4/1/4 10/4/10 42/16/42
f 42/16/42 10/4/10 6/7/6 43/17/43
f 5/5/5 14/5/14 20/6/20 9/6/9
f 9/6/9 20/6/20 16/7/16 6/7/6
f 44/15/44 12/18/12 13/19/13 45/16/45
f 45/16/45 13/19/13 11/20/11 46/17/46
f 14/5/14 34/8/34 40/9/40 17/2/17
f 17/2/17 40/9/40 36/12/36 15/1/15
f 47/21/47 32/22/32 33/23/33 48/24/48
f 48/24/48 33/23/33 31/25/31 49/26/49
f 34/8/34 24/8/24 30/11/30 37/11/37
f 37/11/37 30/11/30 26/14/26 35/14/35
f 50/26/50 22/25/22 23/23/23 51/24/51
f 51/24/51 23/23/23 21/22/21 52/21/52
f 24/8/24 5/5/5 7/2/7 27/9/27
f 27/9/27 7/2/7 4/1/4 25/12/25
f 43/17/43 6/7/6 16/7/16 46/17/46
f 50/26/50 25/12/25 4/1/4 41/15/41
f 34/8/34 14/5/14 5/5/5 24/8/24
f 44/15/44 15/1/15 36/12/36 49/26/49
f 47/21/47 35/14/35 26/14/26 52/21/52
f 32/22/32 47/21/47 52/21/52 21/22/21
f 12/18/12 44/15/44 49/26/49 31/25/31
f 22/25/22 50/26/50 41/15/41 1/18/1
f 2/20/2 43/17/43 46/17/46 11/20/11
f 29/13/29 51/24/51 52/21/52 26/14/26
f 25/12/25 50/26/50 51/24/51 29/13/29
f 39/13/39 48/24/48 49/26/49 36/12/36
f 35/14/35 47/21/47 48/24/48 39/13/39
f 19/4/19 45/16/45 46/17/46 16/7/16
f 15/1/15 44/15/44 45/16/45 19/4/19
f 3/19/3 42/16/42 43/17/43 2/20/2
f 1/18/1 41/15/41 42/16/42 3/19/3
f 56/1/56 59/2/59 60/3/60 62/4/62
f 57/5/57 61/6/61 60/3/60 59/2/59
f 58/7/58 62/4/62 60/3/60 61/6/61
f 66/5/66 69/2/69 70/3/70 72/6/72
f 67/1/67 71/4/71 70/3/70 69/2/69
f 68/7/68 72/6/72 70/3/70 71/4/71
f 76/8/76 79/9/79 80/10/80 82/11/82
f 77/12/77 81/13/81 80/10/80 79/9/79
f 78/14/78 82/11/82 80/10/80 81/13/81
f 86/8/86 89/11/89 90/10/90 92/9/92
f 87/14/87 91/13/91 90/10/90 89/11/89
f 88/12/88 92/9/92 90/10/90 91/13/91
f 93/15/93 56/1/56 62/4/62 94/16/94
f 94/16/94 62/4/62 58/7/58 95/17/95
f 57/5/57 66/5/66 72/6/72 61/6/61
f 61/6/61 72/6/72 68/7/68 58/7/58
f 96/15/96 64/18/64 65/19/65 97/16/97
f 97/16/97 65/19/65 63/20/63 98/17/98
f 66/5/66 86/8/86 92/9/92 69/2/69
f 69/2/69 92/9/92 88/12/88 67/1/67
f 99/21/99 84/22/84 85/23/85 100/24/100
f 100/24/100 85/23/85 83/25/83 101/26/101
f 86/8/86 76/8/76 82/11/82 89/11/89
f 89/11/89 82/11/82 78/14/78 87/14/87
f 102/26/102 74/25/74 75/23/75 103/24/103
f 103/24/103 75/23/75 73/22/73 104/21/104
f 76/8/76 57/5/57 59/2/59 79/9/79
f 79/9/79 59/2/59 56/1/56 77/12/77
f 95/17/95 58/7/58 68/7/68 98/17/98
f 102/26/102 77/12/77 56/1/56 93/15/93
f 86/8/86 66/5/66 57/5/57 76/8/76
f 96/15/96 67/1/67 88/12/88 101/26/101
f 99/21/99 87/14/87 78/14/78 104/21/104
f 84/22/84 99/21/99 104/21/104 73/22/73
f 64/18/64 96/15/96 101/26/101 83/25/83
f 74/25/74 102/26/102 93/15/93 53/18/53
f 54/20/54 95/17/95 98/17/98 63/20/63
f 81/13/81 103/24/103 104/21/104 78/14/78
f 77/12/77 102/26/102 103/24/103 81/13/81
f 91/13/91 100/24/100 101/26/101 88/12/88
f 87/14/87 99/21/99 100/24/100 91/13/91
f 71/4/71 97/16/97 98/17/98 68/7/68
f 67/1/67 96/15/96 97/16/97 71/4/71
f 55/19/55 94/16/94 95/17/95 54/20/54
f 53/18/53 93/15/93 94/16/94 55/19/55
f 108/1/56 111/2/59 112/3/60 114/4/62
f 109/5/57 113/6/61 112/3/60 111/2/59
f 110/7/58 114/4/62 112/3/60 113/6/61
f 118/5/66 121/2/69 122/3/70 124/6/72
f 119/1/67 123/4/71 122/3/70 121/2/69
f 120/7/68 124/6/72 122/3/70 123/4/71
f 128/8/76 131/9/79 132/10/80 134/11/82
f 129/12/77 133/13/81 132/10/80 131/9/79
f 130/14/78 134/11/82 132/10/80 133/13/81
f 138/8/86 141/11/89 142/10/90 144/9/92
f 139/14/87 143/13/91 142/10/90 141/11/89
f 140/12/88 144/9/92 142/10/90 143/13/91
f 145/15/93 108/1/56 114/4/62 146/16/94
f 146/16/94 114/4/62 110/7/58 147/17/95
f 109/5/57 118/5/66 124/6/72 113/6/61
f 113/6/61 124/6/72 120/7/68 110/7/58
f 148/15/96 116/18/64 117/19/65 149/16/97
f 149/16/97 117/19/65 115/20/63 150/17/98
f 118/5/66 138/8/86 144/9/92 121/2/69
f 121/2/69 144/9/92 140/12/88 119/1/67
f 151/21/99 136/22/84 137/23/85 152/24/100
f 152/24/100 137/23/85 135/25/83 153/26/101
f 138/8/86 128/8/76 134/11/82 141/11/89
f 141/11/89 134/11/82 130/14/78 139/14/87
f 154/26/102 126/25/74 127/23/75 155/24/103
f 155/24/103 127/23/75 125/22/73 156/21/104
f 128/8/76 109/5/57 111/2/59 131/9/79
f 131/9/79 111/2/59 108/1/56 129/12/77
f 147/17/95 110/7/58 120/7/68 150/17/98
f 154/26/102 129/12/77 108/1/56 145/15/93
f 138/8/86 118/5/66 109/5/57 128/8/76
f 148/15/96 119/1/67 140/12/88 153/26/101
f 151/21/99 139/14/87 130/14/78 156/21/104
f 136/22/84 151/21/99 156/21/104 125/22/73
f 116/18/64 148/15/96 153/26/101 135/25/83
f 126/25/74 154/26/102 145/15/93 105/18/53
f 106/20/54 147/17/95 150/17/98 115/20/63
f 133/13/81 155/24/103 156/21/104 130/14/78
f 129/12/77 154/26/102 155/24/103 133/13/81
f 143/13/91 152/24/100 153/26/101 140/12/88
f 139/14/87 151/21/99 152/24/100 143/13/91
f 123/4/71 149/16/97 150/17/98 120/7/68
f 119/1/67 148/15/96 149/16/97 123/4/71
f 107/19/55 146/16/94 147/17/95 106/20/54
f 105/18/53 145/15/93 146/16/94 107/19/55
f 157/27/105 158/28/106 160/29/108 159/30/107
f 158/28/106 161/31/109 163/32/111 160/29/108
f 159/30/107 160/29/108 175/33/123 174/34/122
f 160/29/108 163/32/111 176/35/124 175/33/123
f 161/31/109 162/36/110 164/37/112 163/32/111
f 162/36/110 165/31/113 167/32/115 164/37/112
f 163/32/111 164/37/112 179/38/127 176/35/124
f 164/37/112 167/32/115 182/35/130 179/38/127
f 165/31/113 166/28/114 168/29/116 167/32/115
f 166/28/114 169/27/117 171/30/119 168/29/116
f 167/32/115 168/29/116 181/33/129 182/35/130
f 168/29/116 171/30/119 180/34/128 181/33/129
f 169/27/117 170/39/118 172/40/120 171/30/119
f 170/39/118 157/27/105 159/30/107 172/40/120
f 171/30/119 172/40/120 177/41/125 180/34/128
f 172/40/120 159/30/107 174/34/122 177/41/125
f 169/27/117 166/28/114 173/42/121 170/39/118
f 166/28/114 165/31/113 162/36/110 173/42/121
f 170/39/118 173/42/121 158/28/106 157/27/105
f 173/42/121 162/36/110 161/31/109 158/28/106
f 174/34/122 175/33/123 178/43/126 177/41/125
f 175/33/123 176/35/124 179/38/127 178/43/126
f 177/41/125 178/43/126 181/33/129 180/34/128
f 178/43/126 179/38/127 182/35/130 181/33/129
f 183/44/131 184/45/132 186/46/134 185/47/133
f 184/45/132 187/48/135 189/49/137 186/46/134
f 185/47/133 186/46/134 201/50/149 200/51/148
f 186/46/134 189/49/137 202/52/150 201/50/149
f 187/48/135 188/53/136 190/54/138 189/49/137
f 188/53/136 191/48/139 193/49/141 190/54/138
f 189/49/137 190/54/138 205/55/153 202/52/150
f 190/54/138 193/49/141 208/52/156 205/55/153
f 191/48/139 192/45/140 194/46/142 193/49/141
f 192/45/140 195/44/143 197/47/145 194/46/142
f 193/49/141 194/46/142 207/50/155 208/52/156
f 194/46/142 197/47/145 206/51/154 207/50/155
f 195/44/143 196/56/144 198/57/146 197/47/145
f 196/56/144 183/44/131 185/47/133 198/57/146
f 197/47/145 198/57/146 203/58/151 206/51/154
f 198/57/146 185/47/133 200/51/148 203/58/151
f 195/44/143 192/45/140 199/59/147 196/56/144
f 192/45/140 191/48/139 188/53/136 199/59/147
f 196/56/144 199/59/147 184/45/132 183/44/131
f 199/59/147 188/53/136 187/48/135 184/45/132
f 200/51/148 201/50/149 204/60/152 203/58/151
f 201/50/149 202/52/150 205/55/153 204/60/152
f 203/58/151 204/60/152 207/50/155 206/51/154
f 204/60/152 205/55/153 208/52/156 207/50/155
f 209/27/157 210/28/158 212/29/160 211/30/159
f 210/28/158 213/31/161 215/32/163 212/29/160
f 211/30/159 212/29/160 227/33/175 226/34/174
f 212/29/160 215/32/163 228/35/176 227/33/175
f 213/31/161 214/36/162 216/37/164 215/32/163
f 214/36/162 217/31/165 219/32/167 216/37/164
f 215/32/163 216/37/164 231/38/179 228/35/176
f 216/37/164 219/32/167 234/35/182 231/38/179
f 217/31/165 218/28/166 220/29/168 219/32/167
f 218/28/166 221/27/169 223/30/171 220/29/168
f 219/32/167 220/29/168 233/33/181 234/35/182
f 220/29/168 223/30/171 232/34/180 233/33/181
f 221/27/169 222/39/170 224/40/172 223/30/171
f 222/39/170 209/27/157 211/30/159 224/40/172
f 223/30/171 224/40/172 229/41/177 232/34/180
f 224/40/172 211/30/159 226/34/174 229/41/177
f 221/27/169 218/28/166 225/42/173 222/39/170
f 218/28/166 217/31/165 214/36/162 225/42/173
f 222/39/170 225/42/173 210/28/158 209/27/157
f 225/42/173 214/36/162 213/31/161 210/28/158
f 226/34/174 227/33/175 230/43/178 229/41/177
f 227/33/175 228/35/176 231/38/179 230/43/178
f 229/41/177 230/43/178 233/33/181 232/34/180
f 230/43/178 231/38/179 234/35/182 233/33/181
f 235/44/183 236/45/184 238/46/186 237/47/185
f 236/45/184 239/48/187 241/49/189 238/46/186
f 237/47/185 238/46/186 253/50/201 252/51/200
f 238/46/186 241/49/189 254/52/202 253/50/201
f 239/48/187 240/53/188 242/54/190 241/49/189
f 240/53/188 243/48/191 245/49/193 242/54/190
f 241/49/189 242/54/190 257/55/205 254/52/202
f 242/54/190 245/49/193 260/52/208 257/55/205
f 243/48/191 244/45/192 246/46/194 245/49/193
f 244/45/192 247/44/195 249/47/197 246/46/194
f 245/49/193 246/46/194 259/50/207 260/52/208
f 246/46/194 249/47/197 258/51/206 259/50/207
f 247/44/195 248/56/196 250/57/198 249/47/197
f 248/56/196 235/44/183 237/47/185 250/57/198
f 249/47/197 250/57/198 255/58/203 258/51/206
f 250/57/198 237/47/185 252/51/200 255/58/203
f 247/44/195 244/45/192 251/59/199 248/56/196
f 244/45/192 243/48/191 240/53/188 251/59/199
f 248/56/196 251/59/199 236/45/184 235/44/183
f 251/59/199 240/53/188 239/48/187 236/45/184
f 252/51/200 253/50/201 256/60/204 255/58/203
f 253/50/201 254/52/202 257/55/205 256/60/204
f 255/58/203 256/60/204 259/50/207 258/51/206
f 256/60/204 257/55/205 260/52/208 259/50/207
f 261/27/209 262/28/210 264/29/212 263/30/211
f 262/28/210 265/31/213 267/32/215 264/29/212
f 263/30/211 264/29/212 279/33/227 278/34/226
f 264/29/212 267/32/215 280/35/228 279/33/227
f 265/31/213 266/36/214 268/37/216 267/32/215
f 266/36/214 269/31/217 271/32/219 268/37/216
f 267/32/215 268/37/216 283/38/231 280/35/228
f 268/37/216 271/32/219 286/35/234 283/38/231
f 269/31/217 270/28/218 272/29/220 271/32/219
f 270/28/218 273/27/221 275/30/223 272/29/220
f 271/32/219 272/29/220 285/33/233 286/35/234
f 272/29/220 275/30/223 284/34/232 285/33/233
f 273/27/221 274/39/222 276/40/224 275/30/223
f 274/39/222 261/27/209 263/30/211 276/40/224
f 275/30/223 276/40/224 281/41/229 284/34/232
f 276/40/224 263/30/211 278/34/226 281/41/229
f 273/27/221 270/28/218 277/42/225 274/39/222
f 270/28/218 269/31/217 266/36/214 277/42/225
f 274/39/222 277/42/225 262/28/210 261/27/209
f 277/42/225 266/36/214 265/31/213 262/28/210
f 278/34/226 279/33/227 282/43/230 281/41/229
f 279/33/227 280/35/228 283/38/231 282/43/230
f 281/41/229 282/43/230 285/33/233 284/34/232
f 282/43/230 283/38/231 286/35/234 285/33/233
f 287/44/235 288/45/236 290/46/238 289/47/237
f 288/45/236 291/48/239 293/49/241 290/46/238
f 289/47/237 290/46/238 305/50/253 304/51/252
f 290/46/238 293/49/241 306/52/254 305/50/253
f 291/48/239 292/53/240 294/54/242 293/49/241
f 292/53/240 295/48/243 297/49/245 294/54/242
f 293/49/241 294/54/242 309/55/257 306/52/254
f 294/54/242 297/49/245 312/52/260 309/55/257
f 295/48/243 296/45/244 298/46/246 297/49/245
f 296/45/244 299/44/247 301/47/249 298/46/246
f 297/49/245 298/46/246 311/50/259 312/52/260
f 298/46/246 301/47/249 310/51/258 311/50/259
f 299/44/247 300/56/248 302/57/250 301/47/249
f 300/56/248 287/44/235 289/47/237 302/57/250
f 301/47/249 302/57/250 307/58/255 310/51/258
f 302/57/250 289/47/237 304/51/252 307/58/255
f 299/44/247 296/45/244 303/59/251 300/56/248
f 296/45/244 295/48/243 292/53/240 303/59/251
f 300/56/248 303/59/251 288/45/236 287/44/235
f 303/59/251 292/53/240 291/48/239 288/45/236
f 304/51/252 305/50/253 308/60/256 307/58/255
f 305/50/253 306/52/254 309/55/257 308/60/256
f 307/58/255 308/60/256 311/50/259 310/51/258
f 308/60/256 309/55/257 312/52/260 311/50/259
f 313/27/261 314/28/262 316/29/264 315/30/263
f 314/28/262 317/31/265 319/32/267 316/29/264
f 315/30/263 316/29/264 331/33/279 330/34/278
f 316/29/264 319/32/267 332/35/280 331/33/279
f 317/31/265 318/36/266 320/37/268 319/32/267
f 318/36/266 321/31/269 323/32/271 320/37/268
f 319/32/267 320/37/268 335/38/283 332/35/280
f 320/37/268 323/32/271 338/35/286 335/38/283
f 321/31/269 322/28/270 324/29/272 323/32/271
f 322/28/270 325/27/273 327/30/275 324/29/272
f 323/32/271 324/29/272 337/33/285 338/35/286
f 324/29/272 327/30/275 336/34/284 337/33/285
f 325/27/273 326/39/274 328/40/276 327/30/275
f 326/39/274 313/27/261 315/30/263 328/40/276
f 327/30/275 328/40/276 333/41/281 336/34/284
f 328/40/276 315/30/263 330/34/278 333/41/281
f 325/27/273 322/28/270 329/42/277 326/39/274
f 322/28/270 321/31/269 318/36/266 329/42/277
f 326/39/274 329/42/277 314/28/262 313/27/261
f 329/42/277 318/36/266 317/31/265 314/28/262
f 330/34/278 331/33/279 334/43/282 333/41/281
f 331/33/279 332/35/280 335/38/283 334/43/282
f 333/41/281 334/43/282 337/33/285 336/34/284
f 334/43/282 335/38/283 338/35/286 337/33/285
f 339/44/287 340/45/288 342/46/290 341/47/289
f 340/45/288 343/48/291 345/49/293 342/46/290
f 341/47/289 342/46/290 357/50/305 356/51/304
f 342/46/290 345/49/293 358/52/306 357/50/305
f 343/48/291 344/53/292 346/54/294 345/49/293
f 344/53/292 347/48/295 349/49/297 346/54/294
f 345/49/293 346/54/294 361/55/309 358/52/306
f 346/54/294 349/49/297 364/52/312 361/55/309
f 347/48/295 348/45/296 350/46/298 349/49/297
f 348/45/296 351/44/299 353/47/301 350/46/298
f 349/49/297 350/46/298 363/50/311 364/52/312
f 350/46/298 353/47/301 362/51/310 363/50/311
f 351/44/299 352/56/300 354/57/302 353/47/301
f 352/56/300 339/44/287 341/47/289 354/57/302
f 353/47/301 354/57/302 359/58/307 362/51/310
f 354/57/302 341/47/289 356/51/304 359/58/307
f 351/44/299 348/45/296 355/59/303 352/56/300
f 348/45/296 347/48/295 344/53/292 355/59/303
f 352/56/300 355/59/303 340/45/288 339/44/287
f 355/59/303 344/53/292 343/48/291 340/45/288
f 356/51/304 357/50/305 360/60/308 359/58/307
f 357/50/305 358/52/306 361/55/309 360/60/308
f 359/58/307 360/60/308 363/50/311 362/51/310
f 360/60/308 361/55/309 364/52/312 363/50/311
f 365/27/313 366/28/314 368/29/316 367/30/315
f 366/28/314 369/31/317 371/32/319 368/29/316
f 367/30/315 368/29/316 383/33/331 382/34/330
f 368/29/316 371/32/319 384/35/332 383/33/331
f 369/31/317 370/36/318 372/37/320 371/32/319
f 370/36/318 373/31/321 375/32/323 372/37/320
f 371/32/319 372/37/320 387/38/335 384/35/332
f 372/37/320 375/32/323 390/35/338 387/38/335
f 373/31/321 374/28/322 376/29/324 375/32/323
f 374/28/322 377/27/325 379/30/327 376/29/324
f 375/32/323 376/29/324 389/33/337 390/35/338
f 376/29/324 379/30/327 388/34/336 389/33/337
f 377/27/325 378/39/326 380/40/328 379/30/327
f 378/39/326 365/27/313 367/30/315 380/40/328
f 379/30/327 380/40/328 385/41/333 388/34/336
f 380/40/328 367/30/315 382/34/330 385/41/333
f 377/27/325 374/28/322 381/42/329 378/39/326
f 374/28/322 373/31/321 370/36/318 381/42/329
f 378/39/326 381/42/329 366/28/314 365/27/313
f 381/42/329 370/36/318 369/31/317 366/28/314
f 382/34/330 383/33/331 386/43/334 385/41/333
f 383/33/331 384/35/332 387/38/335 386/43/334
f 385/41/333 386/43/334 389/33/337 388/34/336
f 386/43/334 387/38/335 390/35/338 389/33/337
f 391/44/339 392/45/340 394/46/342 393/47/341
f 392/45/340 395/48/343 397/49/345 394/46/342
f 393/47/341 394/46/342 409/50/357 408/51/356
f 394/46/342 397/49/345 410/52/358 409/50/357
f 395/48/343 396/53/344 398/54/346 397/49/345
f 396/53/344 399/48/347 401/49/349 398/54/346
f 397/49/345 398/54/346 413/55/361 410/52/358
f 398/54/346 401/49/349 416/52/364 413/55/361
f 399/48/347 400/45/348 402/46/350 401/49/349
f 400/45/348 403/44/351 405/47/353 402/46/350
f 401/49/349 402/46/350 415/50/363 416/52/364
f 402/46/350 405/47/353 414/51/362 415/50/363
f 403/44/351 404/56/352 406/57/354 405/47/353
f 404/56/352 391/44/339 393/47/341 406/57/354
f 405/47/353 406/57/354 411/58/359 414/51/362
f 406/57/354 393/47/341 408/51/356 411/58/359
f 403/44/351 400/45/348 407/59/355 404/56/352
f 400/45/348 399/48/347 396/53/344 407/59/355
f 404/56/352 407/59/355 392/45/340 391/44/339
f 407/59/355 396/53/344 395/48/343 392/45/340
f 408/51/356 409/50/357 412/60/360 411/58/359
f 409/50/357 410/52/358 413/55/361 412/60/360
f 411/58/359 412/60/360 415/50/363 414/51/362
f 412/60/360 413/55/361 416/52/364 415/50/363
f 417/27/365 418/28/366 420/29/368 419/30/367
f 418/28/366 421/31/369 423/32/371 420/29/368
f 419/30/367 420/29/368 435/33/383 434/34/382
f 420/29/368 423/32/371 436/35/384 435/33/383
f 421/31/369 422/36/370 424/37/372 423/32/371
f 422/36/370 425/31/373 427/32/375 424/37/372
f 423/32/371 424/37/372 439/38/387 436/35/384
f 424/37/372 427/32/375 442/35/390 439/38/387
f 425/31/373 426/28/374 428/29/376 427/32/375
f 426/28/374 429/27/377 431/30/379 428/29/376
f 427/32/375 428/29/376 441/33/389 442/35/390
f 428/29/376 431/30/379 440/34/388 441/33/389
f 429/27/377 430/39/378 432/40/380 431/30/379
f 430/39/378 417/27/365 419/30/367 432/40/380
f 431/30/379 432/40/380 437/41/385 440/34/388
f 432/40/380 419/30/367 434/34/382 437/41/385
f 429/27/377 426/28/374 433/42/381 430/39/378
f 426/28/374 425/31/373 422/36/370 433/42/381
f 430/39/378 433/42/381 418/28/366 417/27/365
f 433/42/381 422/36/370 421/31/369 418/28/366
f 434/34/382 435/33/383 438/43/386 437/41/385
f 435/33/383 436/35/384 439/38/387 438/43/386
f 437/41/385 438/43/386 441/33/389 440/34/388
f 438/43/386 439/38/387 442/35/390 441/33/389
f 443/44/391 444/45/392 446/46/394 445/47/393
f 444/45/392 447/48/395 449/49/397 446/46/394
f 445/47/393 446/46/394 461/50/409 460/51/408
f 446/46/394 449/49/397 462/52/410 461/50/409
f 447/48/395 448/53/396 450/54/398 449/49/397
f 448/53/396 451/48/399 453/49/401 450/54/398
f 449/49/397 450/54/398 465/55/413 462/52/410
f 450/54/398 453/49/401 468/52/416 465/55/413
f 451/48/399 452/45/400 454/46/402 453/49/401
f 452/45/400 455/44/403 457/47/405 454/46/402
f 453/49/401 454/46/402 467/50/415 468/52/416
f 454/46/402 457/47/405 466/51/414 467/50/415
f 455/44/403 456/56/404 458/57/406 457/47/405
f 456/56/404 443/44/391 445/47/393 458/57/406
f 457/47/405 458/57/406 463/58/411 466/51/414
f 458/57/406 445/47/393 460/51/408 463/58/411
f 455/44/403 452/45/400 459/59/407 456/56/404
f 452/45/400 451/48/399 448/53/396 459/59/407
f 456/56/404 459/59/407 444/45/392 443/44/391
f 459/59/407 448/53/396 447/48/395 444/45/392
f 460/51/408 461/50/409 464/60/412 463/58/411
f 461/50/409 462/52/410 465/55/413 464/60/412
f 463/58/411 464/60/412 467/50/415 466/51/414
f 464/60/412 465/55/413 468/52/416 467/50/415
f 469/27/417 470/28/418 472/29/420 471/30/419
f 470/28/418 473/31/421 475/32/423 472/29/420
f 471/30/419 472/29/420 487/33/435 486/34/434
f 472/29/420 475/32/423 488/35/436 487/33/435
f 473/31/421 474/36/422 476/37/424 475/32/423
f 474/36/422 477/31/425 479/32/427 476/37/424
f 475/32/423 476/37/424 491/38/439 488/35/436
f 476/37/424 479/32/427 494/35/442 491/38/439
f 477/31/425 478/28/426 480/29/428 479/32/427
f 478/28/426 481/27/429 483/30/431 480/29/428
f 479/32/427 480/29/428 493/33/441 494/35/442
f 480/29/428 483/30/431 492/34/440 493/33/441
f 481/27/429 482/39/430 484/40/432 483/30/431
f 482/39/430 469/27/417 471/30/419 484/40/432
f 483/30/431 484/40/432 489/41/437 492/34/440
f 484/40/432 471/30/419 486/34/434 489/41/437
f 481/27/429 478/28/426 485/42/433 482/39/430
f 478/28/426 477/31/425 474/36/422 485/42/433
f 482/39/430 485/42/433 470/28/418 469/27/417
f 485/42/433 474/36/422 473/31/421 470/28/418
f 486/34/434 487/33/435 490/43/438 489/41/437
f 487/33/435 488/35/436 491/38/439 490/43/438
f 489/41/437 490/43/438 493/33/441 492/34/440
f 490/43/438 491/38/439 494/35/442 493/33/441
f 495/44/443 496/45/444 498/46/446 497/47/445
f 496/45/444 499/48/447 501/49/449 498/46/446
f 497/47/445 498/46/446 513/50/461 512/51/460
f 498/46/446 501/49/449 514/52/462 513/50/461
f 499/48/447 500/53/448 502/54/450 501/49/449
f 500/53/448 503/48/451 505/49/453 502/54/450
f 501/49/449 502/54/450 517/55/465 514/52/462
f 502/54/450 505/49/453 520/52/468 517/55/465
f 503/48/451 504/45/452 506/46/454 505/49/453
f 504/45/452 507/44/455 509/47/457 506/46/454
f 505/49/453 506/46/454 519/50/467 520/52/468
f 506/46/454 509/47/457 518/51/466 519/50/467
f 507/44/455 508/56/456 510/57/458 509/47/457
f 508/56/456 495/44/443 497/47/445 510/57/458
f 509/47/457 510/57/458 515/58/463 518/51/466
f 510/57/458 497/47/445 512/51/460 515/58/463
f 507/44/455 504/45/452 511/59/459 508/56/456
f 504/45/452 503/48/451 500/53/448 511/59/459
f 508/56/456 511/59/459 496/45/444 495/44/443
f 511/59/459 500/53/448 499/48/447 496/45/444
f 512/51/460 513/50/461 516/60/464 515/58/463
f 513/50/461 514/52/462 517/55/465 516/60/464
f 515/58/463 516/60/464 519/50/467 518/51/466
f 516/60/464 517/55/465 520/52/468 519/50/467
f 521/27/469 522/28/470 524/29/472 523/30/471
f 522/28/470 525/31/473 527/32/475 524/29/472
f 523/30/471 524/29/472 539/33/487 538/34/486
f 524/29/472 527/32/475 540/35/488 539/33/487
f 525/31/473 526/36/474 528/37/476 527/32/475
f 526/36/474 529/31/477 531/32/479 528/37/476
f 527/32/475 528/37/476 543/38/491 540/35/488
f 528/37/476 531/32/479 546/35/494 543/38/491
f 529/31/477 530/28/478 532/29/480 531/32/479
f 530/28/478 533/27/481 535/30/483 532/29/480
f 531/32/479 532/29/480 545/33/493 546/35/494
f 532/29/480 535/30/483 544/34/492 545/33/493
f 533/27/481 534/39/482 536/40/484 535/30/483
f 534/39/482 521/27/469 523/30/471 536/40/484
f 535/30/483 536/40/484 541/41/489 544/34/492
f 536/40/484 523/30/471 538/34/486 541/41/489
f 533/27/481 530/28/478 537/42/485 534/39/482
f 530/28/478 529/31/477 526/36/474 537/42/485
f 534/39/482 537/42/485 522/28/470 521/27/469
f 537/42/485 526/36/474 525/31/473 522/28/470
f 538/34/486 539/33/487 542/43/490 541/41/489
f 539/33/487 540/35/488 543/38/491 542/43/490
f 541/41/489 542/43/490 545/33/493 544/34/492
f 542/43/490 543/38/491 546/35/494 545/33/493
f 547/44/495 548/45/496 550/46/498 549/47/497
f 548/45/496 551/48/499 553/49/501 550/46/498
f 549/47/497 550/46/498 565/50/513 564/51/512
f 550/46/498 553/49/501 566/52/514 565/50/513
f 551/48/499 552/53/500 554/54/502 553/49/501
f 552/53/500 555/48/503 557/49/505 554/54/502
f 553/49/501 554/54/502 569/55/517 566/52/514
f 554/54/502 557/49/505 572/52/520 569/55/517
f 555/48/503 556/45/504 558/46/506 557/49/505
f 556/45/504 559/44/507 561/47/509 558/46/506
f 557/49/505 558/46/506 571/50/519 572/52/520
f 558/46/506 561/47/509 570/51/518 571/50/519
f 559/44/507 560/56/508 562/57/510 561/47/509
f 560/56/508 547/44/495 549/47/497 562/57/510
f 561/47/509 562/57/510 567/58/515 570/51/518
f 562/57/510 549/47/497 564/51/512 567/58/515
f 559/44/507 556/45/504 563/59/511 560/56/508
f 556/45/504 555/48/503 552/53/500 563/59/511
f 560/56/508 563/59/511 548/45/496 547/44/495
f 563/59/511 552/53/500 551/48/499 548/45/496
f 564/51/512 565/50/513 568/60/516 567/58/515
f 565/50/513 566/52/514 569/55/517 568/60/516
f 567/58/515 568/60/516 571/50/519 570/51/518
f 568/60/516 569/55/517 572/52/520 571/50/519
f 573/27/521 574/28/522 576/29/524 575/30/523
f 574/28/522 577/31/525 579/32/527 576/29/524
f 575/30/523 576/29/524 591/33/539 590/34/538
f 576/29/524 579/32/527 592/35/540 591/33/539
f 577/31/525 578/36/526 580/37/528 579/32/527
f 578/36/526 581/31/529 583/32/531 580/37/528
f 579/32/527 580/37/528 595/38/543 592/35/540
f 580/37/528 583/32/531 598/35/546 595/38/543
f 581/31/529 582/28/530 584/29/532 583/32/531
f 582/28/530 585/27/533 587/30/535 584/29/532
f 583/32/531 584/29/532 597/33/545 598/35/546
f 584/29/532 587/30/535 596/34/544 597/33/545
f 585/27/533 586/39/534 588/40/536 587/30/535
f 586/39/534 573/27/521 575/30/523 588/40/536
f 587/30/535 588/40/536 593/41/541 596/34/544
f 588/40/536 575/30/523 590/34/538 593/41/541
f 585/27/533 582/28/530 589/42/537 586/39/534
f 582/28/530 581/31/529 578/36/526 589/42/537
f 586/39/534 589/42/537 574/28/522 573/27/521
f 589/42/537 578/36/526 577/31/525 574/28/522
f 590/34/538 591/33/539 594/43/542 593/41/541
f 591/33/539 592/35/540 595/38/543 594/43/542
f 593/41/541 594/43/542 597/33/545 596/34/544
f 594/43/542 595/38/543 598/35/546 597/33/545
f 599/44/547 600/45/548 602/46/550 601/47/549
f 600/45/548 603/48/551 605/49/553 602/46/550
f 601/47/549 602/46/550 617/50/565 616/51/564
f 602/46/550 605/49/553 618/52/566 617/50/565
f 603/48/551 604/53/552 606/54/554 605/49/553
f 604/53/552 607/48/555 609/49/557 606/54/554
f 605/49/553 606/54/554 621/55/569 618/52/566
f 606/54/554 609/49/557 624/52/572 621/55/569
f 607/48/555 608/45/556 610/46/558 609/49/557
f 608/45/556 611/44/559 613/47/561 610/46/558
f 609/49/557 610/46/558 623/50/571 624/52/572
f 610/46/558 613/47/561 622/51/570 623/50/571
f 611/44/559 612/56/560 614/57/562 613/47/561
f 612/56/560 599/44/547 601/47/549 614/57/562
f 613/47/561 614/57/562 619/58/567 622/51/570
f 614/57/562 601/47/549 616/51/564 619/58/567
f 611/44/559 608/45/556 615/59/563 612/56/560
f 608/45/556 607/48/555 604/53/552 615/59/563
f 612/56/560 615/59/563 600/45/548 599/44/547
f 615/59/563 604/53/552 603/48/551 600/45/548
f 616/51/564 617/50/565 620/60/568 619/58/567
f 617/50/565 618/52/566 621/55/569 620/60/568
f 619/58/567 620/60/568 623/50/571 622/51/570
f 620/60/568 621/55/569 624/52/572 623/50/571
