# Blender 5.0.1
# www.blender.org
o GEO_Waterfall
v -15.757691 -0.447337 -22.928438
v -14.242309 -0.447337 -22.928438
v -15.757731 -0.426399 -23.345930
v -14.242269 -0.426399 -23.345930
v -15.750655 1.878183 -24.991022
v -14.249345 1.878183 -24.991022
v -14.246429 1.574198 -24.754770
v -15.753571 1.574198 -24.754770
v -15.000000 -0.449973 -22.876408
v -15.755875 1.072951 -23.136461
v -14.244125 1.072951 -23.136461
v -15.754982 1.900466 -23.582111
v -14.245018 1.900466 -23.582111
v -15.000000 -0.423569 -23.397963
v -15.757027 0.925007 -23.514498
v -14.242973 0.925007 -23.514498
v -15.757157 1.606663 -23.848223
v -14.242843 1.606663 -23.848223
v -16.097815 -0.436848 -23.136852
v -13.902185 -0.436848 -23.136852
v -15.000000 1.907145 -25.031431
v -15.000000 1.544303 -24.716845
v -16.087126 1.763580 -24.880169
v -13.912874 1.763580 -24.880169
v -14.247400 2.126857 -24.461994
v -15.752600 2.126857 -24.461994
v -14.247034 1.770464 -24.379162
v -15.752967 1.770464 -24.379162
v -15.000000 1.092940 -23.091282
v -15.000000 1.936385 -23.551352
v -15.000000 0.905652 -23.560162
v -15.000000 1.571324 -23.880291
v -13.902904 1.000882 -23.315441
v -16.095203 1.766692 -23.701101
v -16.097095 1.000882 -23.315441
v -13.904797 1.766692 -23.701101
v -15.000000 2.165815 -24.477879
v -13.902543 1.955887 -24.418182
v -15.000000 1.731455 -24.364830
v -16.097458 1.955887 -24.418182
v -16.096331 1.950188 -24.106148
v -14.244938 1.765904 -24.145185
v -14.246209 2.111875 -24.081078
v -15.755062 1.765904 -24.145185
v -15.000000 2.151711 -24.076992
v -15.753791 2.111875 -24.081078
v -13.903669 1.950188 -24.106148
v -15.000000 1.726214 -24.150743
vn 0.2816 -0.1284 -0.9509
vn -0.2816 -0.1284 -0.9509
vn 0.3083 0.1168 0.9441
vn -0.3083 0.1168 0.9441
vn 0.2366 -0.8824 0.4068
vn -0.2366 -0.8824 0.4068
vn -0.3019 0.8551 -0.4215
vn 0.3019 0.8551 -0.4215
vn -0.0000 -0.1368 -0.9906
vn 0.2767 -0.2970 -0.9139
vn -0.2767 -0.2970 -0.9139
vn 0.2620 -0.7129 -0.6505
vn -0.2620 -0.7129 -0.6505
vn -0.0000 0.1224 0.9925
vn 0.3118 0.2698 0.9110
vn -0.3118 0.2698 0.9110
vn 0.3209 0.6605 0.6788
vn -0.3209 0.6605 0.6788
vn 0.9940 -0.0196 -0.1072
vn -0.9940 -0.0196 -0.1072
vn -0.0000 -0.9055 0.4244
vn -0.0000 0.8847 -0.4662
vn 0.9798 -0.1837 0.0794
vn -0.9798 -0.1837 0.0794
vn -0.2466 -0.9498 0.1924
vn 0.2466 -0.9498 0.1924
vn -0.2991 0.9317 -0.2062
vn 0.2991 0.9317 -0.2062
vn -0.0000 -0.3124 -0.9499
vn -0.0000 -0.7425 -0.6698
vn -0.0000 0.2826 0.9592
vn -0.0000 0.6871 0.7266
vn -0.9935 -0.0395 -0.1071
vn 0.9771 -0.1684 -0.1301
vn 0.9935 -0.0395 -0.1071
vn -0.9771 -0.1684 -0.1301
vn -0.0000 -0.9796 0.2008
vn -0.9889 -0.1470 0.0211
vn -0.0000 0.9736 -0.2283
vn 0.9889 -0.1470 0.0211
vn 0.9894 -0.1430 -0.0234
vn -0.2933 0.9260 0.2377
vn -0.2472 -0.9463 -0.2085
vn 0.2933 0.9260 0.2377
vn -0.0000 -0.9769 -0.2135
vn 0.2472 -0.9463 -0.2085
vn -0.9894 -0.1430 -0.0234
vn -0.0000 0.9651 0.2619
vt 0.100231 0.890456
vt 0.100212 0.893834
vt 0.111676 0.893834
vt 0.111527 0.890464
vt 0.110428 0.897209
vt 0.115493 0.897209
vt 0.116682 0.898716
vt 0.110992 0.898725
vt 0.117943 0.893834
vt 0.117676 0.890468
vt 0.100387 0.897212
vt 0.100408 0.893834
vt 0.110284 0.893834
vt 0.110428 0.890459
vt 0.115493 0.890459
vt 0.115230 0.893834
vt 0.118045 0.898721
vt 0.116676 0.897200
vt 0.116710 0.897191
vt 0.118088 0.898726
vt 0.116682 0.888951
vt 0.110992 0.888943
vt 0.119543 0.893834
vt 0.119247 0.897194
vt 0.119358 0.897189
vt 0.119647 0.893834
vt 0.100387 0.890456
vt 0.100309 0.888940
vt 0.116381 0.893834
vt 0.116420 0.893834
vt 0.117676 0.897200
vt 0.111527 0.897204
vt 0.116676 0.890468
vt 0.118045 0.888946
vt 0.118088 0.888941
vt 0.116710 0.890477
vt 0.100309 0.898728
vt 0.117510 0.890487
vt 0.116659 0.888987
vt 0.119358 0.890479
vt 0.119247 0.890473
vt 0.115252 0.890474
vt 0.116659 0.898680
vt 0.117510 0.897180
vt 0.115029 0.893834
vt 0.115252 0.897193
vt 0.117725 0.893834
vt 0.100231 0.897212
s 1
f 2/1/2 9/2/9 29/3/29 11/4/11
f 15/5/15 17/6/17 34/7/34 35/8/35
f 30/9/30 13/10/13 11/4/11 29/3/29
f 15/5/15 3/11/3 14/12/14 31/13/31
f 16/14/16 18/15/18 32/16/32 31/13/31
f 41/17/41 44/18/44 28/19/28 40/20/40
f 36/21/36 18/15/18 16/14/16 33/22/33
f 45/23/45 46/24/46 26/25/26 37/26/37
f 16/14/16 4/27/4 20/28/20 33/22/33
f 48/29/48 39/30/39 28/19/28 44/18/44
f 34/7/34 12/31/12 10/32/10 35/8/35
f 33/22/33 11/4/11 13/10/13 36/21/36
f 42/33/42 47/34/47 38/35/38 27/36/27
f 12/31/12 30/9/30 29/3/29 10/32/10
f 3/11/3 15/5/15 35/8/35 19/37/19
f 33/22/33 20/28/20 2/1/2 11/4/11
f 6/38/6 24/39/24 38/35/38 25/40/25
f 41/17/41 46/24/46 12/31/12 34/7/34
f 43/41/43 47/34/47 36/21/36 13/10/13
f 42/33/42 27/36/27 39/30/39 48/29/48
f 38/35/38 24/39/24 7/42/7 27/36/27
f 40/20/40 23/43/23 5/44/5 26/25/26
f 28/19/28 39/30/39 22/45/22 8/46/8
f 39/30/39 27/36/27 7/42/7 22/45/22
f 5/44/5 21/47/21 37/26/37 26/25/26
f 37/26/37 21/47/21 6/38/6 25/40/25
f 15/5/15 31/13/31 32/16/32 17/6/17
f 19/37/19 35/8/35 10/32/10 1/48/1
f 8/46/8 23/43/23 40/20/40 28/19/28
f 14/12/14 4/27/4 16/14/16 31/13/31
f 45/23/45 37/26/37 25/40/25 43/41/43
f 30/9/30 45/23/45 43/41/43 13/10/13
f 18/15/18 42/33/42 48/29/48 32/16/32
f 25/40/25 38/35/38 47/34/47 43/41/43
f 40/20/40 26/25/26 46/24/46 41/17/41
f 18/15/18 36/21/36 47/34/47 42/33/42
f 32/16/32 48/29/48 44/18/44 17/6/17
f 30/9/30 12/31/12 46/24/46 45/23/45
f 34/7/34 17/6/17 44/18/44 41/17/41
f 9/2/9 1/48/1 10/32/10 29/3/29
