# Blender 5.0.1
# www.blender.org
o GEO_RoadEndTile
v -13.141741 -2.013760 -2.000000
v -10.858259 -2.013760 -2.000000
v -10.858259 -2.013760 2.000000
v -13.920601 -0.013760 1.834052
v -13.834052 -0.013760 1.920600
v -13.895251 -0.013760 1.895251
v -13.141741 -2.013760 2.000000
v -10.025485 -2.013760 1.974515
v -10.087011 -2.013760 2.000000
v -13.834052 -0.013760 -1.920600
v -13.920600 -0.013760 -1.834052
v -13.895251 -0.013760 -1.895251
v -10.000000 -2.013760 1.912989
v -10.025485 -2.013760 -1.974515
v -10.000000 -2.013760 -1.912989
v -10.165948 -0.013760 1.920600
v -10.079400 -0.013760 1.834052
v -10.104749 -0.013760 1.895251
v -10.087011 -2.013760 -2.000000
v -13.974515 -2.013760 -1.974515
v -13.912989 -2.013760 -2.000000
v -10.079399 -0.013760 -1.834052
v -10.165948 -0.013760 -1.920600
v -10.104749 -0.013760 -1.895251
v -13.912989 -0.120803 2.000000
v -14.000000 -0.120803 1.912989
v -13.974515 -0.120803 1.974515
v -14.000000 -0.120803 -1.912989
v -13.912989 -0.120803 -2.000000
v -13.974515 -0.120803 -1.974515
v -10.087011 -0.120803 -2.000000
v -10.000000 -0.120803 -1.912989
v -10.025485 -0.120803 -1.974515
v -10.000000 -0.120803 1.912989
v -10.087011 -0.120803 2.000000
v -10.025485 -0.120803 1.974515
v -13.969804 -0.067282 1.883431
v -13.883431 -0.067282 1.969804
v -13.944506 -0.067282 1.944506
v -13.969804 -0.067282 -1.883431
v -13.883431 -0.067282 -1.969804
v -13.944506 -0.067282 -1.944506
v -10.116569 -0.067282 -1.969804
v -10.030196 -0.067282 -1.883431
v -10.055494 -0.067282 -1.944506
v -10.030196 -0.067282 1.883431
v -10.116569 -0.067282 1.969804
v -10.055494 -0.067282 1.944506
v -13.834053 -0.013760 -1.834052
v -13.834052 -0.013760 1.834052
v -10.165948 -0.013760 -1.834052
v -10.165948 -0.013760 1.834052
v -14.000000 -2.013760 -1.912989
v -13.974515 -2.013760 1.974515
v -13.141741 -0.120803 2.000000
v -10.858259 -0.120803 2.000000
v -10.731399 -0.067282 1.969804
v -13.268601 -0.067282 1.969804
v -13.268601 -0.013760 1.920600
v -10.731399 -0.013760 1.920600
v -10.731399 -0.013760 -1.920600
v -13.268601 -0.013760 -1.920600
v -14.000000 -2.013760 1.912989
v -13.912989 -2.013760 2.000000
v -10.858259 -0.120803 -2.000000
v -13.141741 -0.120803 -2.000000
v -13.268601 -0.067282 -1.969804
v -10.731399 -0.067282 -1.969804
v -10.731399 -0.013760 1.834052
v -13.268601 -0.013760 1.834052
v -10.858259 -0.120803 1.905911
v -13.141741 -0.120803 1.905911
v -13.141741 -0.120803 1.834052
v -10.858259 -0.120803 1.834052
v -13.141741 -2.013760 -1.912989
v -10.858259 -2.013760 -1.912989
v -13.141741 -2.013760 1.912989
v -10.858259 -2.013760 1.912989
v -13.912989 -2.013760 1.912989
v -13.912989 -2.013760 -1.912989
v -10.087011 -2.013760 -1.912989
v -10.087011 -2.013760 1.912989
v -13.268601 -0.013760 -0.885819
v -12.526301 -0.013760 -1.563507
v -13.268601 -0.013760 -1.823642
v -13.626293 -0.013760 -1.657938
v -13.196573 -0.013760 -1.120275
v -12.999788 -0.013760 -1.375801
v -11.473699 -0.013760 -1.563507
v -10.731399 -0.013760 -0.885819
v -10.373708 -0.013760 -1.657938
v -10.731399 -0.013760 -1.823642
v -11.000212 -0.013760 -1.375801
v -10.803428 -0.013760 -1.120275
v -10.858259 -0.120803 -0.885819
v -11.565038 -0.120803 -1.563507
v -10.930287 -0.120803 -1.120275
v -11.127072 -0.120803 -1.375801
v -12.434962 -0.120803 -1.563507
v -13.141741 -0.120803 -0.885819
v -12.872928 -0.120803 -1.375801
v -13.069713 -0.120803 -1.120275
vn -0.1438 0.6401 0.7547
vn -0.0910 0.7182 0.6899
vn -0.2447 0.7689 0.5908
vn -0.2845 0.6689 0.6868
vn -0.6868 0.6689 0.2845
vn -0.5908 0.7689 0.2447
vn -0.6899 0.7182 0.0910
vn -0.7547 0.6401 0.1438
vn -0.0000 0.0626 0.9980
vn -0.2031 0.2837 0.9372
vn -0.1951 -0.0000 0.9808
vn -0.0000 -0.0000 1.0000
vn 0.9372 0.2837 -0.2031
vn 0.9372 0.2837 0.2031
vn 0.9808 -0.0000 0.1951
vn 0.9808 -0.0000 -0.1951
vn -0.2031 0.2837 -0.9372
vn -0.0000 0.2540 -0.9672
vn -0.0000 -0.0000 -1.0000
vn -0.1951 -0.0000 -0.9808
vn -0.6731 0.3064 0.6731
vn -0.7071 -0.0000 0.7071
vn -0.6731 0.3064 -0.6731
vn -0.7071 -0.0000 -0.7071
vn 0.2031 0.2837 0.9372
vn 0.1951 -0.0000 0.9808
vn 0.6731 0.3064 -0.6731
vn 0.7071 -0.0000 -0.7071
vn -0.1438 0.6401 -0.7547
vn -0.2845 0.6689 -0.6868
vn -0.6868 0.6689 -0.2845
vn -0.9372 0.2837 -0.2031
vn -0.7547 0.6401 -0.1438
vn 0.7547 0.6401 -0.1438
vn 0.6868 0.6689 -0.2845
vn 0.2845 0.6689 -0.6868
vn 0.2031 0.2837 -0.9372
vn 0.1438 0.6401 -0.7547
vn 0.1438 0.6401 0.7547
vn 0.6731 0.3064 0.6731
vn 0.2845 0.6689 0.6868
vn 0.6868 0.6689 0.2845
vn 0.7547 0.6401 0.1438
vn -0.9372 0.2837 0.2031
vn -0.0910 0.7182 -0.6899
vn -0.2447 0.7689 -0.5908
vn -0.5908 0.7689 -0.2447
vn -0.6899 0.7182 -0.0910
vn 0.6899 0.7182 -0.0910
vn 0.5908 0.7689 -0.2447
vn 0.2447 0.7689 -0.5908
vn 0.0910 0.7182 -0.6899
vn 0.0910 0.7182 0.6899
vn 0.2447 0.7689 0.5908
vn 0.5908 0.7689 0.2447
vn 0.6899 0.7182 0.0910
vn -0.0000 1.0000 -0.0000
vn 0.5886 0.7972 0.1343
vn 0.4962 0.8134 0.3038
vn 0.5832 0.7992 0.1455
vn 0.7071 -0.0000 0.7071
vn -0.9808 -0.0000 -0.1951
vn -0.9808 -0.0000 0.1951
vn -0.0000 0.5632 0.8263
vn -0.0000 0.6768 0.7362
vn -0.0000 0.6768 -0.7362
vn -0.0000 0.5880 -0.8089
vn 0.1951 -0.0000 -0.9808
vn -0.4962 0.8134 0.3038
vn -0.5886 0.7972 0.1343
vn -0.5832 0.7992 0.1455
vn 0.6449 0.7643 -0.0000
vn -0.6449 0.7643 -0.0000
vn -0.0000 -1.0000 -0.0000
vn -0.2629 0.2680 0.9269
vn -0.1061 0.1082 0.9885
vn -0.4413 0.4812 0.7575
vn -0.5341 0.6162 0.5788
vn -0.6044 0.7163 0.3487
vn -0.6170 0.7312 0.2911
vn -0.6414 0.7601 0.1042
vn -0.6423 0.7612 0.0901
vn 0.6423 0.7612 0.0901
vn 0.6414 0.7601 0.1042
vn 0.6044 0.7163 0.3487
vn 0.6170 0.7312 0.2911
vn 0.4413 0.4812 0.7575
vn 0.5341 0.6162 0.5788
vn 0.1061 0.1082 0.9885
vn 0.2629 0.2680 0.9269
vt 0.129396 0.542217
vt 0.129422 0.542907
vt 0.129435 0.542907
vt 0.129409 0.542217
vt 0.129468 0.542907
vt 0.129441 0.542217
vt 0.129379 0.541526
vt 0.131458 0.541526
vt 0.129426 0.541526
vt 0.292084 0.638354
vt 0.129796 0.541736
vt 0.129988 0.541736
vt 0.129988 0.541236
vt 0.129796 0.541236
vt 0.129393 0.541526
vt 0.129781 0.541736
vt 0.129781 0.541236
vt 0.131491 0.541526
vt 0.129803 0.541750
vt 0.129788 0.541750
vt 0.131475 0.542217
vt 0.131443 0.542217
vt 0.131504 0.541526
vt 0.131488 0.542217
vt 0.129816 0.541765
vt 0.129800 0.541765
vt 0.131449 0.542907
vt 0.131416 0.542907
vt 0.130743 0.541765
vt 0.130755 0.541750
vt 0.130740 0.541750
vt 0.130728 0.541765
vt 0.130179 0.540280
vt 0.130179 0.540254
vt 0.130183 0.540262
vt 0.130185 0.540280
vt 0.130179 0.541421
vt 0.130179 0.541394
vt 0.130185 0.541394
vt 0.130183 0.541413
vt 0.129904 0.540280
vt 0.129906 0.540262
vt 0.129911 0.540254
vt 0.129911 0.540280
vt 0.129906 0.541413
vt 0.129904 0.541394
vt 0.129911 0.541394
vt 0.129911 0.541421
vt 0.130137 0.541421
vt 0.130137 0.541436
vt 0.130128 0.541445
vt 0.130128 0.541416
vt 0.130556 0.541736
vt 0.130556 0.541236
vt 0.130137 0.541394
vt 0.129952 0.541394
vt 0.129952 0.541421
vt 0.129956 0.541765
vt 0.129956 0.541750
vt 0.130587 0.541750
vt 0.130587 0.541765
vt 0.130747 0.541736
vt 0.130763 0.541736
vt 0.130763 0.541236
vt 0.130747 0.541236
vt 0.292080 0.638354
vt 0.292085 0.638354
vt 0.129952 0.541436
vt 0.129961 0.541416
vt 0.129961 0.541445
vt 0.130128 0.541394
vt 0.292088 0.638354
vt 0.129961 0.541394
vt 0.129841 0.541510
vt 0.129841 0.541529
vt 0.129844 0.541523
vt 0.129845 0.541510
vt 0.129688 0.541510
vt 0.129688 0.541529
vt 0.129802 0.541529
vt 0.129802 0.541510
vt 0.129649 0.541510
vt 0.129649 0.541529
vt 0.129688 0.540694
vt 0.129688 0.540712
vt 0.129802 0.540712
vt 0.129802 0.540694
vt 0.129841 0.540694
vt 0.129841 0.540712
vt 0.129845 0.540712
vt 0.129844 0.540699
vt 0.129649 0.540694
vt 0.129649 0.540712
vt 0.129645 0.540712
vt 0.129645 0.541510
vt 0.129646 0.540699
vt 0.129646 0.541523
vt 0.130137 0.540284
vt 0.130118 0.540420
vt 0.130083 0.540363
vt 0.129926 0.540334
vt 0.129957 0.540497
vt 0.129952 0.540568
vt 0.130006 0.540363
vt 0.130013 0.540363
vt 0.129981 0.540420
vt 0.129972 0.540420
vt 0.129967 0.540497
vt 0.129961 0.540568
vt 0.130137 0.540568
vt 0.130128 0.540568
vt 0.130123 0.540497
vt 0.130132 0.540497
vt 0.130109 0.540420
vt 0.130076 0.540363
vt 0.130137 0.540254
vt 0.129952 0.540284
vt 0.129952 0.540254
vt 0.130164 0.540334
vt 0.292019 0.638758
vt 0.292019 0.638112
vt 0.292149 0.638112
vt 0.292149 0.638758
vt 0.292034 0.637995
vt 0.292059 0.637951
vt 0.292109 0.637951
vt 0.292134 0.637995
vt 0.292023 0.638056
vt 0.292145 0.638056
s 1
f 38/1/1 5/2/2 6/3/3 39/4/4
f 39/4/5 6/3/6 4/5/7 37/6/8
f 55/7/9 25/7/10 64/7/11 7/7/12
f 32/8/13 34/9/14 13/9/15 15/8/16
f 56/10/9 55/10/9 7/10/12 3/10/12
f 29/11/17 66/12/18 1/13/19 21/14/20
f 25/7/10 27/15/21 54/15/22 64/7/11
f 30/16/23 29/11/17 21/14/20 20/17/24
f 35/7/25 56/7/9 3/7/12 9/7/26
f 33/18/27 32/8/13 15/8/16 14/18/28
f 41/19/29 29/11/17 30/16/23 42/20/30
f 42/21/31 30/18/23 28/8/32 40/22/33
f 44/22/34 32/8/13 33/18/27 45/21/35
f 45/21/36 33/18/27 31/23/37 43/24/38
f 47/1/39 35/7/25 36/15/40 48/4/41
f 48/4/42 36/15/40 34/9/14 46/6/43
f 25/7/10 38/1/1 39/4/4 27/15/21
f 27/15/21 39/4/5 37/6/8 26/9/44
f 10/25/45 41/19/29 42/20/30 12/26/46
f 12/27/47 42/21/31 40/22/33 11/28/48
f 22/28/49 44/22/34 45/21/35 24/27/50
f 24/29/51 45/30/36 43/31/38 23/32/52
f 16/2/53 47/1/39 48/4/41 18/3/54
f 18/3/55 48/4/42 46/6/43 17/5/56
f 49/33/57 10/34/57 12/35/57 11/36/57
f 5/37/57 50/38/57 4/39/57 6/40/57
f 22/41/57 24/42/57 23/43/57 51/44/57
f 18/45/57 17/46/57 52/47/57 16/48/57
f 59/49/58 58/50/59 55/51/59 72/52/60
f 36/15/40 35/7/25 9/7/26 8/15/61
f 66/12/18 65/53/18 2/54/19 1/13/19
f 26/9/44 28/8/32 53/8/62 63/9/63
f 28/8/32 30/18/23 20/18/24 53/8/62
f 55/7/9 58/1/64 38/1/1 25/7/10
f 35/7/25 47/1/39 57/1/64 56/7/9
f 47/1/39 16/2/53 60/2/65 57/1/64
f 58/1/64 59/2/65 5/2/2 38/1/1
f 59/49/57 70/55/57 50/38/57 5/37/57
f 16/48/57 52/47/57 69/56/57 60/57/57
f 41/19/29 10/25/45 62/58/66 67/59/67
f 68/60/67 61/61/66 23/32/52 43/31/38
f 27/15/21 26/9/44 63/9/63 54/15/22
f 31/62/37 33/63/27 14/64/28 19/65/68
f 65/53/18 68/60/67 43/31/38 31/62/37
f 29/11/17 41/19/29 67/59/67 66/12/18
f 55/66/57 56/66/57 71/67/57 72/67/57
f 57/68/69 60/57/70 71/69/71 56/70/69
f 70/55/72 59/49/58 72/52/60 73/71/72
f 72/67/57 71/67/57 74/72/57 73/72/57
f 60/57/70 69/56/73 74/73/73 71/69/71
f 68/60/67 65/53/18 66/12/18 67/59/67
f 61/61/66 68/60/67 67/59/67 62/58/66
f 17/46/57 22/41/57 51/44/57 52/47/57
f 50/38/57 49/33/57 11/36/57 4/39/57
f 44/22/34 46/6/43 34/9/14 32/8/13
f 37/6/8 40/22/33 28/8/32 26/9/44
f 22/28/49 17/5/56 46/6/43 44/22/34
f 34/9/14 36/15/40 8/15/61 13/9/15
f 4/5/7 11/28/48 40/22/33 37/6/8
f 65/53/18 31/62/37 19/65/68 2/54/19
f 79/74/74 64/75/74 54/76/74 63/77/74
f 78/78/74 3/79/74 7/80/74 77/81/74
f 82/82/74 9/83/74 3/79/74 78/78/74
f 2/84/74 76/85/74 75/86/74 1/87/74
f 21/88/74 80/89/74 53/90/74 20/91/74
f 19/92/74 81/93/74 76/85/74 2/84/74
f 76/85/74 78/78/74 77/81/74 75/86/74
f 80/89/74 79/74/74 63/77/74 53/90/74
f 81/93/74 82/82/74 78/78/74 76/85/74
f 75/86/74 77/81/74 79/74/74 80/89/74
f 77/81/74 7/80/74 64/75/74 79/74/74
f 1/87/74 75/86/74 80/89/74 21/88/74
f 15/94/74 13/95/74 82/82/74 81/93/74
f 14/96/74 15/94/74 81/93/74 19/92/74
f 13/95/74 8/97/74 9/83/74 82/82/74
f 85/98/57 88/99/57 84/100/57
f 91/101/57 94/102/57 90/103/57
f 89/104/75 96/105/76 98/106/77 93/107/78
f 93/107/78 98/106/77 97/108/79 94/102/80
f 94/102/80 97/108/79 95/109/81 90/103/82
f 83/110/83 100/111/84 102/112/85 87/113/86
f 87/113/86 102/112/85 101/114/87 88/99/88
f 88/99/88 101/114/87 99/115/89 84/100/90
f 62/116/57 85/98/57 84/100/57 89/104/57 92/117/57 61/118/57
f 89/104/75 84/100/90 99/115/89 96/105/76
f 83/110/83 70/55/72 73/71/72 100/111/84
f 86/119/57 85/98/57 62/116/57 10/34/57 49/33/57
f 70/55/57 83/110/57 86/119/57 49/33/57 50/38/57
f 51/44/57 23/43/57 61/118/57 92/117/57 91/101/57
f 69/56/73 90/103/82 95/109/81 74/73/73
f 52/47/57 51/44/57 91/101/57 90/103/57 69/56/57
f 93/107/57 94/102/57 91/101/57 92/117/57
f 89/104/57 93/107/57 92/117/57
f 87/113/57 88/99/57 85/98/57 86/119/57
f 83/110/57 87/113/57 86/119/57
f 74/120/57 95/121/57 100/122/57 73/123/57
f 98/124/57 96/125/57 99/126/57 101/127/57
f 95/121/57 97/128/57 102/129/57 100/122/57
f 97/128/57 98/124/57 101/127/57 102/129/57
