# Blender 5.0.1
# www.blender.org
o GEO_RoadRampTile
v -14.036081 -0.113291 4.090658
v -13.948942 -0.113291 4.001988
v -14.010559 -0.113291 4.027959
v -13.873546 1.886709 4.079400
v -13.958600 1.886709 4.165948
v -13.933688 1.886709 4.104750
v -10.052828 -0.113291 4.001988
v -9.965689 -0.113291 4.090658
v -9.991211 -0.113291 4.027959
v -10.043170 0.047088 4.165948
v -10.128224 0.091728 4.079400
v -10.068082 0.047088 4.104749
v -13.948942 -0.113291 7.998012
v -14.036081 -0.113291 7.909342
v -14.010559 -0.113291 7.972041
v -13.958600 1.886709 7.834052
v -13.873546 1.886709 7.920600
v -13.933688 1.886709 7.895251
v -9.965689 -0.113291 7.909342
v -10.052828 -0.113291 7.998012
v -9.991211 -0.113291 7.972041
v -10.128224 0.091728 7.920600
v -10.043170 0.047088 7.834052
v -10.068081 0.047088 7.895250
v -14.036630 1.782102 4.087011
v -13.951120 1.782102 4.000000
v -14.011584 1.782102 4.025486
v -10.050650 -0.057520 4.000000
v -9.965140 -0.057520 4.087011
v -9.990186 -0.057520 4.025485
v -9.965140 -0.057520 7.912989
v -10.050650 -0.057520 8.000000
v -9.990185 -0.057520 7.974514
v -13.951120 1.782102 8.000000
v -14.036630 1.782102 7.912989
v -14.011584 1.782102 7.974515
v -13.922072 1.834406 4.030197
v -14.006954 1.834406 4.116569
v -13.982093 1.834406 4.055495
v -10.079698 -0.005216 4.030196
v -9.994816 -0.005216 4.116569
v -10.019677 -0.005216 4.055494
v -9.994815 -0.005216 7.883431
v -10.079697 -0.005216 7.969803
v -10.019676 -0.005216 7.944505
v -13.922072 1.834406 7.969804
v -14.006954 1.834406 7.883431
v -13.982093 1.834406 7.944506
v -10.128224 0.091728 4.165947
v -13.873546 1.886709 4.165948
v -10.128224 0.091728 7.834052
v -13.873546 1.886709 7.834052
v -14.036081 -0.113291 7.293973
v -14.036081 -0.113291 4.706027
v -14.036630 1.782102 4.858259
v -14.036630 1.782102 7.141740
v -14.006954 1.834406 7.268601
v -14.006954 1.834406 4.731399
v -13.958600 1.886709 4.731399
v -13.958600 1.886709 7.268601
v -10.043170 0.047088 7.268601
v -10.043170 0.047088 4.731399
v -9.965689 -0.113291 4.706027
v -9.965689 -0.113291 7.293973
v -9.969563 -0.060015 7.228484
v -9.969563 -0.060015 4.771516
v -9.994816 -0.005216 4.731399
v -9.994816 -0.005216 7.268601
v -10.128224 0.091728 4.731399
v -10.128224 0.091728 7.268601
v -13.873546 1.886709 7.268601
v -13.873546 1.886709 4.731399
v -10.055359 -0.020592 7.141740
v -10.055359 -0.020592 4.858259
v -13.944164 1.782102 7.141740
v -13.944164 1.782102 4.858259
v -13.873704 1.782027 4.858259
v -13.873704 1.782027 7.141740
v -10.126046 0.012196 7.141740
v -10.126046 0.012196 4.858259
v -10.052828 -0.113291 4.706027
v -13.948942 -0.113291 4.706027
v -10.052828 -0.113291 7.293973
v -13.948942 -0.113291 7.293973
v -10.052828 -0.113291 7.909342
v -13.948942 -0.113291 7.909342
v -10.052828 -0.113291 4.090658
v -13.948942 -0.113291 4.090658
vn -0.7532 0.6426 -0.1410
vn -0.6885 0.7199 -0.0883
vn -0.5894 0.7714 -0.2399
vn -0.6867 0.6711 -0.2795
vn -0.2860 0.6767 -0.6785
vn -0.2453 0.7752 -0.5821
vn 0.0514 0.6618 -0.7480
vn -0.0279 0.6384 -0.7692
vn 0.9394 0.2765 -0.2026
vn 0.9831 -0.0014 -0.1829
vn 0.9257 -0.0337 -0.3768
vn 0.8915 0.2713 -0.3629
vn 0.3745 0.2650 -0.8886
vn 0.3880 -0.0480 -0.9204
vn 0.1939 -0.0251 -0.9807
vn 0.2356 0.2380 -0.9422
vn 0.2356 0.2380 0.9422
vn 0.1939 -0.0251 0.9807
vn 0.3880 -0.0480 0.9204
vn 0.3745 0.2650 0.8886
vn 0.8915 0.2713 0.3629
vn 0.9257 -0.0337 0.3768
vn 0.9831 -0.0014 0.1829
vn 0.9394 0.2765 0.2026
vn -0.9373 0.2850 0.2004
vn -0.9814 -0.0007 0.1919
vn -0.9262 -0.0010 0.3770
vn -0.8878 0.2850 0.3614
vn -0.3718 0.2894 0.8821
vn -0.3884 -0.0014 0.9215
vn -0.1982 -0.0018 0.9801
vn -0.1480 0.3259 0.9337
vn -0.9814 -0.0007 -0.1919
vn -0.9373 0.2850 -0.2004
vn -0.8878 0.2850 -0.3614
vn -0.9262 -0.0010 -0.3770
vn -0.3884 -0.0014 -0.9215
vn -0.3718 0.2894 -0.8821
vn -0.1480 0.3259 -0.9337
vn -0.1982 -0.0018 -0.9802
vn 0.7621 0.6322 -0.1401
vn 0.6867 0.6711 -0.2795
vn 0.3862 0.6374 -0.6667
vn 0.3286 0.5802 -0.7453
vn 0.3286 0.5802 0.7453
vn 0.3862 0.6374 0.6667
vn 0.6867 0.6711 0.2795
vn 0.7621 0.6322 0.1401
vn -0.7532 0.6426 0.1410
vn -0.6867 0.6711 0.2795
vn -0.2860 0.6767 0.6785
vn -0.0279 0.6384 0.7692
vn 0.6885 0.7199 -0.0883
vn 0.5894 0.7714 -0.2399
vn 0.4847 0.6787 -0.5517
vn 0.3215 0.5799 -0.7485
vn 0.3215 0.5799 0.7485
vn 0.4847 0.6787 0.5517
vn 0.5894 0.7714 0.2399
vn 0.6885 0.7199 0.0883
vn -0.6885 0.7199 0.0883
vn -0.5894 0.7714 0.2399
vn -0.2453 0.7752 0.5821
vn 0.0514 0.6618 0.7480
vn 0.4664 0.8843 -0.0225
vn 0.4956 0.8676 -0.0395
vn 0.5330 0.8413 -0.0899
vn 0.4780 0.8774 -0.0398
vn -0.0000 1.0000 -0.0000
vn 0.2216 0.9751 -0.0000
vn 0.2537 0.9673 -0.0000
vn 0.4780 0.8774 0.0398
vn 0.5330 0.8413 0.0899
vn 0.4956 0.8676 0.0395
vn 0.4664 0.8843 0.0225
vn -0.1347 0.8036 0.5798
vn -0.3039 0.8183 0.4878
vn -0.1454 0.8054 0.5747
vn 0.6792 0.6162 0.3988
vn 0.5224 0.7256 0.4479
vn 0.5195 0.7272 0.4486
vn 0.4188 0.9081 -0.0000
vn 0.4239 0.9057 -0.0000
vn 0.9521 0.3056 -0.0014
vn 0.9993 0.0381 -0.0027
vn 0.9993 0.0381 0.0027
vn 0.9521 0.3056 0.0014
vn 0.3737 0.7707 -0.5161
vn 0.5224 0.7256 -0.4479
vn 0.5195 0.7272 -0.4486
vn 0.3788 0.7758 -0.5046
vn -0.9981 0.0616 -0.0000
vn -1.0000 -0.0003 -0.0000
vn -0.8250 0.5651 -0.0000
vn -0.7343 0.6788 -0.0000
vn 0.7343 0.6788 -0.0000
vn 0.8317 0.5552 0.0023
vn 0.4485 0.8938 -0.0000
vn 0.4647 0.8855 -0.0000
vn 0.8317 0.5553 -0.0023
vn 0.0005 1.0000 -0.0000
vn -0.3039 0.8183 -0.4878
vn -0.1347 0.8036 -0.5798
vn -0.1454 0.8054 -0.5746
vn 0.1656 0.7780 0.6061
vn 0.1979 0.7767 0.5980
vn 0.2193 0.9756 -0.0000
vn 0.1656 0.7780 -0.6061
vn 0.1979 0.7767 -0.5980
vn 0.6792 0.6162 -0.3988
vn 0.3737 0.7707 0.5161
vn 0.3788 0.7758 0.5046
vn -0.0000 -1.0000 -0.0000
vt 0.131167 0.541935
vt 0.131148 0.541969
vt 0.131172 0.541969
vt 0.131191 0.541935
vt 0.131181 0.541969
vt 0.131200 0.541935
vt 0.131178 0.540688
vt 0.131163 0.540651
vt 0.131186 0.540651
vt 0.131202 0.540688
vt 0.131196 0.540651
vt 0.131212 0.540688
vt 0.129666 0.540688
vt 0.129682 0.540651
vt 0.129692 0.540651
vt 0.129676 0.540688
vt 0.129715 0.540651
vt 0.129700 0.540688
vt 0.129700 0.541901
vt 0.129676 0.541901
vt 0.129666 0.541901
vt 0.131178 0.541901
vt 0.131202 0.541901
vt 0.131212 0.541901
vt 0.131167 0.540722
vt 0.131191 0.540722
vt 0.131200 0.540722
vt 0.129678 0.540722
vt 0.129687 0.540722
vt 0.129711 0.540722
vt 0.129711 0.541935
vt 0.129687 0.541935
vt 0.129678 0.541935
vt 0.131148 0.540757
vt 0.131172 0.540757
vt 0.131181 0.540786
vt 0.129697 0.540786
vt 0.129706 0.540757
vt 0.129730 0.540757
vt 0.129730 0.541969
vt 0.129706 0.541969
vt 0.129697 0.541969
vt 0.131148 0.540786
vt 0.129730 0.540786
vt 0.130929 0.541969
vt 0.130929 0.541935
vt 0.130880 0.541901
vt 0.130880 0.540686
vt 0.130929 0.540722
vt 0.130929 0.540757
vt 0.130880 0.540712
vt 0.292025 0.638237
vt 0.292143 0.638237
vt 0.292143 0.638241
vt 0.292025 0.638241
vt 0.292025 0.638450
vt 0.292019 0.638259
vt 0.292150 0.638259
vt 0.292143 0.638450
vt 0.129949 0.540786
vt 0.129949 0.540757
vt 0.129998 0.540712
vt 0.129998 0.540734
vt 0.291706 0.639790
vt 0.291798 0.637447
vt 0.289959 0.637447
vt 0.290051 0.639790
vt 0.129998 0.541901
vt 0.129949 0.540651
vt 0.130929 0.540651
vt 0.129949 0.541935
vt 0.129949 0.541969
vt 0.130929 0.540786
vt 0.129949 0.540722
vt 0.129998 0.540686
vt 0.292143 0.638477
vt 0.292025 0.638477
vt 0.292025 0.638232
vt 0.292143 0.638232
vt 0.130880 0.540734
vt 0.294210 0.636919
vt 0.132215 0.540370
s 1
f 38/1/1 5/2/2 6/3/3 39/4/4
f 39/4/5 6/3/6 4/5/7 37/6/8
f 29/7/9 8/8/10 9/9/11 30/10/12
f 30/10/13 9/9/14 7/11/15 28/12/16
f 32/13/17 20/14/18 21/15/19 33/16/20
f 33/16/21 21/15/22 19/17/23 31/18/24
f 35/19/25 14/17/26 15/15/27 36/20/28
f 36/20/29 15/15/30 13/14/31 34/21/32
f 1/8/33 25/22/34 27/23/35 3/9/36
f 3/9/37 27/23/38 26/24/39 2/11/40
f 41/25/41 29/7/9 30/10/12 42/26/42
f 42/26/43 30/10/13 28/12/16 40/27/44
f 44/28/45 32/13/17 33/16/20 45/29/46
f 45/29/47 33/16/21 31/18/24 43/30/48
f 47/31/49 35/19/25 36/20/28 48/32/50
f 48/32/51 36/20/29 34/21/32 46/33/52
f 25/22/34 38/1/1 39/4/4 27/23/35
f 27/23/38 39/4/5 37/6/8 26/24/39
f 10/34/53 41/25/41 42/26/42 12/35/54
f 12/35/55 42/26/43 40/27/44 11/36/56
f 22/37/57 44/28/45 45/29/46 24/38/58
f 24/38/59 45/29/47 43/30/48 23/39/60
f 16/40/61 47/31/49 48/32/50 18/41/62
f 18/41/63 48/32/51 46/33/52 17/42/64
f 49/43/65 10/34/66 12/35/67 11/36/68
f 5/2/69 50/2/70 4/5/71 6/3/69
f 22/37/72 24/38/73 23/39/74 51/44/75
f 18/41/69 17/42/71 52/40/70 16/40/69
f 59/45/76 58/46/77 55/47/77 76/47/78
f 66/48/79 67/49/79 62/50/80 74/51/81
f 73/52/82 74/53/82 80/54/83 79/55/83
f 65/56/84 64/57/85 63/58/86 66/59/87
f 70/60/88 61/61/89 73/62/90 79/63/91
f 55/64/92 54/65/93 53/66/93 56/67/92
f 14/17/26 35/19/25 56/68/92 53/69/93
f 54/70/93 55/47/92 25/22/34 1/8/33
f 55/47/92 58/46/94 38/1/1 25/22/34
f 35/19/25 47/31/49 57/71/94 56/68/92
f 47/31/49 16/40/61 60/72/95 57/71/94
f 58/46/94 59/45/95 5/2/2 38/1/1
f 59/45/69 72/45/70 50/2/70 5/2/69
f 16/40/69 52/40/70 71/72/70 60/72/69
f 41/25/41 10/34/53 62/50/96 67/49/97
f 69/73/98 62/50/99 10/34/66 49/43/65
f 68/74/100 61/61/96 23/39/60 43/30/48
f 51/44/75 23/39/74 61/61/99 70/60/98
f 8/8/10 29/7/9 66/48/87 63/70/86
f 64/69/85 65/75/84 31/18/24 19/17/23
f 65/75/84 68/74/100 43/30/48 31/18/24
f 29/7/9 41/25/41 67/49/97 66/48/87
f 55/76/69 56/77/69 75/77/101 76/76/101
f 57/71/102 60/72/103 75/68/104 56/68/102
f 72/45/105 59/45/76 76/47/78 77/47/106
f 76/76/101 75/77/101 78/77/107 77/76/107
f 65/78/84 66/79/87 74/53/82 73/52/82
f 60/72/103 71/72/108 78/68/109 75/68/104
f 61/61/89 68/74/110 65/75/110 73/62/90
f 74/51/81 62/50/80 69/73/111 80/80/112
f 71/72/108 70/60/88 79/63/91 78/68/109
f 72/45/70 69/73/98 49/43/65 50/2/70
f 52/40/70 51/44/75 70/60/98 71/72/70
f 69/73/111 72/45/105 77/47/106 80/80/112
f 80/54/83 77/76/107 78/77/107 79/55/83
f 17/42/71 22/37/72 51/44/75 52/40/70
f 50/2/70 49/43/65 11/36/68 4/5/71
f 44/28/45 46/33/52 34/21/32 32/13/17
f 37/6/8 40/27/44 28/12/16 26/24/39
f 22/37/57 17/42/64 46/33/52 44/28/45
f 32/13/17 34/21/32 13/14/31 20/14/18
f 4/5/7 11/36/56 40/27/44 37/6/8
f 26/24/39 28/12/16 7/11/15 2/11/40
f 86/17/113 13/14/113 15/15/113 14/17/113
f 85/17/113 20/14/113 13/14/113 86/17/113
f 19/17/113 21/15/113 20/14/113 85/17/113
f 87/8/113 81/70/113 82/70/113 88/8/113
f 8/8/113 63/70/113 81/70/113 87/8/113
f 88/8/113 82/70/113 54/70/113 1/8/113
f 81/65/113 83/66/113 84/66/113 82/65/113
f 63/65/113 64/81/113 83/66/113 81/65/113
f 82/65/113 84/66/113 53/66/113 54/65/113
f 83/69/113 85/17/113 86/17/113 84/69/113
f 64/82/113 19/17/113 85/17/113 83/69/113
f 84/69/113 86/17/113 14/17/113 53/69/113
f 7/11/113 87/8/113 88/8/113 2/11/113
f 9/9/113 8/8/113 87/8/113 7/11/113
f 2/11/113 88/8/113 1/8/113 3/9/113
