# Blender 5.0.1
# www.blender.org
o GEO_CoastTurnTile
v 1.972266 -2.013760 -16.025484
v 1.910810 -2.013760 -16.000000
v 2.002278 -2.013756 -16.087011
v -1.918413 -0.013760 -16.165947
v -1.831964 -0.013760 -16.079399
v -1.893093 -0.013760 -16.104748
v -1.831964 -0.013760 -19.920601
v -1.918413 -0.013760 -19.834053
v -1.893093 -0.013760 -19.895250
v -1.972266 -2.013760 -19.974516
v -1.910810 -2.013760 -20.000000
v -1.997722 -2.013760 -19.912989
v 1.831963 -0.013760 -16.079399
v 1.918413 -0.013760 -16.165947
v 1.893093 -0.013760 -16.104750
v -1.972266 -2.013760 -16.025484
v -1.997722 -2.013760 -16.087011
v -1.910810 -2.013760 -16.000000
v -1.910810 -0.058829 -16.000000
v -1.997722 -0.058829 -16.087011
v -1.972266 -0.058829 -16.025484
v -1.997722 -0.058829 -19.912989
v -1.910810 -0.058829 -20.000000
v -1.972266 -0.058829 -19.974516
v 2.002278 -0.058829 -16.087011
v 1.910810 -0.058829 -16.000000
v 1.972266 -0.058829 -16.025484
v -1.831964 -0.013760 -19.834053
v -1.831964 -0.013760 -16.165947
v 1.831963 -0.013760 -16.165947
v 1.904114 -0.013760 -17.417150
v 2.002278 -0.086950 -17.555569
v 1.815157 -0.013760 -17.417150
v -0.601912 -0.013760 -19.894480
v -0.451337 -0.086950 -20.000000
v -0.601912 -0.013760 -19.805422
v 2.002278 -0.086950 -20.000000
v 2.002278 -2.013756 -20.000000
v 2.002278 -2.013756 -17.601887
v -0.451337 -2.013758 -20.000000
v 0.403782 -0.086950 -20.000000
v 0.403782 -2.013757 -20.000000
v 2.002278 -2.013756 -18.443815
v 2.002278 -0.086950 -18.398897
v 0.973362 -0.086950 -17.339134
v -0.980287 -0.086950 -18.820532
v -0.058778 -0.086950 -17.612547
v -0.727346 -0.086950 -17.985157
v 0.927290 -0.013760 -17.202576
v -1.100400 -0.013760 -18.770903
v -1.110219 -0.013760 -16.892395
v -0.175966 -0.013760 -17.483400
v -0.790897 -0.013760 -17.861162
v -0.088305 -0.086950 -19.419680
v 1.208025 -0.086950 -18.041044
v 1.191037 -0.086950 -19.182178
v -0.076955 -0.086950 -18.743458
v 0.720254 -0.086950 -18.143509
v -0.453718 -2.013757 -18.081167
v 0.515016 -2.013757 -18.856060
v -1.926816 -2.013760 -16.087011
v -1.911226 -2.013760 -19.898409
v 1.899658 -2.013756 -16.087011
vn -0.8134 0.4745 0.3365
vn -0.3690 0.9168 0.1527
vn -0.4529 0.8900 0.0531
vn -0.8414 0.5092 0.1812
vn -0.0438 0.8757 -0.4808
vn -0.1787 0.5056 -0.8440
vn -0.3371 0.4750 -0.8129
vn -0.1529 0.9169 -0.3687
vn 0.3371 0.4750 0.8129
vn 0.1815 0.5092 0.8413
vn 0.1953 -0.0000 0.9807
vn 0.3831 -0.0000 0.9237
vn -0.0000 -0.0000 -1.0000
vn -0.1953 -0.0000 -0.9807
vn -0.3831 -0.0000 -0.9237
vn -0.1815 0.5092 0.8413
vn -0.3371 0.4750 0.8129
vn -0.3831 -0.0000 0.9237
vn -0.1953 -0.0000 0.9807
vn -0.9808 -0.0000 0.1949
vn -0.9240 -0.0000 0.3823
vn 0.8410 0.5027 0.1998
vn 0.7854 0.4917 0.3761
vn 0.8988 -0.0000 0.4384
vn 0.9744 -0.0000 0.2250
vn -0.3690 0.9168 -0.1527
vn -0.8134 0.4745 -0.3365
vn -0.8414 0.5092 -0.1812
vn -0.4529 0.8900 -0.0531
vn 0.0532 0.8902 0.4524
vn 0.1529 0.9169 0.3687
vn 0.3544 0.9214 0.1598
vn 0.4800 0.8759 0.0491
vn 0.0140 0.8448 -0.5348
vn 0.0027 0.1640 -0.9865
vn -0.9808 -0.0000 -0.1949
vn -0.0000 1.0000 -0.0000
vn -0.9240 -0.0000 -0.3823
vn -0.0532 0.8902 0.4524
vn 0.9860 0.1665 -0.0023
vn 0.5421 0.8402 -0.0115
vn -0.0973 0.8423 -0.5302
vn -0.0000 0.8840 -0.4674
vn -0.0767 0.8522 -0.5176
vn 0.5675 0.8054 0.1711
vn 0.4372 0.8994 -0.0000
vn 0.6151 0.7498 0.2436
vn -0.1529 0.9169 0.3687
vn 1.0000 -0.0000 -0.0000
vn 0.0184 0.8783 -0.4778
vn -0.0236 0.8661 -0.4993
vn 0.1533 0.9018 -0.4039
vn 0.1748 0.9031 -0.3921
vn 0.3997 0.8813 -0.2521
vn 0.3271 0.8957 -0.3011
vn 0.6149 0.7795 0.1197
vn 0.5781 0.8159 -0.0037
vn -0.0000 -1.0000 -0.0000
vn -0.0000 -1.0000 -0.0001
vt 0.129466 0.541666
vt 0.129495 0.543042
vt 0.129486 0.543042
vt 0.129457 0.541666
vt 0.129518 0.543042
vt 0.129489 0.541666
vt 0.129495 0.543042
vt 0.130917 0.541666
vt 0.130894 0.541666
vt 0.117955 0.874704
vt 0.117565 0.874083
vt 0.130926 0.541666
vt 0.129486 0.543042
vt 0.130865 0.543042
vt 0.130888 0.543042
vt 0.130897 0.543042
vt 0.130191 0.543042
vt 0.130191 0.541666
vt 0.129518 0.543042
vt 0.129518 0.543042
vt 0.130895 0.542354
vt 0.878248 0.810854
vt 0.878270 0.809662
vt 0.878238 0.811390
vt 0.878227 0.811986
vt 0.129840 0.542354
vt 0.879519 0.814310
vt 0.879064 0.813204
vt 0.878808 0.812582
vt 0.117707 0.875365
vt 0.117813 0.873422
vt 0.117760 0.874393
vt 0.130505 0.543042
vt 0.130348 0.543042
vt 0.129870 0.543042
vt 0.130233 0.543042
vt 0.130191 0.543042
vt 0.117955 0.874704
vt 0.117760 0.874393
vt 0.130485 0.543042
vt 0.130271 0.543042
vt 0.879710 0.813243
vt 0.880334 0.813243
vt 0.880026 0.813243
vt 0.879277 0.813243
vt 0.879116 0.813242
vt 0.879419 0.813243
vt 0.879344 0.813243
vt 0.879019 0.813243
vt 0.117867 0.874393
vt 0.117653 0.874393
vt 0.117743 0.874393
vt 0.119435 0.875075
vt 0.120226 0.875598
vt 0.115295 0.873188
vt 0.129483 0.541666
vt 0.130368 0.542354
vt 0.130888 0.541666
vt 0.877684 0.811390
vt 0.877129 0.811390
vt 0.878684 0.813204
vt 0.878031 0.812595
vt 0.116929 0.874552
vt 0.129489 0.541666
s 1
f 21/1/1 6/2/2 4/3/3 20/4/4
f 7/5/5 23/6/6 24/1/7 9/7/8
f 27/8/9 26/9/10 2/9/11 1/8/12
f 41/10/13 37/10/13 38/10/13 42/11/13
f 24/1/7 23/6/6 11/6/14 10/1/15
f 19/6/16 21/1/17 16/1/18 18/6/19
f 21/1/1 20/4/4 17/4/20 16/1/21
f 25/12/22 27/8/23 1/8/24 3/12/25
f 9/7/26 24/1/27 22/4/28 8/13/29
f 13/14/30 26/9/10 27/8/9 15/15/31
f 15/15/32 27/8/23 25/12/22 14/16/33
f 23/6/6 7/5/5 34/17/34 35/18/35
f 26/9/10 19/6/16 18/6/19 2/9/11
f 20/4/4 22/4/28 12/4/36 17/4/20
f 28/19/37 7/5/37 9/7/37 8/13/37
f 22/4/28 24/1/27 10/1/38 12/4/36
f 26/9/10 13/14/30 5/20/39 19/6/16
f 32/12/40 31/16/41 14/16/33 25/12/22
f 5/20/37 29/20/37 4/3/37 6/2/37
f 29/20/37 28/19/37 8/13/37 4/3/37
f 36/17/37 34/17/37 7/5/37 28/19/37
f 15/15/37 14/16/37 30/14/37 13/14/37
f 14/16/37 31/16/37 33/14/37 30/14/37
f 20/4/4 4/3/3 8/13/29 22/4/28
f 13/14/37 30/14/37 29/20/37 5/20/37
f 33/14/42 31/16/43 32/14/44
f 35/18/45 34/17/46 36/17/47
f 19/6/16 5/20/39 6/2/48 21/1/17
f 32/12/40 25/12/22 3/12/25 39/21/49
f 44/22/49 32/23/40 39/24/49 43/25/49
f 23/6/6 35/17/35 40/26/13 11/6/14
f 35/27/35 41/27/13 42/28/13 40/29/13
f 37/30/49 44/31/49 43/32/49 38/30/49
f 49/33/37 52/34/37 51/35/37
f 52/34/37 53/36/37 51/35/37
f 53/36/37 50/37/37 51/35/37
f 54/10/37 57/10/37 56/38/37
f 57/32/37 58/39/37 56/32/37
f 58/39/37 55/32/37 56/32/37
f 49/33/50 45/40/51 47/41/52 52/34/53
f 52/34/53 47/41/52 48/17/54 53/17/55
f 45/42/37 55/43/37 58/44/37 47/45/37
f 47/45/37 58/46/37 57/46/37 48/46/37
f 48/46/37 57/46/37 54/46/37 46/46/37
f 53/17/55 48/17/54 46/17/56 50/37/57
f 49/33/50 33/14/42 32/14/44 45/40/51
f 32/47/37 44/47/37 55/48/37 45/49/37
f 46/46/37 54/46/37 41/46/37 35/46/37
f 29/20/37 51/35/37 50/37/37 36/17/37 28/19/37
f 30/14/37 33/14/37 49/33/37 51/35/37 29/20/37
f 44/50/37 37/50/37 56/51/37 55/52/37
f 54/10/37 56/38/37 37/10/37 41/10/37
f 60/53/58 42/54/58 38/55/58
f 16/1/58 17/4/58 61/56/58
f 59/57/58 39/21/58 3/12/58 63/58/58
f 59/59/58 40/60/58 42/61/58 60/62/58
f 39/24/58 59/59/58 60/62/58 43/25/58
f 43/63/58 60/53/58 38/55/58
f 62/64/58 11/6/58 40/26/58 59/57/58
f 18/6/58 16/1/58 61/56/58
f 62/64/58 10/1/58 11/6/58
f 1/8/59 63/58/58 3/12/58
f 61/56/58 62/64/58 59/57/58
f 12/4/58 10/1/58 62/64/58
f 61/56/58 59/57/58 63/58/58
f 2/9/58 18/6/58 61/56/58 63/58/58
f 1/8/59 2/9/58 63/58/58
f 17/4/58 12/4/58 62/64/58 61/56/58
f 36/17/47 50/37/57 46/17/56 35/17/45
