# Blender 5.0.1
# www.blender.org
o GEO_ForestTree_B
v 8.328447 -0.000000 11.761151
v 8.336903 -0.000000 11.773565
v 7.761040 0.000000 11.672183
v 7.773302 0.000000 11.663051
v 7.671546 0.000000 12.238848
v 7.663178 0.000000 12.225980
v 8.238918 -0.000000 12.328058
v 8.226713 -0.000000 12.336951
v 8.832398 1.941233 12.388241
v 8.843113 1.932423 12.384073
v 8.937399 1.932423 12.268769
v 8.938890 1.941727 12.257509
v 8.877383 2.065473 12.207214
v 8.866371 2.074311 12.211718
v 8.772881 2.074311 12.326049
v 8.770632 2.065501 12.337734
v 7.207358 2.040728 12.375114
v 7.217786 2.049179 12.379025
v 7.104218 2.049179 12.221876
v 7.104296 2.040728 12.232503
v 7.197928 2.197397 12.167048
v 7.186810 2.188942 12.162189
v 7.300374 2.188934 12.319341
v 7.299238 2.197397 12.307235
v 7.879049 2.681897 11.545673
v 7.877103 2.682687 11.560337
v 8.023422 2.682687 11.447815
v 8.008773 2.681897 11.445923
v 8.120956 2.695827 11.591838
v 8.122888 2.695036 11.577168
v 7.976590 2.695039 11.689717
v 7.991247 2.695827 11.691578
v 8.267638 0.619322 11.828318
v 8.259254 0.616552 11.815506
v 7.819677 0.616552 11.737828
v 7.807331 0.619433 11.747432
v 7.732348 0.726424 12.171759
v 7.740741 0.729175 12.184493
v 8.180339 0.729175 12.262175
v 8.192512 0.726518 12.253460
v 8.261655 0.950899 11.678239
v 8.254539 0.950298 11.665284
v 7.874818 0.953143 11.597321
v 7.864383 0.951149 11.608517
v 7.805891 1.129034 11.939518
v 7.814509 1.134219 11.950989
v 8.190606 1.131877 12.018875
v 8.203012 1.129244 12.010096
v 8.277261 1.421217 12.002990
v 8.264036 1.429318 12.007445
v 8.452269 1.430083 11.778574
v 8.451551 1.421217 11.789846
v 8.292038 1.668920 11.664138
v 8.290049 1.684421 11.675672
v 8.151951 1.660604 11.913428
v 8.153099 1.669961 11.901006
v 8.137596 1.671110 11.907280
v 8.139320 1.663509 11.912303
v 7.841372 1.448656 12.001627
v 7.826908 1.443834 11.996162
v 7.658521 1.443834 11.763160
v 7.659901 1.450563 11.751006
v 7.821170 1.683644 11.634291
v 7.821715 1.665381 11.620221
v 8.004630 1.684335 11.878940
v 7.991654 1.694469 11.862937
v 8.066554 1.676200 11.419930
v 8.081523 1.676230 11.421158
v 8.077132 1.666398 11.416639
v 8.071875 1.666219 11.415765
v 8.067213 1.671870 11.419358
v 8.292001 0.360667 11.786651
v 8.300453 0.360667 11.799076
v 7.786535 0.360667 11.708655
v 7.798802 0.360667 11.699498
v 7.707994 0.360667 12.213347
v 7.699630 0.360667 12.200451
v 8.213421 0.360667 12.291595
v 8.201213 0.360667 12.300505
v 7.697927 2.282284 12.128951
v 7.697927 3.046810 12.263758
v 7.148985 2.731950 11.814092
v 7.697927 2.636627 12.354693
v 7.380995 2.654119 12.255491
v 7.309766 2.954590 12.132053
v 7.309766 2.413988 12.036731
v 7.697927 3.535120 11.921840
v 7.697927 3.669927 11.157313
v 7.148985 3.220261 11.472173
v 7.697927 3.760862 11.567495
v 7.380995 3.661660 11.550004
v 7.309766 3.538223 11.249534
v 7.309766 3.442900 11.790135
v 7.697927 1.940365 11.640641
v 7.148985 2.390032 11.325781
v 7.697927 2.075172 10.876115
v 7.309767 2.072069 11.548421
v 7.380995 1.948632 11.247951
v 7.309767 2.167392 11.007819
v 7.697927 1.849430 11.230458
v 7.697927 3.328009 10.669003
v 7.697927 2.563482 10.534196
v 7.148985 2.878342 10.983863
v 7.697927 2.973665 10.443261
v 7.380995 2.956172 10.542463
v 7.309766 2.655702 10.665900
v 7.309766 3.196304 10.761223
v 8.294044 2.282284 12.128951
v 8.842985 2.731950 11.814092
v 8.294044 3.046810 12.263758
v 8.682204 2.413988 12.036731
v 8.610975 2.654119 12.255491
v 8.682204 2.954590 12.132053
v 8.294044 2.636628 12.354693
v 8.294044 3.669927 11.157313
v 8.294044 3.535120 11.921840
v 8.842985 3.220261 11.472173
v 8.294044 3.760862 11.567495
v 8.610975 3.661660 11.550004
v 8.682204 3.442900 11.790135
v 8.682204 3.538223 11.249534
v 8.294044 1.940365 11.640641
v 8.294044 2.075172 10.876115
v 8.842985 2.390032 11.325781
v 8.294044 1.849430 11.230458
v 8.610975 1.948632 11.247951
v 8.682204 2.167392 11.007819
v 8.682204 2.072069 11.548421
v 8.294044 3.328009 10.669003
v 8.842985 2.878342 10.983863
v 8.294044 2.563482 10.534196
v 8.682204 3.196304 10.761223
v 8.610975 2.956172 10.542463
v 8.682204 2.655702 10.665900
v 8.294044 2.973665 10.443260
v 8.503474 1.791600 12.036008
v 8.322324 1.948481 12.488885
v 8.189712 2.195937 12.060278
v 8.375381 1.772567 12.281205
v 8.217736 1.885930 12.178877
v 8.153518 2.058477 12.298367
v 8.281610 1.947545 11.978134
v 8.322324 2.289207 12.685604
v 8.503474 2.759851 12.595028
v 8.189712 2.536664 12.256996
v 8.375381 2.557020 12.734110
v 8.217736 2.588958 12.584771
v 8.281610 2.731998 12.431039
v 8.153518 2.399203 12.495086
v 8.700192 1.961963 11.740931
v 8.386431 2.366301 11.765200
v 8.881344 2.432606 11.650355
v 8.478330 2.117908 11.683057
v 8.623630 2.237444 11.570037
v 8.606422 2.450703 11.619010
v 8.828285 2.164793 11.601849
v 8.700192 2.930214 12.299951
v 8.881344 2.773333 11.847074
v 8.386431 2.707027 11.961919
v 8.828285 2.949247 12.054753
v 8.623630 2.940472 11.975931
v 8.606422 2.791430 11.815729
v 8.478330 2.902362 12.135961
v 8.844201 1.693241 12.206371
v 9.157963 1.916427 12.544403
v 8.663050 1.850122 12.659248
v 9.066064 1.721093 12.370361
v 8.920764 1.682983 12.530392
v 8.937971 1.832025 12.690594
v 8.716107 1.674208 12.451569
v 8.844201 2.661491 12.765391
v 8.663050 2.190848 12.855967
v 9.157963 2.257154 12.741122
v 8.716108 2.458661 12.904473
v 8.920764 2.386011 12.936285
v 8.937971 2.172751 12.887312
v 9.066064 2.505546 12.823265
v 9.040919 1.863604 11.911294
v 9.222070 2.334247 11.820719
v 9.354681 2.086791 12.249326
v 9.169012 2.066434 11.772212
v 9.326657 2.034497 11.921552
v 9.390876 2.224251 12.011237
v 9.262783 1.891456 12.075283
v 9.040919 2.831855 12.470314
v 9.354681 2.427517 12.446044
v 9.222070 2.674974 12.017437
v 9.262783 2.675910 12.528188
v 9.326657 2.737525 12.327445
v 9.390876 2.564978 12.207955
v 9.169012 2.850888 12.225117
v 7.369459 1.806649 11.922745
v 6.836815 1.959312 12.025892
v 7.080865 2.100214 11.537792
v 7.075362 1.771637 11.995681
v 7.041190 1.811620 11.760045
v 6.871295 1.979218 11.723478
v 7.247931 1.871270 11.650542
v 6.620425 2.334111 12.025892
v 6.754538 2.871725 11.922745
v 6.864475 2.475013 11.537792
v 6.577167 2.634535 11.995681
v 6.594707 2.584950 11.760045
v 6.749736 2.734168 11.650542
v 6.654904 2.354018 11.723478
v 7.731487 2.015666 11.810733
v 7.442894 2.309231 11.425780
v 7.865600 2.553281 11.707585
v 7.609959 2.080287 11.538530
v 7.788170 2.242889 11.528928
v 7.704791 2.460438 11.465594
v 7.908858 2.252856 11.737796
v 7.116566 3.080742 11.810733
v 7.649209 2.928080 11.707585
v 7.226503 2.684030 11.425780
v 7.410663 3.115755 11.737796
v 7.341687 3.016220 11.528928
v 7.488400 2.835237 11.465594
v 7.111764 2.943186 11.538530
v 7.466465 1.862655 12.340778
v 7.356527 2.259367 12.725730
v 6.933821 2.015318 12.443926
v 7.471266 2.000212 12.612981
v 7.241343 1.927178 12.622582
v 7.094629 2.108161 12.685917
v 7.172367 1.827643 12.413714
v 6.851542 2.927731 12.340778
v 6.717430 2.390117 12.443926
v 7.140137 2.634166 12.725730
v 6.674172 2.690541 12.413715
v 6.794860 2.700509 12.622582
v 6.878239 2.482960 12.685917
v 6.973071 2.863111 12.612981
v 7.828493 2.071672 12.228766
v 7.962605 2.609287 12.125619
v 7.718555 2.468385 12.613718
v 8.005863 2.308862 12.155830
v 7.988323 2.358447 12.391466
v 7.928125 2.589380 12.428032
v 7.833294 2.209229 12.500969
v 7.213571 3.136748 12.228766
v 7.502165 2.843184 12.613718
v 7.746214 2.984086 12.125619
v 7.335099 3.072128 12.500969
v 7.541840 3.131778 12.391466
v 7.711735 2.964179 12.428032
v 7.507668 3.171761 12.155830
v 7.916384 1.604879 12.341711
v 7.441267 1.732186 12.341711
v 7.742479 1.906091 11.993902
v 7.652460 1.570132 12.341711
v 7.668978 1.631782 12.140903
v 7.529490 1.783121 12.095773
v 7.865448 1.693102 12.095773
v 7.252418 2.059283 12.341711
v 7.379725 2.534400 12.341711
v 7.553629 2.233188 11.993902
v 7.217671 2.323208 12.341711
v 7.279321 2.306689 12.140903
v 7.430660 2.446177 12.095773
v 7.340641 2.110219 12.095773
v 8.243482 1.793729 12.341711
v 8.069576 2.094940 11.993902
v 8.370789 2.268845 12.341711
v 8.192546 1.881952 12.095773
v 8.343885 2.021440 12.140903
v 8.282565 2.217910 12.095773
v 8.405535 2.004921 12.341711
v 7.706822 2.723250 12.341711
v 8.181938 2.595942 12.341711
v 7.880727 2.422038 11.993902
v 7.970747 2.757996 12.341711
v 7.954227 2.696346 12.140903
v 8.093716 2.545007 12.095773
v 7.757758 2.635026 12.095773
v 7.916384 1.604879 12.719411
v 7.742479 1.906091 13.067220
v 7.441267 1.732186 12.719411
v 7.865448 1.693102 12.965349
v 7.668978 1.631782 12.920218
v 7.529490 1.783121 12.965349
v 7.652460 1.570132 12.719411
v 7.379725 2.534400 12.719411
v 7.252418 2.059283 12.719411
v 7.553629 2.233188 13.067220
v 7.217671 2.323208 12.719411
v 7.279321 2.306689 12.920218
v 7.340641 2.110219 12.965349
v 7.430660 2.446177 12.965349
v 8.243482 1.793729 12.719411
v 8.370789 2.268845 12.719411
v 8.069576 2.094940 13.067220
v 8.405535 2.004921 12.719411
v 8.343885 2.021440 12.920218
v 8.282565 2.217910 12.965349
v 8.192546 1.881952 12.965349
v 7.706822 2.723250 12.719411
v 7.880727 2.422038 13.067220
v 8.181938 2.595942 12.719411
v 7.757758 2.635026 12.965349
v 7.954227 2.696346 12.920218
v 8.093716 2.545007 12.965349
v 7.970747 2.757996 12.719411
vn 0.5486 0.1140 -0.8283
vn 0.9691 0.1134 -0.2191
vn -0.8400 0.1130 -0.5307
vn -0.2398 0.1144 -0.9641
vn -0.5575 0.1145 0.8223
vn -0.9715 0.1129 0.2086
vn 0.8371 0.1133 0.5351
vn 0.2347 0.1142 0.9653
vn -0.3650 -0.2606 0.8938
vn 0.2159 -0.7256 0.6534
vn 0.7020 -0.7106 0.0461
vn 0.7893 -0.2186 -0.5739
vn 0.5001 0.3527 -0.7909
vn -0.0796 0.8398 -0.5370
vn -0.5727 0.8166 0.0715
vn -0.6752 0.3561 0.6460
vn -0.2918 -0.7090 0.6420
vn 0.2967 -0.2707 0.9158
vn -0.7630 -0.2306 -0.6038
vn -0.7271 -0.6864 0.0144
vn 0.1443 0.7930 -0.5918
vn -0.4339 0.3362 -0.8359
vn 0.6817 0.4389 0.5854
vn 0.5497 0.8310 -0.0850
vn -0.8669 0.0140 -0.4983
vn -0.9627 0.0739 0.2604
vn 0.4764 0.0536 -0.8776
vn -0.2892 0.0066 -0.9572
vn 0.8615 0.1805 0.4746
vn 0.9356 0.1238 -0.3306
vn -0.6655 0.1197 0.7367
vn 0.0711 0.1819 0.9807
vn 0.9887 0.0401 -0.1442
vn 0.5811 -0.0744 -0.8104
vn -0.2845 -0.0703 -0.9561
vn -0.8854 0.0432 -0.4628
vn -0.9594 0.1943 0.2045
vn -0.5263 0.3075 0.7927
vn 0.2131 0.3086 0.9270
vn 0.8244 0.1979 0.5302
vn 0.9691 -0.1966 -0.1488
vn 0.5624 -0.2968 -0.7718
vn -0.3311 -0.2851 -0.8995
vn -0.8894 -0.1474 -0.4327
vn -0.9494 0.0038 0.3141
vn -0.4839 0.1728 0.8579
vn 0.2117 0.2263 0.9508
vn 0.7968 -0.0206 0.6039
vn 0.4657 -0.4774 0.7451
vn -0.0733 -0.0572 0.9957
vn 0.7880 -0.1743 -0.5905
vn 0.8534 -0.5210 0.0164
vn 0.7241 0.1235 -0.6785
vn 0.6587 0.7404 -0.1340
vn -0.2768 0.4974 0.8222
vn -0.1977 0.9553 0.2199
vn 0.0549 0.8413 0.5378
vn 0.0327 0.5428 0.8392
vn -0.0008 -0.0675 0.9977
vn -0.5448 -0.4677 0.6960
vn -0.8748 -0.4767 -0.0866
vn -0.7451 -0.1532 -0.6491
vn -0.6980 0.6201 -0.3581
vn -0.6612 0.0763 -0.7464
vn 0.2817 0.5108 0.8123
vn -0.0993 0.7757 0.6232
vn -0.3177 0.0992 -0.9430
vn 0.4857 0.0871 -0.8698
vn 0.3354 0.0323 -0.9415
vn -0.1642 0.0394 -0.9856
vn -0.3912 0.1585 -0.9066
vn 0.5358 0.1368 -0.8332
vn 0.9686 0.1252 -0.2146
vn -0.8412 0.1247 -0.5261
vn -0.2263 0.1372 -0.9643
vn -0.5480 0.1138 0.8287
vn -0.9747 0.1109 0.1943
vn 0.8450 0.1113 0.5231
vn 0.2233 0.1135 0.9681
vn -0.1794 -0.6895 0.7017
vn -0.1794 0.4079 0.8952
vn -0.9673 -0.0440 0.2498
vn -0.1726 -0.1710 0.9700
vn -0.5774 -0.1418 0.8041
vn -0.6965 0.2581 0.6695
vn -0.6965 -0.4716 0.5409
vn -0.1794 0.7017 0.6895
vn -0.1794 0.8952 -0.4079
vn -0.9673 0.2498 0.0440
vn -0.1726 0.9700 0.1710
vn -0.5774 0.8041 0.1418
vn -0.6965 0.6695 -0.2581
vn -0.6965 0.5409 0.4716
vn -0.1794 -0.8952 0.4079
vn -0.9673 -0.2498 -0.0440
vn -0.1794 -0.7017 -0.6895
vn -0.6965 -0.6695 0.2581
vn -0.5774 -0.8041 -0.1418
vn -0.6965 -0.5409 -0.4716
vn -0.1726 -0.9700 -0.1710
vn -0.1794 0.6895 -0.7017
vn -0.1794 -0.4079 -0.8952
vn -0.9673 0.0440 -0.2498
vn -0.1726 0.1710 -0.9700
vn -0.5774 0.1418 -0.8041
vn -0.6965 -0.2581 -0.6695
vn -0.6965 0.4716 -0.5409
vn 0.1794 -0.6895 0.7017
vn 0.9673 -0.0440 0.2498
vn 0.1794 0.4079 0.8952
vn 0.6965 -0.4716 0.5409
vn 0.5774 -0.1418 0.8041
vn 0.6965 0.2581 0.6695
vn 0.1726 -0.1710 0.9700
vn 0.1794 0.8952 -0.4079
vn 0.1794 0.7017 0.6895
vn 0.9673 0.2498 0.0440
vn 0.1726 0.9700 0.1710
vn 0.5774 0.8041 0.1418
vn 0.6965 0.5409 0.4716
vn 0.6965 0.6695 -0.2581
vn 0.1794 -0.8952 0.4079
vn 0.1794 -0.7017 -0.6895
vn 0.9673 -0.2498 -0.0440
vn 0.1726 -0.9700 -0.1710
vn 0.5774 -0.8041 -0.1418
vn 0.6965 -0.5409 -0.4716
vn 0.6965 -0.6695 0.2581
vn 0.1794 0.6895 -0.7017
vn 0.9673 0.0440 -0.2498
vn 0.1794 -0.4079 -0.8952
vn 0.6965 0.4716 -0.5409
vn 0.5774 0.1418 -0.8041
vn 0.6965 -0.2581 -0.6695
vn 0.1726 0.1710 -0.9700
vn -0.2450 -0.8705 -0.4268
vn -0.6390 -0.5293 0.5581
vn -0.9274 0.0088 -0.3740
vn -0.4977 -0.8616 0.0994
vn -0.7887 -0.6057 -0.1057
vn -0.9514 -0.2769 0.1345
vn -0.6895 -0.5038 -0.5204
vn -0.6390 -0.2187 0.7375
vn -0.2450 0.8049 0.5405
vn -0.9274 0.3195 -0.1946
vn -0.4977 0.3447 0.7959
vn -0.7887 0.3943 0.4717
vn -0.6895 0.7026 0.1761
vn -0.9514 0.0220 0.3071
vn -0.0657 -0.7152 -0.6958
vn -0.7480 0.1642 -0.6431
vn 0.3283 0.3084 -0.8928
vn -0.5169 -0.3543 -0.7793
vn -0.2113 -0.1057 -0.9717
vn -0.2549 0.3263 -0.9102
vn 0.1988 -0.2585 -0.9453
vn -0.0657 0.9602 0.2715
vn 0.3283 0.6190 -0.7135
vn -0.7480 0.4748 -0.4637
vn 0.1988 0.9479 -0.2488
vn -0.2113 0.8943 -0.3943
vn -0.2549 0.6252 -0.7377
vn -0.5169 0.8520 -0.0828
vn 0.0657 -0.9602 -0.2715
vn 0.7480 -0.4748 0.4637
vn -0.3283 -0.6190 0.7135
vn 0.5169 -0.8520 0.0828
vn 0.2113 -0.8943 0.3943
vn 0.2549 -0.6252 0.7377
vn -0.1988 -0.9479 0.2488
vn 0.0657 0.7152 0.6958
vn -0.3283 -0.3084 0.8928
vn 0.7480 -0.1642 0.6431
vn -0.1988 0.2585 0.9453
vn 0.2113 0.1057 0.9717
vn 0.2549 -0.3263 0.9102
vn 0.5169 0.3543 0.7793
vn 0.2450 -0.8049 -0.5405
vn 0.6390 0.2187 -0.7375
vn 0.9274 -0.3195 0.1946
vn 0.4977 -0.3447 -0.7959
vn 0.7887 -0.3943 -0.4717
vn 0.9514 -0.0220 -0.3071
vn 0.6895 -0.7026 -0.1761
vn 0.2450 0.8705 0.4268
vn 0.9274 -0.0088 0.3740
vn 0.6390 0.5293 -0.5581
vn 0.6895 0.5038 0.5204
vn 0.7887 0.6057 0.1057
vn 0.9514 0.2769 -0.1345
vn 0.4977 0.8616 -0.0994
vn 0.2934 -0.9475 -0.1268
vn -0.7597 -0.6457 0.0771
vn -0.2772 -0.3671 -0.8879
vn -0.2731 -0.9619 0.0136
vn -0.3237 -0.8536 -0.4082
vn -0.6525 -0.5760 -0.4925
vn 0.0478 -0.7767 -0.6281
vn -0.9390 -0.3350 0.0771
vn -0.6739 0.7279 -0.1268
vn -0.4565 -0.0565 -0.8879
vn -0.9696 0.2445 0.0136
vn -0.9010 0.1464 -0.4082
vn -0.6487 0.4297 -0.6281
vn -0.8250 -0.2771 -0.4925
vn 0.5935 -0.7743 -0.2197
vn 0.0229 -0.1939 -0.9808
vn 0.8586 0.2886 -0.4236
vn 0.3365 -0.6100 -0.7174
vn 0.6422 -0.2959 -0.7071
vn 0.5128 0.0968 -0.8530
vn 0.8922 -0.2891 -0.3469
vn -0.3738 0.9011 -0.2197
vn 0.6793 0.5993 -0.4236
vn -0.1565 0.1168 -0.9808
vn 0.1957 0.9172 -0.3469
vn 0.0649 0.7041 -0.7071
vn 0.3402 0.3957 -0.8530
vn -0.3600 0.5964 -0.7174
vn 0.3738 -0.9011 0.2197
vn 0.1565 -0.1168 0.9808
vn -0.6793 -0.5993 0.4236
vn 0.3600 -0.5964 0.7174
vn -0.0649 -0.7041 0.7071
vn -0.3402 -0.3957 0.8530
vn -0.1957 -0.9172 0.3469
vn -0.5935 0.7743 0.2197
vn -0.8586 -0.2886 0.4236
vn -0.0229 0.1939 0.9808
vn -0.8922 0.2891 0.3469
vn -0.6422 0.2959 0.7071
vn -0.5128 -0.0968 0.8530
vn -0.3365 0.6100 0.7174
vn 0.6739 -0.7279 0.1268
vn 0.9390 0.3350 -0.0771
vn 0.4565 0.0565 0.8879
vn 0.9696 -0.2445 -0.0136
vn 0.9010 -0.1464 0.4082
vn 0.8250 0.2771 0.4925
vn 0.6487 -0.4297 0.6281
vn -0.2934 0.9475 0.1268
vn 0.2772 0.3671 0.8879
vn 0.7597 0.6457 -0.0771
vn -0.0478 0.7767 0.6281
vn 0.3237 0.8536 0.4082
vn 0.6525 0.5760 0.4925
vn 0.2731 0.9619 -0.0136
vn 0.3283 -0.9274 -0.1794
vn -0.7480 -0.6390 -0.1794
vn -0.0657 -0.2450 -0.9673
vn -0.2549 -0.9514 -0.1726
vn -0.2113 -0.7887 -0.5774
vn -0.5169 -0.4977 -0.6965
vn 0.1988 -0.6895 -0.6965
vn -0.9274 -0.3283 -0.1794
vn -0.6390 0.7480 -0.1794
vn -0.2450 0.0657 -0.9673
vn -0.9514 0.2549 -0.1726
vn -0.7887 0.2113 -0.5774
vn -0.4977 0.5169 -0.6965
vn -0.6895 -0.1988 -0.6965
vn 0.6390 -0.7480 -0.1794
vn 0.2450 -0.0657 -0.9673
vn 0.9274 0.3283 -0.1794
vn 0.4977 -0.5169 -0.6965
vn 0.7887 -0.2113 -0.5774
vn 0.6895 0.1988 -0.6965
vn 0.9514 -0.2549 -0.1726
vn -0.3283 0.9274 -0.1794
vn 0.7480 0.6390 -0.1794
vn 0.0657 0.2450 -0.9673
vn 0.2549 0.9514 -0.1726
vn 0.2113 0.7887 -0.5774
vn 0.5169 0.4977 -0.6965
vn -0.1988 0.6895 -0.6965
vn 0.3283 -0.9274 0.1794
vn -0.0657 -0.2450 0.9673
vn -0.7480 -0.6390 0.1794
vn 0.1988 -0.6895 0.6965
vn -0.2113 -0.7887 0.5774
vn -0.5169 -0.4977 0.6965
vn -0.2549 -0.9514 0.1726
vn -0.6390 0.7480 0.1794
vn -0.9274 -0.3283 0.1794
vn -0.2450 0.0657 0.9673
vn -0.9514 0.2549 0.1726
vn -0.7887 0.2113 0.5774
vn -0.6895 -0.1988 0.6965
vn -0.4977 0.5169 0.6965
vn 0.6390 -0.7480 0.1794
vn 0.9274 0.3283 0.1794
vn 0.2450 -0.0657 0.9673
vn 0.9514 -0.2549 0.1726
vn 0.7887 -0.2113 0.5774
vn 0.6895 0.1988 0.6965
vn 0.4977 -0.5169 0.6965
vn -0.3283 0.9274 0.1794
vn 0.0657 0.2450 0.9673
vn 0.7480 0.6390 0.1794
vn -0.1988 0.6895 0.6965
vn 0.2113 0.7887 0.5774
vn 0.5169 0.4977 0.6965
vn 0.2549 0.9514 0.1726
vt 0.613580 0.439345
vt 0.613353 0.439353
vt 0.613325 0.439240
vt 0.613510 0.439253
vt 0.613202 0.438723
vt 0.613201 0.438832
vt 0.613440 0.438800
vt 0.613444 0.438762
vt 0.613307 0.438728
vt 0.618678 0.435762
vt 0.630752 0.437327
vt 0.630800 0.437251
vt 0.618842 0.435752
vt 0.626357 0.436888
vt 0.618725 0.437083
vt 0.618842 0.436978
vt 0.626482 0.436825
vt 0.619391 0.441526
vt 0.630806 0.440143
vt 0.630821 0.440092
vt 0.619175 0.441531
vt 0.619194 0.440161
vt 0.626413 0.439626
vt 0.626477 0.439716
vt 0.619391 0.440257
vt 0.638854 0.440187
vt 0.638921 0.440126
vt 0.638851 0.436835
vt 0.638921 0.436925
vt 0.636188 0.436350
vt 0.636254 0.436289
vt 0.636252 0.439640
vt 0.636188 0.439551
vt 0.606769 0.444299
vt 0.606983 0.444377
vt 0.606757 0.445075
vt 0.606983 0.445064
vt 0.613002 0.440350
vt 0.603539 0.444547
vt 0.603754 0.444627
vt 0.613379 0.440365
vt 0.603753 0.443849
vt 0.603539 0.443866
vt 0.604149 0.432542
vt 0.604354 0.432467
vt 0.604149 0.431716
vt 0.604354 0.431716
vt 0.600552 0.432398
vt 0.613021 0.436936
vt 0.613464 0.436940
vt 0.600757 0.432317
vt 0.600757 0.433144
vt 0.613004 0.438272
vt 0.612758 0.438177
vt 0.600552 0.433136
vt 0.588773 0.437343
vt 0.588792 0.437357
vt 0.588773 0.438409
vt 0.588792 0.438302
vt 0.588454 0.439119
vt 0.588473 0.439133
vt 0.588473 0.438068
vt 0.588454 0.438174
vt 0.645132 0.440426
vt 0.653886 0.440691
vt 0.653886 0.440630
vt 0.645132 0.440364
vt 0.653886 0.436498
vt 0.645132 0.436684
vt 0.645132 0.436773
vt 0.653886 0.436587
vt 0.653886 0.435847
vt 0.645132 0.436112
vt 0.645132 0.436051
vt 0.653886 0.435786
vt 0.653886 0.439978
vt 0.645132 0.439792
vt 0.645132 0.439703
vt 0.653886 0.439889
vt 0.719226 0.605253
vt 0.719226 0.614029
vt 0.715301 0.614462
vt 0.714419 0.608515
vt 0.719226 0.624188
vt 0.714419 0.621904
vt 0.712428 0.616390
vt 0.719226 0.636282
vt 0.719226 0.641873
vt 0.715301 0.639416
vt 0.714419 0.633998
vt 0.719226 0.639621
vt 0.714419 0.636359
vt 0.712428 0.628484
vt 0.719226 0.596785
vt 0.714419 0.600047
vt 0.715301 0.596990
vt 0.719226 0.594533
vt 0.712428 0.607922
vt 0.714419 0.602408
vt 0.719226 0.600124
vt 0.719226 0.631153
vt 0.719226 0.622376
vt 0.715301 0.621943
vt 0.714419 0.627891
vt 0.719226 0.612218
vt 0.714419 0.614502
vt 0.712428 0.620016
vt 0.726608 0.605253
vt 0.731414 0.608515
vt 0.730532 0.614462
vt 0.726608 0.614029
vt 0.733405 0.616390
vt 0.731414 0.621904
vt 0.726608 0.624188
vt 0.726608 0.639621
vt 0.726608 0.641873
vt 0.730532 0.639416
vt 0.731414 0.636359
vt 0.726608 0.636282
vt 0.731414 0.633998
vt 0.733405 0.628484
vt 0.726608 0.596785
vt 0.726608 0.594533
vt 0.730532 0.596990
vt 0.731414 0.600047
vt 0.726608 0.600124
vt 0.731414 0.602408
vt 0.733405 0.607922
vt 0.726608 0.631153
vt 0.731414 0.627891
vt 0.730532 0.621943
vt 0.726608 0.622376
vt 0.733405 0.620016
vt 0.731414 0.614502
vt 0.726608 0.612218
vt 0.719589 0.605321
vt 0.718003 0.604849
vt 0.716050 0.607657
vt 0.716841 0.609183
vt 0.717346 0.609206
vt 0.715255 0.611931
vt 0.715703 0.615335
vt 0.717346 0.617645
vt 0.718003 0.624278
vt 0.716050 0.625069
vt 0.715255 0.620369
vt 0.719589 0.629301
vt 0.716841 0.628612
vt 0.715703 0.623774
vt 0.722025 0.609540
vt 0.719278 0.613402
vt 0.721077 0.616363
vt 0.723611 0.614564
vt 0.718139 0.619554
vt 0.720864 0.621645
vt 0.724268 0.621197
vt 0.722025 0.633521
vt 0.723611 0.633992
vt 0.721077 0.633775
vt 0.719278 0.632831
vt 0.724268 0.629635
vt 0.720864 0.630084
vt 0.718139 0.627993
vt 0.723808 0.602885
vt 0.726556 0.603575
vt 0.724756 0.602631
vt 0.722222 0.602413
vt 0.727694 0.608412
vt 0.724969 0.606322
vt 0.721565 0.606770
vt 0.723808 0.626865
vt 0.722222 0.621842
vt 0.724756 0.620043
vt 0.726556 0.623003
vt 0.721565 0.615209
vt 0.724969 0.614761
vt 0.727694 0.616851
vt 0.726244 0.607104
vt 0.727831 0.612128
vt 0.729783 0.611337
vt 0.728992 0.607794
vt 0.728488 0.618761
vt 0.730578 0.616036
vt 0.730130 0.612632
vt 0.726244 0.631085
vt 0.728992 0.627222
vt 0.729783 0.628748
vt 0.727831 0.631556
vt 0.730130 0.621071
vt 0.730578 0.624475
vt 0.728488 0.627199
vt 0.723882 0.601732
vt 0.720240 0.600864
vt 0.719817 0.601855
vt 0.722377 0.603332
vt 0.717286 0.605512
vt 0.717713 0.606006
vt 0.720308 0.609002
vt 0.714606 0.614795
vt 0.714070 0.622236
vt 0.714288 0.621008
vt 0.715033 0.615288
vt 0.716267 0.628110
vt 0.716208 0.624703
vt 0.717628 0.618285
vt 0.728365 0.606908
vt 0.726860 0.608509
vt 0.729067 0.612536
vt 0.730561 0.612783
vt 0.724791 0.614179
vt 0.728034 0.617924
vt 0.730026 0.620223
vt 0.720750 0.633287
vt 0.724392 0.634154
vt 0.723538 0.631689
vt 0.720691 0.629880
vt 0.727346 0.629506
vt 0.725355 0.627206
vt 0.722112 0.623462
vt 0.725083 0.603119
vt 0.725143 0.606526
vt 0.722295 0.604717
vt 0.721441 0.602252
vt 0.723722 0.612944
vt 0.720478 0.609199
vt 0.718487 0.606900
vt 0.717468 0.629497
vt 0.715272 0.623623
vt 0.716766 0.623870
vt 0.718973 0.627897
vt 0.715807 0.616182
vt 0.717799 0.618482
vt 0.721042 0.622227
vt 0.729566 0.608295
vt 0.731763 0.614170
vt 0.731546 0.615398
vt 0.729626 0.611702
vt 0.731227 0.621610
vt 0.730800 0.621117
vt 0.728205 0.618121
vt 0.721951 0.634674
vt 0.723456 0.633074
vt 0.726016 0.634551
vt 0.725593 0.635541
vt 0.725525 0.627403
vt 0.728120 0.630400
vt 0.728547 0.630893
vt 0.724214 0.604353
vt 0.720946 0.603493
vt 0.721150 0.605020
vt 0.723583 0.606539
vt 0.718331 0.607507
vt 0.719423 0.608768
vt 0.722061 0.611814
vt 0.715992 0.615608
vt 0.715562 0.622144
vt 0.716325 0.621735
vt 0.717084 0.616869
vt 0.717568 0.627375
vt 0.718199 0.625190
vt 0.719722 0.619915
vt 0.728265 0.609031
vt 0.727634 0.611216
vt 0.729508 0.614670
vt 0.730272 0.614261
vt 0.726111 0.616491
vt 0.728749 0.619536
vt 0.729841 0.620798
vt 0.721619 0.632052
vt 0.724887 0.632913
vt 0.724683 0.631386
vt 0.722250 0.629867
vt 0.727503 0.628899
vt 0.726410 0.627638
vt 0.723773 0.624592
vt 0.722061 0.611814
s 1
f 55/1/55 56/2/56 57/3/57 58/4/58
f 67/5/67 68/6/68 69/7/69 70/8/70 71/9/71
f 62/10/62 43/11/43 44/12/44 61/13/61
f 46/14/46 59/15/59 60/16/60 45/17/45
f 52/18/52 41/19/41 42/20/42 51/21/51
f 50/22/50 47/23/47 48/24/48 49/25/49
f 41/19/41 33/26/33 34/27/34 42/20/42
f 36/28/36 44/12/44 43/11/43 35/29/35
f 38/30/38 46/14/46 45/17/45 37/31/37
f 40/32/40 48/24/48 47/23/47 39/33/39
f 9/34/9 50/22/50 49/25/49 10/35/10
f 51/21/51 12/36/12 11/37/11 52/18/52
f 54/38/54 14/39/14 13/40/13 53/41/53
f 55/1/55 16/42/16 15/43/15 56/2/56
f 59/15/59 18/44/18 17/45/17 60/16/60
f 19/46/19 62/10/62 61/13/61 20/47/20
f 21/48/21 63/49/63 64/50/64 22/51/22
f 23/52/23 65/53/65 66/54/66 24/55/24
f 63/49/63 26/56/26 25/57/25 64/50/64
f 27/58/27 68/6/68 67/5/67 28/59/28
f 29/60/29 54/38/54 53/41/53 30/61/30
f 31/62/31 66/54/66 65/53/65 32/63/32
f 73/64/73 2/65/2 1/66/1 72/67/72
f 3/68/3 74/69/74 75/70/75 4/71/4
f 5/72/5 76/73/76 77/74/77 6/75/6
f 7/76/7 78/77/78 79/78/79 8/79/8
f 33/26/33 73/64/73 72/67/72 34/27/34
f 74/69/74 36/28/36 35/29/35 75/70/75
f 76/73/76 38/30/38 37/31/37 77/74/77
f 78/77/78 40/32/40 39/33/39 79/78/79
f 7/76/7 2/65/2 73/64/73 78/77/78
f 1/66/1 4/71/4 75/70/75 72/67/72
f 3/68/3 6/75/6 77/74/77 74/69/74
f 5/72/5 8/79/8 79/78/79 76/73/76
f 52/18/52 11/37/11 10/35/10 49/25/49
f 50/22/50 9/34/9 16/42/16 55/1/55
f 53/41/53 13/40/13 12/36/12 51/21/51
f 56/2/56 15/43/15 14/39/14 54/38/54
f 59/15/59 65/53/65 23/52/23 18/44/18
f 61/13/61 60/16/60 17/45/17 20/47/20
f 64/50/64 62/10/62 19/46/19 22/51/22
f 66/54/66 63/49/63 21/48/21 24/55/24
f 66/54/66 31/62/31 26/56/26 63/49/63
f 64/50/64 25/57/25 28/59/28 67/5/67
f 68/6/68 27/58/27 30/61/30 53/41/53
f 54/38/54 29/60/29 32/63/32 65/53/65
f 40/32/40 33/26/33 41/19/41 48/24/48
f 34/27/34 35/29/35 43/11/43 42/20/42
f 78/77/78 73/64/73 33/26/33 40/32/40
f 72/67/72 75/70/75 35/29/35 34/27/34
f 36/28/36 37/31/37 45/17/45 44/12/44
f 74/69/74 77/74/77 37/31/37 36/28/36
f 38/30/38 39/33/39 47/23/47 46/14/46
f 76/73/76 79/78/79 39/33/39 38/30/38
f 51/21/51 42/20/42 69/7/69 68/6/68 53/41/53
f 70/8/70 69/7/69 42/20/42 43/11/43
f 52/18/52 49/25/49 48/24/48 41/19/41
f 60/16/60 61/13/61 44/12/44 45/17/45
f 62/10/62 71/9/71 70/8/70 43/11/43
f 47/23/47 59/15/59 46/14/46
f 50/22/50 59/15/59 47/23/47
f 50/22/50 55/1/55 58/4/58 59/15/59
f 57/3/57 56/2/56 54/38/54 65/53/65
f 58/4/58 57/3/57 65/53/65 59/15/59
f 64/50/64 67/5/67 71/9/71 62/10/62
f 80/80/80 83/81/83 84/82/84 86/83/86
f 81/84/81 85/85/85 84/82/84 83/81/83
f 82/86/82 86/83/86 84/82/84 85/85/85
f 87/87/87 90/88/90 91/89/91 93/90/93
f 88/91/88 92/92/92 91/89/91 90/88/90
f 89/93/89 93/90/93 91/89/91 92/92/92
f 94/94/94 97/95/97 98/96/98 100/97/100
f 95/98/95 99/99/99 98/96/98 97/95/97
f 96/100/96 100/97/100 98/96/98 99/99/99
f 101/101/101 104/102/104 105/103/105 107/104/107
f 102/105/102 106/106/106 105/103/105 104/102/104
f 103/107/103 107/104/107 105/103/105 106/106/106
f 108/108/108 111/109/111 112/110/112 114/111/114
f 109/112/109 113/113/113 112/110/112 111/109/111
f 110/114/110 114/111/114 112/110/112 113/113/113
f 115/115/115 118/116/118 119/117/119 121/118/121
f 116/119/116 120/120/120 119/117/119 118/116/118
f 117/121/117 121/118/121 119/117/119 120/120/120
f 122/122/122 125/123/125 126/124/126 128/125/128
f 123/126/123 127/127/127 126/124/126 125/123/125
f 124/128/124 128/125/128 126/124/126 127/127/127
f 129/129/129 132/130/132 133/131/133 135/132/135
f 130/133/130 134/134/134 133/131/133 132/130/132
f 131/135/131 135/132/135 133/131/133 134/134/134
f 94/94/94 80/80/80 86/83/86 97/95/97
f 97/95/97 86/83/86 82/86/82 95/98/95
f 81/84/81 87/87/87 93/90/93 85/85/85
f 85/85/85 93/90/93 89/93/89 82/86/82
f 88/91/88 101/101/101 107/104/107 92/92/92
f 92/92/92 107/104/107 103/107/103 89/93/89
f 102/105/102 96/100/96 99/99/99 106/106/106
f 106/106/106 99/99/99 95/98/95 103/107/103
f 122/122/122 94/94/94 100/97/100 125/123/125
f 125/123/125 100/97/100 96/100/96 123/126/123
f 101/101/101 129/129/129 135/132/135 104/102/104
f 104/102/104 135/132/135 131/135/131 102/105/102
f 130/133/130 124/128/124 127/127/127 134/134/134
f 134/134/134 127/127/127 123/126/123 131/135/131
f 108/108/108 122/122/122 128/125/128 111/109/111
f 111/109/111 128/125/128 124/128/124 109/112/109
f 129/129/129 115/115/115 121/118/121 132/130/132
f 132/130/132 121/118/121 117/121/117 130/133/130
f 116/119/116 110/114/110 113/113/113 120/120/120
f 120/120/120 113/113/113 109/112/109 117/121/117
f 80/80/80 108/108/108 114/111/114 83/81/83
f 83/81/83 114/111/114 110/114/110 81/84/81
f 115/115/115 88/91/88 90/88/90 118/116/118
f 118/116/118 90/88/90 87/87/87 116/119/116
f 94/94/94 122/122/122 108/108/108 80/80/80
f 82/86/82 89/93/89 103/107/103 95/98/95
f 110/114/110 116/119/116 87/87/87 81/84/81
f 129/129/129 101/101/101 88/91/88 115/115/115
f 96/100/96 102/105/102 131/135/131 123/126/123
f 124/128/124 130/133/130 117/121/117 109/112/109
f 136/136/136 139/137/139 140/138/140 142/139/142
f 137/140/137 141/141/141 140/138/140 139/137/139
f 138/142/138 142/139/142 140/138/140 141/141/141
f 143/143/143 146/144/146 147/145/147 149/146/149
f 144/147/144 148/148/148 147/145/147 146/144/146
f 145/149/145 149/146/149 147/145/147 148/148/148
f 150/150/150 153/151/153 154/152/154 156/153/156
f 151/154/151 155/155/155 154/152/154 153/151/153
f 152/156/152 156/153/156 154/152/154 155/155/155
f 157/157/157 160/158/160 161/159/161 163/160/163
f 158/161/158 162/162/162 161/159/161 160/158/160
f 159/163/159 163/160/163 161/159/161 162/162/162
f 164/164/164 167/165/167 168/166/168 170/167/170
f 165/168/165 169/169/169 168/166/168 167/165/167
f 166/170/166 170/167/170 168/166/168 169/169/169
f 171/171/171 174/172/174 175/173/175 177/174/177
f 172/175/172 176/176/176 175/173/175 174/172/174
f 173/177/173 177/174/177 175/173/175 176/176/176
f 178/178/178 181/179/181 182/180/182 184/181/184
f 179/182/179 183/183/183 182/180/182 181/179/181
f 180/184/180 184/181/184 182/180/182 183/183/183
f 185/185/185 188/186/188 189/187/189 191/188/191
f 186/189/186 190/190/190 189/187/189 188/186/188
f 187/191/187 191/188/191 189/187/189 190/190/190
f 150/150/150 136/136/136 142/139/142 153/151/153
f 153/151/153 142/139/142 138/142/138 151/154/151
f 137/140/137 143/143/143 149/146/149 141/141/141
f 141/141/141 149/146/149 145/149/145 138/142/138
f 144/147/144 157/157/157 163/160/163 148/148/148
f 148/148/148 163/160/163 159/163/159 145/149/145
f 158/161/158 152/156/152 155/155/155 162/162/162
f 162/162/162 155/155/155 151/154/151 159/163/159
f 178/178/178 150/150/150 156/153/156 181/179/181
f 181/179/181 156/153/156 152/156/152 179/182/179
f 157/157/157 185/185/185 191/188/191 160/158/160
f 160/158/160 191/188/191 187/191/187 158/161/158
f 186/189/186 180/184/180 183/183/183 190/190/190
f 190/190/190 183/183/183 179/182/179 187/191/187
f 164/164/164 178/178/178 184/181/184 167/165/167
f 167/165/167 184/181/184 180/184/180 165/168/165
f 185/185/185 171/171/171 177/174/177 188/186/188
f 188/186/188 177/174/177 173/177/173 186/189/186
f 172/175/172 166/170/166 169/169/169 176/176/176
f 176/176/176 169/169/169 165/168/165 173/177/173
f 136/136/136 164/164/164 170/167/170 139/137/139
f 139/137/139 170/167/170 166/170/166 137/140/137
f 171/171/171 144/147/144 146/144/146 174/172/174
f 174/172/174 146/144/146 143/143/143 172/175/172
f 150/150/150 178/178/178 164/164/164 136/136/136
f 138/142/138 145/149/145 159/163/159 151/154/151
f 166/170/166 172/175/172 143/143/143 137/140/137
f 185/185/185 157/157/157 144/147/144 171/171/171
f 152/156/152 158/161/158 187/191/187 179/182/179
f 180/184/180 186/189/186 173/177/173 165/168/165
f 192/192/192 195/193/195 196/194/196 198/195/198
f 193/196/193 197/197/197 196/194/196 195/193/195
f 194/198/194 198/195/198 196/194/196 197/197/197
f 199/199/199 202/200/202 203/201/203 205/202/205
f 200/203/200 204/204/204 203/201/203 202/200/202
f 201/205/201 205/202/205 203/201/203 204/204/204
f 206/206/206 209/207/209 210/208/210 212/209/212
f 207/210/207 211/211/211 210/208/210 209/207/209
f 208/212/208 212/209/212 210/208/210 211/211/211
f 213/213/213 216/214/216 217/215/217 219/216/219
f 214/217/214 218/218/218 217/215/217 216/214/216
f 215/219/215 219/216/219 217/215/217 218/218/218
f 220/220/220 223/221/223 224/222/224 226/223/226
f 221/224/221 225/225/225 224/222/224 223/221/223
f 222/226/222 226/223/226 224/222/224 225/225/225
f 227/227/227 230/228/230 231/229/231 233/230/233
f 228/231/228 232/232/232 231/229/231 230/228/230
f 229/233/229 233/230/233 231/229/231 232/232/232
f 234/234/234 237/235/237 238/236/238 240/237/240
f 235/238/235 239/239/239 238/236/238 237/235/237
f 236/240/236 240/237/240 238/236/238 239/239/239
f 241/241/241 244/242/244 245/243/245 247/244/247
f 242/245/242 246/246/246 245/243/245 244/242/244
f 243/247/243 247/244/247 245/243/245 246/246/246
f 206/206/206 192/192/192 198/195/198 209/207/209
f 209/207/209 198/195/198 194/198/194 207/210/207
f 193/196/193 199/199/199 205/202/205 197/197/197
f 197/197/197 205/202/205 201/205/201 194/198/194
f 200/203/200 213/213/213 219/216/219 204/204/204
f 204/204/204 219/216/219 215/219/215 201/205/201
f 214/217/214 208/212/208 211/211/211 218/218/218
f 218/218/218 211/211/211 207/210/207 215/219/215
f 234/234/234 206/206/206 212/209/212 237/235/237
f 237/235/237 212/209/212 208/212/208 235/238/235
f 213/213/213 241/241/241 247/244/247 216/214/216
f 216/214/216 247/244/247 243/247/243 214/217/214
f 242/245/242 236/240/236 239/239/239 246/246/246
f 246/246/246 239/239/239 235/238/235 243/247/243
f 220/220/220 234/234/234 240/237/240 223/221/223
f 223/221/223 240/237/240 236/240/236 221/224/221
f 241/241/241 227/227/227 233/230/233 244/242/244
f 244/242/244 233/230/233 229/233/229 242/245/242
f 228/231/228 222/226/222 225/225/225 232/232/232
f 232/232/232 225/225/225 221/224/221 229/233/229
f 192/192/192 220/220/220 226/223/226 195/193/195
f 195/193/195 226/223/226 222/226/222 193/196/193
f 227/227/227 200/203/200 202/200/202 230/228/230
f 230/228/230 202/200/202 199/199/199 228/231/228
f 206/206/206 234/234/234 220/220/220 192/192/192
f 194/198/194 201/205/201 215/219/215 207/210/207
f 222/226/222 228/231/228 199/199/199 193/196/193
f 241/241/241 213/213/213 200/203/200 227/227/227
f 208/212/208 214/217/214 243/247/243 235/238/235
f 236/240/236 242/245/242 229/233/229 221/224/221
f 248/248/248 251/249/251 252/250/252 254/251/254
f 249/252/249 253/253/253 252/250/252 251/249/251
f 250/254/250 254/251/254 252/250/252 253/253/253
f 255/255/255 258/256/258 259/257/259 261/258/261
f 256/259/256 260/260/260 259/257/259 258/256/258
f 257/261/257 261/258/261 259/257/259 260/260/260
f 262/262/262 265/263/265 266/264/266 268/265/268
f 263/266/263 267/267/267 266/264/266 265/263/265
f 264/268/264 268/265/268 266/264/266 267/267/267
f 269/269/269 272/270/272 273/271/273 275/272/275
f 270/273/270 274/274/274 273/271/273 272/270/272
f 271/275/271 275/272/275 273/271/273 274/274/274
f 276/248/276 279/251/279 280/250/280 282/249/282
f 277/276/277 281/253/281 280/250/280 279/251/279
f 278/252/278 282/249/282 280/250/280 281/253/281
f 283/259/283 286/256/286 287/257/287 289/260/289
f 284/255/284 288/258/288 287/257/287 286/256/286
f 285/261/285 289/260/289 287/257/287 288/258/288
f 290/262/290 293/265/293 294/264/294 296/263/296
f 291/268/291 295/267/295 294/264/294 293/265/293
f 292/266/292 296/263/296 294/264/294 295/267/295
f 297/269/297 300/272/300 301/271/301 303/270/303
f 298/275/298 302/274/302 301/271/301 300/272/300
f 299/273/299 303/270/303 301/271/301 302/274/302
f 262/262/262 248/248/248 254/251/254 265/263/265
f 265/263/265 254/251/254 250/254/250 263/266/263
f 249/252/249 255/255/255 261/258/261 253/253/253
f 253/253/253 261/258/261 257/261/257 250/254/250
f 256/259/256 269/269/269 275/272/275 260/260/260
f 260/260/260 275/272/275 271/275/271 257/261/257
f 270/273/270 264/268/264 267/267/267 274/274/274
f 274/274/274 267/267/267 263/266/263 271/275/271
f 290/262/290 262/262/262 268/265/268 293/265/293
f 293/265/293 268/265/268 264/268/264 291/268/291
f 269/269/269 297/269/297 303/270/303 272/270/272
f 272/270/272 303/270/303 299/273/299 270/273/270
f 298/275/298 292/266/292 295/267/295 302/274/302
f 302/274/302 295/267/295 291/268/291 299/273/299
f 276/248/276 290/262/290 296/263/296 279/251/279
f 279/251/279 296/263/296 292/266/292 277/276/277
f 297/269/297 283/259/283 289/260/289 300/272/300
f 300/272/300 289/260/289 285/261/285 298/275/298
f 284/255/284 278/252/278 281/253/281 288/258/288
f 288/258/288 281/253/281 277/276/277 285/261/285
f 248/248/248 276/248/276 282/249/282 251/249/251
f 251/249/251 282/249/282 278/252/278 249/252/249
f 283/259/283 256/259/256 258/256/258 286/256/286
f 286/256/286 258/256/258 255/255/255 284/255/284
f 262/262/262 290/262/290 276/248/276 248/248/248
f 250/254/250 257/261/257 271/275/271 263/266/263
f 278/252/278 284/255/284 255/255/255 249/252/249
f 297/269/297 269/269/269 256/259/256 283/259/283
f 264/268/264 270/273/270 299/273/299 291/268/291
f 292/266/292 298/275/298 285/261/285 277/276/277
