# Blender 5.0.1
# www.blender.org
o GEO_Rock_B
v 10.000000 0.000000 -7.292799
v 10.000000 0.000000 -5.943628
v 10.000000 0.657243 -5.900088
v 10.000000 0.657243 -7.336339
v 10.000000 0.156805 -7.387096
v 10.000000 0.156805 -5.849331
v 10.000000 0.906633 -6.073742
v 10.000000 0.915771 -6.086657
v 10.000000 0.906633 -7.162685
v 10.000000 0.915771 -7.149771
v 9.625038 0.000000 -6.038179
v 9.614551 0.000000 -6.048666
v 9.705160 0.873504 -6.128788
v 9.692806 0.864656 -6.126835
v 9.703207 0.864656 -6.116434
v 9.602106 0.657243 -6.015065
v 9.591436 0.657243 -6.025733
v 9.614551 0.000000 -7.187762
v 9.625038 0.000000 -7.198248
v 9.692806 0.864656 -7.109592
v 9.705160 0.873504 -7.107639
v 9.703207 0.864656 -7.119994
v 9.602106 0.657243 -7.221363
v 9.591436 0.657243 -7.210694
v 10.385449 0.000000 -6.048666
v 10.374962 0.000000 -6.038179
v 10.307194 0.864656 -6.126835
v 10.294840 0.873504 -6.128788
v 10.296793 0.864656 -6.116434
v 10.397894 0.657243 -6.015065
v 10.408564 0.657243 -6.025733
v 10.374962 0.000000 -7.198248
v 10.385449 0.000000 -7.187762
v 10.456293 0.156805 -5.977874
v 10.445754 0.156805 -5.967335
v 10.445754 0.156805 -7.269092
v 10.456293 0.156805 -7.258554
v 9.543707 0.156805 -7.258554
v 9.554246 0.156805 -7.269092
v 10.294840 0.873504 -7.107639
v 10.307194 0.864656 -7.109592
v 10.296793 0.864656 -7.119994
v 10.408564 0.657243 -7.210694
v 10.397894 0.657243 -7.221363
v 9.543707 0.156805 -5.977874
v 9.554246 0.156805 -5.967335
v 9.446959 0.156805 -6.893090
v 9.446959 0.156805 -6.343337
v 10.553041 0.156805 -6.343337
v 10.553041 0.156805 -6.893090
v 10.000000 0.987307 -6.891841
v 10.000000 0.987307 -6.344586
v 9.499530 0.657243 -6.343791
v 9.499530 0.657243 -6.892637
v 10.500470 0.657243 -6.892637
v 10.500470 0.657243 -6.343791
v 9.540292 0.000000 -6.343157
v 9.540292 0.000000 -6.893270
v 10.459708 0.000000 -6.893270
v 10.459708 0.000000 -6.343157
v 9.674540 0.904223 -6.343073
v 9.674540 0.904223 -6.893354
v 9.661697 0.895243 -6.893329
v 9.661697 0.895243 -6.343098
v 10.325460 0.904223 -6.893354
v 10.325460 0.904223 -6.343073
v 10.338303 0.895243 -6.343098
v 10.338303 0.895243 -6.893329
vn -0.4655 0.7527 0.4655
vn -0.4655 0.7527 -0.4655
vn 0.4655 0.7527 0.4655
vn 0.4655 0.7527 -0.4655
vn -0.6595 0.3608 0.6595
vn -0.6905 -0.2153 0.6905
vn 0.5959 -0.5383 -0.5959
vn 0.6905 -0.2153 -0.6905
vn -0.0000 0.8219 0.5697
vn -0.1949 0.8061 0.5587
vn -0.5819 0.5681 0.5819
vn -0.6595 0.3608 -0.6595
vn -0.5819 0.5681 -0.5819
vn 0.6595 0.3608 0.6595
vn 0.5819 0.5681 0.5819
vn -0.5959 -0.5383 -0.5959
vn -0.6905 -0.2153 -0.6905
vn 0.1949 0.8061 -0.5587
vn -0.0000 0.8219 -0.5697
vn 0.5959 -0.5383 0.5959
vn 0.6905 -0.2153 0.6905
vn 0.6595 0.3608 -0.6595
vn 0.5819 0.5681 -0.5819
vn -0.5959 -0.5383 0.5959
vn -0.1949 0.8061 -0.5587
vn 0.1949 0.8061 0.5587
vn 0.2503 0.3054 0.9187
vn 0.2173 0.5383 0.8142
vn -0.0000 0.5515 0.8342
vn -0.0000 0.3279 0.9447
vn -0.2173 0.5383 0.8142
vn -0.2503 0.3054 0.9187
vn -0.0000 0.5515 -0.8342
vn 0.2173 0.5383 -0.8142
vn 0.2503 0.3054 -0.9187
vn -0.0000 0.3279 -0.9447
vn -0.2173 0.5383 -0.8142
vn -0.2503 0.3054 -0.9187
vn -0.0000 -0.5050 0.8631
vn -0.0000 -0.1979 0.9802
vn -0.2553 -0.1794 0.9501
vn -0.2182 -0.4928 0.8423
vn -0.2182 -0.4928 -0.8423
vn -0.2553 -0.1794 -0.9501
vn -0.0000 -0.1979 -0.9802
vn -0.0000 -0.5050 -0.8631
vn 0.2182 -0.4928 0.8423
vn 0.2553 -0.1794 0.9501
vn 0.2553 -0.1794 -0.9501
vn 0.2182 -0.4928 -0.8423
vn -0.9349 0.3329 -0.1232
vn -0.9709 -0.2040 -0.1252
vn -0.9709 -0.2040 0.1252
vn -0.9349 0.3329 0.1232
vn 0.9349 0.3329 0.1232
vn 0.9709 -0.2040 0.1252
vn 0.9709 -0.2040 -0.1252
vn 0.9349 0.3329 -0.1232
vn 0.8563 -0.5038 0.1142
vn 0.8563 -0.5038 -0.1142
vn -0.8563 -0.5038 -0.1142
vn -0.8563 -0.5038 0.1142
vn -0.5674 0.8174 -0.0990
vn -0.5676 0.8176 -0.0966
vn -0.5676 0.8176 0.0966
vn -0.5674 0.8174 0.0990
vn 0.5674 0.8174 0.0990
vn 0.5676 0.8176 0.0966
vn 0.5676 0.8176 -0.0966
vn 0.5674 0.8174 -0.0990
vn 0.2292 0.9674 -0.1073
vn -0.0000 0.9938 -0.1109
vn -0.0000 0.9938 0.1109
vn 0.2292 0.9674 0.1073
vn -0.2292 0.9674 -0.1073
vn -0.2292 0.9674 0.1073
vn -0.8270 0.5515 -0.1089
vn -0.8270 0.5515 0.1089
vn 0.8270 0.5515 -0.1089
vn 0.8270 0.5515 0.1089
vn -0.9192 0.3037 -0.2506
vn -0.9504 -0.1774 -0.2554
vn -0.9504 -0.1774 0.2554
vn -0.8434 -0.4908 0.2186
vn -0.9192 0.3037 0.2506
vn -0.8434 -0.4908 -0.2186
vn 0.9192 0.3037 -0.2506
vn 0.9504 -0.1774 -0.2554
vn 0.9192 0.3037 0.2506
vn 0.9504 -0.1774 0.2554
vn 0.8434 -0.4908 -0.2186
vn 0.8434 -0.4908 0.2186
vn 0.2070 0.9533 -0.2199
vn -0.0000 0.9744 -0.2247
vn 0.2070 0.9533 0.2199
vn -0.0000 0.9744 0.2247
vn -0.2070 0.9533 0.2199
vn -0.2070 0.9533 -0.2199
vn -0.8174 0.5329 -0.2187
vn -0.8174 0.5329 0.2187
vn 0.8174 0.5329 0.2187
vn 0.8174 0.5329 -0.2187
vn -0.5566 0.8077 -0.1948
vn -0.5566 0.8077 0.1948
vn 0.5566 0.8077 0.1948
vn 0.5566 0.8077 -0.1948
vt 0.457949 0.639248
vt 0.457737 0.638743
vt 0.457915 0.638743
vt 0.468243 0.638743
vt 0.468032 0.639248
vt 0.468065 0.638743
vt 0.456004 0.626922
vt 0.455188 0.598398
vt 0.455368 0.598398
vt 0.456187 0.626922
vt 0.469402 0.589461
vt 0.470612 0.598398
vt 0.470792 0.598398
vt 0.469581 0.589461
vt 0.462990 0.641657
vt 0.462990 0.641136
vt 0.469976 0.626922
vt 0.469794 0.626922
vt 0.456399 0.589461
vt 0.456579 0.589461
vt 0.462990 0.626922
vt 0.462990 0.589461
vt 0.462990 0.598398
vt 0.454433 0.626922
vt 0.453534 0.598398
vt 0.471548 0.626922
vt 0.472447 0.598398
vt 0.470851 0.589461
vt 0.455130 0.589461
vt 0.457425 0.640998
vt 0.457206 0.640487
vt 0.468555 0.640998
vt 0.468775 0.640487
vt 0.462990 0.645734
s 1
f 13/1/1 14/2/1 15/3/1
f 20/2/2 21/1/2 22/3/2
f 27/4/3 28/5/3 29/6/3
f 40/5/4 41/4/4 42/6/4
f 17/7/5 45/8/6 46/9/6 16/10/5
f 32/11/7 36/12/8 37/13/8 33/14/7
f 8/15/9 13/1/10 15/3/10 7/16/9
f 14/2/11 17/7/5 16/10/5 15/3/11
f 24/7/12 20/2/13 22/3/13 23/10/12
f 31/17/14 27/4/15 29/6/15 30/18/14
f 18/19/16 38/8/17 39/9/17 19/20/16
f 42/6/18 9/16/19 10/15/19 40/5/18
f 25/14/20 34/13/21 35/12/21 26/11/20
f 44/18/22 42/6/23 41/4/23 43/17/22
f 45/8/6 12/19/24 11/20/24 46/9/6
f 38/8/17 24/7/12 23/10/12 39/9/17
f 9/16/19 22/3/25 21/1/25 10/15/19
f 36/12/8 44/18/22 43/17/22 37/13/8
f 34/13/21 31/17/14 30/18/14 35/12/21
f 7/16/9 29/6/26 28/5/26 8/15/9
f 30/18/27 29/6/28 7/16/29 3/21/30
f 7/16/29 15/3/31 16/10/32 3/21/30
f 9/16/33 42/6/34 44/18/35 4/21/36
f 22/3/37 9/16/33 4/21/36 23/10/38
f 2/22/39 6/23/40 46/9/41 11/20/42
f 6/23/40 3/21/30 16/10/32 46/9/41
f 19/20/43 39/9/44 5/23/45 1/22/46
f 39/9/44 23/10/38 4/21/36 5/23/45
f 26/11/47 35/12/48 6/23/40 2/22/39
f 35/12/48 30/18/27 3/21/30 6/23/40
f 1/22/46 5/23/45 36/12/49 32/11/50
f 5/23/45 4/21/36 44/18/35 36/12/49
f 54/24/51 47/25/52 48/25/53 53/24/54
f 56/26/55 49/27/56 50/27/57 55/26/58
f 49/27/56 60/28/59 59/28/60 50/27/57
f 47/25/52 58/29/61 57/29/62 48/25/53
f 62/30/63 63/31/64 64/31/65 61/30/66
f 66/32/67 67/33/68 68/33/69 65/32/70
f 65/32/71 51/34/72 52/34/73 66/32/74
f 51/34/72 62/30/75 61/30/76 52/34/73
f 63/31/77 54/24/51 53/24/54 64/31/78
f 55/26/58 68/33/79 67/33/80 56/26/55
f 47/25/52 54/24/51 24/7/81 38/8/82
f 45/8/83 48/25/53 57/29/62 12/19/84
f 17/7/85 53/24/54 48/25/53 45/8/83
f 58/29/61 47/25/52 38/8/82 18/19/86
f 43/17/87 55/26/58 50/27/57 37/13/88
f 49/27/56 56/26/55 31/17/89 34/13/90
f 37/13/88 50/27/57 59/28/60 33/14/91
f 60/28/59 49/27/56 34/13/90 25/14/92
f 65/32/71 40/5/93 10/15/94 51/34/72
f 28/5/95 66/32/74 52/34/73 8/15/96
f 52/34/73 61/30/76 13/1/97 8/15/96
f 21/1/98 62/30/75 51/34/72 10/15/94
f 63/31/77 20/2/99 24/7/81 54/24/51
f 14/2/100 64/31/78 53/24/54 17/7/85
f 67/33/80 27/4/101 31/17/89 56/26/55
f 41/4/102 68/33/79 55/26/58 43/17/87
f 20/2/103 63/31/64 62/30/63 21/1/103
f 64/31/65 14/2/104 13/1/104 61/30/66
f 27/4/105 67/33/68 66/32/67 28/5/105
f 68/33/69 41/4/106 40/5/106 65/32/70
