# Blender 5.0.1
# www.blender.org
o GEO_PalmTree_A
v -7.253407 -0.051827 -22.146305
v -7.253407 -0.051827 -21.853695
v -7.000000 -0.051827 -21.707390
v -6.746593 -0.051828 -21.853695
v -6.746593 -0.051827 -22.146305
v -7.000000 -0.051827 -22.292610
v -7.189260 0.505125 -22.106707
v -7.189440 0.496621 -21.869232
v -6.983925 0.483661 -21.750652
v -6.778229 0.479205 -21.869545
v -6.778049 0.487709 -22.107018
v -6.983565 0.500669 -22.225599
v -7.107683 1.159906 -22.047979
v -7.107973 1.149969 -21.865608
v -6.950115 1.137668 -21.774570
v -6.791967 1.135304 -21.865906
v -6.791678 1.145241 -22.048277
v -6.949536 1.157542 -22.139313
v -7.030907 1.866573 -21.976849
v -7.031170 1.857868 -21.849487
v -6.920774 1.851034 -21.785748
v -6.810115 1.852903 -21.849371
v -6.809852 1.861608 -21.976732
v -6.920248 1.868442 -22.040470
v -6.980908 2.523127 -21.899784
v -6.981053 2.517034 -21.827364
v -6.918216 2.515889 -21.790869
v -6.855235 2.520837 -21.826792
v -6.855090 2.526930 -21.899212
v -6.917926 2.528075 -21.935707
v -6.962441 2.460456 -21.798971
v -6.962441 2.585928 -21.673498
v -7.087914 2.585928 -21.798971
v -6.962441 2.497206 -21.710249
v -7.034883 2.513487 -21.726530
v -7.051164 2.585928 -21.710249
v -7.051164 2.497206 -21.798971
v -6.962441 2.722184 -21.673498
v -6.962441 2.847656 -21.798971
v -7.087914 2.722184 -21.798971
v -6.962441 2.810906 -21.710249
v -7.034883 2.794625 -21.726530
v -7.051164 2.810906 -21.798971
v -7.051164 2.722184 -21.710249
v -6.962441 2.460456 -21.935226
v -7.087914 2.585928 -21.935226
v -6.962441 2.585928 -22.060699
v -7.051164 2.497206 -21.935226
v -7.034883 2.513487 -22.007668
v -7.051164 2.585928 -22.023949
v -6.962441 2.497206 -22.023949
v -6.962441 2.847656 -21.935226
v -6.962441 2.722184 -22.060699
v -7.087914 2.722184 -21.935226
v -6.962441 2.810906 -22.023949
v -7.034883 2.794625 -22.007668
v -7.051164 2.722184 -22.023949
v -7.051164 2.810906 -21.935226
v -6.826186 2.460456 -21.798971
v -6.700714 2.585928 -21.798971
v -6.826186 2.585928 -21.673498
v -6.737463 2.497206 -21.798971
v -6.753745 2.513487 -21.726530
v -6.737463 2.585928 -21.710249
v -6.826186 2.497206 -21.710249
v -6.826186 2.847656 -21.798971
v -6.826186 2.722184 -21.673498
v -6.700714 2.722184 -21.798971
v -6.826186 2.810906 -21.710249
v -6.753745 2.794625 -21.726530
v -6.737463 2.722184 -21.710249
v -6.737463 2.810906 -21.798971
v -6.826186 2.460456 -21.935226
v -6.826186 2.585928 -22.060699
v -6.700714 2.585928 -21.935226
v -6.826186 2.497206 -22.023949
v -6.753745 2.513487 -22.007668
v -6.737463 2.585928 -22.023949
v -6.737463 2.497206 -21.935226
v -6.826186 2.847656 -21.935226
v -6.700714 2.722184 -21.935226
v -6.826186 2.722184 -22.060699
v -6.737463 2.810906 -21.935226
v -6.753745 2.794625 -22.007668
v -6.737463 2.722184 -22.023949
v -6.826186 2.810906 -22.023949
v -7.093378 3.845267 -20.159752
v -6.477247 3.846022 -20.159115
v -7.255010 2.974297 -21.720818
v -6.315162 2.973866 -21.721384
v -6.784786 3.754679 -19.812717
v -6.784781 2.762635 -21.780472
v -7.055068 3.667448 -20.997259
v -7.114092 3.273230 -21.519896
v -7.198419 3.790195 -20.619160
v -7.289317 3.623111 -21.045626
v -7.344298 3.346388 -21.423147
v -6.937319 3.829208 -19.910879
v -7.010289 2.821578 -21.808939
v -6.559596 2.821495 -21.808992
v -6.632885 3.829297 -19.910572
v -6.959260 3.836002 -20.478086
v -6.449447 3.276602 -21.517035
v -6.505124 3.666696 -20.998995
v -6.599109 3.836399 -20.479870
v -6.784781 3.796966 -20.426273
v -6.784779 3.625341 -20.976427
v -6.784780 3.208928 -21.514408
v -6.326280 3.734090 -20.801470
v -7.016639 3.770380 -20.748062
v -6.561399 3.771182 -20.744938
v -6.784780 3.733269 -20.709597
v -6.254104 3.499126 -21.243124
v -7.094661 3.495289 -21.274891
v -6.485142 3.494438 -21.275909
v -6.784777 3.443407 -21.265295
v -6.409646 3.807204 -20.531284
v -6.432642 3.819870 -20.450581
v -6.274805 3.609684 -21.061844
v -6.294359 3.644780 -20.989452
v -6.247851 3.323289 -21.438538
v -6.231999 3.381120 -21.380796
v -7.203708 3.738564 -20.768250
v -7.230593 3.716598 -20.840176
v -7.309166 3.517577 -21.206114
v -7.318069 3.470465 -21.271654
v -7.098004 3.723873 -20.153858
v -6.469754 3.724720 -20.156487
v -7.256477 2.907638 -21.624596
v -6.312948 2.907777 -21.624470
v -6.784779 3.641839 -19.829681
v -6.784779 2.707145 -21.671930
v -7.069563 3.525040 -20.923920
v -7.126476 3.166895 -21.399895
v -7.201089 3.668938 -20.590874
v -7.291286 3.514631 -20.984865
v -7.346740 3.258985 -21.337679
v -6.964563 3.713150 -19.918266
v -7.024295 2.760008 -21.707180
v -6.545105 2.760070 -21.707157
v -6.604680 3.713308 -19.918507
v -6.982016 3.678506 -20.455057
v -6.434397 3.171583 -21.397699
v -6.487815 3.526096 -20.926897
v -6.569383 3.683623 -20.456324
v -6.784779 3.637449 -20.406338
v -6.784778 3.482889 -20.901934
v -6.784778 3.103666 -21.392885
v -6.324575 3.617132 -20.757412
v -7.036901 3.620642 -20.698519
v -6.544806 3.619442 -20.694252
v -6.784778 3.580709 -20.658926
v -6.251849 3.397698 -21.167778
v -7.111263 3.370021 -21.178947
v -6.471353 3.367014 -21.178770
v -6.784778 3.316751 -21.166294
v -6.408846 3.692979 -20.503168
v -6.428574 3.708519 -20.437037
v -6.273545 3.510541 -21.002090
v -6.293851 3.544789 -20.942377
v -6.245002 3.248717 -21.360504
v -6.230567 3.293701 -21.303791
v -7.204163 3.633184 -20.735563
v -7.231838 3.607565 -20.793255
v -7.310197 3.422845 -21.143610
v -7.319026 3.383031 -21.199537
v -6.387781 3.391938 -24.052197
v -7.002783 3.389615 -24.051336
v -6.222855 2.910393 -22.117266
v -7.164687 2.910395 -22.117266
v -6.691696 3.244538 -24.415586
v -6.693772 2.731273 -21.960464
v -6.425416 3.391339 -23.110075
v -6.365299 3.142869 -22.436836
v -6.190673 3.360516 -23.040730
v -6.135185 3.188336 -22.562170
v -6.538125 3.330329 -24.316454
v -6.466438 2.788990 -21.966726
v -6.921106 2.788990 -21.966726
v -6.847317 3.330113 -24.317635
v -6.416458 3.442060 -23.651922
v -7.105549 3.428465 -23.543129
v -7.252064 3.188455 -22.561752
v -7.021965 3.142790 -22.436745
v -6.974576 3.390464 -23.105692
v -6.867929 3.442163 -23.705313
v -6.691932 3.388402 -23.752499
v -6.693233 3.340457 -23.120169
v -6.693768 3.073864 -22.420254
v -7.207448 3.334351 -22.951769
v -7.177467 3.369313 -23.114511
v -6.314341 3.423871 -23.691210
v -6.265519 3.422866 -23.460497
v -6.378253 3.270830 -24.035412
v -7.007309 3.268646 -24.035580
v -6.221345 2.814227 -22.184626
v -7.166199 2.814227 -22.184624
v -6.695859 3.135385 -24.385023
v -6.693771 2.638463 -22.038862
v -6.406983 3.235310 -23.144339
v -6.351171 3.001653 -22.512466
v -6.186040 3.239875 -23.073751
v -6.131198 3.076826 -22.612808
v -6.513835 3.215452 -24.293133
v -6.453010 2.694796 -22.039001
v -6.934533 2.694796 -22.039001
v -6.875355 3.216527 -24.292484
v -6.389173 3.296757 -23.650078
v -7.109866 3.302687 -23.549768
v -7.256551 3.077149 -22.612946
v -7.036604 3.001714 -22.512541
v -6.997833 3.238868 -23.138453
v -6.891334 3.283139 -23.700512
v -6.695656 3.227821 -23.745564
v -6.694332 3.183807 -23.156240
v -6.693767 2.932122 -22.496113
v -7.211677 3.222308 -22.988720
v -7.179544 3.260430 -23.134474
v -6.308293 3.310142 -23.686701
v -6.261985 3.301526 -23.473248
v -5.047509 3.710914 -21.575140
v -5.047500 3.711552 -22.241726
v -6.692164 2.920505 -21.399729
v -6.692616 2.920794 -22.417301
v -4.679671 3.710241 -21.909414
v -6.813486 2.735555 -21.908957
v -5.895938 3.435059 -21.604069
v -6.420381 3.140244 -21.556320
v -5.491478 3.584307 -21.462912
v -6.312673 3.191276 -21.304808
v -4.804249 3.762354 -21.748583
v -6.826795 2.812825 -21.666473
v -6.826818 2.812902 -22.151230
v -4.804499 3.762349 -22.069700
v -5.386097 3.632855 -21.723909
v -5.912911 3.411299 -22.453688
v -6.335450 3.194730 -22.279800
v -5.859116 3.452002 -22.197090
v -5.426965 3.620418 -22.124031
v -5.336354 3.586014 -21.908955
v -5.831714 3.397952 -21.908953
v -6.421581 3.065810 -21.908865
v -5.846839 3.436095 -21.383129
v -5.983272 3.373796 -21.353899
v -5.568815 3.554233 -22.374104
v -5.398900 3.609211 -22.321798
v -6.373581 3.147822 -22.494059
v -6.243388 3.230011 -22.501272
v -5.012605 3.608825 -21.569956
v -5.013083 3.609283 -22.248535
v -6.628324 2.836998 -21.397865
v -6.628571 2.837408 -22.420448
v -4.655773 3.614978 -21.908255
v -6.741706 2.655070 -21.908741
v -5.831824 3.315258 -21.574881
v -6.339220 3.022918 -21.536776
v -5.447296 3.482031 -21.460367
v -6.252970 3.099485 -21.302448
v -4.777019 3.667233 -21.706516
v -6.762601 2.730562 -21.643141
v -6.762641 2.730566 -22.174559
v -4.776758 3.666984 -22.110804
v -5.334531 3.502992 -21.692520
v -5.859485 3.313566 -22.455868
v -6.260276 3.081708 -22.305887
v -5.793076 3.326611 -22.220121
v -5.378105 3.497164 -22.162846
v -5.283930 3.453966 -21.908749
v -5.763890 3.272057 -21.908810
v -6.340102 2.947633 -21.908852
v -5.802432 3.346677 -21.381514
v -5.930689 3.283933 -21.351242
v -5.524042 3.458206 -22.376623
v -5.363522 3.517251 -22.324898
v -6.315432 3.065341 -22.496164
v -6.189686 3.142449 -22.503277
v -8.612270 3.788690 -22.128471
v -8.593227 3.769962 -21.512918
v -7.053099 2.932172 -22.367231
v -7.022508 2.902033 -21.428364
v -8.948840 3.686415 -21.812042
v -6.977463 2.706094 -21.906099
v -7.773142 3.614522 -22.122469
v -7.250816 3.225351 -22.210569
v -8.156199 3.739584 -22.249758
v -7.732075 3.577890 -22.359426
v -7.355210 3.305199 -22.435144
v -8.855951 3.766287 -21.965172
v -6.956490 2.772297 -22.130411
v -6.942040 2.757967 -21.680178
v -8.846534 3.756750 -21.661034
v -8.289773 3.777003 -22.004902
v -7.232460 3.207693 -21.546398
v -7.753835 3.596395 -21.573158
v -8.276487 3.766023 -21.645159
v -8.335803 3.732175 -21.830193
v -7.785131 3.563774 -21.853128
v -7.245480 3.150640 -21.883461
v -7.945860 3.656975 -21.386078
v -8.021464 3.714767 -22.072887
v -8.010047 3.701159 -21.617983
v -8.052329 3.670126 -21.841219
v -7.501029 3.422367 -21.335476
v -7.496113 3.445286 -22.176315
v -7.475618 3.425172 -21.567472
v -7.495562 3.383579 -21.868088
v -8.218910 3.731147 -21.458448
v -8.300367 3.744074 -21.478453
v -7.683395 3.532489 -21.346882
v -7.756537 3.567773 -21.363001
v -7.304694 3.247536 -21.341028
v -7.362169 3.304507 -21.321520
v -8.007114 3.688996 -22.261419
v -7.935981 3.668302 -22.291262
v -7.571811 3.473951 -22.387711
v -7.506368 3.427519 -22.400185
v -8.617738 3.667471 -22.136765
v -8.595047 3.648471 -21.509205
v -7.149005 2.865046 -22.367758
v -7.118990 2.835356 -21.425173
v -8.931356 3.573730 -21.816160
v -7.085687 2.650014 -21.904411
v -7.846238 3.472229 -22.139143
v -7.370651 3.118779 -22.222507
v -8.183987 3.618312 -22.255379
v -7.792359 3.469182 -22.362909
v -7.440303 3.217431 -22.437645
v -8.848895 3.651193 -21.996311
v -7.058354 2.710623 -22.143127
v -7.043070 2.695535 -21.664417
v -8.837160 3.639975 -21.636795
v -8.312780 3.620176 -22.031908
v -7.350759 3.101573 -21.530909
v -7.824683 3.454909 -21.558044
v -8.298355 3.612253 -21.619570
v -8.354980 3.572627 -21.834627
v -7.858918 3.420970 -21.855288
v -7.366445 3.044741 -21.882942
v -7.989292 3.539772 -21.386690
v -8.070927 3.565464 -22.096313
v -8.059464 3.548684 -21.604618
v -8.102258 3.517355 -21.844456
v -7.575788 3.320490 -21.334053
v -7.591949 3.320060 -22.193832
v -7.571671 3.296824 -21.554659
v -7.593916 3.256424 -21.868967
v -8.246451 3.616796 -21.460386
v -8.313251 3.632575 -21.477497
v -7.742611 3.433017 -21.346876
v -7.803103 3.467549 -21.364174
v -7.382247 3.172467 -21.338072
v -7.438679 3.216649 -21.320419
v -8.039304 3.583499 -22.264185
v -7.982406 3.559096 -22.294479
v -7.633870 3.378945 -22.389765
v -7.578067 3.339750 -22.401627
v -7.956048 1.991717 -23.372761
v -8.433082 2.010822 -22.893456
v -6.736965 2.734939 -22.442099
v -7.469232 2.766296 -21.709890
v -8.324962 1.669301 -23.254879
v -6.972142 2.698240 -21.942783
v -7.525211 2.546236 -22.907059
v -7.074337 2.739442 -22.557989
v -7.299484 2.554308 -23.047016
v -6.970421 2.694804 -22.810305
v -8.183228 1.791684 -23.357395
v -6.815981 2.733566 -22.141949
v -7.169482 2.748703 -21.788475
v -8.424133 1.801109 -23.117493
v -7.798167 2.268386 -23.182081
v -8.276691 2.344301 -22.591385
v -7.838617 2.732328 -21.941856
v -7.584821 2.761295 -22.047407
v -7.949773 2.566389 -22.477798
v -8.175277 2.252117 -22.855850
v -8.045146 2.175142 -22.996336
v -7.722907 2.508161 -22.686308
v -7.300662 2.704442 -22.271603
v -8.038642 2.619332 -22.206499
v -8.105399 2.550892 -22.316994
v -7.732426 2.227216 -23.273508
v -7.581535 2.360386 -23.204294
v -7.903658 1.903537 -23.331419
v -8.392163 1.922619 -22.841711
v -6.739461 2.617697 -22.441925
v -7.474077 2.649154 -21.707367
v -8.280121 1.599324 -23.200560
v -6.982221 2.577269 -21.947683
v -7.480209 2.399576 -22.884462
v -7.057376 2.580566 -22.556213
v -7.275356 2.437394 -23.025091
v -6.958169 2.574925 -22.799124
v -8.118062 1.711884 -23.326612
v -6.812210 2.614629 -22.153982
v -7.186590 2.630659 -21.779633
v -8.399152 1.725167 -23.045618
v -7.731915 2.151309 -23.153276
v -8.245081 2.239047 -22.548548
v -7.833286 2.612570 -21.924414
v -7.590350 2.603392 -22.023392
v -7.937798 2.425578 -22.423595
v -8.142824 2.127396 -22.781628
v -7.995876 2.049762 -22.935896
v -7.693786 2.360587 -22.649155
v -7.294638 2.545476 -22.258772
v -8.025933 2.507343 -22.182413
v -8.083684 2.451365 -22.287781
v -7.690977 2.137892 -23.237642
v -7.548152 2.254860 -23.171890
v -8.031981 2.010262 -20.528278
v -7.560622 2.078993 -20.137491
v -7.169239 2.690572 -21.947609
v -6.448851 2.795661 -21.353207
v -7.856693 1.716773 -20.201162
v -6.672024 2.661361 -21.801325
v -7.634478 2.565075 -21.046623
v -7.292271 2.729938 -21.583052
v -7.934140 2.326335 -20.868351
v -7.773697 2.550024 -21.245543
v -7.540438 2.672616 -21.636290
v -7.983479 1.822222 -20.307287
v -6.868435 2.694390 -21.925705
v -6.523121 2.744687 -21.640480
v -7.750418 1.856015 -20.114361
v -7.821773 2.269929 -20.616579
v -6.785921 2.803923 -21.158897
v -7.212220 2.627368 -20.699839
v -7.545528 2.311772 -20.389311
v -7.683036 2.224941 -20.500908
v -7.410680 2.553280 -20.888388
v -7.005972 2.723309 -21.408123
v -7.176218 2.532954 -20.444235
v -7.742430 2.435949 -20.832512
v -7.395146 2.484793 -20.542233
v -7.556519 2.409032 -20.686470
v -6.848185 2.745543 -20.764668
v -7.479743 2.674370 -21.315691
v -7.012023 2.742688 -20.930872
v -7.216561 2.669888 -21.143856
v -7.367615 2.355611 -20.313042
v -7.418220 2.297277 -20.277843
v -6.983850 2.667856 -20.619497
v -7.041631 2.630073 -20.573801
v -6.682707 2.793067 -20.963421
v -6.721314 2.784570 -20.890160
v -7.861533 2.411612 -20.979605
v -7.846784 2.451824 -21.047014
v -7.678575 2.609885 -21.402565
v -7.638105 2.631805 -21.469471
v -7.969843 1.931354 -20.596870
v -7.488203 2.004058 -20.200081
v -7.164181 2.574242 -21.935535
v -6.441513 2.679543 -21.338116
v -7.788421 1.661552 -20.274033
v -6.676016 2.542294 -21.775494
v -7.589878 2.419260 -21.097782
v -7.281132 2.569582 -21.587820
v -7.877775 2.230119 -20.923811
v -7.734346 2.436111 -21.276188
v -7.521123 2.552027 -21.642258
v -7.937370 1.754472 -20.394178
v -6.877595 2.575398 -21.915764
v -6.510556 2.628904 -21.612379
v -7.661695 1.794927 -20.166401
v -7.758934 2.153584 -20.708057
v -6.754283 2.647954 -21.145905
v -7.143864 2.487176 -20.730495
v -7.445279 2.203747 -20.444620
v -7.600644 2.112341 -20.580757
v -7.355321 2.408147 -20.929787
v -6.986431 2.563793 -21.403641
v -7.123964 2.427434 -20.486170
v -7.690519 2.303748 -20.904028
v -7.314256 2.354591 -20.590950
v -7.487876 2.276492 -20.746162
v -6.814211 2.624918 -20.780949
v -7.453563 2.520958 -21.346550
v -6.961747 2.590416 -20.943081
v -7.177874 2.515083 -21.163378
v -7.312453 2.264187 -20.362411
v -7.357471 2.219424 -20.331205
v -6.946898 2.560771 -20.643341
v -7.000710 2.532357 -20.605289
v -6.664092 2.686711 -20.962692
v -6.696302 2.671059 -20.898151
v -7.813725 2.321828 -21.022346
v -7.802122 2.348539 -21.084818
v -7.646719 2.503061 -21.423910
v -7.613344 2.521864 -21.481560
v -5.764557 2.079867 -20.576330
v -5.285973 2.061600 -21.141296
v -7.061688 2.658521 -21.437777
v -6.331662 2.630419 -22.300684
v -5.347788 1.795982 -20.700933
v -6.843409 2.582188 -21.991966
v -6.284822 2.483640 -21.072111
v -6.713071 2.632702 -21.369919
v -6.119685 2.309357 -20.721058
v -6.817175 2.601615 -21.090776
v -5.498242 1.936201 -20.598736
v -6.986776 2.662571 -21.762899
v -6.638938 2.648991 -22.173914
v -5.267963 1.927334 -20.871128
v -5.858377 2.263515 -20.878429
v -5.694788 2.452768 -21.808846
v -6.126940 2.593945 -21.926041
v -5.833469 2.453463 -21.552612
v -5.596943 2.272428 -21.240080
v -5.724083 2.182680 -21.031530
v -6.052903 2.396662 -21.316883
v -6.496368 2.562356 -21.697515
v -6.419191 2.454158 -20.863144
v -6.535759 2.505266 -20.920923
v -5.517586 2.316500 -21.538498
v -5.446892 2.236727 -21.399870
v -6.014063 2.577668 -22.141941
v -5.906766 2.548207 -22.060673
v -5.800379 1.969941 -20.595440
v -5.313510 1.951552 -21.170856
v -7.072280 2.542258 -21.440163
v -6.338502 2.513963 -22.307182
v -5.382755 1.699760 -20.725636
v -6.847545 2.462454 -21.991173
v -6.332280 2.338052 -21.064932
v -6.744209 2.476186 -21.362610
v -6.149232 2.192294 -20.738464
v -6.834085 2.481624 -21.097662
v -5.560885 1.838767 -20.587257
v -7.012004 2.547675 -21.746456
v -6.630732 2.532732 -22.197073
v -5.270804 1.826976 -20.930042
v -5.918281 2.119045 -20.878614
v -5.714314 2.332429 -21.824541
v -6.126160 2.444146 -21.958382
v -5.845210 2.300364 -21.590992
v -5.604614 2.133439 -21.298464
v -5.762247 2.034893 -21.058615
v -6.080653 2.242474 -21.335030
v -6.513747 2.404353 -21.706949
v -6.441801 2.347491 -20.876379
v -6.555390 2.392175 -20.929907
v -5.540219 2.204000 -21.557579
v -5.471688 2.134557 -21.421968
v -6.024057 2.466377 -22.149767
v -5.921412 2.436045 -22.072254
v -5.493436 1.885965 -23.147888
v -5.943459 1.921430 -23.567221
v -6.417482 2.705427 -21.845482
v -7.105404 2.759946 -22.483530
v -5.655943 1.564306 -23.454473
v -6.907018 2.666826 -22.013824
v -5.909044 2.490925 -22.705395
v -6.275654 2.708941 -22.205290
v -5.604032 2.233727 -22.844652
v -5.780276 2.493598 -22.499025
v -6.031299 2.654756 -22.134146
v -5.533259 1.678234 -23.352367
v -6.716714 2.709785 -21.883144
v -7.046452 2.735814 -22.189281
v -5.755789 1.695609 -23.559391
v -5.704285 2.154671 -23.095442
v -6.758862 2.746778 -22.660097
v -6.312346 2.523727 -23.077839
v -5.968093 2.177179 -23.339596
v -5.837597 2.100127 -23.213360
v -6.124697 2.466129 -22.873152
v -6.552808 2.688252 -22.393354
v -6.336663 2.405803 -23.324915
v -5.792175 2.341122 -22.900517
v -6.123644 2.365242 -23.211643
v -5.970815 2.302099 -23.052769
v -6.677550 2.650707 -23.043322
v -6.075681 2.626611 -22.456182
v -6.522377 2.662201 -22.869354
v -6.329877 2.608151 -22.640182
v -6.141310 2.215140 -23.428741
v -6.089789 2.153288 -23.455622
v -6.535790 2.558409 -23.173321
v -6.476292 2.515954 -23.212206
v -6.852201 2.718325 -22.858744
v -6.810060 2.702576 -22.928785
v -5.681002 2.329810 -22.745832
v -5.698591 2.376365 -22.683367
v -5.882391 2.568922 -22.353468
v -5.925889 2.597445 -22.291107
v -5.560031 1.814469 -23.075459
v -6.019963 1.853411 -23.501665
v -6.423506 2.588525 -21.846775
v -7.113550 2.642989 -22.487961
v -5.728557 1.516849 -23.380341
v -6.903346 2.545814 -22.028069
v -5.958154 2.351018 -22.643082
v -6.289202 2.549865 -22.185997
v -5.664432 2.143706 -22.783346
v -5.822673 2.383456 -22.459845
v -6.052530 2.535452 -22.117834
v -5.584620 1.619442 -23.261969
v -6.708683 2.590312 -21.881330
v -7.059155 2.618001 -22.206947
v -5.847853 1.640514 -23.506470
v -5.773246 2.048087 -22.996765
v -6.791923 2.590562 -22.659935
v -6.384066 2.387682 -23.037664
v -6.072471 2.075773 -23.279593
v -5.925445 1.996339 -23.127605
v -6.184048 2.326070 -22.821161
v -6.574267 2.529207 -22.383774
v -6.392401 2.305201 -23.275967
v -5.849429 2.216764 -22.819624
v -6.208658 2.240964 -23.155102
v -6.044185 2.176427 -22.984463
v -6.713942 2.532473 -23.017511
v -6.105473 2.477055 -22.412386
v -6.575274 2.512222 -22.845449
v -6.371605 2.456241 -22.608168
v -6.200136 2.129300 -23.373882
v -6.154212 2.081385 -23.398361
v -6.575354 2.454397 -23.141422
v -6.520080 2.422029 -23.173796
v -6.872202 2.612548 -22.850397
v -6.836986 2.590559 -22.911425
v -5.732127 2.244910 -22.697338
v -5.746508 2.277529 -22.638348
v -5.916736 2.464888 -22.323816
v -5.952724 2.489368 -22.269997
vn -0.8577 0.1348 -0.4962
vn -0.8568 0.1427 -0.4955
vn 0.0002 0.1254 -0.9921
vn -0.0074 0.1210 -0.9926
vn -0.8644 0.1149 0.4895
vn -0.8613 0.1098 0.4961
vn -0.0077 0.0803 0.9967
vn -0.0011 0.0589 0.9983
vn 0.8646 0.0658 0.4981
vn 0.8659 0.0413 0.4986
vn 0.8584 0.0866 -0.5056
vn 0.8627 0.0748 -0.5001
vn -0.8564 0.1471 -0.4949
vn 0.0066 0.1337 -0.9910
vn -0.8601 0.0934 0.5016
vn 0.0035 0.0261 0.9997
vn 0.8666 0.0129 0.4988
vn 0.8661 0.0668 -0.4953
vn -0.8578 0.1335 -0.4964
vn 0.0096 0.1469 -0.9891
vn -0.8618 0.0656 0.5031
vn 0.0055 0.0116 0.9999
vn 0.8662 0.0257 0.4990
vn 0.8664 0.0930 -0.4906
vn -0.8579 0.1238 -0.4987
vn 0.0130 0.1569 -0.9875
vn -0.8624 0.0485 0.5039
vn 0.0086 0.0076 0.9999
vn 0.8662 0.0418 0.4979
vn 0.8659 0.1157 -0.4867
vn -0.1794 -0.9673 0.1794
vn -0.1726 -0.6965 0.6965
vn -0.5774 -0.5773 0.5774
vn -0.6965 -0.6965 0.1726
vn -0.1794 -0.1794 0.9673
vn -0.6965 -0.1726 0.6965
vn -0.9673 -0.1794 0.1794
vn -0.1794 0.1794 0.9673
vn -0.1726 0.6965 0.6965
vn -0.5773 0.5774 0.5774
vn -0.6965 0.1726 0.6965
vn -0.1794 0.9673 0.1794
vn -0.6965 0.6965 0.1726
vn -0.9673 0.1794 0.1794
vn -0.1794 -0.9673 -0.1794
vn -0.6965 -0.6965 -0.1726
vn -0.5774 -0.5773 -0.5774
vn -0.1726 -0.6965 -0.6965
vn -0.9673 -0.1794 -0.1794
vn -0.6965 -0.1726 -0.6965
vn -0.1794 -0.1794 -0.9673
vn -0.1794 0.9673 -0.1794
vn -0.1726 0.6965 -0.6965
vn -0.5774 0.5774 -0.5774
vn -0.6965 0.6965 -0.1726
vn -0.1794 0.1794 -0.9673
vn -0.6965 0.1726 -0.6965
vn -0.9673 0.1794 -0.1794
vn 0.1794 -0.9673 0.1794
vn 0.6965 -0.6965 0.1726
vn 0.5774 -0.5773 0.5774
vn 0.1726 -0.6965 0.6965
vn 0.9673 -0.1794 0.1794
vn 0.6965 -0.1726 0.6965
vn 0.1794 -0.1794 0.9673
vn 0.1794 0.9673 0.1794
vn 0.1726 0.6965 0.6965
vn 0.5773 0.5774 0.5774
vn 0.6965 0.6965 0.1726
vn 0.1794 0.1794 0.9673
vn 0.6965 0.1726 0.6965
vn 0.9673 0.1794 0.1794
vn 0.1794 -0.9673 -0.1794
vn 0.1726 -0.6965 -0.6965
vn 0.5774 -0.5774 -0.5774
vn 0.6965 -0.6965 -0.1726
vn 0.1794 -0.1794 -0.9673
vn 0.6965 -0.1726 -0.6965
vn 0.9673 -0.1794 -0.1794
vn 0.1794 0.9673 -0.1794
vn 0.6965 0.6965 -0.1726
vn 0.5774 0.5774 -0.5774
vn 0.1726 0.6965 -0.6965
vn 0.9673 0.1794 -0.1794
vn 0.6965 0.1726 -0.6965
vn 0.1794 0.1794 -0.9673
vn -0.2543 0.9669 0.0208
vn -0.1311 0.9832 -0.1267
vn -0.2776 0.9571 -0.0827
vn -0.3074 0.9511 0.0309
vn -0.0481 0.7967 -0.6025
vn -0.0456 0.6432 -0.7644
vn -0.1597 0.6233 -0.7655
vn -0.1564 0.7782 -0.6082
vn 0.2114 0.9270 -0.3099
vn 0.1758 0.8709 -0.4590
vn 0.0485 0.8894 -0.4546
vn 0.0678 0.9460 -0.3171
vn 0.0444 0.6461 -0.7620
vn 0.1082 0.5464 -0.8305
vn -0.0465 0.5723 -0.8188
vn -0.0582 0.7009 -0.7108
vn 0.1604 0.6244 -0.7645
vn 0.1690 0.5323 -0.8295
vn -0.0616 0.9487 -0.3102
vn -0.0516 0.8880 -0.4569
vn -0.1756 0.8708 -0.4591
vn -0.2105 0.9274 -0.3093
vn -0.1066 0.5475 -0.8300
vn -0.1665 0.5336 -0.8291
vn 0.3141 0.9488 0.0336
vn 0.2821 0.9557 -0.0834
vn 0.1184 0.9853 -0.1229
vn 0.2484 0.9685 0.0187
vn 0.1553 0.7781 -0.6087
vn 0.0500 0.7957 -0.6036
vn -0.0659 0.9775 -0.2004
vn -0.0328 0.9985 -0.0429
vn -0.0167 0.9996 -0.0236
vn 0.0929 0.9689 -0.2294
vn 0.0852 0.9385 -0.3347
vn 0.0808 0.9187 -0.3866
vn 0.0627 0.8518 -0.5202
vn 0.0638 0.8051 -0.5898
vn 0.0486 0.5735 -0.8177
vn 0.0644 0.7516 -0.6565
vn -0.0778 0.9631 -0.2578
vn -0.0718 0.8758 -0.4773
vn -0.0824 0.9212 -0.3803
vn -0.0656 0.8468 -0.5278
vn -0.0633 0.7554 -0.6522
vn 0.2772 -0.9598 0.0449
vn 0.2973 -0.9540 0.0386
vn 0.2658 -0.9553 0.1293
vn 0.2062 -0.9643 0.1659
vn 0.1323 -0.7855 0.6046
vn 0.1535 -0.7789 0.6080
vn 0.1625 -0.6561 0.7370
vn 0.1325 -0.6669 0.7333
vn -0.2020 -0.9288 0.3107
vn -0.1576 -0.9342 0.3200
vn -0.1417 -0.8739 0.4649
vn -0.1719 -0.8718 0.4587
vn -0.1244 -0.6666 0.7349
vn -0.1040 -0.6967 0.7098
vn -0.0851 -0.6279 0.7737
vn -0.1497 -0.6050 0.7820
vn -0.1626 -0.6558 0.7372
vn -0.1758 -0.5948 0.7844
vn 0.1538 -0.9325 0.3269
vn 0.2033 -0.9283 0.3115
vn 0.1713 -0.8719 0.4587
vn 0.1399 -0.8770 0.4596
vn 0.1751 -0.5952 0.7843
vn 0.1564 -0.6022 0.7829
vn -0.2981 -0.9538 0.0381
vn -0.2626 -0.9635 0.0515
vn -0.1873 -0.9702 0.1538
vn -0.2650 -0.9558 0.1275
vn -0.1533 -0.7788 0.6082
vn -0.1348 -0.7847 0.6050
vn -0.1138 -0.9879 0.1050
vn -0.1179 -0.9703 0.2111
vn 0.1864 -0.9798 0.0724
vn 0.1073 -0.9284 0.3557
vn 0.1023 -0.9506 0.2931
vn 0.1096 -0.9158 0.3864
vn 0.1101 -0.7913 0.6014
vn 0.1102 -0.8282 0.5494
vn 0.1088 -0.6187 0.7780
vn 0.1096 -0.7508 0.6514
vn -0.1191 -0.9610 0.2496
vn -0.1100 -0.8963 0.4295
vn -0.1147 -0.8643 0.4898
vn -0.1170 -0.8453 0.5213
vn -0.1129 -0.7277 0.6765
vn -0.9997 -0.0138 -0.0192
vn -0.9817 -0.1344 -0.1351
vn -0.9996 -0.0176 -0.0228
vn 0.9369 0.0898 0.3379
vn 0.7007 0.0442 0.7121
vn 0.7008 0.0443 0.7120
vn 0.9380 0.0894 0.3349
vn -0.3765 -0.7827 -0.4956
vn -0.1401 -0.8611 -0.4887
vn -0.3706 -0.7853 -0.4958
vn -0.5845 -0.6594 -0.4728
vn -0.5004 -0.0325 0.8652
vn -0.7017 0.0416 0.7113
vn -0.7002 0.0410 0.7128
vn 0.1402 -0.8613 -0.4883
vn 0.3758 -0.7832 -0.4953
vn 0.3711 -0.7854 -0.4954
vn 0.5007 -0.0324 0.8650
vn -0.9244 0.0867 0.3715
vn -0.9918 0.0402 0.1214
vn -0.9915 0.0407 0.1238
vn -0.9248 0.0865 0.3705
vn 0.5843 -0.6598 -0.4725
vn 0.6083 -0.5407 -0.5810
vn -0.3976 0.6604 0.6370
vn -0.0485 0.6217 0.7818
vn 0.1582 -0.1174 -0.9804
vn -0.0167 -0.4448 -0.8955
vn -0.4362 0.3459 0.8307
vn 0.9878 0.0591 0.1438
vn -0.2965 -0.5424 -0.7861
vn 0.9747 0.0825 0.2078
vn 0.9557 0.0971 0.2779
vn 0.9744 0.0828 0.2090
vn 0.9883 0.0675 0.1367
vn 0.2753 0.2129 0.9375
vn 0.9936 0.0789 0.0813
vn 0.9946 0.0693 0.0769
vn 0.9936 0.0788 0.0812
vn 0.3307 0.4743 0.8159
vn 0.9881 -0.1044 -0.1126
vn 0.9924 0.0884 0.0856
vn -0.9995 0.0198 0.0225
vn -0.9654 0.1270 0.2277
vn -0.9833 0.0957 0.1549
vn -0.9831 0.0962 0.1558
vn 0.1680 -0.3147 -0.9342
vn -0.9946 0.0640 0.0812
vn -0.9900 0.1046 0.0947
vn -0.0139 0.9067 0.4216
vn -0.0457 0.8174 0.5742
vn 0.1022 0.8071 0.5815
vn 0.0626 0.8732 0.4833
vn 0.2515 0.9518 -0.1755
vn 0.1213 0.9917 -0.0416
vn 0.2821 0.9571 -0.0658
vn 0.3121 0.9324 -0.1820
vn 0.0966 0.9717 0.2155
vn 0.1687 0.8607 0.4804
vn 0.2075 0.9518 0.2261
vn -0.2249 0.9720 -0.0686
vn -0.1943 0.9562 0.2189
vn -0.0822 0.9734 0.2137
vn -0.1362 0.9904 -0.0232
vn -0.0603 0.8738 0.4824
vn -0.1020 0.8072 0.5814
vn 0.0463 0.8175 0.5741
vn 0.0225 0.9086 0.4171
vn -0.1699 0.8602 0.4807
vn -0.1582 0.7985 0.5808
vn 0.1582 0.7985 0.5809
vn -0.2356 0.9581 -0.1629
vn -0.2135 0.9639 -0.1588
vn 0.0262 0.9646 0.2625
vn -0.0341 0.9900 -0.1371
vn -0.0417 0.9983 0.0404
vn 0.0006 0.9373 0.3484
vn -0.0440 0.9941 0.0995
vn 0.0522 0.9922 0.1131
vn -0.0562 0.9902 -0.1280
vn -0.1410 -0.8996 -0.4134
vn -0.1400 -0.8814 -0.4511
vn -0.1432 -0.8412 -0.5215
vn -0.0840 -0.8504 -0.5194
vn -0.2676 -0.9570 0.1120
vn -0.3008 -0.9463 0.1184
vn -0.2705 -0.9623 0.0268
vn -0.1914 -0.9815 0.0092
vn -0.1786 -0.9589 -0.2207
vn -0.2042 -0.9526 -0.2254
vn -0.1720 -0.8779 -0.4469
vn 0.2381 -0.9709 0.0263
vn 0.2173 -0.9761 -0.0099
vn 0.1657 -0.9600 -0.2257
vn 0.1957 -0.9548 -0.2235
vn 0.1348 -0.8836 -0.4484
vn 0.1256 -0.9059 -0.4045
vn 0.0836 -0.8505 -0.5193
vn 0.1432 -0.8412 -0.5215
vn 0.1704 -0.8785 -0.4463
vn 0.1658 -0.8368 -0.5218
vn -0.1658 -0.8368 -0.5218
vn 0.2528 -0.9617 0.1057
vn 0.2507 -0.9627 0.1017
vn 0.1385 -0.9506 -0.2778
vn -0.1089 -0.9908 0.0806
vn -0.1364 -0.9885 -0.0658
vn -0.1658 -0.9166 -0.3637
vn -0.1447 -0.9830 -0.1131
vn 0.1270 -0.9817 -0.1417
vn 0.2345 -0.9694 0.0719
vn 0.9995 0.0036 0.0326
vn 0.9849 -0.0650 0.1603
vn 0.9994 0.0018 0.0360
vn -0.9363 0.0322 -0.3496
vn -0.7297 -0.0486 -0.6820
vn -0.7320 -0.0474 -0.6797
vn -0.9367 0.0322 -0.3488
vn 0.4053 -0.5392 0.7382
vn 0.1598 -0.6124 0.7743
vn 0.4054 -0.5392 0.7382
vn 0.6243 -0.4296 0.6525
vn 0.5440 -0.1497 -0.8256
vn 0.7371 -0.0527 -0.6737
vn 0.7313 -0.0561 -0.6797
vn -0.1598 -0.6124 0.7743
vn -0.4053 -0.5392 0.7382
vn -0.4054 -0.5392 0.7382
vn -0.5382 -0.1305 -0.8327
vn 0.9891 0.0678 -0.1311
vn 0.9890 0.0678 -0.1318
vn 0.7948 0.1162 -0.5957
vn 0.9123 0.0940 -0.3986
vn 0.9131 0.0938 -0.3967
vn 0.9357 0.0449 -0.3499
vn 0.9363 0.0449 -0.3484
vn -0.9849 -0.0636 0.1611
vn -0.9994 0.0062 0.0347
vn -0.9992 0.0039 0.0389
vn -0.6243 -0.4296 0.6525
vn -0.0126 -0.1972 0.9803
vn -0.9826 0.0364 -0.1819
vn -0.9825 0.0361 -0.1825
vn 0.3838 0.0720 0.9206
vn -0.5712 0.2650 -0.7769
vn -0.9934 0.0735 -0.0881
vn -0.9861 0.0450 -0.1600
vn 0.9782 0.0465 -0.2023
vn -0.2144 0.9400 0.2652
vn -0.3020 0.9424 0.1438
vn -0.2695 0.9160 0.2972
vn -0.2056 0.9212 0.3303
vn -0.4218 0.9030 0.0817
vn -0.5394 0.8383 0.0795
vn -0.5569 0.8081 0.1919
vn -0.4262 0.8777 0.2190
vn -0.2751 0.9107 -0.3081
vn -0.4261 0.8779 -0.2183
vn -0.4315 0.8975 -0.0912
vn -0.2941 0.9461 -0.1359
vn -0.5597 0.8259 -0.0677
vn -0.6110 0.7800 -0.1356
vn -0.6124 0.7893 0.0447
vn -0.5283 0.8481 0.0400
vn -0.5519 0.8093 -0.2010
vn -0.6046 0.7688 -0.2083
vn -0.6033 0.7869 0.1295
vn -0.5992 0.7776 0.1904
vn -0.1943 0.9129 -0.3591
vn -0.2061 0.9372 -0.2813
vn -0.3252 0.9446 0.0446
vn -0.2380 0.9707 0.0324
vn -0.3610 0.9313 0.0497
vn -0.4844 0.8741 0.0375
vn -0.3621 0.9304 -0.0565
vn -0.4322 0.9003 -0.0510
vn -0.2402 0.9704 -0.0231
vn -0.6037 0.7970 -0.0196
vn -0.4711 0.8808 -0.0477
vn 0.2629 -0.9250 -0.2742
vn 0.2592 -0.9138 -0.3127
vn 0.3050 -0.9097 -0.2818
vn 0.3256 -0.9266 -0.1881
vn 0.4300 -0.8903 -0.1502
vn 0.4262 -0.8787 -0.2151
vn 0.5219 -0.8287 -0.2021
vn 0.5161 -0.8452 -0.1387
vn 0.3065 -0.9089 0.2829
vn 0.3193 -0.9304 0.1797
vn 0.4350 -0.8870 0.1549
vn 0.4257 -0.8797 0.2120
vn 0.5304 -0.8377 0.1299
vn 0.5221 -0.8486 0.0855
vn 0.5596 -0.8267 0.0581
vn 0.5524 -0.8170 0.1655
vn 0.5215 -0.8295 0.1999
vn 0.5476 -0.8103 0.2088
vn 0.5472 -0.8108 -0.2077
vn 0.5537 -0.8156 -0.1680
vn 0.2536 -0.9111 0.3250
vn 0.2618 -0.9247 0.2763
vn 0.2885 -0.9551 0.0670
vn 0.3487 -0.9331 0.0876
vn 0.3720 -0.9233 0.0956
vn 0.5036 -0.8583 0.0987
vn 0.4467 -0.8903 -0.0887
vn 0.3987 -0.9134 -0.0827
vn 0.2747 -0.9579 -0.0830
vn 0.5661 -0.8215 -0.0680
vn 0.4726 -0.8765 -0.0920
vn -0.0404 -0.0069 0.9992
vn -0.1760 -0.1004 0.9793
vn -0.0380 -0.0053 0.9993
vn 0.3218 0.2304 -0.9183
vn 0.6666 0.3429 -0.6619
vn 0.6524 0.3436 -0.6755
vn 0.3299 0.2371 -0.9137
vn -0.7699 -0.6236 0.1357
vn -0.6967 -0.4537 0.5556
vn 0.8233 0.3265 0.4642
vn 0.6679 0.3448 0.6595
vn 0.6513 0.3454 0.6757
vn -0.7699 -0.6236 -0.1357
vn 0.8243 0.3210 -0.4663
vn 0.3339 0.2292 0.9143
vn 0.1934 0.1104 0.9749
vn 0.1949 0.1111 0.9745
vn 0.3417 0.2362 0.9097
vn -0.6983 -0.4516 -0.5553
vn 0.7736 0.4914 0.4000
vn -0.8814 -0.4277 0.2005
vn -0.7921 -0.4513 -0.4110
vn -0.9322 -0.3417 -0.1189
vn 0.7775 0.5689 -0.2683
vn 0.1773 0.1032 0.9787
vn 0.0990 0.0886 0.9911
vn 0.1387 0.0970 -0.9856
vn 0.1798 0.1148 -0.9770
vn 0.1413 0.0981 -0.9851
vn 0.1853 0.1164 -0.9758
vn 0.7285 0.4140 -0.5458
vn -0.1693 -0.0936 -0.9811
vn 0.0999 0.0801 -0.9918
vn -0.0334 0.9743 -0.2226
vn 0.1178 0.9876 -0.1037
vn 0.0693 0.9659 -0.2495
vn -0.0452 0.9601 -0.2759
vn 0.5969 0.8012 -0.0419
vn 0.7595 0.6486 -0.0494
vn 0.7571 0.6324 -0.1641
vn 0.5992 0.7862 -0.1509
vn 0.3122 0.9216 0.2308
vn 0.4603 0.8675 0.1888
vn 0.4517 0.8900 0.0622
vn 0.3147 0.9451 0.0877
vn 0.7600 0.6487 0.0407
vn 0.8310 0.5474 0.0991
vn 0.8142 0.5781 -0.0543
vn 0.7053 0.7065 -0.0585
vn 0.7663 0.6233 0.1558
vn 0.8320 0.5314 0.1594
vn 0.3036 0.9519 -0.0412
vn 0.4509 0.8918 -0.0379
vn 0.4492 0.8785 -0.1624
vn 0.2981 0.9353 -0.1907
vn 0.8236 0.5553 -0.1155
vn 0.8209 0.5434 -0.1758
vn -0.0280 0.9382 0.3450
vn 0.0879 0.9468 0.3096
vn 0.1220 0.9818 0.1457
vn -0.0153 0.9600 0.2795
vn 0.6096 0.7763 0.1605
vn 0.6011 0.7972 0.0561
vn 0.1936 0.9802 -0.0412
vn 0.0371 0.9993 -0.0024
vn 0.0184 0.9997 0.0143
vn 0.2277 0.9668 0.1164
vn 0.3328 0.9372 0.1043
vn 0.3847 0.9179 0.0977
vn 0.5179 0.8523 0.0732
vn 0.5877 0.8060 0.0706
vn 0.8162 0.5764 0.0408
vn 0.6547 0.7529 0.0674
vn 0.2507 0.9665 -0.0554
vn 0.4707 0.8803 -0.0590
vn 0.3732 0.9255 -0.0652
vn 0.5215 0.8515 -0.0554
vn 0.6463 0.7607 -0.0599
vn -0.0315 -0.9683 0.2478
vn -0.0246 -0.9631 0.2679
vn -0.1163 -0.9640 0.2392
vn -0.1547 -0.9713 0.1806
vn -0.5964 -0.7927 0.1264
vn -0.5991 -0.7869 0.1479
vn -0.7283 -0.6651 0.1649
vn -0.7256 -0.6749 0.1345
vn -0.3126 -0.9237 -0.2214
vn -0.3205 -0.9306 -0.1769
vn -0.4651 -0.8716 -0.1546
vn -0.4598 -0.8686 -0.1848
vn -0.7354 -0.6665 -0.1221
vn -0.7095 -0.6971 -0.1035
vn -0.7730 -0.6293 -0.0804
vn -0.7836 -0.6044 -0.1440
vn -0.7390 -0.6545 -0.1598
vn -0.7868 -0.5934 -0.1696
vn -0.3175 -0.9387 0.1344
vn -0.3005 -0.9360 0.1835
vn -0.4489 -0.8795 0.1580
vn -0.4508 -0.8836 0.1265
vn -0.7755 -0.6049 0.1809
vn -0.7747 -0.6113 0.1620
vn -0.0431 -0.9441 -0.3269
vn -0.0553 -0.9550 -0.2913
vn -0.1552 -0.9646 -0.2131
vn -0.1315 -0.9476 -0.2910
vn -0.6091 -0.7771 -0.1586
vn -0.6054 -0.7835 -0.1404
vn -0.1039 -0.9844 -0.1418
vn -0.2103 -0.9673 -0.1419
vn -0.0618 -0.9856 0.1574
vn -0.3477 -0.9334 0.0889
vn -0.2852 -0.9550 0.0813
vn -0.3784 -0.9210 0.0926
vn -0.5939 -0.7978 0.1040
vn -0.5417 -0.8344 0.1012
vn -0.7713 -0.6263 0.1137
vn -0.6440 -0.7576 0.1063
vn -0.2487 -0.9582 -0.1416
vn -0.4286 -0.8948 -0.1247
vn -0.4892 -0.8630 -0.1264
vn -0.5208 -0.8441 -0.1271
vn -0.6764 -0.7276 -0.1144
vn -0.0127 0.0179 -0.9998
vn 0.1043 -0.1026 -0.9892
vn -0.0090 0.0142 -0.9999
vn -0.3082 0.0582 0.9495
vn -0.6895 0.0180 0.7240
vn -0.6894 0.0180 0.7241
vn -0.3052 0.0578 0.9505
vn 0.4870 -0.7676 -0.4167
vn 0.4880 -0.8535 -0.1828
vn 0.4874 -0.7704 -0.4110
vn 0.4569 -0.6379 -0.6199
vn -0.8805 -0.0216 -0.4735
vn -0.7335 0.0598 -0.6770
vn -0.7350 0.0591 -0.6755
vn 0.4966 -0.8625 0.0971
vn 0.5107 -0.7919 0.3348
vn 0.5107 -0.7939 0.3300
vn -0.8484 -0.0531 0.5266
vn -0.4013 0.1137 -0.9089
vn -0.1532 0.0708 -0.9857
vn -0.1556 0.0713 -0.9852
vn -0.4003 0.1136 -0.9093
vn 0.4940 -0.6753 0.5477
vn 0.6027 -0.5564 0.5720
vn -0.6525 0.6690 -0.3560
vn -0.7858 0.6184 -0.0038
vn 0.9855 -0.1168 0.1231
vn 0.8966 -0.4389 -0.0593
vn -0.8458 0.3548 -0.3983
vn -0.1124 0.0270 0.9933
vn 0.7787 -0.5282 -0.3384
vn -0.1769 0.0505 0.9829
vn -0.2477 0.0653 0.9666
vn -0.1781 0.0507 0.9827
vn -0.1054 0.0355 0.9938
vn -0.9292 0.1987 0.3115
vn -0.0499 0.0470 0.9976
vn -0.0455 0.0373 0.9983
vn -0.0498 0.0469 0.9977
vn -0.8071 0.4590 0.3714
vn 0.1446 -0.1350 0.9802
vn -0.0543 0.0565 0.9969
vn -0.0546 0.0513 -0.9972
vn -0.2590 0.1561 -0.9532
vn -0.1866 0.1259 -0.9743
vn -0.1876 0.1263 -0.9741
vn 0.9405 -0.3146 0.1282
vn -0.1133 0.0949 -0.9890
vn -0.1268 0.1353 -0.9827
vn -0.1468 0.9746 -0.1689
vn -0.0229 0.9997 -0.0070
vn 0.0795 0.9928 -0.0891
vn -0.0482 0.9847 -0.1673
vn -0.3890 0.6067 -0.6933
vn -0.3935 0.7223 -0.5687
vn -0.3070 0.6817 -0.6641
vn -0.3479 0.5888 -0.7295
vn -0.2479 0.8820 -0.4007
vn 0.0242 0.9721 -0.2333
vn -0.1680 0.8717 -0.4604
vn -0.6057 0.7015 -0.3755
vn -0.4208 0.8801 -0.2201
vn -0.3585 0.8861 -0.2937
vn -0.5331 0.7384 -0.4130
vn -0.1244 0.9879 -0.0931
vn -0.0464 0.9983 0.0366
vn 0.0360 0.9972 -0.0662
vn -0.1256 0.9722 -0.1974
vn -0.1917 0.9813 -0.0164
vn -0.0811 0.9935 0.0800
vn 0.1224 0.9848 -0.1235
vn -0.6572 0.6285 -0.4161
vn -0.6429 0.6341 -0.4296
vn -0.2614 0.9062 -0.3325
vn -0.5381 0.6572 -0.5277
vn -0.4517 0.7783 -0.4361
vn -0.2083 0.9457 -0.2496
vn -0.4164 0.8170 -0.3990
vn -0.3503 0.8226 -0.4479
vn -0.5463 0.6638 -0.5109
vn 0.0546 -0.9611 0.2706
vn 0.0240 -0.9694 0.2441
vn -0.0476 -0.9832 0.1760
vn -0.0048 -0.9894 0.1450
vn 0.3450 -0.6502 0.6770
vn 0.3237 -0.6383 0.6985
vn 0.2935 -0.7094 0.6408
vn 0.3332 -0.7350 0.5906
vn 0.1888 -0.8758 0.4442
vn 0.1707 -0.8719 0.4589
vn 0.0056 -0.9640 0.2660
vn 0.5924 -0.7278 0.3455
vn 0.5617 -0.7541 0.3405
vn 0.3973 -0.8880 0.2316
vn 0.4183 -0.8823 0.2158
vn 0.2019 -0.9767 0.0724
vn 0.2284 -0.9669 0.1138
vn 0.1024 -0.9940 0.0380
vn 0.1337 -0.9910 -0.0052
vn 0.2242 -0.9733 0.0489
vn 0.1469 -0.9889 -0.0235
vn -0.0656 -0.9798 0.1890
vn 0.6406 -0.6685 0.3778
vn 0.6374 -0.6719 0.3772
vn 0.3463 -0.9134 0.2138
vn 0.4276 -0.6915 0.5823
vn 0.3280 -0.7865 0.5233
vn 0.0851 -0.9388 0.3338
vn 0.2917 -0.8154 0.5000
vn 0.4369 -0.8407 0.3200
vn 0.6151 -0.6946 0.3731
vn 0.7388 -0.0058 -0.6739
vn 0.8481 0.0095 -0.5297
vn 0.7249 -0.0075 -0.6888
vn -0.9123 -0.1405 0.3847
vn -0.9227 -0.3838 0.0358
vn -0.9193 -0.3928 0.0252
vn -0.9233 -0.1581 0.3502
vn 0.8934 -0.0372 0.4477
vn 0.7832 -0.0642 0.6185
vn 0.8969 -0.0361 0.4408
vn 0.9683 -0.0073 0.2498
vn -0.1603 -0.5740 -0.8030
vn 0.0307 -0.4234 -0.9054
vn 0.0100 -0.4413 -0.8973
vn 0.6158 -0.0571 0.7858
vn 0.4465 -0.0180 0.8946
vn 0.4396 -0.0165 0.8981
vn -0.8331 -0.5314 -0.1535
vn 0.5577 -0.0456 -0.8288
vn 0.5501 -0.0512 -0.8335
vn 0.0256 -0.2544 -0.9668
vn 0.3025 -0.1630 -0.9391
vn 0.2539 -0.1807 -0.9502
vn 0.3687 -0.1839 -0.9112
vn 0.3359 -0.2009 -0.9202
vn -0.5283 0.0702 0.8462
vn -0.6729 0.0582 0.7374
vn -0.6864 0.0569 0.7250
vn 0.2501 0.0234 0.9679
vn 0.6687 0.3257 0.6684
vn -0.8466 -0.0458 0.5303
vn -0.8488 -0.0516 0.5261
vn 0.7942 0.5153 0.3220
vn -0.9436 -0.1785 -0.2790
vn -0.8072 0.0427 0.5887
vn -0.8392 -0.0274 0.5432
vn 0.4989 -0.1101 -0.8596
vn -0.7397 0.5428 0.3978
vn -0.6070 0.6824 0.4072
vn -0.7189 0.6156 0.3228
vn -0.7749 0.5192 0.3605
vn -0.2867 0.9525 0.1030
vn -0.1473 0.9868 -0.0678
vn -0.2233 0.9628 -0.1519
vn -0.3576 0.9336 0.0210
vn -0.2545 0.8305 0.4954
vn -0.2026 0.9097 0.3625
vn -0.3119 0.9033 0.2947
vn -0.3727 0.8317 0.4115
vn -0.0807 0.9967 -0.0079
vn 0.0457 0.9971 -0.0601
vn -0.0911 0.9863 -0.1372
vn -0.2063 0.9784 -0.0148
vn 0.0210 0.9984 0.0519
vn 0.0997 0.9946 -0.0291
vn -0.4756 0.8135 0.3348
vn -0.3870 0.8931 0.2293
vn -0.4717 0.8706 0.1399
vn -0.5781 0.7832 0.2289
vn -0.1197 0.9734 -0.1952
vn -0.1582 0.9577 -0.2406
vn -0.2984 0.5851 0.7541
vn -0.2891 0.6778 0.6760
vn -0.4183 0.7086 0.5683
vn -0.3549 0.6014 0.7158
vn -0.1186 0.9687 0.2180
vn -0.2107 0.9637 0.1640
vn -0.5302 0.7441 0.4063
vn -0.5672 0.6368 0.5223
vn -0.5616 0.6241 0.5432
vn -0.3944 0.7794 0.4867
vn -0.3496 0.8429 0.4090
vn -0.3252 0.8713 0.3676
vn -0.2589 0.9336 0.2478
vn -0.2098 0.9600 0.1853
vn -0.0192 0.9969 -0.0758
vn -0.1580 0.9801 0.1202
vn -0.5129 0.7792 0.3603
vn -0.3891 0.8995 0.1989
vn -0.4537 0.8496 0.2690
vn -0.3520 0.9223 0.1597
vn -0.2594 0.9648 0.0438
vn 0.7322 -0.5875 -0.3446
vn 0.7464 -0.5768 -0.3319
vn 0.6938 -0.6525 -0.3047
vn 0.6415 -0.6934 -0.3282
vn 0.3442 -0.9379 -0.0422
vn 0.3558 -0.9343 -0.0233
vn 0.2528 -0.9600 0.1200
vn 0.2371 -0.9670 0.0930
vn 0.2624 -0.8312 -0.4901
vn 0.2965 -0.8368 -0.4602
vn 0.2285 -0.9124 -0.3395
vn 0.2062 -0.9096 -0.3607
vn 0.0396 -0.9969 -0.0686
vn 0.0800 -0.9931 -0.0860
vn 0.0357 -0.9994 -0.0014
vn -0.0293 -0.9993 -0.0249
vn 0.0036 -0.9963 -0.0854
vn -0.0557 -0.9979 -0.0344
vn 0.5318 -0.8065 -0.2584
vn 0.5723 -0.7863 -0.2329
vn 0.4692 -0.8714 -0.1435
vn 0.4477 -0.8787 -0.1658
vn 0.2134 -0.9588 0.1874
vn 0.2034 -0.9641 0.1709
vn 0.2903 -0.6428 -0.7089
vn 0.3187 -0.6552 -0.6849
vn 0.3472 -0.7314 -0.5870
vn 0.2881 -0.7106 -0.6419
vn 0.1207 -0.9686 -0.2174
vn 0.1391 -0.9676 -0.2107
vn 0.4290 -0.6955 -0.5764
vn 0.3820 -0.7688 -0.5129
vn 0.6650 -0.6314 -0.3989
vn 0.4847 -0.8318 -0.2704
vn 0.5133 -0.7966 -0.3192
vn 0.4696 -0.8480 -0.2456
vn 0.3316 -0.9414 -0.0612
vn 0.3689 -0.9230 -0.1096
vn 0.1777 -0.9756 0.1288
vn 0.2926 -0.9562 -0.0123
vn 0.3636 -0.7934 -0.4881
vn 0.2767 -0.8947 -0.3508
vn 0.2359 -0.9231 -0.3038
vn 0.2134 -0.9366 -0.2779
vn 0.1012 -0.9868 -0.1268
vn -0.7520 -0.1049 -0.6508
vn -0.6337 -0.0850 -0.7689
vn -0.7486 -0.1043 -0.6548
vn 0.5591 -0.1065 0.8222
vn 0.2833 -0.4549 0.8443
vn 0.2834 -0.4547 0.8443
vn 0.5612 -0.1043 0.8211
vn 0.3066 -0.1279 -0.9432
vn 0.5291 -0.1546 -0.8343
vn 0.3126 -0.1287 -0.9411
vn 0.0713 -0.0941 -0.9930
vn -0.6433 -0.7559 0.1213
vn -0.7893 -0.6123 -0.0453
vn -0.7883 -0.6137 -0.0439
vn 0.7438 -0.1237 -0.6569
vn 0.8831 -0.0445 -0.4671
vn 0.8807 -0.0462 -0.4714
vn 0.1235 -0.6440 0.7550
vn -0.8758 -0.3427 -0.3400
vn -0.8211 -0.1817 -0.5410
vn -0.8219 -0.1833 -0.5393
vn -0.8757 -0.3420 -0.3409
vn 0.9667 0.0358 -0.2532
vn 0.9537 0.1963 -0.2278
vn -0.8770 -0.1440 0.4585
vn -0.6345 -0.2424 0.7339
vn 0.5016 0.7173 -0.4836
vn 0.5226 0.4320 -0.7350
vn -0.7937 -0.4917 0.3581
vn 0.6776 0.0331 0.7347
vn 0.3274 0.2555 -0.9097
vn 0.6339 -0.0045 0.7734
vn 0.5887 -0.0529 0.8066
vn 0.6332 -0.0053 0.7740
vn 0.6755 0.0438 0.7360
vn -0.2089 -0.5771 0.7895
vn 0.6911 0.0949 0.7165
vn 0.6986 0.0926 0.7095
vn 0.6912 0.0949 0.7164
vn -0.2729 -0.3165 0.9085
vn 0.8513 0.1354 0.5070
vn 0.6835 0.0972 0.7235
vn -0.7840 -0.1172 -0.6096
vn -0.8834 -0.2097 -0.4191
vn -0.8563 -0.1734 -0.4865
vn -0.8567 -0.1738 -0.4856
vn 0.6042 0.5621 -0.5648
vn -0.8237 -0.1360 -0.5505
vn -0.8471 -0.1214 -0.5174
vn 0.2815 0.7972 0.5341
vn 0.2996 0.8645 0.4037
vn 0.2083 0.8271 0.5221
vn 0.2318 0.7796 0.5818
vn 0.2359 0.9325 0.2737
vn 0.1211 0.9786 0.1661
vn 0.0175 0.9722 0.2335
vn 0.1319 0.9221 0.3637
vn 0.5782 0.8125 0.0738
vn 0.4092 0.9118 0.0346
vn 0.3348 0.9319 0.1393
vn 0.4784 0.8542 0.2036
vn 0.1907 0.9807 0.0439
vn 0.1688 0.9836 -0.0641
vn 0.0590 0.9954 0.0754
vn 0.1550 0.9763 0.1510
vn 0.2731 0.9599 -0.0633
vn 0.2145 0.9689 -0.1236
vn 0.0107 0.9897 0.1428
vn -0.0335 0.9815 0.1885
vn 0.6569 0.7493 0.0839
vn 0.6113 0.7768 0.1514
vn 0.3484 0.8804 0.3219
vn 0.4233 0.8265 0.3710
vn 0.3144 0.9009 0.2993
vn 0.2060 0.9597 0.1910
vn 0.3798 0.8986 0.2196
vn 0.3133 0.9346 0.1684
vn 0.4559 0.8268 0.3295
vn 0.1115 0.9931 0.0357
vn 0.2735 0.9519 0.1381
vn -0.2357 -0.8264 -0.5114
vn -0.2045 -0.8169 -0.5393
vn -0.1917 -0.8501 -0.4904
vn -0.2480 -0.8744 -0.4170
vn -0.1796 -0.9321 -0.3145
vn -0.1350 -0.9227 -0.3612
vn -0.0476 -0.9613 -0.2715
vn -0.1025 -0.9675 -0.2312
vn -0.5433 -0.8364 -0.0732
vn -0.4825 -0.8628 -0.1509
vn -0.3675 -0.9263 -0.0829
vn -0.4066 -0.9127 -0.0405
vn -0.2590 -0.9657 -0.0189
vn -0.2412 -0.9685 -0.0617
vn -0.1861 -0.9813 -0.0489
vn -0.2528 -0.9670 0.0322
vn -0.3054 -0.9516 0.0335
vn -0.2807 -0.9574 0.0671
vn -0.0132 -0.9680 -0.2504
vn -0.0383 -0.9753 -0.2174
vn -0.6016 -0.7954 -0.0739
vn -0.5708 -0.8128 -0.1161
vn -0.4458 -0.8551 -0.2646
vn -0.4094 -0.8889 -0.2056
vn -0.3940 -0.9010 -0.1814
vn -0.2703 -0.9603 -0.0685
vn -0.2086 -0.9429 -0.2598
vn -0.2585 -0.9201 -0.2941
vn -0.3629 -0.8495 -0.3830
vn -0.0970 -0.9856 -0.1382
vn -0.1806 -0.9537 -0.2403
vn -0.6828 0.0489 0.7289
vn -0.8113 0.0717 0.5802
vn -0.6692 0.0466 0.7416
vn 0.9173 -0.0726 -0.3915
vn 0.9808 -0.1873 0.0542
vn 0.9804 -0.1886 0.0568
vn 0.9365 -0.0739 -0.3428
vn -0.8268 0.0624 -0.5590
vn -0.9690 0.1377 -0.2054
vn 0.4113 -0.2668 0.8715
vn 0.2130 -0.1567 0.9644
vn 0.2126 -0.1565 0.9645
vn -0.6862 0.0569 -0.7252
vn 0.9181 -0.2910 0.2691
vn -0.2238 -0.0370 0.9739
vn -0.4190 -0.0267 0.9076
vn -0.4139 -0.0282 0.9099
vn -0.1757 -0.0378 0.9837
vn -0.3587 0.1159 -0.9262
vn 0.4963 -0.1347 0.8576
vn -0.8322 0.2431 -0.4983
vn -0.4814 0.1697 -0.8599
vn -0.6512 0.3177 -0.6892
vn 0.8803 -0.1023 0.4632
vn -0.4363 -0.0215 0.8995
vn -0.5108 0.0216 0.8594
vn 0.7879 -0.0482 -0.6140
vn 0.8206 -0.0638 -0.5679
vn 0.7936 -0.0509 -0.6063
vn 0.8241 -0.0663 -0.5625
vn 0.9607 -0.1806 0.2106
vn 0.4502 0.0229 -0.8927
vn 0.7587 -0.0352 -0.6505
vn 0.7662 0.4961 -0.4085
vn 0.6361 0.6353 -0.4379
vn 0.7426 0.5759 -0.3419
vn 0.7991 0.4759 -0.3674
vn 0.3045 0.9358 -0.1774
vn 0.1571 0.9874 -0.0181
vn 0.2284 0.9709 0.0717
vn 0.3709 0.9243 -0.0905
vn 0.2905 0.7775 -0.5578
vn 0.2330 0.8694 -0.4357
vn 0.3386 0.8685 -0.3621
vn 0.4043 0.7856 -0.4684
vn 0.0938 0.9922 -0.0820
vn -0.0351 0.9987 -0.0366
vn 0.0974 0.9941 0.0481
vn 0.2186 0.9735 -0.0669
vn -0.0047 0.9891 -0.1469
vn -0.0875 0.9937 -0.0701
vn 0.5029 0.7738 -0.3850
vn 0.4102 0.8639 -0.2923
vn 0.4900 0.8492 -0.1969
vn 0.5995 0.7528 -0.2716
vn 0.1229 0.9865 0.1084
vn 0.1588 0.9747 0.1570
vn 0.3440 0.5083 -0.7895
vn 0.3321 0.6080 -0.7211
vn 0.4561 0.6477 -0.6103
vn 0.3988 0.5277 -0.7500
vn 0.1426 0.9426 -0.3020
vn 0.2318 0.9419 -0.2431
vn 0.5602 0.6976 -0.4468
vn 0.6015 0.5794 -0.5500
vn 0.5968 0.5648 -0.5700
vn 0.4291 0.7263 -0.5371
vn 0.3813 0.7972 -0.4681
vn 0.3552 0.8296 -0.4309
vn 0.2838 0.9035 -0.3210
vn 0.2319 0.9362 -0.2640
vn 0.0290 0.9994 -0.0177
vn 0.1772 0.9628 -0.2038
vn 0.5410 0.7370 -0.4052
vn 0.4108 0.8731 -0.2625
vn 0.4782 0.8162 -0.3242
vn 0.3722 0.8998 -0.2276
vn 0.2744 0.9540 -0.1212
vn -0.7566 -0.5457 0.3602
vn -0.7700 -0.5361 0.3458
vn -0.7172 -0.6145 0.3287
vn -0.6666 -0.6534 0.3586
vn -0.3587 -0.9266 0.1127
vn -0.3692 -0.9247 0.0929
vn -0.2595 -0.9648 -0.0418
vn -0.2452 -0.9694 -0.0135
vn -0.2982 -0.7786 0.5521
vn -0.3308 -0.7868 0.5212
vn -0.2578 -0.8740 0.4118
vn -0.2366 -0.8694 0.4338
vn -0.0566 -0.9855 0.1602
vn -0.0977 -0.9797 0.1751
vn -0.0493 -0.9944 0.0938
vn 0.0144 -0.9926 0.1205
vn -0.0214 -0.9837 0.1787
vn 0.0403 -0.9905 0.1312
vn -0.5551 -0.7736 0.3056
vn -0.5940 -0.7556 0.2761
vn -0.4876 -0.8497 0.2006
vn -0.4674 -0.8550 0.2246
vn -0.2167 -0.9704 -0.1069
vn -0.2076 -0.9741 -0.0895
vn -0.3345 -0.5700 0.7505
vn -0.3618 -0.5845 0.7263
vn -0.3863 -0.6693 0.6347
vn -0.3298 -0.6439 0.6903
vn -0.1447 -0.9425 0.3013
vn -0.1627 -0.9420 0.2935
vn -0.4670 -0.6339 0.6165
vn -0.4178 -0.7132 0.5628
vn -0.6928 -0.5849 0.4218
vn -0.5090 -0.7981 0.3223
vn -0.5396 -0.7582 0.3660
vn -0.4929 -0.8168 0.2999
vn -0.3470 -0.9284 0.1326
vn -0.3865 -0.9052 0.1769
vn -0.1842 -0.9818 -0.0452
vn -0.3058 -0.9481 0.0873
vn -0.3985 -0.7403 0.5414
vn -0.3062 -0.8549 0.4188
vn -0.2634 -0.8880 0.3769
vn -0.2399 -0.9041 0.3536
vn -0.1209 -0.9693 0.2139
vn 0.7166 -0.0492 0.6957
vn 0.5928 -0.0172 0.8051
vn 0.7131 -0.0482 0.6994
vn -0.5182 -0.1792 -0.8363
vn -0.2464 -0.5304 -0.8111
vn -0.2465 -0.5303 -0.8112
vn -0.5203 -0.1769 -0.8355
vn -0.3556 -0.0351 0.9340
vn -0.5727 -0.0701 0.8168
vn -0.3615 -0.0360 0.9317
vn -0.1226 0.0012 0.9925
vn 0.6383 -0.7696 -0.0160
vn 0.7776 -0.6122 0.1436
vn 0.7766 -0.6137 0.1422
vn -0.7777 -0.0543 0.6263
vn -0.9061 0.0078 0.4230
vn -0.9040 0.0065 0.4275
vn -0.0940 -0.7117 -0.6962
vn 0.8527 -0.3165 0.4156
vn 0.7902 -0.1367 0.5974
vn 0.7911 -0.1385 0.5959
vn 0.8526 -0.3158 0.4164
vn -0.9777 0.0681 0.1985
vn -0.9613 0.2253 0.1587
vn 0.8970 -0.1946 -0.3970
vn 0.6674 -0.3165 -0.6741
vn -0.5156 0.7643 0.3873
vn -0.5532 0.5044 0.6630
vn 0.8040 -0.5304 -0.2687
vn -0.6391 -0.0308 -0.7685
vn -0.3695 0.3435 0.8634
vn -0.5940 -0.0723 -0.8012
vn -0.5479 -0.1240 -0.8273
vn -0.5933 -0.0731 -0.8017
vn -0.6368 -0.0203 -0.7707
vn 0.2407 -0.6513 -0.7197
vn -0.6526 0.0325 -0.7570
vn -0.6606 0.0310 -0.7501
vn -0.6527 0.0325 -0.7569
vn 0.3141 -0.4036 -0.8593
vn -0.8226 0.0941 -0.5607
vn -0.6447 0.0341 -0.7637
vn 0.7505 -0.0657 0.6576
vn 0.8582 -0.1767 0.4820
vn 0.8282 -0.1339 0.5442
vn 0.8286 -0.1345 0.5434
vn -0.6242 0.6185 0.4773
vn 0.7928 -0.0904 0.6027
vn 0.8181 -0.0792 0.5696
vt 0.608000 0.484087
vt 0.614854 0.473704
vt 0.611294 0.470846
vt 0.603692 0.480472
vt 0.614736 0.473851
vt 0.611057 0.471140
vt 0.599385 0.476858
vt 0.607497 0.468282
vt 0.607615 0.468135
vt 0.622807 0.461410
vt 0.620085 0.459194
vt 0.622670 0.461583
vt 0.619811 0.459540
vt 0.617089 0.457324
vt 0.617226 0.457151
vt 0.631582 0.448302
vt 0.629728 0.446691
vt 0.631462 0.448453
vt 0.629488 0.446995
vt 0.627634 0.445385
vt 0.627754 0.445233
vt 0.640097 0.436427
vt 0.639097 0.435445
vt 0.640013 0.436533
vt 0.638928 0.435656
vt 0.637928 0.434674
vt 0.638013 0.434568
vt 0.624258 0.775101
vt 0.625811 0.775667
vt 0.626335 0.776367
vt 0.625610 0.776218
vt 0.629559 0.777031
vt 0.629358 0.777582
vt 0.629275 0.777810
vt 0.635316 0.779126
vt 0.639064 0.780490
vt 0.638212 0.780690
vt 0.635115 0.779677
vt 0.640617 0.781056
vt 0.638863 0.781042
vt 0.635032 0.779906
vt 0.624566 0.774255
vt 0.626319 0.774269
vt 0.626970 0.774620
vt 0.626119 0.774820
vt 0.630151 0.775405
vt 0.630068 0.775633
vt 0.629867 0.776184
vt 0.640925 0.780209
vt 0.639372 0.779644
vt 0.638848 0.778943
vt 0.639573 0.779093
vt 0.635624 0.778280
vt 0.635824 0.777728
vt 0.635908 0.777500
vt 0.646452 0.872544
vt 0.646828 0.872444
vt 0.644742 0.872991
vt 0.642956 0.872341
vt 0.632639 0.866477
vt 0.623516 0.862906
vt 0.619899 0.863949
vt 0.629805 0.867554
vt 0.642051 0.872011
vt 0.637492 0.870352
vt 0.638659 0.872679
vt 0.643095 0.874023
vt 0.621871 0.866983
vt 0.603024 0.859393
vt 0.608923 0.863262
vt 0.624441 0.869539
vt 0.601043 0.857086
vt 0.644158 0.871207
vt 0.639871 0.869250
vt 0.604039 0.856592
vt 0.645997 0.874675
vt 0.645760 0.874434
vt 0.631296 0.870277
vt 0.643521 0.875457
vt 0.646085 0.875651
vt 0.647510 0.871834
vt 0.646506 0.871155
vt 0.646023 0.870818
vt 0.643123 0.869175
vt 0.639422 0.867604
vt 0.637983 0.866943
vt 0.633359 0.865114
vt 0.625944 0.862371
vt 0.611030 0.857416
vt 0.628424 0.863162
vt 0.641328 0.874696
vt 0.636256 0.873452
vt 0.640339 0.874525
vt 0.631753 0.871953
vt 0.629742 0.871284
vt 0.641615 0.870586
vt 0.638189 0.870606
vt 0.638003 0.870538
vt 0.640441 0.869910
vt 0.627286 0.864432
vt 0.624454 0.865607
vt 0.615452 0.862330
vt 0.619113 0.861197
vt 0.635606 0.869666
vt 0.636723 0.871846
vt 0.632610 0.870579
vt 0.631473 0.868161
vt 0.617350 0.865425
vt 0.620743 0.868210
vt 0.606103 0.862246
vt 0.600391 0.858534
vt 0.598699 0.856233
vt 0.637785 0.868770
vt 0.633970 0.866981
vt 0.601477 0.855557
vt 0.640795 0.872819
vt 0.639292 0.872395
vt 0.625966 0.868454
vt 0.640946 0.873813
vt 0.638392 0.873609
vt 0.642402 0.869923
vt 0.641811 0.869418
vt 0.638185 0.867366
vt 0.641199 0.869056
vt 0.635199 0.866063
vt 0.629079 0.863540
vt 0.633798 0.865410
vt 0.608242 0.856386
vt 0.622800 0.861207
vt 0.624734 0.861809
vt 0.636875 0.873078
vt 0.635730 0.872856
vt 0.631669 0.871796
vt 0.627748 0.870502
vt 0.626046 0.869945
vt 0.625284 0.860916
vt 0.613734 0.856097
vt 0.609156 0.852717
vt 0.623875 0.858784
vt 0.632184 0.860580
vt 0.636871 0.862431
vt 0.634998 0.860510
vt 0.628920 0.858297
vt 0.634446 0.862298
vt 0.621705 0.855685
vt 0.632969 0.859781
vt 0.635725 0.858900
vt 0.637888 0.859624
vt 0.625363 0.854705
vt 0.610184 0.849892
vt 0.615864 0.850246
vt 0.627805 0.853975
vt 0.607231 0.850417
vt 0.632892 0.858662
vt 0.634953 0.856967
vt 0.634346 0.862460
vt 0.635755 0.863696
vt 0.631549 0.862882
vt 0.633094 0.863234
vt 0.637419 0.858391
vt 0.637350 0.858710
vt 0.635835 0.858675
vt 0.620571 0.859232
vt 0.617882 0.856706
vt 0.605146 0.851352
vt 0.609668 0.854628
vt 0.627322 0.859007
vt 0.624300 0.856644
vt 0.628205 0.858064
vt 0.630100 0.860131
vt 0.627989 0.860112
vt 0.626349 0.857379
vt 0.615717 0.853506
vt 0.631811 0.857220
vt 0.629175 0.856386
vt 0.619429 0.852446
vt 0.623102 0.852235
vt 0.611804 0.848757
vt 0.606234 0.848360
vt 0.603310 0.848990
vt 0.628094 0.856744
vt 0.629867 0.855083
vt 0.629225 0.860628
vt 0.630432 0.861789
vt 0.626806 0.861186
vt 0.628489 0.861572
vt 0.632300 0.856503
vt 0.630740 0.856754
vt 0.632559 0.856924
vt 0.647027 0.873858
vt 0.639623 0.875543
vt 0.638374 0.874451
vt 0.645108 0.872281
vt 0.631530 0.875638
vt 0.619583 0.874641
vt 0.613942 0.873194
vt 0.629309 0.874637
vt 0.630731 0.875606
vt 0.640240 0.875480
vt 0.617090 0.874331
vt 0.602337 0.871822
vt 0.607191 0.872641
vt 0.619489 0.874447
vt 0.599103 0.870551
vt 0.602341 0.871823
vt 0.647027 0.873856
vt 0.637951 0.875388
vt 0.644304 0.874577
vt 0.630886 0.875317
vt 0.627945 0.875207
vt 0.636506 0.875407
vt 0.629689 0.875346
vt 0.644331 0.874587
vt 0.639213 0.875196
vt 0.617516 0.874157
vt 0.607202 0.872648
vt 0.621282 0.874612
vt 0.643060 0.872219
vt 0.641137 0.870668
vt 0.632914 0.872095
vt 0.634526 0.873344
vt 0.626382 0.873300
vt 0.624143 0.872279
vt 0.609134 0.870871
vt 0.614978 0.872436
vt 0.634871 0.873163
vt 0.625815 0.873366
vt 0.612316 0.872023
vt 0.615746 0.872664
vt 0.603808 0.870960
vt 0.599007 0.870158
vt 0.595865 0.868867
vt 0.599007 0.870158
vt 0.643070 0.872225
vt 0.640070 0.872790
vt 0.633730 0.873541
vt 0.627208 0.873666
vt 0.624268 0.873498
vt 0.625681 0.873512
vt 0.632550 0.873652
vt 0.640088 0.872800
vt 0.635408 0.873562
vt 0.603824 0.870968
vt 0.614162 0.872527
vt 0.617704 0.872932
vt 0.642184 0.878875
vt 0.643865 0.875476
vt 0.642301 0.875324
vt 0.638982 0.878429
vt 0.631276 0.865259
vt 0.622638 0.860404
vt 0.620198 0.859608
vt 0.629474 0.864743
vt 0.640321 0.872609
vt 0.636432 0.869313
vt 0.638603 0.870019
vt 0.642277 0.873103
vt 0.623342 0.860789
vt 0.604867 0.851994
vt 0.611403 0.855053
vt 0.626480 0.862666
vt 0.602023 0.851107
vt 0.641727 0.872823
vt 0.637881 0.869620
vt 0.604294 0.851684
vt 0.644299 0.875727
vt 0.642566 0.879080
vt 0.632079 0.865696
vt 0.643020 0.874322
vt 0.644064 0.877911
vt 0.643316 0.877505
vt 0.642884 0.875287
vt 0.642522 0.874582
vt 0.640006 0.871745
vt 0.636665 0.869197
vt 0.635340 0.868200
vt 0.631100 0.865374
vt 0.624158 0.861465
vt 0.610199 0.854399
vt 0.626435 0.862699
vt 0.641220 0.872618
vt 0.637148 0.869201
vt 0.640507 0.871858
vt 0.633119 0.866607
vt 0.631306 0.865486
vt 0.637272 0.877021
vt 0.634260 0.876588
vt 0.635517 0.872990
vt 0.637319 0.873247
vt 0.625636 0.863882
vt 0.623879 0.863399
vt 0.615450 0.858731
vt 0.617887 0.859507
vt 0.633753 0.870570
vt 0.635857 0.871115
vt 0.632426 0.868285
vt 0.630232 0.867576
vt 0.618569 0.859895
vt 0.622579 0.861845
vt 0.608350 0.854617
vt 0.602031 0.851679
vt 0.599408 0.850916
vt 0.635174 0.870786
vt 0.631743 0.867885
vt 0.601428 0.851352
vt 0.637719 0.877267
vt 0.637621 0.873459
vt 0.626572 0.864365
vt 0.638930 0.876081
vt 0.637834 0.872630
vt 0.638179 0.875648
vt 0.638144 0.873652
vt 0.634956 0.870213
vt 0.637629 0.872995
vt 0.632326 0.867945
vt 0.626627 0.864272
vt 0.631004 0.867038
vt 0.607163 0.853973
vt 0.620811 0.860793
vt 0.622550 0.861823
vt 0.636690 0.871196
vt 0.635788 0.870467
vt 0.632419 0.867904
vt 0.628965 0.865531
vt 0.627435 0.864582
vt 0.602789 0.855255
vt 0.600049 0.856144
vt 0.599382 0.858171
vt 0.600713 0.855703
vt 0.637350 0.879201
vt 0.620759 0.867427
vt 0.622857 0.870311
vt 0.641468 0.883512
vt 0.608977 0.859487
vt 0.601463 0.858785
vt 0.610018 0.862319
vt 0.607867 0.862220
vt 0.618596 0.868867
vt 0.599296 0.858920
vt 0.598400 0.860398
vt 0.598017 0.860759
vt 0.600392 0.860736
vt 0.600281 0.860628
vt 0.636651 0.880693
vt 0.606629 0.863130
vt 0.630165 0.873095
vt 0.618015 0.864250
vt 0.607531 0.857507
vt 0.610172 0.859147
vt 0.614507 0.867306
vt 0.619735 0.870390
vt 0.628796 0.876063
vt 0.606891 0.858743
vt 0.606175 0.860238
vt 0.603520 0.861495
vt 0.604105 0.859505
vt 0.639859 0.881522
vt 0.643688 0.885762
vt 0.626966 0.874184
vt 0.624917 0.871196
vt 0.613776 0.863617
vt 0.614977 0.866731
vt 0.606913 0.863410
vt 0.622347 0.872586
vt 0.612727 0.866686
vt 0.604696 0.863597
vt 0.604469 0.864263
vt 0.602066 0.864134
vt 0.602481 0.863855
vt 0.604490 0.864073
vt 0.639122 0.883330
vt 0.610553 0.866631
vt 0.633029 0.875851
vt 0.621506 0.867452
vt 0.611334 0.860808
vt 0.613508 0.862133
vt 0.617999 0.870524
vt 0.631610 0.878877
vt 0.622635 0.873181
vt 0.635796 0.880705
vt 0.619228 0.868572
vt 0.622803 0.870385
vt 0.641043 0.884191
vt 0.602119 0.858821
vt 0.599049 0.858196
vt 0.602761 0.859411
vt 0.605496 0.859889
vt 0.615925 0.865706
vt 0.610337 0.862275
vt 0.610882 0.860801
vt 0.615788 0.863986
vt 0.603749 0.857770
vt 0.603172 0.860944
vt 0.604582 0.859531
vt 0.606778 0.858169
vt 0.603475 0.862893
vt 0.612630 0.864333
vt 0.606942 0.861139
vt 0.599973 0.861239
vt 0.621843 0.868382
vt 0.637950 0.880502
vt 0.606460 0.858426
vt 0.620378 0.866183
vt 0.631680 0.874822
vt 0.627309 0.875223
vt 0.619186 0.869636
vt 0.616962 0.868206
vt 0.610041 0.864050
vt 0.606124 0.861925
vt 0.604577 0.861126
vt 0.601325 0.859568
vt 0.598985 0.859033
vt 0.597901 0.860142
vt 0.599441 0.859083
vt 0.617132 0.864086
vt 0.611992 0.860531
vt 0.615685 0.862999
vt 0.609526 0.859283
vt 0.608599 0.858854
vt 0.637523 0.882920
vt 0.642655 0.886133
vt 0.626331 0.874056
vt 0.622522 0.872201
vt 0.607150 0.863476
vt 0.610663 0.864558
vt 0.608172 0.864120
vt 0.604287 0.862864
vt 0.620198 0.869883
vt 0.620121 0.868069
vt 0.615714 0.865241
vt 0.615100 0.866750
vt 0.609225 0.862460
vt 0.610849 0.861752
vt 0.608567 0.862918
vt 0.607310 0.864336
vt 0.607593 0.866314
vt 0.616770 0.868506
vt 0.611480 0.865537
vt 0.603907 0.864649
vt 0.640087 0.882693
vt 0.625583 0.872063
vt 0.611632 0.862992
vt 0.634133 0.877417
vt 0.623452 0.869249
vt 0.629582 0.877755
vt 0.621609 0.872193
vt 0.613453 0.867364
vt 0.619876 0.871128
vt 0.609315 0.864957
vt 0.605335 0.863226
vt 0.608108 0.864408
vt 0.601869 0.863535
vt 0.602568 0.862201
vt 0.603244 0.862490
vt 0.620021 0.866923
vt 0.619052 0.866210
vt 0.615748 0.864022
vt 0.613070 0.862531
vt 0.612280 0.862157
vt 0.625546 0.884325
vt 0.615058 0.872686
vt 0.618690 0.874635
vt 0.630409 0.887717
vt 0.609829 0.866256
vt 0.606237 0.860709
vt 0.608895 0.859751
vt 0.612717 0.866786
vt 0.610708 0.863098
vt 0.616476 0.871619
vt 0.607394 0.856621
vt 0.607528 0.854371
vt 0.607986 0.854109
vt 0.608907 0.856992
vt 0.609687 0.857420
vt 0.606518 0.856525
vt 0.626219 0.882902
vt 0.616008 0.868971
vt 0.622403 0.877402
vt 0.612294 0.863269
vt 0.611029 0.861202
vt 0.613203 0.871814
vt 0.609263 0.866978
vt 0.620998 0.880353
vt 0.615650 0.874477
vt 0.606318 0.861751
vt 0.605851 0.858618
vt 0.606877 0.863146
vt 0.629014 0.887211
vt 0.633872 0.890320
vt 0.623942 0.878713
vt 0.619878 0.876663
vt 0.615151 0.870621
vt 0.618146 0.871101
vt 0.614411 0.864229
vt 0.611394 0.865043
vt 0.621707 0.875491
vt 0.615924 0.867065
vt 0.612917 0.860986
vt 0.613111 0.860374
vt 0.612035 0.857415
vt 0.611593 0.857564
vt 0.613829 0.860860
vt 0.610487 0.859927
vt 0.629841 0.885401
vt 0.626341 0.880397
vt 0.620166 0.872204
vt 0.616064 0.866237
vt 0.615008 0.864370
vt 0.613491 0.870357
vt 0.617174 0.874950
vt 0.624905 0.883394
vt 0.619275 0.877304
vt 0.609891 0.861949
vt 0.610194 0.864917
vt 0.610802 0.866314
vt 0.633560 0.887991
vt 0.617877 0.872998
vt 0.619976 0.875886
vt 0.637658 0.892291
vt 0.603527 0.856174
vt 0.601620 0.852532
vt 0.602760 0.855267
vt 0.604571 0.858710
vt 0.613586 0.869374
vt 0.608590 0.863854
vt 0.606820 0.864230
vt 0.611483 0.869151
vt 0.600869 0.856072
vt 0.602714 0.853814
vt 0.601593 0.855456
vt 0.601697 0.858876
vt 0.605003 0.854092
vt 0.612060 0.866775
vt 0.607404 0.861239
vt 0.603219 0.851392
vt 0.617531 0.874985
vt 0.633213 0.889620
vt 0.602855 0.859465
vt 0.614382 0.873208
vt 0.625889 0.883818
vt 0.626580 0.880514
vt 0.619217 0.873072
vt 0.617305 0.871024
vt 0.611569 0.864524
vt 0.608369 0.860633
vt 0.607159 0.859105
vt 0.604583 0.855720
vt 0.602996 0.852881
vt 0.602639 0.850396
vt 0.603359 0.853550
vt 0.611400 0.870041
vt 0.606180 0.864805
vt 0.609871 0.868606
vt 0.604020 0.862111
vt 0.603223 0.861066
vt 0.635849 0.889116
vt 0.639601 0.893294
vt 0.623924 0.878440
vt 0.621813 0.875400
vt 0.608918 0.860240
vt 0.609980 0.862889
vt 0.608328 0.859754
vt 0.607140 0.856879
vt 0.618226 0.872634
vt 0.616009 0.872455
vt 0.611847 0.868024
vt 0.613666 0.867601
vt 0.606405 0.860601
vt 0.605896 0.862216
vt 0.605645 0.858803
vt 0.606795 0.857307
vt 0.609155 0.857607
vt 0.616702 0.869936
vt 0.612394 0.864808
vt 0.607331 0.854732
vt 0.635456 0.891059
vt 0.621495 0.877716
vt 0.608132 0.863636
vt 0.628635 0.885547
vt 0.617739 0.875503
vt 0.629248 0.882092
vt 0.621967 0.874824
vt 0.615270 0.867149
vt 0.620512 0.873206
vt 0.611790 0.863126
vt 0.608810 0.858952
vt 0.610910 0.861911
vt 0.606702 0.853735
vt 0.606724 0.855837
vt 0.607332 0.856650
vt 0.614541 0.872236
vt 0.613479 0.871220
vt 0.610154 0.867773
vt 0.607749 0.864943
vt 0.607059 0.864053
s 1
f 1/1/1 7/2/2 12/3/3 6/4/4
f 2/1/5 8/5/6 7/2/2 1/1/1
f 3/4/7 9/6/8 8/5/6 2/1/5
f 4/7/9 10/8/10 9/6/8 3/4/7
f 5/7/11 11/9/12 10/8/10 4/7/9
f 6/4/4 12/3/3 11/9/12 5/7/11
f 7/2/2 13/10/13 18/11/14 12/3/3
f 8/5/6 14/12/15 13/10/13 7/2/2
f 9/6/8 15/13/16 14/12/15 8/5/6
f 10/8/10 16/14/17 15/13/16 9/6/8
f 11/9/12 17/15/18 16/14/17 10/8/10
f 12/3/3 18/11/14 17/15/18 11/9/12
f 13/10/13 19/16/19 24/17/20 18/11/14
f 14/12/15 20/18/21 19/16/19 13/10/13
f 15/13/16 21/19/22 20/18/21 14/12/15
f 16/14/17 22/20/23 21/19/22 15/13/16
f 17/15/18 23/21/24 22/20/23 16/14/17
f 18/11/14 24/17/20 23/21/24 17/15/18
f 19/16/19 25/22/25 30/23/26 24/17/20
f 20/18/21 26/24/27 25/22/25 19/16/19
f 21/19/22 27/25/28 26/24/27 20/18/21
f 22/20/23 28/26/29 27/25/28 21/19/22
f 23/21/24 29/27/30 28/26/29 22/20/23
f 24/17/20 30/23/26 29/27/30 23/21/24
f 31/28/31 34/29/32 35/30/33 37/31/34
f 32/32/35 36/33/36 35/30/33 34/29/32
f 33/34/37 37/31/34 35/30/33 36/33/36
f 38/35/38 41/36/39 42/37/40 44/38/41
f 39/39/42 43/40/43 42/37/40 41/36/39
f 40/41/44 44/38/41 42/37/40 43/40/43
f 45/28/45 48/31/46 49/30/47 51/29/48
f 46/34/49 50/33/50 49/30/47 48/31/46
f 47/32/51 51/29/48 49/30/47 50/33/50
f 52/39/52 55/36/53 56/37/54 58/40/55
f 53/35/56 57/38/57 56/37/54 55/36/53
f 54/41/58 58/40/55 56/37/54 57/38/57
f 59/42/59 62/43/60 63/44/61 65/45/62
f 60/46/63 64/47/64 63/44/61 62/43/60
f 61/48/65 65/45/62 63/44/61 64/47/64
f 66/49/66 69/50/67 70/51/68 72/52/69
f 67/53/70 71/54/71 70/51/68 69/50/67
f 68/55/72 72/52/69 70/51/68 71/54/71
f 73/42/73 76/45/74 77/44/75 79/43/76
f 74/48/77 78/47/78 77/44/75 76/45/74
f 75/46/79 79/43/76 77/44/75 78/47/78
f 80/49/80 83/52/81 84/51/82 86/50/83
f 81/55/84 85/54/85 84/51/82 83/52/81
f 82/53/86 86/50/83 84/51/82 85/54/85
f 45/28/45 31/28/31 37/31/34 48/31/46
f 48/31/46 37/31/34 33/34/37 46/34/49
f 32/32/35 38/35/38 44/38/41 36/33/36
f 36/33/36 44/38/41 40/41/44 33/34/37
f 39/39/42 52/39/52 58/40/55 43/40/43
f 43/40/43 58/40/55 54/41/58 40/41/44
f 53/35/56 47/32/51 50/33/50 57/38/57
f 57/38/57 50/33/50 46/34/49 54/41/58
f 73/42/73 45/28/45 51/29/48 76/45/74
f 76/45/74 51/29/48 47/32/51 74/48/77
f 52/39/52 80/49/80 86/50/83 55/36/53
f 55/36/53 86/50/83 82/53/86 53/35/56
f 81/55/84 75/46/79 78/47/78 85/54/85
f 85/54/85 78/47/78 74/48/77 82/53/86
f 59/42/59 73/42/73 79/43/76 62/43/60
f 62/43/60 79/43/76 75/46/79 60/46/63
f 80/49/80 66/49/66 72/52/69 83/52/81
f 83/52/81 72/52/69 68/55/72 81/55/84
f 67/53/70 61/48/65 64/47/64 71/54/71
f 71/54/71 64/47/64 60/46/63 68/55/72
f 31/28/31 59/42/59 65/45/62 34/29/32
f 34/29/32 65/45/62 61/48/65 32/32/35
f 66/49/66 39/39/42 41/36/39 69/50/67
f 69/50/67 41/36/39 38/35/38 67/53/70
f 45/28/45 73/42/73 59/42/59 31/28/31
f 33/34/37 40/41/44 54/41/58 46/34/49
f 61/48/65 67/53/70 38/35/38 32/32/35
f 80/49/80 52/39/52 39/39/42 66/49/66
f 47/32/51 53/35/56 82/53/86 74/48/77
f 75/46/79 81/55/84 68/55/72 60/46/63
f 101/56/87 105/57/88 106/58/89 91/59/90
f 115/60/91 103/61/92 108/62/93 116/63/94
f 112/64/95 107/65/96 93/66/97 110/67/98
f 94/68/99 99/69/100 89/70/101 97/71/102
f 108/62/103 92/72/104 99/69/100 94/68/99
f 111/73/105 104/74/106 107/65/107 112/64/108
f 103/61/92 100/75/109 92/72/110 108/62/93
f 91/59/111 106/58/112 102/76/113 98/77/114
f 116/63/115 108/62/103 94/68/99 114/78/116
f 98/77/114 102/76/113 95/79/117 87/80/118
f 105/57/88 111/73/105 112/64/108 106/58/89
f 106/58/112 112/64/95 110/67/98 102/76/113
f 107/65/96 116/63/115 114/78/116 93/66/97
f 104/74/106 115/60/91 116/63/94 107/65/107
f 88/81/119 118/82/119 105/57/88 101/56/87
f 105/57/88 117/83/120 109/84/121 111/73/105
f 109/84/121 120/85/122 104/74/106 111/73/105
f 104/74/106 119/86/123 113/87/124 115/60/91
f 103/61/92 121/88/125 90/89/125 100/75/109
f 113/87/124 122/90/126 103/61/92 115/60/91
f 102/76/113 110/67/98 123/91/127 95/79/117
f 110/67/98 93/66/97 96/92/128 124/93/129
f 93/66/97 114/78/116 125/94/130 96/92/128
f 114/78/116 94/68/99 97/71/102 126/95/131
f 141/96/132 131/97/133 146/98/134 145/99/135
f 155/100/136 156/101/137 148/102/138 143/103/139
f 152/104/140 150/105/141 133/106/142 147/107/143
f 134/108/144 137/109/145 129/110/146 139/111/147
f 148/102/148 134/108/144 139/111/147 132/112/149
f 151/113/150 152/104/151 147/107/152 144/114/153
f 143/103/139 148/102/138 132/112/154 140/115/155
f 131/97/156 138/116/157 142/117/158 146/98/159
f 156/101/160 154/118/161 134/108/144 148/102/148
f 138/116/157 127/119/162 135/120/163 142/117/158
f 145/99/135 146/98/134 152/104/151 151/113/150
f 146/98/159 142/117/158 150/105/141 152/104/140
f 147/107/143 133/106/142 154/118/161 156/101/160
f 144/114/153 147/107/152 156/101/137 155/100/136
f 128/121/164 141/96/132 145/99/135 158/122/164
f 145/99/135 151/113/150 149/123/165 157/124/166
f 149/123/165 151/113/150 144/114/153 160/125/167
f 144/114/153 155/100/136 153/126/168 159/127/169
f 143/103/139 140/115/155 130/128/170 161/129/170
f 153/126/168 155/100/136 143/103/139 162/130/171
f 142/117/158 135/120/163 163/131/172 150/105/141
f 150/105/141 164/132/173 136/133/174 133/106/142
f 133/106/142 136/133/174 165/134/175 154/118/161
f 154/118/161 166/135/176 137/109/145 134/108/144
f 97/71/177 89/70/178 129/110/178 137/109/179
f 88/81/180 101/56/181 141/96/182 128/121/183
f 99/69/184 92/72/185 132/112/185 139/111/186
f 89/70/187 99/69/184 139/111/186 129/110/187
f 91/59/188 98/77/189 138/116/190 131/97/188
f 92/72/191 100/75/192 140/115/193 132/112/191
f 101/56/181 91/59/194 131/97/194 141/96/182
f 87/80/195 95/79/196 135/120/197 127/119/198
f 98/77/189 87/80/195 127/119/198 138/116/190
f 100/75/192 90/89/199 130/128/199 140/115/193
f 103/61/200 122/90/200 162/130/200 143/103/200
f 121/88/201 103/61/201 143/103/201 161/129/201
f 114/78/202 126/95/202 166/135/202 154/118/202
f 105/57/203 118/82/203 158/122/203 145/99/203
f 104/74/204 120/85/204 160/125/204 144/114/204
f 110/67/205 124/93/205 164/132/205 150/105/205
f 118/82/206 88/81/180 128/121/183 158/122/206
f 125/94/207 114/78/207 154/118/207 165/134/207
f 109/84/208 117/83/209 157/124/209 149/123/210
f 120/85/211 109/84/208 149/123/210 160/125/211
f 117/83/212 105/57/212 145/99/212 157/124/212
f 113/87/213 119/86/214 159/127/214 153/126/215
f 119/86/216 104/74/216 144/114/216 159/127/216
f 90/89/217 121/88/217 161/129/217 130/128/217
f 122/90/218 113/87/213 153/126/215 162/130/218
f 95/79/196 123/91/219 163/131/219 135/120/197
f 124/93/220 96/92/221 136/133/222 164/132/220
f 123/91/223 110/67/223 150/105/223 163/131/223
f 96/92/221 125/94/224 165/134/224 136/133/222
f 126/95/225 97/71/177 137/109/179 166/135/225
f 183/136/226 170/137/227 179/138/228 184/139/229
f 180/140/230 186/141/231 187/142/232 171/143/233
f 185/144/234 184/139/229 189/145/235 188/146/236
f 187/142/237 188/146/238 173/147/239 181/148/240
f 174/149/241 178/150/242 169/151/243 176/152/244
f 189/145/245 172/153/246 178/150/242 174/149/241
f 186/141/231 185/144/234 188/146/236 187/142/232
f 184/139/229 179/138/228 172/153/247 189/145/235
f 171/143/248 187/142/237 181/148/240 177/154/249
f 188/146/238 189/145/245 174/149/241 173/147/239
f 173/147/239 174/149/241 176/152/244 175/155/250
f 168/156/251 182/157/252 186/141/231 180/140/230
f 185/144/234 190/158/253 183/136/226 184/139/229
f 182/157/252 191/159/254 185/144/234 186/141/231
f 181/148/240 173/147/239 175/155/250 193/160/255
f 177/154/249 181/148/240 192/161/256 167/162/256
f 210/163/257 211/164/258 206/165/259 197/166/260
f 207/167/261 198/168/262 214/169/263 213/170/264
f 212/171/265 215/172/266 216/173/267 211/164/258
f 214/169/268 208/174/269 200/175/270 215/172/271
f 201/176/272 203/177/273 196/178/274 205/179/275
f 216/173/276 201/176/272 205/179/275 199/180/277
f 213/170/264 214/169/263 215/172/266 212/171/265
f 211/164/258 216/173/267 199/180/278 206/165/259
f 198/168/279 204/181/280 208/174/269 214/169/268
f 215/172/271 200/175/270 201/176/272 216/173/276
f 200/175/270 202/182/281 203/177/273 201/176/272
f 195/183/282 207/167/261 213/170/264 209/184/283
f 212/171/265 211/164/258 210/163/257 217/185/284
f 209/184/283 213/170/264 212/171/265 218/186/285
f 208/174/269 220/187/286 202/182/281 200/175/270
f 204/181/280 194/188/287 219/189/287 208/174/269
f 176/152/288 169/151/289 196/178/289 203/177/290
f 168/156/291 180/140/292 207/167/293 195/183/294
f 178/150/295 172/153/296 199/180/296 205/179/297
f 169/151/298 178/150/295 205/179/297 196/178/298
f 171/143/299 177/154/300 204/181/301 198/168/299
f 172/153/302 179/138/303 206/165/304 199/180/302
f 180/140/292 171/143/305 198/168/305 207/167/293
f 175/155/306 176/152/288 203/177/290 202/182/307
f 181/148/308 193/160/309 220/187/310 208/174/308
f 177/154/300 167/162/311 194/188/312 204/181/301
f 170/137/313 183/136/314 210/163/315 197/166/313
f 179/138/303 170/137/316 197/166/316 206/165/304
f 185/144/317 191/159/317 218/186/317 212/171/317
f 182/157/318 168/156/291 195/183/294 209/184/319
f 192/161/320 181/148/320 208/174/320 219/189/320
f 190/158/321 185/144/321 212/171/321 217/185/321
f 183/136/314 190/158/322 217/185/322 210/163/315
f 191/159/323 182/157/318 209/184/319 218/186/323
f 193/160/309 175/155/306 202/182/307 220/187/310
f 167/162/311 192/161/324 219/189/324 194/188/312
f 234/190/325 239/191/326 240/192/327 225/193/328
f 238/194/329 237/195/330 242/196/331 241/197/332
f 240/192/333 241/197/334 227/198/335 235/199/336
f 228/200/337 232/201/338 223/202/339 230/203/340
f 242/196/341 226/204/342 232/201/338 228/200/337
f 239/191/326 238/194/329 241/197/332 240/192/327
f 237/195/330 233/205/343 226/204/344 242/196/331
f 225/193/345 240/192/333 235/199/336 231/206/346
f 241/197/334 242/196/341 228/200/337 227/198/335
f 231/206/346 235/199/336 229/207/347 221/208/348
f 235/199/336 227/198/335 243/209/349 229/207/347
f 227/198/335 228/200/337 230/203/340 244/210/350
f 239/191/326 245/211/351 236/212/352 238/194/329
f 222/213/353 246/214/353 239/191/326 234/190/325
f 237/195/330 247/215/354 224/216/354 233/205/343
f 236/212/352 248/217/355 237/195/330 238/194/329
f 262/218/356 253/219/357 268/220/358 267/221/359
f 266/222/360 269/223/361 270/224/362 265/225/363
f 268/220/364 263/226/365 255/227/366 269/223/367
f 256/228/368 258/229/369 251/230/370 260/231/371
f 270/224/372 256/228/368 260/231/371 254/232/373
f 267/221/359 268/220/358 269/223/361 266/222/360
f 265/225/363 270/224/362 254/232/374 261/233/375
f 253/219/376 259/234/377 263/226/365 268/220/364
f 269/223/367 255/227/366 256/228/368 270/224/372
f 259/234/377 249/235/378 257/236/379 263/226/365
f 263/226/365 257/236/379 271/237/380 255/227/366
f 255/227/366 272/238/381 258/229/369 256/228/368
f 267/221/359 266/222/360 264/239/382 273/240/383
f 250/241/384 262/218/356 267/221/359 274/242/384
f 265/225/363 261/233/375 252/243/385 275/244/385
f 264/239/382 266/222/360 265/225/363 276/245/386
f 230/203/387 223/202/388 251/230/388 258/229/389
f 222/213/390 234/190/391 262/218/392 250/241/393
f 232/201/394 226/204/394 254/232/394 260/231/394
f 223/202/395 232/201/395 260/231/395 251/230/395
f 225/193/396 231/206/397 259/234/398 253/219/396
f 226/204/399 233/205/399 261/233/399 254/232/399
f 234/190/391 225/193/400 253/219/400 262/218/392
f 221/208/401 229/207/402 257/236/403 249/235/404
f 231/206/397 221/208/401 249/235/404 259/234/398
f 233/205/405 224/216/405 252/243/405 261/233/405
f 227/198/406 244/210/406 272/238/406 255/227/406
f 243/209/407 227/198/407 255/227/407 271/237/407
f 237/195/408 248/217/408 276/245/408 265/225/408
f 239/191/409 246/214/409 274/242/409 267/221/409
f 247/215/410 237/195/410 265/225/410 275/244/410
f 229/207/402 243/209/411 271/237/411 257/236/403
f 244/210/412 230/203/387 258/229/389 272/238/412
f 236/212/413 245/211/414 273/240/414 264/239/415
f 246/214/416 222/213/390 250/241/393 274/242/416
f 245/211/417 239/191/417 267/221/417 273/240/417
f 224/216/418 247/215/418 275/244/418 252/243/418
f 248/217/419 236/212/413 264/239/415 276/245/419
f 291/246/420 295/247/421 296/248/422 281/249/423
f 305/250/424 293/251/425 298/252/426 306/253/427
f 302/254/428 297/255/429 283/256/430 300/257/431
f 284/258/432 289/259/433 279/260/434 287/261/435
f 298/252/436 282/262/437 289/259/433 284/258/432
f 301/263/438 294/264/439 297/255/440 302/254/441
f 293/251/425 290/265/442 282/262/443 298/252/426
f 281/249/444 296/248/445 292/266/446 288/267/447
f 306/253/448 298/252/436 284/258/432 304/268/449
f 288/267/447 292/266/446 285/269/450 277/270/451
f 295/247/421 301/263/438 302/254/441 296/248/422
f 296/248/445 302/254/428 300/257/431 292/266/446
f 297/255/429 306/253/448 304/268/449 283/256/430
f 294/264/439 305/250/424 306/253/427 297/255/440
f 278/271/452 308/272/452 295/247/421 291/246/420
f 295/247/421 307/273/453 299/274/454 301/263/438
f 299/274/454 310/275/455 294/264/439 301/263/438
f 294/264/439 309/276/456 303/277/457 305/250/424
f 293/251/425 311/278/458 280/279/458 290/265/442
f 303/277/457 312/280/459 293/251/425 305/250/424
f 292/266/446 300/257/431 313/281/460 285/269/450
f 300/257/431 283/256/430 286/282/461 314/283/462
f 283/256/430 304/268/449 315/284/463 286/282/461
f 304/268/449 284/258/432 287/261/435 316/285/464
f 331/286/465 321/287/466 336/288/467 335/289/468
f 345/290/469 346/291/470 338/292/471 333/293/472
f 342/294/473 340/295/474 323/296/475 337/297/476
f 324/298/477 327/299/478 319/300/479 329/301/480
f 338/292/481 324/298/477 329/301/480 322/302/482
f 341/303/483 342/294/484 337/297/485 334/304/486
f 333/293/472 338/292/471 322/302/487 330/305/488
f 321/287/489 328/306/490 332/307/491 336/288/492
f 346/291/493 344/308/494 324/298/477 338/292/481
f 328/306/490 317/309/495 325/310/496 332/307/491
f 335/289/468 336/288/467 342/294/484 341/303/483
f 336/288/492 332/307/491 340/295/474 342/294/473
f 337/297/476 323/296/475 344/308/494 346/291/493
f 334/304/486 337/297/485 346/291/470 345/290/469
f 318/311/497 331/286/465 335/289/468 348/312/497
f 335/289/468 341/303/483 339/313/498 347/314/499
f 339/313/498 341/303/483 334/304/486 350/315/500
f 334/304/486 345/290/469 343/316/501 349/317/502
f 333/293/472 330/305/488 320/318/503 351/319/503
f 343/316/501 345/290/469 333/293/472 352/320/504
f 332/307/491 325/310/496 353/321/505 340/295/474
f 340/295/474 354/322/506 326/323/507 323/296/475
f 323/296/475 326/323/507 355/324/508 344/308/494
f 344/308/494 356/325/509 327/299/478 324/298/477
f 287/261/510 279/260/511 319/300/511 327/299/512
f 278/271/513 291/246/514 331/286/515 318/311/516
f 289/259/517 282/262/518 322/302/518 329/301/519
f 279/260/520 289/259/517 329/301/519 319/300/520
f 281/249/521 288/267/522 328/306/523 321/287/521
f 282/262/524 290/265/525 330/305/526 322/302/524
f 291/246/514 281/249/527 321/287/527 331/286/515
f 277/270/528 285/269/529 325/310/530 317/309/531
f 288/267/522 277/270/528 317/309/531 328/306/523
f 290/265/525 280/279/532 320/318/532 330/305/526
f 293/251/533 312/280/533 352/320/533 333/293/533
f 311/278/534 293/251/534 333/293/534 351/319/534
f 304/268/535 316/285/535 356/325/535 344/308/535
f 295/247/536 308/272/536 348/312/536 335/289/536
f 294/264/537 310/275/537 350/315/537 334/304/537
f 300/257/538 314/283/538 354/322/538 340/295/538
f 308/272/539 278/271/513 318/311/516 348/312/539
f 315/284/540 304/268/540 344/308/540 355/324/540
f 299/274/541 307/273/542 347/314/542 339/313/543
f 310/275/544 299/274/541 339/313/543 350/315/544
f 307/273/545 295/247/545 335/289/545 347/314/545
f 303/277/546 309/276/547 349/317/547 343/316/548
f 309/276/549 294/264/549 334/304/549 349/317/549
f 280/279/550 311/278/550 351/319/550 320/318/550
f 312/280/551 303/277/546 343/316/548 352/320/551
f 285/269/529 313/281/552 353/321/552 325/310/530
f 314/283/553 286/282/554 326/323/555 354/322/553
f 313/281/556 300/257/556 340/295/556 353/321/556
f 286/282/554 315/284/557 355/324/557 326/323/555
f 316/285/558 287/261/510 327/299/512 356/325/558
f 373/326/559 360/327/560 369/328/561 374/329/562
f 370/330/563 376/331/564 377/332/565 361/333/566
f 375/334/567 374/329/562 379/335/568 378/336/569
f 377/332/570 378/336/571 363/337/572 371/338/573
f 364/339/574 368/340/575 359/341/576 366/342/577
f 379/335/578 362/343/579 368/340/575 364/339/574
f 376/331/564 375/334/567 378/336/569 377/332/565
f 374/329/562 369/328/561 362/343/580 379/335/568
f 361/333/581 377/332/570 371/338/573 367/344/582
f 378/336/571 379/335/578 364/339/574 363/337/572
f 363/337/572 364/339/574 366/342/577 365/345/583
f 358/346/584 372/347/585 376/331/564 370/330/563
f 375/334/567 380/348/586 373/326/559 374/329/562
f 372/347/585 381/349/587 375/334/567 376/331/564
f 371/338/573 363/337/572 365/345/583 383/350/588
f 367/344/582 371/338/573 382/351/589 357/352/589
f 400/353/590 401/354/591 396/355/592 387/356/593
f 397/357/594 388/358/595 404/359/596 403/360/597
f 402/361/598 405/362/599 406/363/600 401/354/591
f 404/359/601 398/364/602 390/365/603 405/362/604
f 391/366/605 393/367/606 386/368/607 395/369/608
f 406/363/609 391/366/605 395/369/608 389/370/610
f 403/360/597 404/359/596 405/362/599 402/361/598
f 401/354/591 406/363/600 389/370/611 396/355/592
f 388/358/612 394/371/613 398/364/602 404/359/601
f 405/362/604 390/365/603 391/366/605 406/363/609
f 390/365/603 392/372/614 393/367/606 391/366/605
f 385/373/615 397/357/594 403/360/597 399/374/616
f 402/361/598 401/354/591 400/353/590 407/375/617
f 399/374/616 403/360/597 402/361/598 408/376/618
f 398/364/602 410/377/619 392/372/614 390/365/603
f 394/371/613 384/378/620 409/379/620 398/364/602
f 366/342/621 359/341/622 386/368/622 393/367/623
f 358/346/624 370/330/625 397/357/626 385/373/627
f 368/340/628 362/343/629 389/370/629 395/369/630
f 359/341/631 368/340/628 395/369/630 386/368/631
f 361/333/632 367/344/633 394/371/634 388/358/632
f 362/343/635 369/328/636 396/355/637 389/370/635
f 370/330/625 361/333/638 388/358/638 397/357/626
f 365/345/639 366/342/621 393/367/623 392/372/640
f 371/338/641 383/350/642 410/377/643 398/364/641
f 367/344/633 357/352/644 384/378/645 394/371/634
f 360/327/646 373/326/647 400/353/648 387/356/646
f 369/328/636 360/327/649 387/356/649 396/355/637
f 375/334/650 381/349/650 408/376/650 402/361/650
f 372/347/651 358/346/624 385/373/627 399/374/652
f 382/351/653 371/338/653 398/364/653 409/379/653
f 380/348/654 375/334/654 402/361/654 407/375/654
f 373/326/647 380/348/655 407/375/655 400/353/648
f 381/349/656 372/347/651 399/374/652 408/376/656
f 383/350/642 365/345/639 392/372/640 410/377/643
f 357/352/644 382/351/657 409/379/657 384/378/645
f 425/380/658 429/381/659 430/382/660 415/383/661
f 439/384/662 427/385/663 432/386/664 440/387/665
f 436/388/666 431/389/667 417/390/668 434/391/669
f 418/392/670 423/393/671 413/394/672 421/395/673
f 432/386/674 416/396/675 423/393/671 418/392/670
f 435/397/676 428/398/677 431/389/678 436/388/679
f 427/385/663 424/399/680 416/396/681 432/386/664
f 415/383/682 430/382/683 426/400/684 422/401/685
f 440/387/686 432/386/674 418/392/670 438/402/687
f 422/401/685 426/400/684 419/403/688 411/404/689
f 429/381/659 435/397/676 436/388/679 430/382/660
f 430/382/683 436/388/666 434/391/669 426/400/684
f 431/389/667 440/387/686 438/402/687 417/390/668
f 428/398/677 439/384/662 440/387/665 431/389/678
f 412/405/690 442/406/690 429/381/659 425/380/658
f 429/381/659 441/407/691 433/408/692 435/397/676
f 433/408/692 444/409/693 428/398/677 435/397/676
f 428/398/677 443/410/694 437/411/695 439/384/662
f 427/385/663 445/412/696 414/413/696 424/399/680
f 437/411/695 446/414/697 427/385/663 439/384/662
f 426/400/684 434/391/669 447/415/698 419/403/688
f 434/391/669 417/390/668 420/416/699 448/417/700
f 417/390/668 438/402/687 449/418/701 420/416/699
f 438/402/687 418/392/670 421/395/673 450/419/702
f 465/420/703 455/421/704 470/422/705 469/423/706
f 479/424/707 480/425/708 472/426/709 467/427/710
f 476/428/711 474/429/712 457/430/713 471/431/714
f 458/432/715 461/433/716 453/434/717 463/435/718
f 472/426/719 458/432/715 463/435/718 456/436/720
f 475/437/721 476/428/722 471/431/723 468/438/724
f 467/427/710 472/426/709 456/436/725 464/439/726
f 455/421/727 462/440/728 466/441/729 470/422/730
f 480/425/731 478/442/732 458/432/715 472/426/719
f 462/440/728 451/443/733 459/444/734 466/441/729
f 469/423/706 470/422/705 476/428/722 475/437/721
f 470/422/730 466/441/729 474/429/712 476/428/711
f 471/431/714 457/430/713 478/442/732 480/425/731
f 468/438/724 471/431/723 480/425/708 479/424/707
f 452/445/735 465/420/703 469/423/706 482/446/735
f 469/423/706 475/437/721 473/447/736 481/448/737
f 473/447/736 475/437/721 468/438/724 484/449/738
f 468/438/724 479/424/707 477/450/739 483/451/740
f 467/427/710 464/439/726 454/452/741 485/453/741
f 477/450/739 479/424/707 467/427/710 486/454/742
f 466/441/729 459/444/734 487/455/743 474/429/712
f 474/429/712 488/456/744 460/457/745 457/430/713
f 457/430/713 460/457/745 489/458/746 478/442/732
f 478/442/732 490/459/747 461/433/716 458/432/715
f 421/395/748 413/394/749 453/434/749 461/433/750
f 412/405/751 425/380/752 465/420/753 452/445/754
f 423/393/755 416/396/756 456/436/756 463/435/757
f 413/394/758 423/393/755 463/435/757 453/434/758
f 415/383/759 422/401/760 462/440/761 455/421/759
f 416/396/762 424/399/763 464/439/764 456/436/762
f 425/380/752 415/383/765 455/421/765 465/420/753
f 411/404/766 419/403/767 459/444/768 451/443/769
f 422/401/760 411/404/766 451/443/769 462/440/761
f 424/399/763 414/413/770 454/452/770 464/439/764
f 427/385/771 446/414/771 486/454/771 467/427/771
f 445/412/772 427/385/772 467/427/772 485/453/772
f 438/402/773 450/419/773 490/459/773 478/442/773
f 429/381/774 442/406/774 482/446/774 469/423/774
f 428/398/775 444/409/775 484/449/775 468/438/775
f 434/391/776 448/417/776 488/456/776 474/429/776
f 442/406/777 412/405/751 452/445/754 482/446/777
f 449/418/778 438/402/778 478/442/778 489/458/778
f 433/408/779 441/407/780 481/448/780 473/447/781
f 444/409/782 433/408/779 473/447/781 484/449/782
f 441/407/783 429/381/783 469/423/783 481/448/783
f 437/411/784 443/410/785 483/451/785 477/450/786
f 443/410/787 428/398/787 468/438/787 483/451/787
f 414/413/788 445/412/788 485/453/788 454/452/788
f 446/414/789 437/411/784 477/450/786 486/454/789
f 419/403/767 447/415/790 487/455/790 459/444/768
f 448/417/791 420/416/792 460/457/793 488/456/791
f 447/415/794 434/391/794 474/429/794 487/455/794
f 420/416/792 449/418/795 489/458/795 460/457/793
f 450/419/796 421/395/748 461/433/750 490/459/796
f 504/460/797 509/461/798 510/462/799 495/463/800
f 508/464/801 507/465/802 512/466/803 511/467/804
f 510/462/805 511/467/806 497/468/807 505/469/808
f 498/470/809 502/471/810 493/472/811 500/473/812
f 512/466/813 496/474/814 502/471/810 498/470/809
f 509/461/798 508/464/801 511/467/804 510/462/799
f 507/465/802 503/475/815 496/474/816 512/466/803
f 495/463/817 510/462/805 505/469/808 501/476/818
f 511/467/806 512/466/813 498/470/809 497/468/807
f 501/476/818 505/469/808 499/477/819 491/478/820
f 505/469/808 497/468/807 513/479/821 499/477/819
f 497/468/807 498/470/809 500/473/812 514/480/822
f 509/461/798 515/481/823 506/482/824 508/464/801
f 492/483/825 516/484/825 509/461/798 504/460/797
f 507/465/802 517/485/826 494/486/826 503/475/815
f 506/482/824 518/487/827 507/465/802 508/464/801
f 532/488/828 523/489/829 538/490/830 537/491/831
f 536/492/832 539/493/833 540/494/834 535/495/835
f 538/490/836 533/496/837 525/497/838 539/493/839
f 526/498/840 528/499/841 521/500/842 530/501/843
f 540/494/844 526/498/840 530/501/843 524/502/845
f 537/491/831 538/490/830 539/493/833 536/492/832
f 535/495/835 540/494/834 524/502/846 531/503/847
f 523/489/848 529/504/849 533/496/837 538/490/836
f 539/493/839 525/497/838 526/498/840 540/494/844
f 529/504/849 519/505/850 527/506/851 533/496/837
f 533/496/837 527/506/851 541/507/852 525/497/838
f 525/497/838 542/508/853 528/499/841 526/498/840
f 537/491/831 536/492/832 534/509/854 543/510/855
f 520/511/856 532/488/828 537/491/831 544/512/856
f 535/495/835 531/503/847 522/513/857 545/514/857
f 534/509/854 536/492/832 535/495/835 546/515/858
f 500/473/859 493/472/860 521/500/860 528/499/861
f 492/483/862 504/460/863 532/488/864 520/511/865
f 502/471/866 496/474/866 524/502/866 530/501/866
f 493/472/867 502/471/867 530/501/867 521/500/867
f 495/463/868 501/476/869 529/504/870 523/489/868
f 496/474/871 503/475/871 531/503/871 524/502/871
f 504/460/863 495/463/872 523/489/872 532/488/864
f 491/478/873 499/477/874 527/506/875 519/505/876
f 501/476/869 491/478/873 519/505/876 529/504/870
f 503/475/877 494/486/877 522/513/877 531/503/877
f 497/468/878 514/480/878 542/508/878 525/497/878
f 513/479/879 497/468/879 525/497/879 541/507/879
f 507/465/880 518/487/880 546/515/880 535/495/880
f 509/461/881 516/484/881 544/512/881 537/491/881
f 517/485/882 507/465/882 535/495/882 545/514/882
f 499/477/874 513/479/883 541/507/883 527/506/875
f 514/480/884 500/473/859 528/499/861 542/508/884
f 506/482/885 515/481/886 543/510/886 534/509/887
f 516/484/888 492/483/862 520/511/865 544/512/888
f 515/481/889 509/461/889 537/491/889 543/510/889
f 494/486/890 517/485/890 545/514/890 522/513/890
f 518/487/891 506/482/885 534/509/887 546/515/891
f 561/516/892 565/517/893 566/518/894 551/519/895
f 575/520/896 563/521/897 568/522/898 576/523/899
f 572/524/900 567/525/901 553/526/902 570/527/903
f 554/528/904 559/529/905 549/530/906 557/531/907
f 568/522/908 552/532/909 559/529/905 554/528/904
f 571/533/910 564/534/911 567/525/912 572/524/913
f 563/521/897 560/535/914 552/532/915 568/522/898
f 551/519/916 566/518/917 562/536/918 558/537/919
f 576/523/920 568/522/908 554/528/904 574/538/921
f 558/537/919 562/536/918 555/539/922 547/540/923
f 565/517/893 571/533/910 572/524/913 566/518/894
f 566/518/917 572/524/900 570/527/903 562/536/918
f 567/525/901 576/523/920 574/538/921 553/526/902
f 564/534/911 575/520/896 576/523/899 567/525/912
f 548/541/924 578/542/924 565/517/893 561/516/892
f 565/517/893 577/543/925 569/544/926 571/533/910
f 569/544/926 580/545/927 564/534/911 571/533/910
f 564/534/911 579/546/928 573/547/929 575/520/896
f 563/521/897 581/548/930 550/549/930 560/535/914
f 573/547/929 582/550/931 563/521/897 575/520/896
f 562/536/918 570/527/903 583/551/932 555/539/922
f 570/527/903 553/526/902 556/552/933 584/553/934
f 553/526/902 574/538/921 585/554/935 556/552/933
f 574/538/921 554/528/904 557/531/907 586/555/936
f 601/556/937 591/557/938 606/558/939 605/559/940
f 615/560/941 616/561/942 608/562/943 603/563/944
f 612/564/945 610/565/946 593/566/947 607/567/948
f 594/568/949 597/569/950 589/570/951 599/571/952
f 608/562/953 594/568/949 599/571/952 592/572/954
f 611/573/955 612/564/956 607/567/957 604/574/958
f 603/563/944 608/562/943 592/572/959 600/575/960
f 591/557/961 598/576/962 602/577/963 606/558/964
f 616/561/965 614/578/966 594/568/949 608/562/953
f 598/576/962 587/579/967 595/580/968 602/577/963
f 605/559/940 606/558/939 612/564/956 611/573/955
f 606/558/964 602/577/963 610/565/946 612/564/945
f 607/567/948 593/566/947 614/578/966 616/561/965
f 604/574/958 607/567/957 616/561/942 615/560/941
f 588/581/969 601/556/937 605/559/940 618/582/969
f 605/559/940 611/573/955 609/583/970 617/584/971
f 609/583/970 611/573/955 604/574/958 620/585/972
f 604/574/958 615/560/941 613/586/973 619/587/974
f 603/563/944 600/575/960 590/588/975 621/589/975
f 613/586/973 615/560/941 603/563/944 622/590/976
f 602/577/963 595/580/968 623/591/977 610/565/946
f 610/565/946 624/592/978 596/593/979 593/566/947
f 593/566/947 596/593/979 625/594/980 614/578/966
f 614/578/966 626/595/981 597/569/950 594/568/949
f 557/531/982 549/530/983 589/570/983 597/569/984
f 548/541/985 561/516/986 601/556/987 588/581/988
f 559/529/989 552/532/990 592/572/990 599/571/991
f 549/530/992 559/529/989 599/571/991 589/570/992
f 551/519/993 558/537/994 598/576/995 591/557/993
f 552/532/996 560/535/997 600/575/998 592/572/996
f 561/516/986 551/519/999 591/557/999 601/556/987
f 547/540/1000 555/539/1001 595/580/1002 587/579/1003
f 558/537/994 547/540/1000 587/579/1003 598/576/995
f 560/535/997 550/549/1004 590/588/1004 600/575/998
f 563/521/1005 582/550/1005 622/590/1005 603/563/1005
f 581/548/1006 563/521/1006 603/563/1006 621/589/1006
f 574/538/1007 586/555/1007 626/595/1007 614/578/1007
f 565/517/1008 578/542/1008 618/582/1008 605/559/1008
f 564/534/1009 580/545/1009 620/585/1009 604/574/1009
f 570/527/1010 584/553/1010 624/592/1010 610/565/1010
f 578/542/1011 548/541/985 588/581/988 618/582/1011
f 585/554/1012 574/538/1012 614/578/1012 625/594/1012
f 569/544/1013 577/543/1014 617/584/1014 609/583/1015
f 580/545/1016 569/544/1013 609/583/1015 620/585/1016
f 577/543/1017 565/517/1017 605/559/1017 617/584/1017
f 573/547/1018 579/546/1019 619/587/1019 613/586/1020
f 579/546/1021 564/534/1021 604/574/1021 619/587/1021
f 550/549/1022 581/548/1022 621/589/1022 590/588/1022
f 582/550/1023 573/547/1018 613/586/1020 622/590/1023
f 555/539/1001 583/551/1024 623/591/1024 595/580/1002
f 584/553/1025 556/552/1026 596/593/1027 624/592/1025
f 583/551/1028 570/527/1028 610/565/1028 623/591/1028
f 556/552/1026 585/554/1029 625/594/1029 596/593/1027
f 586/555/1030 557/531/982 597/569/984 626/595/1030
