# Blender 5.0.1
# www.blender.org
o GEO_PalmTree_C
v -3.278748 -0.051827 -22.160934
v -3.278748 -0.051827 -21.839066
v -3.000000 -0.051827 -21.678129
v -2.721252 -0.051828 -21.839066
v -2.721252 -0.051827 -22.160934
v -3.000000 -0.051827 -22.321871
v -3.145404 0.576364 -22.030340
v -3.150507 0.517640 -21.775684
v -2.930039 0.449733 -21.652777
v -2.704468 0.440550 -21.784523
v -2.699365 0.499274 -22.039179
v -2.919833 0.567182 -22.162086
v -2.962566 1.192317 -21.819736
v -2.966742 1.145588 -21.624384
v -2.796494 1.098370 -21.528730
v -2.622071 1.097881 -21.628428
v -2.617895 1.144610 -21.823780
v -2.788142 1.191829 -21.919434
v -2.860794 1.806186 -21.664316
v -2.863230 1.798751 -21.524111
v -2.743448 1.806894 -21.451275
v -2.621229 1.822474 -21.518646
v -2.618793 1.829910 -21.658854
v -2.738575 1.821766 -21.731688
v -2.964601 2.374443 -21.686800
v -2.974646 2.396872 -21.610727
v -2.919923 2.442984 -21.575092
v -2.855155 2.466667 -21.615528
v -2.845110 2.444238 -21.691599
v -2.899833 2.398126 -21.727236
v -2.942270 2.237759 -21.653517
v -3.001446 2.356110 -21.551022
v -3.044766 2.356110 -21.712694
v -2.984114 2.272423 -21.581043
v -3.035611 2.287780 -21.628508
v -3.056589 2.356110 -21.622887
v -3.014745 2.272423 -21.695362
v -3.001446 2.484633 -21.551022
v -2.942270 2.602985 -21.653517
v -3.044766 2.484633 -21.712694
v -2.984114 2.568321 -21.581043
v -3.035611 2.552964 -21.628508
v -3.014745 2.568321 -21.695362
v -3.056589 2.484633 -21.622887
v -2.878009 2.237759 -21.764822
v -2.980504 2.356110 -21.823997
v -2.818833 2.356110 -21.867317
v -2.950484 2.272423 -21.806665
v -2.903019 2.287780 -21.858162
v -2.908640 2.356110 -21.879141
v -2.836165 2.272423 -21.837297
v -2.878009 2.602985 -21.764822
v -2.818833 2.484633 -21.867317
v -2.980504 2.484633 -21.823997
v -2.836165 2.568321 -21.837297
v -2.903019 2.552964 -21.858162
v -2.908640 2.484633 -21.879141
v -2.950484 2.568321 -21.806665
v -2.830966 2.237759 -21.589256
v -2.728471 2.356110 -21.530081
v -2.890142 2.356110 -21.486761
v -2.758491 2.272423 -21.547413
v -2.805955 2.287780 -21.495914
v -2.800334 2.356110 -21.474937
v -2.872810 2.272423 -21.516781
v -2.830966 2.602985 -21.589256
v -2.890142 2.484633 -21.486761
v -2.728471 2.484633 -21.530081
v -2.872810 2.568321 -21.516781
v -2.805955 2.552964 -21.495914
v -2.800334 2.484633 -21.474937
v -2.758491 2.568321 -21.547413
v -2.766705 2.237759 -21.700560
v -2.707529 2.356110 -21.803057
v -2.664209 2.356110 -21.641384
v -2.724861 2.272423 -21.773035
v -2.673364 2.287780 -21.725571
v -2.652386 2.356110 -21.731192
v -2.694229 2.272423 -21.658716
v -2.766705 2.602985 -21.700560
v -2.664209 2.484633 -21.641384
v -2.707529 2.484633 -21.803057
v -2.694229 2.568321 -21.658716
v -2.673363 2.552964 -21.725571
v -2.652386 2.484633 -21.731192
v -2.724861 2.568321 -21.773035
v -3.105003 3.019536 -20.126104
v -2.512364 3.019783 -20.125856
v -3.269420 2.533782 -21.531937
v -2.347685 2.533682 -21.532114
v -2.808445 2.900461 -19.863119
v -2.808443 2.373908 -21.607582
v -3.086058 2.988532 -20.836475
v -3.145623 2.740365 -21.323231
v -3.210724 3.040190 -20.511702
v -3.303014 2.963679 -20.887680
v -3.358191 2.791977 -21.236132
v -2.953341 2.970729 -19.928188
v -3.032260 2.424390 -21.622820
v -2.584769 2.424364 -21.622843
v -2.663887 2.970743 -19.928047
v -2.990022 3.051924 -20.386036
v -2.468107 2.741596 -21.321726
v -2.525939 2.988327 -20.837305
v -2.621073 3.052193 -20.386768
v -2.808446 3.011476 -20.348894
v -2.808443 2.950285 -20.825165
v -2.808443 2.685908 -21.327995
v -2.360333 3.019927 -20.671009
v -3.043049 3.037079 -20.615538
v -2.578197 3.037206 -20.614092
v -2.808443 3.000247 -20.590229
v -2.287071 2.890041 -21.067139
v -3.121139 2.886953 -21.090286
v -2.501119 2.886668 -21.090799
v -2.808443 2.842558 -21.089218
v -2.443436 3.042227 -20.442886
v -2.468883 3.041552 -20.357594
v -2.307612 2.954276 -20.908585
v -2.328160 2.979365 -20.827002
v -2.277521 2.769050 -21.264704
v -2.266082 2.817334 -21.193390
v -3.217463 3.023599 -20.628542
v -3.244685 3.010894 -20.710035
v -3.322499 2.905560 -21.026871
v -3.334342 2.868032 -21.103861
v -3.107617 2.947476 -20.136055
v -2.508180 2.948150 -20.137280
v -3.270265 2.484646 -21.481194
v -2.346447 2.484798 -21.481081
v -2.808445 2.834900 -19.885628
v -2.808443 2.330042 -21.549183
v -3.095885 2.901332 -20.809486
v -3.154057 2.668599 -21.266678
v -3.212265 2.966230 -20.507355
v -3.304157 2.893739 -20.863356
v -3.359597 2.731530 -21.195051
v -2.973437 2.903010 -19.945555
v -3.042631 2.378051 -21.568392
v -2.574147 2.378085 -21.568373
v -2.643263 2.903104 -19.945663
v -3.005429 2.961223 -20.388250
v -2.458161 2.670464 -21.265400
v -2.514441 2.902035 -20.810701
v -2.601654 2.963600 -20.388340
v -2.808445 2.919939 -20.353109
v -2.808443 2.862891 -20.797565
v -2.808443 2.614683 -21.270323
v -2.359337 2.946889 -20.657347
v -3.056578 2.947914 -20.602400
v -2.566853 2.947040 -20.600658
v -2.808443 2.909564 -20.576960
v -2.285764 2.822892 -21.033611
v -3.132082 2.806853 -21.048777
v -2.491834 2.805514 -21.048923
v -2.808443 2.761647 -21.046171
v -2.442992 2.971782 -20.438662
v -2.466653 2.973487 -20.360960
v -2.306925 2.889071 -20.883755
v -2.327886 2.914374 -20.809132
v -2.275901 2.715454 -21.225559
v -2.265292 2.757463 -21.156870
v -3.217708 2.956842 -20.619823
v -3.245371 2.941624 -20.693983
v -3.323059 2.842558 -20.999371
v -3.334867 2.808090 -21.070316
v -2.837694 2.290640 -23.334343
v -3.350873 2.302577 -23.244471
v -2.432969 2.492364 -21.891220
v -3.231351 2.510842 -21.751167
v -3.139722 2.146949 -23.526312
v -2.805316 2.439376 -21.658962
v -2.723127 2.472648 -22.636768
v -2.591186 2.510409 -22.152702
v -2.681921 2.397002 -22.994305
v -2.422911 2.497299 -22.282032
v -3.005508 2.223294 -23.493406
v -2.616013 2.486701 -21.718733
v -3.001308 2.495560 -21.651186
v -3.250931 2.228994 -23.450256
v -2.891396 2.382329 -23.055117
v -3.391853 2.485425 -22.494432
v -3.193439 2.521937 -22.131832
v -3.212168 2.478825 -22.583994
v -3.214087 2.398779 -22.965641
v -3.049673 2.335232 -23.038782
v -2.973840 2.427850 -22.618343
v -2.875787 2.471038 -22.065241
v -2.563832 2.454209 -22.705223
v -2.515355 2.473417 -22.576893
v -3.380502 2.428599 -22.800787
v -3.364885 2.388118 -22.959690
v -3.346522 2.518829 -22.050926
v -3.376340 2.514256 -22.186228
v -2.833450 2.235526 -23.316496
v -3.351891 2.247713 -23.225483
v -2.433820 2.436240 -21.893654
v -3.234441 2.454777 -21.753319
v -3.136520 2.097090 -23.505171
v -2.807668 2.382395 -21.665335
v -2.707632 2.403347 -22.629749
v -2.582013 2.438008 -22.153339
v -2.679684 2.339363 -22.980824
v -2.422699 2.439266 -22.279545
v -2.978646 2.172667 -23.478275
v -2.604251 2.430773 -21.724001
v -3.016614 2.440230 -21.651699
v -3.272716 2.179237 -23.426737
v -2.872680 2.312930 -23.039612
v -3.392820 2.426998 -22.486423
v -3.208261 2.452892 -22.126854
v -3.224380 2.407884 -22.571186
v -3.233033 2.333012 -22.944481
v -3.047860 2.265070 -23.019962
v -2.973601 2.355891 -22.608337
v -2.877252 2.398419 -22.063955
v -2.562719 2.400931 -22.696177
v -2.514435 2.418002 -22.571295
v -3.380859 2.373161 -22.789049
v -3.364829 2.336388 -22.944973
v -3.348572 2.464548 -22.050220
v -3.377776 2.459359 -22.182058
v -1.313041 3.234604 -22.439316
v -1.645502 3.264027 -22.837444
v -2.454018 2.486727 -21.352110
v -2.971577 2.531856 -21.970966
v -1.237349 3.143975 -22.848581
v -2.771846 2.314391 -21.626556
v -1.958553 3.110524 -21.930483
v -2.347760 2.758653 -21.562712
v -1.600359 3.205043 -22.080324
v -1.881295 3.064615 -21.750147
v -2.153203 2.819014 -21.477676
v -1.218157 3.210231 -22.693968
v -2.662617 2.360061 -21.458397
v -2.913831 2.382004 -21.758888
v -1.380512 3.224481 -22.888447
v -1.612278 3.245249 -22.319983
v -2.726794 2.793542 -22.018639
v -2.273701 3.137689 -22.306034
v -1.820054 3.263588 -22.567165
v -1.678713 3.211892 -22.474674
v -2.102166 3.081198 -22.130268
v -2.538330 2.711431 -21.792719
v -2.219367 3.203329 -22.536163
v -1.787360 3.196655 -22.116503
v -2.047009 3.219812 -22.429718
v -1.894363 3.168615 -22.297579
v -2.608378 3.006577 -22.309212
v -2.160759 2.959131 -21.732384
v -2.509244 2.989186 -22.148405
v -2.332908 2.923112 -21.948952
v -1.969512 3.253715 -22.646235
v -1.878759 3.262373 -22.692343
v -2.458272 3.099970 -22.404352
v -2.375000 3.138296 -22.447641
v -2.784178 2.841904 -22.185232
v -2.729329 2.907425 -22.239378
v -1.700372 3.170819 -21.991514
v -1.757425 3.144526 -21.914595
v -1.991916 2.978780 -21.641657
v -2.052212 2.925005 -21.581635
v -1.316558 3.149621 -22.439600
v -1.654179 3.179689 -22.841148
v -2.405392 2.436035 -21.395496
v -2.923874 2.481595 -22.015934
v -1.253942 3.065087 -22.840481
v -2.717120 2.270816 -21.675489
v -1.924092 3.012250 -21.955229
v -2.288433 2.682060 -21.608253
v -1.591562 3.119702 -22.092155
v -1.855040 2.986460 -21.776501
v -2.112303 2.753960 -21.515013
v -1.218743 3.128497 -22.676458
v -2.605495 2.312609 -21.497749
v -2.868458 2.335658 -21.812361
v -1.404185 3.144808 -22.898087
v -1.600663 3.138979 -22.319832
v -2.678023 2.718561 -22.076273
v -2.251606 3.041468 -22.344698
v -1.827529 3.161555 -22.590603
v -1.677495 3.105159 -22.483500
v -2.072664 2.983260 -22.162092
v -2.482762 2.636022 -21.844683
v -2.203697 3.120349 -22.556469
v -1.763127 3.094184 -22.128771
v -2.036420 3.117439 -22.459040
v -1.877524 3.065063 -22.319227
v -2.575405 2.932934 -22.343657
v -2.113049 2.870861 -21.766197
v -2.472503 2.900732 -22.196211
v -2.289918 2.834631 -21.991358
v -1.962132 3.172533 -22.658850
v -1.879313 3.183088 -22.700230
v -2.432849 3.027462 -22.431690
v -2.355593 3.065144 -22.469526
v -2.747085 2.784704 -22.222275
v -2.693779 2.842576 -22.274742
v -1.688779 3.094445 -22.006510
v -1.738875 3.066134 -21.935049
v -1.963521 2.909101 -21.669849
v -2.018587 2.859637 -21.613922
v -4.365457 2.016628 -21.513174
v -4.235313 2.051696 -21.009781
v -3.019433 2.458804 -22.042135
v -2.816715 2.513311 -21.258997
v -4.502915 1.846482 -21.195564
v -2.750414 2.452434 -21.691448
v -3.722534 2.314808 -21.688103
v -3.265517 2.433736 -21.861731
v -4.063699 2.177838 -21.697990
v -3.404564 2.395906 -22.018093
v -4.495410 1.925328 -21.332136
v -2.833519 2.485835 -21.874821
v -2.735719 2.512075 -21.496880
v -4.433002 1.942121 -21.091406
v -4.102832 2.156039 -21.484013
v -3.527715 2.362134 -21.034327
v -3.195353 2.457814 -21.263588
v -3.629855 2.337422 -21.205523
v -3.990210 2.192600 -21.170347
v -4.065043 2.114878 -21.327763
v -3.675159 2.277673 -21.439949
v -3.148448 2.414400 -21.585836
v -3.800163 2.282396 -21.840824
v -3.681758 2.322778 -21.900303
v -3.819372 2.253004 -21.018934
v -3.969577 2.185413 -21.020643
v -3.102299 2.471065 -21.118139
v -3.231684 2.443607 -21.076641
v -4.338742 1.965374 -21.518957
v -4.207070 2.000966 -21.010422
v -3.012003 2.403124 -22.041075
v -2.808827 2.457772 -21.255732
v -4.473792 1.800989 -21.200596
v -2.746569 2.395251 -21.688549
v -3.704943 2.247539 -21.704151
v -3.254357 2.362185 -21.870813
v -4.040656 2.123373 -21.701393
v -3.392066 2.339181 -22.018522
v -4.474080 1.877681 -21.360214
v -2.829985 2.429668 -21.886080
v -2.725302 2.457729 -21.481586
v -4.399418 1.897517 -21.071754
v -4.077176 2.090093 -21.504007
v -3.509629 2.305995 -21.034061
v -3.177206 2.390903 -21.249256
v -3.603923 2.269959 -21.194473
v -3.956405 2.131780 -21.153318
v -4.034553 2.049011 -21.331207
v -3.652868 2.208533 -21.441059
v -3.134451 2.343128 -21.584488
v -3.782130 2.231477 -21.842722
v -3.666723 2.269160 -21.901707
v -3.798200 2.200444 -21.019600
v -3.946161 2.137014 -21.021980
v -3.092005 2.417762 -21.116158
v -3.217938 2.390287 -21.075575
v -1.313166 2.210603 -20.585096
v -1.088789 2.179851 -21.052656
v -2.904621 2.556803 -21.210064
v -2.556423 2.508817 -21.937624
v -1.032014 1.920466 -20.720058
v -2.887213 2.416220 -21.641306
v -1.959226 2.596303 -20.938416
v -2.555833 2.635722 -21.168760
v -1.686810 2.463772 -20.677813
v -2.100928 2.612681 -20.796114
v -2.529438 2.647550 -20.949921
v -1.105865 2.037092 -20.622038
v -2.957315 2.487702 -21.461666
v -2.788200 2.464391 -21.814854
v -0.996319 2.021953 -20.850412
v -1.484345 2.390173 -20.790884
v -2.297700 2.600802 -21.702522
v -1.748361 2.567422 -21.380905
v -1.345389 2.371667 -21.082355
v -1.405007 2.318113 -20.924932
v -1.865484 2.536658 -21.159897
v -2.463001 2.566100 -21.448017
v -1.519275 2.492805 -21.427513
v -1.718119 2.512997 -20.859320
v -1.541041 2.488071 -21.225491
v -1.627313 2.448781 -21.040028
v -1.918608 2.591169 -21.696596
v -2.256327 2.645101 -21.049770
v -2.022579 2.612835 -21.539404
v -2.161921 2.583462 -21.304962
v -1.334036 2.385392 -21.250790
v -1.267675 2.335857 -21.190960
v -1.748624 2.563681 -21.593369
v -1.669372 2.542034 -21.533976
v -2.159308 2.584996 -21.820770
v -2.064228 2.591095 -21.786772
v -1.803204 2.516146 -20.730452
v -1.893530 2.552706 -20.749619
v -2.265297 2.637024 -20.857471
v -2.359617 2.645123 -20.891647
v -1.363230 2.143986 -20.602135
v -1.137365 2.114177 -21.075663
v -2.886905 2.477485 -21.195524
v -2.537519 2.429475 -21.924541
v -1.088711 1.867650 -20.743729
v -2.859384 2.337664 -21.622795
v -1.987387 2.493074 -20.935524
v -2.548398 2.530579 -21.150051
v -1.724728 2.386774 -20.689392
v -2.118572 2.527960 -20.797861
v -2.526890 2.562550 -20.941725
v -1.166758 1.980123 -20.627876
v -2.938342 2.409531 -21.437325
v -2.761220 2.385163 -21.807047
v -1.041998 1.963092 -20.888489
v -1.542711 2.300889 -20.797947
v -2.283168 2.495476 -21.698299
v -1.768300 2.464225 -21.394842
v -1.388841 2.282315 -21.116182
v -1.459805 2.228362 -20.945257
v -1.889491 2.432363 -21.164515
v -2.451074 2.460405 -21.435333
v -1.547381 2.411122 -21.436556
v -1.761175 2.416131 -20.860378
v -1.574989 2.388728 -21.246243
v -1.665983 2.349604 -21.052006
v -1.925532 2.503719 -21.695415
v -2.267954 2.540543 -21.037786
v -2.026820 2.505947 -21.543425
v -2.168486 2.476611 -21.301058
v -1.369355 2.311904 -21.263290
v -1.307788 2.269139 -21.207943
v -1.762484 2.483338 -21.595377
v -1.689498 2.466022 -21.538868
v -2.153529 2.507879 -21.814493
v -2.064608 2.509242 -21.782324
v -1.832704 2.443766 -20.739567
v -1.918032 2.473502 -20.755461
v -2.276009 2.557395 -20.856804
v -2.363199 2.565019 -20.887568
v -3.973125 2.870634 -22.801281
v -4.280649 2.825595 -22.382982
v -2.684019 2.581048 -22.065451
v -3.162316 2.510810 -21.414551
v -4.347448 2.787462 -22.760241
v -2.809213 2.432891 -21.668247
v -3.390928 2.805866 -22.365719
v -2.967445 2.680519 -22.124668
v -3.613731 2.860497 -22.653168
v -2.934659 2.721164 -22.330795
v -4.213243 2.854230 -22.809795
v -2.702726 2.507177 -21.825697
v -2.933589 2.473240 -21.511620
v -4.360203 2.832624 -22.609636
v -3.807884 2.857474 -22.552725
v -3.775527 2.735859 -21.804649
v -3.384906 2.654561 -21.690699
v -3.706835 2.769427 -21.990406
v -3.977573 2.826148 -22.265270
v -3.920758 2.799927 -22.445559
v -3.568503 2.745216 -22.192537
v -3.122567 2.599445 -21.880617
v -3.325381 2.820047 -22.526665
v -3.201492 2.796098 -22.469515
v -3.982037 2.788983 -22.032118
v -4.084418 2.806702 -22.159935
v -3.442180 2.616189 -21.531836
v -3.554228 2.657176 -21.602417
v -3.969626 2.813026 -22.807856
v -4.280131 2.767570 -22.385086
v -2.697834 2.529250 -22.082264
v -3.177543 2.458860 -21.429611
v -4.341433 2.733592 -22.762426
v -2.826894 2.381575 -21.686880
v -3.389429 2.739255 -22.391270
v -2.976211 2.613337 -22.151804
v -3.615091 2.801933 -22.661964
v -2.944841 2.665929 -22.345610
v -4.194330 2.802876 -22.832567
v -2.709294 2.457161 -21.853067
v -2.956376 2.420814 -21.516928
v -4.370583 2.776800 -22.592920
v -3.798466 2.787998 -22.574890
v -3.782982 2.678289 -21.815088
v -3.406536 2.587407 -21.696547
v -3.721792 2.697920 -21.993393
v -3.990778 2.756275 -22.256588
v -3.921473 2.727763 -22.454037
v -3.576560 2.674334 -22.206289
v -3.137765 2.530873 -21.899172
v -3.329585 2.767047 -22.536406
v -3.208564 2.742277 -22.482018
v -3.985965 2.732957 -22.039661
v -4.085309 2.753141 -22.164740
v -3.454396 2.564975 -21.545214
v -3.563835 2.604218 -21.614092
vn -0.8237 0.2815 -0.4923
vn -0.8210 0.3346 -0.4626
vn 0.0165 0.3034 -0.9527
vn -0.0278 0.2558 -0.9663
vn -0.8805 0.1459 0.4511
vn -0.8567 0.1324 0.4986
vn -0.0399 -0.0482 0.9980
vn -0.0141 -0.1161 0.9931
vn 0.8744 -0.0849 0.4778
vn 0.8629 -0.1505 0.4824
vn 0.8344 0.0840 -0.5447
vn 0.8623 0.0662 -0.5020
vn -0.8305 0.3251 -0.4522
vn 0.0492 0.3175 -0.9470
vn -0.8439 0.0858 0.5296
vn 0.0092 -0.1500 0.9886
vn 0.8555 -0.1514 0.4952
vn 0.8853 0.0767 -0.4587
vn -0.8646 0.0458 -0.5004
vn 0.0664 0.1564 -0.9855
vn -0.8408 -0.0154 0.5411
vn 0.0249 0.0367 0.9990
vn 0.8371 0.1386 0.5293
vn 0.8870 0.1969 -0.4177
vn -0.8416 -0.1778 -0.5100
vn 0.0807 0.0285 -0.9963
vn -0.8332 -0.0762 0.5476
vn 0.0256 0.1991 0.9797
vn 0.7734 0.3601 0.5218
vn 0.8706 0.3014 -0.3889
vn -0.2450 -0.9673 0.0657
vn -0.4977 -0.6965 0.5169
vn -0.7887 -0.5774 0.2113
vn -0.6895 -0.6965 -0.1988
vn -0.6390 -0.1794 0.7480
vn -0.9514 -0.1726 0.2549
vn -0.9274 -0.1794 -0.3283
vn -0.6390 0.1794 0.7480
vn -0.4977 0.6965 0.5169
vn -0.7887 0.5774 0.2113
vn -0.9514 0.1726 0.2549
vn -0.2450 0.9673 0.0657
vn -0.6895 0.6965 -0.1988
vn -0.9274 0.1794 -0.3283
vn -0.0657 -0.9673 -0.2450
vn -0.5169 -0.6965 -0.4977
vn -0.2113 -0.5773 -0.7887
vn 0.1988 -0.6965 -0.6895
vn -0.7480 -0.1794 -0.6390
vn -0.2549 -0.1726 -0.9514
vn 0.3283 -0.1794 -0.9274
vn -0.0657 0.9673 -0.2450
vn 0.1988 0.6965 -0.6895
vn -0.2113 0.5774 -0.7887
vn -0.5169 0.6965 -0.4977
vn 0.3283 0.1794 -0.9274
vn -0.2549 0.1726 -0.9514
vn -0.7480 0.1794 -0.6390
vn 0.0657 -0.9673 0.2450
vn 0.5169 -0.6965 0.4977
vn 0.2113 -0.5774 0.7887
vn -0.1988 -0.6965 0.6895
vn 0.7480 -0.1794 0.6390
vn 0.2549 -0.1726 0.9514
vn -0.3283 -0.1794 0.9274
vn 0.0657 0.9673 0.2450
vn -0.1988 0.6965 0.6895
vn 0.2113 0.5774 0.7887
vn 0.5169 0.6965 0.4977
vn -0.3283 0.1794 0.9274
vn 0.2549 0.1726 0.9514
vn 0.7480 0.1794 0.6390
vn 0.2450 -0.9673 -0.0657
vn 0.4977 -0.6965 -0.5169
vn 0.7887 -0.5773 -0.2113
vn 0.6895 -0.6965 0.1988
vn 0.6390 -0.1794 -0.7480
vn 0.9514 -0.1726 -0.2549
vn 0.9274 -0.1794 0.3283
vn 0.2450 0.9673 -0.0657
vn 0.6895 0.6965 0.1988
vn 0.7887 0.5774 -0.2113
vn 0.4977 0.6965 -0.5169
vn 0.9274 0.1794 0.3283
vn 0.9514 0.1726 -0.2549
vn 0.6390 0.1794 -0.7480
vn -0.2173 0.9605 0.1739
vn -0.1263 0.9912 0.0393
vn -0.2333 0.9697 0.0719
vn -0.2609 0.9482 0.1814
vn -0.0531 0.8882 -0.4564
vn -0.0517 0.7713 -0.6343
vn -0.1337 0.7575 -0.6390
vn -0.1306 0.8756 -0.4650
vn 0.1765 0.9734 -0.1458
vn 0.1470 0.9419 -0.3020
vn 0.0537 0.9537 -0.2959
vn 0.0731 0.9862 -0.1488
vn 0.0470 0.7736 -0.6319
vn 0.0955 0.6958 -0.7118
vn -0.0196 0.7164 -0.6975
vn -0.0225 0.8140 -0.5804
vn 0.1340 0.7580 -0.6384
vn 0.1414 0.6848 -0.7148
vn -0.0648 0.9875 -0.1435
vn -0.0585 0.9530 -0.2971
vn -0.1469 0.9419 -0.3021
vn -0.1761 0.9736 -0.1454
vn -0.0970 0.6956 -0.7119
vn -0.1404 0.6854 -0.7145
vn 0.2640 0.9471 0.1826
vn 0.2354 0.9693 0.0713
vn 0.1099 0.9930 0.0442
vn 0.2081 0.9631 0.1707
vn 0.1301 0.8756 -0.4653
vn 0.0572 0.8873 -0.4577
vn -0.0266 0.9992 -0.0293
vn -0.0063 0.9926 0.1209
vn -0.0461 0.9888 0.1420
vn 0.0492 0.9965 -0.0680
vn 0.0408 0.9841 -0.1728
vn 0.0367 0.9744 -0.2217
vn 0.0250 0.9283 -0.3710
vn 0.0258 0.8942 -0.4469
vn 0.0129 0.7149 -0.6991
vn 0.0264 0.8553 -0.5175
vn -0.0339 0.9958 -0.0845
vn -0.0304 0.9458 -0.3232
vn -0.0409 0.9738 -0.2236
vn -0.0248 0.9273 -0.3734
vn -0.0238 0.8550 -0.5181
vn 0.2280 -0.9642 -0.1354
vn 0.2517 -0.9574 -0.1416
vn 0.2244 -0.9734 -0.0455
vn 0.1635 -0.9864 -0.0143
vn 0.0969 -0.8827 0.4598
vn 0.1288 -0.8760 0.4648
vn 0.1345 -0.7735 0.6194
vn 0.0960 -0.7833 0.6142
vn -0.1708 -0.9744 0.1459
vn -0.1184 -0.9812 0.1523
vn -0.1031 -0.9468 0.3049
vn -0.1445 -0.9424 0.3017
vn -0.0890 -0.7836 0.6149
vn -0.0604 -0.8119 0.5807
vn -0.0478 -0.7453 0.6650
vn -0.1166 -0.7257 0.6781
vn -0.1346 -0.7733 0.6196
vn -0.1443 -0.7167 0.6823
vn 0.1134 -0.9811 0.1565
vn 0.1714 -0.9743 0.1464
vn 0.1442 -0.9424 0.3017
vn 0.1033 -0.9481 0.3006
vn 0.1440 -0.7168 0.6822
vn 0.1218 -0.7237 0.6793
vn -0.2521 -0.9573 -0.1418
vn -0.2142 -0.9681 -0.1297
vn -0.1448 -0.9892 -0.0243
vn -0.2241 -0.9735 -0.0465
vn -0.1287 -0.8760 0.4649
vn -0.0998 -0.8821 0.4603
vn -0.0695 -0.9942 -0.0823
vn -0.0683 -0.9970 0.0376
vn 0.1333 -0.9849 -0.1102
vn 0.0590 -0.9805 0.1873
vn 0.0540 -0.9924 0.1103
vn 0.0612 -0.9730 0.2226
vn 0.0644 -0.8878 0.4558
vn 0.0645 -0.9177 0.3920
vn 0.0657 -0.7392 0.6703
vn 0.0639 -0.8550 0.5147
vn -0.0676 -0.9944 0.0808
vn -0.0607 -0.9643 0.2578
vn -0.0666 -0.9408 0.3324
vn -0.0694 -0.9265 0.3698
vn -0.0664 -0.8413 0.5365
vn -0.9995 -0.0172 -0.0248
vn -0.9741 -0.1330 -0.1827
vn -0.9993 -0.0211 -0.0302
vn 0.9146 0.0227 0.4037
vn 0.6345 -0.0963 0.7669
vn 0.6523 -0.0857 0.7531
vn 0.9166 0.0227 0.3991
vn -0.3194 -0.7068 -0.6312
vn -0.1185 -0.7702 -0.6267
vn -0.3278 -0.7034 -0.6307
vn -0.5142 -0.6070 -0.6059
vn -0.4407 -0.1957 0.8761
vn -0.6355 -0.0980 0.7658
vn -0.6517 -0.0886 0.7532
vn 0.1186 -0.7704 -0.6264
vn 0.3189 -0.7073 -0.6309
vn 0.3283 -0.7034 -0.6304
vn 0.4409 -0.1956 0.8760
vn -0.8976 0.0160 0.4406
vn -0.9870 0.0174 0.1601
vn -0.9864 0.0174 0.1633
vn -0.8993 0.0160 0.4371
vn 0.5142 -0.6073 -0.6056
vn 0.5882 -0.4350 -0.6818
vn -0.3086 0.5599 0.7689
vn -0.0940 0.4763 0.8743
vn 0.1930 0.0576 -0.9795
vn 0.0321 -0.2796 -0.9596
vn -0.4350 0.2007 0.8777
vn 0.9822 0.0254 0.1860
vn -0.3040 -0.3939 -0.8674
vn 0.9620 0.0526 0.2679
vn 0.9374 0.0523 0.3443
vn 0.9617 0.0526 0.2689
vn 0.9803 0.0525 0.1902
vn 0.3016 0.0535 0.9519
vn 0.9909 0.0723 0.1134
vn 0.9922 0.0625 0.1077
vn 0.9909 0.0722 0.1134
vn 0.3355 0.3269 0.8835
vn 0.9802 -0.1148 -0.1615
vn 0.9895 0.0820 0.1190
vn -0.9985 0.0174 0.0511
vn -0.9508 0.0978 0.2941
vn -0.9755 0.0781 0.2055
vn -0.9754 0.0782 0.2063
vn 0.0913 -0.1461 -0.9850
vn -0.9916 0.0577 0.1154
vn -0.9869 0.0961 0.1295
vn 0.2190 0.9080 -0.3571
vn 0.1233 0.9527 -0.2777
vn 0.2490 0.9179 -0.3090
vn 0.2735 0.8905 -0.3637
vn 0.0822 0.9836 -0.1604
vn 0.1032 0.9936 -0.0468
vn 0.1969 0.9797 -0.0380
vn 0.1981 0.9661 -0.1655
vn -0.3038 0.9302 -0.2060
vn -0.1988 0.9753 -0.0964
vn -0.0988 0.9881 -0.1179
vn -0.1561 0.9587 -0.2379
vn -0.0498 0.9988 0.0015
vn -0.0987 0.9931 0.0635
vn 0.0528 0.9979 0.0369
vn 0.0286 0.9985 -0.0457
vn -0.1602 0.9869 0.0208
vn -0.1573 0.9848 0.0734
vn 0.1539 0.9880 0.0120
vn 0.2037 0.9790 0.0038
vn -0.3635 0.8957 -0.2559
vn -0.2988 0.9152 -0.2704
vn -0.0021 0.9714 -0.2372
vn -0.0222 0.9486 -0.3158
vn 0.0057 0.9785 -0.2064
vn 0.0172 0.9963 -0.0838
vn -0.0406 0.9799 -0.1955
vn -0.0221 0.9913 -0.1296
vn -0.0271 0.9490 -0.3141
vn 0.0301 0.9990 0.0321
vn -0.0121 0.9955 -0.0936
vn -0.2237 -0.9166 0.3315
vn -0.2618 -0.9049 0.3357
vn -0.2388 -0.9268 0.2898
vn -0.1485 -0.9523 0.2665
vn -0.1218 -0.9797 0.1592
vn -0.1945 -0.9669 0.1654
vn -0.1975 -0.9785 0.0598
vn -0.1322 -0.9891 0.0641
vn 0.2831 -0.9390 0.1954
vn 0.1760 -0.9600 0.2177
vn 0.1319 -0.9854 0.1073
vn 0.1941 -0.9761 0.0981
vn 0.0868 -0.9962 0.0089
vn 0.0415 -0.9985 0.0354
vn 0.0094 -0.9999 -0.0122
vn 0.1204 -0.9923 -0.0302
vn 0.1621 -0.9868 -0.0015
vn 0.1629 -0.9859 -0.0370
vn -0.2061 -0.9781 0.0295
vn -0.1685 -0.9855 0.0211
vn 0.3333 -0.9132 0.2345
vn 0.2860 -0.9267 0.2439
vn 0.0716 -0.9579 0.2779
vn 0.0733 -0.9750 0.2099
vn 0.0738 -0.9801 0.1845
vn 0.0559 -0.9968 0.0568
vn -0.0577 -0.9894 0.1336
vn -0.0421 -0.9815 0.1867
vn -0.0351 -0.9521 0.3039
vn -0.0730 -0.9973 -0.0001
vn -0.0659 -0.9923 0.1053
vn 0.9903 -0.0088 -0.1387
vn 0.9996 -0.0056 0.0272
vn 0.9906 -0.0088 -0.1364
vn -0.9718 0.0134 -0.2354
vn -0.7782 -0.1103 -0.6183
vn -0.8049 -0.0871 -0.5870
vn -0.9729 0.0129 -0.2307
vn 0.3041 -0.0726 0.9499
vn 0.6951 0.0183 0.7187
vn 0.3123 -0.2385 -0.9196
vn 0.5130 -0.1380 -0.8472
vn 0.5527 -0.1152 -0.8254
vn 0.0340 -0.0665 0.9972
vn -0.6184 -0.2225 -0.7537
vn 0.8284 -0.0329 -0.5592
vn 0.9212 -0.0530 -0.3855
vn 0.9211 -0.0530 -0.3856
vn 0.8307 -0.0335 -0.5558
vn -0.4075 0.0455 0.9121
vn 0.2846 -0.0593 -0.9568
vn 0.4091 0.1729 0.8960
vn -0.2955 0.1088 0.9491
vn 0.0110 0.2904 0.9568
vn -0.4724 0.0240 -0.8811
vn 0.9277 -0.0472 -0.3703
vn 0.9543 -0.0118 -0.2987
vn -0.9999 0.0156 0.0041
vn -0.9992 0.0048 -0.0391
vn -0.9999 0.0155 0.0039
vn -0.9989 -0.0055 -0.0459
vn -0.7198 -0.0727 -0.6903
vn -0.9324 0.0387 0.3595
vn -0.9985 0.0262 0.0472
vn 0.2760 0.9353 0.2212
vn 0.0899 0.9723 0.2155
vn 0.2089 0.9329 0.2932
vn 0.3095 0.9172 0.2509
vn -0.3462 0.8278 0.4415
vn -0.4773 0.6899 0.5443
vn -0.4095 0.6669 0.6225
vn -0.2849 0.8036 0.5225
vn -0.3036 0.9526 0.0195
vn -0.3978 0.9059 0.1450
vn -0.3154 0.9188 0.2374
vn -0.2224 0.9667 0.1268
vn -0.5637 0.7006 0.4375
vn -0.6595 0.6188 0.4267
vn -0.5514 0.6347 0.5414
vn -0.4590 0.7489 0.4779
vn -0.6363 0.6873 0.3503
vn -0.6954 0.6090 0.3815
vn -0.1003 0.9590 0.2650
vn -0.2190 0.9086 0.3555
vn -0.1490 0.8842 0.4428
vn -0.0055 0.9267 0.3756
vn -0.4918 0.6039 0.6273
vn -0.4564 0.5888 0.6671
vn -0.1262 0.9539 -0.2723
vn -0.1852 0.9665 -0.1775
vn -0.1022 0.9944 -0.0275
vn -0.0964 0.9706 -0.2203
vn -0.5060 0.8229 0.2584
vn -0.4424 0.8346 0.3282
vn -0.0500 0.9856 0.1613
vn 0.0517 0.9978 0.0406
vn 0.1021 0.9925 0.0675
vn -0.1405 0.9846 0.1039
vn -0.2134 0.9606 0.1778
vn -0.2466 0.9457 0.2115
vn -0.3490 0.8834 0.3128
vn -0.4040 0.8433 0.3545
vn -0.5803 0.6356 0.5091
vn -0.4591 0.7953 0.3959
vn -0.0823 0.9765 0.1992
vn -0.2668 0.9012 0.3415
vn -0.1818 0.9390 0.2918
vn -0.3084 0.8784 0.3651
vn -0.4167 0.7912 0.4476
vn -0.2526 -0.9339 -0.2529
vn -0.2721 -0.9243 -0.2678
vn -0.1806 -0.9360 -0.3021
vn -0.1024 -0.9583 -0.2666
vn 0.3100 -0.8168 -0.4866
vn 0.2863 -0.8043 -0.5207
vn 0.3942 -0.6851 -0.6126
vn 0.4248 -0.6994 -0.5748
vn 0.2993 -0.9538 -0.0255
vn 0.2616 -0.9616 -0.0826
vn 0.3632 -0.9118 -0.1916
vn 0.3955 -0.9065 -0.1475
vn 0.5840 -0.7146 -0.3851
vn 0.5312 -0.7507 -0.3928
vn 0.5850 -0.6715 -0.4549
vn 0.6511 -0.6525 -0.3878
vn 0.6228 -0.7050 -0.3392
vn 0.6743 -0.6438 -0.3616
vn 0.0683 -0.9444 -0.3215
vn 0.0103 -0.9282 -0.3719
vn 0.1510 -0.8852 -0.4400
vn 0.1837 -0.8978 -0.4003
vn 0.4301 -0.6227 -0.6537
vn 0.4472 -0.6324 -0.6325
vn 0.1476 -0.9608 0.2346
vn 0.1301 -0.9717 0.1973
vn 0.1472 -0.9878 0.0514
vn 0.1957 -0.9692 0.1497
vn 0.5046 -0.8234 -0.2596
vn 0.4784 -0.8301 -0.2864
vn 0.0425 -0.9990 0.0121
vn 0.1367 -0.9883 -0.0680
vn -0.1513 -0.9729 -0.1751
vn 0.1390 -0.9475 -0.2881
vn 0.0847 -0.9682 -0.2355
vn 0.1636 -0.9360 -0.3116
vn 0.3334 -0.8279 -0.4511
vn 0.2878 -0.8627 -0.4158
vn 0.4915 -0.6559 -0.5729
vn 0.3794 -0.7875 -0.4858
vn 0.1659 -0.9818 -0.0929
vn 0.2941 -0.9328 -0.2085
vn 0.3555 -0.9014 -0.2474
vn 0.3853 -0.8836 -0.2661
vn 0.5064 -0.7812 -0.3651
vn 0.6263 -0.0710 0.7763
vn 0.5294 -0.1702 0.8311
vn 0.6232 -0.0745 0.7785
vn -0.3624 0.1048 -0.9261
vn 0.0434 0.0301 -0.9986
vn 0.0517 0.0269 -0.9983
vn -0.3637 0.1047 -0.9256
vn -0.1711 -0.7632 0.6231
vn -0.3415 -0.8361 0.4294
vn -0.1793 -0.7678 0.6150
vn 0.0026 -0.6429 0.7659
vn 0.9853 -0.1241 -0.1177
vn 0.9894 -0.0545 0.1344
vn 0.9906 -0.0574 0.1242
vn -0.5426 -0.8186 0.1884
vn -0.6964 -0.7176 -0.0057
vn -0.6908 -0.7231 0.0027
vn 0.2836 -0.0627 -0.9569
vn 0.8672 -0.0026 0.4979
vn 0.7279 -0.0296 0.6850
vn 0.7298 -0.0293 0.6831
vn 0.8665 -0.0028 0.4992
vn -0.7969 -0.5732 -0.1909
vn -0.8917 -0.4092 -0.1933
vn 0.7978 0.5937 -0.1053
vn 0.7258 0.5576 -0.4028
vn -0.9054 -0.0330 0.4232
vn -0.7497 -0.3779 0.5432
vn 0.9663 0.2436 -0.0830
vn -0.5270 0.0896 -0.8451
vn -0.3739 -0.4894 0.7878
vn -0.4711 0.1166 -0.8743
vn -0.4153 0.1225 -0.9014
vn -0.4702 0.1166 -0.8748
vn -0.5247 0.1102 -0.8441
vn 0.4541 0.1718 -0.8743
vn -0.5741 0.1189 -0.8101
vn -0.5776 0.1111 -0.8088
vn -0.5741 0.1188 -0.8101
vn 0.3602 0.4261 -0.8299
vn -0.7227 -0.0439 -0.6898
vn -0.5707 0.1266 -0.8114
vn 0.6686 -0.0389 0.7426
vn 0.7913 0.0441 0.6099
vn 0.7484 0.0204 0.6629
vn 0.7489 0.0207 0.6623
vn -0.8237 -0.2431 0.5123
vn 0.7019 -0.0033 0.7123
vn 0.7071 0.0268 0.7066
vn -0.5268 0.8292 -0.1871
vn -0.4485 0.8883 -0.0986
vn -0.4839 0.8467 -0.2211
vn -0.5349 0.8099 -0.2408
vn -0.3352 0.9397 -0.0679
vn -0.2273 0.9688 -0.0987
vn -0.2243 0.9553 -0.1928
vn -0.3471 0.9198 -0.1830
vn -0.3375 0.8850 0.3206
vn -0.2469 0.9468 0.2064
vn -0.2788 0.9542 0.1087
vn -0.3865 0.9053 0.1762
vn -0.1677 0.9846 0.0495
vn -0.1017 0.9905 0.0928
vn -0.1416 0.9883 -0.0559
vn -0.2206 0.9750 -0.0245
vn -0.1372 0.9779 0.1578
vn -0.0855 0.9849 0.1503
vn -0.1730 0.9727 -0.1544
vn -0.1838 0.9617 -0.2032
vn -0.3754 0.8434 0.3845
vn -0.3985 0.8590 0.3213
vn -0.4013 0.9157 0.0228
vn -0.4726 0.8799 0.0496
vn -0.3728 0.9278 0.0123
vn -0.2567 0.9664 -0.0098
vn -0.3585 0.9318 0.0575
vn -0.2974 0.9542 0.0333
vn -0.4706 0.8806 0.0544
vn -0.1446 0.9890 -0.0328
vn -0.2637 0.9644 0.0202
vn 0.5036 -0.8419 0.1940
vn 0.5089 -0.8291 0.2316
vn 0.4657 -0.8590 0.2126
vn 0.4396 -0.8895 0.1247
vn 0.3368 -0.9354 0.1075
vn 0.3469 -0.9206 0.1793
vn 0.2455 -0.9503 0.1916
vn 0.2460 -0.9610 0.1261
vn 0.3304 -0.8952 -0.2991
vn 0.3652 -0.9104 -0.1943
vn 0.2651 -0.9539 -0.1408
vn 0.2490 -0.9472 -0.2019
vn 0.1743 -0.9808 -0.0873
vn 0.2045 -0.9779 -0.0444
vn 0.1609 -0.9869 -0.0083
vn 0.1324 -0.9842 -0.1173
vn 0.1559 -0.9745 -0.1613
vn 0.1209 -0.9798 -0.1591
vn 0.2165 -0.9550 0.2028
vn 0.2063 -0.9643 0.1660
vn 0.3600 -0.8638 -0.3525
vn 0.3757 -0.8747 -0.3061
vn 0.4329 -0.8964 -0.0956
vn 0.3690 -0.9249 -0.0913
vn 0.3448 -0.9344 -0.0896
vn 0.2240 -0.9727 -0.0606
vn 0.3078 -0.9503 0.0459
vn 0.3572 -0.9337 0.0257
vn 0.4664 -0.8845 0.0085
vn 0.1794 -0.9811 0.0727
vn 0.2812 -0.9580 0.0565
vn -0.2196 -0.0477 -0.9744
vn -0.0581 -0.0159 -0.9982
vn -0.2174 -0.0472 -0.9749
vn -0.1499 -0.0129 0.9886
vn -0.5207 -0.2038 0.8291
vn -0.4917 -0.1752 0.8530
vn -0.1451 -0.0125 0.9893
vn 0.9184 0.0882 -0.3858
vn 0.6423 0.1318 -0.7551
vn -0.8875 -0.3987 -0.2310
vn -0.8512 -0.2902 -0.4372
vn -0.8372 -0.2646 -0.4787
vn 0.9869 0.1065 -0.1208
vn -0.6477 -0.3402 0.6817
vn -0.6140 -0.1417 -0.7765
vn -0.4480 -0.1328 -0.8841
vn -0.4482 -0.1329 -0.8840
vn -0.6107 -0.1417 -0.7791
vn 0.9219 0.2087 0.3265
vn -0.9528 -0.2282 -0.2002
vn 0.8139 0.3191 -0.4856
vn 0.9376 0.2758 0.2117
vn 0.8874 0.4513 -0.0944
vn -0.8280 -0.1216 0.5474
vn -0.4347 -0.1246 -0.8919
vn -0.3729 -0.0777 -0.9246
vn 0.0871 0.0312 0.9957
vn 0.0465 0.0131 0.9988
vn 0.0870 0.0311 0.9957
vn 0.0416 0.0018 0.9991
vn -0.6029 -0.1801 0.7772
vn 0.4260 0.1144 0.8975
vn 0.1274 0.0491 0.9906
vn 0.4534 0.7415 0.4946
vn 0.4254 0.8407 0.3351
vn 0.3777 0.7988 0.4683
vn 0.4299 0.7277 0.5344
vn 0.0435 0.9985 0.0329
vn -0.1526 0.9866 -0.0575
vn -0.2060 0.9780 0.0338
vn -0.0146 0.9927 0.1195
vn 0.4496 0.8874 -0.1018
vn 0.2998 0.9445 -0.1346
vn 0.2606 0.9653 -0.0183
vn 0.3995 0.9165 0.0205
vn -0.0900 0.9795 -0.1800
vn -0.1569 0.9465 -0.2821
vn -0.2038 0.9700 -0.1326
vn -0.0626 0.9961 -0.0621
vn -0.0522 0.9570 -0.2854
vn -0.1385 0.9317 -0.3357
vn 0.3250 0.9266 0.1890
vn 0.1926 0.9741 0.1182
vn 0.1322 0.9676 0.2152
vn 0.2494 0.9150 0.3171
vn -0.2699 0.9618 -0.0463
vn -0.2988 0.9543 0.0003
vn 0.7240 0.6853 -0.0792
vn 0.6421 0.7618 -0.0857
vn 0.5679 0.8209 0.0599
vn 0.7027 0.7110 -0.0268
vn 0.1340 0.9724 -0.1912
vn 0.1060 0.9891 -0.1018
vn 0.4340 0.8806 0.1902
vn 0.5624 0.7953 0.2262
vn 0.5534 0.7839 0.2816
vn 0.4510 0.8885 0.0846
vn 0.3598 0.9317 0.0505
vn 0.3159 0.9482 0.0345
vn 0.1729 0.9848 -0.0192
vn 0.1021 0.9933 -0.0548
vn -0.1871 0.9671 -0.1725
vn 0.0267 0.9954 -0.0920
vn 0.3905 0.9033 0.1776
vn 0.1852 0.9803 0.0688
vn 0.2695 0.9546 0.1267
vn 0.1420 0.9891 0.0394
vn -0.0027 0.9995 -0.0320
vn -0.4217 -0.7641 -0.4883
vn -0.4104 -0.7556 -0.5106
vn -0.3646 -0.8163 -0.4481
vn -0.3820 -0.8481 -0.3671
vn -0.0132 -0.9964 -0.0833
vn 0.0131 -0.9930 -0.1176
vn 0.1834 -0.9820 -0.0456
vn 0.1552 -0.9879 -0.0039
vn -0.4471 -0.8894 0.0951
vn -0.4190 -0.9073 0.0348
vn -0.2777 -0.9572 0.0822
vn -0.2989 -0.9452 0.1314
vn 0.0478 -0.9745 0.2194
vn 0.0176 -0.9863 0.1638
vn 0.1263 -0.9726 0.1954
vn 0.1052 -0.9522 0.2869
vn 0.0297 -0.9608 0.2758
vn 0.0971 -0.9422 0.3206
vn -0.2828 -0.9286 -0.2404
vn -0.2518 -0.9163 -0.3115
vn -0.1343 -0.9679 -0.2124
vn -0.1624 -0.9724 -0.1677
vn 0.2613 -0.9650 -0.0227
vn 0.2445 -0.9696 0.0003
vn -0.6931 -0.7164 0.0797
vn -0.6760 -0.7355 0.0456
vn -0.5693 -0.8221 -0.0085
vn -0.6194 -0.7808 0.0817
vn -0.1337 -0.9728 0.1894
vn -0.1249 -0.9803 0.1532
vn -0.5761 -0.8086 -0.1199
vn -0.4816 -0.8734 -0.0722
vn -0.4743 -0.7986 -0.3705
vn -0.2896 -0.9430 -0.1638
vn -0.3574 -0.9143 -0.1907
vn -0.2579 -0.9543 -0.1511
vn -0.0399 -0.9980 -0.0485
vn -0.1002 -0.9919 -0.0779
vn 0.1983 -0.9782 0.0624
vn 0.0232 -0.9996 -0.0175
vn -0.4504 -0.8910 -0.0570
vn -0.2969 -0.9548 0.0106
vn -0.2314 -0.9715 0.0517
vn -0.1982 -0.9775 0.0721
vn -0.0284 -0.9883 0.1497
vn -0.4518 0.0576 0.8903
vn -0.5791 0.0413 0.8142
vn -0.4564 0.0571 0.8879
vn 0.6617 -0.2020 -0.7221
vn 0.7908 -0.4525 -0.4121
vn 0.7912 -0.4582 -0.4052
vn 0.6609 -0.2013 -0.7230
vn -0.9666 -0.2561 0.0099
vn -0.9105 -0.3373 -0.2393
vn -0.9655 -0.2603 -0.0017
vn -0.9555 -0.1617 0.2466
vn 0.3023 -0.5357 0.7885
vn 0.1518 -0.3656 0.9183
vn 0.1582 -0.3731 0.9142
vn -0.7748 -0.3563 -0.5222
vn -0.6128 -0.3053 -0.7289
vn -0.6207 -0.3080 -0.7210
vn 0.7746 -0.6007 -0.1979
vn -0.1304 -0.1094 0.9854
vn -0.3288 0.0092 0.9443
vn -0.3267 0.0078 0.9451
vn -0.1317 -0.1087 0.9853
vn -0.4169 -0.2363 -0.8777
vn -0.3475 -0.0696 -0.9351
vn 0.6548 0.1159 0.7469
vn 0.8398 -0.0220 0.5425
vn -0.6031 0.5199 -0.6050
vn -0.8495 0.2393 -0.4702
vn 0.4835 -0.2188 0.8476
vn 0.5437 -0.1130 -0.8317
vn -0.9920 0.1170 -0.0480
vn 0.5977 -0.1266 -0.7917
vn 0.6379 -0.1560 -0.7542
vn 0.5983 -0.1271 -0.7911
vn 0.5555 -0.0969 -0.8258
vn 0.8968 -0.4415 0.0270
vn 0.5204 -0.0552 -0.8522
vn 0.5138 -0.0594 -0.8558
vn 0.5203 -0.0552 -0.8522
vn 0.9833 -0.1816 0.0065
vn 0.2914 -0.0721 -0.9539
vn 0.5268 -0.0509 -0.8485
vn -0.3953 0.0513 0.9171
vn -0.2105 0.0089 0.9775
vn -0.2771 0.0310 0.9603
vn -0.2764 0.0307 0.9606
vn -0.7692 0.3614 -0.5270
vn -0.3419 0.0528 0.9382
vn -0.3186 0.0723 0.9451
vn 0.1087 0.9851 -0.1336
vn 0.1015 0.9948 -0.0020
vn 0.1641 0.9792 -0.1196
vn 0.1399 0.9736 -0.1806
vn 0.1560 0.9813 0.1131
vn 0.2485 0.9523 0.1769
vn 0.3189 0.9409 0.1140
vn 0.2325 0.9723 0.0245
vn -0.1632 0.9280 0.3350
vn -0.0056 0.9376 0.3478
vn 0.0548 0.9619 0.2679
vn -0.0720 0.9729 0.2195
vn 0.1713 0.9330 0.3164
vn 0.1760 0.9039 0.3898
vn 0.2685 0.9251 0.2686
vn 0.1965 0.9530 0.2307
vn 0.1022 0.9098 0.4023
vn 0.1387 0.8898 0.4347
vn 0.3228 0.9293 0.1793
vn 0.3513 0.9262 0.1369
vn -0.2463 0.9100 0.3335
vn -0.2053 0.9364 0.2845
vn 0.0419 0.9923 0.1170
vn -0.0293 0.9970 0.0723
vn 0.0694 0.9885 0.1341
vn 0.1626 0.9635 0.2126
vn 0.0436 0.9838 0.1737
vn 0.1029 0.9727 0.2080
vn -0.0317 0.9965 0.0769
vn 0.2493 0.9266 0.2815
vn 0.1348 0.9647 0.2261
vn -0.1307 -0.9844 0.1174
vn -0.1530 -0.9768 0.1499
vn -0.1713 -0.9804 0.0972
vn -0.1270 -0.9918 0.0121
vn -0.1845 -0.9791 -0.0854
vn -0.2301 -0.9728 -0.0274
vn -0.3046 -0.9473 -0.0987
vn -0.2569 -0.9556 -0.1441
vn 0.1395 -0.9336 -0.3302
vn 0.0728 -0.9662 -0.2471
vn -0.0374 -0.9541 -0.2971
vn 0.0032 -0.9391 -0.3437
vn -0.1373 -0.9324 -0.3343
vn -0.1529 -0.9459 -0.2860
vn -0.2077 -0.9324 -0.2959
vn -0.1382 -0.9136 -0.3824
vn -0.0881 -0.9163 -0.3907
vn -0.1108 -0.9032 -0.4147
vn -0.3308 -0.9369 -0.1128
vn -0.3108 -0.9391 -0.1465
vn 0.2068 -0.9204 -0.3317
vn 0.1762 -0.9387 -0.2964
vn 0.0379 -0.9902 -0.1342
vn -0.0094 -0.9826 -0.1854
vn -0.0270 -0.9786 -0.2041
vn -0.1280 -0.9510 -0.2813
vn -0.1574 -0.9762 -0.1495
vn -0.1093 -0.9864 -0.1228
vn -0.0206 -0.9989 -0.0415
vn -0.2585 -0.9382 -0.2300
vn -0.1826 -0.9695 -0.1635
vn 0.6194 0.0882 -0.7801
vn 0.7367 0.0344 -0.6754
vn 0.6211 0.0875 -0.7788
vn -0.8530 0.0461 0.5199
vn -0.9927 0.0720 0.0966
vn -0.9864 0.0816 0.1424
vn -0.8508 0.0440 0.5237
vn 0.8333 -0.3812 0.4004
vn 0.9804 -0.1970 0.0017
vn -0.4335 0.1095 -0.8945
vn -0.2203 0.1885 -0.9570
vn -0.1726 0.2043 -0.9636
vn 0.6714 -0.4051 0.6206
vn -0.9905 0.0215 -0.1356
vn 0.2193 0.2030 -0.9543
vn 0.3970 0.1287 -0.9087
vn 0.3969 0.1287 -0.9088
vn 0.2230 0.2013 -0.9538
vn 0.3202 -0.2924 0.9011
vn -0.4411 0.2889 -0.8497
vn 0.9238 -0.1274 0.3610
vn 0.4384 -0.2404 0.8660
vn 0.7018 -0.0578 0.7101
vn -0.9189 0.3037 -0.2519
vn 0.4130 0.1292 -0.9015
vn 0.4868 0.1390 -0.8624
vn -0.7140 -0.0359 0.6992
vn -0.7444 -0.0310 0.6670
vn -0.7142 -0.0359 0.6990
vn -0.7509 -0.0383 0.6593
vn -0.9907 0.1350 0.0189
vn -0.4252 -0.1336 0.8952
vn -0.6823 -0.0407 0.7299
vt 0.609747 0.484664
vt 0.616441 0.472083
vt 0.612476 0.469021
vt 0.605009 0.480688
vt 0.615690 0.473154
vt 0.610974 0.471163
vt 0.600270 0.476711
vt 0.607008 0.468102
vt 0.607759 0.467031
vt 0.622119 0.459004
vt 0.619147 0.456524
vt 0.621524 0.459858
vt 0.617956 0.458232
vt 0.614984 0.455752
vt 0.615580 0.454898
vt 0.629145 0.447117
vt 0.627290 0.445109
vt 0.629081 0.447278
vt 0.627161 0.445431
vt 0.625305 0.443423
vt 0.625370 0.443262
vt 0.639016 0.438937
vt 0.638253 0.437611
vt 0.639507 0.438700
vt 0.639234 0.437135
vt 0.638471 0.435809
vt 0.637980 0.436047
vt 0.624678 0.775393
vt 0.626048 0.776186
vt 0.626580 0.776742
vt 0.625978 0.776376
vt 0.629544 0.777580
vt 0.629419 0.777923
vt 0.629446 0.777849
vt 0.634974 0.779557
vt 0.638549 0.780736
vt 0.637784 0.780819
vt 0.634849 0.779899
vt 0.640108 0.781009
vt 0.638480 0.780926
vt 0.634876 0.779826
vt 0.624823 0.774993
vt 0.626124 0.775977
vt 0.626880 0.775918
vt 0.626382 0.775266
vt 0.629591 0.777450
vt 0.629754 0.777003
vt 0.629957 0.776446
vt 0.640253 0.780609
vt 0.638883 0.779816
vt 0.638083 0.779996
vt 0.638625 0.780527
vt 0.635387 0.778422
vt 0.635184 0.778980
vt 0.635021 0.779426
vt 0.624929 0.774701
vt 0.626558 0.774784
vt 0.627099 0.775315
vt 0.626299 0.775494
vt 0.630161 0.775884
vt 0.629999 0.776331
vt 0.629796 0.776889
vt 0.640360 0.780317
vt 0.638801 0.780044
vt 0.638303 0.779392
vt 0.639059 0.779334
vt 0.635226 0.778865
vt 0.635429 0.778307
vt 0.635591 0.777860
vt 0.625075 0.774302
vt 0.626634 0.774575
vt 0.627399 0.774491
vt 0.626703 0.774384
vt 0.630209 0.775754
vt 0.630333 0.775411
vt 0.630307 0.775485
vt 0.640505 0.779918
vt 0.639204 0.778935
vt 0.638603 0.778569
vt 0.639135 0.779125
vt 0.635737 0.777461
vt 0.635763 0.777388
vt 0.635639 0.777730
vt 0.634898 0.862238
vt 0.638436 0.863224
vt 0.636292 0.863762
vt 0.631602 0.862055
vt 0.631714 0.859934
vt 0.625660 0.857498
vt 0.622537 0.858756
vt 0.629155 0.861165
vt 0.635818 0.863590
vt 0.633707 0.862821
vt 0.634695 0.865134
vt 0.636843 0.865614
vt 0.624075 0.861688
vt 0.610982 0.856125
vt 0.615068 0.859281
vt 0.625775 0.863803
vt 0.609356 0.853958
vt 0.637900 0.862728
vt 0.635953 0.861651
vt 0.611993 0.853345
vt 0.637590 0.865513
vt 0.634243 0.864036
vt 0.630324 0.863790
vt 0.636595 0.866703
vt 0.635962 0.865729
vt 0.637313 0.862051
vt 0.638331 0.862115
vt 0.638417 0.861968
vt 0.637662 0.861108
vt 0.636021 0.860285
vt 0.635008 0.859771
vt 0.632341 0.858656
vt 0.627250 0.856736
vt 0.617148 0.853553
vt 0.629316 0.857407
vt 0.635879 0.866490
vt 0.633154 0.866100
vt 0.635281 0.866464
vt 0.630655 0.865328
vt 0.629042 0.864824
vt 0.632087 0.861070
vt 0.628832 0.861047
vt 0.632425 0.862355
vt 0.634737 0.861741
vt 0.628306 0.858628
vt 0.625737 0.859921
vt 0.619528 0.857661
vt 0.622677 0.856342
vt 0.631986 0.862195
vt 0.633045 0.864327
vt 0.630989 0.863855
vt 0.630015 0.861478
vt 0.621024 0.860637
vt 0.623218 0.862882
vt 0.612990 0.858531
vt 0.609001 0.855477
vt 0.607503 0.853284
vt 0.634116 0.861271
vt 0.632333 0.860253
vt 0.610062 0.852567
vt 0.631336 0.863120
vt 0.633723 0.864214
vt 0.626915 0.862627
vt 0.632912 0.864637
vt 0.633467 0.865576
vt 0.634296 0.860923
vt 0.635460 0.861055
vt 0.634579 0.859979
vt 0.635441 0.860881
vt 0.633276 0.859284
vt 0.629507 0.857615
vt 0.632255 0.858764
vt 0.615085 0.852793
vt 0.624990 0.855902
vt 0.626789 0.856482
vt 0.633058 0.865465
vt 0.632353 0.865403
vt 0.630197 0.865032
vt 0.627992 0.864362
vt 0.626509 0.863906
vt 0.625936 0.870638
vt 0.619932 0.865918
vt 0.621422 0.868587
vt 0.628289 0.873572
vt 0.617167 0.863614
vt 0.615603 0.862463
vt 0.616006 0.865543
vt 0.617910 0.866295
vt 0.615301 0.866270
vt 0.619127 0.868028
vt 0.613440 0.865847
vt 0.614362 0.866406
vt 0.613389 0.867169
vt 0.613177 0.867078
vt 0.616797 0.866815
vt 0.615695 0.864199
vt 0.625090 0.872046
vt 0.617732 0.868665
vt 0.622057 0.870949
vt 0.615259 0.867609
vt 0.614392 0.867300
vt 0.619612 0.864213
vt 0.617703 0.862514
vt 0.623827 0.868005
vt 0.620940 0.865462
vt 0.616360 0.861778
vt 0.616146 0.862592
vt 0.616645 0.861759
vt 0.627743 0.871966
vt 0.629993 0.875029
vt 0.623831 0.870624
vt 0.622278 0.867723
vt 0.619662 0.865603
vt 0.620387 0.868375
vt 0.618513 0.867634
vt 0.618044 0.864384
vt 0.621438 0.870128
vt 0.617622 0.868351
vt 0.615895 0.867985
vt 0.615174 0.868756
vt 0.615326 0.868787
vt 0.616238 0.868082
vt 0.618769 0.868450
vt 0.617665 0.865720
vt 0.626719 0.873645
vt 0.623937 0.872564
vt 0.619707 0.870342
vt 0.617090 0.869155
vt 0.616297 0.868906
vt 0.619720 0.864197
vt 0.621523 0.865813
vt 0.625721 0.869586
vt 0.622722 0.866957
vt 0.618090 0.864196
vt 0.618239 0.863336
vt 0.618541 0.863338
vt 0.639983 0.862681
vt 0.640641 0.866014
vt 0.638776 0.864341
vt 0.636905 0.860554
vt 0.627489 0.866076
vt 0.618732 0.864419
vt 0.615689 0.861986
vt 0.625096 0.863964
vt 0.636460 0.865015
vt 0.632297 0.864962
vt 0.633861 0.864520
vt 0.637887 0.864781
vt 0.618115 0.861528
vt 0.600563 0.857355
vt 0.606386 0.858007
vt 0.621105 0.861247
vt 0.598386 0.857331
vt 0.638278 0.866751
vt 0.634296 0.866896
vt 0.600922 0.859253
vt 0.640336 0.864441
vt 0.639748 0.861454
vt 0.627008 0.863449
vt 0.638664 0.863748
vt 0.640563 0.862418
vt 0.641054 0.864936
vt 0.640457 0.866360
vt 0.639886 0.866790
vt 0.637192 0.867568
vt 0.634093 0.867535
vt 0.632285 0.867463
vt 0.628000 0.866959
vt 0.620645 0.865519
vt 0.607122 0.861916
vt 0.623537 0.866186
vt 0.636992 0.863844
vt 0.632096 0.863334
vt 0.635752 0.863794
vt 0.628219 0.862702
vt 0.625811 0.862250
vt 0.636563 0.861603
vt 0.633535 0.859444
vt 0.634270 0.862692
vt 0.636313 0.864491
vt 0.623835 0.864488
vt 0.621455 0.862337
vt 0.612629 0.860481
vt 0.615674 0.862963
vt 0.632124 0.863318
vt 0.633613 0.863055
vt 0.629787 0.862795
vt 0.628226 0.863272
vt 0.615013 0.859981
vt 0.618449 0.859993
vt 0.604354 0.856925
vt 0.598687 0.856270
vt 0.596669 0.856321
vt 0.633977 0.865111
vt 0.630281 0.865279
vt 0.599066 0.858258
vt 0.636293 0.860200
vt 0.635873 0.862734
vt 0.623386 0.861795
vt 0.636965 0.861133
vt 0.635079 0.862382
vt 0.637471 0.863693
vt 0.637106 0.865144
vt 0.633722 0.866195
vt 0.636473 0.865496
vt 0.631046 0.866289
vt 0.624963 0.865622
vt 0.629279 0.866190
vt 0.605107 0.860847
vt 0.618312 0.864409
vt 0.620878 0.864968
vt 0.633792 0.862597
vt 0.632482 0.862473
vt 0.628853 0.861970
vt 0.625340 0.861454
vt 0.623125 0.861035
vt 0.632591 0.872116
vt 0.622082 0.867120
vt 0.625077 0.868987
vt 0.636182 0.874526
vt 0.615563 0.864760
vt 0.609570 0.863481
vt 0.610866 0.864973
vt 0.617813 0.866257
vt 0.616736 0.864944
vt 0.623820 0.867606
vt 0.610697 0.863822
vt 0.607067 0.864504
vt 0.608788 0.864343
vt 0.612591 0.864210
vt 0.607864 0.865890
vt 0.605747 0.864241
vt 0.633434 0.872285
vt 0.622903 0.867174
vt 0.629738 0.870305
vt 0.618182 0.865487
vt 0.616288 0.864920
vt 0.619276 0.866239
vt 0.614278 0.864563
vt 0.627977 0.869950
vt 0.622242 0.867432
vt 0.608718 0.863569
vt 0.606049 0.863795
vt 0.610213 0.863707
vt 0.633984 0.873575
vt 0.637625 0.875988
vt 0.627216 0.871045
vt 0.624033 0.869049
vt 0.617776 0.866840
vt 0.620100 0.868368
vt 0.613261 0.867104
vt 0.611797 0.865507
vt 0.625982 0.869642
vt 0.618978 0.866977
vt 0.613114 0.865946
vt 0.614492 0.865913
vt 0.610674 0.865990
vt 0.608986 0.866145
vt 0.609817 0.867562
vt 0.607575 0.865864
vt 0.634985 0.873770
vt 0.631389 0.871921
vt 0.624681 0.868865
vt 0.619859 0.867050
vt 0.618071 0.866546
vt 0.616134 0.866277
vt 0.620996 0.867866
vt 0.629604 0.871559
vt 0.623809 0.868949
vt 0.607928 0.865440
vt 0.610510 0.865162
vt 0.611991 0.865318
vt 0.625654 0.881825
vt 0.615093 0.869951
vt 0.617190 0.871197
vt 0.629301 0.884578
vt 0.609664 0.859551
vt 0.611248 0.858505
vt 0.613146 0.858671
vt 0.611268 0.859694
vt 0.613635 0.866294
vt 0.611620 0.862548
vt 0.609964 0.860350
vt 0.611809 0.863979
vt 0.611142 0.856189
vt 0.617947 0.858433
vt 0.615343 0.856703
vt 0.610623 0.855981
vt 0.620111 0.860854
vt 0.611915 0.865596
vt 0.610063 0.862253
vt 0.618031 0.859963
vt 0.615046 0.868712
vt 0.625598 0.880833
vt 0.609546 0.857435
vt 0.613371 0.865560
vt 0.620503 0.874769
vt 0.620608 0.876794
vt 0.615996 0.871379
vt 0.614572 0.869612
vt 0.611659 0.865569
vt 0.610602 0.863386
vt 0.610193 0.862359
vt 0.609969 0.860704
vt 0.611204 0.859663
vt 0.615516 0.859853
vt 0.610590 0.859968
vt 0.612062 0.863457
vt 0.610003 0.859159
vt 0.611187 0.861942
vt 0.609863 0.857623
vt 0.609985 0.856911
vt 0.627875 0.883295
vt 0.631361 0.885817
vt 0.620514 0.873513
vt 0.618355 0.872313
vt 0.613364 0.862619
vt 0.614976 0.862749
vt 0.616735 0.861786
vt 0.614814 0.861623
vt 0.617215 0.868965
vt 0.615328 0.866560
vt 0.613640 0.863190
vt 0.615314 0.865441
vt 0.614732 0.859265
vt 0.613540 0.858450
vt 0.617999 0.859085
vt 0.620558 0.860788
vt 0.622698 0.863265
vt 0.615481 0.868295
vt 0.613702 0.865134
vt 0.620645 0.862390
vt 0.627819 0.882171
vt 0.618369 0.870997
vt 0.613197 0.860398
vt 0.623010 0.876440
vt 0.616184 0.867593
vt 0.623077 0.878446
vt 0.618464 0.873104
vt 0.614592 0.867787
vt 0.617253 0.871557
vt 0.613305 0.865481
vt 0.613010 0.863196
vt 0.613019 0.864611
vt 0.618168 0.862242
vt 0.613836 0.861921
vt 0.613411 0.862332
vt 0.614680 0.865399
vt 0.614019 0.864107
vt 0.612996 0.861518
vt 0.612651 0.859870
vt 0.612759 0.859208
vt 0.619747 0.870903
vt 0.620338 0.868426
vt 0.619359 0.867670
vt 0.617868 0.870129
vt 0.618554 0.865871
vt 0.614429 0.862105
vt 0.612694 0.859628
vt 0.617844 0.864640
vt 0.620808 0.864469
vt 0.622046 0.867853
vt 0.616470 0.859911
vt 0.609745 0.855600
vt 0.612908 0.856620
vt 0.618261 0.860332
vt 0.606366 0.855120
vt 0.607789 0.856513
vt 0.620992 0.870322
vt 0.622612 0.866693
vt 0.622228 0.869082
vt 0.621555 0.864280
vt 0.620824 0.863142
vt 0.618758 0.867882
vt 0.616981 0.865782
vt 0.619630 0.870300
vt 0.619275 0.868791
vt 0.612679 0.861871
vt 0.608859 0.858512
vt 0.614157 0.863197
vt 0.617365 0.870109
vt 0.615605 0.869263
vt 0.616309 0.866564
vt 0.617357 0.867433
vt 0.615499 0.864865
vt 0.614831 0.863600
vt 0.609762 0.858668
vt 0.611543 0.861207
vt 0.619132 0.866726
vt 0.617997 0.863436
vt 0.613612 0.858932
vt 0.615905 0.859546
vt 0.610689 0.855909
vt 0.607617 0.854872
vt 0.604158 0.854440
vt 0.605523 0.855848
vt 0.618865 0.869415
vt 0.619802 0.868175
vt 0.620135 0.865801
vt 0.619307 0.863491
vt 0.618534 0.862358
vt 0.614532 0.864943
vt 0.616382 0.867045
vt 0.617180 0.869405
vt 0.617010 0.867972
vt 0.606630 0.857807
vt 0.610487 0.861159
vt 0.611898 0.862443
s 1
f 1/1/1 7/2/2 12/3/3 6/4/4
f 2/1/5 8/5/6 7/2/2 1/1/1
f 3/4/7 9/6/8 8/5/6 2/1/5
f 4/7/9 10/8/10 9/6/8 3/4/7
f 5/7/11 11/9/12 10/8/10 4/7/9
f 6/4/4 12/3/3 11/9/12 5/7/11
f 7/2/2 13/10/13 18/11/14 12/3/3
f 8/5/6 14/12/15 13/10/13 7/2/2
f 9/6/8 15/13/16 14/12/15 8/5/6
f 10/8/10 16/14/17 15/13/16 9/6/8
f 11/9/12 17/15/18 16/14/17 10/8/10
f 12/3/3 18/11/14 17/15/18 11/9/12
f 13/10/13 19/16/19 24/17/20 18/11/14
f 14/12/15 20/18/21 19/16/19 13/10/13
f 15/13/16 21/19/22 20/18/21 14/12/15
f 16/14/17 22/20/23 21/19/22 15/13/16
f 17/15/18 23/21/24 22/20/23 16/14/17
f 18/11/14 24/17/20 23/21/24 17/15/18
f 19/16/19 25/22/25 30/23/26 24/17/20
f 20/18/21 26/24/27 25/22/25 19/16/19
f 21/19/22 27/25/28 26/24/27 20/18/21
f 22/20/23 28/26/29 27/25/28 21/19/22
f 23/21/24 29/27/30 28/26/29 22/20/23
f 24/17/20 30/23/26 29/27/30 23/21/24
f 31/28/31 34/29/32 35/30/33 37/31/34
f 32/32/35 36/33/36 35/30/33 34/29/32
f 33/34/37 37/31/34 35/30/33 36/33/36
f 38/35/38 41/36/39 42/37/40 44/38/41
f 39/39/42 43/40/43 42/37/40 41/36/39
f 40/41/44 44/38/41 42/37/40 43/40/43
f 45/42/45 48/43/46 49/44/47 51/45/48
f 46/46/49 50/47/50 49/44/47 48/43/46
f 47/48/51 51/45/48 49/44/47 50/47/50
f 52/49/52 55/50/53 56/51/54 58/52/55
f 53/53/56 57/54/57 56/51/54 55/50/53
f 54/55/58 58/52/55 56/51/54 57/54/57
f 59/56/59 62/57/60 63/58/61 65/59/62
f 60/60/63 64/61/64 63/58/61 62/57/60
f 61/62/65 65/59/62 63/58/61 64/61/64
f 66/63/66 69/64/67 70/65/68 72/66/69
f 67/67/70 71/68/71 70/65/68 69/64/67
f 68/69/72 72/66/69 70/65/68 71/68/71
f 73/70/73 76/71/74 77/72/75 79/73/76
f 74/74/77 78/75/78 77/72/75 76/71/74
f 75/76/79 79/73/76 77/72/75 78/75/78
f 80/77/80 83/78/81 84/79/82 86/80/83
f 81/81/84 85/82/85 84/79/82 83/78/81
f 82/83/86 86/80/83 84/79/82 85/82/85
f 45/42/45 31/28/31 37/31/34 48/43/46
f 48/43/46 37/31/34 33/34/37 46/46/49
f 32/32/35 38/35/38 44/38/41 36/33/36
f 36/33/36 44/38/41 40/41/44 33/34/37
f 39/39/42 52/49/52 58/52/55 43/40/43
f 43/40/43 58/52/55 54/55/58 40/41/44
f 53/53/56 47/48/51 50/47/50 57/54/57
f 57/54/57 50/47/50 46/46/49 54/55/58
f 73/70/73 45/42/45 51/45/48 76/71/74
f 76/71/74 51/45/48 47/48/51 74/74/77
f 52/49/52 80/77/80 86/80/83 55/50/53
f 55/50/53 86/80/83 82/83/86 53/53/56
f 81/81/84 75/76/79 78/75/78 85/82/85
f 85/82/85 78/75/78 74/74/77 82/83/86
f 59/56/59 73/70/73 79/73/76 62/57/60
f 62/57/60 79/73/76 75/76/79 60/60/63
f 80/77/80 66/63/66 72/66/69 83/78/81
f 83/78/81 72/66/69 68/69/72 81/81/84
f 67/67/70 61/62/65 64/61/64 71/68/71
f 71/68/71 64/61/64 60/60/63 68/69/72
f 31/28/31 59/56/59 65/59/62 34/29/32
f 34/29/32 65/59/62 61/62/65 32/32/35
f 66/63/66 39/39/42 41/36/39 69/64/67
f 69/64/67 41/36/39 38/35/38 67/67/70
f 45/42/45 73/70/73 59/56/59 31/28/31
f 33/34/37 40/41/44 54/55/58 46/46/49
f 61/62/65 67/67/70 38/35/38 32/32/35
f 80/77/80 52/49/52 39/39/42 66/63/66
f 47/48/51 53/53/56 82/83/86 74/74/77
f 75/76/79 81/81/84 68/69/72 60/60/63
f 101/84/87 105/85/88 106/86/89 91/87/90
f 115/88/91 103/89/92 108/90/93 116/91/94
f 112/92/95 107/93/96 93/94/97 110/95/98
f 94/96/99 99/97/100 89/98/101 97/99/102
f 108/90/103 92/100/104 99/97/100 94/96/99
f 111/101/105 104/102/106 107/93/107 112/92/108
f 103/89/92 100/103/109 92/100/110 108/90/93
f 91/87/111 106/86/112 102/104/113 98/105/114
f 116/91/115 108/90/103 94/96/99 114/106/116
f 98/105/114 102/104/113 95/107/117 87/108/118
f 105/85/88 111/101/105 112/92/108 106/86/89
f 106/86/112 112/92/95 110/95/98 102/104/113
f 107/93/96 116/91/115 114/106/116 93/94/97
f 104/102/106 115/88/91 116/91/94 107/93/107
f 88/109/119 118/110/119 105/85/88 101/84/87
f 105/85/88 117/111/120 109/112/121 111/101/105
f 109/112/121 120/113/122 104/102/106 111/101/105
f 104/102/106 119/114/123 113/115/124 115/88/91
f 103/89/92 121/116/125 90/117/125 100/103/109
f 113/115/124 122/118/126 103/89/92 115/88/91
f 102/104/113 110/95/98 123/119/127 95/107/117
f 110/95/98 93/94/97 96/120/128 124/121/129
f 93/94/97 114/106/116 125/122/130 96/120/128
f 114/106/116 94/96/99 97/99/102 126/123/131
f 141/124/132 131/125/133 146/126/134 145/127/135
f 155/128/136 156/129/137 148/130/138 143/131/139
f 152/132/140 150/133/141 133/134/142 147/135/143
f 134/136/144 137/137/145 129/138/146 139/139/147
f 148/130/148 134/136/144 139/139/147 132/140/149
f 151/141/150 152/132/151 147/135/152 144/142/153
f 143/131/139 148/130/138 132/140/154 140/143/155
f 131/125/156 138/144/157 142/145/158 146/126/159
f 156/129/160 154/146/161 134/136/144 148/130/148
f 138/144/157 127/147/162 135/148/163 142/145/158
f 145/127/135 146/126/134 152/132/151 151/141/150
f 146/126/159 142/145/158 150/133/141 152/132/140
f 147/135/143 133/134/142 154/146/161 156/129/160
f 144/142/153 147/135/152 156/129/137 155/128/136
f 128/149/164 141/124/132 145/127/135 158/150/164
f 145/127/135 151/141/150 149/151/165 157/152/166
f 149/151/165 151/141/150 144/142/153 160/153/167
f 144/142/153 155/128/136 153/154/168 159/155/169
f 143/131/139 140/143/155 130/156/170 161/157/170
f 153/154/168 155/128/136 143/131/139 162/158/171
f 142/145/158 135/148/163 163/159/172 150/133/141
f 150/133/141 164/160/173 136/161/174 133/134/142
f 133/134/142 136/161/174 165/162/175 154/146/161
f 154/146/161 166/163/176 137/137/145 134/136/144
f 97/99/177 89/98/178 129/138/178 137/137/179
f 88/109/180 101/84/181 141/124/182 128/149/183
f 99/97/184 92/100/185 132/140/185 139/139/186
f 89/98/187 99/97/184 139/139/186 129/138/187
f 91/87/188 98/105/189 138/144/190 131/125/188
f 92/100/191 100/103/192 140/143/193 132/140/191
f 101/84/181 91/87/194 131/125/194 141/124/182
f 87/108/195 95/107/196 135/148/197 127/147/198
f 98/105/189 87/108/195 127/147/198 138/144/190
f 100/103/192 90/117/199 130/156/199 140/143/193
f 103/89/200 122/118/200 162/158/200 143/131/200
f 121/116/201 103/89/201 143/131/201 161/157/201
f 114/106/202 126/123/202 166/163/202 154/146/202
f 105/85/203 118/110/203 158/150/203 145/127/203
f 104/102/204 120/113/204 160/153/204 144/142/204
f 110/95/205 124/121/205 164/160/205 150/133/205
f 118/110/206 88/109/180 128/149/183 158/150/206
f 125/122/207 114/106/207 154/146/207 165/162/207
f 109/112/208 117/111/209 157/152/209 149/151/210
f 120/113/211 109/112/208 149/151/210 160/153/211
f 117/111/212 105/85/212 145/127/212 157/152/212
f 113/115/213 119/114/214 159/155/214 153/154/215
f 119/114/216 104/102/216 144/142/216 159/155/216
f 90/117/217 121/116/217 161/157/217 130/156/217
f 122/118/218 113/115/213 153/154/215 162/158/218
f 95/107/196 123/119/219 163/159/219 135/148/197
f 124/121/220 96/120/221 136/161/222 164/160/220
f 123/119/223 110/95/223 150/133/223 163/159/223
f 96/120/221 125/122/224 165/162/224 136/161/222
f 126/123/225 97/99/177 137/137/179 166/163/225
f 180/164/226 185/165/227 186/166/228 171/167/229
f 184/168/230 183/169/231 188/170/232 187/171/233
f 186/166/234 187/171/235 173/172/236 181/173/237
f 174/174/238 178/175/239 169/176/240 176/177/241
f 188/170/242 172/178/243 178/175/239 174/174/238
f 185/165/227 184/168/230 187/171/233 186/166/228
f 183/169/231 179/179/244 172/178/245 188/170/232
f 171/167/246 186/166/234 181/173/237 177/180/247
f 187/171/235 188/170/242 174/174/238 173/172/236
f 177/180/247 181/173/237 175/181/248 167/182/249
f 181/173/237 173/172/236 189/183/250 175/181/248
f 173/172/236 174/174/238 176/177/241 190/184/251
f 185/165/227 191/185/252 182/186/253 184/168/230
f 168/187/254 192/188/254 185/165/227 180/164/226
f 183/169/231 193/189/255 170/190/255 179/179/244
f 182/186/253 194/191/256 183/169/231 184/168/230
f 208/192/257 199/193/258 214/194/259 213/195/260
f 212/196/261 215/197/262 216/198/263 211/199/264
f 214/194/265 209/200/266 201/201/267 215/197/268
f 202/202/269 204/203/270 197/204/271 206/205/272
f 216/198/273 202/202/269 206/205/272 200/206/274
f 213/195/260 214/194/259 215/197/262 212/196/261
f 211/199/264 216/198/263 200/206/275 207/207/276
f 199/193/277 205/208/278 209/200/266 214/194/265
f 215/197/268 201/201/267 202/202/269 216/198/273
f 205/208/278 195/209/279 203/210/280 209/200/266
f 209/200/266 203/210/280 217/211/281 201/201/267
f 201/201/267 218/212/282 204/203/270 202/202/269
f 213/195/260 212/196/261 210/213/283 219/214/284
f 196/215/285 208/192/257 213/195/260 220/216/285
f 211/199/264 207/207/276 198/217/286 221/218/286
f 210/213/283 212/196/261 211/199/264 222/219/287
f 176/177/288 169/176/289 197/204/289 204/203/290
f 168/187/291 180/164/292 208/192/293 196/215/294
f 178/175/295 172/178/295 200/206/295 206/205/295
f 169/176/296 178/175/296 206/205/296 197/204/296
f 171/167/297 177/180/298 205/208/299 199/193/297
f 172/178/300 179/179/300 207/207/300 200/206/300
f 180/164/292 171/167/301 199/193/301 208/192/293
f 167/182/302 175/181/303 203/210/304 195/209/305
f 177/180/298 167/182/302 195/209/305 205/208/299
f 179/179/306 170/190/306 198/217/306 207/207/306
f 173/172/307 190/184/307 218/212/307 201/201/307
f 189/183/308 173/172/308 201/201/308 217/211/308
f 183/169/309 194/191/309 222/219/309 211/199/309
f 185/165/310 192/188/310 220/216/310 213/195/310
f 193/189/311 183/169/311 211/199/311 221/218/311
f 175/181/303 189/183/312 217/211/312 203/210/304
f 190/184/313 176/177/288 204/203/290 218/212/313
f 182/186/314 191/185/315 219/214/315 210/213/316
f 192/188/317 168/187/291 196/215/294 220/216/317
f 191/185/318 185/165/318 213/195/318 219/214/318
f 170/190/319 193/189/319 221/218/319 198/217/319
f 194/191/320 182/186/314 210/213/316 222/219/320
f 237/220/321 241/221/322 242/222/323 227/223/324
f 251/224/325 239/225/326 244/226/327 252/227/328
f 248/228/329 243/229/330 229/230/331 246/231/332
f 230/232/333 235/233/334 225/234/335 233/235/336
f 244/226/337 228/236/338 235/233/334 230/232/333
f 247/237/339 240/238/340 243/229/341 248/228/342
f 239/225/326 236/239/343 228/236/344 244/226/327
f 227/223/345 242/222/346 238/240/347 234/241/348
f 252/227/349 244/226/337 230/232/333 250/242/350
f 234/241/348 238/240/347 231/243/351 223/244/352
f 241/221/322 247/237/339 248/228/342 242/222/323
f 242/222/346 248/228/329 246/231/332 238/240/347
f 243/229/330 252/227/349 250/242/350 229/230/331
f 240/238/340 251/224/325 252/227/328 243/229/341
f 224/245/353 254/246/353 241/221/322 237/220/321
f 241/221/322 253/247/354 245/248/355 247/237/339
f 245/248/355 256/249/356 240/238/340 247/237/339
f 240/238/340 255/250/357 249/251/358 251/224/325
f 239/225/326 257/252/359 226/253/359 236/239/343
f 249/251/358 258/254/360 239/225/326 251/224/325
f 238/240/347 246/231/332 259/255/361 231/243/351
f 246/231/332 229/230/331 232/256/362 260/257/363
f 229/230/331 250/242/350 261/258/364 232/256/362
f 250/242/350 230/232/333 233/235/336 262/259/365
f 277/260/366 267/261/367 282/262/368 281/263/369
f 291/264/370 292/265/371 284/266/372 279/267/373
f 288/268/374 286/269/375 269/270/376 283/271/377
f 270/272/378 273/273/379 265/274/380 275/275/381
f 284/266/382 270/272/378 275/275/381 268/276/383
f 287/277/384 288/268/385 283/271/386 280/278/387
f 279/267/373 284/266/372 268/276/388 276/279/389
f 267/261/390 274/280/391 278/281/392 282/262/393
f 292/265/394 290/282/395 270/272/378 284/266/382
f 274/280/391 263/283/396 271/284/397 278/281/392
f 281/263/369 282/262/368 288/268/385 287/277/384
f 282/262/393 278/281/392 286/269/375 288/268/374
f 283/271/377 269/270/376 290/282/395 292/265/394
f 280/278/387 283/271/386 292/265/371 291/264/370
f 264/285/398 277/260/366 281/263/369 294/286/398
f 281/263/369 287/277/384 285/287/399 293/288/400
f 285/287/399 287/277/384 280/278/387 296/289/401
f 280/278/387 291/264/370 289/290/402 295/291/403
f 279/267/373 276/279/389 266/292/404 297/293/404
f 289/290/402 291/264/370 279/267/373 298/294/405
f 278/281/392 271/284/397 299/295/406 286/269/375
f 286/269/375 300/296/407 272/297/408 269/270/376
f 269/270/376 272/297/408 301/298/409 290/282/395
f 290/282/395 302/299/410 273/273/379 270/272/378
f 233/235/411 225/234/412 265/274/412 273/273/413
f 224/245/414 237/220/415 277/260/416 264/285/417
f 235/233/418 228/236/419 268/276/419 275/275/420
f 225/234/421 235/233/418 275/275/420 265/274/421
f 227/223/422 234/241/423 274/280/424 267/261/422
f 228/236/425 236/239/426 276/279/427 268/276/425
f 237/220/415 227/223/428 267/261/428 277/260/416
f 223/244/429 231/243/430 271/284/431 263/283/432
f 234/241/423 223/244/429 263/283/432 274/280/424
f 236/239/426 226/253/433 266/292/433 276/279/427
f 239/225/434 258/254/434 298/294/434 279/267/434
f 257/252/435 239/225/435 279/267/435 297/293/435
f 250/242/436 262/259/436 302/299/436 290/282/436
f 241/221/437 254/246/437 294/286/437 281/263/437
f 240/238/438 256/249/438 296/289/438 280/278/438
f 246/231/439 260/257/439 300/296/439 286/269/439
f 254/246/440 224/245/414 264/285/417 294/286/440
f 261/258/441 250/242/441 290/282/441 301/298/441
f 245/248/442 253/247/443 293/288/443 285/287/444
f 256/249/445 245/248/442 285/287/444 296/289/445
f 253/247/446 241/221/446 281/263/446 293/288/446
f 249/251/447 255/250/448 295/291/448 289/290/449
f 255/250/450 240/238/450 280/278/450 295/291/450
f 226/253/451 257/252/451 297/293/451 266/292/451
f 258/254/452 249/251/447 289/290/449 298/294/452
f 231/243/430 259/255/453 299/295/453 271/284/431
f 260/257/454 232/256/455 272/297/456 300/296/454
f 259/255/457 246/231/457 286/269/457 299/295/457
f 232/256/455 261/258/458 301/298/458 272/297/456
f 262/259/459 233/235/411 273/273/413 302/299/459
f 316/300/460 321/301/461 322/302/462 307/303/463
f 320/304/464 319/305/465 324/306/466 323/307/467
f 322/302/468 323/307/469 309/308/470 317/309/471
f 310/310/472 314/311/473 305/312/474 312/313/475
f 324/306/476 308/314/477 314/311/473 310/310/472
f 321/301/461 320/304/464 323/307/467 322/302/462
f 319/305/465 315/315/478 308/314/479 324/306/466
f 307/303/480 322/302/468 317/309/471 313/316/481
f 323/307/469 324/306/476 310/310/472 309/308/470
f 313/316/481 317/309/471 311/317/482 303/318/483
f 317/309/471 309/308/470 325/319/484 311/317/482
f 309/308/470 310/310/472 312/313/475 326/320/485
f 321/301/461 327/321/486 318/322/487 320/304/464
f 304/323/488 328/324/488 321/301/461 316/300/460
f 319/305/465 329/325/489 306/326/489 315/315/478
f 318/322/487 330/327/490 319/305/465 320/304/464
f 344/328/491 335/329/492 350/330/493 349/331/494
f 348/332/495 351/333/496 352/334/497 347/335/498
f 350/330/499 345/336/500 337/337/501 351/333/502
f 338/338/503 340/339/504 333/340/505 342/341/506
f 352/334/507 338/338/503 342/341/506 336/342/508
f 349/331/494 350/330/493 351/333/496 348/332/495
f 347/335/498 352/334/497 336/342/509 343/343/510
f 335/329/511 341/344/512 345/336/500 350/330/499
f 351/333/502 337/337/501 338/338/503 352/334/507
f 341/344/512 331/345/513 339/346/514 345/336/500
f 345/336/500 339/346/514 353/347/515 337/337/501
f 337/337/501 354/348/516 340/339/504 338/338/503
f 349/331/494 348/332/495 346/349/517 355/350/518
f 332/351/519 344/328/491 349/331/494 356/352/519
f 347/335/498 343/343/510 334/353/520 357/354/520
f 346/349/517 348/332/495 347/335/498 358/355/521
f 312/313/522 305/312/523 333/340/523 340/339/524
f 304/323/525 316/300/526 344/328/527 332/351/528
f 314/311/529 308/314/529 336/342/529 342/341/529
f 305/312/530 314/311/530 342/341/530 333/340/530
f 307/303/531 313/316/532 341/344/533 335/329/531
f 308/314/534 315/315/534 343/343/534 336/342/534
f 316/300/526 307/303/535 335/329/535 344/328/527
f 303/318/536 311/317/537 339/346/538 331/345/539
f 313/316/532 303/318/536 331/345/539 341/344/533
f 315/315/540 306/326/540 334/353/540 343/343/540
f 309/308/541 326/320/541 354/348/541 337/337/541
f 325/319/542 309/308/542 337/337/542 353/347/542
f 319/305/543 330/327/543 358/355/543 347/335/543
f 321/301/544 328/324/544 356/352/544 349/331/544
f 329/325/545 319/305/545 347/335/545 357/354/545
f 311/317/537 325/319/546 353/347/546 339/346/538
f 326/320/547 312/313/522 340/339/524 354/348/547
f 318/322/548 327/321/549 355/350/549 346/349/550
f 328/324/551 304/323/525 332/351/528 356/352/551
f 327/321/552 321/301/552 349/331/552 355/350/552
f 306/326/553 329/325/553 357/354/553 334/353/553
f 330/327/554 318/322/548 346/349/550 358/355/554
f 373/356/555 377/357/556 378/358/557 363/359/558
f 387/360/559 375/361/560 380/362/561 388/363/562
f 384/364/563 379/365/564 365/366/565 382/367/566
f 366/368/567 371/369/568 361/370/569 369/371/570
f 380/362/571 364/372/572 371/369/568 366/368/567
f 383/373/573 376/374/574 379/365/575 384/364/576
f 375/361/560 372/375/577 364/372/578 380/362/561
f 363/359/579 378/358/580 374/376/581 370/377/582
f 388/363/583 380/362/571 366/368/567 386/378/584
f 370/377/582 374/376/581 367/379/585 359/380/586
f 377/357/556 383/373/573 384/364/576 378/358/557
f 378/358/580 384/364/563 382/367/566 374/376/581
f 379/365/564 388/363/583 386/378/584 365/366/565
f 376/374/574 387/360/559 388/363/562 379/365/575
f 360/381/587 390/382/587 377/357/556 373/356/555
f 377/357/556 389/383/588 381/384/589 383/373/573
f 381/384/589 392/385/590 376/374/574 383/373/573
f 376/374/574 391/386/591 385/387/592 387/360/559
f 375/361/560 393/388/593 362/389/593 372/375/577
f 385/387/592 394/390/594 375/361/560 387/360/559
f 374/376/581 382/367/566 395/391/595 367/379/585
f 382/367/566 365/366/565 368/392/596 396/393/597
f 365/366/565 386/378/584 397/394/598 368/392/596
f 386/378/584 366/368/567 369/371/570 398/395/599
f 413/396/600 403/397/601 418/398/602 417/399/603
f 427/400/604 428/401/605 420/402/606 415/403/607
f 424/404/608 422/405/609 405/406/610 419/407/611
f 406/408/612 409/409/613 401/410/614 411/411/615
f 420/402/616 406/408/612 411/411/615 404/412/617
f 423/413/618 424/404/619 419/407/620 416/414/621
f 415/403/607 420/402/606 404/412/622 412/415/623
f 403/397/624 410/416/625 414/417/626 418/398/627
f 428/401/628 426/418/629 406/408/612 420/402/616
f 410/416/625 399/419/630 407/420/631 414/417/626
f 417/399/603 418/398/602 424/404/619 423/413/618
f 418/398/627 414/417/626 422/405/609 424/404/608
f 419/407/611 405/406/610 426/418/629 428/401/628
f 416/414/621 419/407/620 428/401/605 427/400/604
f 400/421/632 413/396/600 417/399/603 430/422/632
f 417/399/603 423/413/618 421/423/633 429/424/634
f 421/423/633 423/413/618 416/414/621 432/425/635
f 416/414/621 427/400/604 425/426/636 431/427/637
f 415/403/607 412/415/623 402/428/638 433/429/638
f 425/426/636 427/400/604 415/403/607 434/430/639
f 414/417/626 407/420/631 435/431/640 422/405/609
f 422/405/609 436/432/641 408/433/642 405/406/610
f 405/406/610 408/433/642 437/434/643 426/418/629
f 426/418/629 438/435/644 409/409/613 406/408/612
f 369/371/645 361/370/646 401/410/646 409/409/647
f 360/381/648 373/356/649 413/396/650 400/421/651
f 371/369/652 364/372/653 404/412/653 411/411/654
f 361/370/655 371/369/652 411/411/654 401/410/655
f 363/359/656 370/377/657 410/416/658 403/397/656
f 364/372/659 372/375/660 412/415/661 404/412/659
f 373/356/649 363/359/662 403/397/662 413/396/650
f 359/380/663 367/379/664 407/420/665 399/419/666
f 370/377/657 359/380/663 399/419/666 410/416/658
f 372/375/660 362/389/667 402/428/667 412/415/661
f 375/361/668 394/390/668 434/430/668 415/403/668
f 393/388/669 375/361/669 415/403/669 433/429/669
f 386/378/670 398/395/670 438/435/670 426/418/670
f 377/357/671 390/382/671 430/422/671 417/399/671
f 376/374/672 392/385/672 432/425/672 416/414/672
f 382/367/673 396/393/673 436/432/673 422/405/673
f 390/382/674 360/381/648 400/421/651 430/422/674
f 397/394/675 386/378/675 426/418/675 437/434/675
f 381/384/676 389/383/677 429/424/677 421/423/678
f 392/385/679 381/384/676 421/423/678 432/425/679
f 389/383/680 377/357/680 417/399/680 429/424/680
f 385/387/681 391/386/682 431/427/682 425/426/683
f 391/386/684 376/374/684 416/414/684 431/427/684
f 362/389/685 393/388/685 433/429/685 402/428/685
f 394/390/686 385/387/681 425/426/683 434/430/686
f 367/379/664 395/391/687 435/431/687 407/420/665
f 396/393/688 368/392/689 408/433/690 436/432/688
f 395/391/691 382/367/691 422/405/691 435/431/691
f 368/392/689 397/394/692 437/434/692 408/433/690
f 398/395/693 369/371/645 409/409/647 438/435/693
f 452/436/694 457/437/695 458/438/696 443/439/697
f 456/440/698 455/441/699 460/442/700 459/443/701
f 458/438/702 459/443/703 445/444/704 453/445/705
f 446/446/706 450/447/707 441/448/708 448/449/709
f 460/442/710 444/450/711 450/447/707 446/446/706
f 457/437/695 456/440/698 459/443/701 458/438/696
f 455/441/699 451/451/712 444/450/713 460/442/700
f 443/439/714 458/438/702 453/445/705 449/452/715
f 459/443/703 460/442/710 446/446/706 445/444/704
f 449/452/715 453/445/705 447/453/716 439/454/717
f 453/445/705 445/444/704 461/455/718 447/453/716
f 445/444/704 446/446/706 448/449/709 462/456/719
f 457/437/695 463/457/720 454/458/721 456/440/698
f 440/459/722 464/460/722 457/437/695 452/436/694
f 455/441/699 465/461/723 442/462/723 451/451/712
f 454/458/721 466/463/724 455/441/699 456/440/698
f 480/464/725 471/465/726 486/466/727 485/467/728
f 484/468/729 487/469/730 488/470/731 483/471/732
f 486/466/733 481/472/734 473/473/735 487/469/736
f 474/474/737 476/475/738 469/476/739 478/477/740
f 488/470/741 474/474/737 478/477/740 472/478/742
f 485/467/728 486/466/727 487/469/730 484/468/729
f 483/471/732 488/470/731 472/478/743 479/479/744
f 471/465/745 477/480/746 481/472/734 486/466/733
f 487/469/736 473/473/735 474/474/737 488/470/741
f 477/480/746 467/481/747 475/482/748 481/472/734
f 481/472/734 475/482/748 489/483/749 473/473/735
f 473/473/735 490/484/750 476/475/738 474/474/737
f 485/467/728 484/468/729 482/485/751 491/486/752
f 468/487/753 480/464/725 485/467/728 492/488/753
f 483/471/732 479/479/744 470/489/754 493/490/754
f 482/485/751 484/468/729 483/471/732 494/491/755
f 448/449/756 441/448/757 469/476/757 476/475/758
f 440/459/759 452/436/760 480/464/761 468/487/762
f 450/447/763 444/450/763 472/478/763 478/477/763
f 441/448/764 450/447/764 478/477/764 469/476/764
f 443/439/765 449/452/766 477/480/767 471/465/765
f 444/450/768 451/451/768 479/479/768 472/478/768
f 452/436/760 443/439/769 471/465/769 480/464/761
f 439/454/770 447/453/771 475/482/772 467/481/773
f 449/452/766 439/454/770 467/481/773 477/480/767
f 451/451/774 442/462/774 470/489/774 479/479/774
f 445/444/775 462/456/775 490/484/775 473/473/775
f 461/455/776 445/444/776 473/473/776 489/483/776
f 455/441/777 466/463/777 494/491/777 483/471/777
f 457/437/778 464/460/778 492/488/778 485/467/778
f 465/461/779 455/441/779 483/471/779 493/490/779
f 447/453/771 461/455/780 489/483/780 475/482/772
f 462/456/781 448/449/756 476/475/758 490/484/781
f 454/458/782 463/457/783 491/486/783 482/485/784
f 464/460/785 440/459/759 468/487/762 492/488/785
f 463/457/786 457/437/786 485/467/786 491/486/786
f 442/462/787 465/461/787 493/490/787 470/489/787
f 466/463/788 454/458/782 482/485/784 494/491/788
