# Blender 5.0.1
# www.blender.org
o GEO_Bush_B
v 9.860509 -0.016028 4.396396
v 9.603604 -0.016028 4.139492
v 9.678849 -0.016028 4.321150
v 9.829511 0.430345 4.484484
v 9.845010 0.841392 4.154990
v 9.515516 0.430345 4.170489
v 9.845010 0.720999 4.356834
v 9.680205 0.667663 4.319795
v 9.643167 0.720999 4.154990
v 9.607483 0.430344 4.392517
v 9.603604 -0.016028 3.860509
v 9.860509 -0.016028 3.603604
v 9.678849 -0.016028 3.678850
v 9.845010 0.841392 3.845010
v 9.829511 0.430345 3.515516
v 9.515516 0.430345 3.829511
v 9.845010 0.720999 3.643166
v 9.680205 0.667663 3.680205
v 9.607483 0.430344 3.607483
v 9.643167 0.720999 3.845010
v 10.396396 -0.016028 4.139492
v 10.139491 -0.016028 4.396396
v 10.321151 -0.016028 4.321150
v 10.154990 0.841392 4.154990
v 10.170489 0.430345 4.484484
v 10.484484 0.430345 4.170489
v 10.154990 0.720999 4.356834
v 10.319795 0.667663 4.319795
v 10.392517 0.430344 4.392517
v 10.356833 0.720999 4.154990
v 10.139491 -0.016028 3.603604
v 10.396396 -0.016028 3.860509
v 10.321151 -0.016028 3.678850
v 10.154990 0.841392 3.845010
v 10.484484 0.430345 3.829511
v 10.170489 0.430345 3.515516
v 10.356833 0.720999 3.845010
v 10.319795 0.667663 3.680205
v 10.392517 0.430344 3.607483
v 10.154990 0.720999 3.643166
v 9.829511 0.137281 4.484484
v 9.607483 0.137281 4.392517
v 9.515516 0.137281 4.170489
v 9.829511 0.137281 3.515516
v 9.607483 0.137281 3.607483
v 9.515516 0.137281 3.829511
v 10.484484 0.137281 3.829511
v 10.392517 0.137281 3.607483
v 10.170489 0.137281 3.515516
v 10.170489 0.137281 4.484484
v 10.392517 0.137281 4.392517
v 10.484484 0.137281 4.170489
v 9.671259 -0.011754 4.874237
v 9.465735 -0.011754 4.668713
v 9.525932 -0.011754 4.814040
v 9.646461 0.315586 4.944707
v 9.658860 0.617021 4.681112
v 9.395265 0.315586 4.693511
v 9.658860 0.528732 4.842587
v 9.527017 0.489619 4.812956
v 9.497385 0.528732 4.681112
v 9.468839 0.315586 4.871134
v 9.465735 -0.011754 4.445527
v 9.671259 -0.011754 4.240003
v 9.525932 -0.011754 4.300200
v 9.658860 0.617021 4.433127
v 9.646461 0.315586 4.169533
v 9.395265 0.315586 4.420728
v 9.658860 0.528732 4.271653
v 9.527017 0.489619 4.301284
v 9.468839 0.315586 4.243106
v 9.497385 0.528732 4.433127
v 10.099969 -0.011754 4.668713
v 9.894445 -0.011754 4.874237
v 10.039772 -0.011754 4.814040
v 9.906844 0.617021 4.681112
v 9.919244 0.315586 4.944707
v 10.170440 0.315586 4.693511
v 9.906844 0.528732 4.842587
v 10.038688 0.489619 4.812956
v 10.096866 0.315586 4.871134
v 10.068319 0.528732 4.681112
v 9.894445 -0.011754 4.240003
v 10.099969 -0.011754 4.445527
v 10.039772 -0.011754 4.300200
v 9.906844 0.617021 4.433127
v 10.170440 0.315586 4.420728
v 9.919244 0.315586 4.169533
v 10.068319 0.528732 4.433127
v 10.038688 0.489619 4.301284
v 10.096866 0.315586 4.243106
v 9.906844 0.528732 4.271653
v 9.646461 0.100673 4.944707
v 9.468839 0.100673 4.871134
v 9.395265 0.100673 4.693511
v 9.646461 0.100673 4.169533
v 9.468839 0.100673 4.243106
v 9.395265 0.100673 4.420728
v 10.170440 0.100673 4.420728
v 10.096866 0.100673 4.243106
v 9.919244 0.100673 4.169533
v 9.919244 0.100673 4.944707
v 10.096866 0.100673 4.871134
v 10.170440 0.100673 4.693511
v 10.131866 -0.009403 3.730573
v 9.967447 -0.009403 3.566154
v 10.015604 -0.009403 3.682415
v 10.112027 0.252469 3.786949
v 10.121946 0.493617 3.576073
v 9.911071 0.252469 3.585992
v 10.121946 0.422986 3.705253
v 10.016472 0.391696 3.681548
v 9.992767 0.422986 3.576073
v 9.969930 0.252469 3.728090
v 9.967447 -0.009403 3.387605
v 10.131866 -0.009403 3.223186
v 10.015604 -0.009403 3.271343
v 10.121946 0.493617 3.377685
v 10.112027 0.252469 3.166809
v 9.911071 0.252469 3.367766
v 10.121946 0.422986 3.248506
v 10.016472 0.391696 3.272210
v 9.969930 0.252469 3.225668
v 9.992767 0.422986 3.377685
v 10.474834 -0.009403 3.566154
v 10.310415 -0.009403 3.730573
v 10.426677 -0.009403 3.682415
v 10.320334 0.493617 3.576073
v 10.330254 0.252469 3.786949
v 10.531210 0.252469 3.585992
v 10.320334 0.422986 3.705253
v 10.425809 0.391696 3.681548
v 10.472352 0.252469 3.728090
v 10.449514 0.422986 3.576073
v 10.310415 -0.009403 3.223186
v 10.474834 -0.009403 3.387605
v 10.426677 -0.009403 3.271343
v 10.320334 0.493617 3.377685
v 10.531210 0.252469 3.367766
v 10.330254 0.252469 3.166809
v 10.449514 0.422986 3.377685
v 10.425809 0.391696 3.272210
v 10.472352 0.252469 3.225668
v 10.320334 0.422986 3.248506
v 10.112027 0.080538 3.786949
v 9.969930 0.080538 3.728090
v 9.911071 0.080538 3.585992
v 10.112027 0.080538 3.166809
v 9.969930 0.080538 3.225668
v 9.911071 0.080538 3.367766
v 10.531210 0.080538 3.367766
v 10.472352 0.080538 3.225668
v 10.330254 0.080538 3.166809
v 10.330254 0.080538 3.786949
v 10.472352 0.080538 3.728090
v 10.531210 0.080538 3.585992
vn -0.1586 -0.5158 0.8419
vn -0.8419 -0.5158 0.1586
vn -0.5906 -0.5499 0.5906
vn -0.1861 0.1988 0.9622
vn -0.2400 0.9406 0.2400
vn -0.9622 0.1988 0.1861
vn -0.1955 0.6631 0.7225
vn -0.5883 0.5549 0.5883
vn -0.7225 0.6631 0.1955
vn -0.6928 0.2005 0.6928
vn -0.8419 -0.5158 -0.1586
vn -0.1586 -0.5158 -0.8419
vn -0.5906 -0.5499 -0.5906
vn -0.2400 0.9406 -0.2400
vn -0.1861 0.1988 -0.9622
vn -0.9622 0.1988 -0.1861
vn -0.1955 0.6631 -0.7225
vn -0.5883 0.5549 -0.5883
vn -0.6928 0.2005 -0.6928
vn -0.7225 0.6631 -0.1955
vn 0.8419 -0.5158 0.1586
vn 0.1586 -0.5158 0.8419
vn 0.5906 -0.5499 0.5906
vn 0.2400 0.9406 0.2400
vn 0.1861 0.1988 0.9622
vn 0.9622 0.1988 0.1861
vn 0.1955 0.6631 0.7225
vn 0.5883 0.5549 0.5883
vn 0.6928 0.2005 0.6928
vn 0.7225 0.6631 0.1955
vn 0.1586 -0.5158 -0.8419
vn 0.8419 -0.5158 -0.1586
vn 0.5906 -0.5499 -0.5906
vn 0.2400 0.9406 -0.2400
vn 0.9622 0.1988 -0.1861
vn 0.1861 0.1988 -0.9622
vn 0.7225 0.6631 -0.1955
vn 0.5883 0.5549 -0.5883
vn 0.6928 0.2005 -0.6928
vn 0.1955 0.6631 -0.7225
vn -0.1919 -0.2600 0.9463
vn -0.6810 -0.2694 0.6810
vn -0.9463 -0.2600 0.1919
vn -0.1919 -0.2600 -0.9463
vn -0.6810 -0.2694 -0.6810
vn -0.9463 -0.2600 -0.1919
vn 0.9463 -0.2600 -0.1919
vn 0.6810 -0.2694 -0.6810
vn 0.1919 -0.2600 -0.9463
vn 0.1919 -0.2600 0.9463
vn 0.6810 -0.2694 0.6810
vn 0.9463 -0.2600 0.1919
vn -0.1542 -0.5489 0.8215
vn -0.8215 -0.5489 0.1542
vn -0.5743 -0.5833 0.5743
vn -0.1855 0.2140 0.9591
vn -0.2247 0.9482 0.2247
vn -0.9591 0.2140 0.1855
vn -0.1873 0.6873 0.7018
vn -0.5732 0.5856 0.5732
vn -0.7018 0.6873 0.1873
vn -0.6905 0.2154 0.6905
vn -0.8215 -0.5489 -0.1542
vn -0.1542 -0.5489 -0.8215
vn -0.5743 -0.5833 -0.5743
vn -0.2247 0.9482 -0.2247
vn -0.1855 0.2140 -0.9591
vn -0.9591 0.2140 -0.1855
vn -0.1873 0.6873 -0.7018
vn -0.5732 0.5856 -0.5732
vn -0.6905 0.2154 -0.6905
vn -0.7018 0.6873 -0.1873
vn 0.8215 -0.5489 0.1542
vn 0.1542 -0.5489 0.8215
vn 0.5743 -0.5833 0.5743
vn 0.2247 0.9482 0.2247
vn 0.1855 0.2140 0.9591
vn 0.9591 0.2140 0.1855
vn 0.1873 0.6873 0.7018
vn 0.5732 0.5856 0.5732
vn 0.6905 0.2154 0.6905
vn 0.7018 0.6873 0.1873
vn 0.1542 -0.5489 -0.8215
vn 0.8215 -0.5489 -0.1542
vn 0.5743 -0.5833 -0.5743
vn 0.2247 0.9482 -0.2247
vn 0.9591 0.2140 -0.1855
vn 0.1855 0.2140 -0.9591
vn 0.7018 0.6873 -0.1873
vn 0.5732 0.5856 -0.5732
vn 0.6905 0.2154 -0.6905
vn 0.1873 0.6873 -0.7018
vn -0.1911 -0.2778 0.9415
vn -0.6774 -0.2866 0.6774
vn -0.9415 -0.2778 0.1911
vn -0.1911 -0.2778 -0.9415
vn -0.6774 -0.2866 -0.6774
vn -0.9415 -0.2778 -0.1911
vn 0.9415 -0.2778 -0.1911
vn 0.6774 -0.2866 -0.6774
vn 0.1911 -0.2778 -0.9415
vn 0.1911 -0.2778 0.9415
vn 0.6774 -0.2866 0.6774
vn 0.9415 -0.2778 0.1911
vt 0.554317 0.869716
vt 0.566100 0.859828
vt 0.567974 0.866453
vt 0.559260 0.875607
vt 0.570981 0.855733
vt 0.571043 0.865720
vt 0.561308 0.878047
vt 0.563388 0.846685
vt 0.558508 0.850780
vt 0.552309 0.847784
vt 0.553564 0.844889
vt 0.546725 0.860668
vt 0.541781 0.854776
vt 0.539733 0.852336
vt 0.545269 0.877308
vt 0.550213 0.883199
vt 0.552260 0.885639
vt 0.536221 0.884900
vt 0.541165 0.890791
vt 0.543212 0.893232
vt 0.530686 0.859928
vt 0.521638 0.867520
vt 0.523685 0.869960
vt 0.532733 0.862368
vt 0.528629 0.875852
vt 0.537677 0.868260
s 1
f 4/1/4 7/2/7 8/3/8 10/4/10
f 5/5/5 9/6/9 8/3/8 7/2/7
f 6/7/6 10/4/10 8/3/8 9/6/9
f 14/5/14 17/2/17 18/3/18 20/6/20
f 15/1/15 19/4/19 18/3/18 17/2/17
f 16/7/16 20/6/20 18/3/18 19/4/19
f 24/8/24 27/9/27 28/10/28 30/11/30
f 25/12/25 29/13/29 28/10/28 27/9/27
f 26/14/26 30/11/30 28/10/28 29/13/29
f 34/8/34 37/11/37 38/10/38 40/9/40
f 35/14/35 39/13/39 38/10/38 37/11/37
f 36/12/36 40/9/40 38/10/38 39/13/39
f 41/15/41 4/1/4 10/4/10 42/16/42
f 42/16/42 10/4/10 6/7/6 43/17/43
f 5/5/5 14/5/14 20/6/20 9/6/9
f 9/6/9 20/6/20 16/7/16 6/7/6
f 44/15/44 12/18/12 13/19/13 45/16/45
f 45/16/45 13/19/13 11/20/11 46/17/46
f 14/5/14 34/8/34 40/9/40 17/2/17
f 17/2/17 40/9/40 36/12/36 15/1/15
f 47/21/47 32/22/32 33/23/33 48/24/48
f 48/24/48 33/23/33 31/25/31 49/26/49
f 34/8/34 24/8/24 30/11/30 37/11/37
f 37/11/37 30/11/30 26/14/26 35/14/35
f 50/26/50 22/25/22 23/23/23 51/24/51
f 51/24/51 23/23/23 21/22/21 52/21/52
f 24/8/24 5/5/5 7/2/7 27/9/27
f 27/9/27 7/2/7 4/1/4 25/12/25
f 43/17/43 6/7/6 16/7/16 46/17/46
f 50/26/50 25/12/25 4/1/4 41/15/41
f 34/8/34 14/5/14 5/5/5 24/8/24
f 44/15/44 15/1/15 36/12/36 49/26/49
f 47/21/47 35/14/35 26/14/26 52/21/52
f 32/22/32 47/21/47 52/21/52 21/22/21
f 12/18/12 44/15/44 49/26/49 31/25/31
f 22/25/22 50/26/50 41/15/41 1/18/1
f 2/20/2 43/17/43 46/17/46 11/20/11
f 29/13/29 51/24/51 52/21/52 26/14/26
f 25/12/25 50/26/50 51/24/51 29/13/29
f 39/13/39 48/24/48 49/26/49 36/12/36
f 35/14/35 47/21/47 48/24/48 39/13/39
f 19/4/19 45/16/45 46/17/46 16/7/16
f 15/1/15 44/15/44 45/16/45 19/4/19
f 3/19/3 42/16/42 43/17/43 2/20/2
f 1/18/1 41/15/41 42/16/42 3/19/3
f 56/1/56 59/2/59 60/3/60 62/4/62
f 57/5/57 61/6/61 60/3/60 59/2/59
f 58/7/58 62/4/62 60/3/60 61/6/61
f 66/5/66 69/2/69 70/3/70 72/6/72
f 67/1/67 71/4/71 70/3/70 69/2/69
f 68/7/68 72/6/72 70/3/70 71/4/71
f 76/8/76 79/9/79 80/10/80 82/11/82
f 77/12/77 81/13/81 80/10/80 79/9/79
f 78/14/78 82/11/82 80/10/80 81/13/81
f 86/8/86 89/11/89 90/10/90 92/9/92
f 87/14/87 91/13/91 90/10/90 89/11/89
f 88/12/88 92/9/92 90/10/90 91/13/91
f 93/15/93 56/1/56 62/4/62 94/16/94
f 94/16/94 62/4/62 58/7/58 95/17/95
f 57/5/57 66/5/66 72/6/72 61/6/61
f 61/6/61 72/6/72 68/7/68 58/7/58
f 96/15/96 64/18/64 65/19/65 97/16/97
f 97/16/97 65/19/65 63/20/63 98/17/98
f 66/5/66 86/8/86 92/9/92 69/2/69
f 69/2/69 92/9/92 88/12/88 67/1/67
f 99/21/99 84/22/84 85/23/85 100/24/100
f 100/24/100 85/23/85 83/25/83 101/26/101
f 86/8/86 76/8/76 82/11/82 89/11/89
f 89/11/89 82/11/82 78/14/78 87/14/87
f 102/26/102 74/25/74 75/23/75 103/24/103
f 103/24/103 75/23/75 73/22/73 104/21/104
f 76/8/76 57/5/57 59/2/59 79/9/79
f 79/9/79 59/2/59 56/1/56 77/12/77
f 95/17/95 58/7/58 68/7/68 98/17/98
f 102/26/102 77/12/77 56/1/56 93/15/93
f 86/8/86 66/5/66 57/5/57 76/8/76
f 96/15/96 67/1/67 88/12/88 101/26/101
f 99/21/99 87/14/87 78/14/78 104/21/104
f 84/22/84 99/21/99 104/21/104 73/22/73
f 64/18/64 96/15/96 101/26/101 83/25/83
f 74/25/74 102/26/102 93/15/93 53/18/53
f 54/20/54 95/17/95 98/17/98 63/20/63
f 81/13/81 103/24/103 104/21/104 78/14/78
f 77/12/77 102/26/102 103/24/103 81/13/81
f 91/13/91 100/24/100 101/26/101 88/12/88
f 87/14/87 99/21/99 100/24/100 91/13/91
f 71/4/71 97/16/97 98/17/98 68/7/68
f 67/1/67 96/15/96 97/16/97 71/4/71
f 55/19/55 94/16/94 95/17/95 54/20/54
f 53/18/53 93/15/93 94/16/94 55/19/55
f 108/1/56 111/2/59 112/3/60 114/4/62
f 109/5/57 113/6/61 112/3/60 111/2/59
f 110/7/58 114/4/62 112/3/60 113/6/61
f 118/5/66 121/2/69 122/3/70 124/6/72
f 119/1/67 123/4/71 122/3/70 121/2/69
f 120/7/68 124/6/72 122/3/70 123/4/71
f 128/8/76 131/9/79 132/10/80 134/11/82
f 129/12/77 133/13/81 132/10/80 131/9/79
f 130/14/78 134/11/82 132/10/80 133/13/81
f 138/8/86 141/11/89 142/10/90 144/9/92
f 139/14/87 143/13/91 142/10/90 141/11/89
f 140/12/88 144/9/92 142/10/90 143/13/91
f 145/15/93 108/1/56 114/4/62 146/16/94
f 146/16/94 114/4/62 110/7/58 147/17/95
f 109/5/57 118/5/66 124/6/72 113/6/61
f 113/6/61 124/6/72 120/7/68 110/7/58
f 148/15/96 116/18/64 117/19/65 149/16/97
f 149/16/97 117/19/65 115/20/63 150/17/98
f 118/5/66 138/8/86 144/9/92 121/2/69
f 121/2/69 144/9/92 140/12/88 119/1/67
f 151/21/99 136/22/84 137/23/85 152/24/100
f 152/24/100 137/23/85 135/25/83 153/26/101
f 138/8/86 128/8/76 134/11/82 141/11/89
f 141/11/89 134/11/82 130/14/78 139/14/87
f 154/26/102 126/25/74 127/23/75 155/24/103
f 155/24/103 127/23/75 125/22/73 156/21/104
f 128/8/76 109/5/57 111/2/59 131/9/79
f 131/9/79 111/2/59 108/1/56 129/12/77
f 147/17/95 110/7/58 120/7/68 150/17/98
f 154/26/102 129/12/77 108/1/56 145/15/93
f 138/8/86 118/5/66 109/5/57 128/8/76
f 148/15/96 119/1/67 140/12/88 153/26/101
f 151/21/99 139/14/87 130/14/78 156/21/104
f 136/22/84 151/21/99 156/21/104 125/22/73
f 116/18/64 148/15/96 153/26/101 135/25/83
f 126/25/74 154/26/102 145/15/93 105/18/53
f 106/20/54 147/17/95 150/17/98 115/20/63
f 133/13/81 155/24/103 156/21/104 130/14/78
f 129/12/77 154/26/102 155/24/103 133/13/81
f 143/13/91 152/24/100 153/26/101 140/12/88
f 139/14/87 151/21/99 152/24/100 143/13/91
f 123/4/71 149/16/97 150/17/98 120/7/68
f 119/1/67 148/15/96 149/16/97 123/4/71
f 107/19/55 146/16/94 147/17/95 106/20/54
f 105/18/53 145/15/93 146/16/94 107/19/55
