# Blender 5.0.1
# www.blender.org
o GEO_Bush_D
v 9.866088 -0.012822 8.069409
v 9.619460 -0.012822 7.822781
v 9.691695 -0.012822 7.997173
v 9.836330 0.344276 8.153974
v 9.851210 0.673114 7.837660
v 9.534895 0.344276 7.852539
v 9.851210 0.576799 8.031429
v 9.692997 0.534130 7.995872
v 9.657439 0.576799 7.837660
v 9.623183 0.344275 8.065685
v 9.619460 -0.012822 7.232939
v 9.866088 -0.012822 6.986310
v 9.691695 -0.012822 7.058546
v 9.851210 0.673114 7.218060
v 9.836330 0.344276 6.901746
v 9.534895 0.344276 7.203181
v 9.851210 0.576799 7.024290
v 9.692997 0.534130 7.059847
v 9.623183 0.344275 6.990034
v 9.657439 0.576799 7.218060
v 10.380540 -0.012822 7.822781
v 10.133912 -0.012822 8.069409
v 10.308305 -0.012822 7.997173
v 10.148790 0.673114 7.837660
v 10.163670 0.344276 8.153974
v 10.465105 0.344276 7.852539
v 10.148790 0.576799 8.031429
v 10.307003 0.534130 7.995872
v 10.376817 0.344275 8.065685
v 10.342561 0.576799 7.837660
v 10.133912 -0.012822 6.986310
v 10.380540 -0.012822 7.232939
v 10.308305 -0.012822 7.058546
v 10.148790 0.673114 7.218060
v 10.465105 0.344276 7.203181
v 10.163670 0.344276 6.901746
v 10.342561 0.576799 7.218060
v 10.307003 0.534130 7.059847
v 10.376817 0.344275 6.990034
v 10.148790 0.576799 7.024290
v 9.836330 0.109825 8.153974
v 9.623183 0.109825 8.065685
v 9.534895 0.109825 7.852539
v 9.836330 0.109825 6.901746
v 9.623183 0.109825 6.990034
v 9.534895 0.109825 7.203181
v 10.465105 0.109825 7.203181
v 10.376817 0.109825 6.990034
v 10.163670 0.109825 6.901746
v 10.163670 0.109825 8.153974
v 10.376817 0.109825 8.065685
v 10.465105 0.109825 7.852539
v 9.581406 -0.012869 7.527860
v 9.836330 0.724057 7.527860
v 9.623183 0.618111 7.527860
v 9.488385 0.379939 7.527860
v 10.418594 -0.012869 7.527860
v 10.163670 0.724057 7.527860
v 10.376817 0.618111 7.527860
v 10.511615 0.379939 7.527860
v 10.511615 0.122043 7.527860
v 9.488385 0.122043 7.527860
vn -0.1489 -0.5855 0.7968
vn -0.7857 -0.5844 0.2028
vn -0.5549 -0.6199 0.5549
vn -0.1847 0.2316 0.9551
vn -0.2033 0.9348 0.2913
vn -0.9381 0.2265 0.2620
vn -0.1785 0.7131 0.6780
vn -0.5554 0.6189 0.5554
vn -0.6612 0.7012 0.2668
vn -0.6877 0.2324 0.6877
vn -0.7857 -0.5844 -0.2028
vn -0.1489 -0.5855 -0.7968
vn -0.5549 -0.6199 -0.5549
vn -0.2033 0.9348 -0.2913
vn -0.1847 0.2316 -0.9551
vn -0.9381 0.2265 -0.2620
vn -0.1785 0.7131 -0.6780
vn -0.5554 0.6189 -0.5554
vn -0.6877 0.2324 -0.6877
vn -0.6612 0.7012 -0.2668
vn 0.7857 -0.5844 0.2028
vn 0.1489 -0.5855 0.7968
vn 0.5549 -0.6199 0.5549
vn 0.2033 0.9348 0.2913
vn 0.1847 0.2316 0.9551
vn 0.9381 0.2265 0.2620
vn 0.1785 0.7131 0.6780
vn 0.5554 0.6189 0.5554
vn 0.6877 0.2324 0.6877
vn 0.6612 0.7012 0.2668
vn 0.1489 -0.5855 -0.7968
vn 0.7857 -0.5844 -0.2028
vn 0.5549 -0.6199 -0.5549
vn 0.2033 0.9348 -0.2913
vn 0.9381 0.2265 -0.2620
vn 0.1847 0.2316 -0.9551
vn 0.6612 0.7012 -0.2668
vn 0.5554 0.6189 -0.5554
vn 0.6877 0.2324 -0.6877
vn 0.1785 0.7131 -0.6780
vn -0.1900 -0.2977 0.9356
vn -0.6733 -0.3057 0.6733
vn -0.9197 -0.3035 0.2491
vn -0.1900 -0.2977 -0.9356
vn -0.6733 -0.3057 -0.6733
vn -0.9197 -0.3035 -0.2491
vn 0.9197 -0.3035 -0.2491
vn 0.6733 -0.3057 -0.6733
vn 0.1900 -0.2977 -0.9356
vn 0.1900 -0.2977 0.9356
vn 0.6733 -0.3057 0.6733
vn 0.9197 -0.3035 0.2491
vn -0.8178 -0.5755 -0.0000
vn -0.2298 0.9732 -0.0000
vn -0.6898 0.7240 -0.0000
vn -0.9656 0.2602 -0.0000
vn 0.8178 -0.5755 -0.0000
vn 0.2298 0.9732 -0.0000
vn 0.6898 0.7240 -0.0000
vn 0.9656 0.2602 -0.0000
vn 0.9576 -0.2879 -0.0000
vn -0.9576 -0.2879 -0.0000
vt 0.554317 0.869716
vt 0.566100 0.859828
vt 0.567974 0.866453
vt 0.559260 0.875607
vt 0.570981 0.855733
vt 0.571043 0.865720
vt 0.561308 0.878047
vt 0.563388 0.846685
vt 0.558508 0.850780
vt 0.552309 0.847784
vt 0.553564 0.844889
vt 0.546725 0.860668
vt 0.541781 0.854776
vt 0.539733 0.852336
vt 0.545269 0.877308
vt 0.550213 0.883199
vt 0.552260 0.885639
vt 0.536221 0.884900
vt 0.541165 0.890791
vt 0.543212 0.893232
vt 0.530686 0.859928
vt 0.521638 0.867520
vt 0.523685 0.869960
vt 0.532733 0.862368
vt 0.528629 0.875852
vt 0.537677 0.868260
s 1
f 4/1/4 7/2/7 8/3/8 10/4/10
f 5/5/5 9/6/9 8/3/8 7/2/7
f 6/7/6 10/4/10 8/3/8 9/6/9
f 14/5/14 17/2/17 18/3/18 20/6/20
f 15/1/15 19/4/19 18/3/18 17/2/17
f 16/7/16 20/6/20 18/3/18 19/4/19
f 24/8/24 27/9/27 28/10/28 30/11/30
f 25/12/25 29/13/29 28/10/28 27/9/27
f 26/14/26 30/11/30 28/10/28 29/13/29
f 34/8/34 37/11/37 38/10/38 40/9/40
f 35/14/35 39/13/39 38/10/38 37/11/37
f 36/12/36 40/9/40 38/10/38 39/13/39
f 41/15/41 4/1/4 10/4/10 42/16/42
f 42/16/42 10/4/10 6/7/6 43/17/43
f 54/5/54 14/5/14 20/6/20 55/6/55
f 55/6/55 20/6/20 16/7/16 56/7/56
f 44/15/44 12/18/12 13/19/13 45/16/45
f 45/16/45 13/19/13 11/20/11 46/17/46
f 14/5/14 34/8/34 40/9/40 17/2/17
f 17/2/17 40/9/40 36/12/36 15/1/15
f 47/21/47 32/22/32 33/23/33 48/24/48
f 48/24/48 33/23/33 31/25/31 49/26/49
f 58/8/58 24/8/24 30/11/30 59/11/59
f 59/11/59 30/11/30 26/14/26 60/14/60
f 50/26/50 22/25/22 23/23/23 51/24/51
f 51/24/51 23/23/23 21/22/21 52/21/52
f 24/8/24 5/5/5 7/2/7 27/9/27
f 27/9/27 7/2/7 4/1/4 25/12/25
f 62/17/62 56/7/56 16/7/16 46/17/46
f 50/26/50 25/12/25 4/1/4 41/15/41
f 58/8/58 54/5/54 5/5/5 24/8/24
f 44/15/44 15/1/15 36/12/36 49/26/49
f 61/21/61 60/14/60 26/14/26 52/21/52
f 57/22/57 61/21/61 52/21/52 21/22/21
f 12/18/12 44/15/44 49/26/49 31/25/31
f 22/25/22 50/26/50 41/15/41 1/18/1
f 53/20/53 62/17/62 46/17/46 11/20/11
f 29/13/29 51/24/51 52/21/52 26/14/26
f 25/12/25 50/26/50 51/24/51 29/13/29
f 39/13/39 48/24/48 49/26/49 36/12/36
f 35/14/35 47/21/47 48/24/48 39/13/39
f 19/4/19 45/16/45 46/17/46 16/7/16
f 15/1/15 44/15/44 45/16/45 19/4/19
f 3/19/3 42/16/42 43/17/43 2/20/2
f 1/18/1 41/15/41 42/16/42 3/19/3
f 2/20/2 43/17/43 62/17/62 53/20/53
f 32/22/32 47/21/47 61/21/61 57/22/57
f 47/21/47 35/14/35 60/14/60 61/21/61
f 34/8/34 14/5/14 54/5/54 58/8/58
f 43/17/43 6/7/6 56/7/56 62/17/62
f 37/11/37 59/11/59 60/14/60 35/14/35
f 34/8/34 58/8/58 59/11/59 37/11/37
f 9/6/9 55/6/55 56/7/56 6/7/6
f 5/5/5 54/5/54 55/6/55 9/6/9
