# Blender 5.0.1
# www.blender.org
o GEO_CoastTile_B
v 7.974515 -2.013760 7.983081
v 8.000000 -2.013760 7.904897
v 4.079400 -0.013760 7.826295
v 4.104749 -0.013760 7.887235
v 7.920600 -0.013760 7.826295
v 7.895251 -0.013760 7.887235
v 4.025485 -2.013760 7.983081
v 4.000000 -2.013760 7.904898
v 4.000000 -0.120803 7.904898
v 4.025485 -0.120803 7.983081
v 8.000000 -0.120803 7.904898
v 7.974515 -0.120803 7.983081
v 4.000000 -0.086950 4.008461
v 8.000000 -0.086950 4.008459
v 4.000000 -2.013760 6.396572
v 8.000000 -0.086950 6.427348
v 4.000000 -0.086950 6.427348
v 4.079400 -0.013760 6.523787
v 7.920600 -0.013760 6.541369
v 8.000000 -2.013760 4.008459
v 6.000000 -2.013760 8.008459
v 6.000000 -0.120803 8.008459
v 6.000000 -0.013760 7.912477
v 6.000000 -0.013760 7.826295
v 4.437801 -0.086950 4.008460
v 7.567562 -0.086950 4.008459
v 5.061361 -0.086950 4.008459
v 5.685789 -0.086950 4.008459
v 6.312145 -0.086950 4.008459
v 6.936088 -0.086950 4.008459
v 7.561399 -0.086950 6.405232
v 4.438601 -0.086950 6.313269
v 6.835425 -0.086950 6.522064
v 6.233464 -0.086950 6.663611
v 5.687721 -0.086950 6.698478
v 5.046112 -0.086950 6.305684
v 7.561399 -0.013760 6.490475
v 4.438601 -0.013760 6.386436
v 6.000000 -0.013760 7.611551
v 6.835424 -0.013760 6.595232
v 6.233464 -0.013760 6.736779
v 5.687720 -0.013760 6.771645
v 5.046111 -0.013760 6.378851
v 4.000000 -2.013760 4.008460
v 7.573725 -2.013760 4.008459
v 6.935337 -2.013760 4.008459
v 6.312011 -2.013760 4.008459
v 5.683858 -2.013760 4.008459
v 5.059562 -2.013760 4.008459
v 4.437001 -2.013760 4.008460
v 8.000000 -2.013760 6.427348
v 4.000000 -2.013760 5.558125
v 4.000000 -0.086950 5.599179
v 8.000000 -0.086950 5.597088
v 7.563556 -0.086950 5.763701
v 6.870657 -0.086950 5.673182
v 6.261003 -0.086950 5.359123
v 5.687045 -0.086950 5.278608
v 5.051449 -0.086950 5.733422
v 4.438321 -0.086950 5.748101
v 8.000000 -2.013760 5.558125
v 6.000000 -2.013760 5.558125
v 6.000000 -2.013760 6.427348
v 6.000000 -2.013760 7.904897
vn 0.5901 0.7689 0.2460
vn 0.9128 0.2659 0.3099
vn 0.9307 0.3211 0.1749
vn 0.6900 0.7180 0.0916
vn -0.0000 0.3521 0.9360
vn -0.0121 0.3013 0.9534
vn -0.0129 -0.0000 0.9999
vn -0.0000 -0.0000 1.0000
vn 0.0129 -0.0000 0.9999
vn 0.0121 0.3013 0.9534
vn -0.9127 0.2659 0.3102
vn -0.9243 0.3392 0.1752
vn -0.9876 -0.0000 0.1569
vn -0.9508 -0.0000 0.3099
vn -0.1935 0.1106 -0.9748
vn -0.0702 0.9361 -0.3446
vn 0.0190 0.9215 -0.3880
vn -0.0307 0.3764 -0.9259
vn 0.0096 0.6778 0.7352
vn -0.0000 0.6778 0.7353
vn 0.9930 0.1178 0.0003
vn 0.7365 0.6765 0.0012
vn -0.0000 1.0000 -0.0000
vn 0.9508 -0.0000 0.3099
vn 0.9876 -0.0000 0.1569
vn 0.0844 0.6178 -0.7818
vn 0.1003 0.8905 -0.4438
vn -0.2365 0.8212 -0.5193
vn -0.1268 0.8836 -0.4508
vn -0.1375 0.4621 -0.8761
vn -0.2234 0.7372 -0.6376
vn -0.0096 0.6778 0.7352
vn -0.7316 0.6759 0.0891
vn -0.7954 0.6059 -0.0138
vn -0.9876 0.1570 0.0019
vn -0.1455 0.1130 -0.9829
vn -0.0489 0.9338 -0.3543
vn 0.2383 0.1030 -0.9657
vn 0.0678 0.9339 -0.3510
vn 0.2667 0.1281 -0.9552
vn 0.1333 0.9222 -0.3629
vn -1.0000 -0.0000 -0.0000
vn -0.0000 -0.0000 -1.0000
vn 1.0000 -0.0000 -0.0000
vn -0.0000 -1.0000 -0.0000
vn -0.5902 0.7689 0.2460
vt 0.130888 0.543042
vt 0.130917 0.541666
vt 0.130926 0.541666
vt 0.130897 0.543042
vt 0.130191 0.541666
vt 0.129466 0.541666
vt 0.129457 0.541666
vt 0.129847 0.543042
vt 0.130536 0.543042
vt 0.130765 0.543042
vt 0.129618 0.543042
vt 0.130191 0.543042
vt 0.129486 0.543042
vt 0.129495 0.543042
vt 0.877820 0.813117
vt 0.877553 0.813117
vt 0.877560 0.813117
vt 0.129618 0.543042
vt 0.130765 0.543042
vt 0.130306 0.543042
vt 0.130077 0.543042
vt 0.130306 0.543042
vt 0.118508 0.875357
vt 0.118166 0.875357
vt 0.118166 0.875357
vt 0.118492 0.875357
vt 0.115124 0.875357
vt 0.115732 0.875357
vt 0.116341 0.875357
vt 0.116949 0.875357
vt 0.117558 0.875357
vt 0.117558 0.875357
vt 0.130172 0.542354
vt 0.117964 0.875357
vt 0.114799 0.875357
vt 0.115326 0.875357
vt 0.115854 0.875357
vt 0.116381 0.875357
vt 0.116909 0.875357
vt 0.117437 0.875357
vt 0.130211 0.542354
vt 0.879454 0.810871
vt 0.880467 0.809662
vt 0.879020 0.811390
vt 0.878513 0.811994
vt 0.117258 0.874393
vt 0.880408 0.813117
vt 0.880402 0.813117
vt 0.879448 0.811994
vt 0.878942 0.811390
vt 0.117266 0.873429
vt 0.116032 0.874393
vt 0.879677 0.813117
vt 0.879677 0.813117
vt 0.880141 0.813117
vt 0.879213 0.813117
vt 0.878749 0.813117
vt 0.878749 0.813117
vt 0.878284 0.813117
vt 0.878284 0.813117
vt 0.114783 0.875357
vt 0.120738 0.873896
vt 0.878462 0.807980
vt 0.880278 0.810052
vt 0.880239 0.810052
vt 0.878929 0.807980
vt 0.131016 0.542354
vt 0.131821 0.542354
vt 0.877994 0.807980
vt 0.880317 0.810052
vt 0.117910 0.875045
vt 0.118523 0.875045
s 1
f 6/1/1 12/2/2 11/3/3 5/4/4
f 22/5/5 10/6/6 7/6/7 21/5/8
f 22/5/5 21/5/8 1/2/9 12/2/10
f 10/6/11 9/7/12 8/7/13 7/6/14
f 33/8/15 40/9/16 37/10/17 31/11/18
f 22/5/5 12/2/10 6/1/19 23/12/20
f 16/3/21 19/4/22 5/4/4 11/3/3
f 5/4/23 24/12/23 23/12/23 6/1/23
f 23/12/23 24/12/23 3/13/23 4/14/23
f 11/3/3 12/2/2 1/2/24 2/3/25
f 55/15/23 31/15/23 16/16/23 54/17/23
f 24/12/23 39/12/23 38/18/23 18/13/23 3/13/23
f 16/13/26 31/11/18 37/10/17 19/4/27
f 18/13/28 38/18/29 32/19/30 17/4/31
f 22/5/5 23/12/20 4/14/32 10/6/6
f 19/4/23 37/10/23 39/12/23 24/12/23 5/4/23
f 3/13/33 18/13/34 17/7/35 9/7/12
f 37/10/23 40/9/23 39/12/23
f 40/9/23 41/20/23 39/12/23
f 41/20/23 42/21/23 39/12/23
f 42/21/23 43/8/23 39/12/23
f 43/8/23 38/18/23 39/12/23
f 34/21/36 41/20/37 40/9/16 33/8/15
f 35/22/38 42/21/39 41/20/37 34/21/36
f 36/9/40 43/8/41 42/21/39 35/22/38
f 36/9/40 32/19/30 38/18/29 43/8/41
f 53/23/23 60/24/23 25/25/23 13/26/23
f 55/27/23 26/27/23 30/28/23 56/28/23
f 56/28/23 30/28/23 29/29/23 57/29/23
f 57/29/23 29/29/23 28/30/23 58/30/23
f 58/30/23 28/30/23 27/31/23 59/32/23
f 59/32/23 27/31/23 25/25/23 60/24/23
f 9/7/12 17/4/35 15/33/42 8/7/13
f 50/34/43 44/26/43 13/26/43 25/34/43
f 20/35/43 45/36/43 26/36/43 14/35/43
f 45/36/43 46/37/43 30/37/43 26/36/43
f 46/37/43 47/38/43 29/38/43 30/37/43
f 47/38/43 48/39/43 28/39/43 29/38/43
f 48/39/43 49/40/43 27/40/43 28/39/43
f 49/40/43 50/34/43 25/34/43 27/40/43
f 16/3/21 11/3/3 2/3/25 51/41/44
f 54/42/44 16/43/21 51/44/44 61/45/44
f 53/23/42 13/26/42 44/26/42 52/46/42
f 17/47/35 53/48/42 52/49/42 15/50/42
f 14/35/44 54/51/44 61/52/44 20/35/44
f 36/53/23 59/54/23 60/55/23 32/55/23
f 35/56/23 58/56/23 59/54/23 36/53/23
f 34/57/23 57/58/23 58/56/23 35/56/23
f 33/59/23 56/60/23 57/58/23 34/57/23
f 31/15/23 55/15/23 56/60/23 33/59/23
f 17/47/23 32/55/23 60/55/23 53/48/23
f 26/27/23 55/27/23 54/61/23 14/35/23
f 62/62/45 45/36/45 20/35/45 61/52/45
f 62/63/45 63/64/45 15/65/45 52/66/45
f 64/5/45 63/67/45 51/41/45 2/3/45
f 21/5/45 64/5/45 2/3/45 1/2/45
f 8/7/45 15/68/45 63/67/45 64/5/45
f 61/69/45 51/70/45 63/64/45 62/63/45
f 7/6/45 8/7/45 64/5/45 21/5/45
f 62/62/45 46/37/45 45/36/45
f 62/62/45 47/38/45 46/37/45
f 62/62/45 48/39/45 47/38/45
f 62/62/45 49/40/45 48/39/45
f 50/34/45 49/40/45 62/62/45
f 44/26/45 50/34/45 62/71/45 52/72/45
f 10/6/11 4/14/46 3/13/33 9/7/12
