# Blender 5.0.1
# www.blender.org
o GEO_BerryBush_B
v 9.860509 -0.013357 -17.603603
v 9.603604 -0.013357 -17.860508
v 9.678849 -0.013357 -17.678850
v 9.829511 0.358620 -17.515516
v 9.845010 0.701160 -17.845009
v 9.515516 0.358620 -17.829510
v 9.845010 0.600832 -17.643166
v 9.680205 0.556386 -17.680204
v 9.643167 0.600832 -17.845009
v 9.607483 0.358620 -17.607483
v 9.603604 -0.013357 -18.139492
v 9.860509 -0.013357 -18.396397
v 9.678849 -0.013357 -18.321150
v 9.845010 0.701160 -18.154991
v 9.829511 0.358620 -18.484484
v 9.515516 0.358620 -18.170490
v 9.845010 0.600832 -18.356834
v 9.680205 0.556386 -18.319796
v 9.607483 0.358620 -18.392517
v 9.643167 0.600832 -18.154991
v 10.396396 -0.013357 -17.860508
v 10.139491 -0.013357 -17.603603
v 10.321151 -0.013357 -17.678850
v 10.154990 0.701160 -17.845009
v 10.170489 0.358620 -17.515516
v 10.484484 0.358620 -17.829510
v 10.154990 0.600832 -17.643166
v 10.319795 0.556386 -17.680204
v 10.392517 0.358620 -17.607483
v 10.356833 0.600832 -17.845009
v 10.139491 -0.013357 -18.396397
v 10.396396 -0.013357 -18.139492
v 10.321151 -0.013357 -18.321150
v 10.154990 0.701160 -18.154991
v 10.484484 0.358620 -18.170490
v 10.170489 0.358620 -18.484484
v 10.356833 0.600832 -18.154991
v 10.319795 0.556386 -18.319796
v 10.392517 0.358620 -18.392517
v 10.154990 0.600832 -18.356834
v 9.829511 0.114401 -17.515516
v 9.607483 0.114401 -17.607483
v 9.515516 0.114401 -17.829510
v 9.829511 0.114401 -18.484484
v 9.607483 0.114401 -18.392517
v 9.515516 0.114401 -18.170490
v 10.484484 0.114401 -18.170490
v 10.392517 0.114401 -18.392517
v 10.170489 0.114401 -18.484484
v 10.170489 0.114401 -17.515516
v 10.392517 0.114401 -17.607483
v 10.484484 0.114401 -17.829510
v 9.636015 0.415638 -17.583181
v 9.622858 0.376244 -17.566671
v 9.667399 0.434325 -17.557426
v 9.656151 0.390681 -17.523411
v 9.636015 0.334831 -17.556215
v 9.650015 0.312660 -17.592409
v 9.667399 0.335357 -17.524399
v 9.694556 0.300760 -17.559809
v 9.680362 0.311806 -17.625210
v 9.677172 0.348045 -17.651173
v 9.721713 0.307157 -17.608900
v 9.732962 0.350801 -17.642914
v 9.680362 0.392613 -17.652176
v 9.650015 0.411629 -17.625437
v 9.721713 0.406126 -17.641928
v 9.694556 0.440723 -17.606516
v 9.631565 0.358584 -17.619593
v 9.708751 0.429677 -17.541115
v 9.711941 0.393438 -17.515152
v 9.708751 0.348869 -17.514149
v 9.739098 0.428822 -17.573915
v 9.757546 0.382899 -17.546732
v 9.739098 0.329854 -17.540888
v 9.753098 0.406652 -17.610111
v 9.766253 0.365238 -17.599653
v 9.753098 0.325844 -17.583143
v 9.537389 0.428940 -18.250109
v 9.523634 0.452505 -18.212997
v 9.554733 0.457027 -18.282232
v 9.536568 0.498715 -18.245920
v 9.537389 0.479884 -18.178604
v 9.567491 0.458374 -18.151165
v 9.554733 0.519420 -18.194658
v 9.598590 0.507015 -18.158476
v 9.609006 0.438524 -18.149136
v 9.611347 0.401849 -18.176907
v 9.642447 0.468764 -18.158567
v 9.660612 0.427076 -18.194880
v 9.609006 0.387579 -18.220640
v 9.567491 0.395980 -18.238739
v 9.642447 0.406370 -18.246141
v 9.598590 0.418776 -18.282324
v 9.554609 0.412382 -18.184412
v 9.588173 0.487267 -18.291664
v 9.585833 0.523942 -18.263893
v 9.588173 0.538212 -18.220161
v 9.629689 0.467417 -18.289635
v 9.642570 0.513409 -18.256390
v 9.629689 0.529810 -18.202061
v 9.659791 0.445907 -18.262196
v 9.673546 0.473285 -18.227802
v 9.659791 0.496851 -18.190693
v 10.267101 0.614371 -17.662344
v 10.263951 0.597907 -17.629435
v 10.301784 0.612623 -17.674917
v 10.310343 0.594288 -17.632874
v 10.267101 0.565881 -17.611313
v 10.243287 0.540787 -17.624245
v 10.301784 0.553234 -17.612419
v 10.281120 0.513508 -17.625534
v 10.233358 0.521095 -17.653870
v 10.222624 0.543056 -17.681555
v 10.260457 0.498383 -17.664539
v 10.251898 0.516717 -17.706583
v 10.233358 0.569586 -17.704901
v 10.243287 0.600176 -17.686745
v 10.260457 0.557771 -17.727039
v 10.281120 0.597497 -17.713923
v 10.227616 0.576686 -17.649599
v 10.328882 0.589910 -17.685587
v 10.339617 0.567949 -17.657902
v 10.328882 0.541420 -17.634556
v 10.318954 0.570218 -17.715212
v 10.334624 0.534319 -17.689857
v 10.318954 0.510829 -17.652712
v 10.295139 0.545125 -17.728144
v 10.298289 0.513098 -17.710024
v 10.295139 0.496634 -17.677113
v 9.673749 0.652180 -17.894926
v 9.663504 0.647848 -17.861992
v 9.698043 0.676920 -17.897411
v 9.689224 0.682708 -17.854778
v 9.673749 0.638755 -17.830042
v 9.684795 0.605803 -17.829256
v 9.698043 0.660477 -17.817944
v 9.719335 0.623248 -17.808485
v 9.708518 0.583521 -17.841471
v 9.706087 0.580201 -17.875988
v 9.740626 0.592830 -17.831942
v 9.749446 0.587041 -17.874573
v 9.708518 0.596947 -17.906355
v 9.684795 0.622246 -17.908724
v 9.740626 0.609273 -17.911407
v 9.719335 0.646502 -17.920868
v 9.670488 0.605388 -17.870777
v 9.730152 0.686228 -17.887882
v 9.732583 0.689548 -17.853363
v 9.730152 0.672803 -17.822998
v 9.753875 0.663946 -17.900095
v 9.768182 0.664361 -17.858576
v 9.753875 0.647503 -17.820629
v 9.764921 0.630995 -17.899311
v 9.775167 0.621901 -17.867361
v 9.764921 0.617569 -17.834425
v 9.953754 0.686768 -18.259684
v 9.945755 0.706914 -18.229927
v 9.988721 0.691670 -18.270107
v 9.988461 0.724044 -18.236713
v 9.953754 0.712615 -18.194447
v 9.946383 0.682798 -18.174152
v 9.988721 0.723326 -18.190210
v 9.989348 0.689938 -18.157835
v 9.954780 0.647386 -18.168604
v 9.947010 0.627025 -18.198275
v 9.989976 0.643437 -18.158556
v 9.990236 0.611063 -18.191950
v 9.954780 0.621539 -18.233839
v 9.946383 0.651142 -18.254049
v 9.989976 0.611781 -18.238455
v 9.989348 0.645169 -18.270828
v 9.928586 0.666728 -18.214005
v 10.023917 0.687721 -18.260061
v 10.031686 0.708082 -18.230391
v 10.023917 0.713568 -18.194824
v 10.032314 0.652309 -18.254513
v 10.050111 0.668379 -18.214659
v 10.032314 0.683965 -18.174614
v 10.024942 0.622492 -18.234217
v 10.032942 0.628192 -18.198736
v 10.024942 0.648339 -18.168980
v 10.050514 0.338399 -18.531136
v 10.041874 0.382565 -18.530254
v 10.094154 0.330466 -18.538795
v 10.096306 0.386813 -18.546160
v 10.050514 0.421287 -18.508995
v 10.036680 0.419831 -18.466187
v 10.094154 0.431983 -18.511679
v 10.088962 0.439516 -18.455553
v 10.042034 0.399255 -18.426514
v 10.031487 0.355581 -18.429235
v 10.083768 0.404999 -18.410660
v 10.081616 0.348652 -18.403296
v 10.042034 0.316367 -18.448654
v 10.036680 0.318314 -18.493303
v 10.083768 0.303482 -18.437777
v 10.088962 0.295949 -18.493902
v 10.015025 0.369628 -18.481823
v 10.135889 0.336210 -18.522943
v 10.146435 0.379884 -18.520220
v 10.135889 0.419098 -18.500801
v 10.141242 0.315634 -18.483269
v 10.162897 0.365837 -18.467632
v 10.141242 0.417151 -18.456152
v 10.127408 0.314178 -18.440460
v 10.136048 0.352900 -18.419201
v 10.127408 0.397066 -18.418320
v 10.266735 0.681421 -18.187111
v 10.263706 0.702287 -18.149273
v 10.306746 0.666061 -18.193409
v 10.317736 0.693764 -18.147509
v 10.266735 0.698150 -18.106260
v 10.237175 0.670385 -18.091040
v 10.306746 0.686551 -18.094385
v 10.280214 0.648647 -18.065157
v 10.223410 0.629324 -18.092018
v 10.210644 0.617993 -18.131830
v 10.253683 0.602257 -18.076944
v 10.242694 0.574554 -18.122843
v 10.223410 0.612595 -18.172871
v 10.237175 0.649895 -18.190063
v 10.253683 0.581767 -18.175966
v 10.280214 0.619671 -18.205196
v 10.219347 0.670902 -18.142778
v 10.337019 0.638994 -18.178333
v 10.349786 0.650325 -18.138521
v 10.337019 0.655723 -18.097481
v 10.323255 0.597933 -18.179312
v 10.341082 0.597416 -18.127573
v 10.323255 0.618423 -18.080288
v 10.293694 0.570168 -18.164091
v 10.296723 0.566031 -18.121078
v 10.293694 0.586898 -18.083241
v 10.400026 0.581176 -18.052622
v 10.401874 0.594787 -18.012444
v 10.431522 0.553998 -18.061123
v 10.447972 0.567361 -18.011843
v 10.400026 0.582948 -17.971708
v 10.362160 0.566230 -17.962246
v 10.431522 0.556168 -17.962027
v 10.391809 0.526975 -17.940853
v 10.335175 0.534543 -17.970650
v 10.322447 0.535503 -18.011147
v 10.352096 0.496884 -17.960728
v 10.335646 0.483521 -18.010008
v 10.335175 0.532771 -18.051561
v 10.362160 0.564061 -18.061344
v 10.352096 0.494715 -18.059826
v 10.391809 0.523907 -18.080997
v 10.349879 0.581591 -18.012156
v 10.448443 0.516340 -18.051203
v 10.461172 0.515379 -18.010706
v 10.448443 0.518111 -17.970289
v 10.421458 0.484652 -18.059605
v 10.433740 0.469291 -18.009697
v 10.421458 0.486822 -17.960508
v 10.383592 0.467935 -18.050142
v 10.381744 0.456095 -18.009407
v 10.383592 0.469706 -17.969231
v 9.869514 0.662280 -17.661018
v 9.858389 0.638538 -17.621294
v 9.913690 0.679863 -17.658806
v 9.911485 0.659419 -17.602295
v 9.869514 0.601227 -17.593912
v 9.863713 0.560245 -17.617414
v 9.913690 0.605089 -17.576616
v 9.919014 0.548697 -17.596809
v 9.878208 0.534429 -17.654684
v 9.869038 0.556727 -17.695724
v 9.924338 0.523278 -17.651047
v 9.926544 0.543721 -17.707556
v 9.878208 0.595482 -17.721790
v 9.863713 0.635019 -17.699604
v 9.924338 0.598052 -17.733234
v 9.919014 0.654444 -17.713041
v 9.840807 0.596001 -17.659992
v 9.959820 0.668712 -17.655169
v 9.968991 0.646414 -17.614128
v 9.959820 0.607659 -17.588060
v 9.974316 0.642896 -17.692438
v 9.997222 0.607140 -17.649858
v 9.974316 0.568122 -17.610249
v 9.968514 0.601913 -17.715940
v 9.979640 0.564603 -17.688557
v 9.968514 0.540860 -17.648832
v 10.104584 0.744347 -17.995243
v 10.097711 0.752241 -17.956238
v 10.144011 0.746115 -18.003805
v 10.147676 0.762557 -17.955645
v 10.104584 0.739930 -17.918394
v 10.088865 0.703312 -17.911835
v 10.144011 0.740705 -17.909685
v 10.135165 0.693361 -17.892849
v 10.090138 0.664446 -17.922733
v 10.080019 0.659793 -17.961552
v 10.126320 0.648257 -17.914999
v 10.122655 0.631815 -17.963160
v 10.090138 0.668864 -17.999582
v 10.088865 0.708722 -18.005955
v 10.126320 0.653667 -18.009119
v 10.135165 0.701011 -18.025955
v 10.069687 0.709675 -17.958685
v 10.180192 0.729926 -17.996073
v 10.190311 0.734579 -17.957254
v 10.180192 0.725509 -17.919224
v 10.181465 0.691060 -18.006971
v 10.200644 0.684697 -17.960121
v 10.181465 0.685650 -17.912849
v 10.165747 0.654442 -18.000410
v 10.172620 0.642131 -17.962566
v 10.165747 0.650025 -17.923563
vn -0.1489 -0.5855 0.7968
vn -0.7968 -0.5855 0.1489
vn -0.5549 -0.6199 0.5549
vn -0.1847 0.2316 0.9551
vn -0.2085 0.9555 0.2085
vn -0.9551 0.2316 0.1847
vn -0.1785 0.7131 0.6780
vn -0.5554 0.6189 0.5554
vn -0.6780 0.7131 0.1785
vn -0.6877 0.2324 0.6877
vn -0.7968 -0.5855 -0.1489
vn -0.1489 -0.5855 -0.7968
vn -0.5549 -0.6199 -0.5549
vn -0.2085 0.9555 -0.2085
vn -0.1847 0.2316 -0.9551
vn -0.9551 0.2316 -0.1847
vn -0.1785 0.7131 -0.6780
vn -0.5554 0.6189 -0.5554
vn -0.6877 0.2324 -0.6877
vn -0.6780 0.7131 -0.1785
vn 0.7968 -0.5855 0.1489
vn 0.1489 -0.5855 0.7968
vn 0.5549 -0.6199 0.5549
vn 0.2085 0.9555 0.2085
vn 0.1847 0.2316 0.9551
vn 0.9551 0.2316 0.1847
vn 0.1785 0.7131 0.6780
vn 0.5554 0.6189 0.5554
vn 0.6877 0.2324 0.6877
vn 0.6780 0.7131 0.1785
vn 0.1489 -0.5855 -0.7968
vn 0.7968 -0.5855 -0.1489
vn 0.5549 -0.6199 -0.5549
vn 0.2085 0.9555 -0.2085
vn 0.9551 0.2316 -0.1847
vn 0.1847 0.2316 -0.9551
vn 0.6780 0.7131 -0.1785
vn 0.5554 0.6189 -0.5554
vn 0.6877 0.2324 -0.6877
vn 0.1785 0.7131 -0.6780
vn -0.1900 -0.2977 0.9356
vn -0.6733 -0.3057 0.6733
vn -0.9356 -0.2977 0.1900
vn -0.1900 -0.2977 -0.9356
vn -0.6733 -0.3057 -0.6733
vn -0.9356 -0.2977 -0.1900
vn 0.9356 -0.2977 -0.1900
vn 0.6733 -0.3057 -0.6733
vn 0.1900 -0.2977 -0.9356
vn 0.1900 -0.2977 0.9356
vn 0.6733 -0.3057 0.6733
vn 0.9356 -0.2977 0.1900
vn -0.7935 0.6086 -0.0003
vn -0.9718 0.0746 0.2235
vn -0.3681 0.8619 0.3489
vn -0.5206 0.2703 0.8099
vn -0.7935 -0.4868 0.3653
vn -0.6037 -0.7873 -0.1253
vn -0.3681 -0.4796 0.7965
vn -0.0000 -0.9486 0.3166
vn -0.1924 -0.7988 -0.5699
vn -0.2356 -0.3076 -0.9219
vn 0.3681 -0.8619 -0.3489
vn 0.5206 -0.2703 -0.8099
vn -0.1924 0.2965 -0.9355
vn -0.6037 0.5542 -0.5730
vn 0.3681 0.4796 -0.7965
vn -0.0000 0.9486 -0.3166
vn -0.8538 -0.1648 -0.4938
vn 0.1924 0.7988 0.5699
vn 0.2356 0.3076 0.9219
vn 0.1924 -0.2965 0.9355
vn 0.6037 0.7873 0.1253
vn 0.8538 0.1648 0.4938
vn 0.6037 -0.5542 0.5730
vn 0.7935 0.4868 -0.3653
vn 0.9718 -0.0746 -0.2235
vn 0.7935 -0.6086 0.0003
vn -0.8049 -0.4466 -0.3907
vn -0.9858 -0.1367 0.0974
vn -0.5768 -0.0772 -0.8132
vn -0.8157 0.4711 -0.3356
vn -0.8049 0.2234 0.5497
vn -0.4090 -0.0595 0.9106
vn -0.5768 0.7434 0.3386
vn -0.0000 0.5803 0.8144
vn 0.1370 -0.3205 0.9373
vn 0.1678 -0.8029 0.5720
vn 0.5768 0.0772 0.8132
vn 0.8157 -0.4711 0.3356
vn 0.1370 -0.9906 -0.0031
vn -0.4090 -0.8801 -0.2412
vn 0.5768 -0.7434 -0.3386
vn -0.0000 -0.5803 -0.8144
vn -0.5784 -0.6644 0.4733
vn -0.1370 0.3205 -0.9373
vn -0.1678 0.8029 -0.5720
vn -0.1370 0.9906 0.0031
vn 0.4090 0.0595 -0.9106
vn 0.5784 0.6644 -0.4733
vn 0.4090 0.8801 0.2412
vn 0.8049 -0.2234 -0.5497
vn 0.9858 0.1367 -0.0974
vn 0.8049 0.4466 0.3907
vn -0.2300 0.9656 0.1211
vn -0.2816 0.6956 0.6610
vn 0.3389 0.9369 -0.0851
vn 0.4793 0.6362 0.6045
vn -0.2300 0.1702 0.9582
vn -0.6206 -0.2414 0.7461
vn 0.3389 -0.0372 0.9401
vn -0.0000 -0.6888 0.7249
vn -0.7834 -0.5644 0.2601
vn -0.9595 -0.2042 -0.1940
vn -0.3389 -0.9369 0.0851
vn -0.4793 -0.6362 -0.6045
vn -0.7834 0.2310 -0.5769
vn -0.6206 0.7328 -0.2791
vn -0.3389 0.0372 -0.9401
vn -0.0000 0.6888 -0.7249
vn -0.8776 0.3475 0.3302
vn 0.7834 0.5644 -0.2601
vn 0.9595 0.2042 0.1940
vn 0.7834 -0.2310 0.5769
vn 0.6206 0.2414 -0.7461
vn 0.8776 -0.3475 -0.3302
vn 0.6206 -0.7328 0.2791
vn 0.2300 -0.1702 -0.9582
vn 0.2816 -0.6956 -0.6610
vn 0.2300 -0.9656 -0.1211
vn -0.7944 0.3016 -0.5272
vn -0.9730 0.2261 0.0468
vn -0.3711 0.7327 -0.5705
vn -0.5247 0.8336 0.1725
vn -0.7944 0.0676 0.6036
vn -0.6019 -0.5066 0.6173
vn -0.3711 0.4462 0.8144
vn -0.0000 -0.2026 0.9793
vn -0.1885 -0.8949 0.4044
vn -0.2309 -0.9528 -0.1971
vn 0.3711 -0.7327 0.5705
vn 0.5247 -0.8336 -0.1725
vn -0.1885 -0.6610 -0.7263
vn -0.6019 -0.2201 -0.7676
vn 0.3711 -0.4462 -0.8144
vn -0.0000 0.2026 -0.9793
vn -0.8513 -0.5139 -0.1063
vn 0.1885 0.8949 -0.4044
vn 0.2309 0.9528 0.1971
vn 0.1885 0.6610 0.7263
vn 0.6019 0.5066 -0.6173
vn 0.8513 0.5139 0.1063
vn 0.6019 0.2201 0.7676
vn 0.7944 -0.0676 -0.6036
vn 0.9730 -0.2261 -0.0468
vn 0.7944 -0.3016 0.5272
vn -0.5857 0.3162 -0.7463
vn -0.7174 0.6477 -0.2566
vn -0.0103 0.3969 -0.9178
vn -0.0146 0.9296 -0.3683
vn -0.5857 0.7415 0.3272
vn -0.7070 0.2509 0.6612
vn -0.0103 0.9178 0.3970
vn -0.0000 0.3684 0.9297
vn -0.5689 -0.3319 0.7525
vn -0.6967 -0.6669 0.2642
vn 0.0103 -0.3969 0.9178
vn 0.0146 -0.9296 0.3683
vn -0.5689 -0.7572 -0.3210
vn -0.7070 -0.2701 -0.6536
vn 0.0103 -0.9178 -0.3970
vn -0.0000 -0.3684 -0.9297
vn -0.9999 -0.0136 0.0054
vn 0.5689 0.3319 -0.7525
vn 0.6967 0.6669 -0.2642
vn 0.5689 0.7572 0.3210
vn 0.7070 -0.2509 -0.6612
vn 0.9999 0.0136 -0.0054
vn 0.7070 0.2701 0.6536
vn 0.5857 -0.7415 -0.3272
vn 0.7174 -0.6477 0.2566
vn 0.5857 -0.3162 0.7463
vn -0.5175 -0.3948 -0.7592
vn -0.6337 0.1996 -0.7473
vn 0.0699 -0.5016 -0.8623
vn 0.0988 0.2568 -0.9614
vn -0.5175 0.7208 -0.4612
vn -0.7036 0.7012 0.1150
vn 0.0699 0.8647 -0.4973
vn -0.0000 0.9661 0.2581
vn -0.6316 0.4243 0.6489
vn -0.7735 -0.1636 0.6123
vn -0.0699 0.5016 0.8623
vn -0.0988 -0.2568 0.9614
vn -0.6316 -0.6913 0.3509
vn -0.7036 -0.6651 -0.2500
vn -0.0699 -0.8647 0.4973
vn -0.0000 -0.9661 -0.2581
vn -0.9951 0.0255 -0.0955
vn 0.6316 -0.4243 -0.6489
vn 0.7735 0.1636 -0.6123
vn 0.6316 0.6913 -0.3509
vn 0.7036 -0.7012 -0.1150
vn 0.9951 -0.0255 0.0955
vn 0.7036 0.6651 0.2500
vn 0.5175 -0.7208 0.4612
vn 0.6337 -0.1996 0.7473
vn 0.5175 0.3948 0.7592
vn -0.1885 0.6610 -0.7263
vn -0.2309 0.9528 -0.1971
vn 0.3711 0.4462 -0.8144
vn 0.5247 0.8336 -0.1725
vn -0.1885 0.8949 0.4044
vn -0.6019 0.5066 0.6173
vn 0.3711 0.7327 0.5705
vn -0.0000 0.2026 0.9793
vn -0.7944 -0.0676 0.6036
vn -0.9730 -0.2261 0.0468
vn -0.3711 -0.4462 0.8144
vn -0.5247 -0.8336 0.1725
vn -0.7944 -0.3016 -0.5272
vn -0.6019 0.2201 -0.7676
vn -0.3711 -0.7327 -0.5705
vn -0.0000 -0.2026 -0.9793
vn -0.8513 0.5139 -0.1063
vn 0.7944 0.0676 -0.6036
vn 0.9730 0.2261 -0.0468
vn 0.7944 0.3016 0.5272
vn 0.6019 -0.5066 -0.6173
vn 0.8513 -0.5139 0.1063
vn 0.6019 -0.2201 0.7676
vn 0.1885 -0.8949 -0.4044
vn 0.2309 -0.9528 0.1971
vn 0.1885 -0.6610 0.7263
vn 0.1172 0.7952 -0.5949
vn 0.1436 0.9894 -0.0217
vn 0.5666 0.4074 -0.7162
vn 0.8013 0.5981 -0.0131
vn 0.1172 0.8205 0.5595
vn -0.4230 0.5820 0.6945
vn 0.5666 0.4384 0.6977
vn -0.0000 0.0219 0.9998
vn -0.8080 0.1299 0.5746
vn -0.9896 0.1436 -0.0031
vn -0.5666 -0.4074 0.7162
vn -0.8013 -0.5981 0.0131
vn -0.8080 0.1046 -0.5798
vn -0.4230 0.5510 -0.7193
vn -0.5666 -0.4384 -0.6977
vn -0.0000 -0.0219 -0.9998
vn -0.5982 0.8011 -0.0175
vn 0.8080 -0.1299 -0.5746
vn 0.9896 -0.1436 0.0031
vn 0.8080 -0.1046 0.5798
vn 0.4230 -0.5820 -0.6945
vn 0.5982 -0.8011 0.0175
vn 0.4230 -0.5510 0.7193
vn -0.1172 -0.8205 -0.5595
vn -0.1436 -0.9894 0.0217
vn -0.1172 -0.7952 0.5949
vn -0.6300 0.7727 -0.0776
vn -0.7716 0.4705 0.4281
vn -0.0678 0.9965 -0.0494
vn -0.0958 0.7363 0.6699
vn -0.6300 -0.0044 0.7766
vn -0.7039 -0.5260 0.4774
vn -0.0678 0.0448 0.9967
vn -0.0000 -0.6730 0.7397
vn -0.5194 -0.8545 0.0031
vn -0.6361 -0.5708 -0.5193
vn 0.0678 -0.9965 0.0494
vn 0.0958 -0.7363 -0.6699
vn -0.5194 -0.0775 -0.8510
vn -0.7039 0.4257 -0.5686
vn 0.0678 -0.0448 -0.9967
vn -0.0000 0.6730 -0.7397
vn -0.9954 -0.0709 -0.0645
vn 0.5194 0.8545 -0.0031
vn 0.6361 0.5708 0.5193
vn 0.5194 0.0775 0.8510
vn 0.7039 0.5260 -0.4774
vn 0.9954 0.0709 0.0645
vn 0.7039 -0.4257 0.5686
vn 0.6300 0.0044 -0.7766
vn 0.7716 -0.4705 -0.4281
vn 0.6300 -0.7727 0.0776
vn -0.4587 0.7075 -0.5376
vn -0.5618 0.8259 0.0475
vn 0.1327 0.7340 -0.6661
vn 0.1877 0.9806 0.0564
vn -0.4587 0.6412 0.6152
vn -0.6945 0.0919 0.7136
vn 0.1327 0.6528 0.7458
vn -0.0000 -0.0574 0.9984
vn -0.6754 -0.4911 0.5501
vn -0.8272 -0.5609 -0.0322
vn -0.1327 -0.7340 0.6661
vn -0.1877 -0.9806 -0.0564
vn -0.6754 -0.4249 -0.6027
vn -0.6945 0.1731 -0.6983
vn -0.1327 -0.6528 -0.7458
vn -0.0000 0.0574 -0.9984
vn -0.9822 0.1873 0.0108
vn 0.6754 0.4911 -0.5501
vn 0.8272 0.5609 0.0322
vn 0.6754 0.4249 0.6027
vn 0.6945 -0.0919 -0.7136
vn 0.9822 -0.1874 -0.0108
vn 0.6945 -0.1731 0.6983
vn 0.4587 -0.6412 -0.6152
vn 0.5618 -0.8259 -0.0475
vn 0.4587 -0.7075 0.5376
vt 0.695970 0.853148
vt 0.698989 0.860854
vt 0.697655 0.860039
vt 0.695014 0.853881
vt 0.700240 0.864047
vt 0.698033 0.861588
vt 0.694618 0.854185
vt 0.701708 0.862921
vt 0.700458 0.859728
vt 0.700684 0.857716
vt 0.701414 0.858995
vt 0.697439 0.852022
vt 0.698395 0.851288
vt 0.698791 0.850985
vt 0.693652 0.847230
vt 0.692696 0.847963
vt 0.692300 0.848267
vt 0.691334 0.841312
vt 0.690378 0.842045
vt 0.689982 0.842349
vt 0.696473 0.845067
vt 0.694154 0.839149
vt 0.693758 0.839453
vt 0.696077 0.845371
vt 0.692802 0.840186
vt 0.695121 0.846104
vt 0.805558 0.530244
vt 0.794346 0.527724
vt 0.794346 0.541456
vt 0.808078 0.541456
vt 0.783134 0.530244
vt 0.780614 0.541456
vt 0.794346 0.555188
vt 0.805558 0.552668
vt 0.783134 0.552668
vt 0.780614 0.527724
vt 0.774927 0.541456
vt 0.780614 0.555188
vt 0.808078 0.527724
vt 0.813766 0.541456
vt 0.808078 0.555188
vt 0.794346 0.522036
vt 0.794346 0.560876
vt 0.721848 0.519393
vt 0.710636 0.516873
vt 0.710636 0.530605
vt 0.724367 0.530605
vt 0.699424 0.519393
vt 0.696904 0.530605
vt 0.710636 0.544337
vt 0.721848 0.541817
vt 0.699424 0.541817
vt 0.696904 0.516873
vt 0.691216 0.530605
vt 0.696904 0.544337
vt 0.724367 0.516873
vt 0.730055 0.530605
vt 0.724367 0.544337
vt 0.710636 0.511185
vt 0.710636 0.550024
s 1
f 4/1/4 7/2/7 8/3/8 10/4/10
f 5/5/5 9/6/9 8/3/8 7/2/7
f 6/7/6 10/4/10 8/3/8 9/6/9
f 14/5/14 17/2/17 18/3/18 20/6/20
f 15/1/15 19/4/19 18/3/18 17/2/17
f 16/7/16 20/6/20 18/3/18 19/4/19
f 24/8/24 27/9/27 28/10/28 30/11/30
f 25/12/25 29/13/29 28/10/28 27/9/27
f 26/14/26 30/11/30 28/10/28 29/13/29
f 34/8/34 37/11/37 38/10/38 40/9/40
f 35/14/35 39/13/39 38/10/38 37/11/37
f 36/12/36 40/9/40 38/10/38 39/13/39
f 41/15/41 4/1/4 10/4/10 42/16/42
f 42/16/42 10/4/10 6/7/6 43/17/43
f 5/5/5 14/5/14 20/6/20 9/6/9
f 9/6/9 20/6/20 16/7/16 6/7/6
f 44/15/44 12/18/12 13/19/13 45/16/45
f 45/16/45 13/19/13 11/20/11 46/17/46
f 14/5/14 34/8/34 40/9/40 17/2/17
f 17/2/17 40/9/40 36/12/36 15/1/15
f 47/21/47 32/22/32 33/23/33 48/24/48
f 48/24/48 33/23/33 31/25/31 49/26/49
f 34/8/34 24/8/24 30/11/30 37/11/37
f 37/11/37 30/11/30 26/14/26 35/14/35
f 50/26/50 22/25/22 23/23/23 51/24/51
f 51/24/51 23/23/23 21/22/21 52/21/52
f 24/8/24 5/5/5 7/2/7 27/9/27
f 27/9/27 7/2/7 4/1/4 25/12/25
f 43/17/43 6/7/6 16/7/16 46/17/46
f 50/26/50 25/12/25 4/1/4 41/15/41
f 34/8/34 14/5/14 5/5/5 24/8/24
f 44/15/44 15/1/15 36/12/36 49/26/49
f 47/21/47 35/14/35 26/14/26 52/21/52
f 32/22/32 47/21/47 52/21/52 21/22/21
f 12/18/12 44/15/44 49/26/49 31/25/31
f 22/25/22 50/26/50 41/15/41 1/18/1
f 2/20/2 43/17/43 46/17/46 11/20/11
f 29/13/29 51/24/51 52/21/52 26/14/26
f 25/12/25 50/26/50 51/24/51 29/13/29
f 39/13/39 48/24/48 49/26/49 36/12/36
f 35/14/35 47/21/47 48/24/48 39/13/39
f 19/4/19 45/16/45 46/17/46 16/7/16
f 15/1/15 44/15/44 45/16/45 19/4/19
f 3/19/3 42/16/42 43/17/43 2/20/2
f 1/18/1 41/15/41 42/16/42 3/19/3
f 53/27/53 54/28/54 56/29/56 55/30/55
f 54/28/54 57/31/57 59/32/59 56/29/56
f 55/30/55 56/29/56 71/33/71 70/34/70
f 56/29/56 59/32/59 72/35/72 71/33/71
f 57/31/57 58/36/58 60/37/60 59/32/59
f 58/36/58 61/31/61 63/32/63 60/37/60
f 59/32/59 60/37/60 75/38/75 72/35/72
f 60/37/60 63/32/63 78/35/78 75/38/75
f 61/31/61 62/28/62 64/29/64 63/32/63
f 62/28/62 65/27/65 67/30/67 64/29/64
f 63/32/63 64/29/64 77/33/77 78/35/78
f 64/29/64 67/30/67 76/34/76 77/33/77
f 65/27/65 66/39/66 68/40/68 67/30/67
f 66/39/66 53/27/53 55/30/55 68/40/68
f 67/30/67 68/40/68 73/41/73 76/34/76
f 68/40/68 55/30/55 70/34/70 73/41/73
f 65/27/65 62/28/62 69/42/69 66/39/66
f 62/28/62 61/31/61 58/36/58 69/42/69
f 66/39/66 69/42/69 54/28/54 53/27/53
f 69/42/69 58/36/58 57/31/57 54/28/54
f 70/34/70 71/33/71 74/43/74 73/41/73
f 71/33/71 72/35/72 75/38/75 74/43/74
f 73/41/73 74/43/74 77/33/77 76/34/76
f 74/43/74 75/38/75 78/35/78 77/33/77
f 79/44/79 80/45/80 82/46/82 81/47/81
f 80/45/80 83/48/83 85/49/85 82/46/82
f 81/47/81 82/46/82 97/50/97 96/51/96
f 82/46/82 85/49/85 98/52/98 97/50/97
f 83/48/83 84/53/84 86/54/86 85/49/85
f 84/53/84 87/48/87 89/49/89 86/54/86
f 85/49/85 86/54/86 101/55/101 98/52/98
f 86/54/86 89/49/89 104/52/104 101/55/101
f 87/48/87 88/45/88 90/46/90 89/49/89
f 88/45/88 91/44/91 93/47/93 90/46/90
f 89/49/89 90/46/90 103/50/103 104/52/104
f 90/46/90 93/47/93 102/51/102 103/50/103
f 91/44/91 92/56/92 94/57/94 93/47/93
f 92/56/92 79/44/79 81/47/81 94/57/94
f 93/47/93 94/57/94 99/58/99 102/51/102
f 94/57/94 81/47/81 96/51/96 99/58/99
f 91/44/91 88/45/88 95/59/95 92/56/92
f 88/45/88 87/48/87 84/53/84 95/59/95
f 92/56/92 95/59/95 80/45/80 79/44/79
f 95/59/95 84/53/84 83/48/83 80/45/80
f 96/51/96 97/50/97 100/60/100 99/58/99
f 97/50/97 98/52/98 101/55/101 100/60/100
f 99/58/99 100/60/100 103/50/103 102/51/102
f 100/60/100 101/55/101 104/52/104 103/50/103
f 105/27/105 106/28/106 108/29/108 107/30/107
f 106/28/106 109/31/109 111/32/111 108/29/108
f 107/30/107 108/29/108 123/33/123 122/34/122
f 108/29/108 111/32/111 124/35/124 123/33/123
f 109/31/109 110/36/110 112/37/112 111/32/111
f 110/36/110 113/31/113 115/32/115 112/37/112
f 111/32/111 112/37/112 127/38/127 124/35/124
f 112/37/112 115/32/115 130/35/130 127/38/127
f 113/31/113 114/28/114 116/29/116 115/32/115
f 114/28/114 117/27/117 119/30/119 116/29/116
f 115/32/115 116/29/116 129/33/129 130/35/130
f 116/29/116 119/30/119 128/34/128 129/33/129
f 117/27/117 118/39/118 120/40/120 119/30/119
f 118/39/118 105/27/105 107/30/107 120/40/120
f 119/30/119 120/40/120 125/41/125 128/34/128
f 120/40/120 107/30/107 122/34/122 125/41/125
f 117/27/117 114/28/114 121/42/121 118/39/118
f 114/28/114 113/31/113 110/36/110 121/42/121
f 118/39/118 121/42/121 106/28/106 105/27/105
f 121/42/121 110/36/110 109/31/109 106/28/106
f 122/34/122 123/33/123 126/43/126 125/41/125
f 123/33/123 124/35/124 127/38/127 126/43/126
f 125/41/125 126/43/126 129/33/129 128/34/128
f 126/43/126 127/38/127 130/35/130 129/33/129
f 131/44/131 132/45/132 134/46/134 133/47/133
f 132/45/132 135/48/135 137/49/137 134/46/134
f 133/47/133 134/46/134 149/50/149 148/51/148
f 134/46/134 137/49/137 150/52/150 149/50/149
f 135/48/135 136/53/136 138/54/138 137/49/137
f 136/53/136 139/48/139 141/49/141 138/54/138
f 137/49/137 138/54/138 153/55/153 150/52/150
f 138/54/138 141/49/141 156/52/156 153/55/153
f 139/48/139 140/45/140 142/46/142 141/49/141
f 140/45/140 143/44/143 145/47/145 142/46/142
f 141/49/141 142/46/142 155/50/155 156/52/156
f 142/46/142 145/47/145 154/51/154 155/50/155
f 143/44/143 144/56/144 146/57/146 145/47/145
f 144/56/144 131/44/131 133/47/133 146/57/146
f 145/47/145 146/57/146 151/58/151 154/51/154
f 146/57/146 133/47/133 148/51/148 151/58/151
f 143/44/143 140/45/140 147/59/147 144/56/144
f 140/45/140 139/48/139 136/53/136 147/59/147
f 144/56/144 147/59/147 132/45/132 131/44/131
f 147/59/147 136/53/136 135/48/135 132/45/132
f 148/51/148 149/50/149 152/60/152 151/58/151
f 149/50/149 150/52/150 153/55/153 152/60/152
f 151/58/151 152/60/152 155/50/155 154/51/154
f 152/60/152 153/55/153 156/52/156 155/50/155
f 157/27/157 158/28/158 160/29/160 159/30/159
f 158/28/158 161/31/161 163/32/163 160/29/160
f 159/30/159 160/29/160 175/33/175 174/34/174
f 160/29/160 163/32/163 176/35/176 175/33/175
f 161/31/161 162/36/162 164/37/164 163/32/163
f 162/36/162 165/31/165 167/32/167 164/37/164
f 163/32/163 164/37/164 179/38/179 176/35/176
f 164/37/164 167/32/167 182/35/182 179/38/179
f 165/31/165 166/28/166 168/29/168 167/32/167
f 166/28/166 169/27/169 171/30/171 168/29/168
f 167/32/167 168/29/168 181/33/181 182/35/182
f 168/29/168 171/30/171 180/34/180 181/33/181
f 169/27/169 170/39/170 172/40/172 171/30/171
f 170/39/170 157/27/157 159/30/159 172/40/172
f 171/30/171 172/40/172 177/41/177 180/34/180
f 172/40/172 159/30/159 174/34/174 177/41/177
f 169/27/169 166/28/166 173/42/173 170/39/170
f 166/28/166 165/31/165 162/36/162 173/42/173
f 170/39/170 173/42/173 158/28/158 157/27/157
f 173/42/173 162/36/162 161/31/161 158/28/158
f 174/34/174 175/33/175 178/43/178 177/41/177
f 175/33/175 176/35/176 179/38/179 178/43/178
f 177/41/177 178/43/178 181/33/181 180/34/180
f 178/43/178 179/38/179 182/35/182 181/33/181
f 183/44/183 184/45/184 186/46/186 185/47/185
f 184/45/184 187/48/187 189/49/189 186/46/186
f 185/47/185 186/46/186 201/50/201 200/51/200
f 186/46/186 189/49/189 202/52/202 201/50/201
f 187/48/187 188/53/188 190/54/190 189/49/189
f 188/53/188 191/48/191 193/49/193 190/54/190
f 189/49/189 190/54/190 205/55/205 202/52/202
f 190/54/190 193/49/193 208/52/208 205/55/205
f 191/48/191 192/45/192 194/46/194 193/49/193
f 192/45/192 195/44/195 197/47/197 194/46/194
f 193/49/193 194/46/194 207/50/207 208/52/208
f 194/46/194 197/47/197 206/51/206 207/50/207
f 195/44/195 196/56/196 198/57/198 197/47/197
f 196/56/196 183/44/183 185/47/185 198/57/198
f 197/47/197 198/57/198 203/58/203 206/51/206
f 198/57/198 185/47/185 200/51/200 203/58/203
f 195/44/195 192/45/192 199/59/199 196/56/196
f 192/45/192 191/48/191 188/53/188 199/59/199
f 196/56/196 199/59/199 184/45/184 183/44/183
f 199/59/199 188/53/188 187/48/187 184/45/184
f 200/51/200 201/50/201 204/60/204 203/58/203
f 201/50/201 202/52/202 205/55/205 204/60/204
f 203/58/203 204/60/204 207/50/207 206/51/206
f 204/60/204 205/55/205 208/52/208 207/50/207
f 209/27/209 210/28/210 212/29/212 211/30/211
f 210/28/210 213/31/213 215/32/215 212/29/212
f 211/30/211 212/29/212 227/33/227 226/34/226
f 212/29/212 215/32/215 228/35/228 227/33/227
f 213/31/213 214/36/214 216/37/216 215/32/215
f 214/36/214 217/31/217 219/32/219 216/37/216
f 215/32/215 216/37/216 231/38/231 228/35/228
f 216/37/216 219/32/219 234/35/234 231/38/231
f 217/31/217 218/28/218 220/29/220 219/32/219
f 218/28/218 221/27/221 223/30/223 220/29/220
f 219/32/219 220/29/220 233/33/233 234/35/234
f 220/29/220 223/30/223 232/34/232 233/33/233
f 221/27/221 222/39/222 224/40/224 223/30/223
f 222/39/222 209/27/209 211/30/211 224/40/224
f 223/30/223 224/40/224 229/41/229 232/34/232
f 224/40/224 211/30/211 226/34/226 229/41/229
f 221/27/221 218/28/218 225/42/225 222/39/222
f 218/28/218 217/31/217 214/36/214 225/42/225
f 222/39/222 225/42/225 210/28/210 209/27/209
f 225/42/225 214/36/214 213/31/213 210/28/210
f 226/34/226 227/33/227 230/43/230 229/41/229
f 227/33/227 228/35/228 231/38/231 230/43/230
f 229/41/229 230/43/230 233/33/233 232/34/232
f 230/43/230 231/38/231 234/35/234 233/33/233
f 235/44/235 236/45/236 238/46/238 237/47/237
f 236/45/236 239/48/239 241/49/241 238/46/238
f 237/47/237 238/46/238 253/50/253 252/51/252
f 238/46/238 241/49/241 254/52/254 253/50/253
f 239/48/239 240/53/240 242/54/242 241/49/241
f 240/53/240 243/48/243 245/49/245 242/54/242
f 241/49/241 242/54/242 257/55/257 254/52/254
f 242/54/242 245/49/245 260/52/260 257/55/257
f 243/48/243 244/45/244 246/46/246 245/49/245
f 244/45/244 247/44/247 249/47/249 246/46/246
f 245/49/245 246/46/246 259/50/259 260/52/260
f 246/46/246 249/47/249 258/51/258 259/50/259
f 247/44/247 248/56/248 250/57/250 249/47/249
f 248/56/248 235/44/235 237/47/237 250/57/250
f 249/47/249 250/57/250 255/58/255 258/51/258
f 250/57/250 237/47/237 252/51/252 255/58/255
f 247/44/247 244/45/244 251/59/251 248/56/248
f 244/45/244 243/48/243 240/53/240 251/59/251
f 248/56/248 251/59/251 236/45/236 235/44/235
f 251/59/251 240/53/240 239/48/239 236/45/236
f 252/51/252 253/50/253 256/60/256 255/58/255
f 253/50/253 254/52/254 257/55/257 256/60/256
f 255/58/255 256/60/256 259/50/259 258/51/258
f 256/60/256 257/55/257 260/52/260 259/50/259
f 261/27/261 262/28/262 264/29/264 263/30/263
f 262/28/262 265/31/265 267/32/267 264/29/264
f 263/30/263 264/29/264 279/33/279 278/34/278
f 264/29/264 267/32/267 280/35/280 279/33/279
f 265/31/265 266/36/266 268/37/268 267/32/267
f 266/36/266 269/31/269 271/32/271 268/37/268
f 267/32/267 268/37/268 283/38/283 280/35/280
f 268/37/268 271/32/271 286/35/286 283/38/283
f 269/31/269 270/28/270 272/29/272 271/32/271
f 270/28/270 273/27/273 275/30/275 272/29/272
f 271/32/271 272/29/272 285/33/285 286/35/286
f 272/29/272 275/30/275 284/34/284 285/33/285
f 273/27/273 274/39/274 276/40/276 275/30/275
f 274/39/274 261/27/261 263/30/263 276/40/276
f 275/30/275 276/40/276 281/41/281 284/34/284
f 276/40/276 263/30/263 278/34/278 281/41/281
f 273/27/273 270/28/270 277/42/277 274/39/274
f 270/28/270 269/31/269 266/36/266 277/42/277
f 274/39/274 277/42/277 262/28/262 261/27/261
f 277/42/277 266/36/266 265/31/265 262/28/262
f 278/34/278 279/33/279 282/43/282 281/41/281
f 279/33/279 280/35/280 283/38/283 282/43/282
f 281/41/281 282/43/282 285/33/285 284/34/284
f 282/43/282 283/38/283 286/35/286 285/33/285
f 287/44/287 288/45/288 290/46/290 289/47/289
f 288/45/288 291/48/291 293/49/293 290/46/290
f 289/47/289 290/46/290 305/50/305 304/51/304
f 290/46/290 293/49/293 306/52/306 305/50/305
f 291/48/291 292/53/292 294/54/294 293/49/293
f 292/53/292 295/48/295 297/49/297 294/54/294
f 293/49/293 294/54/294 309/55/309 306/52/306
f 294/54/294 297/49/297 312/52/312 309/55/309
f 295/48/295 296/45/296 298/46/298 297/49/297
f 296/45/296 299/44/299 301/47/301 298/46/298
f 297/49/297 298/46/298 311/50/311 312/52/312
f 298/46/298 301/47/301 310/51/310 311/50/311
f 299/44/299 300/56/300 302/57/302 301/47/301
f 300/56/300 287/44/287 289/47/289 302/57/302
f 301/47/301 302/57/302 307/58/307 310/51/310
f 302/57/302 289/47/289 304/51/304 307/58/307
f 299/44/299 296/45/296 303/59/303 300/56/300
f 296/45/296 295/48/295 292/53/292 303/59/303
f 300/56/300 303/59/303 288/45/288 287/44/287
f 303/59/303 292/53/292 291/48/291 288/45/288
f 304/51/304 305/50/305 308/60/308 307/58/307
f 305/50/305 306/52/306 309/55/309 308/60/308
f 307/58/307 308/60/308 311/50/311 310/51/310
f 308/60/308 309/55/309 312/52/312 311/50/311
