# Blender 5.0.1
# www.blender.org
o GEO_PineTree_B
v -8.302533 0.000000 12.332237
v -8.332237 0.000000 12.302529
v -8.213581 0.542135 12.168859
v -8.183878 0.543755 12.198523
v -8.332237 0.000000 11.697463
v -8.302533 0.000000 11.667763
v -8.183877 0.520691 11.771983
v -8.213581 0.522279 11.801641
v -7.667763 0.000000 12.302529
v -7.697466 0.000000 12.332237
v -7.816123 0.543755 12.198523
v -7.786419 0.542135 12.168859
v -7.697467 0.000000 11.667763
v -7.667763 0.000000 11.697463
v -7.786419 0.522279 11.801641
v -7.816123 0.520691 11.771983
v -8.791361 0.201550 12.693432
v -8.917354 0.425240 12.176678
v -8.970312 0.186294 11.659614
v -8.602910 0.347660 11.296517
v -8.157922 0.130357 10.954426
v -7.615431 0.231339 11.050437
v -7.149958 0.157775 11.345022
v -7.025236 0.407533 11.848114
v -7.325863 0.337086 12.769458
v -6.972444 0.195562 12.370704
v -8.316998 0.296090 12.965540
v -7.778409 0.175063 13.066896
v -7.926564 2.161649 11.948572
v -8.077526 1.885934 12.098488
v -7.992898 1.895273 12.153143
v -7.892445 1.890208 12.166178
v -7.803331 1.895557 12.118205
v -7.742232 1.882432 12.039145
v -7.740176 1.885824 11.938514
v -7.775684 1.864879 11.846025
v -7.860137 1.863846 11.789919
v -7.961114 1.857046 11.777927
v -8.051262 1.868245 11.824059
v -8.111865 1.870125 11.905151
v -8.113665 1.890408 12.004225
v -7.850302 1.348791 12.455731
v -7.798698 0.789406 12.791652
v -8.174929 0.860145 12.711825
v -8.074580 1.381443 12.411913
v -7.657133 1.393467 12.329428
v -7.477219 0.885368 12.573501
v -7.508609 1.344028 12.164506
v -7.222325 0.790147 12.301660
v -7.528214 1.396512 11.935246
v -7.267468 0.912166 11.916028
v -7.585224 1.307292 11.718163
v -7.354759 0.748442 11.547808
v -7.778937 1.320271 11.600907
v -7.682012 0.785664 11.356927
v -8.006283 1.285145 11.562437
v -8.060610 0.718064 11.287537
v -8.204255 1.334141 11.679174
v -8.388879 0.808611 11.488794
v -8.349342 1.318029 11.853654
v -8.636288 0.762985 11.775476
v -8.329230 1.401632 12.076589
v -8.593163 0.917962 12.149409
v -8.269973 1.346223 12.301145
v -8.504169 0.792694 12.531067
v -8.189446 0.376114 12.198406
v -8.009491 0.333427 12.240064
v -7.855798 0.390672 12.136175
v -7.730514 0.339392 11.994514
v -7.752718 0.415727 11.830835
v -7.800322 0.327374 11.664057
v -7.955544 0.352774 11.575243
v -8.137233 0.316580 11.543828
v -8.282926 0.366728 11.637213
v -8.397225 0.337918 11.773685
v -8.388250 0.418665 11.943081
v -8.362845 0.341455 12.098114
v -8.300815 0.445521 13.015551
v -8.289408 0.260916 12.803600
v -7.828081 0.156592 12.903980
v -7.751680 0.322247 13.133566
v -7.288568 0.493200 12.814427
v -7.438023 0.300104 12.639693
v -7.128128 0.173511 12.300586
v -6.917555 0.340295 12.418968
v -7.189495 0.359281 11.844356
v -6.989371 0.558003 11.864635
v -7.293969 0.140928 11.406578
v -7.105027 0.290426 11.331720
v -7.695253 0.200432 11.175117
v -7.586067 0.358026 11.051248
v -8.151087 0.109945 11.093987
v -8.135319 0.247934 10.946344
v -8.515258 0.303315 11.399806
v -8.586295 0.466704 11.306539
v -8.833250 0.157307 11.682739
v -8.970695 0.309798 11.661971
v -8.785360 0.361805 12.121684
v -8.898953 0.561082 12.199702
v -8.780228 0.337398 12.752100
v -8.693499 0.172528 12.571291
v -7.999582 3.699312 11.715034
v -8.088858 3.593444 11.689171
v -8.100163 3.597090 11.739296
v -8.081386 3.605803 11.787029
v -8.042718 3.608025 11.822166
v -7.990664 3.609789 11.830609
v -7.941116 3.607287 11.812854
v -7.910308 3.605815 11.771348
v -7.899000 3.594548 11.722393
v -7.917788 3.588830 11.674182
v -7.956479 3.580629 11.639921
v -8.008514 3.579827 11.631343
v -8.058050 3.582657 11.649053
v -8.094755 2.758114 11.792976
v -8.058308 2.729847 11.757065
v -8.008126 2.752211 11.741539
v -7.964466 2.725101 11.742599
v -7.915464 2.740756 11.784820
v -7.888868 2.737221 11.848352
v -7.898033 2.769332 11.887752
v -7.933776 2.749089 11.925770
v -7.987295 2.774199 11.935248
v -8.036827 2.748963 11.937519
v -8.078344 2.764061 11.896297
v -8.103390 2.738412 11.844794
v -8.447058 2.705891 11.638283
v -8.505751 2.829165 11.596720
v -8.363222 2.676258 11.336743
v -8.316961 2.574354 11.419213
v -8.049543 2.777118 11.304617
v -8.042443 2.672714 11.393482
v -7.733078 2.653575 11.272174
v -7.767974 2.551227 11.360812
v -7.509132 2.745633 11.497879
v -7.568898 2.626273 11.554707
v -7.358673 2.719348 11.794760
v -7.439001 2.603048 11.818027
v -7.494332 2.885885 12.066977
v -7.550578 2.754242 12.054292
v -7.638089 2.791525 12.354008
v -7.682014 2.669541 12.294495
v -7.953126 2.900152 12.360052
v -7.958505 2.772970 12.294884
v -8.266157 2.789415 12.410709
v -8.229383 2.667247 12.343863
v -8.459442 2.864300 12.153171
v -8.398870 2.734050 12.123956
v -8.632101 2.739370 11.897998
v -8.549371 2.621954 11.899964
v -8.188606 3.070925 12.220001
v -8.108715 3.375736 12.004624
v -8.342830 3.104033 12.042556
v -8.202171 3.386269 11.905219
v -7.962847 3.100239 12.229734
v -7.977262 3.381827 12.022839
v -7.746214 3.073753 12.179566
v -7.853928 3.377546 11.980736
v -7.634162 3.128090 11.969921
v -7.785689 3.399514 11.860740
v -7.549808 3.028954 11.769097
v -7.743087 3.350718 11.742064
v -7.650785 3.036372 11.561401
v -7.797182 3.347263 11.623210
v -7.812469 2.967564 11.398685
v -7.891057 3.309838 11.530204
v -8.038074 2.993475 11.384476
v -8.022218 3.310390 11.511280
v -8.253904 2.980767 11.440123
v -8.145356 3.317796 11.553026
v -8.365520 3.083978 11.630256
v -8.213536 3.371493 11.662530
v -8.256123 3.357172 11.790447
v -8.448005 3.039587 11.850296
v -8.529204 2.772524 11.592721
v -7.723480 2.589533 11.258552
v -7.488702 2.682078 11.491479
v -7.333104 2.654562 11.802376
v -7.470321 2.830920 12.084590
v -7.623053 2.731296 12.377218
v -7.951351 2.849227 12.380764
v -8.275420 2.728810 12.436090
v -8.476759 2.807695 12.171100
v -8.656113 2.676114 11.905154
v -8.051448 2.725215 11.294727
v -8.377898 2.614891 11.326811
v -7.174382 1.831913 11.882552
v -7.315411 2.053512 12.230504
v -7.504118 1.881229 12.582961
v -7.880557 2.032634 12.634516
v -8.296206 1.841828 12.669031
v -8.583456 1.907259 12.373582
v -8.740502 1.810781 12.004478
v -8.600633 1.987031 11.630077
v -8.029298 1.882388 11.209713
v -8.413267 1.782591 11.309031
v -7.347869 1.873347 11.511666
v -7.630563 1.755722 11.231405
v -7.973853 3.498340 11.722747
v -7.825926 3.253878 11.744385
v -7.854266 3.248486 11.673671
v -7.910941 3.236644 11.623623
v -7.986475 3.242725 11.613338
v -8.058787 3.240124 11.636902
v -8.103457 3.257504 11.695942
v -8.121985 3.256049 11.770158
v -8.094080 3.268408 11.840374
v -8.037030 3.270449 11.891911
v -7.961077 3.278185 11.901077
v -7.888569 3.271312 11.877864
v -7.843964 3.273467 11.815876
v -7.829508 2.763728 11.511706
v -7.729608 2.288666 11.352915
v -7.534567 2.366678 11.552375
v -7.710551 2.805737 11.628641
v -7.999902 2.803980 11.499434
v -8.015242 2.369209 11.338283
v -8.161817 2.776346 11.541942
v -8.285997 2.306707 11.403462
v -8.246737 2.846399 11.680458
v -8.420662 2.441468 11.640867
v -8.306161 2.801502 11.846489
v -8.525843 2.341718 11.915622
v -8.237964 2.835414 11.997295
v -8.408316 2.403180 12.164380
v -8.116442 2.821677 12.121134
v -8.209231 2.366433 12.372541
v -7.944935 2.859097 12.128922
v -7.924053 2.440902 12.381129
v -7.782598 2.832608 12.087704
v -7.653573 2.387440 12.318041
v -7.697475 2.874335 11.934918
v -7.518657 2.482149 12.059756
v -7.639753 2.800175 11.782417
v -7.413112 2.342335 11.806339
v -7.748621 1.976569 11.912752
v -7.839916 1.932656 11.814727
v -7.976790 1.980910 11.808379
v -8.112540 1.942753 11.843921
v -8.168094 2.017715 11.946942
v -8.211336 1.955061 12.074639
v -8.154691 1.987544 12.191320
v -8.058642 1.964526 12.289756
v -7.929930 2.007007 12.290911
v -7.803035 1.977799 12.259836
v -7.736806 2.035315 12.147175
v -7.686360 1.959682 12.047894
v -7.331701 2.009881 11.459071
v -7.435823 1.851354 11.601018
v -7.670569 1.749185 11.353520
v -7.616517 1.883792 11.164077
v -8.032333 2.022690 11.147389
v -8.016339 1.863539 11.339163
v -8.346644 1.770857 11.420044
v -8.426774 1.911871 11.241020
v -8.499825 1.949968 11.707007
v -8.617795 2.133933 11.588730
v -8.623436 1.794007 12.029353
v -8.776052 1.944900 11.981152
v -8.478787 1.869964 12.331373
v -8.602378 2.042102 12.349508
v -8.239450 1.808686 12.577752
v -8.314245 1.970609 12.653876
v -7.891039 1.973825 12.532450
v -7.885578 2.161319 12.608721
v -7.581430 1.842237 12.508276
v -7.502197 2.012508 12.570502
v -7.425275 1.989241 12.209414
v -7.315516 2.189129 12.194672
v -7.153639 1.957526 11.828674
v -7.290232 1.805680 11.915975
v -8.001196 2.623241 11.854174
v -8.014297 2.461735 11.722963
v -8.088046 2.458377 11.746052
v -8.137117 2.466830 11.806560
v -8.154078 2.470203 11.883448
v -8.125957 2.478542 11.957612
v -8.064994 2.484051 12.008573
v -7.988101 2.491957 12.016444
v -7.914383 2.483906 11.994548
v -7.865290 2.479893 11.933551
v -7.848318 2.467539 11.857549
v -7.876430 2.460631 11.783266
v -7.937387 2.455670 11.732265
v -8.010553 1.204655 11.785037
v -7.920130 1.168171 11.803041
v -7.859968 1.208837 11.868459
v -7.814867 1.169633 11.936144
v -7.839988 1.192056 12.042868
v -7.906991 1.179497 12.136889
v -7.983928 1.223768 12.155459
v -8.069146 1.184549 12.139366
v -8.131042 1.218253 12.065188
v -8.176739 1.175108 11.992700
v -8.150588 1.201149 11.897047
v -8.094625 1.166454 11.813011
v -8.073777 1.120585 11.150897
v -8.082759 1.285557 11.044781
v -7.571596 1.103291 11.027824
v -7.627909 0.961733 11.147365
v -7.284666 1.282631 11.453452
v -7.379189 1.130911 11.529175
v -6.954124 1.119876 11.876225
v -7.079246 0.966554 11.896852
v -7.106023 1.247332 12.383374
v -7.206248 1.069015 12.346375
v -7.398322 1.174961 12.844373
v -7.469521 1.004496 12.754342
v -7.924860 1.388072 12.876419
v -7.930423 1.201001 12.791187
v -8.434507 1.192024 12.909685
v -8.373764 1.029632 12.805203
v -8.720068 1.334926 12.464215
v -8.619728 1.169812 12.404897
v -9.034788 1.139044 12.057597
v -8.903505 0.987117 12.051897
v -8.838970 1.269295 11.571267
v -8.735791 1.103790 11.625907
v -8.599998 1.105860 11.109617
v -8.524497 0.957388 11.215769
v -8.743080 1.590285 12.014394
v -8.423236 2.086382 11.947392
v -8.623944 1.648783 11.650150
v -8.362146 2.104756 11.736775
v -8.575672 1.654753 12.342402
v -8.343369 2.108901 12.144792
v -8.322871 1.641462 12.609093
v -8.185134 2.123173 12.282126
v -7.945735 1.765563 12.592631
v -7.968745 2.182232 12.277167
v -7.575521 1.648161 12.548777
v -7.761023 2.129740 12.242476
v -7.367906 1.679680 12.233751
v -7.640563 2.135088 12.070629
v -7.257635 1.580774 11.870966
v -7.579362 2.079781 11.865655
v -7.428538 1.601433 11.539424
v -7.659289 2.067612 11.667916
v -7.681397 1.553815 11.278361
v -7.817476 2.057997 11.530502
v -8.059076 1.671804 11.279299
v -8.034017 2.115172 11.525425
v -8.242207 2.070547 11.568961
v -8.428786 1.568325 11.341698
v -8.086936 1.207486 11.007427
v -6.915022 1.034074 11.877712
v -7.069869 1.158728 12.405538
v -7.375597 1.084804 12.885241
v -7.920757 1.308655 12.923371
v -8.446730 1.108534 12.949572
v -8.739291 1.262536 12.482309
v -9.070599 1.056172 12.063405
v -8.868982 1.189859 11.560194
v -8.621272 1.021813 11.078534
v -7.263811 1.211976 11.441869
v -7.558579 1.022938 10.995623
vn -0.3877 0.2993 0.8719
vn -0.8748 0.2894 0.3885
vn -0.8973 0.2826 0.3392
vn -0.3391 0.2940 0.8936
vn -0.8784 0.2752 -0.3908
vn -0.3914 0.2653 -0.8811
vn -0.3404 0.2583 -0.9041
vn -0.9006 0.2698 -0.3408
vn 0.8748 0.2894 0.3885
vn 0.3877 0.2993 0.8719
vn 0.3391 0.2940 0.8936
vn 0.8973 0.2826 0.3392
vn 0.3914 0.2653 -0.8811
vn 0.8784 0.2752 -0.3908
vn 0.9006 0.2698 -0.3408
vn 0.3404 0.2583 -0.9041
vn -0.6443 -0.6640 0.3795
vn -0.9137 -0.3827 0.1366
vn -0.7512 -0.6252 -0.2120
vn -0.6062 -0.4090 -0.6820
vn -0.2321 -0.6399 -0.7326
vn 0.2724 -0.6045 -0.7486
vn 0.5940 -0.7426 -0.3094
vn 0.7873 -0.6041 -0.1239
vn 0.4667 -0.7101 0.5271
vn 0.6211 -0.7707 0.1422
vn -0.2844 -0.6752 0.6806
vn 0.1394 -0.7826 0.6067
vn 0.0001 0.9966 -0.0826
vn -0.6712 0.5226 0.5257
vn -0.2972 0.5474 0.7824
vn 0.1523 0.5440 0.8252
vn 0.5590 0.5368 0.6319
vn 0.8242 0.5017 0.2628
vn 0.8583 0.4772 -0.1886
vn 0.6726 0.4389 -0.5958
vn 0.2976 0.4252 -0.8548
vn -0.1517 0.4189 -0.8953
vn -0.5592 0.4378 -0.7040
vn -0.8232 0.4599 -0.3329
vn -0.8575 0.5014 0.1149
vn 0.1535 0.5027 0.8507
vn 0.1395 0.5723 0.8081
vn -0.2830 0.5656 0.7746
vn -0.3041 0.4925 0.8154
vn 0.5739 0.4810 0.6628
vn 0.5408 0.5550 0.6321
vn 0.8357 0.4728 0.2795
vn 0.7784 0.5620 0.2796
vn 0.8852 0.4274 -0.1834
vn 0.8296 0.5313 -0.1715
vn 0.6794 0.4243 -0.5987
vn 0.6130 0.5421 -0.5748
vn 0.3036 0.3976 -0.8659
vn 0.2816 0.5189 -0.8071
vn -0.1536 0.4082 -0.8999
vn -0.1406 0.5382 -0.8310
vn -0.5722 0.4064 -0.7123
vn -0.5272 0.5294 -0.6647
vn -0.8337 0.4418 -0.3313
vn -0.7560 0.5675 -0.3262
vn -0.8839 0.4492 0.1303
vn -0.8217 0.5565 0.1232
vn -0.6795 0.4888 0.5472
vn -0.6159 0.5822 0.5308
vn 0.0845 -0.9811 -0.1741
vn -0.0181 -0.9671 -0.2538
vn -0.0833 -0.9906 -0.1087
vn -0.1830 -0.9673 -0.1758
vn -0.0920 -0.9898 0.1088
vn -0.1818 -0.9282 0.3247
vn -0.0530 -0.9449 0.3231
vn -0.0166 -0.9125 0.4087
vn 0.1175 -0.9722 0.2028
vn 0.3303 -0.9272 0.1767
vn 0.1588 -0.9846 0.0725
vn 0.0798 -0.9527 -0.2932
vn -0.3371 0.2220 0.9149
vn -0.0336 -0.9987 0.0372
vn 0.0170 -0.9991 -0.0396
vn 0.2109 0.0388 0.9767
vn 0.6352 0.2043 0.7448
vn 0.0520 -0.9981 0.0344
vn 0.0135 -0.9966 -0.0818
vn 0.9385 0.0298 0.3439
vn 0.1143 -0.9933 0.0189
vn 0.9354 0.3012 -0.1853
vn 0.0126 -0.9884 0.1510
vn 0.8162 0.1010 -0.5689
vn 0.0211 -0.9993 0.0316
vn 0.3339 0.2713 -0.9027
vn -0.1085 -0.9892 0.0981
vn -0.1715 0.2515 -0.9525
vn -0.0777 -0.9960 -0.0442
vn -0.5819 0.4128 -0.7007
vn 0.0274 -0.9989 0.0369
vn -0.8986 0.2842 -0.3342
vn -0.1719 -0.9840 0.0478
vn -0.8926 0.4288 0.1392
vn -0.7335 0.1640 0.6596
vn -0.1141 -0.9878 -0.1061
vn -0.0000 0.9887 -0.1498
vn -0.7117 0.5624 -0.4209
vn -0.7901 0.6128 -0.0157
vn -0.6440 0.6731 0.3636
vn -0.3310 0.7049 0.6274
vn 0.0672 0.7161 0.6947
vn 0.4477 0.6957 0.5618
vn 0.7110 0.6600 0.2424
vn 0.7901 0.5918 -0.1601
vn 0.6443 0.5406 -0.5409
vn 0.3308 0.4961 -0.8028
vn -0.0679 0.4873 -0.8706
vn -0.4486 0.5060 -0.7367
vn 0.0694 -0.9869 0.1455
vn 0.1503 -0.9328 0.3277
vn -0.0039 -0.9787 0.2053
vn -0.2342 -0.9217 0.3091
vn -0.1639 -0.9588 0.2321
vn -0.2654 -0.9257 0.2696
vn -0.0638 -0.9948 0.0795
vn -0.1434 -0.9817 -0.1250
vn 0.0005 -1.0000 0.0091
vn 0.1601 -0.9786 -0.1289
vn 0.1023 -0.9945 0.0210
vn 0.2631 -0.9643 0.0288
vn -0.2954 -0.9544 -0.0427
vn -0.7970 0.4216 -0.4324
vn -0.4732 0.3198 -0.8208
vn -0.0954 -0.9952 -0.0237
vn -0.0851 0.3042 -0.9488
vn -0.0558 -0.9849 -0.1640
vn 0.3210 0.3069 -0.8960
vn -0.0577 -0.9952 -0.0788
vn 0.7267 0.3813 -0.5714
vn 0.1813 -0.9833 -0.0143
vn 0.8965 0.4254 -0.1239
vn 0.1768 -0.9572 0.2290
vn 0.7934 0.5113 0.3303
vn 0.3013 -0.9140 0.2716
vn 0.4659 0.4870 0.7388
vn 0.1029 -0.9647 0.2423
vn 0.0763 0.4962 0.8648
vn 0.0400 -0.9235 0.3814
vn -0.3533 0.4734 0.8069
vn -0.0258 -0.9628 0.2689
vn -0.7337 0.4848 0.4760
vn -0.2268 -0.9401 0.2546
vn -0.9003 0.4317 0.0549
vn -0.1767 -0.9811 0.0794
vn -0.3453 0.5882 0.7313
vn -0.3528 0.6150 0.7052
vn -0.7018 0.5596 0.4408
vn -0.6943 0.5822 0.4231
vn 0.0716 0.5831 0.8093
vn 0.0709 0.6213 0.7803
vn 0.4601 0.5874 0.6658
vn 0.4757 0.6079 0.6358
vn 0.7718 0.5575 0.3060
vn 0.7684 0.5696 0.2918
vn 0.8497 0.5079 -0.1417
vn 0.8481 0.5091 -0.1470
vn 0.6954 0.4491 -0.5611
vn 0.6929 0.4514 -0.5623
vn 0.3293 0.4079 -0.8516
vn 0.3479 0.4102 -0.8430
vn -0.0772 0.3773 -0.9229
vn -0.0735 0.3945 -0.9160
vn -0.4616 0.4164 -0.7833
vn -0.4766 0.4200 -0.7723
vn -0.7731 0.4665 -0.4298
vn -0.7693 0.4705 -0.4323
vn -0.8487 0.5287 0.0106
vn -0.8521 0.5227 0.0280
vn -0.8965 -0.1572 -0.4142
vn 0.2768 -0.5034 -0.8185
vn 0.7912 -0.2999 -0.5330
vn 0.9239 -0.3795 0.0490
vn 0.8918 -0.0418 0.4506
vn 0.4921 -0.3324 0.8046
vn 0.0902 -0.0893 0.9919
vn -0.3396 -0.3394 0.8772
vn -0.8008 -0.1264 0.5855
vn -0.9131 -0.3920 0.1121
vn -0.1067 -0.2947 -0.9496
vn -0.5009 -0.4998 -0.7066
vn 0.7518 -0.6495 0.1138
vn 0.8417 -0.3091 0.4427
vn 0.4941 -0.5671 0.6590
vn 0.1057 -0.2765 0.9552
vn -0.2365 -0.5669 0.7891
vn -0.6845 -0.5159 0.5150
vn -0.6868 -0.7260 -0.0363
vn -0.7505 -0.5816 -0.3139
vn -0.0871 -0.7428 -0.6638
vn -0.4434 -0.7928 -0.4181
vn 0.6396 -0.6840 -0.3507
vn 0.2343 -0.8182 -0.5250
vn -0.0007 0.9905 -0.1378
vn 0.8950 0.4263 -0.1311
vn 0.7337 0.3751 -0.5665
vn 0.3790 0.3311 -0.8641
vn -0.0777 0.3254 -0.9424
vn -0.5190 0.3387 -0.7848
vn -0.8136 0.3929 -0.4286
vn -0.8967 0.4421 0.0229
vn -0.7332 0.5046 0.4559
vn -0.3808 0.5380 0.7520
vn 0.0738 0.5556 0.8282
vn 0.5140 0.5296 0.6748
vn 0.8088 0.4939 0.3192
vn 0.3837 0.3279 -0.8633
vn 0.3679 0.4367 -0.8210
vn 0.7069 0.4505 -0.5452
vn 0.7477 0.3474 -0.5659
vn -0.0791 0.2985 -0.9511
vn -0.0737 0.4074 -0.9103
vn -0.5240 0.3324 -0.7841
vn -0.4836 0.4411 -0.7560
vn -0.8362 0.3470 -0.4248
vn -0.7958 0.4486 -0.4067
vn -0.9089 0.4150 0.0417
vn -0.8579 0.5098 0.0640
vn -0.7492 0.4527 0.4835
vn -0.7131 0.5287 0.4603
vn -0.3879 0.4929 0.7789
vn -0.3702 0.5692 0.7341
vn 0.0730 0.4976 0.8643
vn 0.0621 0.5709 0.8186
vn 0.5163 0.4926 0.7006
vn 0.4611 0.5862 0.6661
vn 0.8293 0.4407 0.3437
vn 0.7819 0.5353 0.3195
vn 0.9042 0.4088 -0.1235
vn 0.8464 0.5118 -0.1470
vn -0.1969 -0.9621 0.1888
vn -0.1489 -0.9349 0.3221
vn 0.0022 -0.9708 0.2399
vn 0.0468 -0.9313 0.3612
vn 0.1524 -0.9871 0.0486
vn 0.3759 -0.9213 -0.0995
vn 0.2596 -0.9465 -0.1915
vn 0.2800 -0.9123 -0.2988
vn 0.0158 -0.9817 -0.1897
vn -0.2056 -0.9322 -0.2980
vn -0.1140 -0.9898 -0.0859
vn -0.2671 -0.9163 0.2985
vn 0.8031 0.1530 -0.5759
vn 0.0545 -0.9960 0.0703
vn -0.0423 -0.9935 0.1060
vn 0.3887 -0.0556 -0.9197
vn -0.0899 0.1038 -0.9905
vn -0.0298 -0.9993 0.0217
vn -0.0745 -0.9862 0.1479
vn -0.5749 -0.0496 -0.8167
vn -0.1060 -0.9943 -0.0086
vn -0.8718 0.2582 -0.4163
vn 0.0631 -0.9966 -0.0532
vn -0.9954 0.0953 -0.0103
vn -0.0246 -0.9982 0.0547
vn -0.7930 0.3075 0.5260
vn 0.1479 -0.9852 0.0867
vn -0.3992 0.2934 0.8687
vn 0.0441 -0.9767 0.2100
vn 0.0803 0.4572 0.8858
vn 0.0040 -0.9979 0.0644
vn 0.5542 0.3086 0.7730
vn 0.2020 -0.9656 0.1638
vn 0.8284 0.4281 0.3613
vn 0.9838 0.1298 -0.1237
vn 0.0426 -0.9673 0.2499
vn -0.0000 0.9946 -0.1039
vn -0.0644 0.5636 -0.8235
vn -0.4466 0.5697 -0.6899
vn -0.7008 0.6028 -0.3815
vn -0.7722 0.6353 0.0117
vn -0.6357 0.6716 0.3806
vn -0.3360 0.6956 0.6350
vn 0.0636 0.7120 0.6993
vn 0.4469 0.6909 0.5684
vn 0.7004 0.6650 0.2592
vn 0.7720 0.6215 -0.1329
vn 0.6355 0.5868 -0.5019
vn 0.3344 0.5620 -0.7566
vn 0.0033 -0.9927 0.1206
vn -0.1062 -0.9584 0.2648
vn -0.0825 -0.9930 0.0846
vn -0.2744 -0.9605 -0.0469
vn -0.1772 -0.9837 -0.0318
vn -0.2577 -0.9614 -0.0963
vn -0.0064 -0.9997 -0.0229
vn 0.1237 -0.9761 -0.1786
vn 0.0827 -0.9966 -0.0047
vn 0.2609 -0.9633 0.0624
vn 0.1202 -0.9891 0.0848
vn 0.1806 -0.9597 0.2152
vn -0.0175 -0.9703 -0.2413
vn -0.0667 0.4782 -0.8757
vn 0.4254 0.4330 -0.7947
vn 0.0633 -0.9943 -0.0864
vn 0.7254 0.4289 -0.5383
vn 0.1818 -0.9757 -0.1220
vn 0.8782 0.4476 -0.1687
vn 0.1213 -0.9886 -0.0889
vn 0.7971 0.5034 0.3336
vn 0.1809 -0.9748 0.1303
vn 0.5008 0.5156 0.6952
vn -0.0179 -0.9700 0.2426
vn 0.0594 0.5527 0.8313
vn 0.0030 -0.9337 0.3581
vn -0.4415 0.4871 0.7535
vn -0.0562 -0.9805 0.1881
vn -0.7394 0.4623 0.4894
vn -0.1953 -0.9611 0.1952
vn -0.8916 0.4421 0.0977
vn -0.1335 -0.9860 0.1002
vn -0.8000 0.4609 -0.3841
vn -0.2082 -0.9761 -0.0630
vn -0.5219 0.4517 -0.7236
vn -0.0529 -0.9932 -0.1037
vn -0.8398 0.5390 0.0647
vn -0.8294 0.5573 0.0387
vn -0.7670 0.5183 -0.3782
vn -0.7564 0.5276 -0.3866
vn -0.7053 0.5440 0.4545
vn -0.6880 0.5832 0.4319
vn -0.3960 0.5796 0.7122
vn -0.3691 0.6100 0.7012
vn 0.0614 0.6006 0.7972
vn 0.0651 0.6259 0.7771
vn 0.4822 0.5921 0.6456
vn 0.4788 0.6104 0.6310
vn 0.7637 0.5671 0.3083
vn 0.7557 0.5841 0.2962
vn 0.8334 0.5338 -0.1433
vn 0.8276 0.5459 -0.1307
vn 0.6971 0.4919 -0.5216
vn 0.6849 0.5101 -0.5203
vn 0.3876 0.5021 -0.7731
vn 0.3652 0.4963 -0.7876
vn -0.0655 0.5024 -0.8622
vn -0.0670 0.4926 -0.8677
vn -0.4802 0.5060 -0.7166
vn -0.4895 0.5162 -0.7028
vn -0.0770 -0.1549 -0.9849
vn 0.8979 -0.4054 -0.1716
vn 0.8856 -0.2099 0.4143
vn 0.4627 -0.3349 0.8209
vn 0.0623 -0.0389 0.9973
vn -0.4156 -0.3707 0.8306
vn -0.8006 -0.1731 0.5737
vn -0.8981 -0.4160 0.1427
vn -0.8918 -0.2091 -0.4012
vn -0.5209 -0.4217 -0.7422
vn 0.7920 -0.2119 -0.5726
vn 0.4111 -0.4403 -0.7982
vt 0.432424 0.522146
vt 0.435768 0.559666
vt 0.434931 0.559666
vt 0.431587 0.522146
vt 0.435768 0.559666
vt 0.446970 0.559666
vt 0.450314 0.522146
vt 0.449477 0.522146
vt 0.446133 0.559666
vt 0.446133 0.559666
vt 0.550661 0.842414
vt 0.550667 0.842251
vt 0.550664 0.842345
vt 0.548757 0.842263
vt 0.548609 0.842596
vt 0.548950 0.842703
vt 0.550660 0.842439
vt 0.550664 0.842324
vt 0.550664 0.842345
vt 0.550673 0.842088
vt 0.550670 0.842157
vt 0.548656 0.842596
vt 0.550318 0.842428
vt 0.550673 0.842063
vt 0.550668 0.842209
vt 0.548927 0.842268
vt 0.550670 0.842167
vt 0.548652 0.841801
vt 0.550670 0.842157
vt 0.548749 0.841394
vt 0.548632 0.841001
vt 0.546603 0.840538
vt 0.546393 0.841297
vt 0.546059 0.841226
vt 0.546393 0.840447
vt 0.548893 0.840992
vt 0.548683 0.841022
vt 0.548938 0.841471
vt 0.546965 0.840107
vt 0.547431 0.840113
vt 0.550669 0.842178
vt 0.547162 0.842198
vt 0.546902 0.842753
vt 0.550665 0.842293
vt 0.547166 0.840763
vt 0.546987 0.841458
vt 0.548659 0.841819
vt 0.546986 0.841430
vt 0.547451 0.842208
vt 0.545970 0.842881
vt 0.546708 0.842205
vt 0.546515 0.842207
vt 0.545589 0.842933
vt 0.546970 0.842755
vt 0.546975 0.842188
vt 0.546808 0.842187
vt 0.547474 0.842930
vt 0.546096 0.839593
vt 0.546873 0.839777
vt 0.546645 0.839639
vt 0.545719 0.839375
vt 0.546963 0.843009
vt 0.546736 0.843044
vt 0.546047 0.841246
vt 0.547184 0.840750
vt 0.547052 0.840687
vt 0.545661 0.841159
vt 0.547037 0.840136
vt 0.547473 0.840888
vt 0.546393 0.842810
vt 0.546048 0.842852
vt 0.546353 0.839778
vt 0.546033 0.839595
vt 0.546321 0.842210
vt 0.545207 0.842985
vt 0.546508 0.843079
vt 0.545704 0.842894
vt 0.546641 0.842186
vt 0.545725 0.841155
vt 0.546183 0.840356
vt 0.545714 0.839412
vt 0.546416 0.839502
vt 0.545341 0.839157
vt 0.546920 0.840623
vt 0.545274 0.841071
vt 0.546918 0.842229
vt 0.546277 0.840361
vt 0.541545 0.903695
vt 0.541247 0.904883
vt 0.542064 0.905992
vt 0.542499 0.905463
vt 0.544058 0.909060
vt 0.544644 0.909480
vt 0.544007 0.909084
vt 0.542709 0.908026
vt 0.542887 0.908005
vt 0.543020 0.907718
vt 0.544139 0.908979
vt 0.544477 0.908786
vt 0.544385 0.908812
vt 0.544450 0.908786
vt 0.544489 0.908746
vt 0.543349 0.907517
vt 0.544266 0.908894
vt 0.544346 0.908835
vt 0.543650 0.907318
vt 0.544223 0.908924
vt 0.543958 0.907410
vt 0.542145 0.903305
vt 0.541328 0.903336
vt 0.542335 0.903681
vt 0.544105 0.909009
vt 0.543940 0.907167
vt 0.540733 0.904424
vt 0.540867 0.904488
vt 0.539890 0.904728
vt 0.539204 0.904516
vt 0.543860 0.907329
vt 0.540892 0.904312
vt 0.541106 0.904365
vt 0.541018 0.904093
vt 0.539960 0.903963
vt 0.543543 0.907355
vt 0.541145 0.904147
vt 0.541323 0.904219
vt 0.542028 0.903454
vt 0.541300 0.903085
vt 0.543241 0.907592
vt 0.541241 0.904056
vt 0.541218 0.904158
vt 0.541714 0.903098
vt 0.541828 0.902599
vt 0.542952 0.907807
vt 0.541058 0.904402
vt 0.540846 0.904356
vt 0.539779 0.904152
vt 0.540824 0.904244
vt 0.542282 0.902707
vt 0.542468 0.903102
vt 0.544049 0.909086
vt 0.539149 0.904982
vt 0.539950 0.905479
vt 0.539875 0.904952
vt 0.542492 0.903707
vt 0.542647 0.904050
vt 0.539827 0.904532
vt 0.540219 0.905744
vt 0.540094 0.904837
vt 0.543070 0.905452
vt 0.541047 0.904608
vt 0.541635 0.903262
vt 0.541830 0.903617
vt 0.543184 0.905101
vt 0.541280 0.904430
vt 0.541471 0.904712
vt 0.543256 0.905634
vt 0.540038 0.904310
vt 0.540293 0.904627
vt 0.542687 0.905393
vt 0.539957 0.905220
vt 0.540215 0.905502
vt 0.542242 0.905863
vt 0.539446 0.905284
vt 0.541033 0.906610
vt 0.542933 0.908128
vt 0.541503 0.906861
vt 0.541597 0.906094
vt 0.541433 0.906646
vt 0.541471 0.906247
vt 0.540850 0.904547
vt 0.541060 0.904182
vt 0.541031 0.903139
vt 0.556120 0.884622
vt 0.556130 0.884432
vt 0.556124 0.884541
vt 0.552788 0.884446
vt 0.552529 0.884834
vt 0.553125 0.884959
vt 0.556118 0.884651
vt 0.556125 0.884517
vt 0.556124 0.884542
vt 0.556140 0.884242
vt 0.556136 0.884322
vt 0.552611 0.884835
vt 0.555519 0.884639
vt 0.556141 0.884213
vt 0.556132 0.884383
vt 0.553086 0.884452
vt 0.556135 0.884334
vt 0.552603 0.883906
vt 0.556136 0.884322
vt 0.552774 0.883433
vt 0.552568 0.882973
vt 0.549018 0.882433
vt 0.548650 0.883319
vt 0.548065 0.883236
vt 0.548651 0.882327
vt 0.553025 0.882963
vt 0.552658 0.882999
vt 0.553104 0.883523
vt 0.549651 0.881930
vt 0.550468 0.881937
vt 0.556134 0.884347
vt 0.549996 0.884371
vt 0.549541 0.885017
vt 0.556127 0.884481
vt 0.550004 0.882696
vt 0.549690 0.883507
vt 0.552617 0.883928
vt 0.549688 0.883474
vt 0.550502 0.884381
vt 0.547910 0.885167
vt 0.549202 0.884378
vt 0.548863 0.884381
vt 0.547243 0.885228
vt 0.549661 0.885020
vt 0.549669 0.884358
vt 0.549377 0.884357
vt 0.550542 0.885224
vt 0.548131 0.881331
vt 0.549491 0.881545
vt 0.549091 0.881385
vt 0.547471 0.881077
vt 0.549648 0.885316
vt 0.549250 0.885357
vt 0.548046 0.883260
vt 0.550035 0.882681
vt 0.549804 0.882607
vt 0.547369 0.883158
vt 0.549778 0.881964
vt 0.550540 0.882842
vt 0.548650 0.885084
vt 0.548047 0.885133
vt 0.548580 0.881547
vt 0.548021 0.881333
vt 0.548525 0.884384
vt 0.546575 0.885289
vt 0.548852 0.885398
vt 0.547445 0.885182
vt 0.549084 0.884357
vt 0.547481 0.883153
vt 0.548284 0.882221
vt 0.547462 0.881119
vt 0.548690 0.881224
vt 0.546810 0.880823
vt 0.549573 0.882533
vt 0.546692 0.883056
vt 0.549570 0.884406
vt 0.548448 0.882227
vt 0.555793 0.856430
vt 0.555569 0.857321
vt 0.556182 0.858152
vt 0.556509 0.857755
vt 0.557678 0.860454
vt 0.558117 0.860768
vt 0.557639 0.860471
vt 0.556666 0.859678
vt 0.556800 0.859662
vt 0.556900 0.859447
vt 0.557739 0.860393
vt 0.557992 0.860248
vt 0.557923 0.860267
vt 0.557972 0.860248
vt 0.558001 0.860218
vt 0.557146 0.859296
vt 0.557833 0.860329
vt 0.557894 0.860284
vt 0.557372 0.859147
vt 0.557801 0.860352
vt 0.557603 0.859215
vt 0.556243 0.856137
vt 0.555630 0.856160
vt 0.556386 0.856419
vt 0.557713 0.860415
vt 0.557590 0.859033
vt 0.555184 0.856976
vt 0.555284 0.857024
vt 0.554552 0.857205
vt 0.554037 0.857045
vt 0.557530 0.859155
vt 0.555303 0.856892
vt 0.555464 0.856932
vt 0.555398 0.856728
vt 0.554604 0.856631
vt 0.557292 0.859174
vt 0.555493 0.856769
vt 0.555626 0.856822
vt 0.556155 0.856248
vt 0.555609 0.855972
vt 0.557065 0.859352
vt 0.555565 0.856700
vt 0.555548 0.856777
vt 0.555919 0.855982
vt 0.556005 0.855607
vt 0.556848 0.859514
vt 0.555427 0.856960
vt 0.555269 0.856925
vt 0.554469 0.856772
vt 0.555252 0.856841
vt 0.556346 0.855689
vt 0.556485 0.855985
vt 0.557671 0.860472
vt 0.553996 0.857395
vt 0.554597 0.857768
vt 0.554541 0.857373
vt 0.556503 0.856439
vt 0.556619 0.856696
vt 0.554505 0.857057
vt 0.554799 0.857966
vt 0.554704 0.857286
vt 0.556936 0.857748
vt 0.555420 0.857114
vt 0.555861 0.856105
vt 0.556007 0.856371
vt 0.557022 0.857484
vt 0.555594 0.856980
vt 0.555738 0.857192
vt 0.557076 0.857884
vt 0.554663 0.856891
vt 0.554854 0.857128
vt 0.556650 0.857703
vt 0.554602 0.857574
vt 0.554796 0.857784
vt 0.556316 0.858055
vt 0.554219 0.857621
vt 0.555409 0.858616
vt 0.556834 0.859754
vt 0.555761 0.858804
vt 0.555832 0.858229
vt 0.555709 0.858643
vt 0.555738 0.858343
vt 0.555272 0.857069
vt 0.555429 0.856795
vt 0.555407 0.856012
s 1
f 1/1/1 4/2/4 3/3/3 2/4/2
f 7/5/7 6/1/6 5/4/5 8/3/8
f 15/6/15 14/7/14 13/8/13 16/9/16
f 11/10/11 10/8/10 9/7/9 12/6/12
f 2/4/2 3/3/3 8/3/8 5/4/5
f 10/8/10 11/10/11 4/2/4 1/1/1
f 6/1/6 7/5/7 16/9/16 13/8/13
f 14/7/14 15/6/15 12/6/12 9/7/9
f 32/11/32 29/12/29 31/13/31
f 45/14/45 42/15/42 32/11/32 31/13/31
f 42/15/42 46/16/46 33/17/33 32/11/32
f 36/12/36 29/18/29 35/19/35
f 38/20/38 29/12/29 37/21/37
f 46/16/46 48/22/48 34/23/34 33/17/33
f 39/24/39 29/25/29 38/20/38
f 48/22/48 50/26/50 35/19/35 34/23/34
f 40/20/40 29/27/29 39/24/39
f 50/26/50 52/28/52 36/12/36 35/19/35
f 41/29/41 29/27/29 40/20/40
f 52/28/52 54/30/54 37/21/37 36/12/36
f 54/30/54 56/31/56 38/20/38 37/21/37
f 91/32/91 89/33/89 23/34/23 22/35/22
f 56/31/56 58/36/58 39/24/39 38/20/38
f 31/13/31 29/25/29 30/12/30
f 58/36/58 60/37/60 40/20/40 39/24/39
f 60/37/60 62/38/62 41/29/41 40/20/40
f 57/39/57 59/40/59 58/36/58 56/31/56
f 29/41/29 41/29/41 30/12/30
f 42/15/42 45/14/45 44/42/44 43/43/43
f 33/17/33 29/44/29 32/11/32
f 37/21/37 29/44/29 36/12/36
f 55/45/55 57/39/57 56/31/56 54/30/54
f 65/46/65 44/42/44 45/14/45 64/47/64
f 53/48/53 55/45/55 54/30/54 52/28/52
f 51/49/51 53/48/53 52/28/52 50/26/50
f 81/50/81 78/51/78 27/52/27 28/53/28
f 49/54/49 51/49/51 50/26/50 48/22/48
f 89/33/89 87/55/87 24/56/24 23/34/23
f 47/57/47 49/54/49 48/22/48 46/16/46
f 97/58/97 95/59/95 20/60/20 19/61/19
f 43/43/43 47/57/47 46/16/46 42/15/42
f 82/62/82 81/50/81 28/53/28 25/63/25
f 100/64/100 99/65/99 18/66/18 17/67/17
f 61/68/61 63/69/63 62/38/62 60/37/60
f 63/69/63 65/46/65 64/47/64 62/38/62
f 85/70/85 82/62/82 25/63/25 26/71/26
f 87/55/87 85/70/85 26/71/26 24/56/24
f 93/72/93 91/32/91 22/35/22 21/73/21
f 95/59/95 93/72/93 21/73/21 20/60/20
f 99/65/99 97/58/97 19/61/19 18/66/18
f 64/47/64 45/14/45 31/13/31 30/12/30
f 78/51/78 100/64/100 17/67/17 27/52/27
f 34/23/34 29/18/29 33/17/33
f 35/19/35 29/18/29 34/23/34
f 62/38/62 64/47/64 30/12/30 41/29/41
f 59/40/59 61/68/61 60/37/60 58/36/58
f 28/53/28 27/52/27 79/74/79 80/75/80
f 26/71/26 25/63/25 83/76/83 84/77/84
f 24/56/24 26/71/26 84/77/84 86/78/86
f 23/34/23 24/56/24 86/78/86 88/79/88
f 22/35/22 23/34/23 88/79/88 90/80/90
f 21/73/21 22/35/22 90/80/90 92/81/92
f 20/60/20 21/73/21 92/81/92 94/82/94
f 19/61/19 20/60/20 94/82/94 96/83/96
f 18/66/18 19/61/19 96/83/96 98/84/98
f 25/63/25 28/53/28 80/75/80 83/76/83
f 27/52/27 17/67/17 101/85/101 79/74/79
f 17/67/17 18/66/18 98/84/98 101/85/101
f 66/74/66 79/74/79 101/85/101 77/85/77
f 67/75/67 80/75/80 79/74/79 66/74/66
f 78/51/78 81/50/81 43/43/43 44/42/44
f 100/64/100 78/51/78 44/42/44 65/46/65
f 81/50/81 82/62/82 47/57/47 43/43/43
f 68/76/68 83/76/83 80/75/80 67/75/67
f 82/62/82 85/70/85 49/54/49 47/57/47
f 69/75/69 84/77/84 83/76/83 68/76/68
f 85/70/85 87/55/87 51/49/51 49/54/49
f 70/86/70 86/78/86 84/77/84 69/75/69
f 87/55/87 89/33/89 53/48/53 51/49/51
f 71/85/71 88/79/88 86/78/86 70/86/70
f 89/33/89 91/32/91 55/45/55 53/48/53
f 72/87/72 90/80/90 88/79/88 71/85/71
f 91/32/91 93/72/93 57/39/57 55/45/55
f 73/83/73 92/81/92 90/80/90 72/87/72
f 93/72/93 95/59/95 59/40/59 57/39/57
f 74/82/74 94/82/94 92/81/92 73/83/73
f 95/59/95 97/58/97 61/68/61 59/40/59
f 75/83/75 96/83/96 94/82/94 74/82/74
f 97/58/97 99/65/99 63/69/63 61/68/61
f 76/84/76 98/84/98 96/83/96 75/83/75
f 99/65/99 100/64/100 65/46/65 63/69/63
f 77/85/77 101/85/101 98/84/98 76/84/76
f 133/88/133 131/89/131 167/90/167 165/91/165
f 105/92/105 102/93/102 104/94/104
f 173/95/173 154/96/154 105/92/105 104/94/104
f 154/96/154 152/97/152 106/98/106 105/92/105
f 109/99/109 102/93/102 108/100/108
f 111/101/111 102/93/102 110/102/110
f 152/97/152 156/103/156 107/104/107 106/98/106
f 112/105/112 102/93/102 111/101/111
f 156/103/156 158/106/158 108/100/108 107/104/107
f 113/107/113 102/93/102 112/105/112
f 158/106/158 160/108/160 109/99/109 108/100/108
f 177/109/177 176/110/176 133/88/133 135/111/135
f 114/112/114 102/93/102 113/107/113
f 160/108/160 162/113/162 110/102/110 109/99/109
f 126/114/126 125/115/125 148/116/148 150/117/150
f 162/113/162 164/118/164 111/101/111 110/102/110
f 124/119/124 123/120/123 144/121/144 146/122/146
f 164/118/164 166/123/166 112/105/112 111/101/111
f 122/124/122 121/125/121 140/126/140 142/127/142
f 166/123/166 168/128/168 113/107/113 112/105/112
f 120/129/120 119/130/119 136/131/136 138/132/138
f 168/128/168 170/133/170 114/112/114 113/107/113
f 117/134/117 116/135/116 130/136/130 132/137/132
f 178/138/178 177/109/177 135/111/135 137/139/137
f 102/93/102 114/112/114 103/140/103
f 184/141/184 175/142/175 127/143/127 150/117/150
f 106/98/106 102/93/102 105/92/105
f 110/102/110 102/93/102 109/99/109
f 179/144/179 178/138/178 137/139/137 139/145/139
f 186/146/186 175/142/175 128/147/128 129/148/129
f 135/111/135 133/88/133 165/91/165 163/149/163
f 176/110/176 185/150/185 131/89/131 133/88/133
f 180/151/180 179/144/179 139/145/139 141/152/141
f 137/139/137 135/111/135 163/149/163 161/153/161
f 181/154/181 180/151/180 141/152/141 143/155/143
f 139/145/139 137/139/137 161/153/161 159/156/159
f 182/157/182 181/154/181 143/155/143 145/158/145
f 141/152/141 139/145/139 159/156/159 157/159/157
f 183/160/183 182/157/182 145/158/145 147/161/147
f 143/155/143 141/152/141 157/159/157 155/162/155
f 184/141/184 183/160/183 147/161/147 149/163/149
f 174/164/174 173/95/173 172/165/172 171/166/171
f 145/158/145 143/155/143 155/162/155 151/167/151
f 152/97/152 154/96/154 153/168/153 151/167/151
f 147/161/147 145/158/145 151/167/151 153/168/153
f 149/163/149 147/161/147 153/168/153 174/164/174
f 128/147/128 149/163/149 174/164/174 171/166/171
f 185/150/185 186/146/186 129/148/129 131/89/131
f 156/103/156 152/97/152 151/167/151 155/162/155
f 160/108/160 158/106/158 157/159/157 159/156/159
f 173/95/173 104/94/104 103/140/103 172/165/172
f 172/165/172 170/133/170 169/169/169 171/166/171
f 170/133/170 168/128/168 167/90/167 169/169/169
f 168/128/168 166/123/166 165/91/165 167/90/167
f 166/123/166 164/118/164 163/149/163 165/91/165
f 164/118/164 162/113/162 161/153/161 163/149/163
f 162/113/162 160/108/160 159/156/159 161/153/161
f 174/164/174 153/168/153 154/96/154 173/95/173
f 129/148/129 128/147/128 171/166/171 169/169/169
f 104/94/104 102/93/102 103/140/103
f 172/165/172 103/140/103 114/112/114 170/133/170
f 108/100/108 102/93/102 107/104/107
f 107/104/107 102/93/102 106/98/106
f 115/170/115 126/114/126 150/117/150 127/143/127
f 125/115/125 124/119/124 146/122/146 148/116/148
f 123/120/123 122/124/122 142/127/142 144/121/144
f 121/125/121 120/129/120 138/132/138 140/126/140
f 119/130/119 118/171/118 134/172/134 136/131/136
f 116/135/116 115/170/115 127/143/127 130/136/130
f 118/171/118 117/134/117 132/137/132 134/172/134
f 158/106/158 156/103/156 155/162/155 157/159/157
f 131/89/131 129/148/129 169/169/169 167/90/167
f 132/137/132 130/136/130 186/146/186 185/150/185
f 150/117/150 148/116/148 183/160/183 184/141/184
f 148/116/148 146/122/146 182/157/182 183/160/183
f 146/122/146 144/121/144 181/154/181 182/157/182
f 144/121/144 142/127/142 180/151/180 181/154/181
f 142/127/142 140/126/140 179/144/179 180/151/180
f 134/172/134 132/137/132 185/150/185 176/110/176
f 130/136/130 127/143/127 175/142/175 186/146/186
f 140/126/140 138/132/138 178/138/178 179/144/179
f 149/163/149 128/147/128 175/142/175 184/141/184
f 138/132/138 136/131/136 177/109/177 178/138/178
f 136/131/136 134/172/134 176/110/176 177/109/177
f 202/173/202 199/174/199 201/175/201
f 215/176/215 212/177/212 202/173/202 201/175/201
f 212/177/212 216/178/216 203/179/203 202/173/202
f 206/174/206 199/180/199 205/181/205
f 208/182/208 199/174/199 207/183/207
f 216/178/216 218/184/218 204/185/204 203/179/203
f 209/186/209 199/187/199 208/182/208
f 218/184/218 220/188/220 205/181/205 204/185/204
f 210/182/210 199/189/199 209/186/209
f 220/188/220 222/190/222 206/174/206 205/181/205
f 211/191/211 199/189/199 210/182/210
f 222/190/222 224/192/224 207/183/207 206/174/206
f 224/192/224 226/193/226 208/182/208 207/183/207
f 261/194/261 259/195/259 193/196/193 192/197/192
f 226/193/226 228/198/228 209/186/209 208/182/208
f 201/175/201 199/187/199 200/174/200
f 228/198/228 230/199/230 210/182/210 209/186/209
f 230/199/230 232/200/232 211/191/211 210/182/210
f 227/201/227 229/202/229 228/198/228 226/193/226
f 199/203/199 211/191/211 200/174/200
f 212/177/212 215/176/215 214/204/214 213/205/213
f 203/179/203 199/206/199 202/173/202
f 207/183/207 199/206/199 206/174/206
f 225/207/225 227/201/227 226/193/226 224/192/224
f 235/208/235 214/204/214 215/176/215 234/209/234
f 223/210/223 225/207/225 224/192/224 222/190/222
f 221/211/221 223/210/223 222/190/222 220/188/220
f 251/212/251 248/213/248 197/214/197 198/215/198
f 219/216/219 221/211/221 220/188/220 218/184/218
f 259/195/259 257/217/257 194/218/194 193/196/193
f 217/219/217 219/216/219 218/184/218 216/178/216
f 267/220/267 265/221/265 190/222/190 189/223/189
f 213/205/213 217/219/217 216/178/216 212/177/212
f 252/224/252 251/212/251 198/215/198 195/225/195
f 270/226/270 269/227/269 188/228/188 187/229/187
f 231/230/231 233/231/233 232/200/232 230/199/230
f 233/231/233 235/208/235 234/209/234 232/200/232
f 255/232/255 252/224/252 195/225/195 196/233/196
f 257/217/257 255/232/255 196/233/196 194/218/194
f 263/234/263 261/194/261 192/197/192 191/235/191
f 265/221/265 263/234/263 191/235/191 190/222/190
f 269/227/269 267/220/267 189/223/189 188/228/188
f 234/209/234 215/176/215 201/175/201 200/174/200
f 248/213/248 270/226/270 187/229/187 197/214/197
f 204/185/204 199/180/199 203/179/203
f 205/181/205 199/180/199 204/185/204
f 232/200/232 234/209/234 200/174/200 211/191/211
f 229/202/229 231/230/231 230/199/230 228/198/228
f 198/215/198 197/214/197 249/236/249 250/237/250
f 196/233/196 195/225/195 253/238/253 254/239/254
f 194/218/194 196/233/196 254/239/254 256/240/256
f 193/196/193 194/218/194 256/240/256 258/241/258
f 192/197/192 193/196/193 258/241/258 260/242/260
f 191/235/191 192/197/192 260/242/260 262/243/262
f 190/222/190 191/235/191 262/243/262 264/244/264
f 189/223/189 190/222/190 264/244/264 266/245/266
f 188/228/188 189/223/189 266/245/266 268/246/268
f 195/225/195 198/215/198 250/237/250 253/238/253
f 197/214/197 187/229/187 271/247/271 249/236/249
f 187/229/187 188/228/188 268/246/268 271/247/271
f 236/236/236 249/236/249 271/247/271 247/247/247
f 237/237/237 250/237/250 249/236/249 236/236/236
f 248/213/248 251/212/251 213/205/213 214/204/214
f 270/226/270 248/213/248 214/204/214 235/208/235
f 251/212/251 252/224/252 217/219/217 213/205/213
f 238/238/238 253/238/253 250/237/250 237/237/237
f 252/224/252 255/232/255 219/216/219 217/219/217
f 239/237/239 254/239/254 253/238/253 238/238/238
f 255/232/255 257/217/257 221/211/221 219/216/219
f 240/248/240 256/240/256 254/239/254 239/237/239
f 257/217/257 259/195/259 223/210/223 221/211/221
f 241/247/241 258/241/258 256/240/256 240/248/240
f 259/195/259 261/194/261 225/207/225 223/210/223
f 242/249/242 260/242/260 258/241/258 241/247/241
f 261/194/261 263/234/263 227/201/227 225/207/225
f 243/245/243 262/243/262 260/242/260 242/249/242
f 263/234/263 265/221/265 229/202/229 227/201/227
f 244/244/244 264/244/264 262/243/262 243/245/243
f 265/221/265 267/220/267 231/230/231 229/202/229
f 245/245/245 266/245/266 264/244/264 244/244/244
f 267/220/267 269/227/269 233/231/233 231/230/231
f 246/246/246 268/246/268 266/245/266 245/245/245
f 269/227/269 270/226/270 235/208/235 233/231/233
f 247/247/247 271/247/271 268/246/268 246/246/246
f 303/250/303 301/251/301 337/252/337 335/253/335
f 275/254/275 272/255/272 274/256/274
f 343/257/343 324/258/324 275/254/275 274/256/274
f 324/258/324 322/259/322 276/260/276 275/254/275
f 279/261/279 272/255/272 278/262/278
f 281/263/281 272/255/272 280/264/280
f 322/259/322 326/265/326 277/266/277 276/260/276
f 282/267/282 272/255/272 281/263/281
f 326/265/326 328/268/328 278/262/278 277/266/277
f 283/269/283 272/255/272 282/267/282
f 328/268/328 330/270/330 279/261/279 278/262/278
f 347/271/347 346/272/346 303/250/303 305/273/305
f 284/274/284 272/255/272 283/269/283
f 330/270/330 332/275/332 280/264/280 279/261/279
f 296/276/296 295/277/295 318/278/318 320/279/320
f 332/275/332 334/280/334 281/263/281 280/264/280
f 294/281/294 293/282/293 314/283/314 316/284/316
f 334/280/334 336/285/336 282/267/282 281/263/281
f 292/286/292 291/287/291 310/288/310 312/289/312
f 336/285/336 338/290/338 283/269/283 282/267/282
f 290/291/290 289/292/289 306/293/306 308/294/308
f 338/290/338 340/295/340 284/274/284 283/269/283
f 287/296/287 286/297/286 300/298/300 302/299/302
f 348/300/348 347/271/347 305/273/305 307/301/307
f 272/255/272 284/274/284 273/302/273
f 354/303/354 345/304/345 297/305/297 320/279/320
f 276/260/276 272/255/272 275/254/275
f 280/264/280 272/255/272 279/261/279
f 349/306/349 348/300/348 307/301/307 309/307/309
f 356/308/356 345/304/345 298/309/298 299/310/299
f 305/273/305 303/250/303 335/253/335 333/311/333
f 346/272/346 355/312/355 301/251/301 303/250/303
f 350/313/350 349/306/349 309/307/309 311/314/311
f 307/301/307 305/273/305 333/311/333 331/315/331
f 351/316/351 350/313/350 311/314/311 313/317/313
f 309/307/309 307/301/307 331/315/331 329/318/329
f 352/319/352 351/316/351 313/317/313 315/320/315
f 311/314/311 309/307/309 329/318/329 327/321/327
f 353/322/353 352/319/352 315/320/315 317/323/317
f 313/317/313 311/314/311 327/321/327 325/324/325
f 354/303/354 353/322/353 317/323/317 319/325/319
f 344/326/344 343/257/343 342/327/342 341/328/341
f 315/320/315 313/317/313 325/324/325 321/329/321
f 322/259/322 324/258/324 323/330/323 321/329/321
f 317/323/317 315/320/315 321/329/321 323/330/323
f 319/325/319 317/323/317 323/330/323 344/326/344
f 298/309/298 319/325/319 344/326/344 341/328/341
f 355/312/355 356/308/356 299/310/299 301/251/301
f 326/265/326 322/259/322 321/329/321 325/324/325
f 330/270/330 328/268/328 327/321/327 329/318/329
f 343/257/343 274/256/274 273/302/273 342/327/342
f 342/327/342 340/295/340 339/331/339 341/328/341
f 340/295/340 338/290/338 337/252/337 339/331/339
f 338/290/338 336/285/336 335/253/335 337/252/337
f 336/285/336 334/280/334 333/311/333 335/253/335
f 334/280/334 332/275/332 331/315/331 333/311/333
f 332/275/332 330/270/330 329/318/329 331/315/331
f 344/326/344 323/330/323 324/258/324 343/257/343
f 299/310/299 298/309/298 341/328/341 339/331/339
f 274/256/274 272/255/272 273/302/273
f 342/327/342 273/302/273 284/274/284 340/295/340
f 278/262/278 272/255/272 277/266/277
f 277/266/277 272/255/272 276/260/276
f 285/332/285 296/276/296 320/279/320 297/305/297
f 295/277/295 294/281/294 316/284/316 318/278/318
f 293/282/293 292/286/292 312/289/312 314/283/314
f 291/287/291 290/291/290 308/294/308 310/288/310
f 289/292/289 288/333/288 304/334/304 306/293/306
f 286/297/286 285/332/285 297/305/297 300/298/300
f 288/333/288 287/296/287 302/299/302 304/334/304
f 328/268/328 326/265/326 325/324/325 327/321/327
f 301/251/301 299/310/299 339/331/339 337/252/337
f 302/299/302 300/298/300 356/308/356 355/312/355
f 320/279/320 318/278/318 353/322/353 354/303/354
f 318/278/318 316/284/316 352/319/352 353/322/353
f 316/284/316 314/283/314 351/316/351 352/319/352
f 314/283/314 312/289/312 350/313/350 351/316/351
f 312/289/312 310/288/310 349/306/349 350/313/350
f 304/334/304 302/299/302 355/312/355 346/272/346
f 300/298/300 297/305/297 345/304/345 356/308/356
f 310/288/310 308/294/308 348/300/348 349/306/349
f 319/325/319 298/309/298 345/304/345 354/303/354
f 308/294/308 306/293/306 347/271/347 348/300/348
f 306/293/306 304/334/304 346/272/346 347/271/347
