# Blender 5.0.1
# www.blender.org
o GEO_DeadTree_A
v 4.902254 -0.056993 -21.484426
v 4.515574 -0.056993 -20.902254
v 5.097746 -0.056993 -20.515574
v 5.484426 -0.056993 -21.097746
v 4.193585 2.617563 -21.111511
v 4.039392 2.617563 -21.018883
v 4.117724 2.713565 -20.888489
v 4.271916 2.713565 -20.981115
v 6.687276 2.172248 -21.056559
v 6.737236 2.172248 -20.945816
v 6.731976 2.293601 -20.943441
v 6.682015 2.293601 -21.054184
v 5.713980 2.943969 -21.024137
v 5.805233 2.943969 -21.057554
v 5.835150 2.987273 -20.975863
v 5.743897 2.987273 -20.942444
v 5.088131 2.812830 -21.979393
v 5.173622 2.812830 -21.851337
v 5.065386 2.895114 -21.779078
v 4.979895 2.895114 -21.907135
v 4.782423 2.198887 -19.593094
v 4.663101 2.198887 -19.665854
v 4.675057 2.336742 -19.685461
v 4.794379 2.336742 -19.612701
v 5.015531 3.010295 -20.079353
v 4.887911 3.010295 -20.184145
v 4.984469 3.074463 -20.301737
v 5.112089 3.074463 -20.196943
v 3.504592 2.260845 -20.876047
v 3.540624 2.260845 -20.998652
v 3.571319 2.384566 -20.989632
v 3.535286 2.384566 -20.867025
v 5.031975 1.908782 -22.240808
v 5.106360 1.908782 -22.196774
v 5.121542 1.989925 -22.222418
v 5.047157 1.989925 -22.266453
v 4.941903 0.444821 -21.293453
v 4.706979 0.444821 -20.939760
v 5.058097 0.495968 -20.706547
v 5.293021 0.495968 -21.060240
v 4.801023 1.126099 -21.386120
v 4.566934 1.126099 -21.033684
v 4.909143 1.227288 -20.806387
v 5.143232 1.227288 -21.158825
v 4.388980 1.638710 -20.999456
v 4.638503 1.638710 -20.750195
v 4.817022 1.881737 -20.894053
v 4.583003 1.909718 -21.191881
v 4.282362 1.835938 -20.856136
v 4.495296 1.835938 -20.643427
v 4.639087 2.057728 -20.787369
v 4.426154 2.057728 -21.000080
v 4.330347 2.216501 -20.934042
v 4.143465 2.246483 -20.839573
v 4.232685 2.340094 -20.646927
v 4.431190 2.340094 -20.766174
v 5.270380 1.568636 -21.121637
v 5.135900 1.578026 -20.865767
v 5.072423 1.878340 -21.146694
v 5.836493 1.981691 -20.803373
v 5.736465 1.981691 -20.581232
v 5.631341 2.196309 -20.628567
v 5.731370 2.196309 -20.850710
v 6.067954 2.106752 -20.814312
v 6.145773 2.106752 -20.641819
v 6.137579 2.295772 -20.638123
v 6.059760 2.295772 -20.810616
v 5.758917 2.360224 -20.780590
v 5.928212 2.360224 -20.842588
v 5.983715 2.440563 -20.691031
v 5.814420 2.440563 -20.629032
v 4.581870 1.719964 -21.479300
v 4.912715 1.719964 -21.512747
v 4.939372 1.920826 -21.249077
v 4.599807 1.939576 -21.609400
v 4.869102 1.939576 -21.636625
v 4.890799 2.103069 -21.422009
v 4.621504 2.103069 -21.394783
v 4.833624 2.309852 -21.837486
v 4.944978 2.309852 -21.670689
v 4.803998 2.417029 -21.576571
v 4.692643 2.417029 -21.743366
v 4.866012 1.587417 -20.732105
v 5.233352 1.745764 -20.778362
v 4.990993 1.745764 -20.602488
v 4.888655 1.989299 -20.743511
v 5.131014 1.989299 -20.919386
v 5.307585 1.884917 -20.638622
v 5.100825 1.884917 -20.488581
v 5.013519 2.092682 -20.608891
v 5.220280 2.092682 -20.758932
v 5.208758 2.040954 -20.236465
v 5.039838 2.040954 -20.339468
v 5.059078 2.244971 -20.396938
v 5.222667 2.244971 -20.280460
v 5.181130 2.333402 -20.572474
v 5.339389 2.333402 -20.442522
v 4.041986 2.066762 -20.671829
v 4.103061 2.066762 -20.879641
v 4.094014 2.276465 -20.656538
v 4.753425 2.035664 -21.856386
v 4.903303 2.035664 -21.767660
v 4.933892 2.199157 -21.819332
v 4.784014 2.199157 -21.908058
vn 0.6806 -0.6354 0.3648
vn 0.4152 -0.9012 0.1239
vn 0.4303 -0.8888 0.1575
vn 0.5763 -0.5819 0.5738
vn -0.8474 -0.0258 -0.5303
vn -0.9155 0.2245 -0.3339
vn -0.9648 0.0168 -0.2623
vn 0.5301 -0.1145 -0.8402
vn 0.4837 -0.1393 -0.8641
vn -0.0937 -0.3635 -0.9269
vn 0.6069 -0.1345 -0.7833
vn 0.8399 -0.0886 0.5355
vn 0.7603 -0.0588 0.6469
vn 0.4236 -0.4257 0.7996
vn 0.1361 0.0697 -0.9882
vn 0.2466 -0.0047 -0.9691
vn 0.6198 0.0716 -0.7815
vn 0.6107 0.3628 -0.7039
vn -0.3061 0.9223 -0.2358
vn -0.5859 0.7750 -0.2370
vn -0.5900 0.7719 -0.2368
vn -0.3088 -0.1148 0.9442
vn -0.1538 -0.0128 0.9880
vn -0.2370 0.0189 0.9713
vn 0.2684 0.9556 -0.1216
vn 0.0912 0.9197 0.3818
vn 0.2299 0.9604 0.1572
vn 0.1797 0.9692 0.1686
vn 0.8143 0.4190 -0.4015
vn 0.7412 0.2807 -0.6098
vn 0.7116 0.3309 -0.6198
vn 0.8404 0.0477 -0.5399
vn 0.1738 0.3270 0.9289
vn 0.2689 0.2837 0.9204
vn 0.4583 0.4017 0.7929
vn 0.4193 0.5805 0.6980
vn -0.8875 -0.0007 0.4607
vn -0.4527 -0.4865 -0.7473
vn -0.0741 0.2018 -0.9766
vn -0.3717 -0.0092 -0.9283
vn -0.1331 0.0467 -0.9900
vn -0.1865 -0.0159 0.9823
vn -0.2018 -0.0128 0.9793
vn 0.4579 0.1188 0.8810
vn -0.9762 0.0995 -0.1926
vn -0.9833 0.1091 -0.1455
vn -0.9535 0.1063 -0.2820
vn -0.8909 0.0307 -0.4531
vn 0.0292 0.9938 -0.1076
vn -0.0835 0.9854 -0.1485
vn -0.3894 0.8864 -0.2504
vn -0.6479 0.6270 0.4325
vn -0.6658 0.5994 0.4445
vn -0.6704 0.5918 0.4476
vn -0.6002 -0.0252 -0.7994
vn -0.5698 -0.0415 -0.8207
vn 0.2876 0.5482 0.7853
vn 0.2620 0.0953 0.9604
vn 0.5280 0.6780 -0.5114
vn 0.5165 0.7074 -0.4824
vn 0.2599 0.1069 0.9597
vn 0.4203 0.0921 0.9027
vn 0.5394 0.1757 0.8235
vn 0.0705 0.4533 -0.8886
vn 0.2932 0.7494 -0.5936
vn -0.4579 0.1648 -0.8736
vn 0.0050 0.0672 -0.9977
vn -0.3125 0.4175 -0.8533
vn -0.5503 -0.5208 0.6526
vn -0.5523 -0.4952 0.6707
vn -0.5539 -0.7147 0.4271
vn -0.5684 -0.7411 0.3573
vn -0.0122 0.0190 -0.9997
vn -0.0924 -0.0497 -0.9945
vn -0.8029 0.2664 -0.5333
vn -0.8325 0.0334 -0.5530
vn 0.5428 0.1370 -0.8286
vn 0.5429 0.1362 -0.8287
vn 0.8085 0.2409 0.5370
vn 0.5608 0.4680 -0.6830
vn 0.5194 0.5745 -0.6326
vn 0.5487 0.5025 -0.6682
vn -0.8347 -0.0178 -0.5505
vn -0.5533 0.1362 0.8217
vn -0.5533 0.1370 0.8216
vn -0.5619 -0.1628 0.8110
vn -0.5620 -0.1739 0.8087
vn 0.9693 -0.1320 0.2076
vn 0.9683 -0.1104 0.2239
vn 0.9805 -0.1852 0.0660
vn 0.4782 -0.3448 -0.8078
vn -0.9289 0.2504 -0.2730
vn -0.2466 0.9214 0.3003
vn -0.5135 0.1643 0.8422
vn 0.4445 0.8452 -0.2967
vn -0.1532 0.8952 -0.4184
vn 0.2651 0.0329 0.9636
vn 0.8025 0.0559 0.5941
vn 0.9308 -0.0005 0.3656
vn 0.9216 -0.0028 0.3880
vn 0.9105 0.0475 -0.4108
vn -0.2748 0.8457 -0.4575
vn -0.8201 -0.2807 -0.4987
vn -0.8210 -0.2844 -0.4950
vn 0.9644 -0.0074 -0.2643
vn 0.9632 -0.0063 -0.2686
vn 0.9974 -0.0332 -0.0644
vn 0.9974 -0.0552 -0.0458
vn 0.2454 -0.9694 -0.0066
vn 0.2193 -0.9756 -0.0123
vn -0.4527 -0.8899 0.0556
vn -0.4666 -0.8816 0.0707
vn 0.2312 0.6046 0.7623
vn 0.4866 0.2633 0.8330
vn 0.4779 0.2821 0.8319
vn 0.1897 0.6357 0.7483
vn -0.0505 0.1256 0.9908
vn -0.5043 0.7177 -0.4802
vn -0.7684 0.2539 -0.5874
vn -0.7562 0.3016 -0.5807
vn -0.4508 0.7637 -0.4622
vn -0.0286 -0.9436 0.3299
vn -0.0170 -0.9354 0.3531
vn 0.2066 -0.8244 0.5270
vn 0.2905 -0.7938 0.5343
vn -0.9794 -0.0894 -0.1810
vn -0.9694 -0.0796 -0.2323
vn -0.9200 -0.0357 0.3902
vn -0.9019 -0.0217 0.4314
vn -0.0269 -0.9895 -0.1419
vn -0.0090 -0.7468 -0.6650
vn -0.0346 -0.6757 -0.7364
vn -0.0332 -0.9921 -0.1210
vn -0.9417 0.3363 -0.0075
vn -0.9643 0.2388 0.1145
vn 0.6146 0.6686 -0.4186
vn 0.8319 0.3646 -0.4183
vn 0.8106 0.4065 -0.4216
vn 0.4778 0.6826 -0.5530
vn 0.6214 0.4587 -0.6352
vn 0.0895 -0.9952 -0.0404
vn 0.4569 0.0024 0.8895
vn 0.0030 1.0000 -0.0013
vn -0.3645 0.0024 -0.9312
vn -0.3173 -0.3859 -0.8663
vn 0.9269 0.0588 -0.3706
vn 0.2971 0.5034 0.8113
vn -0.9470 0.0588 0.3157
vn 0.7202 -0.5001 -0.4808
vn 0.5726 0.0339 0.8191
vn -0.6846 0.5679 0.4570
vn -0.5370 0.0339 -0.8429
vn 0.3816 -0.7138 0.5872
vn 0.3810 -0.7111 0.5909
vn -0.8046 0.0621 0.5906
vn -0.8037 0.0621 0.5918
vn -0.8439 0.0627 0.5328
vn -0.3079 0.8665 -0.3930
vn -0.3107 0.8659 -0.3920
vn -0.3267 0.8626 -0.3863
vn 0.8872 0.0050 -0.4614
vn 0.8883 0.0028 -0.4592
vn 0.9097 -0.0430 -0.4130
vn -0.1044 -0.9797 0.1713
vn -0.8782 -0.0275 -0.4774
vn 0.0634 0.9935 -0.0948
vn 0.8404 0.0370 0.5407
vn -0.5684 -0.3427 0.7480
vn -0.8008 -0.0033 -0.5989
vn 0.5785 0.4109 -0.7046
vn 0.7833 0.0420 0.6203
vn -0.3077 -0.9472 -0.0904
vn 0.2561 0.0956 -0.9619
vn 0.2227 0.9743 -0.0333
vn -0.3494 0.0184 0.9368
vn -0.1321 -0.9658 0.2231
vn 0.8999 -0.0309 0.4350
vn 0.2178 0.9040 -0.3679
vn -0.8142 -0.0309 -0.5798
vn -0.5450 0.2517 0.7998
vn 0.8080 0.2433 0.5367
vn 0.5259 0.2517 -0.8125
vt 0.109676 0.375505
vt 0.112765 0.382471
vt 0.112330 0.382509
vt 0.109106 0.375719
vt 0.105952 0.377058
vt 0.107207 0.381696
vt 0.106914 0.378398
vt 0.108352 0.378272
vt 0.106963 0.367990
vt 0.108604 0.369619
vt 0.107587 0.369708
vt 0.107947 0.375985
vt 0.112635 0.386242
vt 0.109287 0.380965
vt 0.108182 0.381121
vt 0.112200 0.386280
vt 0.108773 0.381754
vt 0.107202 0.389236
vt 0.106576 0.387126
vt 0.106591 0.394151
vt 0.107078 0.395790
vt 0.113367 0.390457
vt 0.106339 0.389312
vt 0.106408 0.395849
vt 0.105809 0.387718
vt 0.105921 0.394209
vt 0.105360 0.384609
vt 0.105640 0.388258
vt 0.105095 0.384632
vt 0.106714 0.380447
vt 0.107326 0.382209
vt 0.107669 0.385043
vt 0.108456 0.390474
vt 0.108521 0.386652
vt 0.108939 0.390432
vt 0.105788 0.380528
vt 0.106751 0.384329
vt 0.114103 0.390393
vt 0.114551 0.387817
vt 0.107676 0.384248
vt 0.107036 0.376964
vt 0.108905 0.388558
vt 0.113739 0.389017
vt 0.113004 0.389081
vt 0.114213 0.387847
vt 0.113961 0.384557
vt 0.103923 0.347530
vt 0.105518 0.356181
vt 0.106539 0.356092
vt 0.105603 0.347382
vt 0.108143 0.356847
vt 0.107122 0.356937
vt 0.111139 0.388775
vt 0.110255 0.384635
vt 0.110451 0.388835
vt 0.108140 0.383821
vt 0.105946 0.368079
vt 0.108791 0.383764
vt 0.109173 0.386595
vt 0.109389 0.388515
vt 0.109347 0.382914
vt 0.109670 0.382886
vt 0.109481 0.381481
vt 0.109157 0.381509
vt 0.103376 0.390350
vt 0.103532 0.390336
vt 0.103211 0.388197
vt 0.103054 0.388211
vt 0.111279 0.401745
vt 0.110724 0.401793
vt 0.110206 0.400715
vt 0.110761 0.400666
vt 0.108776 0.389040
vt 0.108257 0.389085
vt 0.107995 0.386693
vt 0.108514 0.386648
vt 0.110431 0.398677
vt 0.110803 0.398645
vt 0.111148 0.397173
vt 0.110776 0.397205
vt 0.113892 0.399989
vt 0.114289 0.399954
vt 0.114093 0.399213
vt 0.113696 0.399247
vt 0.114299 0.384528
vt 0.110497 0.387282
vt 0.110127 0.383740
vt 0.116914 0.387572
vt 0.117131 0.387553
vt 0.116970 0.385441
vt 0.116753 0.385460
vt 0.110319 0.380990
vt 0.108839 0.384941
vt 0.108496 0.382107
vt 0.109357 0.384714
vt 0.109786 0.387344
vt 0.109392 0.383804
vt 0.109420 0.381068
vt 0.109785 0.378599
vt 0.108731 0.378691
vt 0.108657 0.382964
vt 0.109710 0.382871
vt 0.106453 0.347308
vt 0.108134 0.347161
s 1
f 57/1/1 60/2/2 61/3/3 58/4/4
f 45/5/5 48/6/6 72/7/7
f 73/8/8 41/9/9 72/7/10
f 73/8/8 44/10/11 41/9/9
f 44/10/12 58/4/4 43/11/13
f 58/4/4 83/12/14 43/11/13
f 63/13/15 60/2/16 57/1/17 59/14/18
f 47/15/19 62/16/20 63/13/21 59/14/19
f 58/4/22 61/3/23 62/16/24 47/15/22
f 47/15/25 74/17/26 48/6/27
f 47/15/25 59/14/28 74/17/26
f 59/14/18 73/8/8 74/17/29
f 59/14/18 57/1/17 73/8/8
f 57/1/17 44/10/11 73/8/8
f 57/1/1 58/4/4 44/10/12
f 56/18/30 53/19/31 5/20/32 8/21/32
f 71/22/33 62/16/24 61/3/23
f 55/23/34 56/18/35 8/21/36 7/24/36
f 54/25/37 55/23/37 7/24/37 6/26/37
f 53/19/38 54/25/38 6/26/38 5/20/38
f 54/25/39 53/19/40 99/27/41
f 100/28/42 98/29/43 50/30/44 55/23/34
f 75/31/45 78/32/46 82/33/47 104/34/48
f 54/25/49 100/28/50 55/23/51
f 78/32/52 81/35/53 82/33/54
f 48/6/6 45/5/5 49/36/55 52/37/56
f 70/38/57 71/22/33 66/39/58
f 47/15/25 48/6/27 52/37/59 51/40/60
f 46/41/61 47/15/62 51/40/63 50/30/44
f 79/42/64 104/34/65 82/33/66
f 69/43/67 63/13/15 68/44/68
f 45/5/69 46/41/70 50/30/71 49/36/72
f 69/43/67 67/45/73 64/46/74
f 2/47/75 38/48/76 37/49/76 1/50/75
f 40/51/77 37/49/78 41/9/9 44/10/11
f 39/52/79 40/51/79 44/10/12 43/11/13
f 97/53/80 91/54/81 96/55/82
f 101/56/83 75/31/45 104/34/48
f 55/23/34 50/30/44 51/40/63 56/18/35
f 38/48/84 39/52/85 43/11/86 42/57/87
f 102/58/88 103/59/89 80/60/90
f 36/61/91 35/62/91 34/63/91 33/64/91
f 32/65/92 31/66/92 30/67/92 29/68/92
f 28/69/93 27/70/93 26/71/93 25/72/93
f 24/73/94 23/74/94 22/75/94 21/76/94
f 20/77/95 19/78/95 18/79/95 17/80/95
f 16/81/96 15/82/96 14/83/96 13/84/96
f 66/39/58 71/22/33 61/3/23 65/85/97
f 46/41/70 45/5/69 42/57/87 43/11/86
f 95/86/98 92/87/99 97/53/100
f 12/88/101 11/89/101 10/90/101 9/91/101
f 5/20/102 6/26/102 7/24/102 8/21/102
f 45/5/5 72/7/7 41/9/103 42/57/104
f 92/87/99 88/92/105 91/54/106 97/53/100
f 69/43/67 64/46/74 60/2/16 63/13/15
f 56/18/30 51/40/60 52/37/59 53/19/31
f 102/58/88 80/60/90 77/93/107 76/94/108
f 64/46/109 65/85/110 61/3/3 60/2/2
f 98/29/111 99/27/112 49/36/72 50/30/71
f 77/93/113 80/60/114 81/35/115 78/32/116
f 99/27/41 53/19/40 52/37/56 49/36/55
f 83/12/117 47/15/62 46/41/61 43/11/117
f 90/95/118 94/96/119 96/55/120 91/54/121
f 92/87/122 93/97/123 89/98/124 88/92/125
f 93/97/126 94/96/127 90/95/128 89/98/129
f 102/58/130 76/94/131 75/31/132 101/56/133
f 68/44/134 63/13/21 62/16/20 71/22/135
f 67/45/136 69/43/137 70/38/138 66/39/136
f 103/59/139 104/34/65 79/42/64 80/60/140
f 65/85/110 64/46/109 9/91/141 10/90/141
f 66/39/58 65/85/97 10/90/142 11/89/142
f 67/45/143 66/39/143 11/89/143 12/88/143
f 64/46/74 67/45/73 12/88/144 9/91/144
f 69/43/145 68/44/145 13/84/145 14/83/145
f 70/38/138 69/43/137 14/83/146 15/82/146
f 71/22/33 70/38/57 15/82/147 16/81/147
f 68/44/134 71/22/135 16/81/148 13/84/148
f 75/31/132 76/94/131 73/8/8 72/7/10
f 76/94/108 77/93/107 74/17/29 73/8/8
f 77/93/113 78/32/116 48/6/27 74/17/26
f 78/32/46 75/31/45 72/7/7 48/6/6
f 80/60/149 79/42/149 17/80/149 18/79/149
f 81/35/115 80/60/114 18/79/150 19/78/150
f 82/33/54 81/35/53 19/78/151 20/77/151
f 79/42/64 82/33/66 20/77/152 17/80/152
f 84/99/153 85/100/154 83/12/14 58/4/4
f 85/100/155 86/101/156 47/15/157 83/12/157
f 86/101/158 87/102/159 59/14/160 47/15/160
f 87/102/161 84/99/162 58/4/163 59/14/163
f 88/92/125 89/98/124 85/100/154 84/99/153
f 89/98/129 90/95/128 86/101/156 85/100/155
f 90/95/118 91/54/121 87/102/159 86/101/158
f 91/54/106 88/92/105 84/99/162 87/102/161
f 93/97/123 92/87/122 21/76/164 22/75/164
f 94/96/127 93/97/126 22/75/165 23/74/165
f 95/86/166 94/96/166 23/74/166 24/73/166
f 92/87/99 95/86/98 24/73/167 21/76/167
f 94/96/168 95/86/168 25/72/168 26/71/168
f 96/55/120 94/96/119 26/71/169 27/70/169
f 97/53/80 96/55/82 27/70/170 28/69/170
f 95/86/98 97/53/100 28/69/171 25/72/171
f 99/27/112 98/29/111 29/68/172 30/67/172
f 54/25/39 99/27/41 30/67/173 31/66/173
f 100/28/50 54/25/49 31/66/174 32/65/174
f 98/29/43 100/28/42 32/65/175 29/68/175
f 102/58/130 101/56/133 33/64/176 34/63/176
f 103/59/89 102/58/88 34/63/177 35/62/177
f 104/34/65 103/59/139 35/62/178 36/61/178
f 101/56/83 104/34/48 36/61/179 33/64/179
f 3/103/180 39/52/85 38/48/84 2/47/180
f 4/104/181 40/51/79 39/52/79 3/103/181
f 1/50/182 37/49/78 40/51/77 4/104/182
f 37/49/76 38/48/76 42/57/104 41/9/103
