# Blender 5.0.1
# www.blender.org
o GEO_Bush_C
v 9.664120 -0.013357 2.053838
v 9.601030 -0.013357 1.696039
v 9.558473 -0.013357 1.888005
v 9.588202 0.358620 2.108216
v 9.789888 0.701160 1.847200
v 9.511093 0.358620 1.670906
v 9.674116 0.600832 2.012540
v 9.560360 0.556386 1.887672
v 9.624548 0.600832 1.731427
v 9.459078 0.358620 1.905531
v 9.761048 -0.013357 1.467510
v 10.118847 -0.013357 1.404421
v 9.926881 -0.013357 1.361863
v 9.967686 0.701160 1.593279
v 10.143980 0.358620 1.314483
v 9.706671 0.358620 1.391593
v 10.083459 0.600832 1.427938
v 9.927214 0.556386 1.363751
v 9.909355 0.358620 1.262468
v 9.802345 0.600832 1.477506
v 10.250447 -0.013357 2.150766
v 9.892649 -0.013357 2.213856
v 10.084615 -0.013357 2.256413
v 10.043810 0.701160 2.024998
v 9.867516 0.358620 2.303793
v 10.304825 0.358620 2.226684
v 9.928037 0.600832 2.190338
v 10.084282 0.556386 2.254526
v 10.102140 0.358620 2.355808
v 10.209150 0.600832 2.140770
v 10.347376 -0.013357 1.564439
v 10.410465 -0.013357 1.922237
v 10.453023 -0.013357 1.730272
v 10.221607 0.701160 1.771076
v 10.500402 0.358620 1.947370
v 10.423293 0.358620 1.510061
v 10.386948 0.600832 1.886849
v 10.451135 0.556386 1.730604
v 10.552418 0.358620 1.712746
v 10.337379 0.600832 1.605736
v 9.588202 0.114401 2.108216
v 9.459078 0.114401 1.905531
v 9.511093 0.114401 1.670906
v 10.143980 0.114401 1.314483
v 9.909355 0.114401 1.262468
v 9.706671 0.114401 1.391593
v 10.500402 0.114401 1.947370
v 10.552418 0.114401 1.712746
v 10.423293 0.114401 1.510061
v 9.867516 0.114401 2.303793
v 10.102140 0.114401 2.355808
v 10.304825 0.114401 2.226684
v 10.090882 -0.014692 2.940345
v 9.704850 -0.014692 2.836908
v 9.876444 -0.014692 2.968576
v 10.109801 0.394482 3.041309
v 9.943344 0.771276 2.718899
v 9.637983 0.394482 2.914886
v 10.054358 0.660916 2.911181
v 9.876989 0.612024 2.966539
v 9.751062 0.660916 2.829913
v 9.847710 0.394482 3.075814
v 9.551410 -0.014692 2.571141
v 9.654846 -0.014692 2.185109
v 9.523178 -0.014692 2.356702
v 9.772855 0.771276 2.423603
v 9.576868 0.394482 2.118243
v 9.450445 0.394482 2.590060
v 9.661840 0.660916 2.231321
v 9.525215 0.612024 2.357248
v 9.415940 0.394482 2.327968
v 9.580573 0.660916 2.534617
v 10.460086 -0.014692 2.400872
v 10.356648 -0.014692 2.786904
v 10.488317 -0.014692 2.615311
v 10.238641 0.771276 2.548410
v 10.434627 0.394482 2.853770
v 10.561049 0.394482 2.381953
v 10.349654 0.660916 2.740692
v 10.486280 0.612024 2.614765
v 10.595555 0.394482 2.644045
v 10.430923 0.660916 2.437396
v 9.920613 -0.014692 2.031668
v 10.306645 -0.014692 2.135105
v 10.135052 -0.014692 2.003437
v 10.068151 0.771276 2.253114
v 10.373511 0.394482 2.057127
v 9.901694 0.394482 1.930704
v 10.260433 0.660916 2.142100
v 10.134506 0.612024 2.005474
v 10.163786 0.394482 1.896199
v 9.957137 0.660916 2.060832
v 10.109801 0.125841 3.041309
v 9.847710 0.125841 3.075814
v 9.637983 0.125841 2.914886
v 9.576868 0.125841 2.118243
v 9.415940 0.125841 2.327968
v 9.450445 0.125841 2.590060
v 10.373511 0.125841 2.057127
v 10.163786 0.125841 1.896199
v 9.901694 0.125841 1.930704
v 10.434627 0.125841 2.853770
v 10.595554 0.125841 2.644045
v 10.561049 0.125841 2.381953
v 10.383430 -0.008815 1.903883
v 10.213874 -0.008815 1.734325
v 10.263535 -0.008815 1.854220
v 10.362972 0.236689 1.962021
v 10.373201 0.462766 1.744555
v 10.155736 0.236689 1.754784
v 10.373201 0.396549 1.877771
v 10.264431 0.367215 1.853326
v 10.239985 0.396549 1.744555
v 10.216434 0.236689 1.901322
v 10.213874 -0.008815 1.550197
v 10.383430 -0.008815 1.380640
v 10.263535 -0.008815 1.430302
v 10.373201 0.462766 1.539968
v 10.362972 0.236689 1.322502
v 10.155736 0.236689 1.529738
v 10.373201 0.396549 1.406751
v 10.264430 0.367215 1.431197
v 10.216434 0.236689 1.383200
v 10.239985 0.396549 1.539968
v 10.737117 -0.008815 1.734325
v 10.567559 -0.008815 1.903883
v 10.687454 -0.008815 1.854220
v 10.577788 0.462766 1.744555
v 10.588018 0.236689 1.962021
v 10.795255 0.236689 1.754784
v 10.577788 0.396549 1.877771
v 10.686560 0.367215 1.853326
v 10.734556 0.236689 1.901322
v 10.711005 0.396549 1.744555
v 10.567559 -0.008815 1.380640
v 10.737117 -0.008815 1.550197
v 10.687454 -0.008815 1.430302
v 10.577788 0.462766 1.539968
v 10.795255 0.236689 1.529738
v 10.588018 0.236689 1.322502
v 10.711005 0.396549 1.539968
v 10.686560 0.367215 1.431197
v 10.734556 0.236689 1.383200
v 10.577788 0.396549 1.406751
v 10.362972 0.075505 1.962021
v 10.216434 0.075505 1.901322
v 10.155736 0.075505 1.754784
v 10.362972 0.075505 1.322502
v 10.216434 0.075505 1.383200
v 10.155736 0.075505 1.529738
v 10.795255 0.075505 1.529738
v 10.734556 0.075505 1.383200
v 10.588018 0.075505 1.322502
v 10.588018 0.075505 1.962021
v 10.734556 0.075505 1.901322
v 10.795255 0.075505 1.754784
v 9.299604 -0.012606 2.280616
v 9.209390 -0.012606 2.032754
v 9.203163 -0.012606 2.175369
v 9.252181 0.338466 2.329065
v 9.363475 0.661755 2.117020
v 9.141919 0.338466 2.026123
v 9.301545 0.567066 2.249829
v 9.204472 0.525117 2.174893
v 9.230666 0.567066 2.055091
v 9.134309 0.338466 2.200430
v 9.294988 -0.012606 1.849189
v 9.542850 -0.012606 1.758975
v 9.400235 -0.012606 1.752748
v 9.458583 0.661755 1.913059
v 9.549480 0.338466 1.691504
v 9.246538 0.338466 1.801766
v 9.520513 0.567066 1.780251
v 9.400711 0.525117 1.754056
v 9.375174 0.338466 1.683893
v 9.325774 0.567066 1.851130
v 9.731031 -0.012606 2.275999
v 9.483170 -0.012606 2.366213
v 9.625784 -0.012606 2.372440
v 9.567436 0.661755 2.212129
v 9.476538 0.338466 2.433684
v 9.779480 0.338466 2.323422
v 9.505506 0.567066 2.344938
v 9.625308 0.525117 2.371132
v 9.650846 0.338466 2.441295
v 9.700245 0.567066 2.274059
v 9.726415 -0.012606 1.844573
v 9.816628 -0.012606 2.092434
v 9.822856 -0.012606 1.949819
v 9.662544 0.661755 2.008168
v 9.884100 0.338466 2.099065
v 9.773838 0.338466 1.796123
v 9.795353 0.567066 2.070098
v 9.821548 0.525117 1.950295
v 9.891710 0.338466 1.924758
v 9.724474 0.567066 1.875359
v 9.252181 0.107972 2.329065
v 9.134309 0.107972 2.200430
v 9.141919 0.107972 2.026123
v 9.549480 0.107972 1.691504
v 9.375174 0.107972 1.683893
v 9.246538 0.107972 1.801766
v 9.884100 0.107972 2.099065
v 9.891710 0.107972 1.924758
v 9.773838 0.107972 1.796123
v 9.476538 0.107972 2.433684
v 9.650846 0.107972 2.441295
v 9.779480 0.107972 2.323422
vn -0.5790 -0.5855 0.5673
vn -0.7381 -0.5855 -0.3351
vn -0.7728 -0.6199 0.1363
vn -0.6991 0.2316 0.6764
vn -0.2904 0.9555 0.0512
vn -0.8883 0.2316 -0.3965
vn -0.5351 0.7131 0.4530
vn -0.7736 0.6189 0.1364
vn -0.6578 0.7131 -0.2427
vn -0.9578 0.2324 0.1689
vn -0.5673 -0.5855 -0.5790
vn 0.3351 -0.5855 -0.7381
vn -0.1363 -0.6199 -0.7728
vn -0.0512 0.9555 -0.2904
vn 0.3965 0.2316 -0.8883
vn -0.6764 0.2316 -0.6991
vn 0.2427 0.7131 -0.6578
vn -0.1364 0.6189 -0.7736
vn -0.1689 0.2324 -0.9578
vn -0.4530 0.7131 -0.5351
vn 0.5673 -0.5855 0.5790
vn -0.3351 -0.5855 0.7381
vn 0.1363 -0.6199 0.7728
vn 0.0512 0.9555 0.2904
vn -0.3965 0.2316 0.8883
vn 0.6764 0.2316 0.6991
vn -0.2427 0.7131 0.6578
vn 0.1364 0.6189 0.7736
vn 0.1689 0.2324 0.9578
vn 0.4530 0.7131 0.5351
vn 0.5790 -0.5855 -0.5673
vn 0.7381 -0.5855 0.3351
vn 0.7728 -0.6199 -0.1363
vn 0.2904 0.9555 -0.0512
vn 0.8883 0.2316 0.3965
vn 0.6992 0.2316 -0.6764
vn 0.6578 0.7131 0.2427
vn 0.7736 0.6189 -0.1364
vn 0.9578 0.2324 -0.1689
vn 0.5351 0.7131 -0.4530
vn -0.6923 -0.2977 0.6574
vn -0.9377 -0.3057 0.1653
vn -0.8754 -0.2977 -0.3810
vn 0.3810 -0.2977 -0.8754
vn -0.1653 -0.3057 -0.9377
vn -0.6574 -0.2977 -0.6923
vn 0.8754 -0.2977 0.3810
vn 0.9377 -0.3057 -0.1653
vn 0.6923 -0.2977 -0.6574
vn -0.3810 -0.2977 0.8754
vn 0.1653 -0.3057 0.9377
vn 0.6574 -0.2977 0.6923
vn 0.2695 -0.5855 0.7645
vn -0.6156 -0.5855 0.5274
vn -0.2031 -0.6199 0.7579
vn 0.3176 0.2316 0.9195
vn -0.0763 0.9555 0.2848
vn -0.7348 0.2316 0.6375
vn 0.1844 0.7131 0.6764
vn -0.2033 0.6189 0.7587
vn -0.4979 0.7131 0.4936
vn -0.2517 0.2324 0.9395
vn -0.7645 -0.5855 0.2695
vn -0.5274 -0.5855 -0.6156
vn -0.7579 -0.6199 -0.2031
vn -0.2848 0.9555 -0.0763
vn -0.6375 0.2316 -0.7348
vn -0.9195 0.2316 0.3176
vn -0.4936 0.7131 -0.4979
vn -0.7587 0.6189 -0.2033
vn -0.9395 0.2324 -0.2517
vn -0.6764 0.7131 0.1844
vn 0.7645 -0.5855 -0.2695
vn 0.5274 -0.5855 0.6156
vn 0.7579 -0.6199 0.2031
vn 0.2848 0.9555 0.0763
vn 0.6375 0.2316 0.7348
vn 0.9195 0.2316 -0.3176
vn 0.4936 0.7131 0.4979
vn 0.7587 0.6189 0.2033
vn 0.9395 0.2324 0.2517
vn 0.6764 0.7131 -0.1844
vn -0.2695 -0.5855 -0.7645
vn 0.6156 -0.5855 -0.5274
vn 0.2031 -0.6199 -0.7579
vn 0.0763 0.9555 -0.2848
vn 0.7348 0.2316 -0.6375
vn -0.3176 0.2316 -0.9195
vn 0.4979 0.7131 -0.4936
vn 0.2033 0.6189 -0.7587
vn 0.2517 0.2324 -0.9395
vn -0.1844 0.7131 -0.6764
vn 0.3032 -0.2977 0.9052
vn -0.2464 -0.3057 0.9197
vn -0.7152 -0.2977 0.6323
vn -0.6323 -0.2977 -0.7152
vn -0.9197 -0.3057 -0.2464
vn -0.9052 -0.2977 0.3032
vn 0.7152 -0.2977 -0.6323
vn 0.2464 -0.3057 -0.9197
vn -0.3032 -0.2977 -0.9052
vn 0.6323 -0.2977 0.7152
vn 0.9197 -0.3057 0.2464
vn 0.9052 -0.2977 -0.3032
vn -0.1489 -0.5855 0.7968
vn -0.7968 -0.5855 0.1489
vn -0.5549 -0.6199 0.5549
vn -0.1847 0.2316 0.9551
vn -0.2085 0.9555 0.2085
vn -0.9551 0.2316 0.1847
vn -0.1785 0.7131 0.6780
vn -0.5554 0.6189 0.5554
vn -0.6780 0.7131 0.1785
vn -0.6877 0.2324 0.6877
vn -0.7968 -0.5855 -0.1489
vn -0.1489 -0.5855 -0.7968
vn -0.5549 -0.6199 -0.5549
vn -0.2085 0.9555 -0.2085
vn -0.1847 0.2316 -0.9551
vn -0.9551 0.2316 -0.1847
vn -0.1785 0.7131 -0.6780
vn -0.5554 0.6189 -0.5554
vn -0.6877 0.2324 -0.6877
vn -0.6780 0.7131 -0.1785
vn 0.7968 -0.5855 0.1489
vn 0.1489 -0.5855 0.7968
vn 0.5549 -0.6199 0.5549
vn 0.2085 0.9555 0.2085
vn 0.1847 0.2316 0.9551
vn 0.9551 0.2316 0.1847
vn 0.1785 0.7131 0.6780
vn 0.5554 0.6189 0.5554
vn 0.6877 0.2324 0.6877
vn 0.6780 0.7131 0.1785
vn 0.1489 -0.5855 -0.7968
vn 0.7968 -0.5855 -0.1489
vn 0.5549 -0.6199 -0.5549
vn 0.2085 0.9555 -0.2085
vn 0.9551 0.2316 -0.1847
vn 0.1847 0.2316 -0.9551
vn 0.6780 0.7131 -0.1785
vn 0.5554 0.6189 -0.5554
vn 0.6877 0.2324 -0.6877
vn 0.1785 0.7131 -0.6780
vn -0.1900 -0.2977 0.9356
vn -0.6733 -0.3057 0.6733
vn -0.9356 -0.2977 0.1900
vn -0.1900 -0.2977 -0.9356
vn -0.6733 -0.3057 -0.6733
vn -0.9356 -0.2977 -0.1900
vn 0.9356 -0.2977 -0.1900
vn 0.6733 -0.3057 -0.6733
vn 0.1900 -0.2977 -0.9356
vn 0.1900 -0.2977 0.9356
vn 0.6733 -0.3057 0.6733
vn 0.9356 -0.2977 0.1900
vn -0.5101 -0.4858 0.7097
vn -0.8470 -0.4858 -0.2158
vn -0.8030 -0.5193 0.2923
vn -0.5769 0.1854 0.7955
vn -0.3381 0.9330 0.1230
vn -0.9533 0.1854 -0.2385
vn -0.4970 0.6404 0.5855
vn -0.7990 0.5264 0.2908
vn -0.7571 0.6404 -0.1291
vn -0.9231 0.1874 0.3360
vn -0.7097 -0.4858 -0.5101
vn 0.2158 -0.4858 -0.8470
vn -0.2923 -0.5193 -0.8030
vn -0.1230 0.9330 -0.3381
vn 0.2385 0.1854 -0.9533
vn -0.7955 0.1854 -0.5769
vn 0.1291 0.6404 -0.7571
vn -0.2908 0.5264 -0.7990
vn -0.3360 0.1874 -0.9231
vn -0.5855 0.6404 -0.4970
vn 0.7097 -0.4858 0.5101
vn -0.2158 -0.4858 0.8470
vn 0.2923 -0.5193 0.8030
vn 0.1230 0.9330 0.3381
vn -0.2385 0.1854 0.9533
vn 0.7955 0.1854 0.5769
vn -0.1291 0.6404 0.7571
vn 0.2908 0.5264 0.7990
vn 0.3360 0.1874 0.9231
vn 0.5855 0.6404 0.4970
vn 0.5101 -0.4858 -0.7097
vn 0.8470 -0.4858 0.2158
vn 0.8030 -0.5193 -0.2923
vn 0.3381 0.9330 -0.1230
vn 0.9533 0.1854 0.2385
vn 0.5769 0.1854 -0.7955
vn 0.7571 0.6404 0.1291
vn 0.7990 0.5264 -0.2908
vn 0.9231 0.1874 -0.3360
vn 0.4970 0.6404 -0.5855
vn -0.5762 -0.2442 0.7800
vn -0.9089 -0.2540 0.3308
vn -0.9428 -0.2442 -0.2271
vn 0.2271 -0.2442 -0.9428
vn -0.3308 -0.2540 -0.9089
vn -0.7800 -0.2442 -0.5762
vn 0.9428 -0.2442 0.2271
vn 0.9089 -0.2540 -0.3308
vn 0.5762 -0.2442 -0.7800
vn -0.2271 -0.2442 0.9428
vn 0.3308 -0.2540 0.9089
vn 0.7800 -0.2442 0.5762
vt 0.554317 0.869716
vt 0.566100 0.859828
vt 0.567974 0.866453
vt 0.559260 0.875607
vt 0.570981 0.855733
vt 0.571043 0.865720
vt 0.561308 0.878047
vt 0.563388 0.846685
vt 0.558508 0.850780
vt 0.552309 0.847784
vt 0.553564 0.844889
vt 0.546725 0.860668
vt 0.541781 0.854776
vt 0.539733 0.852336
vt 0.545269 0.877308
vt 0.550213 0.883199
vt 0.552260 0.885639
vt 0.536221 0.884900
vt 0.541165 0.890791
vt 0.543212 0.893232
vt 0.530686 0.859928
vt 0.521638 0.867520
vt 0.523685 0.869960
vt 0.532733 0.862368
vt 0.528629 0.875852
vt 0.537677 0.868260
s 1
f 4/1/4 7/2/7 8/3/8 10/4/10
f 5/5/5 9/6/9 8/3/8 7/2/7
f 6/7/6 10/4/10 8/3/8 9/6/9
f 14/5/14 17/2/17 18/3/18 20/6/20
f 15/1/15 19/4/19 18/3/18 17/2/17
f 16/7/16 20/6/20 18/3/18 19/4/19
f 24/8/24 27/9/27 28/10/28 30/11/30
f 25/12/25 29/13/29 28/10/28 27/9/27
f 26/14/26 30/11/30 28/10/28 29/13/29
f 34/8/34 37/11/37 38/10/38 40/9/40
f 35/14/35 39/13/39 38/10/38 37/11/37
f 36/12/36 40/9/40 38/10/38 39/13/39
f 41/15/41 4/1/4 10/4/10 42/16/42
f 42/16/42 10/4/10 6/7/6 43/17/43
f 5/5/5 14/5/14 20/6/20 9/6/9
f 9/6/9 20/6/20 16/7/16 6/7/6
f 44/15/44 12/18/12 13/19/13 45/16/45
f 45/16/45 13/19/13 11/20/11 46/17/46
f 14/5/14 34/8/34 40/9/40 17/2/17
f 17/2/17 40/9/40 36/12/36 15/1/15
f 47/21/47 32/22/32 33/23/33 48/24/48
f 48/24/48 33/23/33 31/25/31 49/26/49
f 34/8/34 24/8/24 30/11/30 37/11/37
f 37/11/37 30/11/30 26/14/26 35/14/35
f 50/26/50 22/25/22 23/23/23 51/24/51
f 51/24/51 23/23/23 21/22/21 52/21/52
f 24/8/24 5/5/5 7/2/7 27/9/27
f 27/9/27 7/2/7 4/1/4 25/12/25
f 43/17/43 6/7/6 16/7/16 46/17/46
f 50/26/50 25/12/25 4/1/4 41/15/41
f 34/8/34 14/5/14 5/5/5 24/8/24
f 44/15/44 15/1/15 36/12/36 49/26/49
f 47/21/47 35/14/35 26/14/26 52/21/52
f 32/22/32 47/21/47 52/21/52 21/22/21
f 12/18/12 44/15/44 49/26/49 31/25/31
f 22/25/22 50/26/50 41/15/41 1/18/1
f 2/20/2 43/17/43 46/17/46 11/20/11
f 29/13/29 51/24/51 52/21/52 26/14/26
f 25/12/25 50/26/50 51/24/51 29/13/29
f 39/13/39 48/24/48 49/26/49 36/12/36
f 35/14/35 47/21/47 48/24/48 39/13/39
f 19/4/19 45/16/45 46/17/46 16/7/16
f 15/1/15 44/15/44 45/16/45 19/4/19
f 3/19/3 42/16/42 43/17/43 2/20/2
f 1/18/1 41/15/41 42/16/42 3/19/3
f 56/1/56 59/2/59 60/3/60 62/4/62
f 57/5/57 61/6/61 60/3/60 59/2/59
f 58/7/58 62/4/62 60/3/60 61/6/61
f 66/5/66 69/2/69 70/3/70 72/6/72
f 67/1/67 71/4/71 70/3/70 69/2/69
f 68/7/68 72/6/72 70/3/70 71/4/71
f 76/8/76 79/9/79 80/10/80 82/11/82
f 77/12/77 81/13/81 80/10/80 79/9/79
f 78/14/78 82/11/82 80/10/80 81/13/81
f 86/8/86 89/11/89 90/10/90 92/9/92
f 87/14/87 91/13/91 90/10/90 89/11/89
f 88/12/88 92/9/92 90/10/90 91/13/91
f 93/15/93 56/1/56 62/4/62 94/16/94
f 94/16/94 62/4/62 58/7/58 95/17/95
f 57/5/57 66/5/66 72/6/72 61/6/61
f 61/6/61 72/6/72 68/7/68 58/7/58
f 96/15/96 64/18/64 65/19/65 97/16/97
f 97/16/97 65/19/65 63/20/63 98/17/98
f 66/5/66 86/8/86 92/9/92 69/2/69
f 69/2/69 92/9/92 88/12/88 67/1/67
f 99/21/99 84/22/84 85/23/85 100/24/100
f 100/24/100 85/23/85 83/25/83 101/26/101
f 86/8/86 76/8/76 82/11/82 89/11/89
f 89/11/89 82/11/82 78/14/78 87/14/87
f 102/26/102 74/25/74 75/23/75 103/24/103
f 103/24/103 75/23/75 73/22/73 104/21/104
f 76/8/76 57/5/57 59/2/59 79/9/79
f 79/9/79 59/2/59 56/1/56 77/12/77
f 95/17/95 58/7/58 68/7/68 98/17/98
f 102/26/102 77/12/77 56/1/56 93/15/93
f 86/8/86 66/5/66 57/5/57 76/8/76
f 96/15/96 67/1/67 88/12/88 101/26/101
f 99/21/99 87/14/87 78/14/78 104/21/104
f 84/22/84 99/21/99 104/21/104 73/22/73
f 64/18/64 96/15/96 101/26/101 83/25/83
f 74/25/74 102/26/102 93/15/93 53/18/53
f 54/20/54 95/17/95 98/17/98 63/20/63
f 81/13/81 103/24/103 104/21/104 78/14/78
f 77/12/77 102/26/102 103/24/103 81/13/81
f 91/13/91 100/24/100 101/26/101 88/12/88
f 87/14/87 99/21/99 100/24/100 91/13/91
f 71/4/71 97/16/97 98/17/98 68/7/68
f 67/1/67 96/15/96 97/16/97 71/4/71
f 55/19/55 94/16/94 95/17/95 54/20/54
f 53/18/53 93/15/93 94/16/94 55/19/55
f 108/1/108 111/2/111 112/3/112 114/4/114
f 109/5/109 113/6/113 112/3/112 111/2/111
f 110/7/110 114/4/114 112/3/112 113/6/113
f 118/5/118 121/2/121 122/3/122 124/6/124
f 119/1/119 123/4/123 122/3/122 121/2/121
f 120/7/120 124/6/124 122/3/122 123/4/123
f 128/8/128 131/9/131 132/10/132 134/11/134
f 129/12/129 133/13/133 132/10/132 131/9/131
f 130/14/130 134/11/134 132/10/132 133/13/133
f 138/8/138 141/11/141 142/10/142 144/9/144
f 139/14/139 143/13/143 142/10/142 141/11/141
f 140/12/140 144/9/144 142/10/142 143/13/143
f 145/15/145 108/1/108 114/4/114 146/16/146
f 146/16/146 114/4/114 110/7/110 147/17/147
f 109/5/109 118/5/118 124/6/124 113/6/113
f 113/6/113 124/6/124 120/7/120 110/7/110
f 148/15/148 116/18/116 117/19/117 149/16/149
f 149/16/149 117/19/117 115/20/115 150/17/150
f 118/5/118 138/8/138 144/9/144 121/2/121
f 121/2/121 144/9/144 140/12/140 119/1/119
f 151/21/151 136/22/136 137/23/137 152/24/152
f 152/24/152 137/23/137 135/25/135 153/26/153
f 138/8/138 128/8/128 134/11/134 141/11/141
f 141/11/141 134/11/134 130/14/130 139/14/139
f 154/26/154 126/25/126 127/23/127 155/24/155
f 155/24/155 127/23/127 125/22/125 156/21/156
f 128/8/128 109/5/109 111/2/111 131/9/131
f 131/9/131 111/2/111 108/1/108 129/12/129
f 147/17/147 110/7/110 120/7/120 150/17/150
f 154/26/154 129/12/129 108/1/108 145/15/145
f 138/8/138 118/5/118 109/5/109 128/8/128
f 148/15/148 119/1/119 140/12/140 153/26/153
f 151/21/151 139/14/139 130/14/130 156/21/156
f 136/22/136 151/21/151 156/21/156 125/22/125
f 116/18/116 148/15/148 153/26/153 135/25/135
f 126/25/126 154/26/154 145/15/145 105/18/105
f 106/20/106 147/17/147 150/17/150 115/20/115
f 133/13/133 155/24/155 156/21/156 130/14/130
f 129/12/129 154/26/154 155/24/155 133/13/133
f 143/13/143 152/24/152 153/26/153 140/12/140
f 139/14/139 151/21/151 152/24/152 143/13/143
f 123/4/123 149/16/149 150/17/150 120/7/120
f 119/1/119 148/15/148 149/16/149 123/4/123
f 107/19/107 146/16/146 147/17/147 106/20/106
f 105/18/105 145/15/145 146/16/146 107/19/107
f 160/1/160 163/2/163 164/3/164 166/4/166
f 161/5/161 165/6/165 164/3/164 163/2/163
f 162/7/162 166/4/166 164/3/164 165/6/165
f 170/5/170 173/2/173 174/3/174 176/6/176
f 171/1/171 175/4/175 174/3/174 173/2/173
f 172/7/172 176/6/176 174/3/174 175/4/175
f 180/8/180 183/9/183 184/10/184 186/11/186
f 181/12/181 185/13/185 184/10/184 183/9/183
f 182/14/182 186/11/186 184/10/184 185/13/185
f 190/8/190 193/11/193 194/10/194 196/9/196
f 191/14/191 195/13/195 194/10/194 193/11/193
f 192/12/192 196/9/196 194/10/194 195/13/195
f 197/15/197 160/1/160 166/4/166 198/16/198
f 198/16/198 166/4/166 162/7/162 199/17/199
f 161/5/161 170/5/170 176/6/176 165/6/165
f 165/6/165 176/6/176 172/7/172 162/7/162
f 200/15/200 168/18/168 169/19/169 201/16/201
f 201/16/201 169/19/169 167/20/167 202/17/202
f 170/5/170 190/8/190 196/9/196 173/2/173
f 173/2/173 196/9/196 192/12/192 171/1/171
f 203/21/203 188/22/188 189/23/189 204/24/204
f 204/24/204 189/23/189 187/25/187 205/26/205
f 190/8/190 180/8/180 186/11/186 193/11/193
f 193/11/193 186/11/186 182/14/182 191/14/191
f 206/26/206 178/25/178 179/23/179 207/24/207
f 207/24/207 179/23/179 177/22/177 208/21/208
f 180/8/180 161/5/161 163/2/163 183/9/183
f 183/9/183 163/2/163 160/1/160 181/12/181
f 199/17/199 162/7/162 172/7/172 202/17/202
f 206/26/206 181/12/181 160/1/160 197/15/197
f 190/8/190 170/5/170 161/5/161 180/8/180
f 200/15/200 171/1/171 192/12/192 205/26/205
f 203/21/203 191/14/191 182/14/182 208/21/208
f 188/22/188 203/21/203 208/21/208 177/22/177
f 168/18/168 200/15/200 205/26/205 187/25/187
f 178/25/178 206/26/206 197/15/197 157/18/157
f 158/20/158 199/17/199 202/17/202 167/20/167
f 185/13/185 207/24/207 208/21/208 182/14/182
f 181/12/181 206/26/206 207/24/207 185/13/185
f 195/13/195 204/24/204 205/26/205 192/12/192
f 191/14/191 203/21/203 204/24/204 195/13/195
f 175/4/175 201/16/201 202/17/202 172/7/172
f 171/1/171 200/15/200 201/16/201 175/4/175
f 159/19/159 198/16/198 199/17/199 158/20/158
f 157/18/157 197/15/197 198/16/198 159/19/159
