# Blender 5.0.1
# www.blender.org
o GEO_CoastTile_A
v 7.974515 -2.013760 -4.016919
v 8.000000 -2.013756 -4.095103
v 4.079400 -0.013760 -4.173705
v 4.104749 -0.013760 -4.112765
v 7.920600 -0.013760 -4.173705
v 7.895251 -0.013760 -4.112765
v 4.025485 -2.013760 -4.016919
v 4.000000 -2.013756 -4.095102
v 4.000000 -0.120803 -4.095102
v 4.025485 -0.120803 -4.016919
v 8.000000 -0.120803 -4.095102
v 7.974515 -0.120803 -4.016919
v 4.000000 -0.086950 -7.991539
v 8.000000 -0.086950 -7.991541
v 4.000000 -2.013756 -5.603428
v 8.000000 -0.086950 -5.543485
v 4.000000 -0.086950 -5.540268
v 4.079400 -0.013760 -5.475251
v 7.920600 -0.013760 -5.457670
v 8.000000 -2.013756 -7.991541
v 6.000000 -2.013760 -3.991541
v 6.000000 -0.120803 -3.991541
v 6.000000 -0.013760 -4.087523
v 6.000000 -0.013760 -4.173705
v 4.437801 -0.086950 -7.991540
v 7.567562 -0.086950 -7.991541
v 5.061361 -0.086950 -7.991541
v 5.685789 -0.086950 -7.991541
v 6.312145 -0.086950 -7.991541
v 6.936088 -0.086950 -7.991541
v 7.561399 -0.086950 -5.594768
v 4.438601 -0.086950 -5.686731
v 6.835425 -0.086950 -5.477936
v 6.233464 -0.086950 -5.336389
v 5.687721 -0.086950 -5.301522
v 5.046112 -0.086950 -5.694316
v 7.561399 -0.013760 -5.428685
v 4.438601 -0.013760 -5.532723
v 6.000000 -0.013760 -4.388449
v 6.835424 -0.013760 -5.323928
v 6.233464 -0.013760 -5.182381
v 5.687720 -0.013760 -5.147514
v 5.046111 -0.013760 -5.540308
v 4.000000 -2.013756 -7.991540
v 7.573725 -2.013756 -7.991541
v 6.935337 -2.013756 -7.991541
v 6.312011 -2.013756 -7.991541
v 5.683858 -2.013756 -7.991541
v 5.059562 -2.013756 -7.991541
v 4.437001 -2.013756 -7.991540
v 8.000000 -2.013756 -5.603428
v 4.000000 -2.013756 -6.441875
v 4.000000 -0.086950 -6.400821
v 8.000000 -0.086950 -6.402912
v 7.563556 -0.086950 -6.436245
v 6.870657 -0.086950 -6.360305
v 6.261003 -0.086950 -6.268299
v 5.687045 -0.086950 -6.245636
v 5.051449 -0.086950 -6.500952
v 4.438321 -0.086950 -6.496022
v 8.000000 -2.013756 -6.441875
v 6.000000 -2.013756 -6.441875
v 6.000000 -2.013756 -5.603428
v 6.000000 -2.013760 -4.095101
vn 0.5901 0.7689 0.2460
vn 0.9128 0.2659 0.3099
vn 0.9306 0.3215 0.1750
vn 0.6900 0.7180 0.0917
vn -0.0000 0.3520 0.9360
vn -0.0121 0.3013 0.9534
vn -0.0129 -0.0000 0.9999
vn -0.0000 -0.0000 1.0000
vn 0.0129 -0.0000 0.9999
vn 0.0121 0.3013 0.9534
vn -0.9127 0.2659 0.3102
vn -0.9242 0.3394 0.1752
vn -0.9876 -0.0000 0.1569
vn -0.9508 -0.0000 0.3099
vn -0.1771 0.4281 -0.8862
vn -0.0087 0.9995 -0.0289
vn 0.0322 0.9861 -0.1627
vn -0.0247 0.4235 -0.9055
vn 0.0096 0.6778 0.7352
vn -0.0000 0.6778 0.7353
vn 0.9830 0.1834 0.0060
vn 0.7364 0.6766 0.0014
vn -0.0000 1.0000 -0.0000
vn 0.9508 -0.0000 0.3099
vn 0.9876 -0.0000 0.1569
vn 0.0645 0.4744 -0.8779
vn 0.0584 0.9633 -0.2620
vn -0.1450 0.9299 -0.3380
vn -0.0874 0.9719 -0.2184
vn -0.1414 0.5785 -0.8033
vn -0.2058 0.6985 -0.6854
vn -0.0096 0.6778 0.7352
vn -0.7316 0.6759 0.0891
vn -0.7946 0.6069 -0.0178
vn -0.9779 0.2088 0.0076
vn -0.1311 0.4347 -0.8910
vn 0.0002 0.9998 -0.0186
vn 0.2154 0.4091 -0.8867
vn -0.0127 0.9999 -0.0061
vn 0.2408 0.4740 -0.8470
vn 0.0435 0.9976 -0.0533
vn -1.0000 -0.0000 -0.0000
vn -0.0000 -0.0000 -1.0000
vn 1.0000 -0.0000 -0.0000
vn -0.0000 -1.0000 -0.0000
vn -0.5902 0.7689 0.2460
vt 0.130888 0.543042
vt 0.130917 0.541666
vt 0.130926 0.541666
vt 0.130897 0.543042
vt 0.130191 0.541666
vt 0.129466 0.541666
vt 0.129457 0.541666
vt 0.129847 0.543042
vt 0.130536 0.543042
vt 0.130765 0.543042
vt 0.129618 0.543042
vt 0.130191 0.543042
vt 0.129486 0.543042
vt 0.129495 0.543042
vt 0.877820 0.813117
vt 0.877553 0.813117
vt 0.877560 0.813117
vt 0.129618 0.543042
vt 0.130765 0.543042
vt 0.130306 0.543042
vt 0.130077 0.543042
vt 0.130306 0.543042
vt 0.118931 0.874584
vt 0.118590 0.874584
vt 0.118590 0.874585
vt 0.118915 0.874584
vt 0.115548 0.874584
vt 0.116156 0.874584
vt 0.116765 0.874584
vt 0.117373 0.874584
vt 0.117982 0.874585
vt 0.117982 0.874584
vt 0.130172 0.542354
vt 0.118388 0.874584
vt 0.115222 0.874584
vt 0.115750 0.874584
vt 0.116277 0.874584
vt 0.116805 0.874585
vt 0.117333 0.874584
vt 0.117860 0.874584
vt 0.130211 0.542354
vt 0.879454 0.810871
vt 0.880467 0.809662
vt 0.879020 0.811390
vt 0.878513 0.811994
vt 0.117682 0.873620
vt 0.880408 0.813117
vt 0.880402 0.813117
vt 0.879448 0.811994
vt 0.878942 0.811390
vt 0.117689 0.872656
vt 0.116456 0.873620
vt 0.879677 0.813117
vt 0.879677 0.813117
vt 0.880141 0.813117
vt 0.879213 0.813117
vt 0.878749 0.813117
vt 0.878749 0.813117
vt 0.878284 0.813117
vt 0.878284 0.813117
vt 0.115206 0.874584
vt 0.120100 0.874152
vt 0.120314 0.876130
vt 0.880222 0.813805
vt 0.880223 0.811220
vt 0.877486 0.809071
vt 0.879880 0.813805
vt 0.130263 0.541710
vt 0.131301 0.542354
vt 0.131783 0.542354
vt 0.880564 0.813805
vt 0.879876 0.813837
s 1
f 6/1/1 12/2/2 11/3/3 5/4/4
f 22/5/5 10/6/6 7/6/7 21/5/8
f 22/5/5 21/5/8 1/2/9 12/2/10
f 10/6/11 9/7/12 8/7/13 7/6/14
f 33/8/15 40/9/16 37/10/17 31/11/18
f 22/5/5 12/2/10 6/1/19 23/12/20
f 16/3/21 19/4/22 5/4/4 11/3/3
f 5/4/23 24/12/23 23/12/23 6/1/23
f 23/12/23 24/12/23 3/13/23 4/14/23
f 11/3/3 12/2/2 1/2/24 2/3/25
f 55/15/23 31/15/23 16/16/23 54/17/23
f 24/12/23 39/12/23 38/18/23 18/13/23 3/13/23
f 16/13/26 31/11/18 37/10/17 19/4/27
f 18/13/28 38/18/29 32/19/30 17/4/31
f 22/5/5 23/12/20 4/14/32 10/6/6
f 19/4/23 37/10/23 39/12/23 24/12/23 5/4/23
f 3/13/33 18/13/34 17/7/35 9/7/12
f 37/10/23 40/9/23 39/12/23
f 40/9/23 41/20/23 39/12/23
f 41/20/23 42/21/23 39/12/23
f 42/21/23 43/8/23 39/12/23
f 43/8/23 38/18/23 39/12/23
f 34/21/36 41/20/37 40/9/16 33/8/15
f 35/22/38 42/21/39 41/20/37 34/21/36
f 36/9/40 43/8/41 42/21/39 35/22/38
f 36/9/40 32/19/30 38/18/29 43/8/41
f 53/23/23 60/24/23 25/25/23 13/26/23
f 55/27/23 26/27/23 30/28/23 56/28/23
f 56/28/23 30/28/23 29/29/23 57/29/23
f 57/29/23 29/29/23 28/30/23 58/30/23
f 58/30/23 28/30/23 27/31/23 59/32/23
f 59/32/23 27/31/23 25/25/23 60/24/23
f 9/7/12 17/4/35 15/33/42 8/7/13
f 50/34/43 44/26/43 13/26/43 25/34/43
f 20/35/43 45/36/43 26/36/43 14/35/43
f 45/36/43 46/37/43 30/37/43 26/36/43
f 46/37/43 47/38/43 29/38/43 30/37/43
f 47/38/43 48/39/43 28/39/43 29/38/43
f 48/39/43 49/40/43 27/40/43 28/39/43
f 49/40/43 50/34/43 25/34/43 27/40/43
f 16/3/21 11/3/3 2/3/25 51/41/44
f 54/42/44 16/43/21 51/44/44 61/45/44
f 53/23/42 13/26/42 44/26/42 52/46/42
f 17/47/35 53/48/42 52/49/42 15/50/42
f 14/35/44 54/51/44 61/52/44 20/35/44
f 36/53/23 59/54/23 60/55/23 32/55/23
f 35/56/23 58/56/23 59/54/23 36/53/23
f 34/57/23 57/58/23 58/56/23 35/56/23
f 33/59/23 56/60/23 57/58/23 34/57/23
f 31/15/23 55/15/23 56/60/23 33/59/23
f 17/47/23 32/55/23 60/55/23 53/48/23
f 26/27/23 55/27/23 54/61/23 14/35/23
f 62/62/45 52/63/45 44/26/45 50/34/45
f 63/64/45 62/65/45 61/66/45 51/67/45
f 64/68/45 63/69/45 51/70/45 2/3/45
f 15/71/45 52/72/45 62/65/45 63/64/45
f 8/7/45 15/33/45 63/69/45 64/68/45
f 61/52/45 62/62/45 45/36/45 20/35/45
f 45/36/45 62/62/45 46/37/45
f 46/37/45 62/62/45 47/38/45
f 47/38/45 62/62/45 48/39/45
f 48/39/45 62/62/45 49/40/45
f 49/40/45 62/62/45 50/34/45
f 7/6/45 8/7/45 64/68/45 21/5/45
f 21/5/45 64/68/45 2/3/45 1/2/45
f 10/6/11 4/14/46 3/13/33 9/7/12
