# Blender 5.0.1
# www.blender.org
o GEO_RoadTriadTile
v 0.000000 -2.013760 2.000000
v 2.000000 -2.013760 -1.151173
v 2.000000 -2.013760 1.151173
v -1.920600 -0.013760 1.834052
v -1.834052 -0.013760 1.920600
v -1.895251 -0.013760 1.895251
v -2.000000 -2.013760 1.151173
v -2.000000 -2.013760 -1.151173
v -1.151173 -2.013760 -2.000000
v -1.834052 -0.013760 -1.920600
v -1.920600 -0.013760 -1.834052
v -1.895251 -0.013760 -1.895251
v 1.151173 -2.013760 -2.000000
v 1.974515 -2.013760 1.974515
v 1.912989 -2.013760 2.000000
v 1.834052 -0.013760 1.920600
v 1.920600 -0.013760 1.834052
v 1.895251 -0.013760 1.895251
v 2.000000 -2.013760 1.912989
v 1.974515 -2.013760 -1.974515
v 2.000000 -2.013760 -1.912989
v 1.920600 -0.013760 -1.834052
v 1.834052 -0.013760 -1.920600
v 1.895251 -0.013760 -1.895251
v -1.912989 -0.120803 2.000000
v -2.000000 -0.120803 1.912989
v -1.974515 -0.120803 1.974515
v -2.000000 -0.120803 -1.912989
v -1.912989 -0.120803 -2.000000
v -1.974515 -0.120803 -1.974515
v 1.912989 -0.120803 -2.000000
v 2.000000 -0.120803 -1.912989
v 1.974515 -0.120803 -1.974515
v 2.000000 -0.120803 1.912989
v 1.912989 -0.120803 2.000000
v 1.974515 -0.120803 1.974515
v -1.969804 -0.067282 1.883431
v -1.883431 -0.067282 1.969804
v -1.944506 -0.067282 1.944506
v -1.969804 -0.067282 -1.883431
v -1.883431 -0.067282 -1.969804
v -1.944506 -0.067282 -1.944506
v 1.883431 -0.067282 -1.969804
v 1.969804 -0.067282 -1.883431
v 1.944506 -0.067282 -1.944506
v 1.969804 -0.067282 1.883431
v 1.883431 -0.067282 1.969804
v 1.944506 -0.067282 1.944506
v -1.834053 -0.013760 -1.834052
v -1.834052 -0.013760 1.834052
v 1.834052 -0.013760 -1.834052
v 1.834052 -0.013760 1.834052
v 1.151173 -0.120803 -1.151173
v -1.151173 -0.120803 -1.151174
v 1.918556 -0.120803 1.151173
v 1.918556 -0.120803 -1.151173
v -1.904577 -0.120803 -1.151173
v 1.151173 -0.120803 -1.834052
v -1.151174 -0.120803 -1.834052
v 1.265079 -0.013760 -1.920600
v -1.271310 -0.013760 -1.920600
v 1.912989 -2.013760 -2.000000
v -1.974515 -2.013760 -1.974515
v 1.151173 -0.120803 -2.000000
v -1.151173 -0.120803 -2.000000
v -1.218776 -0.067282 -1.969804
v 1.216917 -0.067282 -1.969804
v -1.271310 -0.013760 -1.834052
v 1.265079 -0.013760 -1.834052
v -1.912989 -2.013760 -2.000000
v -2.000000 -2.013760 -1.912989
v -2.000000 -0.120803 -1.151173
v -2.000000 -0.120803 1.151173
v -1.969804 -0.067282 1.221515
v -1.969804 -0.067282 -1.221392
v -1.920600 -0.013760 -1.250947
v -1.920600 -0.013760 1.282604
v 1.920600 -0.013760 1.282604
v 1.920600 -0.013760 -1.250947
v -1.974515 -2.013760 1.974515
v -2.000000 -2.013760 1.912989
v 2.000000 -0.120803 1.151173
v 2.000000 -0.120803 -1.151173
v 1.969804 -0.067282 -1.221392
v 1.969804 -0.067282 1.221515
v -1.834053 -0.013760 -1.250947
v -1.834052 -0.013760 1.282604
v 1.834052 -0.013760 1.282604
v 1.834052 -0.013760 -1.250947
v -1.271310 -0.013760 -1.250947
v 1.265079 -0.013760 -1.250947
v 1.834052 -0.120803 -1.151173
v 1.834052 -0.120803 1.151173
v -1.904577 -0.120803 1.151173
v -1.834052 -0.120803 1.151173
v -1.834053 -0.120803 -1.151173
v -1.912989 -2.013760 2.000000
v 0.000000 -0.120803 2.000000
v 0.000000 -0.067282 1.969804
v 0.000000 -0.013760 1.920600
v -0.000000 -0.013760 1.834052
v -0.000000 -0.013760 1.282604
v 0.000000 -0.120803 1.151173
v 0.000000 -2.013760 1.151173
v 0.000000 -2.013760 -1.151173
v 1.912989 -2.013760 1.151173
v 1.912989 -2.013760 -1.151173
v 1.912989 -2.013760 -1.912989
v 0.000000 -2.013760 1.912989
v -1.126132 -2.013760 -1.912989
v 1.126132 -2.013760 -1.912989
v 1.912989 -2.013760 1.912989
v -1.912989 -2.013760 1.912989
v -1.912989 -2.013760 1.151173
v -1.912989 -2.013760 -1.151173
v -1.912989 -2.013760 -1.912989
vn -0.1438 0.6401 0.7547
vn -0.0910 0.7182 0.6899
vn -0.2447 0.7689 0.5908
vn -0.2845 0.6689 0.6868
vn -0.6868 0.6689 0.2845
vn -0.5908 0.7689 0.2447
vn -0.6899 0.7182 0.0910
vn -0.7547 0.6401 0.1438
vn -0.2031 0.2837 0.9372
vn -0.6731 0.3064 0.6731
vn -0.7071 -0.0000 0.7071
vn -0.1951 -0.0000 0.9808
vn -0.9956 0.0934 -0.0000
vn -0.9372 0.2837 -0.2031
vn -0.9808 -0.0000 -0.1951
vn -1.0000 -0.0000 -0.0000
vn 0.9956 0.0934 -0.0000
vn 0.9956 0.0933 -0.0000
vn 1.0000 -0.0000 -0.0000
vn -0.2031 0.2837 -0.9372
vn -0.0000 0.0954 -0.9954
vn -0.0000 -0.0000 -1.0000
vn -0.1951 -0.0000 -0.9808
vn -0.6731 0.3064 -0.6731
vn -0.7071 -0.0000 -0.7071
vn 0.9372 0.2837 0.2031
vn 0.9808 -0.0000 0.1951
vn 0.6731 0.3064 -0.6731
vn 0.9372 0.2837 -0.2031
vn 0.9808 -0.0000 -0.1951
vn 0.7071 -0.0000 -0.7071
vn 0.6731 0.3064 0.6731
vn 0.2031 0.2837 0.9372
vn 0.1951 -0.0000 0.9808
vn 0.7071 -0.0000 0.7071
vn -0.1438 0.6401 -0.7547
vn -0.2845 0.6689 -0.6868
vn -0.6868 0.6689 -0.2845
vn -0.7547 0.6401 -0.1438
vn 0.7547 0.6401 -0.1438
vn 0.6868 0.6689 -0.2845
vn 0.2845 0.6689 -0.6868
vn 0.2031 0.2837 -0.9372
vn 0.1438 0.6401 -0.7547
vn 0.1438 0.6401 0.7547
vn 0.2845 0.6689 0.6868
vn 0.6868 0.6689 0.2845
vn 0.7547 0.6401 0.1438
vn -0.9372 0.2837 0.2031
vn -0.0910 0.7182 -0.6899
vn -0.2447 0.7689 -0.5908
vn -0.5908 0.7689 -0.2447
vn -0.6899 0.7182 -0.0910
vn 0.6899 0.7182 -0.0910
vn 0.5908 0.7689 -0.2447
vn 0.2447 0.7689 -0.5908
vn 0.0910 0.7182 -0.6899
vn 0.0910 0.7182 0.6899
vn 0.2447 0.7689 0.5908
vn 0.5908 0.7689 0.2447
vn 0.6899 0.7182 0.0910
vn -0.0000 0.2540 0.9672
vn -0.0000 -0.0000 1.0000
vn -0.0000 1.0000 -0.0000
vn 0.6652 0.7466 -0.0000
vn 0.6611 0.7503 -0.0091
vn 0.6709 0.7414 -0.0142
vn -0.0000 0.5880 0.8089
vn -0.0000 0.6768 0.7362
vn 0.0487 0.7205 0.6917
vn -0.0000 0.7953 0.6062
vn 0.1981 0.7044 0.6815
vn -0.9956 0.0933 -0.0000
vn -0.9808 -0.0000 0.1951
vn -0.0000 0.0968 -0.9953
vn -0.0000 0.6768 -0.7362
vn -0.0000 0.5466 -0.8374
vn -0.0000 0.5485 -0.8361
vn 0.1951 -0.0000 -0.9808
vn -0.8315 0.5555 -0.0000
vn -0.8396 0.5432 -0.0000
vn -0.7362 0.6768 -0.0000
vn 0.7362 0.6768 -0.0000
vn 0.8315 0.5555 -0.0000
vn 0.8396 0.5432 -0.0000
vn -0.6800 0.7331 -0.0111
vn -0.6848 0.7287 -0.0000
vn -0.6916 0.7221 -0.0171
vn 0.6207 0.7840 -0.0000
vn 0.6511 0.7589 -0.0153
vn 0.6763 0.7360 -0.0285
vn -0.6981 0.7152 -0.0343
vn -0.6675 0.7444 -0.0182
vn -0.6313 0.7755 -0.0000
vn -0.0000 0.7754 -0.6315
vn -0.0089 0.7810 -0.6245
vn -0.0155 0.7744 -0.6326
vn -0.0000 0.6818 0.7315
vn 0.0916 0.6780 0.7293
vn 0.0095 0.7822 -0.6230
vn 0.0153 0.7752 -0.6316
vn 0.0412 0.7805 -0.6238
vn -0.0452 0.7135 0.6992
vn -0.0934 0.6713 0.7352
vn -0.1690 0.7019 0.6920
vn -0.0000 0.7958 -0.6055
vn -0.0344 0.7797 -0.6252
vn -0.0000 -1.0000 -0.0000
vt 0.129542 0.541179
vt 0.129564 0.541833
vt 0.129536 0.541833
vt 0.129514 0.541179
vt 0.129525 0.541833
vt 0.129503 0.541179
vt 0.129528 0.540525
vt 0.129500 0.540525
vt 0.129489 0.540525
vt 0.292143 0.638354
vt 0.129528 0.540525
vt 0.129874 0.540525
vt 0.129500 0.540525
vt 0.131304 0.540525
vt 0.131292 0.540525
vt 0.131304 0.540525
vt 0.131292 0.540525
vt 0.131265 0.540525
vt 0.131290 0.541179
vt 0.131279 0.541179
vt 0.131265 0.540525
vt 0.131251 0.541179
vt 0.129489 0.540525
vt 0.131268 0.541833
vt 0.131256 0.541833
vt 0.131229 0.541833
vt 0.130396 0.540525
vt 0.129820 0.541833
vt 0.129874 0.540525
vt 0.292141 0.638354
vt 0.130396 0.541179
vt 0.130396 0.541833
vt 0.131267 0.540525
vt 0.292050 0.638354
vt 0.292118 0.638354
vt 0.129843 0.541179
vt 0.130949 0.541179
vt 0.130971 0.541833
vt 0.130919 0.540525
vt 0.292025 0.638354
vt 0.130919 0.540525
vt 0.129564 0.540525
vt 0.129532 0.540525
vt 0.131229 0.540525
vt 0.131267 0.540525
vt 0.292138 0.638354
vt 0.129532 0.540525
vt 0.131229 0.540525
vt 0.292028 0.638354
vt 0.292030 0.638354
vt 0.292084 0.638354
vt 0.129564 0.540525
vt 0.130686 0.540863
vt 0.130681 0.540863
vt 0.130682 0.540879
vt 0.130686 0.540885
vt 0.130686 0.540079
vt 0.130804 0.540079
vt 0.130804 0.539883
vt 0.130686 0.539883
vt 0.292305 0.637802
vt 0.292084 0.637802
vt 0.292084 0.638907
vt 0.292305 0.638907
vt 0.130922 0.540079
vt 0.130927 0.540079
vt 0.130927 0.539883
vt 0.130922 0.539883
vt 0.292214 0.638333
vt 0.291954 0.638333
vt 0.291951 0.638375
vt 0.292217 0.638375
vt 0.130927 0.540863
vt 0.130922 0.540863
vt 0.130922 0.540885
vt 0.130926 0.540879
vt 0.292315 0.637802
vt 0.292315 0.638907
vt 0.130873 0.540863
vt 0.130875 0.540885
vt 0.130686 0.540668
vt 0.130735 0.540863
vt 0.130804 0.540668
vt 0.130686 0.539861
vt 0.130682 0.539868
vt 0.130681 0.539883
vt 0.130922 0.540668
vt 0.130922 0.539861
vt 0.130804 0.539861
vt 0.130927 0.540668
vt 0.291863 0.637802
vt 0.291853 0.637802
vt 0.291853 0.638907
vt 0.291863 0.638907
vt 0.130926 0.539868
vt 0.130681 0.540668
vt 0.130681 0.540079
vt 0.130733 0.540885
s 1
f 38/1/1 5/2/2 6/3/3 39/4/4
f 39/4/5 6/3/6 4/5/7 37/6/8
f 25/7/9 27/8/10 80/8/11 97/7/12
f 72/9/13 28/9/14 71/9/15 8/9/16
f 83/10/17 82/10/18 3/10/19 2/10/19
f 29/11/20 65/12/21 9/12/22 70/11/23
f 30/13/24 29/11/20 70/11/23 63/13/25
f 82/14/18 34/14/26 19/14/27 3/14/19
f 33/15/28 32/16/29 21/16/30 20/15/31
f 36/17/32 35/18/33 15/18/34 14/17/35
f 41/1/36 29/11/20 30/13/24 42/4/37
f 42/4/38 30/13/24 28/9/14 40/6/39
f 44/19/40 32/16/29 33/15/28 45/20/41
f 45/20/42 33/15/28 31/21/43 43/22/44
f 47/22/45 35/18/33 36/17/32 48/20/46
f 48/20/47 36/17/32 34/14/26 46/19/48
f 25/7/9 38/1/1 39/4/4 27/8/10
f 27/8/10 39/4/5 37/6/8 26/23/49
f 10/2/50 41/1/36 42/4/37 12/3/51
f 12/3/52 42/4/38 40/6/39 11/5/53
f 22/24/54 44/19/40 45/20/41 24/25/55
f 24/25/56 45/20/42 43/22/44 23/26/57
f 16/26/58 47/22/45 48/20/46 18/25/59
f 18/25/60 48/20/47 46/19/48 17/24/61
f 98/27/62 25/7/9 97/7/12 1/27/63
f 49/2/64 10/2/64 12/3/64 11/5/64
f 90/28/65 54/29/65 59/29/66 68/28/67
f 56/30/64 55/30/64 82/10/64 83/10/64
f 99/31/68 100/32/69 5/2/2 38/1/1
f 5/2/64 50/2/64 4/5/64 6/3/64
f 98/27/62 99/31/68 38/1/1 25/7/9
f 22/24/64 24/25/64 23/26/64 51/26/64
f 18/25/64 17/24/64 52/26/64 16/26/64
f 56/33/70 83/16/71 84/19/72
f 100/32/64 101/32/64 50/2/64 5/2/64
f 26/23/49 73/23/73 7/23/16 81/23/74
f 65/34/21 64/35/75 13/35/22 9/34/22
f 32/16/29 83/16/17 2/16/19 21/16/30
f 41/1/36 10/2/50 61/28/76 66/36/77
f 68/28/64 61/28/64 10/2/64 49/2/64
f 67/37/78 60/38/76 23/26/57 43/22/44
f 51/26/64 23/26/64 60/38/64 69/38/64
f 28/9/14 30/13/24 63/13/25 71/9/15
f 27/8/10 26/23/49 81/23/74 80/8/11
f 64/39/75 67/37/78 43/22/44 31/21/43
f 29/11/20 41/1/36 66/36/77 65/12/21
f 89/26/64 51/26/64 69/38/64 91/38/64
f 90/28/64 68/28/64 49/2/64 86/2/64
f 31/21/43 33/15/28 20/15/31 62/21/79
f 73/40/73 72/40/13 8/40/16 7/40/16
f 72/9/13 75/6/80 40/6/39 28/9/14
f 26/23/49 37/6/8 74/6/81 73/23/73
f 37/6/8 4/5/7 77/5/82 74/6/81
f 75/6/80 76/5/82 11/5/53 40/6/39
f 86/2/64 49/2/64 11/5/64 76/5/64
f 50/2/64 87/2/64 77/5/64 4/5/64
f 44/19/40 22/24/54 79/24/83 84/19/84
f 79/24/64 22/24/64 51/26/64 89/26/64
f 85/19/85 78/24/83 17/24/61 46/19/48
f 17/24/64 78/24/64 88/26/64 52/26/64
f 34/14/26 36/17/32 14/17/35 19/14/27
f 64/39/75 31/21/43 62/21/79 13/39/22
f 82/14/18 85/19/85 46/19/48 34/14/26
f 32/16/29 44/19/40 84/19/84 83/16/17
f 102/32/64 87/2/64 50/2/64 101/32/64
f 58/41/86 53/41/87 91/38/87 69/38/88
f 58/35/64 64/35/64 65/34/64 59/34/64
f 59/34/64 54/34/64 53/35/64 58/35/64
f 59/29/66 65/12/89 66/36/90
f 68/28/67 59/29/66 66/36/90 61/28/91
f 58/41/86 69/38/88 60/38/92 67/37/93
f 64/39/94 58/41/86 67/37/93
f 95/42/95 94/43/96 77/5/97 87/2/95
f 92/44/98 56/33/70 79/24/99 89/26/98
f 55/45/100 78/24/101 85/19/102
f 92/46/64 93/46/64 55/30/64 56/30/64
f 57/47/103 76/5/104 75/6/105
f 53/41/98 92/44/98 89/26/98 91/38/98
f 55/45/100 93/48/95 88/26/95 78/24/101
f 94/49/64 57/49/64 72/40/64 73/40/64
f 54/34/64 96/50/64 95/50/64 103/51/64
f 95/50/64 96/50/64 57/49/64 94/49/64
f 96/52/98 86/2/98 76/5/104 57/47/103
f 94/43/96 73/23/106 74/6/107
f 103/27/95 95/42/95 87/2/95 102/32/95
f 54/29/98 90/28/98 86/2/98 96/52/98
f 77/5/97 94/43/96 74/6/107
f 72/9/71 57/47/103 75/6/105
f 79/24/99 56/33/70 84/19/72
f 82/14/106 55/45/100 85/19/102
f 93/48/95 103/27/95 102/32/95 88/26/95
f 88/26/64 102/32/64 101/32/64 52/26/64
f 16/26/64 52/26/64 101/32/64 100/32/64
f 35/18/33 47/22/45 99/31/68 98/27/62
f 47/22/45 16/26/58 100/32/69 99/31/68
f 35/18/33 98/27/62 1/27/63 15/18/34
f 92/46/64 53/35/64 103/51/64 93/46/64
f 53/35/64 54/34/64 103/51/64
f 116/53/108 71/54/108 63/55/108 70/56/108
f 114/57/108 104/58/108 109/59/108 113/60/108
f 106/61/108 104/62/108 105/63/108 107/64/108
f 106/65/108 3/66/108 19/67/108 112/68/108
f 111/69/108 110/70/108 9/71/108 13/72/108
f 21/73/108 108/74/108 62/75/108 20/76/108
f 3/77/108 106/61/108 107/64/108 2/78/108
f 108/74/108 111/79/108 13/80/108 62/75/108
f 115/81/108 116/53/108 110/82/108 105/83/108
f 97/84/108 80/85/108 81/86/108 113/60/108
f 105/83/108 111/79/108 108/74/108 107/87/108
f 15/88/108 1/89/108 109/59/108 112/68/108
f 107/87/108 108/74/108 21/73/108 2/90/108
f 105/83/108 110/82/108 111/79/108
f 114/91/108 7/92/108 8/93/108 115/94/108
f 104/58/108 106/65/108 112/68/108 109/59/108
f 14/95/108 15/88/108 112/68/108 19/67/108
f 8/96/108 71/54/108 116/53/108 115/81/108
f 104/62/108 114/91/108 115/94/108 105/63/108
f 7/97/108 114/57/108 113/60/108 81/86/108
f 1/89/108 97/84/108 113/60/108 109/59/108
f 110/82/108 116/53/108 70/56/108 9/98/108
