# Blender 5.0.1
# www.blender.org
o GEO_RoadQuadTile
v 1.999998 -2.011927 7.142071
v 1.999999 -2.011824 4.858218
v -1.999980 -2.012569 4.856318
v -1.920601 -0.013746 7.834052
v -1.834052 -0.013746 7.920600
v -1.895251 -0.013746 7.895250
v -1.999983 -2.012591 7.143747
v -1.149090 -2.013746 4.000137
v 1.149090 -2.013746 4.000137
v -1.834052 -0.013746 4.079400
v -1.920600 -0.013746 4.165948
v -1.895250 -0.013746 4.104749
v 1.141741 -2.011684 8.000000
v -1.143436 -2.012136 7.999993
v 1.974514 -2.011684 7.974515
v 1.834052 -0.013746 7.920600
v 1.920600 -0.013746 7.834052
v 1.895250 -0.013746 7.895251
v 1.912988 -2.011684 8.000000
v 1.999999 -2.011684 7.912989
v 1.974515 -2.011684 4.025486
v 1.920601 -0.013746 4.165948
v 1.834052 -0.013746 4.079400
v 1.895251 -0.013746 4.104750
v -1.912989 -0.120679 8.000000
v -2.000000 -0.120679 7.912988
v -1.974515 -0.120679 7.974514
v -1.999999 -0.120679 4.087011
v -1.912988 -0.120679 4.000000
v -1.974514 -0.120679 4.025485
v 1.912989 -0.120679 4.000000
v 2.000000 -0.120679 4.087012
v 1.974515 -0.120679 4.025486
v 1.999999 -0.120679 7.912989
v 1.912988 -0.120679 8.000000
v 1.974514 -0.120679 7.974515
v -1.969804 -0.067212 7.883430
v -1.883431 -0.067212 7.969803
v -1.944506 -0.067212 7.944505
v -1.969803 -0.067212 4.116569
v -1.883431 -0.067212 4.030196
v -1.944505 -0.067212 4.055494
v 1.883431 -0.067212 4.030197
v 1.969804 -0.067212 4.116570
v 1.944506 -0.067212 4.055495
v 1.969803 -0.067212 7.883431
v 1.883431 -0.067212 7.969804
v 1.944505 -0.067212 7.944506
v -1.834052 -0.013746 4.165948
v -1.834053 -0.013746 7.834052
v 1.834052 -0.013746 4.165948
v 1.834052 -0.013746 7.834052
v 2.000000 -2.011684 4.087012
v 1.912989 -2.011684 4.000000
v -1.143436 -0.121131 7.999993
v 1.141741 -0.120678 8.000000
v 1.214892 -0.067212 7.969804
v -1.210208 -0.065148 7.969831
v -1.270752 -0.014320 7.920592
v 1.268601 -0.013746 7.920600
v 1.280332 -0.017038 4.079619
v -1.280332 -0.017038 4.079618
v -1.974514 -2.011684 4.025485
v -1.912988 -2.011684 4.000000
v 1.149090 -0.122741 4.000137
v -1.149090 -0.122741 4.000137
v -1.231381 -0.056767 4.029502
v 1.231381 -0.056767 4.029503
v -1.279139 -0.016703 4.166144
v 1.279139 -0.016703 4.166145
v 1.268601 -0.013746 7.834052
v -1.270512 -0.014256 7.834044
v 1.147780 -0.122373 4.095178
v -1.147779 -0.122373 4.095178
v 1.141741 -0.120678 7.905911
v -1.143175 -0.121061 7.905905
v -1.142976 -0.121008 7.834047
v 1.141741 -0.120678 7.834052
v 1.146803 -0.122099 4.166043
v -1.146802 -0.122099 4.166042
v -1.999999 -2.011684 4.087011
v -1.974515 -2.011684 7.974514
v -1.999983 -0.121585 7.143747
v -1.999980 -0.121563 4.856318
v -1.969893 -0.063023 4.755301
v -1.969882 -0.062988 7.244571
v -1.920578 -0.014929 7.327086
v -1.920572 -0.015023 4.672678
v 1.920597 -0.014117 4.686367
v 1.920598 -0.014023 7.313375
v -2.000000 -2.011684 7.912988
v -1.912989 -2.011684 8.000000
v 1.999999 -0.120819 4.858218
v 1.999998 -0.120921 7.142071
v 1.969808 -0.066177 7.229817
v 1.969812 -0.066174 4.770177
v -1.834033 -0.014785 7.326713
v -1.834028 -0.014857 4.673109
v 1.834050 -0.014060 4.686524
v 1.834051 -0.013988 7.313278
v -1.269592 -0.013941 4.676219
v -1.268591 -0.013844 7.324275
v 1.269592 -0.013869 4.687847
v 1.268601 -0.013758 7.312636
v -1.918190 -0.121420 7.143445
v -1.918122 -0.121405 4.856725
v -1.834094 -0.121244 4.857144
v -1.834094 -0.121274 7.143093
v 1.137254 -0.119435 4.858479
v -1.137260 -0.119127 4.859278
v -1.141066 -0.120047 7.140232
v 1.141741 -0.120572 7.141098
v 1.896911 -0.120879 7.141954
v 1.897371 -0.120536 4.858059
v 1.816312 -0.120847 7.141863
v 1.816311 -0.120433 4.858127
v -1.147879 -2.013401 4.856723
v 1.147514 -2.013304 4.857814
v -1.144647 -2.012481 7.143389
v 1.143317 -2.012126 7.142430
vn -0.1441 0.6394 0.7553
vn -0.0914 0.7240 0.6837
vn -0.2445 0.7692 0.5904
vn -0.2844 0.6692 0.6865
vn -0.6865 0.6692 0.2844
vn -0.5904 0.7692 0.2445
vn -0.6774 0.7298 0.0920
vn -0.7562 0.6381 0.1446
vn 0.6730 0.3066 -0.6730
vn 0.9374 0.2830 -0.2031
vn 0.9808 -0.0000 -0.1951
vn 0.7071 -0.0000 -0.7071
vn 0.6730 0.3066 0.6730
vn 0.2031 0.2839 0.9371
vn 0.1951 -0.0000 0.9808
vn 0.7071 -0.0000 0.7071
vn 0.9967 0.0816 -0.0000
vn 0.9374 0.2830 0.2031
vn 0.9808 -0.0000 0.1951
vn 1.0000 -0.0000 -0.0000
vn -0.0005 0.0841 -0.9965
vn 0.0005 0.0841 -0.9965
vn -0.0001 -0.0000 -1.0000
vn 0.0001 -0.0000 -1.0000
vn -0.9972 0.0745 -0.0002
vn -0.9382 0.2801 -0.2031
vn -0.9808 -0.0000 -0.1950
vn -1.0000 -0.0000 -0.0000
vn -0.6730 0.3066 -0.6730
vn -0.7071 -0.0000 -0.7071
vn -0.6730 0.3066 0.6730
vn -0.9382 0.2801 0.2031
vn -0.9808 -0.0000 0.1950
vn -0.7071 -0.0000 0.7071
vn 0.9967 0.0814 -0.0001
vn -0.1460 0.6356 -0.7581
vn -0.2032 0.2743 -0.9399
vn -0.2844 0.6692 -0.6865
vn -0.6865 0.6692 -0.2844
vn -0.7562 0.6382 -0.1446
vn 0.7548 0.6400 -0.1439
vn 0.6865 0.6692 -0.2844
vn 0.2844 0.6692 -0.6865
vn 0.2032 0.2743 -0.9399
vn 0.1460 0.6356 -0.7581
vn 0.1437 0.6405 0.7544
vn 0.2844 0.6692 0.6865
vn 0.6865 0.6692 0.2844
vn 0.7549 0.6399 0.1439
vn -0.2031 0.2820 0.9377
vn -0.0937 0.7499 -0.6549
vn -0.2446 0.7692 -0.5904
vn -0.5904 0.7692 -0.2446
vn -0.6772 0.7300 -0.0920
vn 0.6865 0.7214 -0.0911
vn 0.5904 0.7692 -0.2445
vn 0.2445 0.7692 -0.5904
vn 0.0937 0.7499 -0.6549
vn 0.0909 0.7185 0.6896
vn 0.2446 0.7692 0.5904
vn 0.5904 0.7692 0.2446
vn 0.6867 0.7212 0.0912
vn 0.0016 1.0000 -0.0003
vn 0.0032 1.0000 -0.0011
vn -0.0000 1.0000 -0.0000
vn -0.0006 1.0000 0.0013
vn 0.0005 1.0000 0.0002
vn -0.0001 1.0000 -0.0006
vn -0.0005 1.0000 -0.0013
vn 0.0002 1.0000 0.0004
vn -0.0032 1.0000 -0.0011
vn -0.0019 1.0000 -0.0009
vn 0.0001 1.0000 -0.0003
vn 0.0001 1.0000 -0.0002
vn 0.6419 0.7668 0.0023
vn 0.6229 0.7822 -0.0116
vn -0.0000 1.0000 -0.0039
vn -0.0000 1.0000 -0.0040
vn 0.1948 -0.0000 -0.9808
vn -0.6257 0.7800 -0.0125
vn -0.6229 0.7822 -0.0116
vn -0.6257 0.7799 -0.0125
vn -0.9972 0.0747 0.0002
vn -0.0001 0.0960 0.9954
vn -0.0006 0.5405 0.8414
vn -0.0000 0.5459 0.8378
vn -0.0000 0.0912 0.9958
vn -0.0000 0.6772 0.7358
vn -0.0008 0.6864 0.7273
vn 0.0010 1.0000 0.0004
vn 0.0003 1.0000 -0.0001
vn 0.0001 1.0000 -0.0001
vn -0.0046 0.7292 -0.6842
vn -0.0035 0.5309 -0.8474
vn 0.0037 1.0000 -0.0018
vn 0.0056 1.0000 -0.0020
vn 0.0035 0.5309 -0.8474
vn 0.0046 0.7292 -0.6842
vn -0.0056 1.0000 -0.0020
vn -0.0040 1.0000 -0.0022
vn -0.0002 1.0000 0.0004
vn -0.6218 0.7810 0.0583
vn -0.6377 0.7700 0.0181
vn -0.6341 0.7727 0.0275
vn 0.6420 0.7667 0.0026
vn -0.0001 1.0000 0.0006
vn -0.6444 0.7647 -0.0000
vn 0.6256 0.7800 -0.0126
vn 0.6256 0.7800 -0.0127
vn -0.1951 -0.0000 0.9808
vn -0.0000 -0.0000 1.0000
vn -0.1948 -0.0000 -0.9808
vn -0.8514 0.5245 0.0013
vn -0.8514 0.5246 -0.0013
vn -0.7180 0.6960 0.0019
vn -0.7177 0.6963 -0.0018
vn -0.0006 1.0000 -0.0014
vn -0.0008 1.0000 -0.0022
vn 0.0004 1.0000 0.0004
vn -0.0010 1.0000 0.0024
vn 0.7314 0.6820 -0.0004
vn 0.8463 0.5328 -0.0003
vn 0.0002 1.0000 -0.0005
vn 0.0002 1.0000 -0.0004
vn 0.0003 1.0000 0.0007
vn -0.0011 1.0000 -0.0009
vn 0.7317 0.6816 0.0004
vn 0.8464 0.5326 0.0003
vn -0.0004 1.0000 -0.0006
vn 0.0018 1.0000 -0.0016
vn 0.0002 1.0000 -0.0002
vn -0.0025 1.0000 -0.0024
vn 0.6421 0.7666 0.0029
vn 0.6283 0.7778 -0.0137
vn -0.6443 0.7648 0.0001
vn -0.6285 0.7777 -0.0134
vn -0.0007 1.0000 -0.0011
vn 0.0004 1.0000 -0.0011
vn 0.0004 1.0000 0.0005
vn -0.0007 1.0000 0.0005
vn -0.0042 0.8657 0.5005
vn 0.0009 1.0000 0.0003
vn 0.0009 0.8486 -0.5291
vn 0.0015 0.8499 0.5270
vn -0.0036 0.8650 -0.5017
vn -0.0020 1.0000 -0.0000
vn -0.0019 1.0000 -0.0000
vn -0.0021 1.0000 0.0001
vn 0.0016 1.0000 0.0001
vn 0.0012 1.0000 0.0001
vn -0.0001 -1.0000 0.0005
vn -0.0002 -1.0000 0.0004
vn -0.0006 -1.0000 0.0004
vn -0.0003 -1.0000 0.0008
vn 0.0003 -1.0000 0.0004
vn 0.0001 -1.0000 0.0005
vn 0.0008 -1.0000 0.0003
vn 0.0013 -1.0000 0.0004
vn 0.0025 -1.0000 0.0003
vn 0.0021 -1.0000 0.0001
vn -0.0005 -1.0000 0.0002
vn -0.0012 -1.0000 0.0003
vn -0.0007 -1.0000 -0.0005
vn -0.0010 -1.0000 -0.0011
vn -0.0018 -1.0000 -0.0004
vn 0.0001 -1.0000 0.0004
vn -0.0000 -1.0000 0.0005
vn -0.0002 -1.0000 0.0006
vn 0.0013 -1.0000 -0.0000
vn 0.0006 -1.0000 0.0003
vn -0.0025 -1.0000 0.0002
vn 0.0017 -1.0000 -0.0002
vn -0.0000 -1.0000 0.0011
vn 0.0002 -1.0000 0.0003
vt 0.129630 0.541037
vt 0.129648 0.541491
vt 0.129626 0.541491
vt 0.129609 0.541037
vt 0.129617 0.541491
vt 0.129600 0.541037
vt 0.130992 0.540582
vt 0.131001 0.540582
vt 0.130970 0.540582
vt 0.131001 0.540580
vt 0.292030 0.638341
vt 0.292138 0.638341
vt 0.129589 0.540575
vt 0.129589 0.540582
vt 0.129598 0.540582
vt 0.131001 0.540581
vt 0.129620 0.540582
vt 0.130990 0.541037
vt 0.130981 0.541037
vt 0.130960 0.541037
vt 0.130973 0.541491
vt 0.130964 0.541491
vt 0.130942 0.541491
vt 0.129846 0.541486
vt 0.129868 0.541054
vt 0.129891 0.540579
vt 0.129891 0.540579
vt 0.129860 0.541125
vt 0.129843 0.541463
vt 0.129890 0.540568
vt 0.292138 0.638343
vt 0.292030 0.638343
vt 0.292030 0.638345
vt 0.292138 0.638345
vt 0.130746 0.541466
vt 0.130747 0.541463
vt 0.130700 0.540568
vt 0.130700 0.540570
vt 0.291990 0.638349
vt 0.291990 0.638350
vt 0.130700 0.540565
vt 0.130724 0.541037
vt 0.130698 0.540582
vt 0.130743 0.541491
vt 0.129847 0.541487
vt 0.129843 0.541466
vt 0.130729 0.541125
vt 0.292178 0.638355
vt 0.292178 0.638355
vt 0.129589 0.540575
vt 0.129889 0.540565
vt 0.292030 0.638353
vt 0.292138 0.638356
vt 0.292030 0.638353
vt 0.129892 0.540580
vt 0.292030 0.638354
vt 0.129890 0.540570
vt 0.129600 0.541073
vt 0.129600 0.541072
vt 0.129617 0.541481
vt 0.129617 0.541480
vt 0.129648 0.541482
vt 0.129648 0.541482
vt 0.130973 0.541488
vt 0.130990 0.541046
vt 0.130973 0.541489
vt 0.130942 0.541489
vt 0.130942 0.541488
vt 0.130990 0.541046
vt 0.129847 0.541490
vt 0.129847 0.541489
vt 0.130743 0.541491
vt 0.130743 0.541490
vt 0.129892 0.540588
vt 0.129894 0.540596
vt 0.130698 0.540583
vt 0.130696 0.540593
vt 0.292031 0.638368
vt 0.292138 0.638366
vt 0.292138 0.638357
vt 0.292030 0.638361
vt 0.129618 0.540576
vt 0.292170 0.638355
vt 0.292170 0.638358
vt 0.130964 0.540581
vt 0.130936 0.540584
vt 0.129648 0.540577
vt 0.291994 0.638351
vt 0.291994 0.638351
vt 0.291998 0.638352
vt 0.291998 0.638352
vt 0.129618 0.540576
vt 0.129648 0.540578
vt 0.292173 0.638357
vt 0.292173 0.638355
vt 0.130936 0.540581
vt 0.130965 0.540584
vt 0.131541 0.539877
vt 0.131542 0.539586
vt 0.131479 0.539586
vt 0.131474 0.539594
vt 0.292260 0.637626
vt 0.292259 0.637079
vt 0.291909 0.637079
vt 0.291909 0.637625
vt 0.131729 0.540654
vt 0.131729 0.540945
vt 0.131791 0.540945
vt 0.131796 0.540937
vt 0.292260 0.639630
vt 0.292260 0.639083
vt 0.291908 0.639083
vt 0.291908 0.639630
vt 0.131541 0.540654
vt 0.131471 0.540654
vt 0.131471 0.540916
vt 0.131474 0.540937
vt 0.131729 0.539877
vt 0.131796 0.539594
vt 0.131791 0.539586
vt 0.131728 0.539586
vt 0.291777 0.637625
vt 0.291777 0.639084
vt 0.292391 0.639082
vt 0.292391 0.637626
vt 0.131541 0.540945
vt 0.131479 0.540945
vt 0.131799 0.540654
vt 0.131799 0.540916
vt 0.131471 0.539877
vt 0.131471 0.539615
vt 0.131799 0.539877
vt 0.131799 0.539615
s 1
f 38/1/1 5/2/2 6/3/3 39/4/4
f 39/4/5 6/3/6 4/5/7 37/6/8
f 33/7/9 32/8/10 53/8/11 21/7/12
f 36/7/13 35/9/14 19/9/15 15/7/16
f 94/10/17 34/8/18 20/8/19 1/10/20
f 66/11/21 65/12/22 9/12/23 8/11/24
f 84/13/25 28/14/26 81/14/27 3/13/28
f 28/14/26 30/15/29 63/15/30 81/14/27
f 27/15/31 26/14/32 91/14/33 82/15/34
f 32/8/10 93/16/35 2/16/20 53/8/11
f 41/1/36 29/17/37 30/15/29 42/4/38
f 42/4/39 30/15/29 28/14/26 40/6/40
f 44/18/41 32/8/10 33/7/9 45/19/42
f 45/19/43 33/7/9 31/9/44 43/20/45
f 47/20/46 35/9/14 36/7/13 48/19/47
f 48/19/48 36/7/13 34/8/18 46/18/49
f 25/17/50 38/1/1 39/4/4 27/15/31
f 27/15/31 39/4/5 37/6/8 26/14/32
f 10/2/51 41/1/36 42/4/38 12/3/52
f 12/3/53 42/4/39 40/6/40 11/5/54
f 22/21/55 44/18/41 45/19/42 24/22/56
f 24/22/57 45/19/43 43/20/45 23/23/58
f 16/23/59 47/20/46 48/19/47 18/22/60
f 18/22/61 48/19/48 46/18/49 17/21/62
f 49/2/63 10/2/64 12/3/65 11/5/66
f 5/2/67 50/2/68 4/5/69 6/3/65
f 22/21/70 24/22/65 23/23/71 51/23/72
f 18/22/65 17/21/73 52/23/74 16/23/65
f 59/24/75 58/25/75 55/26/75 76/27/75
f 67/28/76 62/29/76 74/30/76
f 73/31/77 74/32/77 80/33/78 79/34/78
f 31/9/44 33/7/9 21/7/12 54/9/79
f 70/35/80 61/36/81 73/37/81 79/38/82
f 34/8/18 36/7/13 15/7/16 20/8/19
f 83/39/83 84/40/25 3/40/28 7/39/28
f 65/41/22 31/9/44 54/9/79 9/41/23
f 55/26/84 58/25/85 38/1/1 25/17/50
f 35/9/14 47/20/46 57/42/86 56/43/87
f 47/20/46 16/23/59 60/44/88 57/42/86
f 58/25/85 59/24/89 5/2/2 38/1/1
f 59/24/90 72/45/91 50/2/68 5/2/67
f 16/23/65 52/23/74 71/44/92 60/44/65
f 41/1/36 10/2/51 62/29/93 67/28/94
f 69/46/95 62/29/96 10/2/64 49/2/63
f 68/47/97 61/36/98 23/23/58 43/20/45
f 51/23/72 23/23/71 61/36/99 70/35/100
f 93/48/35 94/49/17 1/49/20 2/48/20
f 26/14/32 83/50/83 7/50/28 91/14/33
f 65/41/22 68/47/97 43/20/45 31/9/44
f 29/17/37 41/1/36 67/28/94 66/51/21
f 55/52/101 56/53/101 75/53/101 76/54/101
f 57/42/102 60/44/103 75/43/104 56/43/102
f 72/45/105 59/24/75 76/27/75 77/55/105
f 76/54/101 75/53/101 78/53/106 77/56/106
f 65/12/77 66/11/77 74/32/77 73/31/77
f 60/44/103 71/44/107 78/43/107 75/43/104
f 68/47/81 65/41/81 73/37/81
f 74/30/76 62/29/76 69/46/108 80/57/109
f 55/26/84 25/17/50 92/17/110 14/26/111
f 56/53/87 55/52/84 14/52/111 13/53/111
f 29/17/37 66/51/21 8/51/24 64/17/112
f 25/17/50 27/15/31 82/15/34 92/17/110
f 37/6/8 86/58/113 83/50/83 26/14/32
f 85/59/114 40/6/40 28/14/26 84/13/25
f 4/5/7 87/60/115 86/58/113 37/6/8
f 88/61/116 11/5/54 40/6/40 85/59/114
f 50/2/68 97/62/117 87/60/118 4/5/69
f 98/63/119 49/2/63 11/5/66 88/61/120
f 22/21/55 89/64/121 96/65/122 44/18/41
f 17/21/73 90/66/123 100/67/124 52/23/74
f 89/64/125 22/21/70 51/23/72 99/68/126
f 90/66/127 17/21/62 46/18/49 95/69/128
f 30/15/29 29/17/37 64/17/112 63/15/30
f 35/9/14 56/43/87 13/43/111 19/9/15
f 44/18/41 96/65/122 93/16/35 32/8/10
f 95/69/128 46/18/49 34/8/18 94/10/17
f 72/45/91 102/70/129 97/62/117 50/2/68
f 101/71/130 69/46/95 49/2/63 98/63/119
f 52/23/74 100/67/124 104/72/131 71/44/92
f 99/68/126 51/23/72 70/35/100 103/73/132
f 102/70/133 72/45/105 77/55/105 111/74/133
f 69/46/108 101/71/134 110/75/134 80/57/109
f 71/44/107 104/72/135 112/76/135 78/43/107
f 103/73/136 70/35/80 79/38/82 109/77/136
f 80/33/78 110/78/137 109/79/138 79/34/78
f 78/53/106 112/80/139 111/81/140 77/56/106
f 88/61/141 85/59/141 84/13/141 106/82/141
f 115/83/142 116/84/142 109/79/138 112/80/139
f 90/66/143 95/69/143 94/10/143 113/85/143
f 99/68/144 103/73/144 109/77/144 116/86/144
f 97/62/145 102/70/145 111/74/145 108/87/145
f 84/40/146 83/39/146 105/88/147 106/89/147
f 61/36/81 68/47/81 73/37/81
f 106/89/147 105/88/147 108/90/148 107/91/148
f 86/58/145 87/60/145 105/92/145 83/50/145
f 98/63/141 88/61/141 106/82/141 107/93/141
f 107/91/148 108/90/148 111/81/140 110/78/137
f 101/71/141 98/63/141 107/93/141 110/75/141
f 87/60/145 97/62/145 108/87/145 105/92/145
f 66/51/76 67/28/76 74/30/76
f 111/81/140 112/80/139 109/79/138 110/78/137
f 94/49/149 93/48/149 114/94/150 113/95/150
f 100/67/143 90/66/143 113/85/143 115/96/143
f 96/65/144 89/64/144 114/97/144 93/16/144
f 113/95/150 114/94/150 116/84/142 115/83/142
f 104/72/143 100/67/143 115/96/143 112/76/143
f 89/64/144 99/68/144 116/86/144 114/97/144
f 119/98/151 14/99/152 92/100/153 82/101/154
f 120/102/155 13/103/156 14/104/152 119/105/151
f 118/106/157 9/107/158 54/108/159 21/109/160
f 9/110/158 118/111/157 117/112/161 8/113/162
f 117/114/161 3/115/163 81/116/164 63/117/165
f 120/118/155 15/119/166 19/120/167 13/121/156
f 118/111/157 120/102/155 119/105/151 117/112/161
f 117/112/161 119/105/151 7/122/168 3/123/163
f 2/124/169 1/125/170 120/102/155 118/111/157
f 8/126/162 117/114/161 63/117/165 64/127/171
f 2/128/169 118/106/157 21/109/160 53/129/172
f 7/130/168 119/98/151 82/101/154 91/131/173
f 1/132/170 20/133/174 15/119/166 120/118/155
