# Blender 5.0.1
# www.blender.org
o GEO_CliffCornerTile
v -18.027851 -0.013760 -3.851221
v -18.095089 -0.013760 -3.823486
v -18.000000 -0.013760 -3.918177
v -20.098892 1.986240 -4.004080
v -20.004309 1.986240 -3.909894
v -20.071188 1.986240 -3.937480
v -18.027851 -0.013760 -5.972266
v -18.000000 -0.013760 -5.905310
v -18.095089 -0.013760 -6.000000
v -20.004309 1.986240 -5.913593
v -20.098892 1.986240 -5.819406
v -20.071190 1.986240 -5.886006
v -20.157810 -0.013760 -5.972266
v -20.090572 -0.013760 -6.000000
v -20.185661 -0.013760 -5.905310
v -18.181353 1.986240 -3.909894
v -18.086771 1.986240 -4.004080
v -18.114473 1.986240 -3.937480
v -20.157810 -0.013760 -3.851221
v -20.185661 -0.013760 -3.918177
v -20.090572 -0.013760 -3.823486
v -18.086771 1.986240 -5.819406
v -18.181353 1.986240 -5.913593
v -18.114473 1.986240 -5.886006
v -20.090572 1.879197 -3.823486
v -20.185661 1.879197 -3.918177
v -20.157810 1.879197 -3.851221
v -20.185661 1.879197 -5.905310
v -20.090572 1.879197 -6.000000
v -20.157810 1.879197 -5.972266
v -18.095089 1.879197 -6.000000
v -18.000000 1.879197 -5.905310
v -18.027851 1.879197 -5.972266
v -18.000000 1.879197 -3.918177
v -18.095089 1.879197 -3.823486
v -18.027851 1.879197 -3.851221
v -20.152662 1.932718 -3.950343
v -20.058271 1.932718 -3.856348
v -20.125015 1.932718 -3.883878
v -20.152662 1.932718 -5.873143
v -20.058271 1.932718 -5.967139
v -20.125015 1.932718 -5.939608
v -18.127390 1.932718 -5.967139
v -18.032999 1.932718 -5.873143
v -18.060646 1.932718 -5.939608
v -18.032999 1.932718 -3.950343
v -18.127390 1.932718 -3.856348
v -18.060646 1.932718 -3.883878
v -20.004309 1.986240 -5.819406
v -20.004309 1.986240 -4.004080
v -18.181353 1.986240 -5.819406
v -18.181353 1.986240 -4.004080
v -20.090572 -0.013760 -5.905310
v -18.095089 -0.013760 -5.905310
v -20.090572 -0.013760 -3.918177
v -18.095089 -0.013760 -3.918177
v -16.116838 -0.013760 -3.851221
v -16.184076 -0.013760 -3.823486
v -16.088987 -0.013760 -3.918177
v -18.100973 1.556416 -4.004080
v -18.006390 1.556416 -3.909894
v -18.073271 1.556416 -3.937480
v -16.116838 -0.013760 -6.831746
v -16.088987 -0.013760 -6.764790
v -16.184076 -0.013760 -6.859480
v -18.006390 1.556416 -6.773073
v -18.100973 1.556416 -6.678886
v -18.073271 1.556416 -6.745486
v -18.159891 -0.013760 -6.831746
v -18.092655 -0.013760 -6.859480
v -18.187742 -0.013760 -6.764790
v -16.270340 1.556416 -3.909894
v -16.175758 1.556416 -4.004080
v -16.203461 1.556416 -3.937480
v -18.159891 -0.013760 -3.851221
v -18.187742 -0.013760 -3.918177
v -18.092655 -0.013760 -3.823486
v -16.175758 1.556416 -6.678886
v -16.270340 1.556416 -6.773073
v -16.203461 1.556416 -6.745486
v -18.092655 1.449373 -3.823486
v -18.187742 1.449373 -3.918177
v -18.159891 1.449373 -3.851221
v -18.187742 1.449373 -6.764790
v -18.092655 1.449373 -6.859480
v -18.159891 1.449373 -6.831746
v -16.184076 1.449373 -6.859480
v -16.088987 1.449373 -6.764790
v -16.116838 1.449373 -6.831746
v -16.088987 1.449373 -3.918177
v -16.184076 1.449373 -3.823486
v -16.116838 1.449373 -3.851221
v -18.154743 1.502895 -3.950343
v -18.060352 1.502895 -3.856348
v -18.127096 1.502895 -3.883878
v -18.154743 1.502895 -6.732623
v -18.060352 1.502895 -6.826619
v -18.127096 1.502895 -6.799088
v -16.216377 1.502895 -6.826619
v -16.121986 1.502895 -6.732623
v -16.149633 1.502895 -6.799088
v -16.121986 1.502895 -3.950343
v -16.216377 1.502895 -3.856348
v -16.149633 1.502895 -3.883878
v -18.006390 1.556416 -6.678886
v -18.006390 1.556416 -4.004080
v -16.270340 1.556416 -6.678886
v -16.270340 1.556416 -4.004080
v -18.092655 -0.013760 -6.764790
v -16.184076 -0.013760 -6.764790
v -18.092655 -0.013760 -3.918177
v -16.184076 -0.013760 -3.918177
v -20.264725 -0.013760 -5.674707
v -20.292576 -0.013760 -5.741663
v -20.197487 -0.013760 -5.646973
v -20.111223 1.108022 -7.904738
v -20.205805 1.108022 -7.810552
v -20.178102 1.108022 -7.877152
v -17.271671 -0.013760 -5.674707
v -17.338909 -0.013760 -5.646973
v -17.243820 -0.013760 -5.741663
v -17.330591 1.108022 -7.810553
v -17.425175 1.108022 -7.904739
v -17.358294 1.108022 -7.877152
v -17.271671 -0.013760 -7.963412
v -17.243822 -0.013760 -7.896456
v -17.338909 -0.013760 -7.991146
v -20.205805 1.108022 -5.827566
v -20.111221 1.108022 -5.733380
v -20.178102 1.108022 -5.760966
v -20.264725 -0.013760 -7.963412
v -20.197487 -0.013760 -7.991146
v -20.292576 -0.013760 -7.896456
v -17.425175 1.108022 -5.733380
v -17.330591 1.108022 -5.827567
v -17.358294 1.108022 -5.760967
v -20.292576 1.000979 -7.896456
v -20.197487 1.000979 -7.991146
v -20.264725 1.000979 -7.963412
v -17.338909 1.000979 -7.991146
v -17.243822 1.000979 -7.896456
v -17.271671 1.000979 -7.963412
v -17.243820 1.000979 -5.741663
v -17.338909 1.000979 -5.646973
v -17.271671 1.000979 -5.674707
v -20.197487 1.000979 -5.646973
v -20.292576 1.000979 -5.741663
v -20.264725 1.000979 -5.674707
v -20.165186 1.054501 -7.958284
v -20.259577 1.054501 -7.864289
v -20.231930 1.054501 -7.930754
v -17.371212 1.054501 -7.958285
v -17.276821 1.054501 -7.864289
v -17.304466 1.054501 -7.930754
v -17.276821 1.054501 -5.773829
v -17.371210 1.054501 -5.679834
v -17.304466 1.054501 -5.707365
v -20.165186 1.054501 -5.679834
v -20.259575 1.054501 -5.773829
v -20.231930 1.054501 -5.707365
v -17.425175 1.108022 -7.810553
v -20.111223 1.108022 -7.810553
v -17.425175 1.108022 -5.827567
v -20.111221 1.108022 -5.827566
v -17.338909 -0.013760 -7.896456
v -17.338909 -0.013760 -5.741663
v -20.197487 -0.013760 -7.896456
v -20.197487 -0.013760 -5.741663
vn -0.1370 0.6701 0.7295
vn -0.0848 0.7462 0.6603
vn -0.2314 0.7947 0.5611
vn -0.2730 0.6982 0.6618
vn -0.6598 0.6995 0.2745
vn -0.5594 0.7956 0.2327
vn -0.6586 0.7476 0.0856
vn -0.7282 0.6713 0.1378
vn 0.3636 0.3010 0.8816
vn 0.2017 0.3018 0.9318
vn 0.1944 -0.0000 0.9809
vn 0.3813 -0.0000 0.9244
vn 0.8801 0.3022 -0.3661
vn 0.9313 0.3025 -0.2030
vn 0.9806 -0.0000 -0.1958
vn 0.9233 -0.0000 -0.3841
vn 0.9313 0.3025 0.2030
vn 0.9806 -0.0000 0.1958
vn -0.3636 0.3010 -0.8816
vn -0.2017 0.3018 -0.9318
vn -0.1944 -0.0000 -0.9809
vn -0.3813 -0.0000 -0.9244
vn -0.2017 0.3018 0.9318
vn -0.1944 -0.0000 0.9809
vn -0.3636 0.3010 0.8816
vn -0.3813 -0.0000 0.9244
vn -0.8801 0.3022 0.3661
vn -0.9313 0.3025 0.2030
vn -0.9806 -0.0000 0.1958
vn -0.9233 -0.0000 0.3841
vn 0.8801 0.3022 0.3661
vn 0.9233 -0.0000 0.3841
vn -0.1370 0.6701 -0.7295
vn -0.2730 0.6982 -0.6618
vn -0.6598 0.6995 -0.2745
vn -0.8801 0.3022 -0.3661
vn -0.9313 0.3025 -0.2030
vn -0.7282 0.6713 -0.1378
vn 0.7282 0.6713 -0.1378
vn 0.6598 0.6995 -0.2745
vn 0.2730 0.6982 -0.6618
vn 0.3636 0.3010 -0.8816
vn 0.2017 0.3018 -0.9318
vn 0.1370 0.6701 -0.7295
vn 0.1370 0.6701 0.7295
vn 0.2730 0.6982 0.6618
vn 0.6598 0.6995 0.2745
vn 0.7282 0.6713 0.1378
vn -0.0848 0.7462 -0.6603
vn -0.2314 0.7947 -0.5611
vn -0.5594 0.7956 -0.2327
vn -0.6586 0.7476 -0.0856
vn 0.6586 0.7476 -0.0856
vn 0.5594 0.7956 -0.2327
vn 0.2314 0.7947 -0.5611
vn 0.0848 0.7462 -0.6603
vn 0.0848 0.7462 0.6603
vn 0.2314 0.7947 0.5611
vn 0.5594 0.7956 0.2327
vn 0.6586 0.7476 0.0856
vn -0.9806 -0.0000 -0.1958
vn 0.3813 -0.0000 -0.9244
vn 0.1944 -0.0000 -0.9809
vn -0.0000 1.0000 -0.0000
vn -0.9233 -0.0000 -0.3841
vn -0.0000 -1.0000 -0.0000
vn 0.6598 0.6995 -0.2744
vt 0.129500 0.542354
vt 0.129518 0.543042
vt 0.129495 0.543042
vt 0.129477 0.542354
vt 0.129486 0.543042
vt 0.129468 0.542354
vt 0.177268 0.183290
vt 0.177268 0.183073
vt 0.238729 0.183073
vt 0.238729 0.183290
vt 0.177268 0.183379
vt 0.238729 0.183379
vt 0.177268 0.176422
vt 0.177268 0.176638
vt 0.238729 0.176638
vt 0.238729 0.176422
vt 0.177268 0.176332
vt 0.238729 0.176332
vt 0.129489 0.541666
vt 0.129466 0.541666
vt 0.129457 0.541666
vt 0.130915 0.542354
vt 0.130926 0.541666
vt 0.130917 0.541666
vt 0.130906 0.542354
vt 0.130894 0.541666
vt 0.130883 0.542354
vt 0.129518 0.543042
vt 0.129495 0.543042
vt 0.129486 0.543042
vt 0.130897 0.543042
vt 0.130888 0.543042
vt 0.130865 0.543042
vt 0.130865 0.543042
vt 0.130888 0.543042
vt 0.130897 0.543042
vt 0.129518 0.543042
vt 0.191224 0.188795
vt 0.191224 0.188578
vt 0.238729 0.188578
vt 0.238729 0.188795
vt 0.191224 0.188885
vt 0.238729 0.188885
vt 0.191224 0.182864
vt 0.191224 0.183081
vt 0.238729 0.183081
vt 0.238729 0.182864
vt 0.191224 0.182774
vt 0.238729 0.182774
vt 0.205782 0.176077
vt 0.205782 0.175987
vt 0.238729 0.175987
vt 0.238729 0.176077
vt 0.205782 0.185728
vt 0.205782 0.185511
vt 0.238729 0.185511
vt 0.238729 0.185728
vt 0.205782 0.176294
vt 0.238729 0.176294
vt 0.205782 0.185818
vt 0.238729 0.185818
s 1
f 38/1/1 5/2/2 6/3/3 39/4/4
f 39/4/5 6/3/6 4/5/7 37/6/8
f 36/7/9 35/8/10 2/9/11 1/10/12
f 33/7/13 32/11/14 8/12/15 7/10/16
f 32/11/14 34/11/17 3/12/18 8/12/15
f 30/13/19 29/14/20 14/15/21 13/16/22
f 35/8/10 25/14/23 21/15/24 2/9/11
f 25/14/23 27/13/25 19/16/26 21/15/24
f 27/13/27 26/17/28 20/18/29 19/16/30
f 34/11/17 36/7/31 1/10/32 3/12/18
f 41/1/33 29/19/20 30/20/19 42/4/34
f 42/4/35 30/20/36 28/21/37 40/6/38
f 44/22/39 32/23/14 33/24/13 45/25/40
f 45/25/41 33/24/42 31/26/43 43/27/44
f 47/27/45 35/26/10 36/24/9 48/25/46
f 48/25/47 36/24/31 34/23/17 46/22/48
f 25/19/23 38/1/1 39/4/4 27/20/25
f 27/20/27 39/4/5 37/6/8 26/21/28
f 10/28/49 41/1/33 42/4/34 12/29/50
f 12/29/51 42/4/35 40/6/38 11/30/52
f 22/31/53 44/22/39 45/25/40 24/32/54
f 24/32/55 45/25/41 43/27/44 23/33/56
f 16/34/57 47/27/45 48/25/46 18/35/58
f 18/35/59 48/25/47 46/22/48 17/36/60
f 26/17/28 28/17/37 15/18/61 20/18/29
f 31/8/43 33/7/42 7/10/62 9/9/63
f 47/27/45 16/34/57 5/2/2 38/1/1
f 37/6/8 4/5/7 11/30/52 40/6/38
f 49/37/64 10/28/64 12/29/64 11/30/64
f 28/17/37 30/13/36 13/16/65 15/18/61
f 41/1/33 10/28/49 23/33/56 43/27/44
f 29/14/20 31/8/43 9/9/63 14/15/21
f 44/22/39 22/31/53 17/36/60 46/22/48
f 26/21/28 37/6/8 40/6/38 28/21/37
f 35/26/10 47/27/45 38/1/1 25/19/23
f 29/19/20 41/1/33 43/27/44 31/26/43
f 32/23/14 44/22/39 46/22/48 34/23/17
f 50/2/64 49/37/64 11/30/64 4/5/64
f 5/2/64 50/2/64 4/5/64 6/3/64
f 52/34/64 51/33/64 49/37/64 50/2/64
f 51/33/64 23/33/64 10/28/64 49/37/64
f 16/34/64 52/34/64 50/2/64 5/2/64
f 17/36/64 22/31/64 51/33/64 52/34/64
f 22/31/64 24/32/64 23/33/64 51/33/64
f 18/35/64 17/36/64 52/34/64 16/34/64
f 55/15/66 21/15/66 19/16/66 20/18/66
f 56/9/66 2/9/66 21/15/66 55/15/66
f 14/15/66 53/15/66 15/18/66 13/16/66
f 9/9/66 54/9/66 53/15/66 14/15/66
f 7/10/66 8/12/66 54/9/66 9/9/66
f 3/12/66 1/10/66 2/9/66 56/9/66
f 54/9/66 56/9/66 55/15/66 53/15/66
f 53/15/66 55/15/66 20/18/66 15/18/66
f 8/12/66 3/12/66 56/9/66 54/9/66
f 94/1/1 61/2/2 62/3/3 95/4/4
f 95/4/5 62/3/6 60/5/7 93/6/8
f 92/38/9 91/39/10 58/40/11 57/41/12
f 89/38/13 88/42/14 64/43/15 63/41/16
f 88/42/14 90/42/17 59/43/18 64/43/15
f 86/44/19 85/45/20 70/46/21 69/47/22
f 91/39/10 81/45/23 77/46/24 58/40/11
f 81/45/23 83/44/25 75/47/26 77/46/24
f 83/44/27 82/48/28 76/49/29 75/47/30
f 90/42/17 92/38/31 57/41/32 59/43/18
f 97/1/33 85/19/20 86/20/19 98/4/34
f 98/4/35 86/20/36 84/21/37 96/6/38
f 100/22/39 88/23/14 89/24/13 101/25/40
f 101/25/41 89/24/42 87/26/43 99/27/44
f 103/27/45 91/26/10 92/24/9 104/25/46
f 104/25/47 92/24/31 90/23/17 102/22/48
f 81/19/23 94/1/1 95/4/4 83/20/25
f 83/20/27 95/4/5 93/6/8 82/21/28
f 66/28/49 97/1/33 98/4/34 68/29/50
f 68/29/51 98/4/35 96/6/38 67/30/52
f 78/31/53 100/22/39 101/25/40 80/32/54
f 80/32/55 101/25/41 99/27/44 79/33/56
f 72/34/57 103/27/45 104/25/46 74/35/58
f 74/35/59 104/25/47 102/22/48 73/36/60
f 82/48/28 84/48/37 71/49/61 76/49/29
f 87/39/43 89/38/42 63/41/62 65/40/63
f 103/27/45 72/34/57 61/2/2 94/1/1
f 93/6/8 60/5/7 67/30/52 96/6/38
f 105/37/64 66/28/64 68/29/64 67/30/64
f 84/48/37 86/44/36 69/47/65 71/49/61
f 97/1/33 66/28/49 79/33/56 99/27/44
f 85/45/20 87/39/43 65/40/63 70/46/21
f 100/22/39 78/31/53 73/36/60 102/22/48
f 82/21/28 93/6/8 96/6/38 84/21/37
f 91/26/10 103/27/45 94/1/1 81/19/23
f 85/19/20 97/1/33 99/27/44 87/26/43
f 88/23/14 100/22/39 102/22/48 90/23/17
f 106/2/64 105/37/64 67/30/64 60/5/64
f 61/2/64 106/2/64 60/5/64 62/3/64
f 108/34/64 107/33/64 105/37/64 106/2/64
f 107/33/64 79/33/64 66/28/64 105/37/64
f 72/34/64 108/34/64 106/2/64 61/2/64
f 73/36/64 78/31/64 107/33/64 108/34/64
f 78/31/64 80/32/64 79/33/64 107/33/64
f 74/35/64 73/36/64 108/34/64 72/34/64
f 111/46/66 77/46/66 75/47/66 76/49/66
f 112/40/66 58/40/66 77/46/66 111/46/66
f 70/46/66 109/46/66 71/49/66 69/47/66
f 65/40/66 110/40/66 109/46/66 70/46/66
f 63/41/66 64/43/66 110/40/66 65/40/66
f 59/43/66 57/41/66 58/40/66 112/40/66
f 110/40/66 112/40/66 111/46/66 109/46/66
f 109/46/66 111/46/66 76/49/66 71/49/66
f 64/43/66 59/43/66 112/40/66 110/40/66
f 150/1/38 117/2/52 118/3/51 151/4/35
f 151/4/34 118/3/50 116/5/49 149/6/33
f 148/50/27 147/51/28 114/52/29 113/53/30
f 145/54/9 144/55/10 120/56/11 119/57/12
f 144/55/10 146/58/23 115/59/24 120/56/11
f 142/54/13 141/60/14 126/61/15 125/57/16
f 147/51/28 137/51/37 133/52/61 114/52/29
f 137/51/37 139/50/36 131/53/65 133/52/61
f 139/50/19 138/58/20 132/59/21 131/53/22
f 146/58/23 148/50/25 113/53/26 115/59/24
f 153/1/39 141/19/14 142/20/13 154/4/67
f 154/4/41 142/20/42 140/21/43 152/6/44
f 156/22/45 144/23/10 145/24/9 157/25/46
f 157/25/47 145/24/31 143/26/17 155/27/48
f 159/27/8 147/26/28 148/24/27 160/25/5
f 160/25/4 148/24/25 146/23/23 158/22/1
f 137/19/37 150/1/38 151/4/35 139/20/36
f 139/20/19 151/4/34 149/6/33 138/21/20
f 122/28/53 153/1/39 154/4/67 124/29/54
f 124/29/55 154/4/41 152/6/44 123/30/56
f 134/31/57 156/22/45 157/25/46 136/32/58
f 136/32/59 157/25/47 155/27/48 135/33/60
f 128/34/7 159/27/8 160/25/5 130/35/6
f 130/35/3 160/25/4 158/22/1 129/36/2
f 138/58/20 140/55/43 127/56/63 132/59/21
f 143/60/17 145/54/31 119/57/32 121/61/18
f 159/27/8 128/34/7 117/2/52 150/1/38
f 149/6/33 116/5/49 123/30/56 152/6/44
f 161/37/64 122/28/64 124/29/64 123/30/64
f 140/55/43 142/54/42 125/57/62 127/56/63
f 153/1/39 122/28/53 135/33/60 155/27/48
f 141/60/14 143/60/17 121/61/18 126/61/15
f 156/22/45 134/31/57 129/36/2 158/22/1
f 138/21/20 149/6/33 152/6/44 140/21/43
f 147/26/28 159/27/8 150/1/38 137/19/37
f 141/19/14 153/1/39 155/27/48 143/26/17
f 144/23/10 156/22/45 158/22/1 146/23/23
f 162/2/64 161/37/64 123/30/64 116/5/64
f 117/2/64 162/2/64 116/5/64 118/3/64
f 164/34/64 163/33/64 161/37/64 162/2/64
f 163/33/64 135/33/64 122/28/64 161/37/64
f 128/34/64 164/34/64 162/2/64 117/2/64
f 129/36/64 134/31/64 163/33/64 164/34/64
f 134/31/64 136/32/64 135/33/64 163/33/64
f 130/35/64 129/36/64 164/34/64 128/34/64
f 167/59/66 133/52/66 131/53/66 132/59/66
f 168/59/66 114/52/66 133/52/66 167/59/66
f 126/61/66 165/56/66 127/56/66 125/57/66
f 121/61/66 166/56/66 165/56/66 126/61/66
f 119/57/66 120/56/66 166/56/66 121/61/66
f 115/59/66 113/53/66 114/52/66 168/59/66
f 166/56/66 168/59/66 167/59/66 165/56/66
f 165/56/66 167/59/66 132/59/66 127/56/66
f 120/56/66 115/59/66 168/59/66 166/56/66
